<svg width="2019" height="3833" viewBox="0 0 2019 3833" fill="none" xmlns="http://www.w3.org/2000/svg">
<mask id="path-1-inside-1_469_2" fill="white">
<path d="M645.658 1372.83C642.86 1357.36 635.012 1343.27 623.182 1332.92C582.218 1297.07 524.05 1248.91 501.336 1239.41L511.327 1448.27C511.792 1457.98 514.183 1467.49 518.705 1476.09C545.141 1526.39 595.928 1606.01 631.785 1603.46C680.748 1599.97 639.109 1518.83 671.952 1523.84C664.523 1478.4 653.669 1417.12 645.658 1372.83Z"/>
<path d="M1179.39 1454.68C1117.21 1438.69 978.815 1408.19 922.622 1414.05C897.477 1416.68 882.817 1431.36 874.75 1449.67C880.069 1463.21 895.245 1491.44 913.397 1496.06C923.403 1498.61 1055.17 1514.22 1206.13 1531.61C1178.75 1510.69 1153.57 1492.2 1146.39 1484.67C1132.02 1469.6 1162.4 1458.4 1179.39 1454.68Z"/>
<path d="M1524.17 1536.33C1508.74 1521.65 1287.89 1475.78 1179.39 1454.68C1162.4 1458.4 1132.02 1469.6 1146.39 1484.67C1153.57 1492.2 1178.75 1510.69 1206.13 1531.61C1329.05 1545.77 1464.7 1561.12 1557.7 1571.55C1539.45 1552.1 1527.33 1539.34 1524.17 1536.33Z"/>
<path d="M2013.78 1216.04C1995.02 1197.24 1967.34 1190.47 1942.02 1198.51L1865.37 1222.86C1850.24 1227.66 1837.16 1237.4 1828.22 1250.5L1762.58 1346.68L2018.09 1220.36L2013.78 1216.04Z"/>
<path d="M663.972 2029.14C649.8 2046.26 626.306 2081.68 616.331 2097.25C628.348 2107.54 656.722 2129.43 674.083 2134.74L1177.04 2074.59C1180.21 2056.8 1179.57 2040.57 1177.49 2029.41C1029.78 2026.57 678.37 2011.75 663.972 2029.14Z"/>
<path d="M1322.22 2057.23C1280.92 2038.97 1249.4 2027.15 1240.54 2028.92C1234.74 2030.08 1211.52 2030.06 1177.49 2029.41C1179.57 2040.57 1180.21 2056.8 1177.04 2074.59L1322.22 2057.23Z"/>
<path d="M1787 1818.32L2018.09 1220.36L1762.58 1346.68L1727.35 1398.29C1733.84 1425.8 1749.86 1481.76 1762.05 1485.48C1777.27 1490.14 1794.95 1480.74 1800.51 1501.87C1806.08 1523 1820.67 1535.79 1827.44 1537.86C1843.91 1542.89 1852.66 1560.99 1842.6 1574.97C1794.39 1641.93 1723.17 1735.43 1708.46 1733.55C1734.69 1761.84 1761.44 1790.7 1787 1818.32Z"/>
<path d="M1662.28 2104.7C1662.22 2105.22 1662.14 2105.71 1662.02 2106.2L1644.33 2206.91C1659.27 2209.07 1675.6 2214.41 1681.7 2225.89C1693.41 2247.91 1764.99 2405.8 1764.81 2440.32C1764.75 2452.39 1770.61 2501.24 1778.52 2561.29L1866.3 2281.85C1868.9 2273.61 1869.96 2264.95 1869.44 2256.33L1868.93 2247.74C1868.38 2238.67 1869.58 2229.58 1872.49 2220.96C1880.94 2195.94 1892.96 2160.85 1895.59 2155.25C1898.48 2149.1 1907.08 2081.53 1911.95 2040.83C1912.71 2034.45 1912.56 2028.03 1911.68 2021.66C1908.69 2000.11 1905.04 1966.42 1907.26 1952.15C1908.89 1941.71 1901.76 1932.92 1893.72 1926.81C1885.45 1920.51 1876.43 1914.99 1869.37 1907.36C1845.33 1881.35 1816.97 1850.69 1787 1818.32C1761.44 1790.7 1734.69 1761.84 1708.46 1733.55C1678.92 1701.69 1650.02 1670.56 1624.17 1642.77C1598.08 1614.74 1575.1 1590.1 1557.7 1571.55C1464.7 1561.12 1329.05 1545.77 1206.13 1531.61C1247.2 1562.99 1293.2 1599.82 1290.85 1613.33C1290.2 1617.02 1289.03 1622.02 1287.49 1627.82C1308.89 1630.09 1330.05 1631.61 1350.77 1632.23C1380.02 1633.1 1697.26 2077.83 1662.28 2104.7Z"/>
<path d="M1641.59 2206.55C1629.67 2205.11 1617.69 2202.91 1606.96 2197.53L1564.36 2176.18C1517.91 2151.84 1447.95 2116.21 1384.71 2086.07C1362.63 2075.55 1341.38 2065.7 1322.22 2057.23L1177.04 2074.59L674.083 2134.74C691.444 2140.05 934.664 2189.9 1054.1 2214.17L1166.62 2212.39C1164.51 2200.75 1173.03 2212.11 1200.09 2206.56C1227.14 2201 1513.81 2371.64 1561.95 2372.53C1610.08 2373.42 1603.11 2415.08 1617.13 2418.21C1631.15 2421.35 1617.85 2600.54 1631.84 2630.17C1645.83 2659.8 1666.23 2736.34 1674.83 2745.89C1680.11 2751.74 1677.38 2779.34 1673.92 2801.53C1672.06 2813.4 1672.67 2825.56 1676.32 2837L1706.68 2931.97L1793.01 2818.11C1804.5 2802.96 1809.43 2783.85 1806.73 2765.03C1798.26 2705.97 1787.17 2626.93 1778.52 2561.29C1770.61 2501.24 1764.75 2452.39 1764.81 2440.32C1764.99 2405.8 1693.41 2247.91 1681.7 2225.89C1675.6 2214.41 1659.27 2209.07 1644.33 2206.91C1643.41 2206.78 1642.49 2206.66 1641.59 2206.55Z"/>
<path d="M1706.68 2931.97L1676.32 2837C1672.67 2825.56 1672.06 2813.4 1673.92 2801.53C1677.38 2779.34 1680.11 2751.74 1674.83 2745.89C1666.23 2736.34 1645.83 2659.8 1631.84 2630.17C1617.85 2600.54 1631.15 2421.35 1617.13 2418.21C1603.11 2415.08 1610.08 2373.42 1561.95 2372.53C1513.81 2371.64 1227.14 2201 1200.09 2206.56C1173.03 2212.11 1164.51 2200.75 1166.62 2212.39C1167.71 2218.39 1173.81 2235.41 1179.79 2251.28C1185.49 2266.36 1186.21 2282.9 1181.5 2298.32L1178.16 2309.22C1175.54 2317.79 1171.33 2325.78 1165.73 2332.78L1137.28 2368.39C1257.6 2445.28 1500.17 2605.07 1507.91 2629.07C1517.58 2659.08 1522.16 2673.59 1496.74 2697.78C1471.31 2721.97 1377.96 2786.03 1360.39 2787.22C1353.18 2787.7 1350.93 2803.06 1350.78 2821.59L1213.55 2862.95L1190.38 2870.54C1175.69 2875.35 1159.86 2875.21 1145.2 2870.33C1087.01 2850.99 998.721 2823.81 984.586 2828.04C969.417 2832.59 778.905 2856.94 649.615 2890.26C607.035 2901.23 571.095 2913.18 550.246 2925.71C530.612 2937.51 512.481 2947.11 496.191 2955.12L477.421 3037.24C473.938 3052.48 475.379 3068.54 482.972 3082.2C511.39 3133.34 567.225 3204.21 629.424 3193.74C718.909 3178.66 736.399 3056.7 782.756 3062.38C818.659 3066.79 1065.7 3038 1196.24 3021.64C1204.53 3020.6 1212.92 3021.02 1221.05 3022.89L1520.9 3091.84C1536.17 3095.35 1552.18 3093.71 1566.43 3087.17L1720.57 3016.42C1716.13 3007.11 1709.46 2956.24 1706.68 2931.97Z"/>
<path d="M518.705 1476.09C514.183 1467.49 511.792 1457.98 511.327 1448.27L501.336 1239.41C489.059 1263.04 465.013 1312.87 467.04 1323.23C469.067 1333.59 471.167 1476.64 471.963 1546.87C471.965 1546.34 472.019 1546.64 472.118 1547.66C476.118 1559.69 556.193 1645.45 587.537 1670.85C589.5 1672.44 591.272 1673.79 592.823 1674.88C614.378 1689.96 649.525 1665.69 664.404 1651.67C679.135 1624.41 682.767 1606.5 680.052 1578.9C679.07 1568.92 676.026 1548.76 671.952 1523.84C639.109 1518.83 680.748 1599.97 631.785 1603.46C595.928 1606.01 545.141 1526.39 518.705 1476.09Z"/>
<path d="M436.086 1293.09C422.685 1305.16 414.598 1321.92 413.218 1339.9C408.547 1400.74 397.066 1545.74 388.142 1621.12C387.436 1627.2 453.797 1691.67 487.066 1723.15C480.182 1662.42 473.235 1559.14 472.118 1547.66C472.014 1547.35 471.962 1547.08 471.963 1546.87C471.167 1476.64 469.067 1333.59 467.04 1323.23C465.013 1312.87 489.059 1263.04 501.336 1239.41C498.027 1238.03 460.462 1271.14 436.086 1293.09Z"/>
<path d="M874.75 1449.67C864.789 1472.28 864.882 1500.43 867.704 1518.28C962.785 1554.74 1131.23 1611.26 1287.49 1627.82C1289.03 1622.02 1290.2 1617.02 1290.85 1613.33C1293.2 1599.82 1247.2 1562.99 1206.13 1531.61C1055.17 1514.22 923.403 1498.61 913.397 1496.06C895.245 1491.44 880.069 1463.21 874.75 1449.67Z"/>
<path d="M638.317 1694.41C649.399 1677.31 657.962 1663.6 664.404 1651.67C649.525 1665.69 614.378 1689.96 592.823 1674.88C591.272 1673.79 589.5 1672.44 587.537 1670.85C579.972 1684.16 562.821 1711.54 554.738 1714.57C546.655 1717.6 506.256 1721.55 487.066 1723.15C489.791 1747.18 492.506 1764.55 494.846 1766.91C503.625 1775.78 517.335 1832.13 558.049 1834.86C581.775 1836.44 591.163 1833.02 594.011 1829.54C594.297 1828.31 594.585 1827.09 594.873 1825.87C608.146 1769.7 623.593 1717.13 638.317 1694.41Z"/>
<path d="M554.738 1714.57C562.821 1711.54 579.972 1684.16 587.537 1670.85C556.193 1645.45 476.118 1559.69 472.118 1547.66C473.235 1559.14 480.182 1662.42 487.066 1723.15C506.256 1721.55 546.655 1717.6 554.738 1714.57Z"/>
<path d="M867.704 1518.28C876.824 1543.73 917.901 1604.39 1009.24 1643.39C1123.42 1692.13 1206.05 1678.21 1264.2 1702.91C1270.22 1685.13 1281.53 1650.37 1287.49 1627.82C1131.23 1611.26 962.785 1554.74 867.704 1518.28Z"/>
<path d="M1264.2 1702.91L1288 1704.38C1306.12 1705.51 1323.13 1713.52 1335.48 1726.83C1379.57 1774.31 1435.3 1834.99 1488.18 1893.81C1580.22 1996.17 1663.67 2092.92 1662.28 2104.7C1697.26 2077.83 1380.02 1633.1 1350.77 1632.23C1330.05 1631.61 1308.89 1630.09 1287.49 1627.82C1281.53 1650.37 1270.22 1685.13 1264.2 1702.91Z"/>
<path d="M616.331 2097.25C626.306 2081.68 649.8 2046.26 663.972 2029.14L587.45 1858.62C589.562 1848.92 591.753 1839.18 594.011 1829.54C591.163 1833.02 581.775 1836.44 558.049 1834.86C517.335 1832.13 503.625 1775.78 494.846 1766.91C492.506 1764.55 489.791 1747.18 487.066 1723.15C453.797 1691.67 387.436 1627.2 388.142 1621.12C382.335 1625.37 370.901 1634.93 371.614 1639.16C372.505 1644.46 375.116 1657.8 371.886 1660.16C368.656 1662.52 357.284 1683.29 357.176 1689.12C357.069 1694.94 347.139 1834.09 344.971 1838.45C343.549 1841.3 338.083 1854.14 334.139 1863.5C332.587 1867.18 331.407 1871 330.262 1874.83C326.116 1888.69 316.742 1910.65 302.432 1919.73C281.767 1932.84 55.9564 2153.87 57.6454 2171.05C58.0046 2174.7 54.8453 2200.94 49.8533 2240.3L146.21 2561.76C149.966 2574.29 156.887 2585.84 167.775 2593.09C215.068 2624.58 305.639 2647.75 388.207 2548.48C504.525 2408.64 701.178 2366.92 724.464 2374.04C727.551 2374.99 727.531 2382.84 725.204 2395.78C739.709 2378.78 753.177 2362.98 765.1 2348.97C746.835 2324.03 729.483 2294.64 724.244 2282.97C721.692 2277.29 721.49 2269.76 722.626 2261.73C723.131 2258.16 723.9 2254.49 724.844 2250.85C701.496 2225.91 650.646 2172.1 634.028 2156.29C617.411 2140.49 615.306 2110.35 616.331 2097.25Z"/>
<path d="M893.876 2387.71C883.64 2385.43 873.047 2385.55 862.705 2387.28C843.818 2390.45 818.454 2393.02 804.716 2388.82C794.67 2385.75 779.598 2368.76 765.1 2348.97C753.177 2362.98 739.709 2378.78 725.204 2395.78C709.976 2480.47 595.929 2783.25 606.65 2796.35C616.537 2808.42 639.413 2863.98 649.615 2890.26C778.905 2856.94 969.417 2832.59 984.586 2828.04C998.721 2823.81 1087.01 2850.99 1145.2 2870.33C1159.86 2875.21 1175.69 2875.35 1190.38 2870.54L1213.55 2862.95C1198.97 2679 1059.56 2483.98 991.682 2409.46L935.007 2396.86L893.876 2387.71Z"/>
<path d="M1.37269 2720.78C2.16359 2730.42 5.59468 2739.85 7.6523 2749.3C13.7798 2777.44 22.8859 2817.34 26.1438 2824.44C29.1062 2830.9 39.4077 3108.85 47.5378 3344.22C174.218 3417.21 392.371 3537.38 552.588 3611.41L817.783 3514.13L815.783 3507.06C812.266 3494.62 812.212 3481.45 815.627 3468.98L829.288 3419.11L821.85 3409.35C808.693 3392.08 804.159 3369.74 809.543 3348.71L834.839 3249.9C840.955 3226.01 859.027 3207.01 882.578 3199.7L1185.39 3105.74C1205.22 3099.58 1226.76 3102.42 1244.32 3113.5L1308.05 3153.72C1316.58 3159.11 1326.16 3162.61 1336.15 3164L1529.37 3190.92C1597.17 3163.97 1660.32 3138.44 1670.7 3132.92C1693.07 3121.03 1726.12 3028.06 1720.57 3016.42L1566.43 3087.17C1552.18 3093.71 1536.17 3095.35 1520.9 3091.84L1221.05 3022.89C1212.92 3021.02 1204.53 3020.6 1196.24 3021.64C1065.7 3038 818.659 3066.79 782.756 3062.38C736.399 3056.7 718.909 3178.66 629.424 3193.74C567.225 3204.21 511.39 3133.34 482.972 3082.2C475.379 3068.54 473.938 3052.48 477.421 3037.24L496.191 2955.12C512.481 2947.11 530.612 2937.51 550.246 2925.71C571.095 2913.18 607.035 2901.23 649.615 2890.26C639.413 2863.98 616.537 2808.42 606.65 2796.35C595.929 2783.25 709.976 2480.47 725.204 2395.78C727.531 2382.84 727.551 2374.99 724.464 2374.04C701.178 2366.92 504.525 2408.64 388.207 2548.48C305.639 2647.75 215.068 2624.58 167.775 2593.09C156.887 2585.84 149.966 2574.29 146.21 2561.76L49.8533 2240.3C33.1042 2372.34 -4.2771 2651.93 1.37269 2720.78Z"/>
<path d="M737.242 3676.35C822.067 3673 855.678 3670.78 861.881 3670.09L817.783 3514.13L552.588 3611.41C638.435 3651.08 707.648 3677.51 737.242 3676.35Z"/>
<path d="M829.288 3419.11C833.355 3404.26 846.473 3393.72 861.833 3392.7C898.415 3390.28 948.319 3386.04 968.733 3380.97C994.622 3374.53 1262.47 3287.39 1393.16 3244.63C1428.86 3230.66 1480.33 3210.42 1529.37 3190.92L1336.15 3164C1326.16 3162.61 1316.58 3159.11 1308.05 3153.72L1244.32 3113.5C1226.76 3102.42 1205.22 3099.58 1185.39 3105.74L882.578 3199.7C859.027 3207.01 840.955 3226.01 834.839 3249.9L809.543 3348.71C804.159 3369.74 808.693 3392.08 821.85 3409.35L829.288 3419.11Z"/>
<path d="M52.8798 3501.84C53.6646 3525.47 66.0059 3547.17 86.2951 3559.29C258.929 3662.47 587.685 3824.57 826.141 3832.48C868.946 3833.9 896.332 3791.93 884.679 3750.72L861.881 3670.09C855.678 3670.78 822.067 3673 737.242 3676.35C707.648 3677.51 638.435 3651.08 552.588 3611.41C392.371 3537.38 174.218 3417.21 47.5378 3344.22C49.4869 3400.65 51.3113 3454.64 52.8798 3501.84Z"/>
<path d="M1181.5 2298.32C1186.21 2282.9 1185.49 2266.36 1179.79 2251.28C1173.81 2235.41 1167.71 2218.39 1166.62 2212.39L1054.1 2214.17L770.975 2218.63C750.045 2218.96 730.093 2230.58 724.844 2250.85C723.9 2254.49 723.131 2258.16 722.626 2261.73C752.592 2283.58 826.391 2327.32 881.853 2327.44C951.182 2327.59 1079.38 2334.05 1097.1 2344.93C1111.28 2353.63 1129.8 2364.19 1137.28 2368.39L1165.73 2332.78C1171.33 2325.78 1175.54 2317.79 1178.16 2309.22L1181.5 2298.32Z"/>
<path d="M1715.09 1493.27C1716.34 1510.44 1711.3 1527.49 1700.92 1541.23L1624.17 1642.77C1650.02 1670.56 1678.92 1701.69 1708.46 1733.55C1723.17 1735.43 1794.39 1641.93 1842.6 1574.97C1852.66 1560.99 1843.91 1542.89 1827.44 1537.86C1820.67 1535.79 1806.08 1523 1800.51 1501.87C1794.95 1480.74 1777.27 1490.14 1762.05 1485.48C1749.86 1481.76 1733.84 1425.8 1727.35 1398.29L1724 1403.2C1714.95 1416.45 1710.66 1432.38 1711.83 1448.38L1715.09 1493.27Z"/>
<path d="M1564.36 2176.18C1566.03 2173.23 1571.95 2161.9 1582.29 2140.17C1594.93 2113.57 1656.72 2128.51 1662.02 2106.2L1662.28 2104.7C1663.67 2092.92 1580.22 1996.17 1488.18 1893.81L1384.71 2086.07C1447.95 2116.21 1517.91 2151.84 1564.36 2176.18Z"/>
<path d="M804.716 2388.82C818.454 2393.02 843.818 2390.45 862.705 2387.28C873.047 2385.55 883.64 2385.43 893.876 2387.71L935.007 2396.86L991.682 2409.46L1162.64 2447.49C1171.64 2449.5 1180.16 2453.23 1187.74 2458.49L1371.86 2586.43L1360.39 2787.22C1377.96 2786.03 1471.31 2721.97 1496.74 2697.78C1522.16 2673.59 1517.58 2659.08 1507.91 2629.07C1500.17 2605.07 1257.6 2445.28 1137.28 2368.39C1129.8 2364.19 1111.28 2353.63 1097.1 2344.93C1079.38 2334.05 951.182 2327.59 881.853 2327.44C826.391 2327.32 752.592 2283.58 722.626 2261.73C721.49 2269.76 721.692 2277.29 724.244 2282.97C729.483 2294.64 746.835 2324.03 765.1 2348.97C779.598 2368.76 794.67 2385.75 804.716 2388.82Z"/>
<path d="M616.331 2097.25C615.306 2110.35 617.411 2140.49 634.028 2156.29C650.646 2172.1 701.496 2225.91 724.844 2250.85C730.093 2230.58 750.045 2218.96 770.975 2218.63L1054.1 2214.17C934.664 2189.9 691.444 2140.05 674.083 2134.74C656.722 2129.43 628.348 2107.54 616.331 2097.25Z"/>
<path d="M1371.86 2586.43L1187.74 2458.49C1180.16 2453.23 1171.64 2449.5 1162.64 2447.49L991.682 2409.46C1059.56 2483.98 1198.97 2679 1213.55 2862.95L1350.78 2821.59C1350.93 2803.06 1353.18 2787.7 1360.39 2787.22L1371.86 2586.43Z"/>
<path d="M1582.29 2140.17C1571.95 2161.9 1566.03 2173.23 1564.36 2176.18L1606.96 2197.53C1617.69 2202.91 1629.67 2205.11 1641.59 2206.55C1642.49 2206.66 1643.41 2206.78 1644.33 2206.91L1662.02 2106.2C1656.72 2128.51 1594.93 2113.57 1582.29 2140.17Z"/>
</mask>
<path d="M645.658 1372.83C642.86 1357.36 635.012 1343.27 623.182 1332.92C582.218 1297.07 524.05 1248.91 501.336 1239.41L511.327 1448.27C511.792 1457.98 514.183 1467.49 518.705 1476.09C545.141 1526.39 595.928 1606.01 631.785 1603.46C680.748 1599.97 639.109 1518.83 671.952 1523.84C664.523 1478.4 653.669 1417.12 645.658 1372.83Z" fill="#6C7F93"/>
<path d="M1179.39 1454.68C1117.21 1438.69 978.815 1408.19 922.622 1414.05C897.477 1416.68 882.817 1431.36 874.75 1449.67C880.069 1463.21 895.245 1491.44 913.397 1496.06C923.403 1498.61 1055.17 1514.22 1206.13 1531.61C1178.75 1510.69 1153.57 1492.2 1146.39 1484.67C1132.02 1469.6 1162.4 1458.4 1179.39 1454.68Z" fill="#6C7F93"/>
<path d="M1524.17 1536.33C1508.74 1521.65 1287.89 1475.78 1179.39 1454.68C1162.4 1458.4 1132.02 1469.6 1146.39 1484.67C1153.57 1492.2 1178.75 1510.69 1206.13 1531.61C1329.05 1545.77 1464.7 1561.12 1557.7 1571.55C1539.45 1552.1 1527.33 1539.34 1524.17 1536.33Z" fill="#6C7F93"/>
<path d="M2013.78 1216.04C1995.02 1197.24 1967.34 1190.47 1942.02 1198.51L1865.37 1222.86C1850.24 1227.66 1837.16 1237.4 1828.22 1250.5L1762.58 1346.68L2018.09 1220.36L2013.78 1216.04Z" fill="#6C7F93"/>
<path d="M663.972 2029.14C649.8 2046.26 626.306 2081.68 616.331 2097.25C628.348 2107.54 656.722 2129.43 674.083 2134.74L1177.04 2074.59C1180.21 2056.8 1179.57 2040.57 1177.49 2029.41C1029.78 2026.57 678.37 2011.75 663.972 2029.14Z" fill="#6C7F93"/>
<path d="M1322.22 2057.23C1280.92 2038.97 1249.4 2027.15 1240.54 2028.92C1234.74 2030.08 1211.52 2030.06 1177.49 2029.41C1179.57 2040.57 1180.21 2056.8 1177.04 2074.59L1322.22 2057.23Z" fill="#6C7F93"/>
<path d="M1787 1818.32L2018.09 1220.36L1762.58 1346.68L1727.35 1398.29C1733.84 1425.8 1749.86 1481.76 1762.05 1485.48C1777.27 1490.14 1794.95 1480.74 1800.51 1501.87C1806.08 1523 1820.67 1535.79 1827.44 1537.86C1843.91 1542.89 1852.66 1560.99 1842.6 1574.97C1794.39 1641.93 1723.17 1735.43 1708.46 1733.55C1734.69 1761.84 1761.44 1790.7 1787 1818.32Z" fill="#57616C"/>
<path d="M1662.28 2104.7C1662.22 2105.22 1662.14 2105.71 1662.02 2106.2L1644.33 2206.91C1659.27 2209.07 1675.6 2214.41 1681.7 2225.89C1693.41 2247.91 1764.99 2405.8 1764.81 2440.32C1764.75 2452.39 1770.61 2501.24 1778.52 2561.29L1866.3 2281.85C1868.9 2273.61 1869.96 2264.95 1869.44 2256.33L1868.93 2247.74C1868.38 2238.67 1869.58 2229.58 1872.49 2220.96C1880.94 2195.94 1892.96 2160.85 1895.59 2155.25C1898.48 2149.1 1907.08 2081.53 1911.95 2040.83C1912.71 2034.45 1912.56 2028.03 1911.68 2021.66C1908.69 2000.11 1905.04 1966.42 1907.26 1952.15C1908.89 1941.71 1901.76 1932.92 1893.72 1926.81C1885.45 1920.51 1876.43 1914.99 1869.37 1907.36C1845.33 1881.35 1816.97 1850.69 1787 1818.32C1761.44 1790.7 1734.69 1761.84 1708.46 1733.55C1678.92 1701.69 1650.02 1670.56 1624.17 1642.77C1598.08 1614.74 1575.1 1590.1 1557.7 1571.55C1464.7 1561.12 1329.05 1545.77 1206.13 1531.61C1247.2 1562.99 1293.2 1599.82 1290.85 1613.33C1290.2 1617.02 1289.03 1622.02 1287.49 1627.82C1308.89 1630.09 1330.05 1631.61 1350.77 1632.23C1380.02 1633.1 1697.26 2077.83 1662.28 2104.7Z" fill="#57616C"/>
<path d="M1641.59 2206.55C1629.67 2205.11 1617.69 2202.91 1606.96 2197.53L1564.36 2176.18C1517.91 2151.84 1447.95 2116.21 1384.71 2086.07C1362.63 2075.55 1341.38 2065.7 1322.22 2057.23L1177.04 2074.59L674.083 2134.74C691.444 2140.05 934.664 2189.9 1054.1 2214.17L1166.62 2212.39C1164.51 2200.75 1173.03 2212.11 1200.09 2206.56C1227.14 2201 1513.81 2371.64 1561.95 2372.53C1610.08 2373.42 1603.11 2415.08 1617.13 2418.21C1631.15 2421.35 1617.85 2600.54 1631.84 2630.17C1645.83 2659.8 1666.23 2736.34 1674.83 2745.89C1680.11 2751.74 1677.38 2779.34 1673.92 2801.53C1672.06 2813.4 1672.67 2825.56 1676.32 2837L1706.68 2931.97L1793.01 2818.11C1804.5 2802.96 1809.43 2783.85 1806.73 2765.03C1798.26 2705.97 1787.17 2626.93 1778.52 2561.29C1770.61 2501.24 1764.75 2452.39 1764.81 2440.32C1764.99 2405.8 1693.41 2247.91 1681.7 2225.89C1675.6 2214.41 1659.27 2209.07 1644.33 2206.91C1643.41 2206.78 1642.49 2206.66 1641.59 2206.55Z" fill="#57616C"/>
<path d="M1706.68 2931.97L1676.32 2837C1672.67 2825.56 1672.06 2813.4 1673.92 2801.53C1677.38 2779.34 1680.11 2751.74 1674.83 2745.89C1666.23 2736.34 1645.83 2659.8 1631.84 2630.17C1617.85 2600.54 1631.15 2421.35 1617.13 2418.21C1603.11 2415.08 1610.08 2373.42 1561.95 2372.53C1513.81 2371.64 1227.14 2201 1200.09 2206.56C1173.03 2212.11 1164.51 2200.75 1166.62 2212.39C1167.71 2218.39 1173.81 2235.41 1179.79 2251.28C1185.49 2266.36 1186.21 2282.9 1181.5 2298.32L1178.16 2309.22C1175.54 2317.79 1171.33 2325.78 1165.73 2332.78L1137.28 2368.39C1257.6 2445.28 1500.17 2605.07 1507.91 2629.07C1517.58 2659.08 1522.16 2673.59 1496.74 2697.78C1471.31 2721.97 1377.96 2786.03 1360.39 2787.22C1353.18 2787.7 1350.93 2803.06 1350.78 2821.59L1213.55 2862.95L1190.38 2870.54C1175.69 2875.35 1159.86 2875.21 1145.2 2870.33C1087.01 2850.99 998.721 2823.81 984.586 2828.04C969.417 2832.59 778.905 2856.94 649.615 2890.26C607.035 2901.23 571.095 2913.18 550.246 2925.71C530.612 2937.51 512.481 2947.11 496.191 2955.12L477.421 3037.24C473.938 3052.48 475.379 3068.54 482.972 3082.2C511.39 3133.34 567.225 3204.21 629.424 3193.74C718.909 3178.66 736.399 3056.7 782.756 3062.38C818.659 3066.79 1065.7 3038 1196.24 3021.64C1204.53 3020.6 1212.92 3021.02 1221.05 3022.89L1520.9 3091.84C1536.17 3095.35 1552.18 3093.71 1566.43 3087.17L1720.57 3016.42C1716.13 3007.11 1709.46 2956.24 1706.68 2931.97Z" fill="#57616C"/>
<path d="M518.705 1476.09C514.183 1467.49 511.792 1457.98 511.327 1448.27L501.336 1239.41C489.059 1263.04 465.013 1312.87 467.04 1323.23C469.067 1333.59 471.167 1476.64 471.963 1546.87C471.965 1546.34 472.019 1546.64 472.118 1547.66C476.118 1559.69 556.193 1645.45 587.537 1670.85C589.5 1672.44 591.272 1673.79 592.823 1674.88C614.378 1689.96 649.525 1665.69 664.404 1651.67C679.135 1624.41 682.767 1606.5 680.052 1578.9C679.07 1568.92 676.026 1548.76 671.952 1523.84C639.109 1518.83 680.748 1599.97 631.785 1603.46C595.928 1606.01 545.141 1526.39 518.705 1476.09Z" fill="#57616C"/>
<path d="M436.086 1293.09C422.685 1305.16 414.598 1321.92 413.218 1339.9C408.547 1400.74 397.066 1545.74 388.142 1621.12C387.436 1627.2 453.797 1691.67 487.066 1723.15C480.182 1662.42 473.235 1559.14 472.118 1547.66C472.014 1547.35 471.962 1547.08 471.963 1546.87C471.167 1476.64 469.067 1333.59 467.04 1323.23C465.013 1312.87 489.059 1263.04 501.336 1239.41C498.027 1238.03 460.462 1271.14 436.086 1293.09Z" fill="#57616C"/>
<path d="M874.75 1449.67C864.789 1472.28 864.882 1500.43 867.704 1518.28C962.785 1554.74 1131.23 1611.26 1287.49 1627.82C1289.03 1622.02 1290.2 1617.02 1290.85 1613.33C1293.2 1599.82 1247.2 1562.99 1206.13 1531.61C1055.17 1514.22 923.403 1498.61 913.397 1496.06C895.245 1491.44 880.069 1463.21 874.75 1449.67Z" fill="#57616C"/>
<path d="M638.317 1694.41C649.399 1677.31 657.962 1663.6 664.404 1651.67C649.525 1665.69 614.378 1689.96 592.823 1674.88C591.272 1673.79 589.5 1672.44 587.537 1670.85C579.972 1684.16 562.821 1711.54 554.738 1714.57C546.655 1717.6 506.256 1721.55 487.066 1723.15C489.791 1747.18 492.506 1764.55 494.846 1766.91C503.625 1775.78 517.335 1832.13 558.049 1834.86C581.775 1836.44 591.163 1833.02 594.011 1829.54C594.297 1828.31 594.585 1827.09 594.873 1825.87C608.146 1769.7 623.593 1717.13 638.317 1694.41Z" fill="#2A2D30"/>
<path d="M554.738 1714.57C562.821 1711.54 579.972 1684.16 587.537 1670.85C556.193 1645.45 476.118 1559.69 472.118 1547.66C473.235 1559.14 480.182 1662.42 487.066 1723.15C506.256 1721.55 546.655 1717.6 554.738 1714.57Z" fill="#2A2D30"/>
<path d="M867.704 1518.28C876.824 1543.73 917.901 1604.39 1009.24 1643.39C1123.42 1692.13 1206.05 1678.21 1264.2 1702.91C1270.22 1685.13 1281.53 1650.37 1287.49 1627.82C1131.23 1611.26 962.785 1554.74 867.704 1518.28Z" fill="#2A2D30"/>
<path d="M1264.2 1702.91L1288 1704.38C1306.12 1705.51 1323.13 1713.52 1335.48 1726.83C1379.57 1774.31 1435.3 1834.99 1488.18 1893.81C1580.22 1996.17 1663.67 2092.92 1662.28 2104.7C1697.26 2077.83 1380.02 1633.1 1350.77 1632.23C1330.05 1631.61 1308.89 1630.09 1287.49 1627.82C1281.53 1650.37 1270.22 1685.13 1264.2 1702.91Z" fill="#2A2D30"/>
<path d="M616.331 2097.25C626.306 2081.68 649.8 2046.26 663.972 2029.14L587.45 1858.62C589.562 1848.92 591.753 1839.18 594.011 1829.54C591.163 1833.02 581.775 1836.44 558.049 1834.86C517.335 1832.13 503.625 1775.78 494.846 1766.91C492.506 1764.55 489.791 1747.18 487.066 1723.15C453.797 1691.67 387.436 1627.2 388.142 1621.12C382.335 1625.37 370.901 1634.93 371.614 1639.16C372.505 1644.46 375.116 1657.8 371.886 1660.16C368.656 1662.52 357.284 1683.29 357.176 1689.12C357.069 1694.94 347.139 1834.09 344.971 1838.45C343.549 1841.3 338.083 1854.14 334.139 1863.5C332.587 1867.18 331.407 1871 330.262 1874.83C326.116 1888.69 316.742 1910.65 302.432 1919.73C281.767 1932.84 55.9564 2153.87 57.6454 2171.05C58.0046 2174.7 54.8453 2200.94 49.8533 2240.3L146.21 2561.76C149.966 2574.29 156.887 2585.84 167.775 2593.09C215.068 2624.58 305.639 2647.75 388.207 2548.48C504.525 2408.64 701.178 2366.92 724.464 2374.04C727.551 2374.99 727.531 2382.84 725.204 2395.78C739.709 2378.78 753.177 2362.98 765.1 2348.97C746.835 2324.03 729.483 2294.64 724.244 2282.97C721.692 2277.29 721.49 2269.76 722.626 2261.73C723.131 2258.16 723.9 2254.49 724.844 2250.85C701.496 2225.91 650.646 2172.1 634.028 2156.29C617.411 2140.49 615.306 2110.35 616.331 2097.25Z" fill="#474D55"/>
<path d="M893.876 2387.71C883.64 2385.43 873.047 2385.55 862.705 2387.28C843.818 2390.45 818.454 2393.02 804.716 2388.82C794.67 2385.75 779.598 2368.76 765.1 2348.97C753.177 2362.98 739.709 2378.78 725.204 2395.78C709.976 2480.47 595.929 2783.25 606.65 2796.35C616.537 2808.42 639.413 2863.98 649.615 2890.26C778.905 2856.94 969.417 2832.59 984.586 2828.04C998.721 2823.81 1087.01 2850.99 1145.2 2870.33C1159.86 2875.21 1175.69 2875.35 1190.38 2870.54L1213.55 2862.95C1198.97 2679 1059.56 2483.98 991.682 2409.46L935.007 2396.86L893.876 2387.71Z" fill="#282C30"/>
<path d="M1.37269 2720.78C2.16359 2730.42 5.59468 2739.85 7.6523 2749.3C13.7798 2777.44 22.8859 2817.34 26.1438 2824.44C29.1062 2830.9 39.4077 3108.85 47.5378 3344.22C174.218 3417.21 392.371 3537.38 552.588 3611.41L817.783 3514.13L815.783 3507.06C812.266 3494.62 812.212 3481.45 815.627 3468.98L829.288 3419.11L821.85 3409.35C808.693 3392.08 804.159 3369.74 809.543 3348.71L834.839 3249.9C840.955 3226.01 859.027 3207.01 882.578 3199.7L1185.39 3105.74C1205.22 3099.58 1226.76 3102.42 1244.32 3113.5L1308.05 3153.72C1316.58 3159.11 1326.16 3162.61 1336.15 3164L1529.37 3190.92C1597.17 3163.97 1660.32 3138.44 1670.7 3132.92C1693.07 3121.03 1726.12 3028.06 1720.57 3016.42L1566.43 3087.17C1552.18 3093.71 1536.17 3095.35 1520.9 3091.84L1221.05 3022.89C1212.92 3021.02 1204.53 3020.6 1196.24 3021.64C1065.7 3038 818.659 3066.79 782.756 3062.38C736.399 3056.7 718.909 3178.66 629.424 3193.74C567.225 3204.21 511.39 3133.34 482.972 3082.2C475.379 3068.54 473.938 3052.48 477.421 3037.24L496.191 2955.12C512.481 2947.11 530.612 2937.51 550.246 2925.71C571.095 2913.18 607.035 2901.23 649.615 2890.26C639.413 2863.98 616.537 2808.42 606.65 2796.35C595.929 2783.25 709.976 2480.47 725.204 2395.78C727.531 2382.84 727.551 2374.99 724.464 2374.04C701.178 2366.92 504.525 2408.64 388.207 2548.48C305.639 2647.75 215.068 2624.58 167.775 2593.09C156.887 2585.84 149.966 2574.29 146.21 2561.76L49.8533 2240.3C33.1042 2372.34 -4.2771 2651.93 1.37269 2720.78Z" fill="#3C454E"/>
<path d="M737.242 3676.35C822.067 3673 855.678 3670.78 861.881 3670.09L817.783 3514.13L552.588 3611.41C638.435 3651.08 707.648 3677.51 737.242 3676.35Z" fill="#474D55"/>
<path d="M829.288 3419.11C833.355 3404.26 846.473 3393.72 861.833 3392.7C898.415 3390.28 948.319 3386.04 968.733 3380.97C994.622 3374.53 1262.47 3287.39 1393.16 3244.63C1428.86 3230.66 1480.33 3210.42 1529.37 3190.92L1336.15 3164C1326.16 3162.61 1316.58 3159.11 1308.05 3153.72L1244.32 3113.5C1226.76 3102.42 1205.22 3099.58 1185.39 3105.74L882.578 3199.7C859.027 3207.01 840.955 3226.01 834.839 3249.9L809.543 3348.71C804.159 3369.74 808.693 3392.08 821.85 3409.35L829.288 3419.11Z" fill="#474D55"/>
<path d="M52.8798 3501.84C53.6646 3525.47 66.0059 3547.17 86.2951 3559.29C258.929 3662.47 587.685 3824.57 826.141 3832.48C868.946 3833.9 896.332 3791.93 884.679 3750.72L861.881 3670.09C855.678 3670.78 822.067 3673 737.242 3676.35C707.648 3677.51 638.435 3651.08 552.588 3611.41C392.371 3537.38 174.218 3417.21 47.5378 3344.22C49.4869 3400.65 51.3113 3454.64 52.8798 3501.84Z" fill="#474D55"/>
<path d="M1181.5 2298.32C1186.21 2282.9 1185.49 2266.36 1179.79 2251.28C1173.81 2235.41 1167.71 2218.39 1166.62 2212.39L1054.1 2214.17L770.975 2218.63C750.045 2218.96 730.093 2230.58 724.844 2250.85C723.9 2254.49 723.131 2258.16 722.626 2261.73C752.592 2283.58 826.391 2327.32 881.853 2327.44C951.182 2327.59 1079.38 2334.05 1097.1 2344.93C1111.28 2353.63 1129.8 2364.19 1137.28 2368.39L1165.73 2332.78C1171.33 2325.78 1175.54 2317.79 1178.16 2309.22L1181.5 2298.32Z" fill="#6C7F93"/>
<path d="M1715.09 1493.27C1716.34 1510.44 1711.3 1527.49 1700.92 1541.23L1624.17 1642.77C1650.02 1670.56 1678.92 1701.69 1708.46 1733.55C1723.17 1735.43 1794.39 1641.93 1842.6 1574.97C1852.66 1560.99 1843.91 1542.89 1827.44 1537.86C1820.67 1535.79 1806.08 1523 1800.51 1501.87C1794.95 1480.74 1777.27 1490.14 1762.05 1485.48C1749.86 1481.76 1733.84 1425.8 1727.35 1398.29L1724 1403.2C1714.95 1416.45 1710.66 1432.38 1711.83 1448.38L1715.09 1493.27Z" fill="#474D55"/>
<path d="M1564.36 2176.18C1566.03 2173.23 1571.95 2161.9 1582.29 2140.17C1594.93 2113.57 1656.72 2128.51 1662.02 2106.2L1662.28 2104.7C1663.67 2092.92 1580.22 1996.17 1488.18 1893.81L1384.71 2086.07C1447.95 2116.21 1517.91 2151.84 1564.36 2176.18Z" fill="#474D55"/>
<path d="M804.716 2388.82C818.454 2393.02 843.818 2390.45 862.705 2387.28C873.047 2385.55 883.64 2385.43 893.876 2387.71L935.007 2396.86L991.682 2409.46L1162.64 2447.49C1171.64 2449.5 1180.16 2453.23 1187.74 2458.49L1371.86 2586.43L1360.39 2787.22C1377.96 2786.03 1471.31 2721.97 1496.74 2697.78C1522.16 2673.59 1517.58 2659.08 1507.91 2629.07C1500.17 2605.07 1257.6 2445.28 1137.28 2368.39C1129.8 2364.19 1111.28 2353.63 1097.1 2344.93C1079.38 2334.05 951.182 2327.59 881.853 2327.44C826.391 2327.32 752.592 2283.58 722.626 2261.73C721.49 2269.76 721.692 2277.29 724.244 2282.97C729.483 2294.64 746.835 2324.03 765.1 2348.97C779.598 2368.76 794.67 2385.75 804.716 2388.82Z" fill="#2A2D30"/>
<path d="M616.331 2097.25C615.306 2110.35 617.411 2140.49 634.028 2156.29C650.646 2172.1 701.496 2225.91 724.844 2250.85C730.093 2230.58 750.045 2218.96 770.975 2218.63L1054.1 2214.17C934.664 2189.9 691.444 2140.05 674.083 2134.74C656.722 2129.43 628.348 2107.54 616.331 2097.25Z" fill="#2A2D30"/>
<path d="M1371.86 2586.43L1187.74 2458.49C1180.16 2453.23 1171.64 2449.5 1162.64 2447.49L991.682 2409.46C1059.56 2483.98 1198.97 2679 1213.55 2862.95L1350.78 2821.59C1350.93 2803.06 1353.18 2787.7 1360.39 2787.22L1371.86 2586.43Z" fill="#2D3339"/>
<path d="M1582.29 2140.17C1571.95 2161.9 1566.03 2173.23 1564.36 2176.18L1606.96 2197.53C1617.69 2202.91 1629.67 2205.11 1641.59 2206.55C1642.49 2206.66 1643.41 2206.78 1644.33 2206.91L1662.02 2106.2C1656.72 2128.51 1594.93 2113.57 1582.29 2140.17Z" fill="#2D3339"/>
<path d="M1662.28 2104.7L1657.32 2104.12L1655.94 2115.88L1665.33 2108.66L1662.28 2104.7ZM1582.29 2140.17L1577.77 2138.02L1582.29 2140.17ZM1564.36 2176.18L1562.04 2180.61L1562.08 2180.63L1562.12 2180.65L1564.36 2176.18ZM1681.7 2225.89L1686.12 2223.54L1681.7 2225.89ZM1764.81 2440.32L1759.81 2440.29L1764.81 2440.32ZM1674.83 2745.89L1671.12 2749.24L1674.83 2745.89ZM1166.62 2212.39L1171.54 2211.5L1166.62 2212.39ZM724.244 2282.97L728.805 2280.92L724.244 2282.97ZM804.716 2388.82L803.254 2393.6L804.716 2388.82ZM616.331 2097.25L612.121 2094.56L611.444 2095.61L611.346 2096.86L616.331 2097.25ZM722.626 2261.73L717.675 2261.03L722.626 2261.73ZM881.853 2327.44L881.864 2322.44L881.853 2327.44ZM1097.1 2344.93L1099.72 2340.67L1097.1 2344.93ZM1507.91 2629.07L1503.15 2630.61L1507.91 2629.07ZM1350.78 2821.59L1355.78 2821.63L1350.78 2821.59ZM984.586 2828.04L986.022 2832.83L984.586 2828.04ZM550.246 2925.71L552.822 2929.99L550.246 2925.71ZM407.228 3004.08L402.271 3003.43L407.228 3004.08ZM913.397 1496.06L912.164 1500.91L913.397 1496.06ZM1350.77 1632.23L1350.92 1627.23L1350.77 1632.23ZM388.207 2548.48L384.363 2545.29L388.207 2548.48ZM724.464 2374.04L725.926 2369.26H725.926L724.464 2374.04ZM606.65 2796.35L602.781 2799.51L606.65 2796.35ZM649.615 2890.26L650.863 2895.1L649.615 2890.26ZM629.424 3193.74L628.594 3188.81L629.424 3193.74ZM782.756 3062.38L783.365 3057.42L782.756 3062.38ZM501.336 1239.41L506.331 1239.18L505.445 1220.67L496.9 1237.11L501.336 1239.41ZM631.785 1603.46L632.14 1608.45L631.785 1603.46ZM592.823 1674.88L589.957 1678.98L592.823 1674.88ZM494.846 1766.91L498.401 1763.39L494.846 1766.91ZM558.049 1834.86L558.383 1829.87L558.049 1834.86ZM1762.05 1485.48L1763.51 1480.7L1762.05 1485.48ZM1827.44 1537.86L1828.9 1533.07L1827.44 1537.86ZM440.061 2725.67L443.618 2729.18L440.061 2725.67ZM1146.39 1484.67L1142.77 1488.12L1146.39 1484.67ZM1290.85 1613.33L1285.92 1612.47L1290.85 1613.33ZM737.242 3676.35L737.045 3671.35L737.242 3676.35ZM587.537 1670.85L590.685 1666.96L587.537 1670.85ZM1662.02 2106.2L1666.95 2107.06L1657.16 2105.04L1662.02 2106.2ZM472.118 1547.66L476.863 1546.08L467.142 1548.14L472.118 1547.66ZM594.011 1829.54L590.139 1826.37L594.011 1829.54ZM587.45 1858.62L592.335 1859.68L592.686 1858.07L592.012 1856.57L587.45 1858.62ZM511.327 1448.27L516.321 1448.03L511.327 1448.27ZM518.705 1476.09L523.131 1473.76L518.705 1476.09ZM1520.9 3091.84L1522.02 3086.96L1520.9 3091.84ZM1566.43 3087.17L1564.34 3082.62L1566.43 3087.17ZM477.421 3037.24L482.296 3038.35L477.421 3037.24ZM482.972 3082.2L487.342 3079.77L482.972 3082.2ZM146.21 2561.76L141.421 2563.2L146.21 2561.76ZM167.775 2593.09L165.004 2597.25L167.775 2593.09ZM1842.6 1574.97L1846.65 1577.89L1842.6 1574.97ZM809.543 3348.71L814.387 3349.95L809.543 3348.71ZM821.85 3409.35L825.827 3406.32L821.85 3409.35ZM1436.31 2627.08L1437.77 2622.3L1436.31 2627.08ZM1416.56 2617.49L1413.71 2621.6L1416.56 2617.49ZM1190.38 2870.54L1191.93 2875.29L1190.38 2870.54ZM1145.2 2870.33L1143.62 2875.08L1145.2 2870.33ZM1187.74 2458.49L1190.59 2454.39L1187.74 2458.49ZM1162.64 2447.49L1163.73 2442.61L1162.64 2447.49ZM862.705 2387.28L861.879 2382.35L862.705 2387.28ZM893.876 2387.71L894.962 2382.83L893.876 2387.71ZM1178.16 2309.22L1182.94 2310.68L1178.16 2309.22ZM1165.73 2332.78L1169.64 2335.9L1165.73 2332.78ZM1179.79 2251.28L1175.11 2253.04L1179.79 2251.28ZM1181.5 2298.32L1176.71 2296.86L1181.5 2298.32ZM1140.57 2416.57L1137.12 2420.19L1140.57 2416.57ZM1336.15 3164L1335.46 3168.96L1336.15 3164ZM1308.05 3153.72L1310.72 3149.5L1308.05 3153.72ZM770.975 2218.63L771.054 2223.63L770.975 2218.63ZM1244.32 3113.5L1241.66 3117.73L1244.32 3113.5ZM1185.39 3105.74L1183.91 3100.96L1185.39 3105.74ZM882.578 3199.7L884.06 3204.48L882.578 3199.7ZM834.839 3249.9L829.995 3248.66L834.839 3249.9ZM1676.32 2837L1681.08 2835.47L1676.32 2837ZM1673.92 2801.53L1668.98 2800.76L1673.92 2801.53ZM1196.24 3021.64L1195.62 3016.68L1196.24 3021.64ZM1221.05 3022.89L1219.93 3027.77L1221.05 3022.89ZM1606.96 2197.53L1609.2 2193.06L1606.96 2197.53ZM1641.59 2206.55L1640.99 2211.52L1641.59 2206.55ZM1577.77 2138.02C1567.44 2159.74 1561.59 2170.93 1560.01 2173.72L1568.71 2178.64C1570.47 2175.53 1576.46 2164.07 1586.8 2142.32L1577.77 2138.02ZM1562.12 2180.65L1604.72 2202L1609.2 2193.06L1566.6 2171.71L1562.12 2180.65ZM1677.29 2228.24C1683.02 2239.03 1703.77 2283.83 1723.1 2330.34C1732.75 2353.56 1742 2377.11 1748.82 2396.97C1752.23 2406.91 1755.01 2415.85 1756.93 2423.34C1758.87 2430.93 1759.83 2436.65 1759.81 2440.29L1769.81 2440.35C1769.84 2435.36 1768.6 2428.59 1766.62 2420.86C1764.61 2413.02 1761.73 2403.79 1758.28 2393.73C1751.36 2373.58 1742.02 2349.81 1732.33 2326.5C1712.98 2279.93 1692.09 2234.77 1686.12 2223.54L1677.29 2228.24ZM1711.44 2930.44L1681.08 2835.47L1671.56 2838.52L1701.92 2933.49L1711.44 2930.44ZM1678.86 2802.3C1680.6 2791.13 1682.18 2778.47 1682.65 2767.8C1682.88 2762.48 1682.84 2757.49 1682.37 2753.36C1682.13 2751.29 1681.77 2749.32 1681.22 2747.56C1680.69 2745.86 1679.88 2744.02 1678.55 2742.54L1671.12 2749.24C1671.1 2749.22 1671.36 2749.53 1671.68 2750.54C1671.98 2751.5 1672.24 2752.81 1672.43 2754.5C1672.82 2757.89 1672.88 2762.28 1672.66 2767.36C1672.21 2777.5 1670.7 2789.74 1668.98 2800.76L1678.86 2802.3ZM1678.55 2742.54C1678.03 2741.97 1677.04 2740.37 1675.63 2737.3C1674.3 2734.4 1672.79 2730.65 1671.14 2726.21C1667.84 2717.33 1664.07 2706.03 1660.11 2694C1652.24 2670.15 1643.53 2643.21 1636.37 2628.04L1627.32 2632.3C1634.15 2646.77 1642.63 2672.91 1650.61 2697.13C1654.56 2709.13 1658.39 2720.61 1661.77 2729.69C1663.45 2734.23 1665.06 2738.25 1666.54 2741.48C1667.95 2744.55 1669.48 2747.42 1671.12 2749.24L1678.55 2742.54ZM1636.37 2628.04C1634.98 2625.1 1633.73 2619.74 1632.73 2612.04C1631.75 2604.5 1631.08 2595.21 1630.61 2584.77C1629.68 2563.88 1629.59 2538.71 1629.5 2514.24C1629.41 2489.84 1629.32 2466.08 1628.37 2448.22C1627.9 2439.32 1627.2 2431.67 1626.13 2426.07C1625.6 2423.29 1624.92 2420.74 1624.01 2418.72C1623.24 2417.04 1621.59 2414.09 1618.22 2413.33L1616.04 2423.09C1614.42 2422.73 1614.31 2421.55 1614.9 2422.85C1615.33 2423.81 1615.83 2425.46 1616.3 2427.95C1617.24 2432.86 1617.92 2439.95 1618.39 2448.75C1619.32 2466.3 1619.41 2489.78 1619.5 2514.27C1619.59 2538.69 1619.68 2564.08 1620.62 2585.21C1621.09 2595.78 1621.78 2605.38 1622.81 2613.32C1623.82 2621.11 1625.21 2627.83 1627.32 2632.3L1636.37 2628.04ZM1618.22 2413.33C1617.29 2413.13 1615.98 2412.16 1613.88 2407.73C1612.9 2405.66 1611.97 2403.39 1610.79 2400.64C1609.65 2397.98 1608.33 2395.06 1606.71 2392.11C1603.44 2386.19 1598.86 2380.06 1591.61 2375.4C1584.36 2370.72 1574.82 2367.76 1562.04 2367.53L1561.86 2377.53C1573.14 2377.73 1580.78 2380.32 1586.2 2383.8C1591.62 2387.3 1595.2 2391.95 1597.95 2396.94C1599.34 2399.46 1600.5 2402.03 1601.61 2404.59C1602.67 2407.06 1603.76 2409.73 1604.84 2412.02C1606.88 2416.31 1609.96 2421.73 1616.04 2423.09L1618.22 2413.33ZM1562.04 2367.53C1557 2367.43 1548.01 2365 1535.46 2360.24C1523.14 2355.56 1508.02 2348.91 1491.03 2340.91C1457.07 2324.93 1415.96 2303.73 1375.42 2282.69C1334.92 2261.67 1294.97 2240.79 1263.46 2225.52C1247.71 2217.89 1233.96 2211.61 1223.26 2207.4C1217.92 2205.3 1213.22 2203.67 1209.35 2202.66C1205.74 2201.71 1202.02 2201.05 1199.08 2201.66L1201.1 2211.45C1201.54 2211.36 1203.23 2211.39 1206.81 2212.33C1210.14 2213.2 1214.42 2214.67 1219.6 2216.71C1229.94 2220.77 1243.41 2226.92 1259.09 2234.52C1290.45 2249.71 1330.24 2270.51 1370.81 2291.56C1411.33 2312.59 1452.61 2333.88 1486.78 2349.96C1503.86 2358 1519.24 2364.78 1531.92 2369.59C1544.37 2374.31 1554.86 2377.4 1561.86 2377.53L1562.04 2367.53ZM1199.08 2201.66C1186.42 2204.26 1178.22 2202.91 1173.07 2202.24C1171.8 2202.07 1170.4 2201.9 1169.15 2201.9C1167.99 2201.9 1166.02 2202.02 1164.25 2203.28C1162.22 2204.73 1161.54 2206.85 1161.37 2208.52C1161.21 2210.06 1161.42 2211.72 1161.7 2213.29L1171.54 2211.5C1171.43 2210.87 1171.37 2210.4 1171.34 2210.05C1171.32 2209.88 1171.32 2209.75 1171.32 2209.66C1171.32 2209.57 1171.32 2209.53 1171.32 2209.54C1171.32 2209.57 1171.17 2210.63 1170.06 2211.42C1169.22 2212.02 1168.57 2211.9 1169.15 2211.9C1169.64 2211.9 1170.41 2211.97 1171.77 2212.15C1177.11 2212.85 1186.7 2214.41 1201.1 2211.45L1199.08 2201.66ZM1161.7 2213.29C1162.33 2216.73 1164.26 2222.85 1166.64 2229.76C1169.07 2236.82 1172.11 2245.09 1175.11 2253.04L1184.47 2249.51C1181.49 2241.6 1178.48 2233.43 1176.1 2226.51C1173.66 2219.44 1172.01 2214.05 1171.54 2211.5L1161.7 2213.29ZM1176.71 2296.86L1173.38 2307.76L1182.94 2310.68L1186.28 2299.78L1176.71 2296.86ZM1137.12 2420.19L1151.84 2434.19L1158.74 2426.95L1144.02 2412.94L1137.12 2420.19ZM803.254 2393.6C810.992 2395.97 821.492 2396.33 832.026 2395.81C842.701 2395.28 853.968 2393.82 863.531 2392.21L861.879 2382.35C852.555 2383.91 841.697 2385.32 831.533 2385.82C821.229 2386.33 812.178 2385.87 806.178 2384.04L803.254 2393.6ZM1434.85 2631.86L1498.52 2651.33L1501.44 2641.77L1437.77 2622.3L1434.85 2631.86ZM660.12 2025.96C645.726 2043.34 622.078 2079.01 612.121 2094.56L620.541 2099.95C630.534 2084.35 653.874 2049.18 667.823 2032.33L660.12 2025.96ZM611.346 2096.86C610.799 2103.86 611.091 2115.17 613.683 2126.84C616.26 2138.45 621.251 2151.04 630.582 2159.91L637.474 2152.67C630.188 2145.74 625.818 2135.36 623.445 2124.67C621.086 2114.05 620.839 2103.74 621.316 2097.64L611.346 2096.86ZM630.582 2159.91C647.068 2175.6 697.796 2229.28 721.195 2254.26L728.494 2247.43C705.197 2222.55 654.224 2168.6 637.474 2152.67L630.582 2159.91ZM613.08 2101.05C619.202 2106.29 629.437 2114.44 640.365 2121.98C651.155 2129.42 663.139 2136.62 672.621 2139.52L675.545 2129.96C667.666 2127.55 656.783 2121.15 646.041 2113.75C635.438 2106.44 625.478 2098.5 619.582 2093.45L613.08 2101.05ZM1166.55 2207.39L1054.03 2209.17L1054.18 2219.17L1166.7 2217.39L1166.55 2207.39ZM1054.03 2209.17L770.896 2213.63L771.054 2223.63L1054.18 2219.17L1054.03 2209.17ZM672.621 2139.52C677.228 2140.93 695.99 2145.1 722.943 2150.87C750.068 2156.67 785.842 2164.16 824.798 2172.24C902.712 2188.4 993.385 2206.93 1053.11 2219.07L1055.1 2209.27C995.383 2197.14 904.725 2178.61 826.829 2162.45C787.88 2154.37 752.129 2146.89 725.035 2141.09C697.769 2135.26 679.618 2131.21 675.545 2129.96L672.621 2139.52ZM720.004 2249.59C719.022 2253.38 718.211 2257.24 717.675 2261.03L727.576 2262.43C728.05 2259.08 728.777 2255.6 729.685 2252.1L720.004 2249.59ZM717.675 2261.03C716.493 2269.39 716.553 2278.05 719.683 2285.02L728.805 2280.92C726.831 2276.52 726.488 2270.13 727.576 2262.43L717.675 2261.03ZM719.68 2265.77C734.896 2276.87 761.111 2293.43 790.553 2307.26C819.883 2321.03 853.002 2332.37 881.842 2332.44L881.864 2322.44C855.242 2322.38 823.73 2311.79 794.804 2298.21C765.99 2284.67 740.322 2268.44 725.572 2257.69L719.68 2265.77ZM881.842 2332.44C916.393 2332.51 965.662 2334.16 1008.48 2337.15C1029.9 2338.64 1049.63 2340.47 1065.06 2342.58C1072.79 2343.64 1079.36 2344.76 1084.5 2345.93C1089.81 2347.15 1093.04 2348.3 1094.49 2349.19L1099.72 2340.67C1096.74 2338.84 1092.08 2337.41 1086.72 2336.19C1081.18 2334.92 1074.29 2333.75 1066.42 2332.67C1050.67 2330.52 1030.69 2328.67 1009.18 2327.17C966.137 2324.17 916.642 2322.51 881.864 2322.44L881.842 2332.44ZM1161.83 2329.66L1133.38 2365.27L1141.19 2371.51L1169.64 2335.9L1161.83 2329.66ZM1094.49 2349.19C1108.75 2357.94 1127.33 2368.54 1134.84 2372.75L1139.73 2364.03C1132.26 2359.84 1113.81 2349.32 1099.72 2340.67L1094.49 2349.19ZM1134.59 2372.6C1194.72 2411.03 1285.39 2470.17 1361.98 2522.69C1400.29 2548.95 1435.01 2573.52 1460.63 2593.01C1473.44 2602.76 1483.9 2611.17 1491.36 2617.86C1495.1 2621.21 1498 2624.05 1500.06 2626.36C1502.26 2628.83 1503.02 2630.19 1503.15 2630.61L1512.67 2627.54C1511.84 2624.96 1509.79 2622.25 1507.53 2619.71C1505.12 2617 1501.91 2613.88 1498.03 2610.41C1490.28 2603.46 1479.57 2594.86 1466.68 2585.05C1440.87 2565.42 1405.99 2540.73 1367.64 2514.44C1290.93 2461.84 1200.16 2402.64 1139.97 2364.17L1134.59 2372.6ZM1503.15 2630.61C1508.09 2645.93 1511.23 2656.01 1510.5 2665.21C1509.81 2673.9 1505.54 2682.5 1493.29 2694.15L1500.18 2701.4C1513.36 2688.86 1519.51 2678.11 1520.47 2666C1521.39 2654.4 1517.4 2642.22 1512.67 2627.54L1503.15 2630.61ZM1493.29 2694.15C1480.91 2705.93 1451.53 2727.79 1422.84 2746.97C1408.54 2756.52 1394.54 2765.32 1383.07 2771.79C1377.33 2775.02 1372.29 2777.63 1368.21 2779.46C1363.93 2781.37 1361.27 2782.14 1360.05 2782.23L1360.72 2792.2C1363.89 2791.99 1368 2790.5 1372.28 2788.59C1376.77 2786.59 1382.1 2783.81 1387.98 2780.5C1399.75 2773.86 1413.98 2764.91 1428.39 2755.28C1457.13 2736.08 1487.13 2713.81 1500.18 2701.4L1493.29 2694.15ZM1184.88 2462.6L1369 2590.54L1374.71 2582.33L1190.59 2454.39L1184.88 2462.6ZM1369 2590.54L1413.71 2621.6L1419.41 2613.39L1374.71 2582.33L1369 2590.54ZM1366.87 2586.15L1355.39 2786.93L1365.38 2787.5L1376.85 2586.72L1366.87 2586.15ZM990.596 2414.34L1161.55 2452.38L1163.73 2442.61L992.768 2404.58L990.596 2414.34ZM987.986 2412.83C1021.68 2449.81 1073.27 2516.89 1118.24 2597.6C1163.23 2678.36 1201.35 2772.38 1208.56 2863.34L1218.53 2862.56C1211.16 2769.57 1172.3 2674.1 1126.97 2592.73C1081.62 2511.32 1029.57 2443.63 995.378 2406.1L987.986 2412.83ZM1360.05 2782.23C1356.24 2782.48 1353.51 2784.76 1351.74 2787.37C1350.01 2789.89 1348.88 2793.11 1348.07 2796.48C1346.46 2803.26 1345.86 2812.19 1345.78 2821.55L1355.78 2821.63C1355.86 2812.46 1356.46 2804.45 1357.8 2798.8C1358.48 2795.95 1359.27 2794.08 1360 2793C1360.34 2792.5 1360.59 2792.29 1360.69 2792.23C1360.74 2792.2 1360.75 2792.19 1360.74 2792.2C1360.72 2792.2 1360.71 2792.2 1360.72 2792.2L1360.05 2782.23ZM1345.78 2821.55C1345.68 2835.11 1346.67 2850.25 1347.68 2862.53C1348.18 2868.67 1348.69 2874.14 1349.07 2878.33C1349.47 2882.7 1349.69 2885.35 1349.68 2886.25L1359.68 2886.3C1359.69 2884.79 1359.4 2881.48 1359.03 2877.43C1358.65 2873.21 1358.15 2867.8 1357.65 2861.71C1356.64 2849.51 1355.68 2834.73 1355.78 2821.63L1345.78 2821.55ZM1214.99 2867.74L1352.23 2826.38L1349.34 2816.8L1212.1 2858.16L1214.99 2867.74ZM1211.99 2858.2L1188.82 2865.79L1191.93 2875.29L1215.1 2867.7L1211.99 2858.2ZM1146.77 2865.59C1117.64 2855.91 1080.94 2844.25 1049.72 2835.53C1034.11 2831.18 1019.8 2827.53 1008.45 2825.24C1002.78 2824.1 997.761 2823.27 993.641 2822.87C989.739 2822.5 985.941 2822.42 983.15 2823.26L986.022 2832.83C986.764 2832.61 988.817 2832.45 992.677 2832.83C996.318 2833.18 1000.97 2833.93 1006.47 2835.05C1017.47 2837.27 1031.52 2840.83 1047.03 2845.16C1078.03 2853.82 1114.56 2865.42 1143.62 2875.08L1146.77 2865.59ZM402.271 3003.43C402.139 3004.43 401.337 3006.96 399.543 3011.27C397.833 3015.36 395.434 3020.58 392.485 3026.68C386.591 3038.86 378.599 3054.35 369.776 3070.97C352.136 3104.19 331.261 3141.8 317.42 3166.28L326.126 3171.2C339.993 3146.67 360.914 3108.98 378.608 3075.66C387.453 3059 395.513 3043.39 401.487 3031.04C404.472 3024.86 406.961 3019.46 408.772 3015.11C410.499 3010.98 411.852 3007.26 412.185 3004.74L402.271 3003.43ZM1759.81 2440.29C1759.78 2446.7 1761.28 2462.28 1763.71 2483.38C1766.16 2504.65 1769.61 2531.9 1773.56 2561.94L1783.48 2560.64C1779.52 2530.62 1776.08 2503.43 1773.64 2482.24C1771.18 2460.89 1769.78 2446.01 1769.81 2440.35L1759.81 2440.29ZM870.096 1451.5C872.879 1458.58 878.19 1469.41 885.206 1479.13C892.067 1488.65 901.286 1498.14 912.164 1500.91L914.63 1491.22C907.356 1489.36 899.91 1482.43 893.316 1473.29C886.876 1464.36 881.94 1454.3 879.404 1447.84L870.096 1451.5ZM1350.62 1637.22C1350.22 1637.21 1350.5 1637.12 1351.78 1637.88C1352.91 1638.55 1354.4 1639.64 1356.25 1641.2C1359.94 1644.32 1364.68 1648.99 1370.32 1655.08C1381.6 1667.23 1396.16 1684.66 1412.78 1705.73C1446 1747.86 1487.24 1804.28 1526.49 1861.54C1565.74 1918.81 1602.94 1976.8 1628.11 2022.09C1640.71 2044.77 1650.2 2064.07 1655.44 2078.43C1658.08 2085.65 1659.54 2091.32 1659.89 2095.41C1660.27 2099.82 1659.25 2100.72 1659.24 2100.74L1665.33 2108.66C1669.69 2105.32 1670.29 2099.6 1669.85 2094.54C1669.39 2089.16 1667.58 2082.52 1664.84 2075C1659.31 2059.89 1649.52 2040.04 1636.85 2017.23C1611.46 1971.55 1574.07 1913.27 1534.73 1855.88C1495.39 1798.49 1454.02 1741.88 1420.63 1699.54C1403.94 1678.38 1389.19 1660.71 1377.66 1648.28C1371.9 1642.07 1366.85 1637.06 1362.7 1633.56C1360.63 1631.81 1358.68 1630.35 1356.9 1629.29C1355.26 1628.31 1353.16 1627.3 1350.92 1627.23L1350.62 1637.22ZM45.0638 2241.73L141.421 2563.2L151 2560.32L54.6427 2238.86L45.0638 2241.73ZM165.004 2597.25C189.329 2613.45 224.873 2627.58 265.107 2624.81C305.511 2622.02 350.007 2602.23 392.051 2551.68L384.363 2545.29C343.839 2594 301.765 2612.26 264.419 2614.83C226.902 2617.42 193.515 2604.22 170.546 2588.93L165.004 2597.25ZM392.051 2551.68C449.512 2482.6 526.957 2437.62 593.102 2410.79C626.15 2397.38 656.275 2388.55 679.516 2383.52C691.141 2381 700.983 2379.45 708.566 2378.74C712.36 2378.38 715.527 2378.25 718.034 2378.29C720.622 2378.34 722.209 2378.58 723.002 2378.83L725.926 2369.26C723.808 2368.61 721.129 2368.35 718.221 2368.29C715.233 2368.24 711.674 2368.4 707.635 2368.78C699.552 2369.54 689.302 2371.17 677.399 2373.74C653.583 2378.9 622.909 2387.9 589.343 2401.52C522.261 2428.73 443.22 2474.53 384.363 2545.29L392.051 2551.68ZM983.15 2823.26C981.622 2823.71 977.35 2824.54 970.309 2825.73C963.429 2826.89 954.266 2828.34 943.256 2830.06C921.255 2833.5 891.952 2838.01 859.083 2843.43C793.377 2854.25 713.241 2868.7 648.367 2885.42L650.863 2895.1C715.279 2878.5 795.044 2864.11 860.709 2853.3C893.526 2847.89 922.775 2843.38 944.801 2839.94C955.805 2838.22 965.025 2836.76 971.972 2835.59C978.758 2834.44 983.757 2833.51 986.022 2832.83L983.15 2823.26ZM648.367 2885.42C605.79 2896.39 569.207 2908.48 547.67 2921.42L552.822 2929.99C572.983 2917.87 608.28 2906.07 650.863 2895.1L648.367 2885.42ZM602.781 2799.51C604.862 2802.05 607.928 2807.33 611.636 2814.67C615.275 2821.88 619.341 2830.69 623.439 2839.99C631.631 2858.59 639.872 2878.98 644.954 2892.07L654.276 2888.45C649.156 2875.26 640.858 2854.73 632.59 2835.96C628.458 2826.58 624.313 2817.59 620.563 2810.17C616.883 2802.88 613.381 2796.67 610.519 2793.18L602.781 2799.51ZM547.67 2921.42C528.176 2933.14 510.171 2942.68 493.984 2950.64L498.398 2959.61C514.791 2951.55 533.048 2941.88 552.822 2929.99L547.67 2921.42ZM493.984 2950.64C467.037 2963.89 446.048 2972.37 430.166 2979.9C422.469 2983.54 416.034 2986.95 411.364 2990.43C406.785 2993.85 402.988 2998.01 402.271 3003.43L412.185 3004.74C412.362 3003.4 413.44 3001.36 417.345 2998.45C421.16 2995.6 426.817 2992.55 434.447 2988.93C449.218 2981.93 471.817 2972.68 498.398 2959.61L493.984 2950.64ZM491.317 2954.01L472.547 3036.12L482.296 3038.35L501.065 2956.24L491.317 2954.01ZM478.601 3084.63C492.967 3110.48 514.346 3141.49 540.182 3164.79C565.936 3188.01 596.945 3204.28 630.255 3198.67L628.594 3188.81C599.704 3193.67 571.696 3179.74 546.878 3157.36C522.143 3135.06 501.395 3105.06 487.342 3079.77L478.601 3084.63ZM630.255 3198.67C677.28 3190.74 705.063 3154.72 726.409 3123.07C737.288 3106.94 746.304 3092.24 755.58 3081.69C764.847 3071.15 773.115 3066.24 782.147 3067.35L783.365 3057.42C769.218 3055.68 757.917 3063.89 748.07 3075.09C738.232 3086.28 728.591 3101.95 718.118 3117.48C696.758 3149.15 671.054 3181.65 628.594 3188.81L630.255 3198.67ZM782.147 3067.35C787.081 3067.95 795.238 3067.96 805.667 3067.56C816.205 3067.16 829.382 3066.33 844.537 3065.16C874.853 3062.82 913.231 3059.12 954.532 3054.77C1037.14 3046.07 1131.57 3034.78 1196.86 3026.6L1195.62 3016.68C1130.37 3024.86 1036.01 3036.14 953.486 3044.83C912.221 3049.17 873.948 3052.86 843.767 3055.19C828.674 3056.36 815.641 3057.18 805.286 3057.57C794.823 3057.97 787.406 3057.92 783.365 3057.42L782.147 3067.35ZM1219.93 3027.77L1519.78 3096.71L1522.02 3086.96L1222.17 3018.02L1219.93 3027.77ZM1568.51 3091.71L1722.65 3020.96L1718.48 3011.88L1564.34 3082.62L1568.51 3091.71ZM1530.06 3185.97L1336.84 3159.05L1335.46 3168.96L1528.68 3195.87L1530.06 3185.97ZM1310.72 3149.5L1246.99 3109.28L1241.66 3117.73L1305.38 3157.95L1310.72 3149.5ZM1183.91 3100.96L881.097 3194.92L884.06 3204.48L1186.87 3110.51L1183.91 3100.96ZM829.995 3248.66L804.699 3347.47L814.387 3349.95L839.683 3251.14L829.995 3248.66ZM817.873 3412.38L825.311 3422.14L833.265 3416.08L825.827 3406.32L817.873 3412.38ZM496.342 1239.65L506.333 1448.51L516.321 1448.03L506.331 1239.18L496.342 1239.65ZM514.279 1478.42C527.575 1503.71 547.044 1536.49 567.792 1562.7C578.156 1575.79 588.98 1587.42 599.65 1595.67C610.189 1603.81 621.324 1609.22 632.14 1608.45L631.43 1598.47C624.317 1598.98 615.657 1595.39 605.763 1587.75C595.999 1580.21 585.752 1569.27 575.632 1556.49C555.413 1530.95 536.271 1498.77 523.131 1473.76L514.279 1478.42ZM632.14 1608.45C638.984 1607.96 644.607 1606.08 649.1 1602.92C653.597 1599.75 656.642 1595.52 658.682 1590.84C662.654 1581.73 663.004 1570.41 662.913 1560.42C662.865 1555.18 662.695 1550.5 662.72 1545.94C662.744 1541.44 662.966 1537.68 663.596 1534.72C664.236 1531.71 665.155 1530.23 666.001 1529.53C666.675 1528.96 668.023 1528.3 671.198 1528.78L672.706 1518.9C667.67 1518.13 663.134 1518.9 659.608 1521.84C656.253 1524.62 654.654 1528.69 653.815 1532.64C652.964 1536.63 652.745 1541.24 652.72 1545.88C652.695 1550.46 652.869 1555.7 652.913 1560.51C653.006 1570.62 652.533 1579.92 649.515 1586.85C648.061 1590.18 646.069 1592.83 643.343 1594.74C640.612 1596.67 636.826 1598.09 631.43 1598.47L632.14 1608.45ZM660.975 1648.03C653.819 1654.78 641.773 1663.98 629.085 1669.62C616.137 1675.38 604.204 1676.74 595.689 1670.78L589.957 1678.98C602.998 1688.1 619.415 1684.86 633.149 1678.76C647.143 1672.53 660.11 1662.59 667.832 1655.31L660.975 1648.03ZM491.292 1770.43C491.842 1770.98 492.732 1772.27 494.014 1774.64C495.24 1776.91 496.6 1779.73 498.193 1783.05C501.335 1789.59 505.252 1797.79 510.22 1805.82C520.056 1821.71 534.845 1838.31 557.715 1839.84L558.383 1829.87C540.539 1828.67 528.116 1815.73 518.724 1800.56C514.078 1793.05 510.377 1785.32 507.207 1778.72C505.644 1775.47 504.174 1772.41 502.811 1769.89C501.505 1767.47 500.045 1765.06 498.401 1763.39L491.292 1770.43ZM1566.68 2171.75C1520.19 2147.4 1450.18 2111.73 1386.86 2081.56L1382.56 2090.58C1445.73 2120.69 1515.62 2156.29 1562.04 2180.61L1566.68 2171.75ZM1484.46 1897.15C1530.47 1948.32 1574.29 1998.05 1606.43 2036.43C1622.51 2055.64 1635.61 2071.94 1644.58 2084.14C1649.08 2090.25 1652.46 2095.23 1654.66 2098.98C1655.77 2100.87 1656.5 2102.32 1656.93 2103.39C1657.44 2104.65 1657.25 2104.71 1657.32 2104.12L1667.25 2105.28C1667.49 2103.21 1666.81 2101.14 1666.2 2099.64C1665.52 2097.94 1664.51 2096.01 1663.29 2093.93C1660.83 2089.73 1657.21 2084.42 1652.63 2078.21C1643.47 2065.76 1630.22 2049.26 1614.1 2030.01C1581.85 1991.49 1537.93 1941.66 1491.9 1890.47L1484.46 1897.15ZM1764.79 1351.16L2020.31 1224.84L2015.88 1215.88L1760.36 1342.2L1764.79 1351.16ZM1722.48 1399.44C1725.76 1413.3 1731.43 1434.36 1737.85 1452.48C1741.05 1461.52 1744.5 1469.99 1747.99 1476.52C1749.73 1479.77 1751.56 1482.69 1753.48 1485C1755.31 1487.19 1757.67 1489.37 1760.58 1490.27L1763.51 1480.7C1763.51 1480.7 1763.45 1480.68 1763.33 1480.62C1763.2 1480.55 1763.03 1480.44 1762.82 1480.27C1762.37 1479.92 1761.82 1479.38 1761.17 1478.6C1759.85 1477.02 1758.38 1474.74 1756.81 1471.8C1753.66 1465.92 1750.41 1457.99 1747.28 1449.14C1741.02 1431.47 1735.44 1410.79 1732.22 1397.14L1722.48 1399.44ZM1760.58 1490.27C1765.06 1491.63 1769.58 1491.93 1773.56 1492.04C1777.79 1492.15 1781.1 1492.07 1784.28 1492.46C1787.31 1492.84 1789.48 1493.59 1791.15 1494.94C1792.79 1496.26 1794.48 1498.59 1795.68 1503.14L1805.35 1500.6C1803.76 1494.59 1801.16 1490.17 1797.44 1487.16C1793.75 1484.19 1789.51 1483.04 1785.52 1482.54C1781.69 1482.06 1777.38 1482.13 1773.83 1482.04C1770.05 1481.94 1766.64 1481.66 1763.51 1480.7L1760.58 1490.27ZM1795.68 1503.14C1798.67 1514.51 1804.09 1523.64 1809.72 1530.25C1815.19 1536.68 1821.29 1541.2 1825.97 1542.64L1828.9 1533.07C1826.82 1532.44 1822.23 1529.53 1817.33 1523.77C1812.58 1518.18 1807.92 1510.36 1805.35 1500.6L1795.68 1503.14ZM1620.51 1646.18C1646.35 1673.96 1675.25 1705.09 1704.8 1736.95L1712.13 1730.15C1682.58 1698.29 1653.68 1667.16 1627.83 1639.37L1620.51 1646.18ZM1704.8 1736.95C1731.03 1765.23 1757.77 1794.1 1783.34 1821.72L1790.67 1814.92C1765.1 1787.3 1738.36 1758.44 1712.13 1730.15L1704.8 1736.95ZM1838.54 1572.05C1814.46 1605.5 1784.67 1645.52 1759.09 1676.92C1746.29 1692.63 1734.63 1706.08 1725.3 1715.45C1720.63 1720.15 1716.67 1723.7 1713.53 1725.98C1711.96 1727.12 1710.73 1727.84 1709.83 1728.24C1708.84 1728.69 1708.69 1728.54 1709.09 1728.59L1707.83 1738.51C1710.07 1738.79 1712.21 1738.13 1713.9 1737.38C1715.68 1736.59 1717.53 1735.43 1719.41 1734.06C1723.18 1731.33 1727.57 1727.35 1732.39 1722.51C1742.07 1712.78 1753.98 1699.03 1766.84 1683.23C1792.6 1651.61 1822.52 1611.41 1846.65 1577.89L1838.54 1572.05ZM177.517 2781.76C216.221 2778.51 275.848 2772.05 328.979 2763.22C355.533 2758.81 380.576 2753.79 400.611 2748.25C410.625 2745.48 419.49 2742.56 426.71 2739.47C433.819 2736.43 439.794 2733.06 443.618 2729.18L436.504 2722.16C434.073 2724.62 429.553 2727.38 422.782 2730.27C416.123 2733.12 407.724 2735.91 397.946 2738.61C378.398 2744.02 353.744 2748.97 327.339 2753.36C274.551 2762.13 215.206 2768.56 176.681 2771.8L177.517 2781.76ZM719.683 2285.02C725.117 2297.12 742.685 2326.83 761.066 2351.93L769.134 2346.02C750.986 2321.24 733.85 2292.15 728.805 2280.92L719.683 2285.02ZM761.066 2351.93C768.382 2361.91 775.922 2371.3 782.975 2378.63C786.501 2382.3 789.972 2385.52 793.29 2388.05C796.561 2390.55 799.932 2392.59 803.254 2393.6L806.178 2384.04C804.477 2383.52 802.197 2382.27 799.363 2380.11C796.577 2377.98 793.49 2375.14 790.18 2371.7C783.56 2364.82 776.316 2355.82 769.134 2346.02L761.066 2351.93ZM892.79 2392.59L933.921 2401.74L936.092 2391.97L894.962 2382.83L892.79 2392.59ZM933.921 2401.74L990.596 2414.34L992.768 2404.58L936.092 2391.97L933.921 2401.74ZM953.477 2564.7L939.991 2396.46L930.023 2397.26L943.509 2565.5L953.477 2564.7ZM1202.26 2246.2C1205.48 2249.96 1210.03 2256.13 1213.17 2262.26C1214.75 2265.34 1215.86 2268.2 1216.35 2270.61C1216.85 2273.09 1216.58 2274.48 1216.21 2275.17L1225.01 2279.91C1226.96 2276.29 1226.88 2272.19 1226.15 2268.62C1225.41 2264.97 1223.87 2261.21 1222.07 2257.71C1218.48 2250.68 1213.43 2243.87 1209.86 2239.7L1202.26 2246.2ZM1640.99 2211.52C1641.86 2211.62 1642.73 2211.74 1643.61 2211.86L1645.04 2201.97C1644.08 2201.83 1643.13 2201.7 1642.19 2201.59L1640.99 2211.52ZM1643.61 2211.86C1650.81 2212.9 1658.13 2214.68 1664.27 2217.46C1670.45 2220.26 1674.95 2223.85 1677.29 2228.24L1686.12 2223.54C1682.35 2216.45 1675.64 2211.63 1668.39 2208.35C1661.1 2205.05 1652.79 2203.08 1645.04 2201.97L1643.61 2211.86ZM1178.32 1449.8C1169.61 1451.7 1157.08 1455.59 1148.41 1461.23C1144.15 1463.99 1140 1467.7 1138.36 1472.55C1136.52 1477.99 1138.27 1483.4 1142.77 1488.12L1150.01 1481.22C1147.33 1478.41 1147.49 1476.76 1147.83 1475.75C1148.38 1474.15 1150.19 1472 1153.86 1469.61C1161.03 1464.95 1172.18 1461.38 1180.46 1459.56L1178.32 1449.8ZM737.439 3681.34C822.194 3678 856.014 3675.78 862.436 3675.06L861.326 3665.12C855.343 3665.79 821.94 3668 737.045 3671.35L737.439 3681.34ZM45.0416 3348.56C171.758 3421.57 390.067 3541.82 550.49 3615.95L554.685 3606.87C394.676 3532.93 176.677 3412.86 50.034 3339.89L45.0416 3348.56ZM550.49 3615.95C593.474 3635.81 632.387 3652.41 664.316 3663.9C680.28 3669.64 694.567 3674.14 706.789 3677.13C718.938 3680.1 729.346 3681.66 737.439 3681.34L737.045 3671.35C730.341 3671.61 720.999 3670.31 709.165 3667.41C697.403 3664.54 683.473 3660.16 667.703 3654.49C636.165 3643.14 597.548 3626.68 554.685 3606.87L550.49 3615.95ZM816.061 3509.44L550.866 3606.72L554.31 3616.11L819.505 3518.82L816.061 3509.44ZM912.164 1500.91C915.042 1501.64 925.578 1503.14 941.486 1505.2C957.628 1507.3 979.773 1510.03 1006.31 1513.23C1059.39 1519.63 1130.08 1527.88 1205.56 1536.58L1206.71 1526.65C1131.23 1517.95 1060.56 1509.7 1007.51 1503.3C980.979 1500.11 958.87 1497.38 942.774 1495.29C926.443 1493.16 916.756 1491.76 914.63 1491.22L912.164 1500.91ZM1209.17 1527.64C1195.41 1517.13 1182.36 1507.35 1171.74 1499.16C1161.02 1490.9 1153.28 1484.65 1150.01 1481.22L1142.77 1488.12C1146.69 1492.22 1155.13 1498.99 1165.64 1507.08C1176.24 1515.25 1189.48 1525.18 1203.1 1535.59L1209.17 1527.64ZM1203.1 1535.59C1223.63 1551.27 1245.24 1568.21 1261.41 1582.87C1269.51 1590.22 1276.09 1596.85 1280.46 1602.38C1282.65 1605.14 1284.16 1607.47 1285.04 1609.36C1285.97 1611.33 1285.96 1612.26 1285.92 1612.47L1295.77 1614.19C1296.32 1611.02 1295.39 1607.84 1294.09 1605.09C1292.75 1602.25 1290.73 1599.25 1288.3 1596.17C1283.42 1590.01 1276.37 1582.94 1268.13 1575.47C1251.62 1560.49 1229.7 1543.33 1209.17 1527.64L1203.1 1535.59ZM1205.56 1536.58C1328.49 1550.74 1464.14 1566.09 1557.14 1576.52L1558.25 1566.58C1465.26 1556.15 1329.62 1540.81 1206.71 1526.65L1205.56 1536.58ZM674.677 2139.71L1177.64 2079.56L1176.45 2069.63L673.489 2129.78L674.677 2139.71ZM1181.97 2075.47C1185.23 2057.09 1184.6 2040.25 1182.41 2028.49L1172.58 2030.32C1174.54 2040.89 1175.18 2056.51 1172.12 2073.72L1181.97 2075.47ZM1172.12 2073.72C1166.62 2104.63 1149.32 2140.19 1106.92 2161.09L1111.34 2170.06C1157.27 2147.41 1176.06 2108.68 1181.97 2075.47L1172.12 2073.72ZM1177.64 2079.56L1322.82 2062.2L1321.63 2052.27L1176.45 2069.63L1177.64 2079.56ZM496.9 1237.11C490.728 1248.98 481.593 1267.45 474.242 1284.29C470.57 1292.7 467.303 1300.8 465.073 1307.51C463.959 1310.85 463.071 1313.95 462.528 1316.63C462.018 1319.14 461.679 1321.87 462.133 1324.19L471.947 1322.27C471.894 1322 471.863 1320.91 472.328 1318.62C472.76 1316.49 473.514 1313.81 474.562 1310.66C476.653 1304.37 479.785 1296.59 483.406 1288.3C490.641 1271.72 499.668 1253.47 505.773 1241.72L496.9 1237.11ZM462.133 1324.19C462.301 1325.05 462.547 1328 462.807 1333.19C463.058 1338.18 463.308 1344.85 463.555 1352.83C464.048 1368.76 464.525 1389.79 464.964 1412.7C465.841 1458.52 466.565 1511.82 466.963 1546.93L476.962 1546.81C476.564 1511.69 475.84 1458.36 474.962 1412.51C474.523 1389.58 474.045 1368.51 473.55 1352.52C473.303 1344.52 473.05 1337.77 472.795 1332.68C472.549 1327.79 472.285 1324 471.947 1322.27L462.133 1324.19ZM595.689 1670.78C594.265 1669.79 592.59 1668.51 590.685 1666.96L584.389 1674.73C586.41 1676.37 588.28 1677.8 589.957 1678.98L595.689 1670.78ZM583.19 1668.38C579.462 1674.94 573.368 1684.97 567.24 1693.69C564.171 1698.06 561.16 1702 558.482 1705C557.142 1706.5 555.948 1707.69 554.926 1708.55C553.85 1709.46 553.21 1709.8 552.981 1709.89L556.494 1719.25C558.287 1718.58 559.951 1717.4 561.389 1716.18C562.881 1714.92 564.412 1713.37 565.936 1711.66C568.983 1708.26 572.248 1703.96 575.423 1699.44C581.783 1690.39 588.047 1680.07 591.884 1673.32L583.19 1668.38ZM482.098 1723.71C483.464 1735.76 484.836 1746.22 486.173 1754C486.839 1757.88 487.513 1761.2 488.197 1763.75C488.538 1765.02 488.908 1766.2 489.319 1767.22C489.671 1768.08 490.269 1769.39 491.292 1770.43L498.401 1763.39C498.839 1763.84 498.84 1764.09 498.585 1763.46C498.389 1762.97 498.142 1762.22 497.856 1761.16C497.288 1759.04 496.674 1756.07 496.029 1752.31C494.741 1744.81 493.394 1734.57 492.034 1722.58L482.098 1723.71ZM552.981 1709.89C551.517 1710.44 547.987 1711.19 542.676 1712.03C537.548 1712.83 531.216 1713.65 524.492 1714.43C511.051 1715.99 496.21 1717.37 486.652 1718.16L487.48 1728.13C497.112 1727.33 512.065 1725.94 525.643 1724.36C532.427 1723.58 538.91 1722.74 544.23 1721.9C549.366 1721.1 553.917 1720.22 556.494 1719.25L552.981 1709.89ZM490.502 1719.51C473.89 1703.8 449.023 1679.85 428.412 1659.09C418.098 1648.7 408.899 1639.16 402.342 1631.86C399.052 1628.2 396.501 1625.19 394.82 1622.95C393.97 1621.82 393.43 1621.01 393.135 1620.48C392.986 1620.22 392.963 1620.13 392.986 1620.2C393 1620.24 393.047 1620.38 393.084 1620.6C393.12 1620.8 393.167 1621.19 393.108 1621.7L383.175 1620.54C383.024 1621.84 383.349 1622.94 383.552 1623.52C383.787 1624.19 384.101 1624.82 384.407 1625.36C385.023 1626.46 385.869 1627.69 386.831 1628.97C388.774 1631.55 391.551 1634.81 394.904 1638.54C401.63 1646.03 410.968 1655.71 421.315 1666.13C442.026 1687 466.974 1711.02 483.63 1726.78L490.502 1719.51ZM1657.1 2105.33L1639.4 2206.05L1649.25 2207.78L1666.95 2107.06L1657.1 2105.33ZM1285.92 1612.47C1285.32 1615.94 1284.18 1620.78 1282.66 1626.55L1292.32 1629.1C1293.87 1623.25 1295.09 1618.09 1295.77 1614.19L1285.92 1612.47ZM1286.96 1632.8C1308.47 1635.08 1329.76 1636.6 1350.62 1637.22L1350.92 1627.23C1330.34 1626.62 1309.3 1625.11 1288.02 1622.85L1286.96 1632.8ZM1282.66 1626.55C1276.75 1648.92 1265.48 1683.54 1259.46 1701.3L1268.93 1704.51C1274.96 1686.72 1286.32 1651.83 1292.32 1629.1L1282.66 1626.55ZM865.914 1522.95C961.117 1559.45 1130.05 1616.16 1286.96 1632.8L1288.02 1622.85C1132.41 1606.36 964.452 1550.02 869.494 1513.61L865.914 1522.95ZM1657.16 2105.04C1656.46 2107.96 1653.87 2110.41 1647.58 2112.42C1641.37 2114.4 1633.3 2115.41 1624.24 2116.62C1615.47 2117.8 1605.89 2119.18 1597.68 2122.06C1589.44 2124.96 1581.75 2129.65 1577.77 2138.02L1586.8 2142.32C1589.14 2137.39 1593.92 2133.98 1600.99 2131.5C1608.09 2129.01 1616.66 2127.73 1625.58 2126.53C1634.21 2125.37 1643.37 2124.26 1650.63 2121.94C1657.82 2119.64 1664.93 2115.59 1666.89 2107.35L1657.16 2105.04ZM467.373 1549.24C467.822 1550.58 468.639 1552.04 469.495 1553.41C470.404 1554.85 471.567 1556.52 472.926 1558.35C475.648 1562.01 479.302 1566.54 483.613 1571.64C492.245 1581.85 503.669 1594.56 515.922 1607.66C540.361 1633.78 568.422 1661.8 584.389 1674.73L590.685 1666.96C575.307 1654.5 547.659 1626.94 523.225 1600.83C511.041 1587.8 499.738 1575.23 491.251 1565.19C487.003 1560.16 483.5 1555.81 480.955 1552.38C479.68 1550.67 478.683 1549.23 477.963 1548.09C477.604 1547.52 477.335 1547.05 477.143 1546.68C477.048 1546.5 476.979 1546.36 476.931 1546.25C476.908 1546.2 476.891 1546.15 476.879 1546.12C476.867 1546.1 476.863 1546.08 476.863 1546.08L467.373 1549.24ZM467.142 1548.14C468.215 1559.18 475.224 1663.08 482.098 1723.71L492.034 1722.58C485.14 1661.77 478.255 1559.1 477.095 1547.17L467.142 1548.14ZM557.715 1839.84C569.814 1840.65 578.56 1840.21 584.806 1839.01C590.888 1837.83 595.353 1835.8 597.883 1832.7L590.139 1826.37C589.821 1826.76 588.168 1828.18 582.913 1829.19C577.821 1830.17 570.011 1830.65 558.383 1829.87L557.715 1839.84ZM597.883 1832.7C599.935 1830.19 600.555 1827.11 599.619 1824.29L590.128 1827.44C590.037 1827.17 590.02 1826.87 590.073 1826.61C590.126 1826.35 590.217 1826.28 590.139 1826.37L597.883 1832.7ZM723.002 2378.83C721.683 2378.42 721.403 2377.44 721.519 2377.75C721.638 2378.07 721.826 2378.92 721.866 2380.53C721.943 2383.71 721.431 2388.51 720.283 2394.9L730.125 2396.67C731.305 2390.11 731.965 2384.51 731.863 2380.29C731.812 2378.21 731.572 2376.11 730.899 2374.28C730.223 2372.46 728.788 2370.14 725.926 2369.26L723.002 2378.83ZM729.008 2399.03C743.514 2382.02 756.982 2366.22 768.907 2352.21L761.293 2345.73C749.371 2359.73 735.904 2375.53 721.4 2392.54L729.008 2399.03ZM443.618 2729.18C465.76 2706.77 624.507 2521.52 729.008 2399.03L721.4 2392.54C616.667 2515.31 458.307 2700.08 436.504 2722.16L443.618 2729.18ZM569.79 1977.41C574.681 1947.57 582.666 1904.07 592.335 1859.68L582.564 1857.55C572.854 1902.13 564.838 1945.8 559.922 1975.79L569.79 1977.41ZM720.283 2394.9C712.75 2436.79 680.608 2533.17 651.449 2621.34C636.918 2665.28 623.166 2707.08 613.719 2738.71C608.999 2754.51 605.32 2767.89 603.157 2777.78C602.079 2782.7 601.342 2786.92 601.065 2790.2C600.927 2791.83 600.887 2793.4 601.029 2794.79C601.153 2796 601.484 2797.93 602.781 2799.51L610.519 2793.18C611.146 2793.94 611.05 2794.49 610.977 2793.78C610.924 2793.25 610.917 2792.37 611.029 2791.04C611.252 2788.41 611.881 2784.69 612.926 2779.92C615.007 2770.41 618.598 2757.32 623.301 2741.57C632.698 2710.11 646.4 2668.46 660.943 2624.48C689.934 2536.82 722.43 2439.47 730.125 2396.67L720.283 2394.9ZM592.012 1856.57L588.586 1848.93L579.463 1853.03L582.888 1860.66L592.012 1856.57ZM506.333 1448.51C506.829 1458.88 509.387 1469.11 514.279 1478.42L523.131 1473.76C518.979 1465.87 516.754 1457.08 516.321 1448.03L506.333 1448.51ZM1519.78 3096.71C1536.13 3100.47 1553.27 3098.71 1568.51 3091.71L1564.34 3082.62C1551.1 3088.7 1536.22 3090.23 1522.02 3086.96L1519.78 3096.71ZM472.547 3036.12C468.833 3052.37 470.318 3069.72 478.601 3084.63L487.342 3079.77C480.44 3067.35 479.042 3052.59 482.296 3038.35L472.547 3036.12ZM141.421 2563.2C145.4 2576.47 152.867 2589.17 165.004 2597.25L170.546 2588.93C160.907 2582.51 154.532 2572.11 151 2560.32L141.421 2563.2ZM1825.97 1542.64C1832.86 1544.74 1837.99 1549.54 1840.38 1555.05C1842.72 1560.46 1842.46 1566.6 1838.54 1572.05L1846.65 1577.89C1852.79 1569.37 1853.19 1559.46 1849.56 1551.07C1845.96 1542.78 1838.48 1536 1828.9 1533.07L1825.97 1542.64ZM804.699 3347.47C798.936 3369.98 803.789 3393.89 817.873 3412.38L825.827 3406.32C813.596 3390.26 809.382 3369.5 814.387 3349.95L804.699 3347.47ZM1437.77 2622.3C1431.23 2620.3 1425.03 2617.29 1419.41 2613.39L1413.71 2621.6C1420.18 2626.1 1427.31 2629.56 1434.85 2631.86L1437.77 2622.3ZM1188.82 2865.79C1175.18 2870.25 1160.44 2870.13 1146.77 2865.59L1143.62 2875.08C1159.27 2880.28 1176.21 2880.44 1191.93 2875.29L1188.82 2865.79ZM1190.59 2454.39C1182.48 2448.76 1173.36 2444.76 1163.73 2442.61L1161.55 2452.38C1169.92 2454.24 1177.84 2457.71 1184.88 2462.6L1190.59 2454.39ZM863.531 2392.21C873.374 2390.56 883.303 2390.48 892.79 2392.59L894.962 2382.83C883.976 2380.38 872.721 2380.53 861.879 2382.35L863.531 2392.21ZM1173.38 2307.76C1170.95 2315.72 1167.03 2323.15 1161.83 2329.66L1169.64 2335.9C1175.63 2328.41 1180.14 2319.85 1182.94 2310.68L1173.38 2307.76ZM1175.11 2253.04C1180.43 2267.13 1181.09 2282.54 1176.71 2296.86L1186.28 2299.78C1191.33 2283.27 1190.54 2265.59 1184.47 2249.51L1175.11 2253.04ZM1144.02 2412.94C1132.46 2401.96 1131.24 2383.96 1141.19 2371.51L1133.38 2365.27C1120.19 2381.77 1121.81 2405.63 1137.12 2420.19L1144.02 2412.94ZM1336.84 3159.05C1327.55 3157.76 1318.65 3154.5 1310.72 3149.5L1305.38 3157.95C1314.51 3163.72 1324.77 3167.47 1335.46 3168.96L1336.84 3159.05ZM729.685 2252.1C734.208 2234.63 751.661 2223.93 771.054 2223.63L770.896 2213.63C748.429 2213.98 725.977 2226.53 720.004 2249.59L729.685 2252.1ZM1246.99 3109.28C1228.19 3097.41 1205.14 3094.37 1183.91 3100.96L1186.87 3110.51C1205.31 3104.79 1225.33 3107.43 1241.66 3117.73L1246.99 3109.28ZM881.097 3194.92C855.887 3202.75 836.541 3223.09 829.995 3248.66L839.683 3251.14C845.368 3228.93 862.167 3211.27 884.06 3204.48L881.097 3194.92ZM1681.08 2835.47C1677.69 2824.87 1677.11 2813.5 1678.86 2802.3L1668.98 2800.76C1667.02 2813.29 1667.64 2826.25 1671.56 2838.52L1681.08 2835.47ZM1196.86 3026.6C1204.57 3025.64 1212.37 3026.03 1219.93 3027.77L1222.17 3018.02C1213.47 3016.02 1204.48 3015.57 1195.62 3016.68L1196.86 3026.6ZM1604.72 2202C1616.25 2207.78 1628.94 2210.06 1640.99 2211.52L1642.19 2201.59C1630.4 2200.17 1619.13 2198.04 1609.2 2193.06L1604.72 2202ZM1179.39 1454.68L1176.9 1464.37L1177.19 1464.44L1177.48 1464.5L1179.39 1454.68ZM922.622 1414.05L921.583 1404.11L922.622 1414.05ZM867.704 1518.28L857.826 1519.84L857.973 1520.77L858.29 1521.65L867.704 1518.28ZM1009.24 1643.39L1013.17 1634.19L1009.24 1643.39ZM1264.2 1702.91L1260.29 1712.11L1261.87 1712.78L1263.58 1712.89L1264.2 1702.91ZM1662.28 2104.7L1672.22 2105.87L1652.44 2102.97L1662.28 2104.7ZM1706.68 2931.97L1698.71 2925.92L1696.29 2929.12L1696.74 2933.1L1706.68 2931.97ZM1240.54 2028.92L1242.5 2038.73L1240.54 2028.92ZM663.972 2029.14L654.848 2033.24L661.427 2047.9L671.674 2035.52L663.972 2029.14ZM1322.22 2057.23L1326.26 2048.08L1322.22 2057.23ZM1524.17 1536.33L1517.28 1543.57L1524.17 1536.33ZM1907.26 1952.15L1897.38 1950.61L1907.26 1952.15ZM1895.59 2155.25L1886.53 2151.01L1895.59 2155.25ZM1778.52 2561.29L1768.98 2558.29L1768.32 2560.4L1768.61 2562.59L1778.52 2561.29ZM874.75 1449.67L865.599 1445.64L874.75 1449.67ZM1557.7 1571.55L1564.99 1564.7L1557.7 1571.55ZM638.317 1694.41L629.925 1688.97L638.317 1694.41ZM680.052 1578.9L690.004 1577.92L680.052 1578.9ZM388.142 1621.12L394.049 1629.19L397.561 1626.62L398.072 1622.3L388.142 1621.12ZM371.614 1639.16L381.475 1637.5L371.614 1639.16ZM344.971 1838.45L353.923 1842.9L344.971 1838.45ZM302.432 1919.73L307.79 1928.18L302.432 1919.73ZM57.6454 2171.05L47.6934 2172.02L57.6454 2171.05ZM26.1438 2824.44L35.2339 2820.27L26.1438 2824.44ZM968.733 3380.97L971.146 3390.67L968.733 3380.97ZM1393.16 3244.63L1396.27 3254.13L1396.54 3254.04L1396.8 3253.94L1393.16 3244.63ZM1670.7 3132.92L1666.01 3124.09L1670.7 3132.92ZM1720.57 3016.42L1729.59 3012.11L1720.57 3016.42ZM49.8533 2240.3L59.7738 2241.56L49.8533 2240.3ZM1529.37 3190.92L1533.07 3200.21L1529.37 3190.92ZM829.288 3419.11L819.643 3416.47V3416.47L829.288 3419.11ZM501.336 1239.41L505.194 1230.19L501.336 1239.41ZM671.952 1523.84L662.083 1525.45L671.952 1523.84ZM664.404 1651.67L655.605 1646.92L664.404 1651.67ZM471.963 1546.87L481.962 1546.92V1546.92L471.963 1546.87ZM594.873 1825.87L585.141 1823.57V1823.57L594.873 1825.87ZM1384.71 2086.07L1380.41 2095.1L1389 2099.19L1393.51 2090.81L1384.71 2086.07ZM1488.18 1893.81L1496.99 1898.55L1500.32 1892.36L1495.62 1887.12L1488.18 1893.81ZM1624.17 1642.77L1616.85 1649.59L1624.96 1658.31L1632.14 1648.8L1624.17 1642.77ZM2018.09 1220.36L2027.42 1223.97L2029.76 1217.9L2025.17 1213.3L2018.09 1220.36ZM1787 1818.32L1777.68 1814.72L1775.43 1820.54L1779.67 1825.11L1787 1818.32ZM1762.58 1346.68L1754.32 1341.04L1762.58 1346.68ZM1727.35 1398.29L1735.61 1403.93L1735.61 1403.93L1727.35 1398.29ZM1177.49 2029.41L1177.68 2019.41L1177.49 2029.41ZM47.5378 3344.22L57.5319 3343.88L47.5378 3344.22ZM861.881 3670.09L852.258 3672.81L861.881 3670.09ZM817.783 3514.13L808.16 3516.85V3516.85L817.783 3514.13ZM1662.02 2106.2L1652.17 2104.46L1671.75 2108.5L1662.02 2106.2ZM472.118 1547.66L462.629 1550.81L482.071 1546.69L472.118 1547.66ZM594.011 1829.54L584.274 1827.26L594.011 1829.54ZM587.45 1858.62L577.679 1856.49L576.978 1859.7L578.326 1862.71L587.45 1858.62ZM1865.37 1222.86L1868.39 1232.39V1232.39L1865.37 1222.86ZM1828.22 1250.5L1836.48 1256.14V1256.14L1828.22 1250.5ZM1711.83 1448.38L1721.8 1447.65V1447.65L1711.83 1448.38ZM1724 1403.2L1715.74 1397.56L1715.74 1397.56L1724 1403.2ZM861.833 3392.7L861.174 3382.72L861.833 3392.7ZM815.627 3468.98L805.982 3466.34L815.627 3468.98ZM815.783 3507.06L825.406 3504.34V3504.34L815.783 3507.06ZM1942.02 1198.51L1938.99 1188.98V1188.98L1942.02 1198.51ZM2013.78 1216.04L2006.7 1223.1V1223.1L2013.78 1216.04ZM334.139 1863.5L343.354 1867.38L334.139 1863.5ZM330.262 1874.83L339.842 1877.69L330.262 1874.83ZM623.182 1332.92L616.596 1340.44L623.182 1332.92ZM645.658 1372.83L655.499 1371.05L645.658 1372.83ZM826.141 3832.48L826.472 3822.48L826.141 3832.48ZM884.679 3750.72L894.301 3748L884.679 3750.72ZM1869.44 2256.33L1879.42 2255.73L1869.44 2256.33ZM1866.3 2281.85L1875.84 2284.85L1866.3 2281.85ZM86.2951 3559.29L81.1651 3567.88L86.2951 3559.29ZM52.8798 3501.84L42.8853 3502.18L52.8798 3501.84ZM1872.49 2220.96L1863.01 2217.77L1872.49 2220.96ZM1868.93 2247.74L1858.94 2248.34L1868.93 2247.74ZM1700.92 1541.23L1708.9 1547.26L1700.92 1541.23ZM1715.09 1493.27L1705.12 1493.99V1493.99L1715.09 1493.27ZM1288 1704.38L1287.38 1714.37L1288 1704.38ZM1335.48 1726.83L1342.81 1720.03L1335.48 1726.83ZM413.218 1339.9L403.247 1339.14L413.218 1339.9ZM436.086 1293.09L442.778 1300.52L436.086 1293.09ZM1893.72 1926.81L1887.66 1934.77L1893.72 1926.81ZM1869.37 1907.36L1876.72 1900.57L1869.37 1907.36ZM1793.01 2818.11L1785.05 2812.07L1793.01 2818.11ZM1806.73 2765.03L1796.83 2766.45L1806.73 2765.03ZM7.6523 2749.3L-2.11871 2751.43L7.6523 2749.3ZM1.37269 2720.78L11.3392 2719.96L1.37269 2720.78ZM1911.68 2021.66L1921.59 2020.29L1911.68 2021.66ZM1911.95 2040.83L1902.02 2039.64L1911.95 2040.83ZM1181.88 1445C1150.6 1436.95 1100.22 1425.27 1050.53 1416.33C1001.31 1407.47 951.303 1401 921.583 1404.11L923.661 1424C950.134 1421.24 997.422 1427.09 1046.99 1436.01C1096.1 1444.85 1146 1456.42 1176.9 1464.37L1181.88 1445ZM858.29 1521.65C868.45 1550.01 911.705 1612.62 1005.32 1652.59L1013.17 1634.19C924.097 1596.17 885.198 1537.46 877.118 1514.9L858.29 1521.65ZM1005.32 1652.59C1063.59 1677.46 1113.8 1686.32 1156.4 1692.08C1199.63 1697.92 1232.83 1700.45 1260.29 1712.11L1268.11 1693.7C1237.42 1680.67 1200.24 1677.82 1159.07 1672.26C1117.27 1666.61 1069.07 1658.06 1013.17 1634.19L1005.32 1652.59ZM1263.58 1712.89L1287.38 1714.37L1288.62 1694.4L1264.82 1692.93L1263.58 1712.89ZM1785.05 2812.07L1698.71 2925.92L1714.65 2938.01L1800.98 2824.16L1785.05 2812.07ZM1326.26 2048.08C1305.53 2038.92 1287.06 2031.28 1272.56 2026.14C1265.32 2023.58 1258.88 2021.56 1253.53 2020.3C1248.69 2019.16 1243.14 2018.2 1238.58 2019.12L1242.5 2038.73C1242.36 2038.75 1244.08 2038.62 1248.93 2039.76C1253.28 2040.79 1258.96 2042.54 1265.87 2044.99C1279.67 2049.88 1297.61 2057.29 1318.18 2066.38L1326.26 2048.08ZM1177.48 1464.5C1231.67 1475.04 1313.91 1491.76 1384.48 1507.67C1419.79 1515.63 1452.06 1523.36 1476.42 1529.99C1488.61 1533.32 1498.67 1536.32 1506.08 1538.91C1509.79 1540.21 1512.67 1541.34 1514.76 1542.31C1517.14 1543.4 1517.59 1543.87 1517.28 1543.57L1531.06 1529.08C1528.81 1526.94 1525.73 1525.34 1523.13 1524.14C1520.23 1522.81 1516.69 1521.43 1512.67 1520.03C1504.62 1517.22 1494.05 1514.07 1481.67 1510.7C1456.89 1503.95 1424.28 1496.14 1388.88 1488.16C1318.05 1472.19 1235.61 1455.43 1181.3 1444.86L1177.48 1464.5ZM1887.66 1934.77C1895.05 1940.38 1898.11 1945.93 1897.38 1950.61L1917.14 1953.69C1919.67 1937.49 1908.48 1925.47 1899.77 1918.85L1887.66 1934.77ZM1897.38 1950.61C1896.07 1959.05 1896.54 1972.13 1897.55 1984.95C1898.58 1998.11 1900.26 2012.14 1901.78 2023.04L1921.59 2020.29C1920.11 2009.63 1918.47 1996.03 1917.49 1983.39C1916.47 1970.41 1916.24 1959.52 1917.14 1953.69L1897.38 1950.61ZM1902.02 2039.64C1899.59 2059.96 1896.23 2086.97 1893.12 2109.64C1891.56 2120.98 1890.08 2131.17 1888.81 2138.88C1888.17 2142.74 1887.61 2145.89 1887.13 2148.21C1886.55 2151.01 1886.3 2151.51 1886.53 2151.01L1904.64 2159.5C1905.6 2157.46 1906.25 2154.5 1906.71 2152.27C1907.27 2149.56 1907.89 2146.1 1908.54 2142.12C1909.85 2134.16 1911.37 2123.76 1912.93 2112.35C1916.06 2089.52 1919.44 2062.39 1921.88 2042.02L1902.02 2039.64ZM1886.53 2151.01C1884.94 2154.4 1881.06 2165.25 1876.78 2177.53C1872.37 2190.18 1867.24 2205.24 1863.01 2217.77L1881.96 2224.16C1886.18 2211.67 1891.29 2196.67 1895.66 2184.11C1900.17 2171.2 1903.61 2161.7 1904.64 2159.5L1886.53 2151.01ZM1858.94 2248.34L1859.46 2256.92L1879.42 2255.73L1878.91 2247.14L1858.94 2248.34ZM1768.61 2562.59C1777.26 2628.29 1788.36 2707.37 1796.83 2766.45L1816.63 2763.61C1808.16 2704.57 1797.07 2625.57 1788.43 2559.98L1768.61 2562.59ZM1856.76 2278.86L1768.98 2558.29L1788.06 2564.29L1875.84 2284.85L1856.76 2278.86ZM921.583 1404.11C892.172 1407.18 874.806 1424.74 865.599 1445.64L883.901 1453.7C890.828 1437.98 902.783 1426.18 923.661 1424L921.583 1404.11ZM865.599 1445.64C854.575 1470.66 854.841 1500.96 857.826 1519.84L877.581 1516.72C874.922 1499.9 875.004 1473.9 883.901 1453.7L865.599 1445.64ZM1517.28 1543.57C1520.17 1546.33 1532.02 1558.79 1550.4 1578.39L1564.99 1564.7C1546.89 1545.41 1534.49 1532.34 1531.06 1529.08L1517.28 1543.57ZM403.247 1339.14C398.572 1400.03 387.106 1544.81 378.211 1619.94L398.072 1622.3C407.026 1546.67 418.523 1401.44 423.188 1340.67L403.247 1339.14ZM382.234 1613.05C379.077 1615.36 374.357 1619.13 370.408 1623.03C368.461 1624.95 366.403 1627.2 364.817 1629.52C364.023 1630.69 363.16 1632.14 362.53 1633.8C361.929 1635.39 361.26 1637.9 361.753 1640.83L381.475 1637.5C381.79 1639.37 381.322 1640.65 381.232 1640.89C381.114 1641.2 381.072 1641.19 381.341 1640.79C381.88 1640 382.91 1638.79 384.458 1637.27C387.5 1634.26 391.401 1631.13 394.049 1629.19L382.234 1613.05ZM361.753 1640.83C362.246 1643.75 363.015 1647.84 363.331 1651.6C363.49 1653.5 363.48 1654.78 363.4 1655.46C363.36 1655.8 363.343 1655.62 363.53 1655.14C363.701 1654.71 364.328 1653.29 365.99 1652.08L377.782 1668.23C380.251 1666.43 381.504 1664.09 382.146 1662.45C382.805 1660.77 383.107 1659.12 383.263 1657.79C383.574 1655.15 383.461 1652.32 383.26 1649.92C382.855 1645.1 381.874 1639.87 381.475 1637.5L361.753 1640.83ZM365.99 1652.08C364.344 1653.28 363.08 1654.87 362.409 1655.74C361.554 1656.85 360.676 1658.13 359.825 1659.46C358.113 1662.12 356.24 1665.38 354.504 1668.69C352.771 1672 351.084 1675.53 349.793 1678.72C348.705 1681.42 347.243 1685.4 347.178 1688.93L367.174 1689.3C367.163 1689.92 367.163 1689.12 368.339 1686.21C369.311 1683.8 370.689 1680.89 372.216 1677.98C373.74 1675.08 375.322 1672.34 376.655 1670.26C377.326 1669.22 377.867 1668.44 378.253 1667.94C378.823 1667.2 378.62 1667.62 377.782 1668.23L365.99 1652.08ZM347.178 1688.93C347.178 1688.91 347.178 1688.95 347.173 1689.07C347.168 1689.19 347.161 1689.34 347.151 1689.54C347.131 1689.93 347.101 1690.46 347.063 1691.12C346.985 1692.42 346.874 1694.2 346.731 1696.37C346.447 1700.72 346.043 1706.63 345.553 1713.59C344.575 1727.5 343.257 1745.56 341.875 1763.57C340.493 1781.58 339.049 1799.51 337.818 1813.2C337.201 1820.05 336.643 1825.78 336.177 1829.89C335.942 1831.96 335.741 1833.54 335.578 1834.61C335.495 1835.16 335.438 1835.46 335.411 1835.59C335.303 1836.1 335.436 1835.16 336.018 1833.99L353.923 1842.9C354.64 1841.46 354.925 1839.98 354.981 1839.71C355.119 1839.06 355.241 1838.33 355.35 1837.62C355.57 1836.17 355.805 1834.3 356.05 1832.14C356.542 1827.79 357.116 1821.89 357.737 1814.99C358.98 1801.18 360.432 1783.14 361.817 1765.1C364.566 1729.26 367.114 1692.59 367.174 1689.3L347.178 1688.93ZM336.018 1833.99C334.415 1837.21 328.776 1850.48 324.924 1859.62L343.354 1867.38C347.39 1857.81 352.684 1845.39 353.923 1842.9L336.018 1833.99ZM320.681 1871.96C318.761 1878.38 315.636 1886.63 311.42 1894.21C307.111 1901.96 302.185 1908.04 297.074 1911.29L307.79 1928.18C316.989 1922.34 323.905 1912.91 328.897 1903.94C333.982 1894.8 337.617 1885.14 339.842 1877.69L320.681 1871.96ZM297.074 1911.29C293.625 1913.48 287.144 1919.03 279.223 1926.16C270.981 1933.57 260.401 1943.42 248.343 1954.86C224.22 1977.77 194.042 2007.23 164.572 2036.81C135.116 2066.37 106.283 2096.14 84.881 2119.64C74.2001 2131.37 65.2442 2141.68 58.9645 2149.68C55.8442 2153.66 53.2191 2157.27 51.354 2160.33C50.4283 2161.84 49.5462 2163.45 48.8887 2165.06C48.3561 2166.35 47.3931 2168.97 47.6934 2172.02L67.5973 2170.07C67.7921 2172.05 67.1679 2173.19 67.392 2172.65C67.4912 2172.41 67.7836 2171.8 68.4242 2170.75C69.6913 2168.67 71.7646 2165.77 74.6976 2162.03C80.5244 2154.6 89.0943 2144.72 99.6685 2133.11C120.777 2109.93 149.371 2080.4 178.74 2050.92C208.094 2021.46 238.139 1992.13 262.114 1969.37C274.106 1957.98 284.544 1948.27 292.6 1941.02C300.977 1933.49 306.073 1929.26 307.79 1928.18L297.074 1911.29ZM-2.11871 2751.43C0.952143 2765.53 4.77724 2782.62 8.25009 2797.09C9.9849 2804.32 11.6465 2810.97 13.0918 2816.28C14.4496 2821.28 15.8316 2825.94 17.0537 2828.61L35.2339 2820.27C34.8271 2819.39 33.8492 2816.4 32.3918 2811.04C31.0219 2806 29.4132 2799.57 27.6983 2792.43C24.2717 2778.14 20.48 2761.21 17.4233 2747.17L-2.11871 2751.43ZM81.1651 3567.88C167.838 3619.68 293.64 3686.24 427.762 3740.87C561.698 3795.43 704.807 3838.46 825.809 3842.47L826.472 3822.48C709.019 3818.59 568.521 3776.61 435.307 3722.35C302.279 3668.16 177.386 3602.08 91.4252 3550.71L81.1651 3567.88ZM862.493 3402.68C898.74 3400.28 949.671 3396.01 971.146 3390.67L966.32 3371.26C946.966 3376.07 898.089 3380.28 861.174 3382.72L862.493 3402.68ZM971.146 3390.67C997.502 3384.12 1265.94 3296.78 1396.27 3254.13L1390.05 3235.12C1259 3278.01 991.742 3364.94 966.32 3371.26L971.146 3390.67ZM1675.4 3141.75C1679.9 3139.36 1683.86 3135.43 1687.23 3131.32C1690.71 3127.07 1694.11 3121.94 1697.35 3116.37C1703.84 3105.23 1710.1 3091.64 1715.4 3078.25C1720.71 3064.85 1725.16 3051.35 1727.96 3040.31C1729.35 3034.82 1730.39 3029.7 1730.87 3025.4C1731.11 3023.26 1731.25 3021.1 1731.16 3019.08C1731.08 3017.25 1730.79 3014.63 1729.59 3012.11L1711.54 3020.73C1711.03 3019.66 1711.14 3019.14 1711.18 3019.95C1711.2 3020.58 1711.17 3021.62 1711 3023.16C1710.65 3026.21 1709.84 3030.36 1708.57 3035.41C1706.03 3045.44 1701.87 3058.11 1696.81 3070.89C1691.74 3083.69 1685.9 3096.3 1680.07 3106.3C1677.16 3111.31 1674.35 3115.48 1671.76 3118.64C1669.06 3121.94 1667.1 3123.52 1666.01 3124.09L1675.4 3141.75ZM1729.59 3012.11C1729.11 3011.11 1728.06 3007.46 1726.72 3000.75C1725.47 2994.51 1724.16 2986.69 1722.89 2978.3C1720.34 2961.54 1717.99 2942.88 1716.61 2930.83L1696.74 2933.1C1698.14 2945.32 1700.52 2964.24 1703.11 2981.31C1704.41 2989.83 1705.77 2998 1707.11 3004.67C1708.35 3010.88 1709.8 3017.08 1711.54 3020.73L1729.59 3012.11ZM47.6934 2172.02C47.6692 2171.78 47.6803 2173 47.3218 2176.98C47.0091 2180.44 46.5027 2185.2 45.8212 2191.14C44.4598 2203.02 42.4288 2219.36 39.9328 2239.04L59.7738 2241.56C62.2698 2221.88 64.3145 2205.43 65.6909 2193.42C66.3784 2187.43 66.9064 2182.48 67.241 2178.77C67.5298 2175.57 67.8011 2172.14 67.5973 2170.07L47.6934 2172.02ZM39.9328 2239.04C31.5666 2304.99 18.0195 2408.02 7.2766 2503.11C1.90492 2550.67 -2.77588 2596.32 -5.76056 2634.45C-8.72586 2672.32 -10.0812 2703.47 -8.59381 2721.6L11.3392 2719.96C10.0017 2703.66 11.2003 2674.05 14.1784 2636.01C17.1371 2598.22 21.7891 2552.82 27.1502 2505.36C37.8728 2410.44 51.3909 2307.64 59.7738 2241.56L39.9328 2239.04ZM1396.8 3253.94C1432.52 3239.97 1484.01 3219.72 1533.07 3200.21L1525.68 3181.63C1476.66 3201.12 1425.2 3221.35 1389.52 3235.31L1396.8 3253.94ZM1533.07 3200.21C1566.98 3186.73 1599.75 3173.6 1625.35 3163.14C1650.62 3152.82 1669.63 3144.82 1675.4 3141.75L1666.01 3124.09C1661.39 3126.55 1643.64 3134.07 1617.79 3144.63C1592.27 3155.05 1559.57 3168.16 1525.68 3181.63L1533.07 3200.21ZM825.272 3471.62L838.933 3421.75L819.643 3416.47L805.982 3466.34L825.272 3471.62ZM629.768 1325.39C609.212 1307.4 584.287 1286.28 561.6 1268.42C550.26 1259.5 539.401 1251.33 529.877 1244.76C520.517 1238.3 511.899 1232.99 505.194 1230.19L497.479 1248.64C502.13 1250.59 509.301 1254.86 518.516 1261.22C527.568 1267.47 538.069 1275.36 549.231 1284.14C571.547 1301.7 596.188 1322.58 616.596 1340.44L629.768 1325.39ZM505.194 1230.19C502.785 1229.18 500.632 1229.33 499.593 1229.47C498.432 1229.63 497.473 1229.94 496.845 1230.17C495.586 1230.64 494.424 1231.27 493.524 1231.8C491.656 1232.89 489.475 1234.42 487.2 1236.11C482.582 1239.55 476.628 1244.4 470.161 1249.86C457.183 1260.82 441.601 1274.67 429.394 1285.66L442.778 1300.52C454.947 1289.57 470.336 1275.89 483.062 1265.14C489.447 1259.75 495.028 1255.22 499.145 1252.15C501.239 1250.59 502.726 1249.59 503.64 1249.05C504.132 1248.76 504.14 1248.8 503.807 1248.92C503.642 1248.98 503.085 1249.18 502.262 1249.29C501.56 1249.39 499.681 1249.56 497.479 1248.64L505.194 1230.19ZM690.004 1577.92C688.985 1567.56 685.883 1547.08 681.821 1522.23L662.083 1525.45C666.169 1550.45 669.156 1570.28 670.1 1579.88L690.004 1577.92ZM681.821 1522.23C674.378 1476.7 663.512 1415.35 655.499 1371.05L635.818 1374.61C643.827 1418.88 654.668 1480.1 662.083 1525.45L681.821 1522.23ZM646.708 1699.85C657.803 1682.73 666.556 1668.73 673.202 1656.43L655.605 1646.92C649.369 1658.47 640.995 1671.89 629.925 1688.97L646.708 1699.85ZM673.202 1656.43C680.832 1642.3 685.875 1630.08 688.551 1617.49C691.238 1604.86 691.428 1592.39 690.004 1577.92L670.1 1579.88C671.391 1593.01 671.123 1603.3 668.989 1613.33C666.846 1623.41 662.706 1633.78 655.605 1646.92L673.202 1656.43ZM604.605 1828.17C611.21 1800.22 618.323 1773.31 625.575 1750.64C632.909 1727.73 640.125 1710.01 646.708 1699.85L629.925 1688.97C621.785 1701.53 613.915 1721.46 606.527 1744.55C599.057 1767.89 591.81 1795.35 585.141 1823.57L604.605 1828.17ZM1389.01 2077.04C1366.88 2066.49 1345.53 2056.6 1326.26 2048.08L1318.18 2066.38C1337.22 2074.79 1358.39 2084.6 1380.41 2095.1L1389.01 2077.04ZM1328.16 1733.64C1372.22 1781.08 1427.9 1841.72 1480.75 1900.5L1495.62 1887.12C1442.69 1828.25 1386.93 1767.53 1342.81 1720.03L1328.16 1733.64ZM1393.51 2090.81L1496.99 1898.55L1479.38 1889.07L1375.9 2081.33L1393.51 2090.81ZM1550.4 1578.39C1567.8 1596.93 1590.77 1621.55 1616.85 1649.59L1631.49 1635.96C1605.4 1607.92 1582.41 1583.28 1564.99 1564.7L1550.4 1578.39ZM1632.14 1648.8L1708.9 1547.26L1692.94 1535.2L1616.19 1636.74L1632.14 1648.8ZM1725.07 1492.54L1721.8 1447.65L1701.85 1449.1L1705.12 1493.99L1725.07 1492.54ZM1868.39 1232.39L1945.05 1208.04L1938.99 1188.98L1862.34 1213.33L1868.39 1232.39ZM2006.7 1223.1L2011.01 1227.42L2025.17 1213.3L2020.86 1208.98L2006.7 1223.1ZM1779.67 1825.11C1809.63 1857.48 1837.99 1888.14 1862.03 1914.15L1876.72 1900.57C1852.68 1874.56 1824.31 1843.9 1794.34 1811.53L1779.67 1825.11ZM2008.76 1216.76L1777.68 1814.72L1796.33 1821.93L2027.42 1223.97L2008.76 1216.76ZM1770.84 1352.32L1836.48 1256.14L1819.96 1244.87L1754.32 1341.04L1770.84 1352.32ZM1732.26 1408.84L1735.61 1403.93L1719.09 1392.65L1715.74 1397.56L1732.26 1408.84ZM1735.61 1403.93L1770.84 1352.32L1754.32 1341.04L1719.09 1392.65L1735.61 1403.93ZM1238.58 2019.12C1236.84 2019.46 1230.71 2019.78 1219.55 2019.84C1208.89 2019.9 1194.68 2019.74 1177.68 2019.41L1177.3 2039.4C1194.34 2039.73 1208.75 2039.9 1219.66 2039.84C1230.06 2039.79 1238.44 2039.54 1242.5 2038.73L1238.58 2019.12ZM1177.68 2019.41C1104.66 2018.01 978.453 2013.57 870.913 2011.69C816.827 2010.75 766.751 2010.44 729.24 2011.45C710.516 2011.96 694.701 2012.81 683.007 2014.11C677.191 2014.75 672.103 2015.54 668.074 2016.55C666.067 2017.05 664.062 2017.66 662.254 2018.46C660.642 2019.17 658.187 2020.45 656.269 2022.77L671.674 2035.52C670.656 2036.75 669.76 2037.01 670.331 2036.76C670.706 2036.59 671.51 2036.3 672.903 2035.96C675.676 2035.27 679.758 2034.59 685.217 2033.99C696.074 2032.78 711.229 2031.95 729.783 2031.45C766.826 2030.44 816.534 2030.75 870.564 2031.69C979.256 2033.58 1102.61 2037.97 1177.3 2039.4L1177.68 2019.41ZM17.0537 2828.61C16.7866 2828.03 16.6506 2827.57 16.6051 2827.41C16.5469 2827.21 16.5174 2827.07 16.5105 2827.04C16.4975 2826.98 16.513 2827.04 16.5499 2827.29C16.622 2827.78 16.7171 2828.58 16.8307 2829.74C17.0558 2832.03 17.3142 2835.34 17.6025 2839.65C18.1776 2848.23 18.8513 2860.47 19.6052 2875.78C21.1122 2906.37 22.9301 2949.04 24.9108 2998.89C28.8717 3098.58 33.4789 3226.88 37.5438 3344.57L57.5319 3343.88C53.4666 3226.18 48.858 3097.83 44.895 2998.09C42.9137 2948.23 41.0928 2905.48 39.581 2874.79C38.8255 2859.45 38.1449 2847.08 37.5578 2838.31C37.2651 2833.94 36.9905 2830.38 36.7352 2827.78C36.6087 2826.49 36.4768 2825.33 36.3357 2824.37C36.2659 2823.9 36.1782 2823.37 36.0656 2822.85C35.9967 2822.52 35.7678 2821.44 35.2339 2820.27L17.0537 2828.61ZM37.5438 3344.57C39.4927 3400.99 41.3169 3454.97 42.8853 3502.18L62.8743 3501.51C61.3056 3454.3 59.4811 3400.31 57.5319 3343.88L37.5438 3344.57ZM894.301 3748L871.504 3667.37L852.258 3672.81L875.056 3753.44L894.301 3748ZM871.504 3667.37L827.406 3511.41L808.16 3516.85L852.258 3672.81L871.504 3667.37ZM827.406 3511.41L825.406 3504.34L806.161 3509.78L808.16 3516.85L827.406 3511.41ZM1652.35 2103.53C1652.34 2103.68 1652.31 2103.79 1652.29 2103.89L1671.75 2108.5C1671.96 2107.64 1672.11 2106.76 1672.22 2105.87L1652.35 2103.53ZM1652.44 2102.97L1652.17 2104.46L1671.87 2107.93L1672.13 2106.43L1652.44 2102.97ZM481.962 1546.92C481.962 1546.93 481.962 1546.96 481.961 1546.99C481.961 1547.03 481.959 1547.1 481.955 1547.18C481.951 1547.26 481.943 1547.42 481.923 1547.62C481.91 1547.76 481.864 1548.22 481.731 1548.82C481.669 1549.1 481.518 1549.72 481.202 1550.48C481.037 1550.87 480.143 1553.09 477.751 1554.78C476.308 1555.8 474.244 1556.67 471.749 1556.61C469.333 1556.55 467.472 1555.65 466.296 1554.84C464.278 1553.44 463.36 1551.69 463.167 1551.33C462.593 1550.26 462.359 1549.32 462.332 1549.22C462.252 1548.92 462.205 1548.68 462.185 1548.58C462.103 1548.15 462.099 1547.95 462.165 1548.63L482.071 1546.69C482.038 1546.35 481.958 1545.49 481.823 1544.79C481.796 1544.65 481.743 1544.39 481.657 1544.07C481.625 1543.95 481.386 1542.99 480.806 1541.9C480.611 1541.54 479.691 1539.79 477.67 1538.39C476.493 1537.57 474.631 1536.67 472.214 1536.62C469.718 1536.56 467.653 1537.43 466.209 1538.45C463.815 1540.14 462.919 1542.36 462.752 1542.76C462.434 1543.52 462.281 1544.15 462.217 1544.44C462.08 1545.05 462.031 1545.54 462.016 1545.7C461.993 1545.93 461.983 1546.12 461.977 1546.24C461.966 1546.48 461.963 1546.69 461.963 1546.82L481.962 1546.92ZM481.608 1544.5C481.657 1544.65 481.738 1544.92 481.81 1545.28C481.88 1545.64 481.966 1546.2 481.962 1546.92L461.963 1546.82C461.954 1548.57 462.36 1550 462.629 1550.81L481.608 1544.5ZM603.748 1831.81C604.033 1830.6 604.319 1829.38 604.605 1828.17L585.141 1823.57C584.851 1824.8 584.562 1826.03 584.274 1827.26L603.748 1831.81ZM673.095 2025.05L596.573 1854.52L578.326 1862.71L654.848 2033.24L673.095 2025.05ZM597.221 1860.74C599.323 1851.09 601.503 1841.41 603.748 1831.81L584.274 1827.26C582.004 1836.96 579.8 1846.75 577.679 1856.49L597.221 1860.74ZM1862.34 1213.33C1845.08 1218.81 1830.16 1229.91 1819.96 1244.87L1836.48 1256.14C1844.16 1244.88 1855.4 1236.52 1868.39 1232.39L1862.34 1213.33ZM1721.8 1447.65C1720.8 1433.9 1724.49 1420.22 1732.26 1408.84L1715.74 1397.56C1705.42 1412.68 1700.53 1430.85 1701.85 1449.1L1721.8 1447.65ZM861.174 3382.72C841.632 3384.01 824.854 3397.44 819.643 3416.47L838.933 3421.75C841.855 3411.08 851.313 3403.42 862.493 3402.68L861.174 3382.72ZM805.982 3466.34C802.086 3480.57 802.148 3495.58 806.161 3509.78L825.406 3504.34C822.384 3493.65 822.337 3482.34 825.272 3471.62L805.982 3466.34ZM1945.05 1208.04C1966.8 1201.13 1990.59 1206.95 2006.7 1223.1L2020.86 1208.98C1999.46 1187.52 1967.87 1179.81 1938.99 1188.98L1945.05 1208.04ZM324.924 1859.62C323.14 1863.85 321.826 1868.13 320.681 1871.96L339.842 1877.69C340.987 1873.86 342.034 1870.52 343.354 1867.38L324.924 1859.62ZM616.596 1340.44C626.682 1349.27 633.413 1361.32 635.818 1374.61L655.499 1371.05C652.306 1353.41 643.342 1337.28 629.768 1325.39L616.596 1340.44ZM825.809 3842.47C876.646 3844.16 907.438 3794.45 894.301 3748L875.056 3753.44C885.226 3789.4 861.246 3823.64 826.472 3822.48L825.809 3842.47ZM1859.46 2256.92C1859.9 2264.34 1858.99 2271.77 1856.76 2278.86L1875.84 2284.85C1878.8 2275.44 1880.01 2265.57 1879.42 2255.73L1859.46 2256.92ZM91.4252 3550.71C74.1647 3540.39 63.5505 3521.87 62.8743 3501.51L42.8853 3502.18C43.7788 3529.07 57.847 3553.94 81.1651 3567.88L91.4252 3550.71ZM1863.01 2217.77C1859.69 2227.61 1858.32 2237.99 1858.94 2248.34L1878.91 2247.14C1878.44 2239.34 1879.47 2231.54 1881.96 2224.16L1863.01 2217.77ZM1708.9 1547.26C1720.74 1531.58 1726.49 1512.14 1725.07 1492.54L1705.12 1493.99C1706.19 1508.75 1701.86 1523.39 1692.94 1535.2L1708.9 1547.26ZM1287.38 1714.37C1302.96 1715.33 1317.55 1722.22 1328.16 1733.64L1342.81 1720.03C1328.7 1704.83 1309.29 1695.69 1288.62 1694.4L1287.38 1714.37ZM423.188 1340.67C424.377 1325.19 431.327 1310.84 442.778 1300.52L429.394 1285.66C414.043 1299.49 404.82 1318.65 403.247 1339.14L423.188 1340.67ZM1899.77 1918.85C1890.4 1911.72 1882.98 1907.35 1876.72 1900.57L1862.03 1914.15C1869.87 1922.64 1880.49 1929.31 1887.66 1934.77L1899.77 1918.85ZM1800.98 2824.16C1814.09 2806.87 1819.71 2785.07 1816.63 2763.61L1796.83 2766.45C1799.15 2782.63 1794.92 2799.06 1785.05 2812.07L1800.98 2824.16ZM17.4233 2747.17C16.3476 2742.23 14.826 2736.93 13.7254 2732.63C12.5506 2728.04 11.6644 2723.93 11.3392 2719.96L-8.59381 2721.6C-8.12815 2727.27 -6.90335 2732.69 -5.6505 2737.59C-4.32336 2742.78 -3.10066 2746.92 -2.11871 2751.43L17.4233 2747.17ZM1901.78 2023.04C1902.55 2028.64 1902.67 2034.2 1902.02 2039.64L1921.88 2042.02C1922.75 2034.7 1922.58 2027.41 1921.59 2020.29L1901.78 2023.04Z" fill="#335170" mask="url(#path-1-inside-1_469_2)"/>
<path d="M1138.15 32.7525C1166.62 16.3183 1201.69 16.3183 1230.15 32.7525L1650.5 275.439C1678.96 291.873 1696.5 322.245 1696.5 355.114V840.487C1696.5 873.355 1678.96 903.727 1650.5 920.161L1230.15 1162.85C1201.69 1179.28 1166.62 1179.28 1138.15 1162.85L717.805 920.161C689.34 903.727 671.805 873.355 671.805 840.487V355.114C671.805 322.245 689.34 291.873 717.805 275.439L1138.15 32.7525Z" fill="#8AA1B7" stroke="#335170" stroke-width="10"/>
</svg>
