<svg width="5133" height="3569" viewBox="0 0 5133 3569" fill="none" xmlns="http://www.w3.org/2000/svg">
<path d="M4516.16 1040.44C4345.29 2029.62 1812.18 812.17 1706.27 1210.85C1653.41 1409.83 3249.21 1976.97 3424.77 2308.58C3517.07 2482.93 3568.33 2609.42 3366.25 2858.66C2673.29 3516.17 1533.35 2725.98 935.044 2813.98C523.234 2874.55 283.963 3110.18 18.4593 3361.87C14.4737 3365.65 12.2031 3370.91 12.2031 3376.4V3400.86C12.2031 3455.89 85.7005 3483.51 124.452 3444.43C278.357 3289.24 576.981 3036.11 935.044 2976.43C1622.81 2889.75 3127.19 3775.33 3491.09 2655.79C3491.1 2655.74 3491.11 2655.69 3491.13 2655.65M4516.16 1040.44C4551.89 864.791 4088.75 518.781 4117.33 461.008C4161.97 370.758 4807.77 364.729 5052.5 320.824C5085.86 314.84 5120.67 340.391 5120.67 374.279V374.279C5120.67 380.133 5118.53 385.657 5113.93 389.277C4968.32 503.879 4239.47 436.028 4166.77 543.735M4516.16 1040.44C4476.06 2160.39 1997.22 1011.84 1733.63 1277.07M5120.67 11.8374C4602.59 203.395 3688.34 90.2014 3631.72 398.809M3631.72 398.809C3576.94 697.375 4142.98 954.447 3973.74 1096.81M3631.72 398.809C3486.34 725.371 3937.22 887.569 3973.74 1096.81M3973.74 1096.81C3796.54 1245.85 1925.13 525.562 1346.11 995.75M1346.11 995.75C514.681 1670.91 3248.63 2219.11 2856.45 2654.03M1346.11 995.75C471.334 1753.97 2886.67 2220.38 2856.45 2654.03M2856.45 2654.03C2606.26 2931.47 1438.13 2208.71 631.923 2470.44C377.832 2552.93 12.2031 2760.09 12.2031 2760.09" stroke="#7481A1" stroke-width="24"/>
<path d="M12.2188 3052.46C12.2188 3052.46 389.806 2701.93 915.218 2614.36C1602.99 2527.68 2631.14 3177.64 3109.33 2754.6C3754.01 2184.27 1023.95 1570.42 1494.14 1130.71C2110.63 554.185 3766.72 1631.37 4249.97 1095.88C4384.04 947.311 3849.44 647.461 3858.14 416.722C3865.06 233.534 5120.69 185.981 5120.69 185.981" stroke="#7481A1" stroke-width="24" stroke-dasharray="155 155"/>
</svg>
