<svg width="4041" height="3894" viewBox="0 0 4041 3894" fill="none" xmlns="http://www.w3.org/2000/svg">
<path d="M585.136 1246.02L528.14 1468.8L447.311 1586.92L304.31 1835.6L253.235 1932.06C250.003 1938.17 247.865 1944.79 246.914 1951.63L186.818 2384.28C186.391 2387.36 185.722 2390.41 184.815 2393.38L100.93 2668.97C99.7336 2672.91 98.9486 2676.97 98.5903 2681.06L5.86719 3738.01L751.973 3887.21L681.203 3305.37L681.202 3305.36C677.031 3271.06 693.482 3098.71 702.231 3016.83L708.771 2922.3L751.823 2886.85C765.888 2875.27 773.84 2857.86 773.384 2839.64L770.357 2719.38L753.069 2630.77C752.338 2627.04 751.973 2623.25 751.973 2619.43V2061.69C751.973 2052.03 749.61 2042.52 745.087 2033.98L652.764 1859.61C644.696 1844.37 643.672 1826.37 649.953 1810.31L746.29 1564.14C750.013 1554.62 751.212 1544.3 749.767 1534.18L709.496 1252.32C705.329 1223.14 680.335 1201.46 650.857 1201.46H642.523C615.461 1201.46 591.841 1219.8 585.136 1246.02Z" fill="#57616C"/>
<path d="M2571.48 2502.45L2669.1 2586.91L2879 2747.25L3040.38 2861.68C3044.59 2864.67 3048.41 2868.19 3051.7 2872.16L3552.97 3476.04L4033.66 2946.44L3767.96 2707.53L3610.6 2522.2C3608.53 2519.74 3606.67 2517.14 3605.01 2514.41L3496.7 2334.44C3493.32 2328.82 3490.89 2322.68 3489.5 2316.29L3443.44 2101.31L3319.55 1685.6C3315.5 1671.97 3306.67 1660.26 3294.68 1652.6L3258.6 1629.54C3252.29 1625.53 3246.84 1620.36 3242.46 1614.31L3179.52 1527.18H3142.98C3137.65 1527.18 3132.34 1526.46 3127.22 1525.05L3101.16 1517.86C3089.49 1514.64 3079.09 1507.93 3071.36 1498.63L3055.6 1479.69L3027.97 1446.46L2938.79 1409.27L2837.89 1373.09C2832.67 1371.22 2827.76 1368.64 2823.29 1365.42L2636.9 1231.37C2630.21 1226.56 2622.6 1223.19 2614.51 1221.5L2515.65 1200.71L2479.31 1159.24C2476.59 1156.11 2474.16 1152.7 2472.14 1149.07L2346.77 924.528L2340.4 910.71L2276.19 771.075C2269.23 755.93 2254.1 746.228 2237.42 746.228C2225.31 746.228 2213.79 751.363 2205.7 760.355L2194.34 772.97L2183.01 785.563C2174.72 794.767 2169.53 806.335 2168.17 818.643L2160.31 889.334C2159.82 893.764 2159.83 898.233 2160.34 902.663L2169.64 983.225C2170.06 986.876 2170.82 990.48 2171.91 993.993L2217.11 1139.6C2217.97 1142.42 2219.06 1145.17 2220.34 1147.83L2346.77 1409.27L2444.95 1529.27C2453.6 1539.85 2458.34 1553.1 2458.34 1566.78V1573.68C2458.34 1582.75 2460.44 1591.7 2464.44 1599.84L2507.92 1688.19V1833.84L2512.57 1904.34L2489.35 1881.88L2390.04 1711.07C2386.04 1704.15 2383.47 1696.49 2382.49 1688.55L2376.98 1644.03L2371.86 1602.38C2370.64 1592.59 2367.03 1583.27 2361.28 1575.24L2306.49 1498.37L2293.16 1479.69L2260.64 1434.12C2249.54 1418.53 2231.59 1409.27 2212.43 1409.27H2170.33C2156.19 1409.27 2142.51 1414.33 2131.78 1423.53L2105.03 1446.46L2137.71 1541.54C2138.65 1544.27 2139.38 1547.05 2139.91 1549.88L2177.47 1750.17L2180.16 1764.52C2180.69 1767.35 2181.43 1770.13 2182.36 1772.84L2190.7 1797.13L2261.53 2003.46L2331.22 2226.64C2333.3 2233.31 2336.55 2239.56 2340.82 2245.09L2473.83 2418.02L2571.48 2502.45Z" fill="#57616C"/>
<path d="M2137.71 1541.54L2105.03 1446.46L2096.79 1402.07C2089.73 1364.02 2048.66 1342.85 2013.56 1359.17L1905.86 1409.27L2002.53 1821.45L2177.47 1750.17L2139.91 1549.88C2139.38 1547.05 2138.65 1544.27 2137.71 1541.54Z" fill="#6C7F93"/>
<path d="M1886.2 871.197L1792.16 924.528L1883.33 1313.22L2014.43 1245.87C2039.2 1233.15 2051.77 1204.88 2044.61 1177.97L1972.67 907.493C1962.69 869.995 1919.95 852.054 1886.2 871.197Z" fill="#6C7F93"/>
<path d="M1807.68 482.631L1701.22 536.788L1778.6 866.714L1910.56 802.135C1935.36 789.993 1948.48 762.324 1942.19 735.437L1892.22 521.925C1883.46 484.506 1841.93 465.206 1807.68 482.631Z" fill="#6C7F93"/>
<path d="M2194.34 772.97L2205.7 760.355C2213.79 751.363 2225.31 746.228 2237.42 746.228C2254.1 746.228 2269.23 755.93 2276.19 771.075L2340.4 910.71L2431.42 821.998C2436.9 816.656 2441.28 810.3 2444.36 803.287L2468.06 749.024C2472.71 738.351 2474.13 726.54 2472.08 715.067L2416.79 400.613L2376.51 267.227C2369.4 243.704 2348.52 227.01 2324 225.272L2131.69 211.628C2114.73 210.426 2098.08 216.562 2085.96 228.476L2049.01 264.81L2194.34 772.97Z" fill="#1F2123"/>
<path d="M851.452 3134.96L885.874 3151.73C898.719 3157.97 913.394 3159.37 927.193 3155.67L1555.19 2986.83L2606.19 2644.45C2615.93 2641.25 2624.7 2635.6 2631.6 2628.02L2669.1 2586.91L2571.48 2502.45C2058.25 2672.7 1026.86 3013.16 1007.12 3012.92L851.452 3134.96Z" fill="#282C30"/>
<path d="M2571.48 2502.45L2473.83 2418.02L1070.27 2963.43L1007.12 3012.92C1026.86 3013.16 2058.25 2672.7 2571.48 2502.45Z" fill="#282C30"/>
<path d="M2371.86 1602.38L2376.98 1644.03L2444.07 1762.7C2446.35 1766.73 2449.1 1770.47 2452.24 1773.86L2507.92 1833.84V1688.19L2464.44 1599.84C2460.44 1591.7 2458.34 1582.75 2458.34 1573.68V1566.78C2458.34 1553.1 2453.6 1539.85 2444.95 1529.27L2346.77 1409.27L2306.49 1498.37L2361.28 1575.24C2367.03 1583.27 2370.64 1592.59 2371.86 1602.38Z" fill="#282C30"/>
<path d="M2390.04 1711.07L2489.35 1881.88L2512.57 1904.34L2507.92 1833.84L2452.24 1773.86C2449.1 1770.47 2446.35 1766.73 2444.07 1762.7L2376.98 1644.03L2382.49 1688.55C2383.47 1696.49 2386.04 1704.15 2390.04 1711.07Z" fill="#282C30"/>
<path d="M1947.99 419.066C1935.07 426.049 1928.75 441.085 1932.81 455.199L1975.41 603.188C1981.09 622.965 2004 631.956 2021.63 621.333C2033.76 614.024 2039.47 599.477 2035.54 585.869L1992.88 437.898C1987.35 418.737 1965.53 409.583 1947.99 419.066Z" fill="#1F2123"/>
<path d="M1883.99 182.611L1651.49 324.76L1688.11 480.923C1697.03 477.499 1900.51 369.043 2001.13 315.242L1976.23 228.159L1973.07 217.107C1966.97 195.787 1949.48 179.659 1927.74 175.311L1926.51 175.065C1911.89 172.142 1896.71 174.837 1883.99 182.611Z" fill="#1F2123"/>
<path d="M2306.49 1498.37L2346.77 1409.27L2220.34 1147.83C2219.06 1145.17 2217.97 1142.42 2217.11 1139.6L2171.91 993.993C2170.82 990.48 2170.06 986.876 2169.64 983.225L2160.34 902.663C2159.83 898.233 2159.82 893.764 2160.31 889.334L2168.17 818.643C2169.53 806.335 2174.72 794.767 2183.01 785.563L2194.34 772.97L2049.01 264.81C2044.83 250.193 2032.8 239.158 2017.87 236.256L1976.23 228.159L2001.13 315.242L2003.86 324.76L2293.16 1479.69L2306.49 1498.37Z" fill="#838D97"/>
<path fill-rule="evenodd" clip-rule="evenodd" d="M2340.82 2245.09L2473.83 2418.02L1070.27 2963.43L1337.13 2754.23L1523.6 2608.05L2340.82 2245.09Z" fill="#282C30"/>
<path fill-rule="evenodd" clip-rule="evenodd" d="M2105.03 1446.46L2131.78 1423.53C2142.51 1414.33 2156.19 1409.27 2170.33 1409.27H2212.43C2231.59 1409.27 2249.54 1418.53 2260.64 1434.12L2293.16 1479.69L2003.86 324.76L2001.13 315.242C1900.51 369.043 1697.03 477.499 1688.11 480.923L1701.22 536.788L1807.68 482.631C1841.93 465.206 1883.46 484.506 1892.22 521.925L1942.19 735.437C1948.48 762.324 1935.36 789.993 1910.56 802.135L1778.6 866.714L1792.16 924.528L1886.2 871.197C1919.95 852.054 1962.69 869.995 1972.67 907.493L2044.61 1177.97C2051.77 1204.88 2039.2 1233.15 2014.43 1245.87L1883.33 1313.22L1905.86 1409.27L2013.56 1359.17C2048.66 1342.85 2089.73 1364.02 2096.79 1402.07L2105.03 1446.46ZM1932.81 455.199C1928.75 441.085 1935.07 426.049 1947.99 419.066C1965.53 409.583 1987.35 418.737 1992.88 437.898L2035.54 585.869C2039.47 599.477 2033.76 614.024 2021.63 621.333C2004 631.956 1981.09 622.965 1975.41 603.188L1932.81 455.199Z" fill="#3B4650"/>
<path d="M2030.98 2174.2L1990.98 2220.87L1940.57 2279.74C1938.03 2282.7 1935.2 2285.4 1932.12 2287.83L1803.3 2388.81L2236.95 2215.89C2262.72 2204.34 2276.76 2176.24 2270.51 2148.73L2190.7 1797.13L2016.7 1881.88L2043.66 1996.79C2044.7 2001.22 2045.22 2005.76 2045.22 2010.31V2135.66C2045.22 2149.79 2040.17 2163.45 2030.98 2174.2Z" fill="#6C7F93"/>
<path fill-rule="evenodd" clip-rule="evenodd" d="M770.357 2719.38L851.452 3134.96L1007.12 3012.92L1070.27 2963.43L1337.13 2754.23L1523.6 2608.05L1803.3 2388.81L1932.12 2287.83C1935.2 2285.4 1938.03 2282.7 1940.57 2279.74L1990.98 2220.87L2030.98 2174.2C2040.17 2163.45 2045.22 2149.79 2045.22 2135.66V2010.31C2045.22 2005.76 2044.7 2001.22 2043.66 1996.79L2016.7 1881.88L2002.53 1821.45L1905.86 1409.27L1883.33 1313.22L1792.16 924.528L1778.6 866.714L1701.22 536.788L1688.11 480.923L1651.49 324.76L1597.56 94.8355L1580.43 48.9323C1572.47 27.6066 1552.99 12.7251 1530.32 10.655L1478.72 5.93737C1464.92 4.67578 1451.11 8.29473 1439.7 16.1634L845.562 425.904C841.933 428.406 838.595 431.303 835.613 434.546L430.58 874.482C417.664 888.513 412.295 907.902 416.151 926.577L528.14 1468.8L585.136 1246.02C591.841 1219.8 615.461 1201.46 642.523 1201.46H650.857C680.335 1201.46 705.329 1223.14 709.496 1252.32L749.767 1534.18C751.212 1544.3 750.013 1554.62 746.29 1564.14L649.953 1810.31C643.672 1826.37 644.696 1844.37 652.764 1859.61L745.087 2033.98C749.61 2042.52 751.973 2052.03 751.973 2061.69V2619.43C751.973 2623.25 752.338 2627.04 753.069 2630.77L770.357 2719.38ZM3152.72 1498.24L3179.52 1527.18H3142.98C3137.65 1527.18 3132.34 1526.46 3127.22 1525.05L3101.16 1517.86C3089.49 1514.64 3079.09 1507.93 3071.36 1498.63L3055.6 1479.69L3108.8 1479.25C3125.44 1479.12 3141.41 1486.01 3152.72 1498.24Z" fill="#435A72"/>
<path d="M2180.16 1764.52L2177.47 1750.17L2002.53 1821.45L2016.7 1881.88L2190.7 1797.13L2182.36 1772.84C2181.43 1770.13 2180.69 1767.35 2180.16 1764.52Z" fill="#3B4650"/>
<path d="M2340.82 2245.09C2336.55 2239.56 2333.3 2233.31 2331.22 2226.64L2261.53 2003.46L2190.7 1797.13L2270.51 2148.73C2276.76 2176.24 2262.72 2204.34 2236.95 2215.89L1803.3 2388.81L1523.6 2608.05L2340.82 2245.09Z" fill="#3B4650"/>
<path d="M851.452 3134.96L770.357 2719.38M851.452 3134.96L885.874 3151.73C898.719 3157.97 913.394 3159.37 927.193 3155.67L1555.19 2986.83L2606.19 2644.45C2615.93 2641.25 2624.7 2635.6 2631.6 2628.02L2669.1 2586.91M851.452 3134.96L1007.12 3012.92M770.357 2719.38L753.069 2630.77C752.338 2627.04 751.973 2623.25 751.973 2619.43V2061.69C751.973 2052.03 749.61 2042.52 745.087 2033.98L652.764 1859.61C644.696 1844.37 643.672 1826.37 649.953 1810.31L746.29 1564.14C750.013 1554.62 751.212 1544.3 749.767 1534.18L709.496 1252.32C705.329 1223.14 680.335 1201.46 650.857 1201.46H642.523C615.461 1201.46 591.841 1219.8 585.136 1246.02L528.14 1468.8M770.357 2719.38L773.384 2839.64C773.84 2857.86 765.888 2875.27 751.823 2886.85L708.771 2922.3M2669.1 2586.91L2571.48 2502.45M2669.1 2586.91L2879 2747.25L3040.38 2861.68C3044.59 2864.67 3048.41 2868.19 3051.7 2872.16L3552.97 3476.04L4033.66 2946.44L3767.96 2707.53L3610.6 2522.2C3608.53 2519.74 3606.67 2517.14 3605.01 2514.41L3496.7 2334.44C3493.32 2328.82 3490.89 2322.68 3489.5 2316.29L3443.44 2101.31L3319.55 1685.6C3315.5 1671.97 3306.67 1660.26 3294.68 1652.6L3258.6 1629.54C3252.29 1625.53 3246.84 1620.36 3242.46 1614.31L3179.52 1527.18M1007.12 3012.92C1026.86 3013.16 2058.25 2672.7 2571.48 2502.45M1007.12 3012.92L1070.27 2963.43M528.14 1468.8L416.151 926.577C412.295 907.902 417.664 888.513 430.58 874.482L835.613 434.546C838.595 431.303 841.933 428.406 845.562 425.904L1439.7 16.1634C1451.11 8.29473 1464.92 4.67578 1478.72 5.93737L1530.32 10.655C1552.99 12.7251 1572.47 27.6066 1580.43 48.9323L1597.56 94.8355L1651.49 324.76M528.14 1468.8L447.311 1586.92L304.31 1835.6L253.235 1932.06C250.003 1938.17 247.865 1944.79 246.914 1951.63L186.818 2384.28C186.391 2387.36 185.722 2390.41 184.815 2393.38L100.93 2668.97C99.7336 2672.91 98.9486 2676.97 98.5903 2681.06L5.86719 3738.01L751.973 3887.21L681.203 3305.37L681.202 3305.36M1651.49 324.76L1883.99 182.611C1896.71 174.837 1911.89 172.142 1926.51 175.065L1927.74 175.311C1949.48 179.659 1966.97 195.787 1973.07 217.107L1976.23 228.159M1651.49 324.76L1688.11 480.923M640.055 2967.11L681.202 3305.36M708.771 2922.3L702.231 3016.83C693.482 3098.71 677.031 3271.06 681.202 3305.36M708.771 2922.3C708.771 2916.94 674.106 2863.39 650.01 2827.06C643.538 2817.31 634.28 2809.76 623.461 2805.29L415.39 2719.38M729.269 2868.49C727.512 2868.49 708.048 2827.68 694.457 2798.57C690.375 2789.8 684.259 2782.16 676.579 2776.33L564.001 2690.44M631.902 2935.12L600.353 3004.51C596.663 3012.62 594.853 3021.45 595.058 3030.36L604.997 3468.01M2571.48 2502.45L2473.83 2418.02M2473.83 2418.02L2340.82 2245.09M2473.83 2418.02L1070.27 2963.43M2340.82 2245.09C2336.55 2239.56 2333.3 2233.31 2331.22 2226.64L2261.53 2003.46L2190.7 1797.13M2340.82 2245.09L1523.6 2608.05M2190.7 1797.13L2182.36 1772.84C2181.43 1770.13 2180.69 1767.35 2180.16 1764.52L2177.47 1750.17M2190.7 1797.13L2270.51 2148.73C2276.76 2176.24 2262.72 2204.34 2236.95 2215.89L1803.3 2388.81M2190.7 1797.13L2016.7 1881.88M1070.27 2963.43L1337.13 2754.23M2105.03 1446.46L2137.71 1541.54C2138.65 1544.27 2139.38 1547.05 2139.91 1549.88L2177.47 1750.17M2105.03 1446.46L2131.78 1423.53C2142.51 1414.33 2156.19 1409.27 2170.33 1409.27H2212.43C2231.59 1409.27 2249.54 1418.53 2260.64 1434.12L2293.16 1479.69M2105.03 1446.46L2096.79 1402.07C2089.73 1364.02 2048.66 1342.85 2013.56 1359.17L1905.86 1409.27M2177.47 1750.17L2002.53 1821.45M2293.16 1479.69L2306.49 1498.37M2293.16 1479.69L2003.86 324.76L2001.13 315.242M1905.86 1409.27L1883.33 1313.22M1905.86 1409.27L2002.53 1821.45M2489.35 1881.88L2390.04 1711.07C2386.04 1704.15 2383.47 1696.49 2382.49 1688.55L2376.98 1644.03M2489.35 1881.88L2507.92 2022.88M2489.35 1881.88L2512.57 1904.34M2376.98 1644.03L2371.86 1602.38C2370.64 1592.59 2367.03 1583.27 2361.28 1575.24L2306.49 1498.37M2376.98 1644.03L2444.07 1762.7C2446.35 1766.73 2449.1 1770.47 2452.24 1773.86L2507.92 1833.84M2512.57 1904.34L2523.14 1914.54C2531.41 1922.55 2537.18 1932.8 2539.73 1944.03L2562.18 2043.03M2512.57 1904.34L2507.92 1833.84M2306.49 1498.37L2346.77 1409.27M2507.92 1833.84V1688.19M2507.92 1688.19L2543.37 1738.81C2548.61 1746.28 2552.05 1754.86 2553.41 1763.87L2562.18 1821.45M2507.92 1688.19L2464.44 1599.84C2460.44 1591.7 2458.34 1582.75 2458.34 1573.68V1566.78C2458.34 1553.1 2453.6 1539.85 2444.95 1529.27L2346.77 1409.27M2346.77 1409.27L2220.34 1147.83C2219.06 1145.17 2217.97 1142.42 2217.11 1139.6L2171.91 993.993C2170.82 990.48 2170.06 986.876 2169.64 983.225L2160.34 902.663C2159.83 898.233 2159.82 893.764 2160.31 889.334L2168.17 818.643C2169.53 806.335 2174.72 794.767 2183.01 785.563L2194.34 772.97M2194.34 772.97L2205.7 760.355C2213.79 751.363 2225.31 746.228 2237.42 746.228C2254.1 746.228 2269.23 755.93 2276.19 771.075L2340.4 910.71M2194.34 772.97L2049.01 264.81M2515.65 1200.71L2479.31 1159.24C2476.59 1156.11 2474.16 1152.7 2472.14 1149.07L2346.77 924.528L2340.4 910.71M2515.65 1200.71L2610.49 1308.92C2613 1311.78 2615.79 1314.39 2618.81 1316.72L2708.79 1386.33L2805.13 1458.17C2810.99 1462.54 2815.97 1467.95 2819.88 1474.13L2848.31 1519.4C2851.57 1524.56 2854 1530.18 2855.51 1536.08L2892.44 1678.74L2990.51 1953.32M2515.65 1200.71L2614.51 1221.5C2622.6 1223.19 2630.21 1226.56 2636.9 1231.37L2823.29 1365.42C2827.76 1368.64 2832.67 1371.22 2837.89 1373.09L2938.79 1409.27L3027.97 1446.46M2340.4 910.71L2431.42 821.998C2436.9 816.656 2441.28 810.3 2444.36 803.287L2468.06 749.024C2472.71 738.351 2474.13 726.54 2472.08 715.067L2416.79 400.613L2376.51 267.227C2369.4 243.704 2348.52 227.01 2324 225.272L2131.69 211.628C2114.73 210.426 2098.08 216.562 2085.96 228.476L2049.01 264.81M3027.97 1446.46L3055.6 1479.69M3027.97 1446.46H2971.11C2963.91 1446.46 2956.77 1447.77 2950.02 1450.33L2912.05 1464.78M3055.6 1479.69L3071.36 1498.63C3079.09 1507.93 3089.49 1514.64 3101.16 1517.86L3127.22 1525.05C3132.34 1526.46 3137.65 1527.18 3142.98 1527.18H3179.52M3055.6 1479.69L3108.8 1479.25C3125.44 1479.12 3141.41 1486.01 3152.72 1498.24L3179.52 1527.18M3118.9 1644.03L3193.8 2067.43M3291.86 1773.24L3366.76 2101.31M1976.23 228.159L2001.13 315.242M1976.23 228.159L2017.87 236.256C2032.8 239.158 2044.83 250.193 2049.01 264.81M1688.11 480.923C1697.03 477.499 1900.51 369.043 2001.13 315.242M1688.11 480.923L1701.22 536.788M1701.22 536.788L1807.68 482.631C1841.93 465.206 1883.46 484.506 1892.22 521.925L1942.19 735.437C1948.48 762.324 1935.36 789.993 1910.56 802.135L1778.6 866.714M1701.22 536.788L1778.6 866.714M1778.6 866.714L1792.16 924.528M1792.16 924.528L1886.2 871.197C1919.95 852.054 1962.69 869.995 1972.67 907.493L2044.61 1177.97C2051.77 1204.88 2039.2 1233.15 2014.43 1245.87L1883.33 1313.22M1792.16 924.528L1883.33 1313.22M2002.53 1821.45L2016.7 1881.88M2016.7 1881.88L2043.66 1996.79C2044.7 2001.22 2045.22 2005.76 2045.22 2010.31V2135.66C2045.22 2149.79 2040.17 2163.45 2030.98 2174.2L1990.98 2220.87L1940.57 2279.74C1938.03 2282.7 1935.2 2285.4 1932.12 2287.83L1803.3 2388.81M1523.6 2608.05L1337.13 2754.23M1523.6 2608.05L1803.3 2388.81M1803.28 2388.82L1803.3 2388.81M1337.13 2754.23L2160.79 2418.02M1947.99 419.066C1935.07 426.049 1928.75 441.085 1932.81 455.199L1975.41 603.188C1981.09 622.965 2004 631.956 2021.63 621.333C2033.76 614.024 2039.47 599.477 2035.54 585.869L1992.88 437.898C1987.35 418.737 1965.53 409.583 1947.99 419.066Z" stroke="#335170" stroke-width="10"/>
</svg>
