<svg width="1262" height="956" viewBox="0 0 1262 956" fill="none" xmlns="http://www.w3.org/2000/svg">
<path d="M852.359 152.835L814.007 104.459C809.369 108.197 805.903 112.936 803.374 118.285L990.691 385.487L876.888 311.868C875.709 313.111 874.162 313.412 872.842 313.217L801.92 269.549L767.374 248.28C764.434 250.422 762.045 252.768 760.136 255.263C760.16 270.977 751.685 286.877 770.765 304.165C853.698 379.31 927.334 419.099 1000.34 475.687C1008.26 482.43 1025.67 502.954 1032.01 531.101C1028.19 556.023 1022.51 612.552 1030.25 639.292C1037.99 666.032 1061.62 731.357 1072.47 760.677L1039.04 728.132C1039.34 719.922 1035.7 700.512 1018.81 688.55C1001.92 676.587 845.238 596.192 769.006 557.489C759.478 552.101 736.859 545.932 722.609 564.36L872.371 678.612C923.321 788.232 1023.68 818.339 1049.15 828.374C1069.53 836.403 1083.89 857.967 1088.52 867.745L1128.67 954.977L1260.67 895.536C1204.06 758.382 1090.07 481.142 1086.98 469.408C1083.89 457.674 1071.28 442.904 1065.36 436.985L930.37 263.097L901.995 71.3614C880.284 69.4855 882.397 115.175 886.364 140.412C886.364 140.412 875.368 144.856 868.706 142.374C861.788 139.797 853.022 131.819 853.022 131.819C852.266 139.66 852.117 146.909 852.359 152.835Z" fill="#455463"/>
<path d="M899.561 427.75C908.477 443.195 907.834 570.323 895.313 582.105C884.351 592.418 771.243 524.218 771.243 524.218C739.747 516.807 725.697 547.892 722.609 564.36C736.859 545.932 759.478 552.101 769.006 557.489C845.238 596.192 1001.92 676.587 1018.81 688.55C1035.7 700.512 1039.34 719.922 1039.04 728.132L1072.47 760.677C1061.62 731.357 1037.99 666.032 1030.25 639.292C1022.51 612.552 1028.19 556.023 1032.01 531.101C1025.67 502.954 1008.26 482.43 1000.34 475.687C927.334 419.099 853.698 379.31 770.765 304.165C751.685 286.877 760.16 270.977 760.136 255.263C746.195 273.475 757.776 299.574 766.448 311.631L833.005 369.69C833.005 369.69 889.365 410.089 899.561 427.75Z" fill="#7B91A7"/>
<path d="M803.111 187.265C808.001 203.1 875.021 290.118 875.021 290.118C880.111 303.304 879.214 309.417 876.888 311.868L990.691 385.487L803.374 118.285C793.163 139.881 798.221 171.43 803.111 187.265Z" fill="#7B91A7"/>
<path d="M899.863 56.9549C867.56 63.5812 855.9 101.983 853.022 131.819C853.022 131.819 861.788 139.797 868.706 142.374C875.368 144.856 886.364 140.412 886.364 140.412C882.397 115.175 880.284 69.4855 901.995 71.3614L899.863 56.9549Z" fill="#7B91A7"/>
<path d="M833.005 369.69L766.448 311.631C757.776 299.574 746.195 273.475 760.136 255.263C762.045 252.768 764.434 250.422 767.374 248.28L801.92 269.549C800.14 263.471 757.891 137.702 736.989 75.5774L480.071 1.55017L501.068 79.5046L555.84 282.854L551.077 282.304L582.333 375.978L844.276 452.348L865.583 457.94L833.005 369.69Z" fill="#435A72"/>
<path d="M579.116 553.429L865.583 457.94L844.276 452.348L700.432 461.765L701.991 475.276L556.694 481.805L579.116 553.429Z" fill="#3C4146"/>
<path d="M533.197 280.241L560.195 377.783L784.308 436.608L844.276 452.348L582.333 375.978L551.077 282.304L533.197 280.241Z" fill="#3C4146"/>
<path d="M784.308 436.608L679.518 434.052L687.348 462.261C636.138 465.262 591.947 469.384 554.262 474.037L556.694 481.805L701.991 475.276L700.432 461.765L844.276 452.348L784.308 436.608Z" fill="#2D3033"/>
<path d="M560.195 377.783L533.197 280.241L551.077 282.304L555.84 282.854L501.068 79.5046L466.137 78.1901L478.39 129.351L550.615 430.908L679.518 434.052L784.308 436.608L560.195 377.783Z" fill="#9AA8B5"/>
<path d="M679.518 434.052L550.615 430.908L478.39 129.351C446.438 117.958 393.163 132.179 370.52 140.713L443.438 239.733L523.337 338.436L363.257 385.583L380.873 511.912C397.612 503.212 451.976 486.666 554.262 474.037C591.947 469.384 636.138 465.262 687.348 462.261L679.518 434.052Z" fill="#9AA8B5"/>
<path d="M2.03125 140.336C52.5435 225.792 153.568 397.949 153.568 402.931C183.278 413.916 257.341 418.667 362.422 379.588C402.96 364.512 448.115 342.913 497.121 312.631L443.438 239.733L370.52 140.713L314.446 64.5678C203.181 167.53 59.809 157.981 2.03125 140.336Z" fill="#9AA8B5"/>
<path d="M497.121 312.631C448.115 342.913 402.96 364.512 362.422 379.588L363.257 385.583L523.337 338.436L443.438 239.733L497.121 312.631Z" fill="#858A8F"/>
<path d="M722.609 564.36L872.371 678.612C923.321 788.232 1023.68 818.339 1049.15 828.374C1069.53 836.403 1083.89 857.967 1088.52 867.745L1128.67 954.977L1260.67 895.536C1204.06 758.382 1090.07 481.142 1086.98 469.408C1083.89 457.674 1071.28 442.904 1065.36 436.985L930.37 263.097L901.995 71.3614M722.609 564.36C725.697 547.892 739.747 516.807 771.243 524.218C771.243 524.218 884.351 592.418 895.313 582.105C907.834 570.323 908.477 443.195 899.561 427.75C889.365 410.089 833.005 369.69 833.005 369.69M722.609 564.36C736.859 545.932 759.478 552.101 769.006 557.489C845.238 596.192 1001.92 676.587 1018.81 688.55C1035.7 700.512 1039.34 719.922 1039.04 728.132L1072.47 760.677C1061.62 731.357 1037.99 666.032 1030.25 639.292C1022.51 612.552 1028.19 556.023 1032.01 531.101C1025.67 502.954 1008.26 482.43 1000.34 475.687C927.334 419.099 853.698 379.31 770.765 304.165C751.685 286.877 760.16 270.977 760.136 255.263M833.005 369.69L766.448 311.631C757.776 299.574 746.195 273.475 760.136 255.263M833.005 369.69L865.583 457.94M865.583 457.94L579.116 553.429L556.694 481.805M865.583 457.94L844.276 452.348M362.422 379.588C257.341 418.667 183.278 413.916 153.568 402.931C153.568 397.949 52.5435 225.792 2.03125 140.336C59.809 157.981 203.181 167.53 314.446 64.5678L370.52 140.713M362.422 379.588C402.96 364.512 448.115 342.913 497.121 312.631L443.438 239.733M362.422 379.588L363.257 385.583M801.92 269.549L767.374 248.28C764.434 250.422 762.045 252.768 760.136 255.263M801.92 269.549L872.842 313.217C874.162 313.412 875.709 313.111 876.888 311.868M801.92 269.549C800.14 263.471 757.891 137.702 736.989 75.5774L480.071 1.55017L501.068 79.5046M784.308 436.608L560.195 377.783L533.197 280.241L551.077 282.304M784.308 436.608C743.82 435.62 711.224 434.825 679.518 434.052M784.308 436.608L844.276 452.348M784.308 436.608L679.518 434.052M550.615 430.908C601.39 432.147 639.754 433.082 679.518 434.052M550.615 430.908L478.39 129.351M550.615 430.908L679.518 434.052M501.068 79.5046L555.84 282.854L551.077 282.304M501.068 79.5046L466.137 78.1901L478.39 129.351M679.518 434.052L687.348 462.261C636.138 465.262 591.947 469.384 554.262 474.037M370.52 140.713C393.163 132.179 446.438 117.958 478.39 129.351M370.52 140.713L443.438 239.733M554.262 474.037C451.976 486.666 397.612 503.212 380.873 511.912L363.257 385.583M554.262 474.037L556.694 481.805M803.374 118.285C793.163 139.881 798.221 171.43 803.111 187.265C808.001 203.1 875.021 290.118 875.021 290.118C880.111 303.304 879.214 309.417 876.888 311.868M803.374 118.285C805.903 112.936 809.369 108.197 814.007 104.459L852.359 152.835C852.117 146.909 852.266 139.66 853.022 131.819M803.374 118.285L990.691 385.487L876.888 311.868M853.022 131.819C855.9 101.983 867.56 63.5812 899.863 56.9549L901.995 71.3614M853.022 131.819C853.022 131.819 861.788 139.797 868.706 142.374C875.368 144.856 886.364 140.412 886.364 140.412C882.397 115.175 880.284 69.4855 901.995 71.3614M363.257 385.583L523.337 338.436L443.438 239.733M551.077 282.304L582.333 375.978L844.276 452.348M844.276 452.348L700.432 461.765L701.991 475.276L556.694 481.805" stroke="#1C1E20" stroke-opacity="0.47"/>
</svg>
