<svg width="4764" height="4764" viewBox="0 0 4764 4764" fill="none" xmlns="http://www.w3.org/2000/svg">
<path d="M789.344 4289.96C813.884 4081.89 873.564 3658.08 915.961 3627.46C968.958 3589.18 939.513 3421.35 977.791 3321.23C1006.76 3245.47 1069.63 3123.34 1102.09 3063C1105.56 3056.55 1110.24 3050.88 1115.87 3046.19L1248.68 2935.51M1404.37 3111.43L1368.33 3137.64M1570.31 3252.32L1417.03 3405.6C1414.86 3407.77 1412.88 3410.09 1411.07 3412.57C1391.25 3439.83 1352.73 3491.65 1323.16 3527.95M1927.78 4291.64C1927.78 4278.1 1921 4194.58 1963.89 4153.95M1963.89 4153.95C1882.63 4134.08 1840.32 4010.9 1829.32 3951.79M1963.89 4153.95C1991.95 4127.36 2103.09 4028.33 2186.71 3947.85M2501.13 3587.37C2439.43 3656.59 2308.81 3805.87 2279.91 3849.21C2267.42 3867.95 2230.91 3905.31 2186.71 3947.85M2293.46 3560.28C2246.81 3611.44 2149.89 3717.84 2135.45 3734.09C2117.39 3754.41 2000.01 3817.61 1948.09 3849.21C1911.22 3871.66 1858.57 3921.85 1829.32 3951.79M2144.47 3535.45C2084.28 3594.89 1960.73 3716.93 1948.09 3729.57C1937.19 3740.47 1913.2 3773.41 1898.12 3794.82C1893.82 3800.92 1888.45 3806.17 1882.22 3810.26L1785.45 3873.76M1747.19 3898.87C1759.96 3914.69 1786.31 3943.87 1806.43 3956.39C1813.99 3961.09 1823.1 3958.16 1829.32 3951.79V3951.79M1747.19 3898.87L1785.45 3873.76M1747.19 3898.87L1641.81 4016.18C1632.61 4026.43 1627.35 4039.61 1626.98 4053.38L1625.3 4115.57M1785.45 3873.76C1817.09 3814.41 1882.18 3686.23 1889.4 3648.31C1892.09 3634.19 1895.58 3601.22 1898.45 3561.23M1239.3 3937.25C1223.5 3962.08 1188.29 4011.74 1173.84 4011.74C1159.39 4011.74 1113.65 4025.28 1092.58 4032.05M1239.3 3937.25L1321.69 3888.71M1239.3 3937.25L1110.64 3855.98M1323.16 3527.95C1318.09 3534.18 1313.29 3539.94 1308.88 3545.05C1283.05 3575.01 1256.16 3531.75 1240.51 3493.13C1234.58 3478.51 1236.47 3462.1 1244.06 3448.29L1304.44 3338.4C1308.4 3331.19 1310.78 3323.22 1311.43 3315.02L1320.01 3205.91C1320.92 3194.33 1325.28 3183.29 1332.54 3174.22L1347.84 3155.09C1351.08 3151.05 1354.83 3147.46 1359.02 3144.42L1368.33 3137.64M1323.16 3527.95C1374.97 3574.09 1488.96 3667.73 1530.49 3673.14M1321.69 3888.71L1395 3845.53C1401.01 3841.99 1406.32 3837.41 1410.7 3832C1447.22 3786.96 1512.4 3708.16 1525.98 3697.97C1536.67 3689.95 1555.44 3677.32 1569.66 3667.94C1578 3662.44 1584.84 3654.95 1589.52 3646.12C1599.58 3627.14 1614.89 3598.59 1627.56 3576.08C1634.67 3563.43 1640.31 3527.83 1644.6 3485.87M1321.69 3888.71C1288.21 3872.54 1212.67 3823.48 1178.35 3756.66M1625.3 4115.57C1637.34 4134.38 1663.22 4181.48 1670.44 4219.41C1677.67 4257.33 1750.2 4287.88 1785.57 4298.41M1625.3 4115.57C1602.73 4144.92 1544.49 4204.96 1492.12 4210.38M2186.71 3947.85C2183.92 3920.24 2166.6 3861.85 2119.64 3849.21M1898.45 3561.23C1905.18 3467.04 1908.42 3333.92 1889.4 3316.49C1862.31 3291.66 1828.45 3239.74 1767.51 3251.03C1755.39 3253.27 1743.4 3257.79 1731.95 3263.65M1898.45 3561.23L1981.96 3477.89M1483.24 3373.48L1423.88 3474.58C1407.97 3501.67 1416.52 3536.49 1443.15 3553.13L1481.39 3577.03C1511.35 3595.76 1550.96 3583.56 1565.2 3551.23L1624.75 3416.07M1731.95 3263.65C1705.95 3276.96 1682.75 3297.18 1667.3 3313.38C1658.7 3322.39 1654.45 3334.49 1653.95 3346.93C1652.36 3386.37 1649.29 3439.94 1644.6 3485.87M1731.95 3263.65C1768.24 3261.68 1844.99 3273.56 1861.76 3336.9C1873.54 3381.39 1859.96 3431.54 1844.11 3467.68C1834.08 3490.56 1808.26 3500.09 1783.85 3494.79C1732.56 3483.67 1666.43 3473.66 1644.6 3485.87M1825.8 3693C1779.66 3662.73 1676.97 3603.96 1635.33 3611.05M1787.04 3738.4C1762.68 3713.3 1699.56 3662.43 1641.97 3659.77M1368.33 3137.64C1330.98 3127.94 1243.51 3113.52 1192.43 3133.45C1194.53 3132.66 1220.46 3351.47 1133.25 3499.41M3137.72 3255.09L3059.78 3304.97C3050.45 3310.95 3039.6 3314.12 3028.52 3314.12H2950.15C2940.09 3314.12 2930.21 3316.74 2921.46 3321.71L2739.13 3425.45C2727.3 3432.19 2713.47 3434.54 2700.07 3432.11L2658.61 3424.57C2646.61 3422.39 2636.23 3414.92 2630.35 3404.23V3404.23M3137.72 3255.09L3097.29 3155.2C3085.52 3126.11 3102.19 3093.33 3132.64 3085.72V3085.72C3158.51 3079.25 3175.21 3054.14 3171.15 3027.77L3170.93 3026.34M3137.72 3255.09L3185.33 3286.83C3197.43 3294.89 3212.1 3298.12 3226.46 3295.88L3307.71 3283.18C3317.22 3281.69 3326.21 3277.86 3333.87 3272.03L3485.75 3156.47C3489.84 3153.36 3493.5 3149.72 3496.63 3145.64L3608.88 2999.46C3630.7 2971.04 3621.79 2929.82 3590.17 2912.96L3567.55 2900.9M3170.93 3026.34L2779.84 2734.87M3170.93 3026.34L3206.17 2903.01C3211.77 2883.39 3227.28 2868.16 3246.99 2862.91L3300.16 2848.73C3316.45 2844.38 3329.93 2832.97 3336.91 2817.63V2817.63C3350.74 2787.2 3335.17 2751.49 3303.46 2740.92L3289.97 2736.43C3267.16 2728.82 3251.41 2707.94 3250.37 2683.92L3249.2 2657.22C3248.69 2645.33 3244.52 2633.88 3237.27 2624.43L3126.66 2480.3M2779.84 2734.87L2739.26 2531.95M2779.84 2734.87L2726.68 2735.45M2739.26 2531.95L2787.68 2492.43M2739.26 2531.95L2857.82 2516.14M3126.66 2480.3L2857.82 2516.14M3126.66 2480.3L3078.21 2528.51C3073.76 2532.93 3068.63 2536.6 3063.01 2539.38L3003.87 2568.63C2986.79 2577.07 2966.66 2576.59 2950 2567.34L2857.82 2516.14M3022.3 2107.21V2107.21C3023.15 2093.61 3041.38 2089.79 3047.62 2101.91L3074.87 2154.84C3077.24 2159.46 3080.78 2163.37 3085.13 2166.2L3120.31 2189.07C3132.48 2196.98 3141.25 2209.18 3144.87 2223.24L3161.1 2286.29C3162.72 2292.6 3165.4 2298.59 3169.01 2304.01L3287.83 2482.24C3305.01 2508 3339.39 2515.73 3365.93 2499.81L3400.02 2479.35C3431.52 2460.45 3472.13 2479.57 3477.63 2515.9V2515.9C3481.57 2541.86 3504.36 2560.73 3530.6 2559.76V2559.76C3559.85 2558.67 3584.15 2582.09 3584.15 2611.36V2615.19C3584.15 2630.36 3590.38 2644.86 3601.38 2655.3L3611.19 2664.62C3636.17 2688.36 3635.07 2728.51 3608.83 2750.84L3549.44 2801.39C3518.28 2827.9 3523.64 2877.48 3559.74 2896.73L3567.55 2900.9M3022.3 2107.21L3077.87 2195.31C3082.28 2202.31 3085.15 2210.17 3086.27 2218.37L3090.04 2245.8C3093.17 2268.63 3082.49 2291.15 3062.83 2303.17L2908.83 2397.34C2880.51 2414.66 2843.46 2404.72 2827.61 2375.55L2779.25 2286.53C2764.11 2258.67 2729.42 2248.13 2701.34 2262.86L2680.71 2273.68M3022.3 2107.21L2888.18 1860.55M3149.47 1267.34L3124.5 1297.3C3119.53 1303.27 3117.08 1310.94 3117.67 1318.69V1318.69C3118.96 1335.39 3106.24 1349.88 3089.51 1350.77L3061.9 1352.24C3046.74 1353.05 3032.53 1359.89 3022.45 1371.24L3014.68 1379.98C3007.45 1388.12 2997.08 1392.78 2986.19 1392.78L2982.61 1392.78C2968.82 1392.78 2956.49 1401.35 2951.69 1414.27V1414.27C2947.82 1424.68 2938.98 1432.45 2928.16 1434.94L2873.4 1447.52C2867.69 1448.83 2861.81 1449.27 2855.96 1448.82L2799.79 1444.5C2786.78 1443.5 2773.81 1446.91 2762.98 1454.19L2727.93 1477.76C2720.38 1482.84 2711.73 1486.07 2702.7 1487.19L2638.02 1495.21C2612.55 1498.36 2593.59 1520.27 2594.12 1545.93L2594.6 1569.46C2595 1588.71 2612.83 1602.82 2631.65 1598.79L2635.6 1597.94C2647.7 1595.35 2656.24 1584.53 2655.95 1572.16V1572.16C2655.62 1558.01 2666.79 1546.24 2680.94 1545.83L2787.17 1542.72C2798.66 1542.39 2809.79 1538.65 2819.15 1531.97L2864.93 1499.33C2894.75 1478.07 2936.57 1489.43 2951.53 1522.86L2981.75 1590.34C2985.44 1598.59 2994.28 1603.26 3003.18 1601.66V1601.66C3016.55 1599.26 3028.27 1610.81 3026.07 1624.21L3022.45 1646.3C3020.69 1657.02 3023.94 1667.96 3031.27 1675.98L3090.91 1741.31C3103.51 1755.11 3107.76 1774.61 3102.04 1792.4V1792.4C3095.73 1812.04 3078.42 1826.11 3057.91 1828.28L3016.84 1832.63C3006.3 1833.75 2997.84 1841.84 2996.25 1852.32V1852.32C2994.63 1862.99 2985.9 1871.15 2975.14 1872.05L2933.97 1875.48C2921.62 1876.51 2909.26 1873.55 2898.71 1867.05L2888.18 1860.55M3149.47 1267.34L3111.81 1266.28M3149.47 1267.34L3236.17 1214.37L3370.16 1156.51C3388.46 1148.6 3409.54 1150.66 3425.98 1161.94L3523.98 1229.22L3666.95 1338.78M2611.73 1006.65L2619.83 1074.67C2621.59 1089.53 2616.27 1104.36 2605.46 1114.7L2587.18 1132.18C2578.96 1140.05 2578.4 1153.01 2585.92 1161.56V1161.56C2592.16 1168.66 2592.97 1179.02 2587.89 1186.99L2585.04 1191.48C2578.5 1201.76 2580.73 1215.31 2590.22 1222.96V1222.96C2601.93 1232.39 2602.14 1250.17 2590.64 1259.88L2586.21 1263.61C2580.86 1268.12 2577.35 1274.43 2576.32 1281.35L2574 1297.03C2571.07 1316.82 2579.95 1336.5 2596.72 1347.41V1347.41C2607.1 1354.15 2619.57 1356.91 2631.83 1355.16L2682.08 1347.98C2691.3 1346.66 2699.29 1340.9 2703.46 1332.57V1332.57C2708.66 1322.17 2719.69 1315.99 2731.28 1316.99L2764.04 1319.81C2770.01 1320.33 2775.06 1315.44 2774.74 1309.46V1309.46C2774.47 1304.2 2778.37 1299.65 2783.61 1299.12L2855.53 1291.84C2865.36 1290.85 2874.01 1284.89 2878.43 1276.04V1276.04C2885.83 1261.24 2904.14 1255.69 2918.51 1263.88L2970.27 1293.38C2987.67 1303.3 3009.78 1298.13 3020.98 1281.53V1281.53C3028.31 1270.65 3040.7 1264.29 3053.8 1264.66L3111.81 1266.28M2611.73 1006.65L2973.86 810.315L2992.55 802.62C3001.04 799.124 3010.25 805.735 3009.66 814.898V814.898C3009.18 822.324 3015.3 828.5 3022.73 828.093L3077.78 825.077C3084.54 824.706 3090.83 821.522 3095.14 816.298V816.298C3100.44 809.862 3108.68 806.608 3116.94 807.686L3153.83 812.497M2611.73 1006.65L2607.54 1003.19C2593.81 991.869 2591.78 971.603 2602.97 957.775V957.775C2608.5 950.946 2611.02 942.166 2609.96 933.445L2607.52 913.467C2604.83 891.448 2614.94 869.825 2633.56 857.766L2656.15 843.132C2669.62 834.407 2677.59 819.304 2677.18 803.26V803.26C2676.58 780.144 2693.21 760.166 2716.05 756.548L2719.01 756.078M3153.83 812.497L3152.48 787.504C3152.01 778.799 3158.25 771.169 3166.87 769.901L3169.58 769.502C3179.23 768.084 3187.58 776.226 3186.4 785.902V785.902C3185.33 794.783 3192.33 802.576 3201.27 802.459L3244.05 801.896C3258.83 801.701 3272.83 795.25 3282.59 784.144L3293.25 771.995C3301.86 762.198 3313.51 755.585 3326.33 753.223L3389.43 741.599M3153.83 812.497L3111.81 1266.28M3389.43 741.599L3383.58 722.238C3378.92 706.816 3362.97 697.768 3347.34 701.676L3341.18 703.214C3325.25 707.199 3309.81 695.144 3309.81 678.715V678.715C3309.81 663.479 3296.42 651.713 3281.31 653.672L3268.05 655.39C3257.19 656.799 3246.25 653.318 3238.2 645.886L3201.8 612.281C3189.28 600.725 3170.18 600.082 3156.92 610.77L3152.15 614.605C3145.14 620.259 3135.56 621.555 3127.29 617.972L3095.56 604.222C3087.93 600.915 3080.06 608.361 3082.93 616.164V616.164M3389.43 741.599L3435.68 772.394C3444.84 778.49 3452.07 787.064 3456.54 797.116L3477.46 844.183C3483.48 857.733 3494.47 868.463 3508.15 874.166L3556.85 894.454C3569.21 899.606 3579.41 908.879 3585.71 920.698L3613.36 972.525C3618.06 981.344 3624.96 988.798 3633.39 994.164L3722.66 1050.97M3082.93 616.164C3043.66 590.714 2955.53 538.285 2917.14 532.177C2878.74 526.069 2826.24 521.633 2804.79 520.179M3082.93 616.164L3109.96 666.564C3117.19 680.058 3111.59 696.86 3097.7 703.308V703.308C3094.43 704.825 3090.89 705.663 3087.29 705.773L3063.61 706.49C3059.06 706.628 3054.51 706.163 3050.08 705.108L3043.8 703.614C3024.48 699.013 3004.5 708.121 2995.29 725.725L2989.66 736.506C2987.25 741.116 2982.91 744.414 2977.82 745.504L2975.66 745.967C2965.44 748.158 2955.94 739.993 2956.57 729.554V729.554C2957.09 721.061 2950.79 713.684 2942.32 712.864L2939.11 712.554C2930.11 711.683 2922.95 704.64 2921.93 695.659L2918.77 667.822C2918.41 664.659 2918.33 661.47 2918.54 658.293L2919.81 638.559C2921.46 612.973 2906.12 589.34 2882.07 580.435L2874.21 577.524C2867.26 574.95 2860.87 571.067 2855.38 566.087L2804.79 520.179M2804.79 520.179L2734.21 485.24C2711.65 474.072 2684.3 481.594 2670.63 502.728V502.728M2670.63 502.728L2658.37 594.69C2657.82 598.815 2656.82 602.869 2655.41 606.782L2632.21 670.796C2630.92 674.362 2629.98 678.045 2629.41 681.794L2620.94 737.258C2619.2 748.623 2614.12 759.216 2606.36 767.691L2557.52 820.969C2550.18 828.978 2545.23 838.889 2543.25 849.571L2537.08 882.767C2534.2 898.306 2520.64 909.577 2504.83 909.577V909.577M2670.63 502.728L2577.94 481.08C2567.06 478.539 2555.68 479.194 2545.16 482.966L2486.11 504.148C2482.3 505.513 2478.38 506.477 2474.37 507.013C2440.63 511.533 2382.16 518.737 2377.52 516.751C2372.6 514.641 2348.55 516.951 2337.14 518.37M2504.83 909.577L2497.93 786.362C2497.45 777.72 2495.04 769.295 2490.87 761.706L2429.57 649.979L2337.14 518.37M2504.83 909.577L2480.84 901.942M2307.41 513.636L2316.02 511.052C2323.91 508.687 2332.42 511.636 2337.14 518.37V518.37M2307.41 513.636L2373.94 615.075L2428.33 704.716C2431.32 709.646 2433.56 714.994 2434.98 720.584L2480.84 901.942M2307.41 513.636L2291.44 551.845C2285.94 564.999 2273.25 573.718 2259 574.137V574.137C2245.64 574.53 2233.57 582.236 2227.59 594.194L2225.95 597.487C2213.55 622.286 2181.27 628.537 2159.94 610.825C2158.28 609.443 2157.04 608.44 2156.38 607.941C2152.26 604.849 1996.81 670.747 1912.91 706.953C1908.08 709.039 1903.57 711.77 1899.48 715.081L1662.87 906.433M2480.84 901.942L2362.01 899.8M2791.6 674.579L2748.18 672.795C2736.83 672.329 2726.22 678.396 2720.86 688.411L2717.6 694.507C2713.18 702.775 2714.89 712.984 2721.76 719.364V719.364C2728.84 725.937 2730.41 736.541 2725.54 744.885L2719.01 756.078M2791.6 674.579L2840.85 727.738C2843.46 730.564 2844.37 734.576 2843.22 738.253V738.253M2791.6 674.579L2794.85 673.537C2818.33 666.026 2843.99 674.157 2858.74 693.903C2881.08 723.803 2905.24 756.579 2906.2 759.474C2906.4 760.07 2907.08 760.589 2908.12 761.039C2927.79 769.542 2949.63 775.218 2959.14 794.431C2961.48 799.163 2963.27 803.124 2963.93 805.317C2965.46 810.421 2953.02 807.853 2941.82 804.46C2935.72 802.611 2929.02 804.487 2925.1 809.522V809.522C2919.33 816.943 2908.16 817.099 2902.19 809.843L2843.22 738.253M2843.22 738.253L2843.05 738.798C2838.88 752.132 2830.04 763.514 2818.16 770.852L2783.17 792.45C2773.43 798.461 2761.55 799.913 2750.65 796.425L2732.24 790.532C2717.82 785.92 2711.39 769.149 2719.01 756.078V756.078M2362.01 899.8L2300.85 848.237C2296.55 844.613 2292.95 840.236 2290.22 835.321L2287.21 829.902C2274.03 806.18 2242.01 801.275 2222.33 819.966V819.966C2213.33 828.515 2200.98 832.589 2188.66 831.07L2043.13 813.128C2025.06 810.9 2006.99 817.288 1994.33 830.381L1906.04 921.714C1901.39 926.526 1895.94 930.496 1889.94 933.449L1841.3 957.369C1826.53 964.635 1809.36 965.279 1794.08 959.142L1662.87 906.433M2362.01 899.8L2360.05 923.582C2357.65 952.587 2334.14 975.328 2305.07 976.746L2295.15 977.229M1662.87 906.433V906.433C1653.1 922.724 1633.89 930.804 1615.41 926.403L1613.5 925.949C1604.22 923.738 1594.47 924.455 1585.61 928L1556 939.846C1540.85 945.903 1529.71 959.088 1526.25 975.029L1523.81 986.307C1520 1003.88 1503.79 1015.92 1485.87 1014.49L1484.84 1014.4C1470.48 1013.26 1456.93 1021.17 1450.87 1034.24L1447.27 1042.01C1442.75 1051.75 1445.44 1063.32 1453.8 1070.08V1070.08M2348 1168.77L2352.82 1168.93C2385.76 1170.07 2411.14 1198.39 2408.66 1231.26L2406.39 1261.27M2348 1168.77L2345.6 1200.55M2348 1168.77L2295.15 977.229M2307.52 1203.62L2315.29 1269.28C2317.54 1288.34 2300.37 1303.96 2281.6 1299.92V1299.92C2270.15 1297.45 2261.45 1288.11 2259.8 1276.52L2251.75 1220.22C2250.9 1214.23 2255.21 1208.75 2261.22 1208.16V1208.16M2307.52 1203.62L2261.22 1208.16M2307.52 1203.62L2345.6 1200.55M1416.62 1531.71L1548.7 1524.16M1416.62 1531.71V1531.71C1414.73 1541.2 1422.38 1549.9 1432.04 1549.22L1542.49 1541.45C1545.37 1541.24 1548.25 1541.26 1551.12 1541.48L1666.62 1550.58L1828.28 1542.31C1831.19 1542.16 1834.08 1541.79 1836.93 1541.21L1919.43 1524.36M1416.62 1531.71L1418.11 1488C1418.36 1480.44 1415.19 1473.17 1409.48 1468.22V1468.22C1398.89 1459.05 1397.89 1442.98 1407.24 1432.55L1414.56 1424.4C1424.82 1412.98 1426.66 1396.3 1419.13 1382.92L1406.02 1359.61C1400.9 1350.5 1400.93 1339.37 1406.12 1330.29L1412.74 1318.7C1417.01 1311.23 1414.58 1301.72 1407.26 1297.22V1297.22C1400.67 1293.16 1397.95 1284.97 1400.79 1277.78L1410.92 1252.19C1412.82 1247.38 1415.48 1242.9 1418.8 1238.93L1432.87 1222.04C1441.11 1212.15 1441.74 1197.98 1434.41 1187.4V1187.4C1431.42 1183.07 1429.67 1178 1429.37 1172.74L1428.39 1155.77C1427.66 1143.2 1415.8 1134.29 1403.52 1137.11V1137.11M1548.7 1524.16L1673.22 1522.27C1682.64 1522.84 1694.05 1523.5 1706.34 1524.15M1548.7 1524.16L1524.18 1093.05M2235.46 1404.35L2176.03 1443.03L2130.14 1472.64C2121.88 1477.97 2112.39 1481.11 2102.58 1481.77L1981.73 1489.88C1978.57 1490.09 1975.43 1490.56 1972.35 1491.29C1924.09 1502.64 1833.87 1524.07 1825.1 1526.99C1817.87 1529.4 1755.16 1526.76 1706.34 1524.15M2235.46 1404.35L2273.23 1395.11C2278.84 1393.73 2284.62 1393.2 2290.38 1393.54L2406.07 1400.24C2409.93 1400.47 2413.8 1400.31 2417.63 1399.76L2447.02 1395.56C2449.99 1395.14 2453 1394.95 2456.01 1395.01V1395.01M2235.46 1404.35C2248.76 1384.17 2277.03 1343.31 2283.73 1341.3C2288.1 1339.99 2309.17 1333.6 2329.39 1327.46C2347.44 1321.98 2367.03 1325.62 2381.91 1337.22L2456.01 1395.01M1145.88 1749.62L1131.85 1736.26C1117.19 1722.3 1115.11 1699.66 1126.97 1683.26V1683.26C1134.16 1673.33 1136.45 1660.68 1133.21 1648.86L1128.12 1630.26C1122.75 1610.67 1128.03 1589.69 1142.03 1574.96L1156.26 1560.01L1170.23 1543.96C1177.73 1535.36 1182.52 1524.73 1184 1513.41L1187.91 1483.67C1188.81 1476.77 1191.08 1470.13 1194.58 1464.12L1202.92 1449.82C1206.76 1443.25 1206.96 1435.16 1203.46 1428.4V1428.4C1198.96 1419.72 1200.66 1409.12 1207.66 1402.29L1225.94 1384.42C1232.26 1378.25 1234.1 1368.81 1230.56 1360.72V1360.72C1226.35 1351.1 1229.81 1339.84 1238.7 1334.24L1252.99 1325.24C1265.99 1317.06 1271.98 1302.08 1274.5 1286.93C1275.27 1282.31 1276.63 1278.79 1278.89 1277.94C1283.02 1276.4 1295.87 1266.56 1307.31 1257.37C1313.8 1252.16 1312.31 1242 1304.67 1238.72V1238.72C1299.21 1236.38 1296.54 1230.18 1298.6 1224.61L1313.56 1184.06C1320.19 1166.12 1335.41 1152.73 1354.05 1148.46L1403.52 1137.11M1145.88 1749.62L1121.1 1768.69C1105.91 1780.37 1097.47 1798.8 1098.56 1817.94L1101.95 1877.89C1102.29 1883.81 1099.66 1889.51 1094.95 1893.12V1893.12C1089.72 1897.12 1087.1 1903.68 1088.15 1910.19L1156.26 2332.62M1145.88 1749.62L1192.51 1774.61C1211.18 1784.62 1222.22 1804.82 1220.71 1825.95V1825.95C1219.39 1844.42 1227.76 1862.38 1242.83 1873.14V1873.14C1254.89 1881.76 1270 1884.95 1284.51 1881.95L1307.95 1877.1M1156.26 2332.62L1182.64 2343.28C1196.96 2349.06 1207.87 2361.06 1212.26 2375.88L1214.41 2383.14C1218.13 2395.7 1228.16 2405.38 1240.83 2408.66L1251.61 2411.44C1264.79 2414.85 1272.99 2427.98 1270.26 2441.32V2441.32C1267.66 2454.09 1275.07 2466.78 1287.47 2470.78L1297.94 2474.15C1313.58 2479.2 1324.18 2493.75 1324.18 2510.19V2526.68C1324.18 2540.82 1331.86 2553.83 1344.24 2560.66V2560.66C1349.05 2563.32 1353.24 2566.96 1356.53 2571.36L1378.17 2600.2C1384.73 2608.96 1394.13 2615.17 1404.77 2617.78V2617.78C1426.52 2623.12 1441.56 2642.98 1440.82 2665.37L1440.21 2683.55L1440.01 2686.81C1438.84 2706.32 1459.24 2719.79 1476.73 2711.05V2711.05C1478.16 2710.33 1479.53 2709.47 1480.8 2708.5L1560.83 2647.25C1567.75 2641.96 1573.38 2635.18 1577.32 2627.41L1600.09 2582.48C1604.14 2574.5 1609.97 2567.56 1617.14 2562.21L1665.67 2526.01M1156.26 2332.62L1139.06 2398.37C1135.93 2410.33 1136.71 2422.97 1141.27 2434.45L1167.4 2500.28C1171.15 2509.72 1178.43 2517.33 1187.69 2521.5V2521.5M1665.67 2526.01L1673.72 2493.83C1676.47 2482.82 1682.39 2472.86 1690.74 2465.19L1743.8 2416.43C1746.42 2414.02 1748.82 2411.37 1750.96 2408.52L1790.2 2356.21M1665.67 2526.01C1495.99 2174.8 1356.49 1947.07 1307.95 1877.1M1790.2 2356.21L1807.34 2407.64C1809.72 2414.79 1813.48 2421.41 1818.39 2427.12L1839.98 2452.22C1847.34 2460.78 1850.81 2472 1849.56 2483.22V2483.22C1848.39 2493.72 1843.18 2503.36 1835.03 2510.08L1772.27 2561.86L1729.43 2595.42C1721.17 2601.89 1717.83 2612.84 1721.07 2622.82L1723.64 2630.72C1726.09 2638.26 1722.52 2646.43 1715.32 2649.75V2649.75C1702.39 2655.72 1703.48 2674.86 1716.15 2681.39C1723.58 2685.22 1728.88 2689.03 1728.88 2692.04C1728.88 2699.02 1724.57 2717.31 1721.94 2727.47C1721.54 2729 1720.88 2730.45 1720.01 2731.76V2731.76C1713.86 2740.98 1719.95 2753.4 1731 2754.19L1732.32 2754.28C1740.04 2754.83 1746.11 2761.08 1746.45 2768.8L1747.74 2798.64L1742.08 2856.19M1790.2 2356.21L1848.68 2304.32M1742.08 2856.19L1772.78 2854.11C1788.47 2853.04 1802.72 2844.57 1811.15 2831.29L1819.11 2818.74C1825.02 2809.43 1835.96 2804.61 1846.81 2806.52V2806.52C1855.66 2808.08 1864.7 2805.18 1870.99 2798.75L1891.05 2778.23C1897.71 2771.42 1908.21 2770.16 1916.28 2775.21V2775.21C1925.45 2780.94 1937.49 2778.47 1943.66 2769.6L1957.54 2749.65C1969.52 2732.42 1991.69 2725.54 2011.32 2732.96L2020.38 2736.38M1742.08 2856.19L1737.75 2886.08C1735.84 2899.29 1744.32 2911.78 1757.3 2914.87V2914.87M2020.38 2736.38V2736.38C2037.2 2721.8 2042.56 2697.95 2033.59 2677.57L2029.19 2667.56C2028.35 2665.65 2027.66 2663.67 2027.14 2661.64L2024.05 2649.6C2020.9 2637.29 2008.79 2629.4 1996.23 2631.36V2631.36C1984.59 2633.17 1973.21 2626.43 1969.32 2615.32L1964.6 2601.81C1963.57 2598.86 1964.73 2595.6 1967.38 2593.96V2593.96C1973.08 2590.45 1970.6 2581.67 1963.9 2581.67H1939.73C1938.16 2581.67 1936.61 2581.4 1935.14 2580.84C1924.29 2576.69 1906.23 2568.43 1906.23 2562.8C1906.23 2558.02 1910.17 2543.47 1913.37 2532.62C1914.7 2528.11 1918.86 2525.07 1923.56 2525.07V2525.07C1932.71 2525.07 1937.67 2514.34 1931.73 2507.37L1921.81 2495.71C1914.98 2487.69 1916.58 2475.53 1925.24 2469.53L1941.63 2458.18C1944.41 2456.26 1946.71 2453.73 1948.37 2450.79V2450.79C1955.62 2437.9 1948.52 2421.65 1934.13 2418.21L1933.44 2418.04C1924.89 2416 1918.27 2409.21 1916.44 2400.61L1913.2 2385.37C1911.14 2375.69 1905.64 2367.08 1897.72 2361.15L1889.18 2354.74C1883.35 2350.36 1880.14 2343.31 1880.68 2336.04V2336.04C1881.3 2327.64 1876.94 2319.66 1869.55 2315.65L1848.68 2304.32M2020.38 2736.38L2035.32 2761.51M1848.68 2304.32L1876.68 2252.28M2211.98 2358.16V2358.16C2213.85 2371.86 2227.36 2380.77 2240.69 2377.08L2248.58 2374.9C2260.56 2371.58 2272.83 2379.18 2275.2 2391.38V2391.38C2277.36 2402.46 2270.51 2413.3 2259.58 2416.11L2237.86 2421.69M2211.98 2358.16C2190.12 2381.67 2145.99 2379.45 2107.04 2370.38C2076.14 2363.17 2042.27 2375.86 2029.25 2404.79L2022.01 2420.88M2211.98 2358.16L2207.89 2346.45C2203.81 2334.79 2203.57 2322.14 2207.19 2310.33L2221.58 2263.37M2211.98 2358.16L2237.93 2320.6M2237.86 2421.69L2192.74 2432.19C2189.1 2433.03 2185.56 2434.23 2182.15 2435.76L2134.94 2456.92M2237.86 2421.69L2278.64 2434.38M2237.93 2320.6L2244.25 2311.45C2252.27 2299.85 2264.23 2291.57 2277.9 2288.15L2303.45 2281.77C2318.68 2277.96 2334.8 2280.49 2348.13 2288.78L2365.83 2299.78C2369.14 2301.83 2372.67 2303.49 2376.36 2304.72L2401.97 2313.26C2415.62 2317.81 2430.26 2309.77 2433.75 2295.81V2295.81M2237.93 2320.6L2244.3 2273.12C2244.67 2270.42 2244.13 2267.67 2242.77 2265.3L2240.43 2261.24C2235.92 2253.4 2224.23 2254.72 2221.58 2263.37V2263.37M2022.01 2420.88V2420.88C2017.29 2431.37 2018.17 2443.53 2024.36 2453.22L2041.8 2480.54C2046.97 2488.64 2057.3 2491.73 2066.07 2487.79V2487.79M2022.01 2420.88C2020.23 2418.48 2004.8 2400.61 1990.01 2383.56C1980.49 2372.59 1984.64 2355.5 1998.13 2350.15V2350.15C2007.89 2346.27 2013.3 2335.8 2010.82 2325.6L2008.54 2316.25C2004.65 2300.26 2013.48 2283.9 2028.99 2278.39L2099.52 2253.35L2144.44 2239.6C2160.08 2234.81 2177.02 2236.85 2191.08 2245.22L2221.58 2263.37M1876.68 2252.28L1893.1 2250.06C1907.42 2248.13 1916.73 2233.97 1912.83 2220.06V2220.06C1908.4 2204.22 1920.98 2188.76 1937.39 2189.89L1947.97 2190.62C1962.12 2191.6 1975.16 2182.93 1979.74 2169.51L1980.35 2167.7C1985.7 2152.03 2001.62 2142.54 2017.94 2145.3L2047.16 2150.24C2063.68 2153.03 2080.59 2148.55 2093.55 2137.94L2099.04 2133.45M1876.68 2252.28C1859.32 2189.5 1775.06 2090.54 1723.83 2036.89C1714.48 2027.1 1708.53 2014.51 1707.3 2001.02L1682.71 1731.29M2181.69 1462.84L2208.93 1442.81C2212.15 1440.45 2215.59 1438.43 2219.22 1436.77L2253.22 1421.26C2262.59 1416.99 2272.94 1415.28 2283.19 1416.33L2383.01 1426.55C2385.89 1426.85 2388.8 1426.93 2391.7 1426.79L2409.22 1425.94M2181.69 1462.84L2157.48 1480.64C2152.27 1484.47 2146.46 1487.4 2140.29 1489.32L2089.19 1505.15C2084.84 1506.5 2080.34 1507.33 2075.79 1507.63L1966.6 1514.73L1919.43 1524.36M2181.69 1462.84L2199.3 1470.31C2216.16 1477.46 2228.65 1492.17 2232.99 1509.96L2233.63 1512.55C2236.39 1523.86 2235.67 1535.75 2231.58 1546.66L2220.13 1577.21C2215.61 1589.26 2215.23 1602.47 2219.04 1614.76L2228.71 1645.93C2232.17 1657.07 2229.17 1669.2 2220.93 1677.44V1677.44C2208.79 1689.58 2208.65 1709.22 2220.62 1721.53L2223.57 1724.57C2233.64 1734.93 2236.48 1750.34 2230.75 1763.6L2220.77 1786.71C2218.84 1791.19 2217.48 1795.89 2216.72 1800.7L2206.89 1863.24C2205.59 1871.52 2206.1 1879.98 2208.39 1888.04L2232.03 1971.53C2238.41 1994.07 2230.61 2018.23 2212.26 2032.78L2147.09 2084.47C2142.53 2088.09 2138.54 2092.37 2135.26 2097.16L2129.62 2105.41C2126.5 2109.97 2122.75 2114.05 2118.48 2117.55L2099.04 2133.45M2409.22 1425.94L2485.45 1422.28L2504.82 1418.68M2409.22 1425.94L2406.19 1586.86C2406.01 1596.49 2413.35 1604.6 2422.95 1605.38V1605.38C2431.14 1606.04 2438.76 1601.14 2441.56 1593.41L2504.82 1418.68M2504.82 1418.68L2532.92 1413.46C2542.53 1411.68 2548.1 1401.55 2544.47 1392.48V1392.48C2541.13 1384.12 2531.39 1380.36 2523.3 1384.31L2506.69 1392.41C2502.03 1394.68 2496.9 1395.81 2491.72 1395.71L2456.01 1395.01M2234.43 980.191L2231.64 980.327C2198.79 981.93 2173.84 1010.5 2176.68 1043.26L2182.29 1107.99C2183.27 1119.36 2189.52 1129.62 2199.18 1135.72V1135.72C2214.81 1145.6 2220.6 1165.59 2212.66 1182.29L2204.99 1198.43C2197.99 1213.16 2197.67 1230.2 2204.12 1245.18L2219.38 1280.59C2223.36 1289.83 2224.87 1299.94 2223.75 1309.94L2216.46 1375.63L2215.2 1389.45C2213.28 1410.53 2197.57 1427.74 2176.75 1431.57L2174.17 1432.04C2163.12 1434.07 2153.39 1440.54 2147.24 1449.94V1449.94C2141.18 1459.21 2131.62 1465.64 2120.74 1467.76L2098.52 1472.08C2073.69 1476.91 2048.59 1465.09 2036.5 1442.87L2020.8 1414.01C2017.11 1407.23 2012.11 1401.26 2006.08 1396.44L1958.08 1358.03C1951.28 1352.6 1945.8 1345.7 1942.03 1337.86L1904.1 1258.9C1896.84 1243.78 1883.38 1232.54 1867.21 1228.09L1794.77 1208.15C1779.07 1203.83 1765.9 1193.1 1758.5 1178.59L1752.05 1165.94C1745.58 1153.28 1734.7 1143.43 1721.45 1138.26L1690.03 1126.02M2234.43 980.191L2261.22 1208.16M2234.43 980.191L2295.15 977.229M2345.6 1200.55L2341.56 1254.08C2340.16 1272.55 2354.42 1288.47 2372.94 1289.11L2375.23 1289.19C2391.42 1289.75 2405.17 1277.43 2406.39 1261.27V1261.27M3666.95 1338.78L3659.31 1297.3C3655.95 1279.03 3661.54 1260.25 3674.35 1246.8L3679.03 1241.89C3686.89 1233.63 3692.15 1223.23 3694.14 1212L3722.66 1050.97M3666.95 1338.78L3718.94 1413.05M3722.66 1050.97L3782.12 1134.22C3791.56 1147.43 3795.03 1163.99 3791.68 1179.88L3789.5 1190.23M3718.94 1413.05L3749.67 1366.96C3753.9 1360.61 3756.84 1353.49 3758.31 1346.01L3782.07 1225.51L3789.5 1190.23M3718.94 1413.05L3951.05 1879.11M3951.05 1879.11L3968.51 1774.31C3970.44 1762.75 3968.82 1750.88 3963.86 1740.25L3928.77 1665.05C3922.78 1652.23 3921.69 1637.66 3925.7 1624.09L3937.89 1582.83C3941.6 1570.28 3940.96 1556.85 3936.07 1544.71L3895.38 1443.76C3894.12 1440.62 3893.13 1437.38 3892.43 1434.07L3867.87 1317.79C3866.39 1310.8 3863.63 1304.14 3859.73 1298.14L3789.5 1190.23M3951.05 1879.11L3779.37 2055.17C3759.71 2075.34 3757.38 2106.71 3773.83 2129.56L3941.19 2361.95M3951.05 1879.11C3998.31 1951.17 3964.17 2231.03 3941.19 2361.95M3941.19 2361.95L3764.65 2824.01C3757.98 2841.46 3743.3 2854.64 3725.23 2859.39L3567.55 2900.9M2888.18 1860.55L2873.13 1851.27C2865.42 1846.52 2856.7 1843.63 2847.67 1842.85L2823.19 1840.74C2804.56 1839.14 2788.12 1827.9 2779.87 1811.11V1811.11C2767.98 1786.92 2739.92 1775.39 2714.45 1784.23L2692.7 1791.79C2666.82 1800.78 2651.8 1827.75 2657.78 1854.48V1854.48C2662.17 1874.09 2655.29 1894.52 2639.93 1907.47L2614.07 1929.27C2608.1 1934.3 2600.8 1937.49 2593.05 1938.43L2584.14 1939.53C2564.66 1941.91 2551.77 1960.96 2556.8 1979.94V1979.94C2560.27 1993.01 2555.24 2006.86 2544.19 2014.67L2529.89 2024.76C2514.37 2035.71 2493.08 2033.16 2480.59 2018.85V2018.85C2466.42 2002.6 2441.43 2001.84 2426.29 2017.18L2391.4 2052.55C2377.8 2066.35 2371.98 2086.02 2375.9 2105L2380.34 2126.56C2383.08 2139.83 2393.96 2149.88 2407.41 2151.56V2151.56C2425.73 2153.85 2438.2 2171.27 2434.47 2189.35L2429.23 2214.77C2427.18 2224.69 2427.88 2234.97 2431.25 2244.52L2433.16 2249.93M2435.19 2570.58L2524.88 2526.1M2435.19 2570.58L2457.39 2617.85M2435.19 2570.58L2390.35 2566.13M2641.97 2738.19L2554.54 2536.94C2549.57 2525.51 2536.05 2520.57 2524.88 2526.1V2526.1M2641.97 2738.19L2584 2760.6C2555.59 2771.58 2523.53 2758.72 2510.59 2731.15L2457.39 2617.85M2641.97 2738.19L2692.98 2749.12M2692.98 2749.12L2696.92 2743.56C2703.63 2734.09 2716.1 2730.69 2726.68 2735.45V2735.45M2692.98 2749.12V2749.12C2705.62 2757.24 2722.51 2750.76 2726.46 2736.26L2726.68 2735.45M2259.7 2855.53L2333.49 2794.76C2335.18 2793.37 2336.76 2791.84 2338.2 2790.2L2343.98 2783.64C2357.23 2768.58 2380.68 2768.58 2393.93 2783.64V2783.64C2399.07 2789.47 2406.09 2793.33 2413.77 2794.53L2415.46 2794.79C2434.89 2797.83 2448.79 2815.19 2447.51 2834.81L2446.36 2852.45C2445.68 2862.97 2449.56 2873.27 2457.01 2880.73L2464.17 2887.88C2479.78 2903.49 2473.89 2930.03 2453.14 2937.57V2937.57C2440.51 2942.17 2432.44 2954.56 2433.35 2967.97L2435.81 3004.29C2436.98 3021.57 2449.68 3035.88 2466.7 3039.1V3039.1C2482.56 3042.1 2494.8 3054.79 2497.23 3070.75L2500.72 3093.67C2502.62 3106.18 2508.57 3117.73 2517.65 3126.55L2542.47 3150.66C2550.99 3158.94 2555.02 3170.8 2553.31 3182.56L2549.47 3208.89C2547.58 3221.82 2559.23 3232.64 2571.99 3229.81V3229.81C2580.24 3227.97 2588.69 3231.91 2592.59 3239.4L2612.49 3277.53C2618.57 3289.19 2620.51 3302.58 2617.99 3315.49L2612.46 3343.73C2609.85 3357.08 2612.01 3370.92 2618.57 3382.84L2630.35 3404.23M2259.7 2855.53L2173.84 2836.93C2171.25 2836.36 2168.81 2835.24 2166.69 2833.63V2833.63C2154.93 2824.66 2137.95 2832.81 2137.58 2847.6L2137.11 2866.7C2137.02 2870.2 2136.27 2873.65 2134.91 2876.87L2094.8 2971.67C2090.14 2982.69 2089.48 2995.01 2092.95 3006.47V3006.47C2100.84 3032.59 2086.89 3060.32 2061.2 3069.54L1990.3 3094.99L1959.55 3110.79C1943.97 3118.79 1925.62 3119.32 1909.61 3112.25L1903.03 3109.34C1883.11 3100.53 1869.79 3081.31 1868.56 3059.56L1867.41 3039.13C1866.55 3024.09 1859.88 3009.96 1848.79 2999.75L1818.82 2972.14C1812.52 2966.34 1807.88 2958.98 1805.36 2950.8V2950.8C1800.32 2934.43 1787 2921.94 1770.34 2917.97L1757.3 2914.87M2259.7 2855.53L2205.46 2741.91M2706.01 2317.4V2317.4C2696.41 2321.51 2685.24 2318.6 2678.87 2310.32L2674.05 2304.05C2666.36 2294.05 2669.54 2279.54 2680.71 2273.68V2273.68M2706.01 2317.4V2317.4C2727.01 2308.4 2751.42 2316.56 2762.78 2336.39L2810.07 2418.92C2816.64 2430.38 2818.51 2443.94 2815.31 2456.75V2456.75C2812.64 2467.45 2806.58 2477 2798.03 2483.97L2787.68 2492.43M2706.01 2317.4L2787.68 2492.43M2680.71 2273.68L2644.67 2227.93C2637.22 2218.47 2625.67 2213.19 2613.64 2213.73L2611.53 2213.83C2601.27 2214.3 2591.37 2209.96 2584.75 2202.1V2202.1C2574.9 2190.4 2558.3 2186.99 2544.63 2193.87L2433.16 2249.93M2433.16 2249.93L2434.41 2253.48C2438.2 2264.21 2438.75 2275.81 2435.99 2286.85L2433.75 2295.81M2433.75 2295.81L2524.88 2526.1M2278.64 2434.38L2331.89 2409.63C2359.26 2396.91 2391.81 2407.3 2406.74 2433.53L2415.45 2448.83C2425.58 2466.63 2420.55 2489.21 2403.81 2501.03V2501.03C2391.97 2509.39 2385.61 2523.52 2387.21 2537.93L2390.35 2566.13M2278.64 2434.38L2348.1 2579.02M2390.35 2566.13L2348.1 2579.02M2348.1 2579.02V2579.02C2352.91 2587.84 2349.93 2598.87 2341.35 2604.08L2256.6 2655.44C2246.89 2661.32 2234.22 2657.63 2229.18 2647.45V2647.45M2134.94 2456.92L2066.07 2487.79M2134.94 2456.92L2229.18 2647.45M2066.07 2487.79L2070.44 2505.25C2072.16 2512.11 2067.82 2519.02 2060.9 2520.46V2520.46C2049.29 2522.88 2047.45 2538.7 2058.12 2543.9V2543.9C2062.08 2545.83 2064.75 2549.71 2065.13 2554.09L2067.45 2581.38C2068.02 2588.14 2062.35 2593.78 2055.59 2593.17V2593.17C2046.92 2592.38 2040.87 2601.57 2045.01 2609.23L2107.82 2725.26M2107.82 2725.26L2229.18 2647.45M2107.82 2725.26L2035.32 2761.51M2035.32 2761.51L2040.86 2769.17C2057.44 2792.08 2088.11 2799.7 2113.48 2787.21L2205.46 2741.91M2035.32 2761.51L2013.62 2777.59C2009.39 2780.72 2004.06 2781.96 1998.89 2781.02L1995.26 2780.36C1985.7 2778.63 1976.84 2785.81 1976.57 2795.51V2795.51C1976.35 2803.19 1970.66 2809.61 1963.06 2810.75L1934.03 2815.1C1926 2816.31 1918.38 2819.41 1911.79 2824.16L1893.65 2837.24C1886.58 2842.33 1878.27 2845.43 1869.58 2846.2V2846.2C1858.25 2847.2 1847.63 2852.15 1839.59 2860.2L1839.19 2860.59C1830.54 2869.24 1818.92 2874.43 1806.71 2875.14V2875.14C1789.82 2876.14 1774.42 2885.52 1765.9 2900.14L1757.3 2914.87M2457.39 2617.85L2205.46 2741.91M2630.35 3404.23L2620.17 3414.68C2604.57 3430.71 2581.14 3436.34 2559.96 3429.14L2539.89 3422.33C2525.97 3417.6 2510.71 3418.83 2497.73 3425.73V3425.73C2481.61 3434.29 2462.24 3434.01 2446.37 3425L2408.29 3403.36M2408.29 3403.36L2408.62 3397.31C2410.05 3370.74 2390.45 3347.68 2363.99 3344.83L2337.89 3342.02C2326.3 3340.78 2317.68 3330.74 2318.19 3319.1V3319.1C2318.53 3311.34 2314.76 3303.97 2308.26 3299.69L2271.09 3275.24C2266.28 3272.08 2261.98 3268.22 2258.31 3263.79L2231.55 3231.5C2225.27 3223.92 2221.21 3214.76 2219.82 3205.02L2218.71 3197.21C2215.6 3175.42 2196.94 3159.24 2174.93 3159.24V3159.24C2165.15 3159.24 2155.64 3162.49 2147.89 3168.47L2135.73 3177.87C2130.79 3181.69 2127.43 3187.19 2126.29 3193.33V3193.33C2123.44 3208.75 2107.41 3217.92 2092.67 3212.56L2068.71 3203.85C2052.24 3197.86 2033.78 3202.6 2022.24 3215.79V3215.79C2015.06 3224 2004.99 3229.13 1994.13 3230.12L1961.14 3233.12C1952.85 3233.87 1945.8 3239.46 1943.16 3247.36V3247.36C1939.85 3257.29 1929.72 3263.25 1919.43 3261.32L1907.27 3259.04M2408.29 3403.36L2237.79 3393.17C2231.61 3392.8 2225.53 3391.44 2219.78 3389.15L2156.16 3363.79C2153.09 3362.57 2149.91 3361.61 2146.67 3360.92L2027.73 3335.81C2020.33 3334.24 2013.32 3331.25 2007.07 3327L1907.27 3259.04M1919.43 1524.36L1977.3 1529.5C1982.64 1529.98 1987.88 1531.19 1992.89 1533.11L2049.96 1554.95C2071.01 1563.01 2084.8 1583.36 2084.46 1605.91V1605.91C2084.07 1631.9 2065.12 1653.88 2039.47 1658.1L2001.94 1664.27C1996.65 1665.14 1991.25 1665.27 1985.92 1664.66L1956.43 1661.27M1403.52 1137.11L1403.16 1131.51C1401.26 1102.33 1421.38 1076.29 1450.11 1070.78L1453.8 1070.08M1453.8 1070.08L1469.67 1082.91C1483.98 1094.48 1502.94 1098.57 1520.75 1093.94L1524.18 1093.05M1524.18 1093.05L1556.05 1084.75C1568.03 1081.63 1580.7 1082.43 1592.2 1087.03L1675.68 1120.42L1690.03 1126.02M1690.03 1126.02L1706.34 1524.15M1535.48 1619.71L1512.06 1630.29C1498.85 1636.25 1483.73 1636.35 1470.44 1630.57V1630.57C1455.76 1624.17 1437.4 1624.66 1430.65 1639.18C1420.47 1661.11 1422.01 1694.36 1426.49 1721.17C1429.16 1737.12 1442.62 1748.55 1458.66 1750.6L1471.53 1752.24C1486.71 1754.18 1500.54 1743.3 1502.23 1728.09V1728.09C1503.73 1714.54 1514.97 1704.16 1528.6 1703.74L1596.12 1701.63C1608.96 1701.22 1619.37 1691.07 1620.08 1678.23V1678.23M1535.48 1619.71L1568.83 1621.34C1598.74 1622.8 1621.75 1648.33 1620.08 1678.23V1678.23M1535.48 1619.71V1619.71C1531.15 1585.08 1562.53 1556.47 1597.21 1560.38C1619.31 1562.88 1637.36 1564.86 1638.77 1564.86V1564.86C1663.67 1564.86 1680.72 1590.49 1676.39 1615.01L1661.66 1698.49C1659.95 1708.18 1651.62 1715.3 1641.78 1715.49V1715.49C1630.6 1715.7 1621.3 1706.95 1620.83 1695.78L1620.08 1678.23M1682.71 1731.29L1664.18 1737.09L1601.68 1760.7C1597.11 1762.43 1592.78 1764.73 1588.78 1767.54L1495.17 1833.46C1488.68 1838.04 1481.31 1841.23 1473.53 1842.84L1307.95 1877.1M1682.71 1731.29L1779.68 1700.91C1787.9 1698.34 1796.59 1697.63 1805.11 1698.83L1872.51 1708.32C1889.3 1710.68 1905.34 1700.53 1910.38 1684.33V1684.33C1915.32 1668.46 1930.85 1658.34 1947.37 1660.23L1956.43 1661.27M1187.69 2521.5V2521.5C1197.06 2525.72 1204.79 2532.89 1209.7 2541.92L1257.03 2629.11L1399.85 2840.84C1413.06 2860.42 1436.82 2870.03 1459.93 2865.15L1484.97 2859.85C1492.55 2858.25 1499.17 2853.68 1503.36 2847.16L1508.61 2839C1515.91 2827.64 1531.84 2825.93 1541.39 2835.48V2835.48C1546.86 2840.94 1554.88 2843 1562.3 2840.83L1564.04 2840.32C1575.92 2836.86 1588.51 2842.9 1593.24 2854.34L1637.87 2962.4C1639.17 2965.54 1640.74 2968.57 1642.57 2971.44L1771.5 3173.65C1775.17 3179.41 1779.83 3184.47 1785.25 3188.61L1799.66 3199.59M1187.69 2521.5L1219.75 2616.37C1221.23 2620.75 1223.23 2624.94 1225.71 2628.85L1354.06 2831.35C1355.88 2834.23 1357.95 2836.94 1360.25 2839.45L1561.77 3059.75C1564.42 3062.65 1567.35 3065.26 1570.53 3067.57L1765.95 3209.21C1777.65 3217.7 1794.21 3212.97 1799.66 3199.59V3199.59M1799.66 3199.59L1857.11 3243.35C1864.3 3248.84 1872.68 3252.56 1881.57 3254.23L1907.27 3259.04M2406.39 1261.27L2433.56 1254.38C2464.03 1246.66 2480.01 1213.17 2466.85 1184.63V1184.63M2466.85 1184.63V1184.63C2477.8 1189.11 2490.01 1182 2491.53 1170.27L2497.52 1123.8L2507.9 1032.28C2509.2 1020.85 2507.06 1009.29 2501.77 999.07L2485.6 967.834C2480.53 958.047 2470.24 952.098 2459.23 952.591L2451.18 952.951C2431.05 953.853 2420.7 977.443 2433.67 992.861V992.861C2439.71 1000.04 2441.07 1010.06 2437.17 1018.6L2432.26 1029.34C2427.95 1038.77 2427.19 1049.45 2430.14 1059.4L2441.43 1097.49C2442.81 1102.15 2442.59 1107.13 2440.74 1111.62C2440.55 1112.08 2440.36 1112.54 2440.16 1113.01C2432.68 1131.03 2448.78 1177.24 2466.85 1184.63V1184.63ZM1956.43 1661.27L2076.13 2015.77L2099.04 2133.45M2701.89 1987.8V1987.8C2675 2009.12 2681.68 2061.6 2651.07 2077.13L2642 2081.73C2618.67 2093.56 2590.16 2085.4 2576.62 2063.02V2063.02C2565.91 2045.3 2567.23 2022.82 2579.94 2006.47L2580.33 2005.98C2584.7 2000.35 2590.21 1995.7 2596.5 1992.34L2722.47 1924.98C2731.07 1920.38 2741.71 1922.47 2747.94 1929.97V1929.97C2756.41 1940.19 2753.12 1955.71 2741.54 1962.21C2728.17 1969.72 2712.89 1979.07 2701.89 1987.8ZM2525.39 1724.95L2503.5 1747.26C2486.65 1764.45 2482.28 1790.52 2492.34 1812.38V1812.38C2498.84 1826.51 2499.47 1842.81 2493.95 1857.35L2471.06 1917.71C2466.33 1930.17 2457.45 1940.63 2445.91 1947.32L2380.01 1985.51C2368.2 1992.35 2353.33 1990.83 2343.15 1981.74V1981.74C2333.55 1973.18 2330.12 1959.64 2334.46 1947.54L2426.63 1690.43C2434.17 1669.4 2453.45 1654.83 2475.75 1653.33L2491.93 1652.23C2518.8 1650.42 2540.65 1673.56 2537.31 1700.27V1700.27C2536.14 1709.58 2531.96 1718.25 2525.39 1724.95ZM2204.82 693.163L2201.91 696.868C2196.59 703.627 2186.94 705.09 2179.86 700.21V700.21C2170.91 694.04 2170.39 680.997 2178.84 674.144L2182.5 671.174C2187.3 667.273 2193.95 666.546 2199.48 669.314V669.314C2208.41 673.779 2211 685.316 2204.82 693.163ZM2368.45 747.637V747.637C2362.41 755.533 2351.03 756.847 2343.35 750.536L2342.88 750.156C2334.65 743.386 2334.3 730.897 2342.14 723.676V723.676C2348.54 717.785 2358.28 717.466 2365.05 722.926L2365.52 723.302C2372.93 729.279 2374.23 740.074 2368.45 747.637ZM2554.21 2313.94L2609.18 2414.51C2619.05 2432.57 2612.16 2455.23 2593.89 2464.73V2464.73C2575.55 2474.28 2552.95 2466.82 2543.89 2448.23L2493.68 2345.21C2486.55 2330.59 2490.75 2312.98 2503.7 2303.14V2303.14C2520.29 2290.54 2544.21 2295.65 2554.21 2313.94ZM2471.58 2119.62V2119.62C2467.32 2130.77 2454.79 2136.3 2443.68 2131.94L2443.02 2131.69C2431.59 2127.21 2426.28 2114.05 2431.39 2102.89V2102.89C2435.11 2094.76 2443.49 2089.81 2452.4 2090.47L2453.1 2090.52C2467.46 2091.58 2476.72 2106.18 2471.58 2119.62ZM2553.91 2062.35V2062.35C2555.51 2076.75 2541.31 2087.74 2527.78 2082.57L2526.69 2082.16C2514.94 2077.67 2510.46 2063.38 2517.54 2052.99V2052.99C2523.51 2044.24 2535.37 2041.86 2544.25 2047.63L2545.22 2048.26C2550.08 2051.42 2553.27 2056.59 2553.91 2062.35ZM2728.84 2073.59L2773.43 2033.59C2797.63 2011.88 2834.95 2014.3 2856.14 2038.96L2894.05 2083.05C2915.25 2107.72 2912.04 2144.99 2886.84 2165.54C2860.7 2186.85 2832.93 2209.32 2814.16 2224.1C2800.23 2235.08 2785.26 2232.68 2774.26 2218.76L2722.06 2152.73C2703.07 2128.7 2706.04 2094.04 2728.84 2073.59Z" stroke="#7481A1" stroke-width="10"/>
<path d="M1665.88 3316.13C1221.62 3027.65 927.773 2527.12 927.773 1957.95C927.773 1064.23 1652.28 339.727 2546 339.727C3439.72 339.727 4164.23 1064.23 4164.23 1957.95C4164.23 2851.67 3439.72 3576.18 2546 3576.18C2300.36 3576.18 2112.43 3541.7 1903.89 3443.77" stroke="#7481A1" stroke-width="10"/>
<path d="M1716.23 3273.16C1277.78 2999.75 986.492 2516.55 986.492 1966.06C986.492 1113.26 1685.58 421.922 2547.95 421.922C3410.31 421.922 4109.4 1113.26 4109.4 1966.06C4109.4 2818.87 3410.31 3510.21 2547.95 3510.21C2318.09 3510.21 2099.83 3461.09 1903.32 3372.89" stroke="#7481A1" stroke-width="10"/>
</svg>
