<svg width="4763" height="4764" viewBox="0 0 4763 4764" fill="none" xmlns="http://www.w3.org/2000/svg">
<path d="M1675.3 665.538L1718.38 666.686M1779.5 668.317L1780.14 678.224C1780.99 691.609 1772.67 703.874 1759.92 708.033V708.033C1753.28 710.198 1746.08 709.927 1739.62 707.267L1738.21 706.686C1724.08 700.865 1715.67 686.221 1717.77 671.079L1718.38 666.686M1779.5 668.317L1718.38 666.686M1779.5 668.317C1786.19 658.507 1787.6 650.788 1786.66 645.127C1785.22 636.494 1775.15 633.964 1766.42 633.34C1742.35 631.62 1709.58 629.335 1706.28 629.335M1833 713.472C1833 711.61 1836.53 696.544 1840.05 682.068M1844.81 662.758L1901.82 653.92C1917.86 651.432 1931.63 665.389 1928.93 681.401V681.401C1926.91 693.339 1916.26 701.861 1904.17 701.204L1878.16 699.79C1867.3 699.2 1856.89 695.283 1848.34 688.571L1840.05 682.068M1844.81 662.758C1843.51 667.954 1841.78 674.939 1840.05 682.068M1844.81 662.758C1844.25 653.27 1844.14 634.095 1848.11 633.302C1852.08 632.509 1895.55 623.04 1916.79 618.405M1889.27 830.878L1886.14 808.995M1703.09 818.373C1702.64 796.882 1727.71 777.855 1747.65 767.033C1754.64 763.238 1763.07 766.896 1765.86 774.344L1767.4 778.459C1770.18 785.882 1779.62 788.086 1785.4 782.664V782.664C1790.58 777.811 1798.92 778.988 1802.55 785.084L1804.76 788.789C1809.8 797.252 1821.61 798.383 1828.17 791.031L1834.83 783.555C1836.64 781.53 1839.54 780.885 1842.03 781.954V781.954C1846.58 783.903 1851.5 780.105 1850.77 775.213L1850.3 772.118C1849.11 764.144 1859.07 759.55 1864.36 765.637L1880.1 783.762C1882 785.949 1883.23 788.637 1883.64 791.504L1886.14 808.995M1767.69 844.078C1778.58 847.32 1808.13 851.997 1839.25 844.772M1776.03 885.065C1794.32 887.844 1833.69 890.206 1844.81 877.424M1717.67 831.573L1739.21 837.131M1878.15 833.657V833.657C1868.54 835.794 1863.39 846.297 1867.58 855.207L1871.61 863.756C1872.27 865.154 1873.07 866.481 1874 867.718V867.718C1880.8 876.793 1879.9 889.492 1871.88 897.513L1867.18 902.209C1861.07 908.322 1857.84 916.745 1858.31 925.377L1858.99 938.07M1586.29 709.319L1583.51 712.098C1578.53 717.077 1579.94 725.48 1586.28 728.556L1588.26 729.519C1591.55 731.119 1595.52 730.141 1597.69 727.193V727.193C1600.17 723.822 1599.46 719.077 1596.1 716.585L1586.29 709.319ZM1586.29 709.319C1586.88 692.834 1580.75 661.513 1551.55 668.107C1548.33 668.834 1545.83 670.465 1543.94 672.845M1611.61 804.694C1613.1 808.911 1614.62 817.237 1612.58 825.243M1543.94 672.845C1528.74 692.046 1553.98 760.004 1570.39 795.275C1579.22 812.74 1599.01 845.199 1607.48 835.309C1610.09 832.273 1611.68 828.789 1612.58 825.243M1543.94 672.845C1541.82 670.466 1528.96 644.121 1518.65 622.584C1516.17 617.418 1521.83 612.179 1526.8 615.021V615.021C1531.44 617.668 1536.91 613.248 1535.29 608.163L1518.85 556.36C1516.51 549.007 1524.59 542.72 1531.15 546.789V546.789C1537.93 551 1546.17 544.147 1543.26 536.709L1532.98 510.383C1530.13 503.091 1539.69 497.431 1544.71 503.436V503.436C1547.32 506.549 1552.03 506.758 1554.9 503.889L1558.35 500.438C1561.81 496.976 1562.65 491.634 1560.46 487.255V487.255C1555.26 476.86 1566.75 465.894 1576.93 471.508V471.508C1580.97 473.737 1585.99 473.475 1589.74 470.785L1603.74 460.741C1609.3 456.749 1608.93 448.355 1603.03 444.879V444.879C1595 440.15 1597.9 427.893 1607.19 427.262L1642.84 424.84C1646.36 424.601 1649.76 423.458 1652.71 421.521L1661.72 415.608C1667.43 411.861 1674.03 409.698 1680.85 409.339L1692.9 408.705C1703.03 408.171 1711.58 400.959 1713.81 391.055V391.055C1715.37 384.104 1720.07 378.176 1726.8 375.839C1735.66 372.762 1745.32 370.602 1746.86 374.457V374.457C1749.39 380.796 1759.05 382.038 1761.25 375.573L1762.56 371.701C1763.56 368.78 1766.3 366.814 1769.39 366.814L1794.18 366.815C1802.51 366.815 1809.99 371.916 1813.03 379.67L1824.32 408.48C1825.87 412.444 1831.31 412.886 1833.48 409.225V409.225C1835.99 404.994 1842.44 406.403 1842.97 411.295L1844.05 421.522C1844.49 425.641 1847.83 428.828 1851.92 429.431C1870.73 432.198 1901.74 441.652 1916.37 464.074V464.074C1929.44 484.128 1959.2 466.111 1982.92 462.898L2003.03 460.175C2007.53 459.565 2012.07 461.03 2015.36 464.158V464.158C2020.44 468.982 2021.49 476.717 2016.83 481.946C2008.51 491.271 1996.88 500.886 1987.03 510.244C1982.59 514.466 1986.66 519.416 1992.06 516.524V516.524C1997.91 513.393 2003.72 520.739 1999.33 525.71L1995.25 530.318C1990.81 535.339 1995.92 542.989 2002.26 540.815V540.815C2008.72 538.599 2013.82 546.544 2009.1 551.491L2001.7 559.266C1996.95 564.25 2001.56 572.362 2008.27 570.843V570.843C2014 569.544 2018.66 575.506 2016.01 580.755L1989.99 632.326C1986.22 639.813 1987.33 648.838 1992.81 655.185V655.185C1995.51 658.311 1997.23 662.157 1997.63 666.268C2000.09 691.307 2001.59 734.027 1991.39 744.735C1983.47 753.057 1978.84 761.167 1976.5 766.647C1975.07 770.004 1974.67 773.666 1974.58 777.315L1973.76 808.327C1973.51 817.772 1968.01 826.021 1958.65 824.782V824.782C1947.19 823.266 1935.59 831.213 1933.14 842.508C1932.3 846.345 1931.25 850.342 1929.95 854.401M1690.59 892.013C1695.7 911.67 1718.03 923.216 1737.71 929.109C1751.38 933.205 1764.22 940.59 1777.09 946.768C1789.19 952.577 1802.51 954.53 1812.19 954.75C1817.25 954.865 1822.35 955.282 1827.39 954.842C1838.66 953.857 1849.67 946.776 1858.99 938.07M1612.58 825.243L1638.74 848.928M1649.48 858.647L1638.74 848.928M1649.48 858.647C1652.81 896.662 1694.65 984.488 1750.65 1049.94M1649.48 858.647L1636.19 929.508C1634.18 940.263 1635.24 951.37 1639.27 961.544L1677.55 1058.24M1638.74 848.928C1622.27 864.526 1593.53 895.299 1576.71 923.443M1677.55 1058.24L1658.88 1057.87C1645.73 1057.61 1632.88 1061.82 1622.44 1069.82L1596.85 1089.43M1677.55 1058.24L1694.14 1067.2C1713.98 1077.91 1725.82 1099.14 1724.5 1121.65L1722.32 1158.67C1721.6 1170.93 1724.78 1183.1 1731.42 1193.43L1792.25 1288.12C1794.31 1291.33 1799.05 1291.15 1800.86 1287.79L1848.56 1199.21M1929.95 854.401C1924.6 871.104 1915.05 888.866 1899.12 900.892C1888.4 908.983 1877.5 917.362 1868.85 927.636C1865.86 931.185 1862.55 934.746 1858.99 938.07M1929.95 854.401L1930.94 936.615M1930.94 936.615L1883.81 1083.97C1875.4 1110.28 1848.85 1127.38 1824.69 1114.01C1809.41 1105.56 1794.38 1094.1 1779.93 1080.65M1930.94 936.615C1964.83 924.78 2016.62 943.798 2047.4 959.257C2056.04 963.597 2062.94 970.622 2067.84 978.959V978.959M1750.65 1049.94C1750.65 1049.94 1729.01 1086.31 1750.06 1081.63C1771.11 1076.96 1779.93 1080.65 1779.93 1080.65M1750.65 1049.94C1760.05 1060.92 1769.85 1071.27 1779.93 1080.65M1779.93 1080.65L1838.28 1135.68C1855.69 1152.09 1859.9 1178.14 1848.56 1199.21V1199.21M1848.56 1199.21L1851.2 1293.01C1851.31 1296.92 1855.07 1299.68 1858.81 1298.53C1870.63 1294.91 1886.47 1289.49 1900.88 1283.34M1794.83 464.63C1807.45 461.415 1832.9 450.198 1833.72 431.047M1757.71 438.117L1760.36 408.069M1916.79 618.405L1914.5 586.805C1913.16 568.341 1903.09 551.624 1887.39 541.813L1876.32 534.896C1867.75 529.535 1861.78 520.861 1859.83 510.936V510.936C1856.47 493.789 1841.44 481.421 1823.97 481.421H1770.22C1764.03 481.421 1758.76 476.929 1757.78 470.82V470.82C1756.38 462.111 1746.69 457.498 1739.05 461.899L1731.65 466.157C1726.43 469.162 1719.76 467.296 1716.86 462.019V462.019C1713.83 456.511 1706.74 454.763 1701.5 458.23L1649.74 492.459M1916.79 618.405L1919.79 620.547C1929.89 627.765 1937.42 638.037 1941.25 649.85L1942.43 653.507C1944.76 660.674 1945.66 668.225 1945.1 675.738L1941.26 727.011C1940.85 732.352 1939.72 737.612 1937.87 742.64L1928.29 768.772C1923.71 781.267 1914.97 791.807 1903.54 798.622L1886.14 808.995M1588.25 665.041V636.518C1588.25 628.567 1597.26 623.968 1603.7 628.635V628.635C1611.33 634.168 1621.59 626.708 1618.67 617.743L1615.03 606.522L1606.39 575.899C1605.05 571.15 1607.08 566.096 1611.33 563.594V563.594C1616.61 560.489 1618.28 553.635 1615.02 548.453L1604.12 531.141M2067.84 978.959L2081.73 1002.62C2086.64 1010.98 2089.39 1020.42 2089.65 1030.11C2090.62 1065.63 2091.62 1121.61 2089.99 1143.23C2088.15 1167.86 2059.07 1190.54 2030.41 1198.22M2067.84 978.959C2082.43 977.073 2121.23 981.412 2159.72 1013.86C2194.33 1043.04 2218.82 1096.28 2229.35 1126.37C2231.37 1132.14 2235.7 1136.83 2241.41 1139V1139C2248.06 1141.54 2252.82 1147.46 2253.88 1154.5L2262.16 1209.7C2263.04 1215.58 2264.82 1221.29 2267.44 1226.63L2354.28 1403.78C2356.62 1408.55 2357.87 1413.77 2357.95 1419.08L2358.55 1458.46C2358.65 1465.5 2365.9 1470.15 2372.35 1467.32V1467.32C2380.8 1463.61 2389.24 1472.49 2385.02 1480.7C2344.52 1559.66 2277.13 1685.71 2255.91 1705C2232.33 1726.44 2228.22 1785.4 2229.11 1812.19L2228.83 1825.17C2228.21 1852.71 2208.23 1875.82 2181.74 1883.36C2149.02 1892.67 2111.54 1906.65 2084.53 1924.97M1576.71 923.443C1569.85 934.908 1564.98 945.938 1563.71 955.327C1561.61 970.951 1559.79 1000.35 1558.34 1031.31M1576.71 923.443C1542.06 934.389 1489.64 952.172 1438.77 971.786M1030.94 1622.28C1024.17 1629.66 1005.08 1637.42 982.912 1609.35C970.094 1593.11 948.423 1575.68 928.257 1561.48M1075.27 1625.97C1087.59 1621.66 1118.5 1617.1 1143.62 1633.36C1147.68 1635.99 1151.31 1638.78 1154.55 1641.65M1245.21 1134.62C1330.98 1201.81 1338.39 1438.05 1330.98 1558.75C1330.5 1566.55 1328.33 1574.14 1324.74 1581.08L1321.49 1587.38M1322.79 1075.51C1385.6 1246.68 1486.09 1637.42 1385.6 1831.01M1438.77 971.786C1383.2 993.215 1329.48 1016.83 1302.82 1036.1C1297.51 1039.94 1291.96 1043.44 1286.11 1046.4C1252.8 1063.27 1205.41 1102.52 1155.27 1153.72M1438.77 971.786L1568.47 1601.96C1573.4 1654.29 1580.66 1775.96 1570.32 1843.94M1596.85 1089.43L1563.44 1115.04C1560.1 1117.59 1555.3 1115.15 1555.41 1110.95C1556.02 1089.37 1557.02 1059.69 1558.34 1031.31M1596.85 1089.43C1598.47 1165.45 1610.22 1337.81 1644.21 1419.09C1686.69 1520.68 1716.25 1710.94 1686.69 1812.54M1383.75 1649.98C1444.09 1619.81 1595.07 1568.71 1716.25 1605.65M1391.14 1496.67C1442.43 1472.11 1566.73 1430.44 1692.06 1437.73C1720.09 1439.36 1740.43 1463.52 1741.24 1491.58C1743.34 1564.03 1748.67 1654.73 1759.24 1710.93C1765.21 1742.69 1791.33 1794.85 1783.92 1826.3V1826.3M1361.59 1335.96C1415.67 1307.96 1558.62 1256.19 1697.77 1273.16M1333.88 1191.88C1392.99 1167.25 1534.48 1122.06 1627.58 1138.31M1296.93 1099.52C1354.21 1068 1486.68 1010.23 1558.34 1031.31M1155.27 1153.72L1291.39 1365.52M1155.27 1153.72C1128.75 1180.8 1101.46 1211.23 1075.09 1243.45M1075.09 1243.45C1115.79 1311.23 1211.96 1451.97 1271.07 1472.65M1075.09 1243.45C1031.68 1296.48 990.734 1354.38 959.712 1410.3M959.712 1410.3C939.751 1446.28 923.9 1481.44 914.148 1513.94C913.193 1517.12 911.354 1519.97 908.801 1522.1V1522.1C899.965 1529.46 901.148 1543.46 910.806 1549.71C916.302 1553.26 922.212 1557.23 928.257 1561.48M959.712 1410.3C1046.87 1424.31 1226 1481.15 1245.21 1596.42M966.288 1526.22C987.838 1448.64 1064.19 1267.62 1197.19 1164.17M1252.6 1230.67C1194.72 1304.56 1077.86 1472.65 1073.42 1553.93M1151.01 1587.18C1170.09 1528.07 1228.22 1389.9 1308.02 1310.1M1206.42 1651.83C1222.16 1619.24 1261.56 1544.07 1293.24 1504.06M1766.12 1299.02L1773.51 1398.77M1760.58 1880.88C1766.93 1871.2 1771.95 1861.34 1775.88 1851.63M1911.69 3394.62L1936.92 3295.99M1936.92 3295.99L1901.02 3915.32C1900.67 3921.37 1901.27 3927.44 1902.8 3933.31L1905.12 3942.2C1909.3 3958.21 1906.44 3975.24 1897.26 3989.01L1889.3 4000.95L1836.71 4080.29M1936.92 3295.99L1944.01 3268.27M1836.71 4080.29L1836.07 4091.3C1835.06 4108.4 1842.31 4124.94 1855.57 4135.78V4135.78C1857.98 4137.76 1860.22 4139.95 1862.26 4142.32L1910.83 4198.85C1921.08 4210.78 1923.09 4227.73 1915.91 4241.73V4241.73C1909.38 4254.46 1896.35 4262.56 1882.04 4262.76L1693.87 4265.52C1681.5 4265.7 1669.39 4261.92 1659.31 4254.72L1619.66 4226.39C1605.74 4216.45 1600.14 4198.47 1605.94 4182.38V4182.38C1609.04 4173.82 1608.97 4164.43 1605.74 4155.91L1602.87 4148.31M1836.71 4080.29L1739.88 4112.25C1729.68 4115.61 1718.76 4116.08 1708.31 4113.6L1674.42 4105.56C1663.71 4103.02 1652.48 4103.9 1642.3 4108.08L1615.57 4119.06C1604.11 4123.77 1598.48 4136.73 1602.87 4148.31V4148.31M1602.87 4148.31L1586.92 4137.38C1577.52 4130.95 1570.23 4121.88 1565.95 4111.33L1542.4 4053.24C1540 4047.33 1538.6 4041.07 1538.24 4034.71L1534.29 3964.49L1530.91 3925.14M1530.91 3925.14L1518.04 3952.51C1514.66 3959.67 1512.8 3967.45 1512.54 3975.37L1510.68 4034.2M1530.91 3925.14L1602.33 2698.95M1510.68 4034.2L1499.62 4046.21C1490.08 4056.58 1484.64 4070.08 1484.32 4084.16L1483.86 4104.5C1483.75 4109.33 1483.04 4114.13 1481.74 4118.78L1475.76 4140.21C1472.16 4153.08 1473.13 4166.8 1478.49 4179.05L1484.31 4192.36C1490.25 4205.93 1489.02 4221.57 1481.05 4234.06V4234.06C1472.89 4246.83 1458.79 4254.55 1443.63 4254.55H1301.7C1269.88 4254.55 1243.99 4228.9 1243.71 4197.08L1243.1 4129.76L1247.71 4065.19C1248.31 4056.78 1254.3 4049.73 1262.5 4047.77V4047.77M1510.68 4034.2L1468.92 4036.14C1464.54 4036.34 1460.16 4036.05 1455.85 4035.27L1387.76 4022.89C1379.85 4021.45 1371.73 4021.67 1363.91 4023.54L1262.5 4047.77M1262.5 4047.77L1239.26 4031.51C1227.28 4023.12 1218.9 4010.51 1215.82 3996.21L1192.51 3888.04C1164.15 3700.41 1119.36 3346.56 1126.42 3183.86M1139.4 3023.34C1138.49 3038.43 1137.34 3064.57 1137.56 3084.29C1137.74 3099.52 1135.12 3115.52 1132.05 3130.44C1129.18 3144.4 1127.35 3162.48 1126.42 3183.86M1126.42 3183.86L1102.32 3027.56C1101.67 3023.35 1101.48 3019.08 1101.77 3014.83L1120.37 2737.86L1147.78 2366.72L1204.1 1990.61M1204.1 1990.61C1207.45 1976.53 1229.44 1940.33 1290.58 1908.15M1204.1 1990.61C1122.62 1895.47 954.948 1698.67 936.09 1672.56C917.232 1646.45 923.011 1587.63 928.257 1561.48M1290.58 1908.15C1326.8 1923.33 1383.53 1943.08 1444.28 1956.93M1290.58 1908.15C1283.94 1896.73 1275.89 1883.03 1267.13 1868.31M1664.68 1958.43C1646.98 1966.14 1626.41 1970.62 1604.06 1972.6M1604.06 1972.6C1592.81 1973.59 1581.11 1973.94 1569.1 1973.75M1604.06 1972.6C1617.97 1999.53 1655.23 2047.44 1705.19 2054.37M1788.05 2261.53C1869.06 2234.52 1862.3 2133.26 1885.93 2113.01V2113.01C1903.55 2097.91 1900.87 2073.47 1880.91 2061.63C1864.99 2052.19 1846.63 2043.03 1830.24 2038.76C1800.22 2030.92 1805.53 2036.22 1772.79 2045.26M2084.53 1924.97C2080.8 1927.5 2077.27 1930.12 2073.98 1932.81C2060.35 1943.97 2065.03 1963.59 2079.9 1973.04V1973.04C2089.06 1978.88 2094.82 1988.8 2095.34 1999.66L2101.63 2131.67M2084.53 1924.97L1817.84 1946.62C1797.3 1948.28 1778.69 1960.61 1772.79 1980.36C1772.04 1982.87 1771.33 1985.42 1770.67 1987.99M1772.79 2045.26C1763.2 2047.91 1750.33 2050.88 1732.35 2053.94C1722.95 2055.54 1713.88 2055.58 1705.19 2054.37M1772.79 2045.26C1763.33 2031.78 1765.27 2009.05 1770.67 1987.99M2101.63 2131.67L2103.36 2168.08C2103.68 2174.8 2105.25 2181.39 2107.37 2187.77C2111.94 2201.48 2116.91 2221.92 2116.76 2241.28M2101.63 2131.67C2091.45 2137.05 2074.58 2145.87 2056.05 2155.53C2031.49 2168.33 2036.54 2106.1 2010.82 2116.39V2116.39C2002.38 2119.76 1936.56 2131.58 1934.87 2170.39C1933.52 2201.45 1847.68 2259.84 1804.92 2285.15M2116.76 2241.28C2116.71 2247.18 2116.19 2252.98 2115.04 2258.46C2108.23 2290.78 2061.11 2329.3 2058.5 2351.4C2058.03 2355.38 2059.37 2359.33 2059.89 2363.3C2060.4 2367.19 2060.92 2371.35 2061.41 2375.72M2116.76 2241.28C2065.13 2250.28 1963.23 2281.78 1968.63 2335.78C1968.78 2337.29 1968.94 2338.72 1969.12 2340.09C1973.68 2375.72 2033.89 2352.63 2061.41 2375.72V2375.72M2061.41 2375.72C2065.5 2411.75 2068.49 2462.21 2062.74 2495.7C2059.14 2516.7 2052.69 2540.09 2057.42 2560.87V2560.87C2058.51 2565.7 2058.99 2570.66 2058.83 2575.6L2046.71 2951.39C2046.27 2964.92 2039.23 2977.38 2027.87 2984.73V2984.73C2019.14 2990.38 2012.87 2999.1 2010.29 3009.17L1944.01 3268.27M1644.6 2114.7C1643.53 2127.99 1642.03 2143.93 1640.1 2161.46M1592.28 2637.87V2623.92C1592.28 2611.08 1588.02 2598.61 1580.17 2588.45L1577.93 2585.56M1592.28 2637.87V2637.87C1572.43 2630.97 1564.17 2607.39 1575.38 2589.61L1577.93 2585.56M1592.28 2637.87C1592.39 2645.6 1592.22 2654.24 1591.69 2663.57M1577.93 2585.56L1571.54 2577.28C1566.3 2570.51 1562.54 2562.7 1561.23 2554.24C1555.39 2516.58 1553.87 2449.82 1583.84 2406.66C1611.77 2366.44 1630.85 2245.61 1640.1 2161.46M1447.14 2933.21C1554.03 2887.06 1586.98 2747.28 1591.69 2663.57M1209.18 2464.05L1378.43 2685.01C1386.83 2695.98 1391.04 2709.58 1390.3 2723.38L1386.39 2796.51M1350.94 2558.55L1381.73 2623.07C1384.72 2629.31 1390.03 2634.14 1396.53 2636.5V2636.5C1416.18 2643.65 1435.87 2625.9 1431.21 2605.52V2605.52C1429.54 2598.22 1424.86 2591.9 1418.35 2588.22L1389.76 2572.06M1269.94 2354.35V2354.35C1248.87 2345.45 1229.56 2370.07 1243.21 2388.42L1245 2390.82C1246.97 2393.48 1249.5 2395.68 1252.4 2397.28L1382.03 2468.96C1388.25 2472.41 1395.06 2474.67 1402.11 2475.65L1452.2 2482.61M1452.2 2482.61L1403.26 2420.17M1452.2 2482.61L1504.23 2526.88C1515.39 2536.37 1511.1 2554.51 1496.88 2558V2558C1485.06 2560.9 1479.54 2574.42 1486.62 2584.3C1512.84 2620.91 1556.33 2668.33 1591.69 2663.57M1271.62 2222.71C1269.37 2236.21 1269.6 2267.94 1288.5 2286.84C1307.4 2305.74 1447.14 2430.85 1514.65 2491.05M1268.25 2114.7C1287.38 2136.64 1341.16 2174.11 1403.26 2148.45M1521.4 2106.26L1591.39 2125.1C1601.4 2127.8 1611.79 2122.3 1615.2 2112.51V2112.51C1619.14 2101.18 1612.17 2088.97 1600.4 2086.62L1496.08 2065.76M1640.1 2161.46L1651.33 2179.55C1660.89 2194.96 1684.02 2192.52 1690.16 2175.46V2175.46M1737.42 2079.26L1713.79 2133.26M1820.11 2141.7L1754.29 2209.21M1658.1 2325.66C1653.16 2350.9 1636.79 2402.77 1610.84 2408.35M2038.37 2493.74C2027.17 2518.54 1989.89 2567.91 1930.37 2566.95C1876.48 2566.08 1771.31 2549.4 1712.1 2538.83C1709.76 2538.42 1708.82 2541.57 1711.01 2542.47C1737.09 2553.18 1778.79 2568.91 1822.66 2581.85C1839.22 2586.74 1845 2607.79 1832.75 2619.96V2619.96C1819.38 2633.23 1827.71 2656.08 1846.49 2657.63L1851.2 2658.02C1855.79 2658.39 1860.39 2657.46 1864.47 2655.32L1995.43 2586.55C2009.2 2579.32 2026.5 2576.43 2038.36 2586.5C2047.26 2594.06 2051.12 2604.4 2037.19 2616.31C2027.45 2624.62 2014.94 2634.55 2002.41 2644.2C1980.44 2661.13 1980.8 2694.77 2003.6 2710.57V2710.57C2021.09 2722.69 2026.12 2746.33 2015.07 2764.51L1954.64 2863.99C1939.79 2888.43 1957.86 2943.2 1979.57 2924.59V2924.59C1981.19 2923.2 1986.48 2917.43 1992.63 2910.56C2000.99 2901.21 2016.5 2905.17 2019.19 2917.42V2917.42C2020.11 2921.6 2019.25 2925.95 2016.79 2929.45C1971.27 2993.87 1882.12 3112.06 1860.68 3109.68C1840.58 3107.45 1855.9 3119.28 1868.67 3127.12C1871.04 3128.57 1873.79 3129.29 1876.57 3129.29V3129.29C1890.91 3129.29 1897.87 3146.82 1887.45 3156.66L1877.69 3165.87C1874.59 3168.79 1872.45 3172.58 1871.53 3176.74L1833.15 3352.03C1832.3 3355.95 1837.57 3358.08 1839.67 3354.66L1901.39 3254.46C1914.06 3233.89 1945.82 3244.18 1944.01 3268.27V3268.27M1900.88 1283.34C1914.46 1277.54 1926.78 1271.09 1933.28 1264.86C1951.99 1246.92 1974.6 1199.36 2008.13 1200.92C2015.18 1201.25 2022.78 1200.27 2030.41 1198.22M1900.88 1283.34C1886.17 1376 1849.17 1574.61 1818.91 1627.77M2030.41 1198.22C2007.96 1346.18 1959.78 1648.22 1946.7 1672.76M1837.31 1347.66C1864.23 1375.26 1945.06 1430.06 2053.02 1428.42M1804.59 1487.71C1828.11 1515.66 1903.35 1567.05 2016.22 1549.05M2077.86 1477.76L2147.42 1625.35M1438.62 1840.77C1425.73 1865.92 1408.82 1924.36 1444.28 1956.93M1444.28 1956.93C1485.77 1966.4 1529.12 1973.11 1569.1 1973.75M1542.74 1896.3C1539.95 1909.99 1541.32 1944.64 1569.1 1973.75M1705.19 2054.37C1695 2024.36 1681.84 1964.05 1710.72 1962.94C1739.59 1961.83 1762.72 1979.18 1770.67 1987.99M2253.08 1280.34C2262.85 1319.38 2280.03 1417.39 2270.66 1497.04C2258.94 1596.61 2223.81 1597.69 2227.71 1682.51M2225.75 1290.1C2200.37 1340.86 2152.74 1465.41 2165.23 1557.56M1321.49 1587.38L1314.74 1737.54C1314.46 1743.82 1307.98 1747.88 1302.2 1745.41L1270.37 1731.77M1321.49 1587.38L1251.12 1723.52M1251.12 1723.52V1723.52C1248.07 1729.43 1240.37 1731.05 1235.19 1726.88L1196.76 1695.92C1185.17 1686.59 1177.98 1672.66 1170.14 1660.02C1166.43 1654.05 1161.35 1647.67 1154.55 1641.65M1251.12 1723.52L1270.37 1731.77M1154.55 1641.65C1154.57 1664.65 1157.85 1712.63 1170.91 1720.61C1181.44 1727.05 1230.49 1806.7 1267.13 1868.31M1085.68 1818.52C1123.46 1854.18 1199.56 1929.31 1201.73 1944.55M1270.37 1731.77L1267.13 1868.31M1357.95 1788.97C1435.85 1763.96 1621.13 1721.88 1739.09 1753.61M1783.92 1826.3L1849.85 1863.12C1855.98 1866.54 1858.48 1874.07 1855.61 1880.48V1880.48C1852.32 1887.8 1843.43 1890.68 1836.48 1886.66L1775.88 1851.63M1783.92 1826.3C1781.99 1834.49 1779.36 1843.01 1775.88 1851.63M1947.75 965.798C1955.07 971.426 1970.38 990.45 1973.08 1021.52C1975.78 1052.59 1979.83 1099.75 1981.52 1119.45M1927.29 516.7L1934.92 573.987C1936.89 588.721 1944.44 602.139 1956.01 611.47L1971.15 623.682M1508.03 1893.53C1528.1 1886.84 1687.44 1913.68 1707.66 1916.87C1708.8 1917.05 1709.91 1917.01 1711.05 1916.78V1916.78C1720.96 1914.8 1722.3 1901.2 1712.95 1897.36C1672.41 1880.7 1619.64 1859.29 1602.44 1853.27C1586.28 1847.62 1551.54 1854.83 1523.82 1862.75C1506.68 1867.64 1484.98 1895.02 1502.79 1894.56C1504.29 1894.52 1506.02 1894.2 1508.03 1893.53ZM2127.06 1728.17C2126.23 1728.34 2125.05 1727.1 2123.64 1724.82C2112.45 1706.78 2084.62 1706.49 2078.52 1726.83C2077.6 1729.89 2076.73 1732.79 2075.92 1735.47C2073.29 1744.13 2079.02 1753.48 2087.96 1754.85V1754.85C2095.66 1756.04 2100.98 1763.17 2099.91 1770.89C2093.5 1817.04 2083.16 1891.34 2081.43 1903.47C2079.92 1914.08 2121.64 1892.5 2156.03 1872.7C2171.92 1863.56 2182.06 1847.08 2183.72 1828.82L2188.77 1773.33C2191.79 1740.14 2159.73 1721.64 2127.06 1728.17V1728.17ZM2187.41 1126.91L2154.94 1310.07C2152.04 1326.38 2128.73 1326.61 2125.42 1310.38V1310.38C2122.93 1298.12 2107.39 1294.12 2099.32 1303.67V1303.67C2088.86 1316.03 2068.95 1305.31 2073.52 1289.77L2110.71 1163.33C2112.4 1157.56 2115.29 1152.22 2119.19 1147.65L2151.34 1109.91C2156.14 1104.27 2163.6 1101.63 2170.88 1103V1103C2182.01 1105.08 2189.39 1115.75 2187.41 1126.91ZM1933.94 1800.87L2024.78 1825.33C2034.47 1827.94 2044.77 1824.32 2050.71 1816.23V1816.23C2061.55 1801.44 2052.75 1780.43 2034.61 1777.78L2010 1774.19C2004.05 1773.33 1998.38 1771.11 1993.43 1767.7L1959.88 1744.66C1932.5 1725.85 1898.47 1756.89 1914.69 1785.88V1785.88C1918.83 1793.27 1925.76 1798.67 1933.94 1800.87ZM1687.82 2413.26C1690.27 2412.08 1692.67 2410.86 1695.01 2409.61C1698.48 2407.76 1702.4 2406.85 1706.32 2407.2L1707.39 2407.3C1729 2409.22 1735.49 2437.69 1716.85 2448.79L1702.77 2457.18C1699.01 2459.42 1694.53 2460.17 1690.24 2459.26V2459.26C1671.39 2455.3 1670.47 2421.62 1687.82 2413.26ZM1860.66 2306.68L1766.39 2311.78C1761.78 2312.03 1757.31 2313.44 1753.39 2315.9V2315.9C1730.26 2330.42 1740.54 2366.16 1767.86 2366.16H1807.94C1811.54 2366.16 1815.12 2365.66 1818.58 2364.67L1868.01 2350.55C1877.62 2347.8 1884.24 2339.02 1884.24 2329.03V2329.03C1884.24 2316.19 1873.47 2305.99 1860.66 2306.68ZM1767.34 1488.04V1488.04C1770.96 1488.77 1773.62 1491.88 1773.77 1495.57L1774.98 1524.58C1775.17 1529.23 1771.03 1532.88 1766.44 1532.1V1532.1C1763.16 1531.55 1760.66 1528.85 1760.37 1525.53L1757.78 1496.61C1757.31 1491.29 1762.09 1487 1767.34 1488.04ZM1787.66 1718.94L1786.75 1719.78C1783.11 1723.15 1783.11 1728.9 1786.73 1732.29V1732.29C1790.27 1735.59 1795.85 1735.3 1799.02 1731.63L1799.83 1730.7C1803.27 1726.72 1802.3 1720.61 1797.81 1717.89V1717.89C1794.57 1715.94 1790.43 1716.36 1787.66 1718.94ZM1652.99 768.526L1655.63 772.32C1658.23 776.059 1659.42 780.602 1658.97 785.135V785.135C1657.53 799.957 1640.48 807.548 1628.5 798.704L1624.78 795.96C1618.28 791.162 1615.31 782.916 1617.27 775.078V775.078C1621.43 758.463 1643.21 754.467 1652.99 768.526ZM1641.09 527.736L1640.14 508.641C1639.95 504.968 1637.27 501.9 1633.66 501.222V501.222C1628.67 500.286 1624.09 504.199 1624.24 509.272L1624.81 528.382C1624.89 531.314 1626.55 533.973 1629.14 535.345V535.345C1634.73 538.303 1641.41 534.049 1641.09 527.736Z" stroke="#7481A1" stroke-width="10" stroke-linejoin="round"/>
<path d="M2388.11 1473.25C2418.94 1388.35 2489.18 1209.7 2523.5 1174.32C2556.32 1140.47 2632.62 1105.56 2671.27 1090.46C2674.64 1089.15 2677.86 1087.59 2680.92 1085.66C2722.39 1059.56 2797.58 1002.49 2799.65 961.174M2799.65 961.174L2804.45 965.54C2819.73 979.435 2825.1 1000.67 2827.59 1021.17C2829 1032.79 2832.86 1044.21 2841.02 1051.69C2846.54 1056.76 2853.36 1060.36 2858.76 1065.56L2924.31 1128.74M2799.65 961.174C2693.12 895.345 2730.72 777.736 2731.66 770.884M3005.89 1080.28C3009.25 1080.28 3027.85 1111.39 3043.8 1139.39C3053.32 1156.1 3071.67 1165.92 3090.78 1163.75V1163.75M3256.59 1051.68L3261.32 1069.23C3262.33 1072.98 3259.66 1076.71 3255.8 1076.98V1076.98C3244.9 1077.73 3236.96 1087.62 3236.76 1098.54C3236.52 1111.87 3234.22 1126.95 3227.04 1135.56C3220.41 1143.52 3182.3 1151.22 3141.46 1157.21M3256.59 1051.68L3250.74 1045.34C3247.38 1041.7 3246.62 1036.35 3248.84 1031.92V1031.92C3250.69 1028.21 3254.35 1025.73 3258.48 1025.37L3284.15 1023.17C3284.72 1023.12 3285.13 1022.61 3285.05 1022.04C3282.16 999.609 3280.5 986.713 3277.56 963.982M3256.59 1051.68C3245.28 1052.33 3219.54 1050.38 3207.07 1037.37M3277.56 963.982C3264.53 967.477 3237.53 971.989 3233.71 962.076M3277.56 963.982C3288.25 957.333 3310.24 940.991 3312.67 928.819C3315.1 916.648 3292.38 896.868 3280.72 888.5M3225.37 966.873L3187.84 1014.92C3179.26 1025.9 3175.34 1039.67 3173.81 1053.52C3171.86 1071.15 3166.2 1090.78 3152.84 1096.34C3128.44 1106.51 3086.42 1117.35 3026.09 1075.33M2970.57 1002.55C2956.97 1001.04 2929.04 990.044 2926.14 958.13V958.13C2923.8 932.395 2899.02 899.316 2898.11 873.492L2897.9 867.355C2897.41 853.616 2902.72 838.921 2916.09 835.692C2929.76 832.387 2947.32 835.556 2963.32 857.496M2925.24 881.975C2934.61 877.139 2954.25 875.628 2957.88 908.267M2950.62 923.68C2960.29 928.213 2979.09 942.719 2976.91 964.478M3003.21 821.23L3039.78 823.96M3185.44 834.83L3176.5 867.41C3174.75 873.767 3180.21 879.782 3186.7 878.661L3199.04 876.535M3185.44 834.83L3207.2 835.736M3185.44 834.83L3039.78 823.96M3199.04 876.535L3207.2 835.736M3199.04 876.535C3197.17 885.874 3195.82 906.231 3195.54 917.78C3195.43 922.522 3198.05 926.617 3202.75 927.272C3212.04 928.567 3226.21 927.979 3227.14 925.493C3229.22 919.987 3234.1 893.761 3239.84 882.881M3207.2 835.736L3257.9 834.488M3257.9 834.488L3239.84 882.881M3257.9 834.488L3304.3 816.23M3257.9 834.488L3280.72 888.5M3257.9 834.488L3270.07 806.34M3239.84 882.881C3257.65 850.391 3274.51 873.089 3280.72 888.5M3304.3 816.23C3306.58 824.851 3310.08 846.203 3305.82 862.635C3301.56 879.067 3287.31 886.725 3280.72 888.5M3304.3 816.23C3299.56 818.096 3279.5 810.414 3270.07 806.34M3277.68 909.04C3270.58 915.126 3257.14 930.797 3260.18 944.795M3270.07 806.34C3271.84 779.714 3265.2 724.637 3224.42 717.333C3189.98 711.165 3208.48 702.753 3228.2 697.69C3235.21 695.89 3242.16 693.44 3247.6 688.664C3255.82 681.444 3264.03 671.074 3260.94 661.799C3256.56 648.653 3255.78 607.179 3228.09 594.168C3215.01 588.019 3201.52 599.648 3187.22 601.812C3185.86 602.018 3184.55 602.004 3183.34 601.702C3174.21 599.419 3125.53 538.56 3021.31 548.45C2917.08 558.339 2879.81 582.682 2852.42 604.744M2852.42 604.744C2855.05 595.144 2862.47 581.781 2867.98 569.644C2873.74 556.982 2869.95 542.06 2856.98 537.043C2845.06 532.435 2828.24 531.206 2807.54 540.842C2772.24 557.274 2736.03 608.547 2722.33 632.13C2710.85 657.899 2693.45 715.263 2708.13 752.644C2710.51 758.697 2714.88 763.819 2720.65 766.824C2723.92 768.528 2727.7 770.048 2731.66 770.884M2852.42 604.744L2771.01 688.495C2756.04 703.897 2752.31 726.228 2753.6 747.669C2754.24 758.211 2752.71 767.237 2746.68 769.825C2741.83 771.904 2736.6 771.93 2731.66 770.884M2731.46 737.873C2731.97 700.344 2751.55 614.329 2825.79 570.51M2789.56 867.6C2799.19 881.508 2815.02 961.302 2895.47 988.49M2806.68 833.366C2818.4 869.397 2850.42 944.017 2884.77 954.256M2825.93 771.317C2825.93 809.117 2837.7 891.35 2884.77 917.882M2895.47 762.758C2917.58 786.294 2964.16 837.432 2973.57 853.693M2932.92 748.85L2982.13 806.621M2931.85 716.756C2957.17 729.237 3007.8 761.688 3007.8 791.643M2960.73 715.686C2987.12 722.105 3042.89 741.148 3054.88 765.968M2961.8 690.01C2997.11 700.352 3069.85 728.31 3078.41 757.409M2950.03 660.055C2989.97 671.11 3074.56 701.137 3093.39 732.803M2951.1 607.634C2977.85 610.844 3067.71 662.195 3095.53 702.848M3063.43 629.031C3083.76 636.876 3125.91 660.911 3131.9 694.29M3093.39 592.657C3122.27 609.417 3183.25 652.781 3196.09 692.15M3191.81 617.263C3203.94 620.116 3228.4 630.101 3229.26 647.218M3188.6 633.31C3192.88 638.302 3201.66 652.781 3202.51 670.754M2992.92 852.248V896.767C2992.92 899.584 2996.59 900.673 2998.13 898.314V898.314C2999.6 896.047 3003.12 896.948 3003.32 899.647L3004.26 912.039C3004.78 918.903 3013.82 921.021 3017.34 915.102L3017.82 914.285C3018.15 913.734 3018.4 913.142 3018.58 912.525L3024.18 892.618L3031.99 872.433L3035.19 861C3036.09 857.776 3036.72 854.48 3037.05 851.149L3039.78 823.96M3242.56 1101.38C3268.25 1112.86 3326.87 1154.15 3355.89 1227.4M3346.82 1184.79C3390.64 1216.82 3476.83 1346.71 3471.03 1610M3141.46 1157.21C3122.58 1167.69 3094.05 1197.34 3110.21 1240.05M3141.46 1157.21C3124.34 1159.73 3106.74 1161.94 3090.78 1163.75M3411.36 1737.12C3427.41 1554.33 3414.99 1438.53 3400.45 1378.5C3394.25 1352.94 3368.26 1340.78 3342.72 1347.05L3314.02 1354.1C3305.54 1356.19 3296.69 1356.33 3288.15 1354.51L3238.28 1343.94C3216.58 1339.33 3194.16 1347.51 3180.52 1365L3152.43 1401.01C3151.68 1401.98 3150.06 1400.95 3150.63 1399.86C3174.62 1353.73 3204.82 1280.27 3168.55 1285.77C3146.86 1289.05 3134.44 1284.33 3127.75 1277.6C3119.05 1268.84 3116.64 1255.15 3111.73 1243.81C3111.19 1242.55 3110.68 1241.29 3110.21 1240.05M3487.8 1635.98L3504.43 1787.77C3505.72 1799.58 3510.8 1810.66 3516.4 1821.14C3524.44 1836.17 3533.66 1860.07 3539.2 1892.71C3543.35 1917.16 3528.19 1940.13 3505.16 1949.34L3485.4 1957.24C3464.19 1965.72 3449.94 1985.86 3448.99 2008.68L3445.76 2086.25M3257.34 2599.68L3258.83 2616.53C3261.8 2650.15 3292.73 2674.15 3326.03 2668.66L3429.29 2651.66M3236.39 2606.67L3229.41 2422.77M3229.43 2402.51C3229.43 2395.12 3228.03 2337.81 3226.98 2296.17C3226.64 2282.61 3234.88 2270.32 3247.56 2265.49V2265.49M3244.54 2218.14C3246.15 2214.11 3247.9 2108.33 3248.57 2055.94M3236.48 2042.84L3255.25 2026.44M3340.25 1952.17L3255.25 2026.44M3255.25 2026.44C3260.53 2021.83 3375.51 1883.66 3378.53 1795.01M3238.49 1981.39L3256.63 1918.93M3244.54 1899.78L3269.72 1860.49M3232.45 1883.66C3262.67 1849.41 3319.09 1767.81 3302.97 1715.42M2365.13 1962.66C2362.05 1962.66 2298.63 1930.75 2258.01 1910.08C2253.83 1907.95 2254.62 1901.77 2259.2 1900.77C2311.01 1889.41 2387.78 1872.76 2435.98 1862.76M2365.13 1962.66C2353.94 1913.02 2407.7 1875.38 2435.98 1862.76M2365.13 1962.66C2363.51 1978.66 2401.78 1998.23 2449.87 2015.69M2652.15 1891.72C2699.84 1915.9 2801.86 1964.26 2828.46 1964.26C2861.7 1964.26 2902 1960.23 2916.1 1968.29C2930.21 1976.35 2961.44 2013.63 2974.54 2016.65C2987.63 2019.67 3043.04 2043.85 3049.09 2053.93C3052.55 2059.69 3035.94 2062.71 3019.69 2064.08C3008.02 2065.07 2996.53 2061.53 2986.64 2055.26C2957.57 2036.82 2917.47 2013.25 2914.09 2018.66C2911.59 2022.66 2912.84 2027.9 2914.95 2032.27C2917.19 2036.92 2921.27 2040.31 2925.51 2043.27L2957.81 2065.8C2960.89 2067.95 2964.2 2069.77 2967.66 2071.21L3003.91 2086.31C3007.84 2087.95 3009.92 2092.28 3008.75 2096.37V2096.37M2998.72 2131.5L3008.75 2096.37M3008.75 2096.37L3051.52 2094.62C3055.58 2094.45 3058.11 2098.91 3055.82 2102.26C3042.62 2121.54 3020.99 2149.86 3009.8 2152.66C2997.92 2155.63 2964.18 2153.67 2934.74 2142.37C2915.66 2135.04 2893.84 2132.65 2873.56 2130.18C2868.11 2129.52 2862.66 2128.07 2857.67 2125.46C2837.79 2115.04 2812.57 2081.5 2779.51 2079.16C2775.22 2078.86 2770.93 2078.75 2766.68 2078.05C2728.47 2071.76 2656.14 2060.98 2627.97 2060.98C2606.1 2060.98 2518.1 2040.46 2449.87 2015.69M2435.98 1862.76C2460.76 1857.61 2477.99 1854.23 2480.39 1854.23C2469.03 1854.52 2479.4 1824.62 2467.57 1823.07C2463.02 1822.48 2460.57 1819.12 2459.36 1815.08C2457.15 1807.75 2453.73 1800.1 2446.67 1797.16V1797.16C2434.52 1792.1 2432.77 1775.61 2443.59 1768.11L2554.04 1691.55C2561.64 1686.28 2570.61 1683.32 2579.85 1683.03V1683.03C2602.72 1682.32 2621.3 1664.68 2634.04 1645.67C2653.33 1616.88 2683.6 1600.89 2686.05 1608.24C2689.4 1618.27 2679.37 1690.16 2660.98 1715.24C2650.35 1729.73 2658.27 1759.04 2668.11 1782.39C2673.54 1795.29 2668.87 1810.76 2656.35 1817.02V1817.02C2649.76 1820.32 2645 1826.41 2643.4 1833.6L2637.97 1858.05C2635.74 1868.09 2623.01 1871.27 2616.31 1863.46V1863.46C2613.89 1860.64 2610.35 1859.05 2606.63 1859.11L2510.52 1860.68M2395.25 1937.06C2424.13 1960.23 2492.37 2006.78 2534.28 2007.58C2574.34 2008.35 2679.57 2018.39 2733.65 2023.97C2738.43 2024.46 2743.09 2025.55 2747.59 2027.21L2803.34 2047.7C2807.31 2049.16 2811.43 2050.18 2815.62 2050.74L2845.45 2054.76C2856.08 2056.19 2866.1 2060.54 2874.4 2067.32L2922.15 2106.31M2844.2 1845.45C2848.07 1844.68 2882.66 1821.79 2908.86 1804.12C2919.37 1797.03 2927.21 1786.63 2931.22 1774.6L2966.64 1668.32M3059.37 1820.49C3074.43 1809 3100.5 1775.08 3084.34 1731.33M2555.04 1811.75L2491.75 1818.96M2467.06 1790.66L2543.75 1781.29C2551.52 1780.35 2559.4 1781.16 2566.82 1783.67L2577.88 1787.42C2584.01 1789.49 2589.05 1793.93 2591.88 1799.74V1799.74C2599.23 1814.84 2583.17 1829.19 2576.72 1844.69C2576.44 1845.35 2576.25 1846.03 2576.13 1846.74M2541.15 1750.01C2558.64 1745.04 2596.71 1742.71 2609.06 1773.16C2624.5 1811.24 2611.63 1822.56 2614.21 1822.56M2637.36 1657.91C2630.84 1678.32 2611.63 1722.64 2586.94 1736.63M3110.21 1240.05L3084.58 1244.09C3075.24 1245.56 3065.68 1244.73 3056.74 1241.66L3012.85 1226.62C3012.01 1226.33 3011.93 1225.17 3012.73 1224.78L3041.82 1210.23C3047.88 1207.2 3051.91 1201.23 3052.45 1194.48V1194.48C3052.97 1187.95 3056.76 1182.13 3062.53 1179.01L3090.78 1163.75M3026.36 2177.5L3065.22 2219.42C3070.23 2224.82 3079.27 2221.67 3079.83 2214.33V2214.33C3080.57 2204.78 3094.12 2203.64 3096.44 2212.93L3107.63 2257.69C3108.17 2259.84 3109.15 2261.85 3110.51 2263.6L3173.99 2345.22C3181.13 2354.39 3184.7 2365.84 3184.04 2377.45L3181.02 2431.2C3180.36 2442.76 3167.69 2449.51 3157.73 2443.59L3145.2 2436.14C3138.81 2432.34 3130.91 2437.77 3132.18 2445.09V2445.09C3133.5 2452.79 3124.82 2458.2 3118.5 2453.62L3100.85 2440.85C3097.79 2438.63 3094.1 2437.51 3090.32 2437.31C3055.82 2435.47 2993.95 2413.36 2982.58 2334.82C2967.54 2230.85 2808.84 2250 2807.47 2239.06C2806.38 2230.3 2693.92 2198.93 2637.83 2184.34C2608.78 2176.77 2550.4 2166.36 2522.19 2176.94M2511.97 2182.97C2514.62 2180.46 2518.08 2178.48 2522.19 2176.94M2522.19 2176.94L2503.01 2414.96M2520.18 2572.87C2508.14 2559.73 2501.48 2489.87 2499.66 2456.58L2503.01 2414.96M2503.01 2414.96L2480.37 2512.63M2449.87 2015.69L2450.64 2254.14C2450.65 2257.73 2450.34 2261.32 2449.64 2264.84C2444.12 2292.65 2430.62 2347.58 2412.99 2381.96C2389.45 2427.86 2361.2 2405.5 2352.96 2445.52C2346.72 2475.82 2412.38 2559.11 2451.36 2603.2C2454.04 2606.23 2458.96 2604.92 2459.88 2600.99L2480.37 2512.63M2480.37 2512.63L2490.88 2551.83C2492.51 2557.92 2493.14 2564.23 2492.74 2570.53L2475.78 2837.69C2475.55 2841.31 2475.65 2844.95 2476.14 2848.55C2479.94 2876.15 2488.59 2921.47 2500.63 2943.58M2510.14 2955.09C2506.78 2953.08 2503.6 2949.04 2500.63 2943.58M2500.63 2943.58L2504.73 3017.67C2505.33 3028.71 2509.17 3039.28 2515.13 3048.59C2532.75 3076.14 2555.68 3119.92 2552.68 3147.65C2548.82 3183.34 2574.89 3311.33 2613.7 3369.67C2624.01 3385.18 2632.99 3402.72 2633.46 3421.33C2634.67 3469.8 2640.54 3543.21 2657.91 3590.97C2676.3 3641.53 2678.52 3725.72 2676.91 3777.28C2676.61 3786.86 2687.22 3793.07 2695.31 3787.92V3787.92C2698.53 3785.87 2702.55 3785.52 2706.08 3786.98L2706.42 3787.12M2819.82 3813.22L2807.39 3817.5C2797.64 3820.86 2786.99 3820.53 2777.47 3816.58V3816.58M2819.82 3813.22V3813.22C2814 3789.96 2832.79 3767.87 2856.69 3769.89L2910.26 3774.4M2819.82 3813.22L2838.59 3921.92M3472.15 3773.19L3474.09 3846.8C3474.71 3870.41 3460.22 3893.53 3436.79 3890.49C3408.86 3886.87 3380.5 3870.76 3360.35 3855.7C3348.82 3847.08 3335.2 3841.25 3320.8 3840.99L3037.68 3835.84C3024.3 3835.6 3011.43 3830.74 3001.22 3822.09L2982.9 3806.55M3472.15 3773.19L3444.51 3727.86C3438.37 3717.8 3435.45 3706.11 3436.12 3694.34L3442.06 3590.73C3442.33 3586.03 3442.02 3581.31 3441.15 3576.68L3410.31 3413.01L3363.33 3064.31L3361.76 2948.69M3472.15 3773.19L3580.14 3803.27C3586.03 3804.91 3591.11 3808.64 3594.43 3813.77V3813.77C3600.91 3823.79 3613.58 3827.84 3624.67 3823.42L3750.88 3773.19C3795.36 3751.45 3881.94 3694.62 3872.45 3641.24C3860.59 3574.53 3713.82 3147.54 3664.89 3123.82C3625.75 3104.84 3546.78 2915.27 3512.18 2822.86L3429.29 2651.66M3429.29 2651.66V2651.66C3449.56 2648.32 3466.74 2634.47 3474.14 2615.3L3494.04 2563.81C3499.02 2550.91 3499.23 2536.65 3494.63 2523.6L3491.1 2513.61C3488.91 2507.41 3487.8 2500.88 3487.8 2494.31V2428.33C3487.8 2421.57 3486.61 2414.87 3484.3 2408.51L3459.86 2341.3L3440.67 2258.15C3439.5 2253.08 3439.02 2247.88 3439.24 2242.69L3445.76 2086.25M3358.38 2685.93L3331.18 2846.68M3331.18 2846.68L3357.39 2822.21C3363.88 2816.16 3373.53 2814.98 3381.28 2819.28V2819.28M3331.18 2846.68L3347.18 2865.35C3356.01 2875.66 3360.95 2888.74 3361.14 2902.31L3361.76 2948.69M3420.21 2809.58V2809.58C3416.43 2823.42 3400.68 2830.06 3388.14 2823.09L3381.28 2819.28M3420.21 2809.58V2809.58C3442.76 2807.08 3456.9 2783.97 3448.87 2762.75L3430.1 2713.14M3420.21 2809.58L3410.13 2698.28M3389.04 2689.73L3381.28 2819.28M2548.39 2595.42H2709.46C2717.13 2595.42 2724.72 2596.94 2731.8 2599.9L2881.96 2662.57C2885.03 2663.85 2888.17 2664.87 2891.42 2665.58C2956.6 2679.8 3087.29 2696.91 3125.46 2658.74M3080.85 2699.04V2699.04C3128.53 2699.04 3156.79 2750.75 3123.7 2785.08L3117.21 2791.8C3110.37 2798.9 3105.64 2807.67 3103.42 2817.28C3079.87 2919.45 3031.99 3100.74 3004.58 3110.61M3004.58 3110.61C2979.22 3119.74 2970.62 2951.56 2968.93 2835.96C2968.62 2814.69 2947.66 2799.77 2927.54 2806.69V2806.69C2904.92 2814.47 2883.19 2794.8 2892.7 2772.85C2904.79 2744.97 2922.89 2718.25 2947.01 2713.43M3004.58 3110.61C2986.25 3121.89 2951.2 3152.48 2957.64 3184.64C2961.92 3206.09 2977.57 3225.55 2992.03 3239.05C3001.85 3248.22 3004.88 3263.47 2997.2 3274.5L2991.55 3282.62C2977.74 3302.48 2946.67 3288.57 2952.28 3265.04V3265.04M3361.76 2948.69C3344.08 3003.22 3296.4 3116.03 3247.08 3131.04C3185.44 3149.8 3174.72 3340.09 3174.72 3356.17C3174.72 3369.03 3190.8 3468.73 3198.84 3516.97C3206.88 3600.95 3212.78 3777.48 3172.04 3811.78M2965.68 3404.41L3019.28 3436.57M3019.28 3436.57L3013.92 3350.81M3019.28 3436.57L3016.6 3752.82M2524.54 2660.95C2544.88 2760.01 2596.19 2962.93 2638.64 2982.03C2681.1 3001.14 2691.72 3058.99 2691.72 3085.52M2585.57 2976.72C2603.26 3014.76 2639.18 3101.97 2641.3 3146.56C2643.95 3202.28 2747.44 3679.93 2787.25 3701.16M2722.37 3318.22C2730.15 3314.33 2782.06 3284.81 2807.04 3270.53M2807.04 3270.53L2824.85 3224.75C2826.6 3220.25 2828.9 3215.99 2831.71 3212.06L2869.62 3158.98C2879.89 3144.6 2896.17 3135.69 2913.82 3134.77L2932.52 3133.8M2807.04 3270.53L2834.31 3267.19C2847.52 3265.57 2859.78 3259.46 2869.01 3249.88L2926.73 3190.03C2931.19 3185.4 2934.17 3179.56 2935.28 3173.23L2940.62 3142.97C2941.5 3138.02 2937.54 3133.55 2932.52 3133.8V3133.8M2932.52 3133.8L2930.39 3107.63C2927.17 3068.11 2886.13 3043.4 2849.7 3059.04L2836.4 3064.75C2797.13 3081.62 2753.72 3051.64 2755.58 3008.94L2758.72 2936.72C2759.1 2927.89 2764.83 2920.19 2773.18 2917.28L2823.5 2899.75C2838.32 2894.58 2834.14 2872.58 2818.46 2873.21V2873.21C2806.76 2873.67 2799.94 2860.17 2807.25 2851.03L2846.95 2801.41M2814.36 2760.25L2725.88 2901.17M2877.72 2717.65C2840.94 2726.03 2760.4 2749.11 2732.44 2774.45M2622.11 2622.62C2658.89 2638.28 2752.54 2667.41 2832.93 2658.67M3198.85 2781.42C3194.8 2791.54 3156.04 3036.66 3172.54 3137.6M3411.99 1775.68V1775.68C3418.7 1762.26 3438.9 1768.9 3438.82 1783.9L3437.93 1945.21C3437.89 1954.22 3434.51 1962.91 3428.46 1969.6V1969.6C3419.78 1979.19 3416.8 1992.66 3420.63 2005.02L3445.76 2086.25M3398.44 1797.85L3397.29 1964.57C3397.25 1971.15 3391.9 1976.45 3385.32 1976.45V1976.45C3377.98 1976.45 3372.37 1983.01 3373.5 1990.27L3406.27 2200.46C3406.8 2203.85 3407.03 2207.28 3406.95 2210.71L3405.83 2259.75M3405.83 2259.75L3310.99 2270.84M3405.83 2259.75V2259.75C3415.86 2259.75 3423.24 2269.15 3420.86 2278.9L3411.99 2315.18M3411.99 2315.18L3307.29 2320.11M3411.99 2315.18L3431.71 2315.32M3440.43 2349.97C3438.47 2361.78 3433.83 2380.82 3426.23 2400.58M3390.01 2459.66C3405.94 2444.85 3417.87 2422.28 3426.23 2400.58M3426.23 2400.58L3348.5 2472.27C3342.73 2477.59 3333.4 2473.5 3333.4 2465.66V2392.43M2982.9 3806.55L2962.95 3789.64C2953.75 3781.84 2942.34 3777.1 2930.31 3776.09L2910.26 3774.4M2982.9 3806.55L2995.08 3899.97M2869.33 4100.8L2848.96 3981.93L2838.59 3921.92M2869.33 4100.8C2821.55 4093.51 2800.45 4128.77 2794.41 4152.04C2793.5 4155.52 2790.32 4158.07 2786.73 4157.74C2702.27 4149.88 2687.6 4095.08 2682.89 4078.6C2681.06 4072.2 2682.23 4061.66 2685.18 4050.11M2869.33 4100.8C2869.33 4104.34 2869 4109.17 2868.14 4114.51M2910.26 3774.4C2909.07 3792.63 2910.77 3830.8 2927.07 3837.59C2943.37 3844.39 2979.2 3882.01 2995.08 3899.97M2995.08 3899.97L2999.33 3932.51C3000.92 3944.76 3006.49 3956.09 3014.39 3965.59C3027.23 3981.03 3042.69 4002.47 3047.63 4019.29C3050.56 4029.23 3050.23 4040.79 3048.41 4051.77C3044.7 4074.14 3046.75 4098.38 3061.27 4115.8L3066.45 4122.03C3075.14 4132.45 3079.9 4145.59 3079.9 4159.16V4237.98C3079.9 4242.66 3078.56 4247.23 3076.05 4251.18L3072.29 4257.09C3069.66 4261.22 3069.56 4266.48 3072.03 4270.71V4270.71C3076.13 4277.74 3072.89 4286.78 3065.25 4289.59L3059.09 4291.86C3052.14 4294.42 3047.37 4300.87 3046.96 4308.28L3045.74 4330.21C3044.8 4347.14 3035.76 4362.71 3020.8 4370.69C2988.45 4387.94 2945.38 4405.66 2930.46 4392.87C2906.69 4372.5 2881.22 4290.99 2869.33 4290.99C2865.59 4290.99 2861.2 4283.28 2856.91 4272.42M2706.42 3787.12C2708.83 3798.21 2715.26 3821.07 2721.59 3823.78C2723.56 3824.63 2728.17 3824.59 2734.06 3824.04M2706.42 3787.12L2777.47 3816.58M2777.47 3816.58C2766.46 3819.02 2747.1 3822.8 2734.06 3824.04M2734.06 3824.04L2723.15 3868.29C2721.91 3873.32 2726.4 3877.96 2731.52 3877.18C2732.31 3877.06 2733.11 3876.94 2733.92 3876.83M2838.59 3921.92C2830.5 3875.03 2771.91 3871.57 2733.92 3876.83M2733.92 3876.83C2730.32 3911.91 2720.21 3985.45 2708.63 3998.96C2699.63 4009.46 2690.01 4031.14 2685.18 4050.11M2685.18 4050.11L2668.67 4096.99M2668.67 4096.99C2657.96 4105.81 2639.01 4129.87 2648.83 4155.56C2652.95 4166.33 2659.31 4175.04 2666.05 4181.8M2668.67 4096.99C2670.56 4119.67 2680.2 4168.22 2703.63 4181.07M2691.34 4199.02C2685.49 4196.83 2675.4 4191.18 2666.05 4181.8M2666.05 4181.8L2667.64 4209.82C2669.3 4239.21 2692.72 4262.69 2722.11 4264.43L2786.58 4268.25M2856.91 4272.42L2786.58 4268.25M2856.91 4272.42C2851.48 4258.67 2846.2 4239.86 2842.59 4225.21M2786.58 4268.25C2776.25 4249.58 2745.76 4213 2706.46 4216.03M2868.14 4114.51C2867.07 4121.17 2865.17 4128.61 2862.05 4135.27C2856.86 4146.37 2842.84 4152.12 2840.33 4164.12C2837.21 4178.97 2838.65 4202.14 2840.46 4216.27C2841.08 4218.99 2841.79 4222 2842.59 4225.21M2868.14 4114.51C2865.89 4123.15 2864.61 4141.96 2877.46 4148.01C2893.52 4155.57 2889.74 4043.14 3001.22 4071.48M2884.07 4268.93C2886.9 4264.21 2920.91 4148.01 3057.9 4212.25M2931.31 4325.62C2935.08 4325.62 3016.02 4292.87 3056.01 4276.49M2842.59 4225.21C2866.81 4186.56 2933.95 4114 3008.77 4132.89M3082.03 852.554C3107.49 856.506 3163.3 874.814 3182.79 916.437M2748.71 1194.42C2769.01 1195.2 2803.35 1177.55 2829.66 1161.33C2844.89 1151.95 2864.38 1151.86 2878.9 1162.3V1162.3C2903.4 1179.92 2901.63 1216.93 2875.57 1232.13L2859.97 1241.23C2844.12 1250.47 2824.59 1251.01 2808.54 1242.1C2769.75 1220.6 2726.19 1193.56 2748.71 1194.42ZM3311.48 2190.52V2190.52C3314.82 2196.78 3313.76 2204.49 3308.78 2209.55C3296.8 2221.73 3280.62 2237.57 3269.04 2247.25C3262.76 2252.51 3254.14 2250.7 3249.28 2244.11V2244.11C3244.23 2237.28 3244.89 2227.79 3250.85 2221.73L3285.28 2186.73C3293.05 2178.83 3306.26 2180.74 3311.48 2190.52ZM3241.99 2397.59V2397.59C3246.94 2404.7 3258.06 2401.72 3258.79 2393.1L3260.58 2371.93C3261.15 2365.27 3255.58 2359.72 3248.92 2360.3V2360.3C3243.12 2360.8 3238.77 2365.83 3239.11 2371.65L3240.36 2392.86C3240.46 2394.56 3241.02 2396.2 3241.99 2397.59ZM2963.38 1028.79L2963.43 1027.04C2963.59 1020.72 2968.77 1015.68 2975.09 1015.68V1015.68C2982.05 1015.68 2987.46 1021.72 2986.69 1028.63L2986.5 1030.38C2985.87 1035.98 2981.3 1040.33 2975.67 1040.67V1040.67C2968.89 1041.08 2963.2 1035.59 2963.38 1028.79Z" stroke="#7481A1" stroke-width="10"/>
</svg>
