<svg width="4763" height="4763" viewBox="0 0 4763 4763" fill="none" xmlns="http://www.w3.org/2000/svg">
<path d="M1787.45 3319C1808.17 3323.16 1836.94 3328.93 1852.63 3332.08C1860.11 3333.58 1867.79 3333.63 1875.23 3331.93C1906.32 3324.83 1954.95 3310.25 1965.71 3293.45C1977.88 3274.43 1940.63 3245.25 1920.49 3233.03M1787.45 3319C1797.36 3317.24 1805.33 3315.88 1811.98 3314.6M1787.45 3319C1785.39 3320.7 1783.77 3338.64 1783.57 3352.71M2397.61 3187.49C2384.68 3191.8 2289.81 3165.92 2276.88 3162.69C2263.94 3159.46 2216.51 3173.47 2199.26 3178.86C2182.01 3184.25 2035.4 3168.08 2007.37 3165.93C2004.11 3165.67 2000.58 3166.3 1996.79 3167.67M2397.61 3187.49L2344.01 3226.33C2336.44 3231.81 2327.65 3235.39 2318.3 3235.41C2307.57 3235.42 2291.79 3234.61 2271.71 3231.78C2230.61 3225.99 2048.28 3382.28 2033.23 3380.54C2021.19 3379.16 1977.49 3401.16 1957.15 3412.34M2397.61 3187.49C2402.55 3185.84 2409.05 3183.73 2415.86 3181.98M2548.54 3229.53C2518.35 3214.44 2455.61 3183.39 2446.13 3179.94C2438.79 3177.27 2426.91 3179.14 2415.86 3181.98M2548.54 3229.53C2572.25 3192.52 2620.21 3151.38 2660.4 3133.57M2548.54 3229.53C2548.54 3229.53 2539.45 3320.73 2531.37 3429.72M2660.4 3133.57C2667.18 2974.47 2677.74 2726.17 2677.74 2726.17M2660.4 3133.57C2687.24 3136.56 2716.87 3137.49 2743.84 3136.19M2647.72 3325.8C2649.32 3268.42 2666.04 3308.22 2667.12 3278.04C2667.75 3260.33 2703.98 3252.36 2736.43 3249.37M2647.72 3325.8L2667.16 3375.8M2647.72 3325.8C2647.43 3336.36 2646.42 3364.64 2644.94 3404.2M1957.15 3412.34C1957.15 3412.34 1788.05 3372.58 1785.01 3369.54C1783.86 3368.39 1783.45 3361.26 1783.57 3352.71M1957.15 3412.34C1957.15 3412.34 1943.58 3442.7 1935.06 3465.04M1927.85 3490.21C1928.67 3486.1 1931.9 3473.32 1935.06 3465.04M1927.85 3490.21L1732.33 3490.04C1718.5 3490.03 1707.2 3479 1706.86 3465.18V3465.18M1927.85 3490.21C1925.36 3502.65 2072.47 3489.8 2126.09 3486.73M2145.46 3485.57L2146.05 3475.24C2147.84 3443.92 2174.21 3419.69 2205.58 3420.57L2340.32 3424.36M2145.46 3485.57L2526.96 3493.1M2145.46 3485.57C2145.46 3485.57 2138.1 3486.04 2126.09 3486.73M2531.37 3429.72L2340.32 3424.36M2531.37 3429.72C2517.47 3409.18 2480.5 3357.59 2443.89 3315.56C2407.29 3273.53 2359.59 3370.58 2340.32 3424.36M2531.37 3429.72C2529.84 3450.38 2528.35 3471.67 2526.96 3493.1M1920.49 3233.03C1907.17 3246.64 1893.25 3260.75 1879.09 3273.73C1845.11 3304.87 1842.42 3308.77 1811.98 3314.6M1920.49 3233.03C1923.75 3229.7 1926.97 3226.41 1930.15 3223.16M2677.74 2726.17V2682.58M2677.74 2726.17C2677.74 2726.17 2520.42 2745.83 2451.22 2754.69M2677.74 2682.58V2655.09C2677.74 2646.64 2684.64 2639.82 2693.09 2639.91V2639.91M2677.74 2682.58C2677.74 2682.58 2500.69 2706.11 2434.89 2713.89M2743.84 3136.19C2752.82 3135.76 2760.93 3135.21 2767.38 3134.66C2771.56 3134.31 2770.76 3182.23 2769.69 3215.83C2769.12 3233.77 2754.31 3247.72 2736.43 3249.37V3249.37M2743.84 3136.19L2746.65 2710.04M2746.92 2670.17V2670.17C2747.02 2653.75 2733.84 2640.34 2717.42 2640.16L2693.09 2639.91M2746.92 2670.17L2767.13 2668.68C2769.15 2668.54 2771.14 2668.13 2773.05 2667.48L2773.41 2667.36C2785.09 2663.4 2797.85 2669.16 2802.59 2680.55V2680.55C2805.38 2687.25 2804.87 2694.95 2801.28 2701.26V2701.26C2795.48 2711.43 2783.12 2716.1 2772.12 2712.1L2768.68 2710.85C2764.86 2709.46 2760.79 2708.91 2756.74 2709.23L2746.65 2710.04M2746.92 2670.17L2746.65 2710.04M2736.43 3249.37L2731.52 3358.24M2710.31 3379.65L2723.3 3371.95C2728.17 3369.06 2731.27 3363.91 2731.52 3358.24V3358.24M2710.31 3379.65L2667.16 3375.8M2710.31 3379.65L2711.55 3391.25C2712.23 3397.57 2715.68 3403.27 2720.97 3406.79L2724.25 3408.98C2730.91 3413.42 2733.47 3421.98 2730.34 3429.35V3429.35M2667.16 3375.8V3375.8C2668.46 3389.31 2659.21 3401.57 2645.86 3404.03L2644.94 3404.2M2644.94 3404.2C2644.1 3426.68 2643.11 3452.8 2642.02 3481.38M2642.02 3481.38L2720.16 3480.35C2735.58 3480.15 2743.41 3461.73 2732.86 3450.49V3450.49C2728.05 3445.37 2726.72 3437.9 2729.46 3431.43L2730.34 3429.35M2642.02 3481.38C2641.83 3486.3 2641.64 3491.29 2641.45 3496.35M2730.34 3429.35L2849.22 3430.66C2880.48 3431.01 2905.84 3456.06 2906.57 3487.31L2906.81 3497.55M2906.81 3497.55L2919.13 3597.72M2906.81 3497.55L2641.45 3496.35M2906.81 3497.55L3300.91 3497.59M2919.13 3597.72L2637.63 3595.37M2919.13 3597.72L3305.16 3600.64M2637.63 3595.37C2638.97 3560.79 2640.26 3527.33 2641.45 3496.35M2637.63 3595.37C2637.04 3610.7 2636.43 3626.25 2635.83 3641.89M2526.96 3493.1C2524.62 3529.19 2522.57 3565.68 2521.16 3600.17M1935.06 3465.04L1879.85 3432.85C1871.48 3427.98 1862.03 3425.28 1852.36 3424.99L1799.13 3423.41C1788.74 3423.1 1778.45 3425.6 1769.35 3430.63L1714.31 3461.06M1706.86 3465.18V3465.18C1690.66 3466.65 1677.39 3478.63 1674.27 3494.59L1667.72 3528.13M1706.86 3465.18L1714.31 3461.06M1664 3547.16L2120.01 3553.9C2123.36 3553.95 2126.1 3551.25 2126.1 3547.9L2126.09 3486.73M1664 3547.16V3547.16C1664.23 3574.77 1686.62 3597.06 1714.23 3597.16L2521.16 3600.17M1664 3547.16L1667.72 3528.13M2521.16 3600.17C2520.55 3614.81 2520.07 3629.09 2519.71 3642.83M3300.91 3497.59C3303.21 3485.46 3305.1 3471.41 3306.17 3456.33M3300.91 3497.59L3305.16 3600.64M3205.67 3141.38V3141.38C3190.71 3143.52 3179.96 3156.89 3181.1 3171.96L3183.51 3204.05M3205.67 3141.38L3194.65 2645.22M3205.67 3141.38C3217.77 3154.29 3250.24 3172.37 3286.7 3146.51M3358.76 4056.62C3407.97 4067.56 3422.35 4029.23 3424.08 3999.87M3358.76 4056.62C3332.73 4050.84 3310.45 4024.59 3292.74 3992.48M3358.76 4056.62C3365.59 4052.79 3379.25 4040.52 3379.25 4022.09C3379.25 4003.66 3367.23 3564.84 3361.21 3347.73M3250.05 3876.15L3337.63 3948.08C3338.39 3948.7 3339.5 3947.97 3339.22 3947.03L3316.16 3867.6M3250.05 3876.15C3236.35 3864.9 3221.57 3872.14 3210.95 3882.02C3202.6 3889.78 3199.77 3901.43 3199.88 3912.83L3200.67 3991.85M3250.05 3876.15C3256.61 3906.27 3271.33 3953.66 3292.74 3992.48M3250.05 3876.15L3316.16 3867.6M3316.16 3867.6L3307.14 3648.6M3207.96 3264.67V3264.67C3196.72 3262.82 3187.29 3254.23 3186.43 3242.87L3183.51 3204.05M3207.96 3264.67L3210.34 3370.71C3210.38 3372.51 3211.12 3374.23 3212.39 3375.5L3232.81 3395.93M3207.96 3264.67C3274.66 3275.69 3299.71 3336.41 3305.64 3398.07M3232.81 3395.93L3305.64 3398.07M3232.81 3395.93L3220.57 3415.59M3306.17 3456.33L3199.38 3455.37C3197.81 3455.36 3196.87 3453.64 3197.7 3452.31L3220.57 3415.59M3306.17 3456.33C3307.48 3437.9 3307.55 3417.94 3305.64 3398.07M3220.57 3415.59L2961.9 3414.48C2957.21 3414.46 2952.54 3413.88 2947.99 3412.73L2869.1 3392.87M2731.52 3358.24L2869.1 3392.87M3406.68 3400.91C3403.1 3347.58 3398.98 3313.23 3394.31 3311.03C3380.65 3304.6 3370.86 3257.35 3365.72 3220.4C3363.43 3203.99 3355.01 3188.96 3341.65 3179.17L3296.9 3146.41C3293.87 3144.19 3289.75 3144.34 3286.7 3146.51V3146.51M3406.68 3400.91C3422.53 3430.33 3454.22 3498.97 3454.22 3538.19M3406.68 3400.91C3409.17 3438.01 3411.4 3484.29 3413.36 3535.31M3454.22 3538.19L3413.36 3535.31M3454.22 3538.19L3498.34 3631.31M3454.22 3538.19C3490.39 3550.85 3552.32 3568.66 3619.61 3580.52M3413.36 3535.31C3414.81 3572.84 3416.12 3612.95 3417.29 3653.85M3498.34 3631.31L3417.29 3653.85M3498.34 3631.31L3500.49 3845.11C3500.56 3851.37 3495.39 3856.42 3489.14 3856.22L3421.94 3854.03M3417.29 3653.85C3419.21 3721.03 3420.76 3790.36 3421.94 3854.03M3421.94 3854.03C3422.83 3902.47 3423.51 3947.63 3423.98 3986.07C3424.3 3990.23 3424.37 3994.92 3424.08 3999.87M3305.16 3600.64L3307.14 3648.6M1996.79 3167.67C1986.78 3171.3 1975.03 3180.16 1962.04 3191.94M1996.79 3167.67C1984.5 3156.07 1950.1 3135.9 1903.43 3138.45M1811.98 3314.6C1815.24 3319.52 1816.97 3322.04 1805.87 3305.06M1930.15 3223.16C1886.92 3212.28 1801.54 3213.42 1805.87 3305.06M1930.15 3223.16C1941.36 3211.74 1952.07 3200.98 1962.04 3191.94M1805.87 3305.06C1802.02 3299.16 1796.63 3290.92 1789.22 3279.61C1787.26 3276.62 1785.6 3273.57 1784.22 3270.48M1962.04 3191.94C1909.09 3178.5 1799.39 3175.4 1784.22 3270.48M1784.22 3270.48C1779.35 3259.55 1778.05 3248.09 1779.61 3236.69M1903.43 3138.45C1898.1 3138.74 1892.6 3139.33 1886.96 3140.26C1835.26 3148.79 1785.7 3192.3 1779.61 3236.69M1903.43 3138.45C1910.9 3130.68 1922.44 3115.52 1928.57 3098.84C1935.27 3080.63 1940.06 3060.13 1951.81 3044.69C1956.06 3039.11 1960.08 3033.35 1963.23 3027.96C1970.27 3015.97 1972.93 3000.96 1978.06 2988.03C1985.86 2968.35 1994.62 2942.08 1996.05 2922.71C1996.93 2910.82 2000.16 2907.71 2004.11 2909.04C2018.7 2913.96 2016.91 2935.41 2012.5 2950.17L2008.51 2963.51M2296.21 2958.02L2212.27 3054.95C2203.35 3065.25 2198.75 3078.46 2196.09 3091.82C2195.01 3097.23 2193.53 3102.95 2191.57 3108.74M2296.21 2958.02C2295.15 2968.11 2289.27 2996.48 2274.14 3029.27C2255.22 3070.26 2228.81 3110.01 2191.57 3108.74M2296.21 2958.02C2300.41 2926.49 2301 2858.64 2269.72 2839.47C2230.63 2815.51 2107.03 2717.14 2080.55 2720.29C2062.01 2722.5 2040.51 2717.46 2028.81 2713.64C2025.87 2712.68 2023.09 2711.31 2020.4 2709.78C1998.22 2697.16 1958.55 2676.46 1950.02 2679.3C1938.67 2683.09 1882.55 2678.67 1874.98 2686.24C1867.41 2693.81 1840.3 2720.29 1835.25 2727.23C1831.9 2731.84 1746.22 2764.08 1687.75 2786.82M2191.57 3108.74C2183.44 3132.71 2167.03 3157.89 2136.67 3166.74C2076.13 3184.4 2011.82 3075.94 1997.31 3069C1985.71 3063.45 1997.52 3004.47 2004.88 2975.68L2008.51 2963.51M1567.89 3009.73C1570.47 3005.52 1571.64 2983.12 1572.1 2961.11M1567.89 3009.73C1530.4 3025.63 1436.84 3056.44 1362.51 3052.38C1269.6 3047.31 1218.09 3051.41 1163.18 2984.32M1567.89 3009.73C1565.03 3014.37 1554.26 3034.83 1545.59 3053.97M1622.75 3220.34C1574.19 3204.57 1534.46 3100.53 1533.83 3087.92C1533.69 3085.06 1535.11 3079.89 1537.44 3073.51M1622.75 3220.34C1628.42 3245.14 1644.44 3295.13 1663.1 3296.64C1681.77 3298.15 1732.48 3336.36 1755.5 3355.27M1622.75 3220.34C1633.29 3149.07 1655.31 2995.11 1659.06 2949.38C1662.81 2903.64 1635.91 2856.21 1621.99 2838.21M1622.75 3220.34L1750.82 3191.42M1755.5 3355.27L1783.57 3352.71M1755.5 3355.27C1745.88 3365.01 1731.49 3383.66 1722.18 3405.79M1714.31 3461.06C1710.8 3442.22 1714.96 3422.96 1722.18 3405.79M2008.51 2963.51C2028.95 2944.56 2072.32 2900.15 2082.34 2874.09C2092.36 2848.04 2113.8 2799.77 2123.26 2778.89M1821.8 2859.89C1813.17 2879.66 1794.41 2928.04 1788.39 2963.44C1780.88 3007.7 1798.41 3011.04 1790.9 3021.9C1783.38 3032.76 1755.83 3078.69 1756.66 3094.55C1756.96 3100.21 1756.27 3114.7 1755.22 3131.42M1750.82 3191.42C1755.45 3205.94 1767.7 3235.32 1779.61 3236.69M1750.82 3191.42C1768.63 3184.74 1809.27 3163.7 1829.31 3132.97C1841.62 3114.09 1833.98 3103.07 1821.87 3097.12C1807.47 3090.05 1790.98 3097.48 1779.34 3108.52L1755.22 3131.42M1750.82 3191.42C1752.05 3176.45 1753.92 3152.21 1755.22 3131.42M2065.34 2948.24C2109.79 2948.73 2196.33 2964.3 2186.9 3022.65M1842.11 2912.14C1863.23 2906.5 1909.89 2902.42 1927.57 2931.3M2020.4 2776.59C2029.24 2797.95 2043.97 2853.5 2032.18 2904.78M1842.11 2806.79L1829.58 2837M1621.99 2838.21C1628.07 2822.77 1632.43 2811.08 1634.1 2809.2C1635.79 2807.3 1658.32 2798.27 1687.75 2786.82M1621.99 2838.21C1614.2 2858.02 1603.59 2883.99 1592.24 2903.35C1582.23 2920.42 1572.5 2939.73 1572.13 2959.52C1572.12 2960.05 1572.11 2960.58 1572.1 2961.11M1667.72 3528.13L1623.42 3527.85C1602.83 3527.73 1583.72 3538.52 1573.2 3556.22L1555.15 3586.6C1549.65 3595.84 1546.84 3606.44 1547.02 3617.2L1547.43 3642.12M1547.43 3642.12L2519.71 3642.83M1547.43 3642.12L1551.48 3824.54M2519.71 3642.83C2519.61 3647.06 2519.51 3651.23 2519.43 3655.35C2518.29 3713.03 2519.38 3783.71 2521.09 3847.63M2635.83 3641.89L3307.14 3648.6M2635.83 3641.89C2633.08 3712.68 2630.23 3785.44 2627.73 3848.97M1369.99 4115.88L1779.94 4121.62C1795.21 4121.83 1809.95 4116.01 1820.95 4105.43L1848.58 4078.87C1860.29 4067.61 1866.74 4051.95 1866.36 4035.71L1864.53 3956.67M1369.99 4115.88L1407.28 4011.91C1408.97 4007.21 1413.4 4004.04 1418.4 4003.96L1658.81 4000.37M1369.99 4115.88L1368.08 4403.46M1864.53 3956.67L1863.75 3923.47C1863.47 3911.12 1859.24 3899.18 1851.69 3889.39L1847.73 3884.25C1836.85 3870.16 1820.11 3861.83 1802.31 3861.68L1691.38 3860.71M1864.53 3956.67L1831.8 3984.51C1821.53 3993.24 1808.56 3998.12 1795.09 3998.33L1658.81 4000.37M1537.44 3073.51C1474.66 3061.83 1349.4 3148.3 1321.98 3270.06M1537.44 3073.51C1539.56 3067.72 1542.44 3060.93 1545.59 3053.97M1551.48 3824.54L1552.15 3854.65C1552.21 3857.35 1554.4 3859.51 1557.1 3859.54L1691.38 3860.71M1551.48 3824.54C1430.99 3796.61 1382.16 3712.57 1352.54 3640.35M3683.17 4423.83C3638.62 4435.98 3545.99 4454.07 3531.95 4429.23C3522.57 4412.64 3494.61 4405.56 3469.29 4403.09C3449.5 4401.16 3431.12 4389.81 3423.73 4371.35V4371.35C3417.95 4356.9 3422.36 4340.54 3422.36 4324.97C3422.36 4310.22 3413.05 4297.65 3403.24 4289.09C3396.1 4282.85 3386.57 4280.56 3377.1 4280.29L3177.2 4274.58C3163.05 4274.18 3149.54 4268.61 3139.21 4258.94L3076.93 4200.61C3072.83 4196.78 3066.85 4195.77 3061.72 4198.05V4198.05C3053.58 4201.67 3050.87 4211.89 3056.15 4219.06L3065.81 4232.19C3079.14 4250.31 3065.83 4275.83 3043.34 4275.27L2667.81 4265.85L2258.7 4275.3L1764.47 4279.31C1760.91 4279.34 1757.36 4279.7 1753.87 4280.37L1627.68 4304.91C1619.14 4306.57 1612.7 4313.63 1611.84 4322.29V4322.29C1611.08 4329.87 1615.62 4336.98 1618.72 4343.94C1623.69 4355.1 1620.45 4374.31 1587.64 4400.87C1530.93 4446.78 1526.88 4433.28 1494.48 4433.28C1462.07 4433.28 1464.77 4506.19 1451.27 4487.29C1442.75 4475.36 1410.18 4476.09 1385.31 4479.13C1376.08 4480.26 1367.61 4473.21 1367.67 4463.91V4463.91M3683.17 4423.83L3738.91 4431.63C3746.61 4432.71 3752.2 4432.46 3759.52 4429.83V4429.83C3784.44 4420.88 3811.47 4396.87 3811.5 4370.39L3811.54 4329.46M3683.17 4423.83L3681.95 4329.38M3424.08 3999.87L3621.73 4004.07C3652.99 4004.73 3678.09 4030.05 3678.5 4061.31L3679.46 4136.36M3679.46 4136.36C3679.46 4136.32 3414.06 4130.05 3259.32 4126.4C3242.74 4126.01 3227.18 4118.54 3216.47 4105.88L3215.14 4104.31C3206.41 4093.99 3201.56 4080.94 3201.42 4067.42L3200.67 3991.85M3679.46 4136.36L3681.95 4329.38M3200.67 3991.85L3292.74 3992.48M3361.21 3347.73C3350.06 3297.81 3323.29 3198.61 3305.45 3201.16C3295.54 3202.57 3278.96 3200.78 3263.17 3198.18C3246.87 3195.49 3231.61 3208.31 3232.64 3224.8V3224.8C3233.3 3235.4 3240.74 3244.28 3250.72 3247.9C3288.76 3261.71 3345.89 3294.11 3361.21 3347.73ZM2627.73 3848.97C2627.29 3860.24 2626.86 3871.21 2626.44 3881.82C2625.78 3898.73 2647.41 3906.27 2657.4 3892.62V3892.62C2666.29 3880.46 2685.4 3884.85 2688.09 3899.67L2688.82 3903.68C2689.72 3908.59 2688.63 3913.65 2685.8 3917.77L2643.65 3978.97M2627.73 3848.97L2745.65 3856C2755.16 3856.57 2764.63 3859.24 2771.52 3865.82C2772.18 3866.44 2772.83 3867.09 2773.48 3867.75M2521.09 3847.63L2318.91 3849.8C2306.47 3849.93 2294.41 3854.06 2284.5 3861.57L2284.07 3861.9C2269.78 3872.72 2261.3 3889.53 2261.09 3907.45L2260.86 3927.85M2521.09 3847.63C2522.44 3898.11 2524.18 3944.38 2525.51 3976.71M2773.48 3867.75C2782.37 3876.83 2791.08 3890.01 2791.34 3905.4C2791.67 3925.29 2790.64 3997.17 2789.81 4047.09C2789.53 4063.75 2782.08 4079.46 2769.38 4090.25L2761.97 4096.55C2751.56 4105.38 2738.37 4110.27 2724.72 4110.34L2321.39 4112.44C2307.44 4112.51 2293.93 4107.55 2283.34 4098.48L2279.67 4095.33C2266.63 4084.15 2259.22 4067.78 2259.42 4050.61L2260.86 3927.85M2773.48 3867.75L2775.72 3914.76C2776.66 3934.49 2767.48 3953.35 2751.38 3964.79L2747.82 3967.32C2738.22 3974.14 2726.77 3977.88 2714.99 3978.03L2643.65 3978.97M2643.65 3978.97L2624.85 4006.26C2613.12 4023.3 2592.76 4032.24 2572.28 4029.36V4029.36C2546.33 4025.7 2526.65 4004.14 2525.56 3977.96C2525.55 3977.55 2525.53 3977.13 2525.51 3976.71M2525.51 3976.71L2324.78 3978.64C2304.24 3978.83 2285.13 3968.15 2274.53 3950.56L2260.86 3927.85M1368.08 4403.46L1300.27 4464.37M1368.08 4403.46L1367.67 4463.91M1300.27 4464.37C1235.2 4466.04 1099.03 4465.54 1075.01 4450.19C1050.98 4434.84 981.563 4429.89 949.859 4429.33M1300.27 4464.37C1306.04 4472.03 1321 4487.84 1334.68 4489.87C1348.36 4491.89 1362.38 4473.41 1367.67 4463.91M3194.65 2645.22L3275.12 2646.86M3194.65 2645.22V2645.22C3196.48 2629.65 3210.32 2618.34 3225.95 2619.64L3253.79 2621.96C3266.52 2623.02 3276.03 2634.12 3275.12 2646.86V2646.86M3275.12 2646.86L3286.21 3125.77M3286.7 3146.51L3286.21 3125.77M3812.32 3588.06C3755.48 3597.95 3685.01 3592.04 3619.61 3580.52M3812.32 3588.06L3778.89 3297.67M3812.32 3588.06L3811.54 4329.46M3619.61 3580.52C3618.56 3568.8 3579.93 3495.84 3565.05 3426.28M3699.51 3069.96C3701.6 3120.1 3603.41 3257.98 3567.89 3333.19C3563.94 3341.56 3561.49 3350.91 3560.26 3360.95M3699.51 3069.96C3697.84 3029.85 3689.06 2973.86 3684.88 2950.88M3699.51 3069.96L3778.89 3297.67M3684.88 2950.88L3575.87 3036.05M3684.88 2950.88L3801.87 2629.16M3560.26 3360.95L3552.05 3084.69C3551.5 3066.24 3559.77 3048.62 3574.32 3037.26L3575.87 3036.05M3560.26 3360.95C3557.81 3380.82 3560.14 3403.36 3565.05 3426.28M3575.87 3036.05L3572.8 2948.76C3572.33 2935.28 3576.57 2922.05 3584.8 2911.36L3595.76 2897.11M3801.87 2629.16L3595.76 2897.11M3801.87 2629.16L3791.43 2470.38M3595.76 2897.11C3585.08 2853.06 3576.25 2748.24 3626.39 2681.39C3676.53 2614.53 3757.31 2512.86 3791.43 2470.38M3791.43 2470.38L3803.11 2057.2M3605.5 3347.81C3647.28 3345.03 3740.45 3331.1 3778.89 3297.67M2955.74 1262.9C2977.11 1271.87 3029.38 1289.38 3067.44 1287.72C3115.01 1285.66 3129.49 1262.9 3175 1279.45C3220.5 1296 3212.23 1318.75 3266.01 1318.75C3319.79 1318.75 3406.67 1291.86 3474.93 1310.48C3543.19 1329.09 3708.66 1355.98 3733.49 1378.74C3744.4 1388.74 3760.4 1399.62 3775.23 1408.77C3793.7 1420.16 3805.82 1439.94 3805.73 1461.64L3803.11 2057.2M2955.74 1262.9C2981.94 1282.21 3043.44 1357.64 3063.3 1413.9C3088.12 1484.23 3162.59 1575.24 3146.04 1711.76C3142.85 1738.04 3141.97 1760.64 3142.57 1780.87M2955.74 1262.9C2959.17 1227.48 2963.71 1153.05 2954.41 1138.67C2942.78 1120.7 2931.15 1077.34 2933.26 1060.43C2935.38 1043.51 2920.57 998.039 2913.17 977.949M2955.74 1262.9C2952.12 1293.4 2942.14 1357.98 2931.15 1372.36M2825.42 2230.95C2963.75 2261.23 3071.43 2352.19 3164.42 2422.59C3167.38 2424.84 3171.67 2423.04 3172.31 2419.39C3211.04 2200.24 3162.66 2128.13 3168.79 2007.55C3173.8 1909 3145.09 1865.76 3142.57 1780.87M2825.42 2230.95C2822.29 2256.43 2808.39 2312.51 2776.75 2358.61C2766.47 2373.59 2748.26 2380.13 2730.12 2379.14C2718.6 2378.51 2706.18 2378.09 2694.97 2378.17M2825.42 2230.95C2834.35 2162.42 2851.6 2028.38 2860.46 1959.48M2931.15 1372.36C2973.95 1446.19 2875.36 1876.09 2866.62 1913.68C2866.17 1915.63 2865.88 1917.3 2865.63 1919.28C2864.87 1925.21 2863.01 1939.65 2860.46 1959.48M2931.15 1372.36L2923.35 1383.76C2918.13 1391.41 2914.87 1400.2 2913.39 1409.35C2909.95 1430.67 2903.51 1460.74 2894.99 1474.37C2884.35 1491.4 2866.4 1508.53 2858.76 1514.96M2457.13 2474.77C2457.13 2474.77 2581.85 2447.18 2621.77 2435.03C2661.69 2422.88 2642.6 2388.17 2663.42 2381.23C2669.76 2379.11 2681.5 2378.27 2694.97 2378.17M2457.13 2474.77L2434.89 2713.89M2457.13 2474.77C2457.13 2474.77 2517.34 2416.51 2580.68 2357.44M2860.46 1959.48L2803.15 2122.87C2801.41 2127.82 2799 2132.52 2796 2136.83L2777.11 2163.93C2770.33 2173.66 2766.1 2185.55 2759.47 2195.38C2751.68 2206.92 2736.57 2223.34 2709.33 2243.6C2693.59 2255.3 2667.49 2278 2637.9 2304.77M2434.89 2713.89C2423.2 2715.27 2415.03 2716.16 2411.97 2716.33C2402.15 2716.87 2395.08 2721.36 2390.4 2727.22C2381.59 2738.27 2388.15 2755.07 2401.96 2758.08C2407.56 2759.3 2414.15 2759.57 2421.82 2758.51C2426.44 2757.88 2436.96 2756.51 2451.22 2754.69M2451.22 2754.69C2441.52 2791.32 2419.81 2872.66 2410.59 2904.91C2399.07 2945.24 2430.65 3049.3 2424.41 3089.19C2419.43 3121.1 2416.63 3164.34 2415.86 3181.98M2637.9 2304.77C2617.11 2284.66 2569.16 2244.63 2543.68 2245.42C2524.14 2246.03 2500.11 2252.64 2479.39 2256.51M2637.9 2304.77C2623.65 2317.67 2608.58 2331.51 2593.48 2345.53M1887.72 1613.32C1896.74 1618.28 1903.87 1626.54 1909.48 1636.72M1887.72 1613.32C1831.47 1618.41 1743.86 1627.35 1671.16 1637.04M1887.72 1613.32C1895.95 1649.57 1897.66 1728.52 1838.59 1754.41C1779.52 1780.31 1702.36 1686.95 1671.16 1637.04M1545.52 1662.21C1550.57 1658.17 1567.81 1653.7 1592.48 1649.12M1545.52 1662.21L1529.05 1611.15M1545.52 1662.21C1537.85 1668.35 1536.13 1677.33 1537.68 1686.99M1559.57 1730.2C1574.57 1751.6 1607.43 1791.62 1629.58 1797.14C1634.12 1798.27 1638.9 1797.86 1643.56 1798.27C1651.39 1798.96 1660.84 1799.7 1671.1 1800.35M1559.57 1730.2L1533.82 1732.42M1559.57 1730.2C1551.44 1720.32 1540.2 1702.76 1537.68 1686.99M1693.02 1801.54C1720.04 1802.74 1748.44 1802.92 1765.75 1800.22C1843.17 1789.38 1930.01 1770.36 1928 1744.31C1929.46 1717.7 1926.76 1668.11 1909.48 1636.72M1693.02 1801.54L1955.47 2165.8C2000.26 2220.54 2039.08 2195.66 2046.04 2224.52C2047.7 2231.41 2053.06 2238.58 2060.37 2245.53M1693.02 1801.54C1685.51 1801.21 1678.12 1800.8 1671.1 1800.35M1909.48 1636.72C1915.98 1633.91 1928.74 1630.91 1943.85 1628.03M2040.65 1613.6C2024.47 1565.4 2407.28 1510.4 2425.33 1517.07M2040.65 1613.6C2040.65 1613.6 1983.97 1620.39 1943.85 1628.03M2040.65 1613.6C2040.65 1613.6 2050.46 1629.46 2063.87 1648.78M2425.33 1517.07C2432.7 1519.8 2438.97 1527.95 2444.2 1539.03M2425.33 1517.07L2399.81 1498.34M2444.2 1539.03L2519.47 1537.33M2444.2 1539.03C2448.3 1547.7 2451.76 1558.18 2454.59 1569.23M2519.47 1537.33C2517.53 1532.97 2517.87 1513.95 2518.62 1498.12C2519.07 1488.56 2522.13 1479.34 2527.23 1471.25L2556.93 1424.12M2519.47 1537.33L2517.84 1549.14M2454.59 1569.23C2458.68 1585.21 2461.46 1602.41 2462.99 1617.17C2464.62 1632.93 2458.12 1648.41 2445.21 1657.58C2402.35 1688.04 2343.76 1704.09 2288.35 1712.16M2454.59 1569.23L2504.39 1562.54C2511.38 1561.6 2516.87 1556.12 2517.84 1549.14V1549.14M2454.59 1569.23C2425 1605.77 2356.3 1679.7 2318.19 1683.06C2284.79 1686.01 2207.66 1619.54 2163.66 1579.19C2153.05 1569.46 2146.63 1556.03 2145.46 1541.68L2141.94 1498.34M2556.93 1424.12L2568.33 1453.44M2556.93 1424.12L2543.09 1345.93M2568.33 1453.44L2517.84 1549.14M2568.33 1453.44L2591.28 1519.51C2593.78 1526.68 2599.48 1532.56 2607.04 1531.78V1531.78M2543.09 1345.93V1345.93C2547.38 1334.48 2558.99 1327.49 2571.12 1329.06L2575.66 1329.64M2543.09 1345.93L2543.66 1346.03C2556.8 1348.38 2569.89 1341.68 2575.66 1329.64V1329.64M2575.66 1329.64C2578.51 1333.74 2581.53 1338.59 2584.64 1344.02M2584.64 1344.02C2591.97 1309.72 2611.43 1237.01 2630.67 1220.51C2634.37 1217.34 2637.43 1216.52 2639.93 1217.44M2584.64 1344.02C2588.28 1350.35 2592.05 1357.45 2595.86 1365.06M2595.86 1365.06C2621.48 1416.13 2648.97 1489.64 2648.97 1499.87C2648.97 1506.81 2645.27 1512.89 2639.73 1517.85M2595.86 1365.06L2642.54 1289.02C2647.53 1280.89 2650.57 1271.66 2650.57 1262.12C2650.57 1252.3 2649.97 1241.76 2648.31 1233.34M2639.93 1217.44C2641.25 1214.14 2682.68 1096.63 2705.31 1032.37C2706.82 1028.07 2709.14 1022.69 2713.69 1022.98V1022.98M2639.93 1217.44C2644.04 1218.95 2646.68 1225.14 2648.31 1233.34M2639.93 1217.44C2683.34 1020.47 2551.45 1002.33 2587.94 922.918C2617.13 859.388 2570.05 746.208 2542.87 697.559L2435.37 526.297C2423.65 507.623 2423.53 483.919 2435.06 465.128L2474.19 401.372M2722.27 1052.73C2722.71 1029.88 2718.23 1023.28 2713.69 1022.98M2722.27 1052.73L2731.22 1044.84C2744.56 1033.1 2762.55 1028.11 2780.03 1031.32L2795.37 1034.14M2722.27 1052.73L2653.21 1221.36M2648.31 1233.34L2653.21 1221.36M2713.69 1022.98C2716.14 1020.95 2719.66 1017.96 2723.5 1014.66C2736.29 1003.68 2753.16 998.614 2769.86 1000.97L2805.9 1006.04M2805.9 1006.04L2795.37 1034.14M2805.9 1006.04C2811.35 989.629 2828.79 957.013 2855.01 957.859C2887.79 958.916 2905.77 957.858 2913.17 977.949M2795.37 1034.14L2804.27 1081.92M2636.21 1520.68C2644.76 1574.81 2673.85 1686.28 2721.75 1699.18C2762.73 1710.21 2791.46 1693.37 2804.91 1679.38C2808.9 1675.24 2811.26 1669.9 2812.94 1664.41L2843.37 1565.14M2636.21 1520.68C2637.45 1519.79 2638.63 1518.84 2639.73 1517.85M2636.21 1520.68C2627.64 1526.89 2616.29 1530.83 2607.04 1531.78M2858.76 1514.96L2820.76 1520.72M2858.76 1514.96L2843.37 1565.14M2820.76 1520.72C2817.31 1557.94 2805.56 1637.92 2786.22 1660.03C2773.9 1674.11 2754.09 1677.1 2737.05 1676.04C2721.13 1675.04 2708.67 1663.37 2701.84 1648.96L2639.73 1517.85M2820.76 1520.72C2810.25 1526.34 2786.82 1530.21 2777.2 1500.74C2772.94 1487.72 2769.03 1475.39 2765.74 1464.89M2607.04 1531.78L2656.12 1662.33C2663.8 1678.45 2688.59 1712.53 2726.35 1719.9C2734.82 1721.55 2742.68 1722.16 2749.86 1722.01M2843.37 1565.14C2841.98 1593.32 2838.03 1653.81 2833.43 1670.39C2829.79 1683.48 2815.88 1695.03 2805.27 1701.77C2800.41 1704.86 2795.7 1708.26 2790.76 1711.23C2782.2 1716.36 2768.24 1721.63 2749.86 1722.01M2765.17 1321.03L2778.01 1402.62C2779.37 1411.25 2776.11 1419.96 2769.42 1425.57V1425.57C2761.82 1431.95 2758.72 1442.23 2761.65 1451.71C2762.86 1455.65 2764.23 1460.08 2765.74 1464.89M2765.17 1321.03L2812.54 1313.51C2824.87 1313.15 2846.69 1311.09 2860.16 1305.79M2765.17 1321.03C2756.57 1238.55 2753.71 1081.88 2811.03 1115.01M2811.03 1115.01C2817.55 1113.51 2834.19 1110.65 2848.63 1111.25C2866.67 1112 2891.49 1176.67 2900.51 1196.97C2909.53 1217.27 2877.95 1283.44 2871.18 1297.72C2869.63 1301 2865.57 1303.65 2860.16 1305.79M2811.03 1115.01L2804.27 1081.92M2811.03 1115.01C2815.79 1121.43 2826.19 1187.68 2820.99 1218.85C2818.11 1236.12 2829.6 1255.22 2841.4 1269.07C2850.12 1279.31 2857.41 1291.03 2859.87 1304.25L2860.16 1305.79M2804.27 1081.92C2822.06 1061.62 2861.26 1021.47 2875.7 1023.28C2893.74 1025.53 2904.27 1015.76 2907.28 1030.8C2908.42 1036.5 2908.25 1044.24 2907.55 1051.76C2906.26 1065.52 2907.83 1079.6 2914.31 1091.8L2925.26 1112.41C2928.29 1118.11 2930.34 1124.28 2931.34 1130.66L2936.47 1163.47C2937.06 1167.24 2937.27 1171.07 2937.11 1174.89L2933.51 1259.42C2933.07 1269.68 2929.54 1279.56 2923.38 1287.77L2891.02 1330.93C2886.08 1337.52 2876.12 1337.32 2871.44 1330.54V1330.54C2868.22 1325.87 2868.69 1319.58 2872.56 1315.44L2899.03 1287.18C2906.39 1279.32 2911.41 1269.58 2913.55 1259.04L2921.57 1219.41C2922.56 1214.49 2922.92 1209.47 2922.62 1204.46L2919.13 1145.81C2918.75 1139.36 2917.29 1133.01 2914.81 1127.04L2892.99 1074.41M2892.99 1074.41L2869.77 1067.07C2866.38 1066 2862.69 1066.51 2859.72 1068.46L2843.24 1079.24C2837.68 1082.88 2830.88 1076.83 2833.85 1070.88V1070.88C2834.18 1070.23 2834.61 1069.64 2835.13 1069.13L2860.49 1044.39C2863.54 1041.41 2867.41 1039.42 2871.61 1038.68L2874.53 1038.17C2883.7 1036.55 2892.59 1042.2 2895.01 1051.2V1051.2C2895.66 1053.61 2895.8 1056.13 2895.42 1058.6L2892.99 1074.41ZM2913.17 977.949L2877.69 897.163L2861.85 865.5C2854.9 851.595 2863.75 834.988 2879.17 832.999V832.999C2895.51 830.89 2904.17 812.547 2895.4 798.589L2890.26 790.398C2877.06 769.381 2894.88 742.635 2919.36 746.714L2923.53 747.409C2942.22 750.525 2959.24 736.107 2959.24 717.153V711.028C2959.24 690.753 2942.45 674.51 2922.19 675.185L2869.83 676.93C2846.07 677.722 2824.23 663.933 2814.73 642.138L2800.75 610.065C2796.33 599.925 2789.17 591.298 2779.97 585.156C2680.06 518.45 2498.74 401.372 2474.19 401.372M2653.21 1221.36C2657.33 1230.54 2691.1 1294.19 2687.2 1343.55C2684.57 1376.95 2679.88 1446.79 2676.93 1491.89C2676.01 1505.95 2682.05 1515.02 2695.77 1511.79C2703.45 1509.98 2713.77 1507.27 2727.47 1503.31C2774.23 1489.8 2772.47 1472.07 2765.74 1464.89M2349.35 2045.87C2314.2 2067.69 2236.26 2112.78 2205.71 2118.6C2177.49 2123.98 2129.4 2132 2080.29 2113.3M2349.35 2045.87L2400.26 2049.51M2349.35 2045.87L2388.27 2032.79C2398.32 2029.42 2406.68 2041.07 2400.26 2049.51V2049.51M2080.29 2113.3C2069.84 2109.33 2059.36 2104.14 2049 2097.47C2036.67 2089.52 2020.43 2088.95 2009.01 2098.17V2098.17C1995 2109.47 1974.3 2106.15 1964.53 2091.04L1924.31 2028.84C1914.59 2013.79 1912.51 1995.05 1918.7 1978.24V1978.24C1925.46 1959.88 1941.18 1946.28 1960.31 1942.22L1962.1 1941.84M2080.29 2113.3L2082.31 2119.56C2088.23 2137.91 2102.88 2152.11 2121.4 2157.47L2152.33 2166.41C2163.42 2169.62 2175.22 2169.44 2186.22 2165.9L2285.72 2133.84C2292.13 2131.78 2298.13 2128.61 2303.46 2124.49L2400.26 2049.51M2400.26 2049.51L2447.61 2070.47C2449.04 2071.1 2450.6 2069.93 2450.41 2068.39L2438.87 1977.89M1962.1 1941.84C1963.75 1930.67 1963.09 1905.36 1947.31 1893.53C1931.54 1881.7 1948.2 1832.89 1958.5 1809.97C1968.11 1789.84 1983.21 1742.15 1966.74 1712.5C1950.26 1682.85 1944.62 1643.83 1943.85 1628.03M1962.1 1941.84C1969.66 1970.23 1999.32 2027.22 2057.47 2028.08C2115.62 2028.93 2145.84 1974.27 2153.68 1946.83C2154.77 1944.25 2156.16 1941.35 2157.83 1938.32M1943.85 1628.03C1954.68 1601.74 1965.37 1545.84 1921.44 1532.67C1893.23 1524.2 1870.31 1522.08 1854.85 1522.37C1842.7 1522.6 1832.31 1529.6 1824.06 1538.53C1798.63 1566.02 1756.15 1602.71 1723.75 1599.93M1723.75 1599.93C1675.71 1595.81 1580.98 1525.8 1580.98 1525.8M1723.75 1599.93L1697.89 1596.54C1668.28 1592.66 1640.82 1612.68 1635.45 1642.06V1642.06M1580.98 1525.8C1580.98 1525.8 1610.83 1616.95 1592.48 1649.12M1580.98 1525.8C1569.24 1512.14 1552.18 1484.21 1548.39 1452.96M1592.48 1649.12C1594.7 1648.71 1596.98 1648.3 1599.32 1647.88M1635.45 1642.06C1622.4 1644 1610.24 1645.95 1599.32 1647.88M1635.45 1642.06C1646.76 1640.37 1658.74 1638.7 1671.16 1637.04M2063.87 1648.78C2084.13 1677.95 2112.59 1714.99 2127.79 1717.09C2144.78 1719.43 2213.69 1723.03 2288.35 1712.16M2063.87 1648.78L2078.71 1636.09M2078.71 1636.09V1636.09C2073.41 1631.05 2077.9 1622.19 2085.1 1623.5L2098.53 1625.93C2103.35 1626.8 2107.08 1630.63 2107.82 1635.46L2112.04 1663.05C2113.08 1669.81 2108.01 1675.96 2101.18 1676.24V1676.24C2096.11 1676.45 2091.52 1673.31 2089.87 1668.52L2078.71 1636.09ZM2141.94 1498.34L2263.36 1517.36C2269.38 1518.3 2275.51 1518.29 2281.53 1517.33L2399.81 1498.34M2141.94 1498.34C2179.16 1399.83 2364.32 1383.87 2486.71 1389.33C2509.79 1390.35 2522.25 1415.83 2509.96 1435.38V1435.38C2504.93 1443.38 2496.55 1448.67 2487.17 1449.77L2466.92 1452.16C2454.97 1453.56 2443.75 1458.65 2434.82 1466.72L2399.81 1498.34M1454.7 1141.84C1452.56 948.674 1446.12 877.847 1540.55 671.804C1554.41 641.58 1570.48 610.803 1588.71 580.427M1454.7 1141.84L1418.34 1020.2C1414 1005.69 1395.33 1001.73 1385.48 1013.23V1013.23C1374.56 1025.96 1353.71 1019.48 1351.93 1002.8L1343.34 922.072C1342.63 915.397 1343.17 908.648 1344.93 902.169L1383.29 760.713C1386.48 748.938 1393.31 738.47 1402.79 730.798L1588.71 580.427M1454.7 1141.84C1455.95 1254.01 1499.17 1303.94 1529.74 1337.85M2474.19 401.372C2449.15 375.617 2342.4 315.091 2115.76 279.034C1874.01 240.573 1694.77 403.716 1588.71 580.427M1529.74 1337.85C1551.81 1362.34 1567.28 1378.49 1555.58 1403.68C1548.01 1420 1546.45 1436.91 1548.39 1452.96M1529.74 1337.85L1519.87 1450.75M1519.87 1450.75L1534.13 1451.86M1519.87 1450.75L1505.96 1574.73C1505.49 1578.89 1510.54 1581.29 1513.47 1578.31V1578.31M1548.39 1452.96L1534.13 1451.86M1534.13 1451.86L1540.14 1575.38C1540.36 1579.98 1534.74 1582.36 1531.6 1579.01V1579.01M1513.47 1578.31V1578.31C1518.34 1573.35 1526.37 1573.44 1531.13 1578.51L1531.6 1579.01M1513.47 1578.31L1511.66 1609.1M1511.66 1609.1L1529.05 1611.15M1511.66 1609.1L1493.38 1685.01M1529.05 1611.15L1531.6 1579.01M1493.38 1685.01L1483.28 1690.63C1467.69 1699.28 1469.61 1722.28 1486.41 1728.24V1728.24M1493.38 1685.01L1537.68 1686.99M1486.41 1728.24L1533.82 1732.42M1486.41 1728.24L1485.3 1738.51M1533.82 1732.42L1526.46 1818.21C1525.89 1824.94 1520.35 1830.17 1513.59 1830.36V1830.36M1599.32 1647.88C1593.58 1655.76 1584.63 1674.07 1594.81 1684.25C1605 1694.44 1649.91 1765.9 1671.1 1800.35M1973.85 1291.21C1973.1 1347.78 1983.07 1465.65 2028.92 1484.53C2074.78 1503.41 2106.47 1502.89 2116.59 1500.26M1927.77 1372.13L1945.75 1460.93C1950.62 1487.52 1972.95 1538.48 2023.3 1529.48M1845.72 1261.99C1846.47 1296.83 1849.32 1366.52 1854.71 1366.52C1861.46 1366.52 1868.2 1373.26 1869.33 1383.37C1870.45 1393.49 1861.46 1465.42 1883.94 1485.65M2604.86 667.794C2621.42 677.985 2660.66 720.536 2685.12 809.205C2709.58 897.873 2715.69 948.068 2715.69 962.082M2674.92 633.396C2691.91 660.574 2729.96 727.416 2746.27 777.355C2762.57 827.295 2768.35 868.657 2769.2 883.095M2764.1 690.725C2788.07 715.835 2837.16 773.156 2841.82 801.561M2211.4 1908.35C2187.28 1898.12 2167.68 1920.49 2157.83 1938.32M2211.4 1908.35C2239.63 1920.32 2187.45 1933.32 2157.83 1938.32M2211.4 1908.35C2226.37 1906.57 2255.02 1889.32 2249.89 1834.59C2249.24 1827.71 2248.57 1821.57 2247.88 1816.11C2244.54 1789.82 2245.19 1791.25 2261.37 1812.25C2302.6 1865.78 2366.69 1935.96 2422.57 1958.2C2431.05 1961.57 2437.72 1968.84 2438.87 1977.89V1977.89M1513.59 1830.36C1535.72 1881.25 1592.25 1994.91 1641.37 2042.42C1702.78 2101.81 1787.79 2224.15 2060.37 2245.53M1513.59 1830.36L1485.34 1831.15M2060.37 2245.53C2067.45 2252.25 2076.35 2258.77 2085.49 2264.61M2085.49 2264.61C2094.43 2270.32 2103.6 2275.39 2111.53 2279.38C2118.17 2282.73 2124.3 2287.07 2129.67 2292.22C2198.64 2358.3 2266.96 2350.7 2317.76 2344.95C2341.39 2342.28 2365.22 2323.62 2386.3 2304.29M2085.49 2264.61L1927.3 2247.51C1868.03 2233.75 1774.67 2203.85 1715.62 2152.25C1647.44 2092.67 1543.1 1994.55 1485.34 1831.15M1485.34 1831.15V1831.15C1480 1831.29 1475.76 1826.7 1476.34 1821.39L1485.3 1738.51M1485.3 1738.51C1473.4 1736.03 1447.05 1738.43 1436.74 1767.86C1423.87 1804.65 1436.74 1808.33 1429.39 1845.12C1422.03 1881.91 1393.52 1854.32 1385.24 1905.82C1376.96 1957.33 1378.8 2158.75 1371.44 2175.3C1364.09 2191.86 1336.49 2255.32 1340.17 2278.31C1343.85 2301.31 1340.94 2388.61 1323.64 2427.05C1310.03 2457.3 1242.01 2724.25 1208.07 2860.48C1206.93 2865.06 1206.39 2869.66 1206.31 2874.38C1206.24 2878.1 1206.12 2882.35 1205.93 2886.77M1146.82 3042.26C1142.52 3087.42 1142.1 3253.9 1142.07 3303.08C1142.06 3310.75 1148.2 3316.88 1155.86 3316.7C1194.63 3315.77 1302.97 3309.64 1321.98 3270.06M1146.82 3042.26C1148.92 3020.15 1155.37 3000.83 1163.18 2984.32M1146.82 3042.26C1190 3065.91 1281.25 3113.88 1300.85 3116.58C1320.45 3119.28 1472.18 3075.97 1545.59 3053.97M1321.98 3270.06C1320.36 3278.46 1319.11 3287.19 1318.26 3296.24C1317.61 3303.1 1318.53 3309.97 1320.32 3316.62C1326.95 3341.11 1336.11 3383.89 1334.9 3416.49C1333.16 3463.57 1300.02 3503.68 1329.67 3580.41C1336.51 3598.11 1343.66 3618.7 1352.54 3640.35M1687.75 2786.82L1608.36 2519.81C1605.27 2509.41 1599.25 2500.18 1591.57 2492.52C1565.71 2466.74 1529.69 2422.31 1529.69 2387.3M2593.48 2345.53L2479.39 2256.51M2593.48 2345.53C2589.21 2349.49 2584.94 2353.47 2580.68 2357.44M2479.39 2256.51C2466.34 2258.94 2454.61 2260.29 2446.15 2258.36C2434.06 2255.62 2412.27 2280.47 2386.3 2304.29M2580.68 2357.44L2450.4 2353.23C2432.94 2352.67 2416.66 2344.26 2406.09 2330.34L2386.3 2304.29M2694.97 2378.17L2693.09 2639.91M3565.05 3426.28L3469.43 3035.41C3468.44 3031.38 3465.07 3028.37 3460.95 3027.86L3419.3 3022.65M3419.3 3022.65L3286.21 3125.77M3419.3 3022.65L3630.98 1955.2M3183.51 3204.05C3154.62 3231.27 3084.95 3280.87 3037.43 3261.47C3006.67 3248.92 2985.43 3238.06 2972.51 3230.53C2963.14 3225.07 2956.76 3216.03 2953.24 3205.76L2928.5 3133.72C2921.72 3113.98 2904.26 3099.86 2883.55 3097.35V3097.35C2880.25 3096.95 2877.33 3099.46 2877.24 3102.78L2869.1 3392.87M2749.86 1722.01C2751.95 1742.88 2748.7 1784.62 2724.67 1812.86C2713.46 1826.02 2702.17 1840.07 2698.79 1857.02C2681.89 1941.71 2645.45 2079.36 2601.3 2113.39C2577.3 2131.9 2558.22 2143.22 2544.02 2149.87C2526.97 2157.86 2510.69 2146.48 2493.95 2137.84C2485.54 2133.5 2475.08 2131.19 2462.93 2133.89M2321.99 2153.11C2341.64 2151.4 2382.98 2156.19 2391.18 2188.99M2047.28 1737.71C2074.39 1767.72 2127.45 1843.14 2122.8 1904.72M3142.57 1780.87C3160.2 1794.32 3200.98 1817.23 3249.32 1825.29C3263.77 1827.71 3297.66 1858.18 3310.09 1865.95V1865.95C3335.38 1881.75 3429.96 1895.11 3483.55 1900.89C3491.11 1901.71 3498.41 1903.93 3505.17 1907.4C3540.25 1925.37 3601.77 1953.66 3630.98 1955.2M3630.98 1955.2C3663.28 1956.9 3759.19 2023.91 3803.11 2057.2M2288.35 1712.16C2363.01 1735.23 2515.69 1800.6 2529.12 1877.52C2535.63 1914.79 2536.9 1942.34 2535.8 1961.76C2534.49 1984.61 2513.22 1994.82 2490.9 1989.74L2438.87 1977.89M3681.95 4329.38L3811.54 4329.46M1691.38 3860.71L1660.53 3888.46C1644.01 3903.32 1637.44 3926.31 1643.6 3947.66L1658.81 4000.37M1352.54 3640.35L1511.04 3313.08C1527.99 3278.09 1573.9 3269.36 1602.51 3295.68L1722.18 3405.79M1406.66 2301.96L1418.88 2481.18C1419.73 2493.64 1424.61 2505.43 1432.47 2515.14C1470.66 2562.24 1529.69 2645.77 1532.93 2694.28M1205.93 2886.77C1205.42 2898.61 1204.4 2911.7 1202.53 2919.18C1199.97 2929.44 1178.83 2951.22 1163.18 2984.32M1205.93 2886.77L1373.56 2875.2C1383.49 2874.51 1393.42 2876.39 1402.41 2880.65L1572.1 2961.11M2127.76 3107.27C2078.12 3102.3 2040.62 3056.92 2025.96 3031.52C2024.91 3029.69 2026.1 3027.44 2028.2 3027.21C2054.04 3024.39 2100.68 3020.11 2110.54 3022.35C2123.61 3025.32 2193.08 3113.8 2127.76 3107.27ZM1887.35 1135.84V1135.84C1878.38 1143.95 1878.44 1158.06 1887.47 1166.1V1166.1C1895.47 1173.22 1907.62 1172.93 1915.25 1165.43V1165.43C1923.5 1157.31 1923.32 1143.95 1914.86 1136.06V1136.06C1907.14 1128.85 1895.18 1128.75 1887.35 1135.84ZM2550.6 3018.22L2550.54 3018.29C2549.49 3019.54 2547.59 3019.6 2546.46 3018.42V3018.42C2545.32 3017.22 2545.5 3015.29 2546.84 3014.32L2546.91 3014.26C2548 3013.47 2549.5 3013.59 2550.45 3014.54V3014.54C2551.45 3015.54 2551.51 3017.14 2550.6 3018.22ZM2528.63 3022.08L2528.56 3022.16C2527.51 3023.41 2525.61 3023.46 2524.48 3022.28V3022.28C2523.35 3021.08 2523.52 3019.15 2524.86 3018.18L2524.94 3018.12C2526.02 3017.33 2527.52 3017.45 2528.47 3018.4V3018.4C2529.47 3019.4 2529.54 3021 2528.63 3022.08ZM2555.2 3043.07V3043.07C2543.88 3051.33 2528.27 3050.31 2518.12 3040.65L2517.39 3039.95C2505.47 3028.6 2505.38 3009.6 2517.2 2998.14V2998.14C2528.52 2987.17 2546.52 2987.24 2557.75 2998.31L2558.46 2999.01C2571.19 3011.56 2569.64 3032.53 2555.2 3043.07ZM1746.74 4077.19V4077.19C1746.17 4070.62 1751.4 4065.01 1757.99 4065.09L1780.41 4065.4C1786.97 4065.49 1792.09 4071.12 1791.54 4077.66V4077.66C1791.04 4083.66 1785.94 4088.22 1779.92 4088.04L1757.52 4087.38C1751.86 4087.22 1747.22 4082.84 1746.74 4077.19Z" stroke="#7481A1" stroke-width="10"/>
</svg>
