<svg width="367" height="2626" viewBox="0 0 367 2626" fill="none" xmlns="http://www.w3.org/2000/svg">
<rect x="3.16052" y="1600.28" width="360" height="1025.68" fill="#161B22"/>
<rect x="3.16052" y="800.278" width="360" height="800" fill="#161B22"/>
<rect x="3.16052" y="0.277832" width="360" height="800" fill="#161B22"/>
<path d="M3.16051 721.759L48.1605 721.759M3.16051 721.759L3.16051 781.765M3.16051 721.759L3.16051 661.753M363.161 721.759L363.161 781.765M363.161 721.759L363.161 661.753M363.161 721.759L318.161 721.759M183.161 961.784L183.161 901.778M183.161 961.784L138.161 961.784M183.161 961.784L228.161 961.784M183.161 481.735L183.161 541.741M183.161 481.735L138.161 481.735M183.161 481.735L228.161 481.735M3.16052 841.772L3.16052 901.778M3.16052 841.772L48.1605 841.772M3.16052 841.772L3.16051 781.765M183.161 841.772L183.161 901.778M183.161 841.772L138.161 841.772M183.161 841.772L183.161 781.765M183.161 841.772L228.161 841.772M363.161 841.772L363.161 901.778M363.161 841.772L363.161 781.765M363.161 841.772L318.161 841.772M3.16051 601.747L48.1605 601.747M3.16051 601.747L3.16051 661.753M3.16051 601.747L3.1605 541.741M183.161 601.747L183.161 661.753M183.161 601.747L183.161 541.741M183.161 601.747L138.161 601.747M183.161 601.747L228.161 601.747M363.161 601.747L363.161 661.753M363.161 601.747L363.161 541.741M363.161 601.747L318.161 601.747M93.1605 961.784L93.1605 901.778M93.1605 961.784L48.1605 961.784M93.1605 961.784L138.161 961.784M93.1605 841.772L93.1605 901.778M93.1605 841.772L48.1605 841.772M93.1605 841.772L138.161 841.772M93.1605 841.772L93.1605 781.765M93.1605 721.759L48.1605 721.759M93.1605 721.759L93.1605 781.765M93.1605 721.759L93.1605 661.753M93.1605 721.759L138.161 721.759M93.1605 601.747L48.1605 601.747M93.1605 601.747L93.1605 661.753M93.1605 601.747L93.1605 541.741M93.1605 601.747L138.161 601.747M93.1605 481.735L48.1605 481.735M93.1605 481.735L93.1605 541.741M93.1605 481.735L138.161 481.735M273.161 481.735L273.161 541.741M273.161 481.735L318.161 481.735M273.161 481.735L228.161 481.735M273.161 601.747L273.161 661.753M273.161 601.747L273.161 541.741M273.161 601.747L318.161 601.747M273.161 601.747L228.161 601.747M273.161 721.759L273.161 781.765M273.161 721.759L273.161 661.753M273.161 721.759L318.161 721.759M273.161 721.759L228.161 721.759M273.161 841.772L273.161 901.778M273.161 841.772L273.161 781.765M273.161 841.772L318.161 841.772M273.161 841.772L228.161 841.772M273.161 961.784L273.161 901.778M273.161 961.784L318.161 961.784M273.161 961.784L228.161 961.784M3.16052 901.778L3.16052 961.784L48.1605 961.784M3.16052 901.778L93.1605 901.778M93.1605 901.778L183.161 901.778M183.161 901.778L273.161 901.778M273.161 901.778L363.161 901.778M363.161 901.778L363.161 961.784L318.161 961.784M48.1605 961.784L48.1605 841.772M48.1605 841.772L48.1605 721.759M48.1605 721.759L48.1605 601.747M48.1605 601.747L48.1605 481.735M48.1605 481.735L3.1605 481.735L3.1605 541.741M138.161 961.784L138.161 841.772M138.161 841.772L138.161 721.759M93.1605 781.765L183.161 781.765M93.1605 781.765L3.16051 781.765M273.161 781.765L228.161 781.765M273.161 781.765L318.161 781.765M363.161 781.765L318.161 781.765M363.161 661.753L318.161 661.753M273.161 661.753L228.161 661.753M273.161 661.753L318.161 661.753M183.161 781.765L183.161 721.759L183.161 661.753M183.161 781.765L228.161 781.765M183.161 661.753L93.1605 661.753M183.161 661.753L228.161 661.753M93.1605 661.753L3.16051 661.753M3.1605 541.741L93.1605 541.741M93.1605 541.741L183.161 541.741M183.161 541.741L228.161 541.741M273.161 541.741L228.161 541.741M273.161 541.741L318.161 541.741M363.161 541.741L363.161 481.735L318.161 481.735M363.161 541.741L318.161 541.741M318.161 481.735L318.161 541.741M318.161 601.747L318.161 661.753M318.161 601.747L318.161 541.741M318.161 721.759L318.161 781.765M318.161 721.759L318.161 661.753M318.161 841.772L318.161 961.784M318.161 841.772L318.161 781.765M138.161 601.747L138.161 721.759M138.161 601.747L138.161 481.735M138.161 721.759L228.161 721.759M228.161 481.735L228.161 541.741M228.161 541.741L228.161 601.747M228.161 601.747L228.161 661.753M228.161 721.759L228.161 781.765M228.161 721.759L228.161 661.753M228.161 841.772L228.161 961.784M228.161 841.772L228.161 781.765" stroke="white" stroke-opacity="0.02" stroke-width="0.5"/>
<path d="M3.16027 1201.81L48.1603 1201.81M3.16027 1201.81L3.16027 1261.81M3.16027 1201.81L3.16027 1141.8M363.16 1201.81L363.16 1261.81M363.16 1201.81L363.16 1141.8M363.16 1201.81L318.16 1201.81M183.16 1441.83L183.16 1381.83M183.16 1441.83L138.16 1441.83M183.16 1441.83L228.16 1441.83M183.16 961.784L183.16 1021.79M183.16 961.784L138.16 961.784M183.16 961.784L228.16 961.784M3.16027 1321.82L3.16028 1381.83M3.16027 1321.82L48.1603 1321.82M3.16027 1321.82L3.16027 1261.81M183.16 1321.82L183.16 1381.83M183.16 1321.82L138.16 1321.82M183.16 1321.82L183.16 1261.81M183.16 1321.82L228.16 1321.82M363.16 1321.82L363.16 1381.83M363.16 1321.82L363.16 1261.81M363.16 1321.82L318.16 1321.82M3.16026 1081.8L48.1603 1081.8M3.16026 1081.8L3.16027 1141.8M3.16026 1081.8L3.16026 1021.79M183.16 1081.8L183.16 1141.8M183.16 1081.8L183.16 1021.79M183.16 1081.8L138.16 1081.8M183.16 1081.8L228.16 1081.8M363.16 1081.8L363.16 1141.8M363.16 1081.8L363.16 1021.79M363.16 1081.8L318.16 1081.8M93.1603 1441.83L93.1603 1381.83M93.1603 1441.83L48.1603 1441.83M93.1603 1441.83L138.16 1441.83M93.1603 1321.82L93.1603 1381.83M93.1603 1321.82L48.1603 1321.82M93.1603 1321.82L138.16 1321.82M93.1603 1321.82L93.1603 1261.81M93.1603 1201.81L48.1603 1201.81M93.1603 1201.81L93.1603 1261.81M93.1603 1201.81L93.1603 1141.8M93.1603 1201.81L138.16 1201.81M93.1603 1081.8L48.1603 1081.8M93.1603 1081.8L93.1603 1141.8M93.1603 1081.8L93.1603 1021.79M93.1603 1081.8L138.16 1081.8M93.1603 961.784L48.1603 961.784M93.1603 961.784L93.1603 1021.79M93.1603 961.784L138.16 961.784M273.16 961.784L273.16 1021.79M273.16 961.784L318.16 961.784M273.16 961.784L228.16 961.784M273.16 1081.8L273.16 1141.8M273.16 1081.8L273.16 1021.79M273.16 1081.8L318.16 1081.8M273.16 1081.8L228.16 1081.8M273.16 1201.81L273.16 1261.81M273.16 1201.81L273.16 1141.8M273.16 1201.81L318.16 1201.81M273.16 1201.81L228.16 1201.81M273.16 1321.82L273.16 1381.83M273.16 1321.82L273.16 1261.81M273.16 1321.82L318.16 1321.82M273.16 1321.82L228.16 1321.82M273.16 1441.83L273.16 1381.83M273.16 1441.83L318.16 1441.83M273.16 1441.83L228.16 1441.83M3.16028 1381.83L3.16028 1441.83L48.1603 1441.83M3.16028 1381.83L93.1603 1381.83M93.1603 1381.83L183.16 1381.83M183.16 1381.83L273.16 1381.83M273.16 1381.83L363.16 1381.83M363.16 1381.83L363.16 1441.83L318.16 1441.83M48.1603 1441.83L48.1603 1321.82M48.1603 1321.82L48.1603 1201.81M48.1603 1201.81L48.1603 1081.8M48.1603 1081.8L48.1603 961.784M48.1603 961.784L3.16026 961.784L3.16026 1021.79M138.16 1441.83L138.16 1321.82M138.16 1321.82L138.16 1201.81M93.1603 1261.81L183.16 1261.81M93.1603 1261.81L3.16027 1261.81M273.16 1261.81L228.16 1261.81M273.16 1261.81L318.16 1261.81M363.16 1261.81L318.16 1261.81M363.16 1141.8L318.16 1141.8M273.16 1141.8L228.16 1141.8M273.16 1141.8L318.16 1141.8M183.16 1261.81L183.16 1201.81L183.16 1141.8M183.16 1261.81L228.16 1261.81M183.16 1141.8L93.1603 1141.8M183.16 1141.8L228.16 1141.8M93.1603 1141.8L3.16027 1141.8M3.16026 1021.79L93.1603 1021.79M93.1603 1021.79L183.16 1021.79M183.16 1021.79L228.16 1021.79M273.16 1021.79L228.16 1021.79M273.16 1021.79L318.16 1021.79M363.16 1021.79L363.16 961.784L318.16 961.784M363.16 1021.79L318.16 1021.79M318.16 961.784L318.16 1021.79M318.16 1081.8L318.16 1141.8M318.16 1081.8L318.16 1021.79M318.16 1201.81L318.16 1261.81M318.16 1201.81L318.16 1141.8M318.16 1321.82L318.16 1441.83M318.16 1321.82L318.16 1261.81M138.16 1081.8L138.16 1201.81M138.16 1081.8L138.16 961.784M138.16 1201.81L228.16 1201.81M228.16 961.784L228.16 1021.79M228.16 1021.79L228.16 1081.8M228.16 1081.8L228.16 1141.8M228.16 1201.81L228.16 1261.81M228.16 1201.81L228.16 1141.8M228.16 1321.82L228.16 1441.83M228.16 1321.82L228.16 1261.81" stroke="white" stroke-opacity="0.02" stroke-width="0.5"/>
<path d="M3.16051 1681.86L48.1605 1681.86M3.16051 1681.86L3.16051 1741.86M3.16051 1681.86L3.16051 1621.85M363.161 1681.86L363.161 1741.86M363.161 1681.86L363.161 1621.85M363.161 1681.86L318.161 1681.86M183.161 1921.88L183.161 1861.88M183.161 1921.88L138.161 1921.88M183.161 1921.88L228.161 1921.88M183.161 1441.83L183.161 1501.84M183.161 1441.83L138.161 1441.83M183.161 1441.83L228.161 1441.83M3.16052 1801.87L3.16052 1861.88M3.16052 1801.87L48.1605 1801.87M3.16052 1801.87L3.16051 1741.86M183.161 1801.87L183.161 1861.88M183.161 1801.87L138.161 1801.87M183.161 1801.87L183.161 1741.86M183.161 1801.87L228.161 1801.87M363.161 1801.87L363.161 1861.88M363.161 1801.87L363.161 1741.86M363.161 1801.87L318.161 1801.87M3.16051 1561.85L48.1605 1561.85M3.16051 1561.85L3.16051 1621.85M3.16051 1561.85L3.1605 1501.84M183.161 1561.85L183.161 1621.85M183.161 1561.85L183.161 1501.84M183.161 1561.85L138.161 1561.85M183.161 1561.85L228.161 1561.85M363.161 1561.85L363.161 1621.85M363.161 1561.85L363.161 1501.84M363.161 1561.85L318.161 1561.85M93.1605 1921.88L93.1605 1861.88M93.1605 1921.88L48.1605 1921.88M93.1605 1921.88L138.161 1921.88M93.1605 1801.87L93.1605 1861.88M93.1605 1801.87L48.1605 1801.87M93.1605 1801.87L138.161 1801.87M93.1605 1801.87L93.1605 1741.86M93.1605 1681.86L48.1605 1681.86M93.1605 1681.86L93.1605 1741.86M93.1605 1681.86L93.1605 1621.85M93.1605 1681.86L138.161 1681.86M93.1605 1561.85L48.1605 1561.85M93.1605 1561.85L93.1605 1621.85M93.1605 1561.85L93.1605 1501.84M93.1605 1561.85L138.161 1561.85M93.1605 1441.83L48.1605 1441.83M93.1605 1441.83L93.1605 1501.84M93.1605 1441.83L138.161 1441.83M273.161 1441.83L273.161 1501.84M273.161 1441.83L318.161 1441.83M273.161 1441.83L228.161 1441.83M273.161 1561.85L273.161 1621.85M273.161 1561.85L273.161 1501.84M273.161 1561.85L318.161 1561.85M273.161 1561.85L228.161 1561.85M273.161 1681.86L273.161 1741.86M273.161 1681.86L273.161 1621.85M273.161 1681.86L318.161 1681.86M273.161 1681.86L228.161 1681.86M273.161 1801.87L273.161 1861.88M273.161 1801.87L273.161 1741.86M273.161 1801.87L318.161 1801.87M273.161 1801.87L228.161 1801.87M273.161 1921.88L273.161 1861.88M273.161 1921.88L318.161 1921.88M273.161 1921.88L228.161 1921.88M3.16052 1861.88L3.16052 1921.88L48.1605 1921.88M3.16052 1861.88L93.1605 1861.88M93.1605 1861.88L183.161 1861.88M183.161 1861.88L273.161 1861.88M273.161 1861.88L363.161 1861.88M363.161 1861.88L363.161 1921.88L318.161 1921.88M48.1605 1921.88L48.1605 1801.87M48.1605 1801.87L48.1605 1681.86M48.1605 1681.86L48.1605 1561.85M48.1605 1561.85L48.1605 1441.83M48.1605 1441.83L3.1605 1441.83L3.1605 1501.84M138.161 1921.88L138.161 1801.87M138.161 1801.87L138.161 1681.86M93.1605 1741.86L183.161 1741.86M93.1605 1741.86L3.16051 1741.86M273.161 1741.86L228.161 1741.86M273.161 1741.86L318.161 1741.86M363.161 1741.86L318.161 1741.86M363.161 1621.85L318.161 1621.85M273.161 1621.85L228.161 1621.85M273.161 1621.85L318.161 1621.85M183.161 1741.86L183.161 1681.86L183.161 1621.85M183.161 1741.86L228.161 1741.86M183.161 1621.85L93.1605 1621.85M183.161 1621.85L228.161 1621.85M93.1605 1621.85L3.16051 1621.85M3.1605 1501.84L93.1605 1501.84M93.1605 1501.84L183.161 1501.84M183.161 1501.84L228.161 1501.84M273.161 1501.84L228.161 1501.84M273.161 1501.84L318.161 1501.84M363.161 1501.84L363.161 1441.83L318.161 1441.83M363.161 1501.84L318.161 1501.84M318.161 1441.83L318.161 1501.84M318.161 1561.85L318.161 1621.85M318.161 1561.85L318.161 1501.84M318.161 1681.86L318.161 1741.86M318.161 1681.86L318.161 1621.85M318.161 1801.87L318.161 1921.88M318.161 1801.87L318.161 1741.86M138.161 1561.85L138.161 1681.86M138.161 1561.85L138.161 1441.83M138.161 1681.86L228.161 1681.86M228.161 1441.83L228.161 1501.84M228.161 1501.84L228.161 1561.85M228.161 1561.85L228.161 1621.85M228.161 1681.86L228.161 1741.86M228.161 1681.86L228.161 1621.85M228.161 1801.87L228.161 1921.88M228.161 1801.87L228.161 1741.86" stroke="white" stroke-opacity="0.02" stroke-width="0.5"/>
<path d="M3.16051 2161.91L48.1605 2161.91M3.16051 2161.91L3.16051 2221.91M3.16051 2161.91L3.16051 2101.9M363.161 2161.91L363.161 2221.91M363.161 2161.91L363.161 2101.9M363.161 2161.91L318.161 2161.91M183.161 2401.93L183.161 2341.93M183.161 2401.93L138.161 2401.93M183.161 2401.93L228.161 2401.93M183.161 1921.88L183.161 1981.89M183.161 1921.88L138.161 1921.88M183.161 1921.88L228.161 1921.88M3.16052 2281.92L3.16052 2341.93M3.16052 2281.92L48.1605 2281.92M3.16052 2281.92L3.16051 2221.91M183.161 2281.92L183.161 2341.93M183.161 2281.92L138.161 2281.92M183.161 2281.92L183.161 2221.91M183.161 2281.92L228.161 2281.92M363.161 2281.92L363.161 2341.93M363.161 2281.92L363.161 2221.91M363.161 2281.92L318.161 2281.92M3.16051 2041.89L48.1605 2041.89M3.16051 2041.89L3.16051 2101.9M3.16051 2041.89L3.1605 1981.89M183.161 2041.89L183.161 2101.9M183.161 2041.89L183.161 1981.89M183.161 2041.89L138.161 2041.89M183.161 2041.89L228.161 2041.89M363.161 2041.89L363.161 2101.9M363.161 2041.89L363.161 1981.89M363.161 2041.89L318.161 2041.89M93.1605 2401.93L93.1605 2341.93M93.1605 2401.93L48.1605 2401.93M93.1605 2401.93L138.161 2401.93M93.1605 2281.92L93.1605 2341.93M93.1605 2281.92L48.1605 2281.92M93.1605 2281.92L138.161 2281.92M93.1605 2281.92L93.1605 2221.91M93.1605 2161.91L48.1605 2161.91M93.1605 2161.91L93.1605 2221.91M93.1605 2161.91L93.1605 2101.9M93.1605 2161.91L138.161 2161.91M93.1605 2041.89L48.1605 2041.89M93.1605 2041.89L93.1605 2101.9M93.1605 2041.89L93.1605 1981.89M93.1605 2041.89L138.161 2041.89M93.1605 1921.88L48.1605 1921.88M93.1605 1921.88L93.1605 1981.89M93.1605 1921.88L138.161 1921.88M273.161 1921.88L273.161 1981.89M273.161 1921.88L318.161 1921.88M273.161 1921.88L228.161 1921.88M273.161 2041.89L273.161 2101.9M273.161 2041.89L273.161 1981.89M273.161 2041.89L318.161 2041.89M273.161 2041.89L228.161 2041.89M273.161 2161.91L273.161 2221.91M273.161 2161.91L273.161 2101.9M273.161 2161.91L318.161 2161.91M273.161 2161.91L228.161 2161.91M273.161 2281.92L273.161 2341.93M273.161 2281.92L273.161 2221.91M273.161 2281.92L318.161 2281.92M273.161 2281.92L228.161 2281.92M273.161 2401.93L273.161 2341.93M273.161 2401.93L318.161 2401.93M273.161 2401.93L228.161 2401.93M3.16052 2341.93L3.16052 2401.93L48.1605 2401.93M3.16052 2341.93L93.1605 2341.93M93.1605 2341.93L183.161 2341.93M183.161 2341.93L273.161 2341.93M273.161 2341.93L363.161 2341.93M363.161 2341.93L363.161 2401.93L318.161 2401.93M48.1605 2401.93L48.1605 2281.92M48.1605 2281.92L48.1605 2161.91M48.1605 2161.91L48.1605 2041.89M48.1605 2041.89L48.1605 1921.88M48.1605 1921.88L3.1605 1921.88L3.1605 1981.89M138.161 2401.93L138.161 2281.92M138.161 2281.92L138.161 2161.91M93.1605 2221.91L183.161 2221.91M93.1605 2221.91L3.16051 2221.91M273.161 2221.91L228.161 2221.91M273.161 2221.91L318.161 2221.91M363.161 2221.91L318.161 2221.91M363.161 2101.9L318.161 2101.9M273.161 2101.9L228.161 2101.9M273.161 2101.9L318.161 2101.9M183.161 2221.91L183.161 2161.91L183.161 2101.9M183.161 2221.91L228.161 2221.91M183.161 2101.9L93.1605 2101.9M183.161 2101.9L228.161 2101.9M93.1605 2101.9L3.16051 2101.9M3.1605 1981.89L93.1605 1981.89M93.1605 1981.89L183.161 1981.89M183.161 1981.89L228.161 1981.89M273.161 1981.89L228.161 1981.89M273.161 1981.89L318.161 1981.89M363.161 1981.89L363.161 1921.88L318.161 1921.88M363.161 1981.89L318.161 1981.89M318.161 1921.88L318.161 1981.89M318.161 2041.89L318.161 2101.9M318.161 2041.89L318.161 1981.89M318.161 2161.91L318.161 2221.91M318.161 2161.91L318.161 2101.9M318.161 2281.92L318.161 2401.93M318.161 2281.92L318.161 2221.91M138.161 2041.89L138.161 2161.91M138.161 2041.89L138.161 1921.88M138.161 2161.91L228.161 2161.91M228.161 1921.88L228.161 1981.89M228.161 1981.89L228.161 2041.89M228.161 2041.89L228.161 2101.9M228.161 2161.91L228.161 2221.91M228.161 2161.91L228.161 2101.9M228.161 2281.92L228.161 2401.93M228.161 2281.92L228.161 2221.91" stroke="white" stroke-opacity="0.02" stroke-width="0.5"/>
<path d="M183.161 2401.93L183.161 2461.94M183.161 2401.93L138.161 2401.93M183.161 2401.93L228.161 2401.93M3.16052 2521.94L48.1605 2521.94M3.16052 2521.94L3.16052 2581.95L93.1605 2581.95M3.16052 2521.94L3.16052 2461.94M183.161 2521.94L183.161 2581.95M183.161 2521.94L183.161 2461.94M183.161 2521.94L138.161 2521.94M183.161 2521.94L228.161 2521.94M363.161 2521.94L363.161 2581.95L318.161 2581.95M363.161 2521.94L363.161 2461.94M363.161 2521.94L318.161 2521.94M93.1605 2521.94L48.1605 2521.94M93.1605 2521.94L93.1605 2581.95M93.1605 2521.94L93.1605 2461.94M93.1605 2521.94L138.161 2521.94M93.1605 2401.93L48.1605 2401.93M93.1605 2401.93L93.1605 2461.94M93.1605 2401.93L138.161 2401.93M273.161 2401.93L273.161 2461.94M273.161 2401.93L318.161 2401.93M273.161 2401.93L228.161 2401.93M273.161 2521.94L273.161 2581.95M273.161 2521.94L273.161 2461.94M273.161 2521.94L318.161 2521.94M273.161 2521.94L228.161 2521.94M48.1605 2521.94L48.1605 2401.93M48.1605 2401.93L3.16051 2401.93L3.16052 2461.94M273.161 2581.95L228.161 2581.95M273.161 2581.95L318.161 2581.95M183.161 2581.95L93.1605 2581.95M183.161 2581.95L228.161 2581.95M3.16052 2461.94L93.1605 2461.94M93.1605 2461.94L183.161 2461.94M183.161 2461.94L228.161 2461.94M273.161 2461.94L228.161 2461.94M273.161 2461.94L318.161 2461.94M363.161 2461.94L363.161 2401.93L318.161 2401.93M363.161 2461.94L318.161 2461.94M318.161 2401.93L318.161 2461.94M318.161 2521.94L318.161 2581.95M318.161 2521.94L318.161 2461.94M138.161 2521.94L138.161 2401.93M228.161 2401.93L228.161 2461.94M228.161 2461.94L228.161 2521.94M228.161 2521.94L228.161 2581.95" stroke="white" stroke-opacity="0.02" stroke-width="0.5"/>
<g filter="url(#filter0_d_129_170)">
<path d="M306.578 2287.49L120.679 2213.21C116.228 2211.44 111.684 2215.03 108.76 2222.63L5.16191 2492.03C3.22376 2497.07 2.16024 2503.47 2.16077 2510.07L2.16999 2625.96H362.161L362.161 2592.75C362.161 2589.55 361.91 2586.36 361.419 2583.34L316.234 2305.53C314.709 2296.14 311.028 2289.27 306.578 2287.49Z" fill="url(#paint0_linear_129_170)"/>
</g>
<path d="M306.096 1072.41C307.841 1071.94 309.702 1072.44 310.979 1073.71L325.174 1087.91C326.451 1089.19 326.95 1091.05 326.482 1092.79L321.287 1112.18C320.819 1113.93 319.456 1115.29 317.712 1115.76L298.322 1120.95C296.577 1121.42 294.716 1120.92 293.439 1119.64L279.244 1105.45C277.967 1104.17 277.468 1102.31 277.936 1100.57L283.131 1081.18C283.599 1079.43 284.961 1078.07 286.706 1077.6L306.096 1072.41Z" fill="#252E39"/>
<path d="M298.327 1066.43C298.327 1068.21 296.878 1069.66 295.091 1069.66C293.304 1069.66 291.855 1068.21 291.855 1066.43C291.855 1064.64 293.304 1063.19 295.091 1063.19C296.878 1063.19 298.327 1064.64 298.327 1066.43Z" fill="#252E39"/>
<path d="M339.497 1101.13C339.497 1102.02 338.773 1102.75 337.879 1102.75C336.985 1102.75 336.261 1102.02 336.261 1101.13C336.261 1100.23 336.985 1099.51 337.879 1099.51C338.773 1099.51 339.497 1100.23 339.497 1101.13Z" fill="#252E39" fill-opacity="0.3"/>
<path d="M306.187 1072.74C307.81 1072.31 309.543 1072.77 310.732 1073.96L324.926 1088.16C326.115 1089.35 326.579 1091.08 326.144 1092.7L320.948 1112.09C320.513 1113.72 319.245 1114.98 317.621 1115.42L298.231 1120.61C296.607 1121.05 294.875 1120.59 293.686 1119.4L279.492 1105.2C278.303 1104.01 277.839 1102.28 278.274 1100.66L283.469 1081.27C283.904 1079.64 285.173 1078.37 286.796 1077.94L306.187 1072.74ZM311.227 1073.47C309.861 1072.1 307.871 1071.57 306.005 1072.07L286.615 1077.26C284.75 1077.76 283.293 1079.22 282.793 1081.09L277.598 1100.48C277.098 1102.34 277.631 1104.33 278.997 1105.7L293.191 1119.89C294.557 1121.26 296.547 1121.79 298.412 1121.29L317.802 1116.1C319.668 1115.6 321.125 1114.14 321.625 1112.27L326.82 1092.88C327.32 1091.02 326.787 1089.03 325.421 1087.66L311.227 1073.47ZM333.409 1096.68C333.409 1113.83 319.504 1127.74 302.351 1127.74C285.197 1127.74 271.292 1113.83 271.292 1096.68C271.292 1083.28 279.778 1071.86 291.671 1067.51C292.129 1068.96 293.487 1070.01 295.091 1070.01C297.072 1070.01 298.677 1068.41 298.677 1066.43C298.677 1066.23 298.661 1066.03 298.63 1065.84C299.85 1065.7 301.091 1065.62 302.351 1065.62C319.504 1065.62 333.409 1079.53 333.409 1096.68ZM291.526 1066.81C279.315 1071.24 270.592 1082.94 270.592 1096.68C270.592 1114.22 284.811 1128.44 302.351 1128.44C319.89 1128.44 334.109 1114.22 334.109 1096.68C334.109 1079.14 319.89 1064.92 302.351 1064.92C301.029 1064.92 299.726 1065 298.447 1065.16C297.935 1063.8 296.626 1062.84 295.091 1062.84C293.111 1062.84 291.505 1064.44 291.505 1066.43C291.505 1066.56 291.512 1066.69 291.526 1066.81ZM295.091 1069.31C293.792 1069.31 292.693 1068.45 292.331 1067.27C294.131 1066.66 296.004 1066.21 297.935 1065.93C297.963 1066.09 297.977 1066.26 297.977 1066.43C297.977 1068.02 296.685 1069.31 295.091 1069.31ZM297.73 1065.25C295.83 1065.53 293.984 1065.98 292.209 1066.57C292.206 1066.52 292.205 1066.48 292.205 1066.43C292.205 1064.83 293.497 1063.54 295.091 1063.54C296.268 1063.54 297.281 1064.24 297.73 1065.25ZM337.955 1096.68C337.955 1097.51 337.926 1098.34 337.87 1099.16C336.787 1099.16 335.911 1100.04 335.911 1101.13C335.911 1102.05 336.539 1102.82 337.389 1103.03C334.393 1119.67 319.845 1132.28 302.351 1132.28C282.687 1132.28 266.746 1116.34 266.746 1096.68C266.746 1077.02 282.687 1061.07 302.351 1061.07C322.014 1061.07 337.955 1077.02 337.955 1096.68ZM339.147 1101.13C339.147 1101.71 338.752 1102.2 338.214 1102.35C338.335 1101.58 338.431 1100.81 338.503 1100.02C338.888 1100.24 339.147 1100.65 339.147 1101.13ZM336.611 1101.13C336.611 1100.45 337.144 1099.89 337.815 1099.86C337.741 1100.7 337.638 1101.52 337.507 1102.34C336.988 1102.18 336.611 1101.7 336.611 1101.13Z" stroke="#252E39" stroke-opacity="0.5" stroke-width="0.7"/>
<path d="M3.16051 241.71L48.1605 241.71M3.16051 241.71L3.16051 301.716M3.16051 241.71L3.16051 181.704M363.161 241.71L363.161 301.716M363.161 241.71L363.161 181.704M363.161 241.71L318.161 241.71M183.161 481.735L183.161 421.728M183.161 481.735L138.161 481.735M183.161 481.735L228.161 481.735M183.161 1.68542L183.161 61.6916M183.161 1.68542L138.161 1.68542M183.161 1.68542L228.161 1.68542M3.16052 361.722L3.16052 421.728M3.16052 361.722L48.1605 361.722M3.16052 361.722L3.16051 301.716M183.161 361.722L183.161 421.728M183.161 361.722L138.161 361.722M183.161 361.722L183.161 301.716M183.161 361.722L228.161 361.722M363.161 361.722L363.161 421.728M363.161 361.722L363.161 301.716M363.161 361.722L318.161 361.722M3.16051 121.698L48.1605 121.698M3.16051 121.698L3.16051 181.704M3.16051 121.698L3.1605 61.6916M183.161 121.698L183.161 181.704M183.161 121.698L183.161 61.6916M183.161 121.698L138.161 121.698M183.161 121.698L228.161 121.698M363.161 121.698L363.161 181.704M363.161 121.698L363.161 61.6916M363.161 121.698L318.161 121.698M93.1605 481.735L93.1605 421.728M93.1605 481.735L48.1605 481.735M93.1605 481.735L138.161 481.735M93.1605 361.722L93.1605 421.728M93.1605 361.722L48.1605 361.722M93.1605 361.722L138.161 361.722M93.1605 361.722L93.1605 301.716M93.1605 241.71L48.1605 241.71M93.1605 241.71L93.1605 301.716M93.1605 241.71L93.1605 181.704M93.1605 241.71L138.161 241.71M93.1605 121.698L48.1605 121.698M93.1605 121.698L93.1605 181.704M93.1605 121.698L93.1605 61.6916M93.1605 121.698L138.161 121.698M93.1605 1.68543L48.1605 1.68543M93.1605 1.68543L93.1605 61.6916M93.1605 1.68543L138.161 1.68542M273.161 1.68542L273.161 61.6916M273.161 1.68542L318.161 1.68542M273.161 1.68542L228.161 1.68542M273.161 121.698L273.161 181.704M273.161 121.698L273.161 61.6916M273.161 121.698L318.161 121.698M273.161 121.698L228.161 121.698M273.161 241.71L273.161 301.716M273.161 241.71L273.161 181.704M273.161 241.71L318.161 241.71M273.161 241.71L228.161 241.71M273.161 361.722L273.161 421.728M273.161 361.722L273.161 301.716M273.161 361.722L318.161 361.722M273.161 361.722L228.161 361.722M273.161 481.735L273.161 421.728M273.161 481.735L318.161 481.735M273.161 481.735L228.161 481.735M3.16052 421.728L3.16052 481.735L48.1605 481.735M3.16052 421.728L93.1605 421.728M93.1605 421.728L183.161 421.728M183.161 421.728L273.161 421.728M273.161 421.728L363.161 421.728M363.161 421.728L363.161 481.735L318.161 481.735M48.1605 481.735L48.1605 361.722M48.1605 361.722L48.1605 241.71M48.1605 241.71L48.1605 121.698M48.1605 121.698L48.1605 1.68543M48.1605 1.68543L3.1605 1.68543L3.1605 61.6916M138.161 481.735L138.161 361.722M138.161 361.722L138.161 241.71M93.1605 301.716L183.161 301.716M93.1605 301.716L3.16051 301.716M273.161 301.716L228.161 301.716M273.161 301.716L318.161 301.716M363.161 301.716L318.161 301.716M363.161 181.704L318.161 181.704M273.161 181.704L228.161 181.704M273.161 181.704L318.161 181.704M183.161 301.716L183.161 241.71L183.161 181.704M183.161 301.716L228.161 301.716M183.161 181.704L93.1605 181.704M183.161 181.704L228.161 181.704M93.1605 181.704L3.16051 181.704M3.1605 61.6916L93.1605 61.6916M93.1605 61.6916L183.161 61.6916M183.161 61.6916L228.161 61.6916M273.161 61.6916L228.161 61.6916M273.161 61.6916L318.161 61.6916M363.161 61.6916L363.161 1.68541L318.161 1.68542M363.161 61.6916L318.161 61.6916M318.161 1.68542L318.161 61.6916M318.161 121.698L318.161 181.704M318.161 121.698L318.161 61.6916M318.161 241.71L318.161 301.716M318.161 241.71L318.161 181.704M318.161 361.722L318.161 481.735M318.161 361.722L318.161 301.716M138.161 121.698L138.161 241.71M138.161 121.698L138.161 1.68542M138.161 241.71L228.161 241.71M228.161 1.68542L228.161 61.6916M228.161 61.6916L228.161 121.698M228.161 121.698L228.161 181.704M228.161 241.71L228.161 301.716M228.161 241.71L228.161 181.704M228.161 361.722L228.161 481.735M228.161 361.722L228.161 301.716" stroke="white" stroke-opacity="0.02" stroke-width="0.5"/>
<g filter="url(#filter1_d_129_170)">
<path d="M327.901 128.997C326.61 133.66 322.845 137.302 318.025 138.552L146.389 183.047C141.569 184.296 136.426 182.963 132.898 179.549L7.25181 57.9875C3.72328 54.5737 2.34524 49.598 3.63677 44.9346L15.6147 1.68542L363.161 1.68543L327.901 128.997Z" fill="url(#paint1_linear_129_170)"/>
</g>
<path d="M300.662 102.826C301.042 102.464 301.587 102.332 302.09 102.48L307.691 104.126C308.195 104.274 308.581 104.68 308.705 105.19L310.08 110.864C310.203 111.374 310.045 111.912 309.665 112.274L305.439 116.301C305.059 116.664 304.514 116.796 304.01 116.647L298.41 115.001C297.906 114.853 297.519 114.447 297.396 113.937L296.021 108.264C295.898 107.753 296.056 107.216 296.436 106.853L300.662 102.826Z" fill="#212935"/>
<path d="M272.381 184.52C273.33 183.616 274.689 183.287 275.946 183.656L289.917 187.763C291.174 188.133 292.139 189.145 292.447 190.418L295.877 204.571C296.185 205.845 295.791 207.186 294.842 208.09L284.3 218.136C283.351 219.04 281.993 219.37 280.735 219L266.764 214.893C265.507 214.524 264.542 213.512 264.234 212.238L260.805 198.085C260.496 196.811 260.89 195.47 261.839 194.566L272.381 184.52Z" fill="#496181" fill-opacity="0.2"/>
<path d="M56.9744 354.144C59.5778 351.663 63.3071 350.76 66.7574 351.774L105.105 363.046C108.556 364.06 111.203 366.838 112.05 370.333L121.462 409.18C122.308 412.675 121.226 416.356 118.623 418.837L89.687 446.411C87.0835 448.892 83.3542 449.796 79.9039 448.782L41.556 437.51C38.1057 436.495 35.4585 433.718 34.6117 430.222L25.1997 391.376C24.3528 387.881 25.435 384.2 28.0384 381.719L56.9744 354.144Z" fill="#252E39" fill-opacity="0.5"/>
<path d="M166.432 1314.95C169.035 1312.47 172.765 1311.56 176.215 1312.58L214.563 1323.85C218.013 1324.86 220.66 1327.64 221.507 1331.14L230.919 1369.98C231.766 1373.48 230.684 1377.16 228.08 1379.64L199.144 1407.21C196.541 1409.69 192.812 1410.6 189.361 1409.58L151.014 1398.31C147.563 1397.3 144.916 1394.52 144.069 1391.02L134.657 1352.18C133.81 1348.68 134.892 1345 137.496 1342.52L166.432 1314.95Z" fill="#252E39" fill-opacity="0.1"/>
<path d="M98.6842 2021.02C100.252 2021.03 101.692 2021.89 102.461 2023.25L111.006 2038.44C111.775 2039.81 111.757 2041.48 110.958 2042.83L102.078 2057.82C101.279 2059.17 99.8205 2059.99 98.2526 2059.98L80.8266 2059.78C79.2587 2059.76 77.8192 2058.91 77.0503 2057.55L68.5045 2042.36C67.7356 2040.99 67.7541 2039.32 68.5531 2037.97L77.4333 2022.97C78.2323 2021.63 79.6903 2020.81 81.2582 2020.82L98.6842 2021.02Z" fill="#29405F" fill-opacity="0.2"/>
<path d="M64.6162 718.827C66.3608 718.359 68.2223 718.858 69.4994 720.135L83.6939 734.33C84.971 735.607 85.4698 737.468 85.0023 739.213L79.8068 758.603C79.3393 760.348 77.9766 761.71 76.232 762.178L56.842 767.373C55.0974 767.841 53.2359 767.342 51.9588 766.065L37.7643 751.87C36.4872 750.593 35.9884 748.732 36.4559 746.987L41.6514 727.597C42.1189 725.853 43.4816 724.49 45.2262 724.022L64.6162 718.827Z" fill="#252E39"/>
<path d="M56.8476 712.846C56.8476 714.633 55.3987 716.082 53.6114 716.082C51.8242 716.082 50.3753 714.633 50.3753 712.846C50.3753 711.059 51.8242 709.61 53.6114 709.61C55.3987 709.61 56.8476 711.059 56.8476 712.846Z" fill="#252E39"/>
<path d="M98.0173 747.549C98.0173 748.442 97.2929 749.167 96.3992 749.167C95.5056 749.167 94.7812 748.442 94.7812 747.549C94.7812 746.655 95.5056 745.931 96.3992 745.931C97.2929 745.931 98.0173 746.655 98.0173 747.549Z" fill="#252E39" fill-opacity="0.3"/>
<path d="M64.7068 719.165C66.3306 718.73 68.0632 719.194 69.2519 720.383L83.4464 734.577C84.6351 735.766 85.0994 737.499 84.6643 739.122L79.4687 758.512C79.0336 760.136 77.7653 761.405 76.1415 761.84L56.7514 767.035C55.1276 767.47 53.395 767.006 52.2063 765.817L38.0118 751.623C36.8231 750.434 36.3588 748.702 36.7939 747.078L41.9895 727.688C42.4246 726.064 43.6929 724.796 45.3167 724.36L64.7068 719.165ZM69.7469 719.888C68.3813 718.522 66.391 717.989 64.5256 718.489L45.1356 723.684C43.2702 724.184 41.8132 725.641 41.3133 727.507L36.1178 746.897C35.618 748.762 36.1513 750.752 37.5168 752.118L51.7113 766.312C53.0769 767.678 55.0672 768.211 56.9326 767.711L76.3226 762.516C78.188 762.016 79.645 760.559 80.1449 758.694L85.3404 739.304C85.8402 737.438 85.3069 735.448 83.9414 734.082L69.7469 719.888ZM91.9297 743.1C91.9297 760.253 78.0242 774.159 60.8708 774.159C43.7174 774.159 29.8119 760.253 29.8119 743.1C29.8119 729.699 38.2987 718.281 50.1908 713.926C50.6491 715.379 52.0072 716.432 53.6114 716.432C55.592 716.432 57.1976 714.827 57.1976 712.846C57.1976 712.647 57.1813 712.452 57.1502 712.262C58.3701 712.116 59.6117 712.041 60.8708 712.041C78.0242 712.041 91.9297 725.947 91.9297 743.1ZM50.046 713.234C37.8357 717.66 29.1119 729.361 29.1119 743.1C29.1119 760.64 43.3308 774.859 60.8708 774.859C78.4108 774.859 92.6297 760.64 92.6297 743.1C92.6297 725.56 78.4108 711.341 60.8708 711.341C59.5492 711.341 58.2464 711.422 56.9672 711.579C56.4551 710.224 55.1458 709.26 53.6114 709.26C51.6309 709.26 50.0253 710.865 50.0253 712.846C50.0253 712.977 50.0323 713.106 50.046 713.234ZM53.6114 715.732C52.3121 715.732 51.2133 714.873 50.8515 713.693C52.6509 713.08 54.5246 712.627 56.4555 712.353C56.4832 712.513 56.4976 712.678 56.4976 712.846C56.4976 714.44 55.2054 715.732 53.6114 715.732ZM56.25 711.675C54.3499 711.952 52.5044 712.397 50.7291 712.995C50.7266 712.946 50.7253 712.896 50.7253 712.846C50.7253 711.252 52.0175 709.96 53.6114 709.96C54.7884 709.96 55.8009 710.664 56.25 711.675ZM96.4752 743.1C96.4752 743.934 96.4465 744.761 96.3901 745.581C95.3074 745.585 94.4312 746.465 94.4312 747.549C94.4312 748.467 95.0596 749.238 95.9096 749.455C92.9129 766.087 78.3654 778.704 60.8708 778.704C41.207 778.704 25.2664 762.764 25.2664 743.1C25.2664 723.436 41.207 707.496 60.8708 707.496C80.5346 707.496 96.4752 723.436 96.4752 743.1ZM97.6673 747.549C97.6673 748.133 97.2723 748.625 96.7347 748.772C96.8552 748.004 96.9517 747.228 97.0232 746.444C97.4078 746.662 97.6673 747.075 97.6673 747.549ZM95.1312 747.549C95.1312 746.87 95.6645 746.316 96.3349 746.282C96.261 747.117 96.1582 747.944 96.0276 748.761C95.5086 748.602 95.1312 748.12 95.1312 747.549Z" stroke="#252E39" stroke-opacity="0.5" stroke-width="0.7"/>
<path d="M3.16052 1677.93L50.1955 1627.8C54.3928 1623.33 63.5095 1622.4 69.4791 1625.84L136.374 1664.42C142.343 1667.86 151.46 1666.93 155.657 1662.46L202.692 1612.33C206.889 1607.85 216.006 1606.93 221.976 1610.37L288.87 1648.94C294.84 1652.39 303.957 1651.46 308.154 1646.99L363.15 1588.37" stroke="#384559" stroke-opacity="0.5" stroke-width="0.3" stroke-linecap="round" stroke-dasharray="1 1"/>
<path d="M20.5232 1650.26C24.096 1650.26 27.396 1652.17 29.1801 1655.27L29.6028 1656C31.3865 1659.1 31.3838 1662.91 29.5957 1666L29.1706 1666.74C27.3825 1669.83 24.0806 1671.73 20.5086 1671.73L19.6621 1671.73C16.0893 1671.73 12.7893 1669.82 11.0052 1666.72L10.5825 1665.99C8.79877 1662.89 8.80147 1659.08 10.5896 1655.99L11.0147 1655.25C12.8028 1652.16 16.1047 1650.26 19.6767 1650.26L20.5232 1650.26Z" fill="#3E4957" fill-opacity="0.5"/>
<path d="M251.407 1610.24C252.745 1609.74 254.25 1609.99 255.355 1610.89L264.959 1618.78C266.064 1619.69 266.601 1621.11 266.368 1622.52L264.344 1634.79C264.112 1636.2 263.145 1637.37 261.808 1637.88L250.18 1642.26C248.842 1642.76 247.337 1642.51 246.232 1641.6L236.628 1633.72C235.523 1632.81 234.986 1631.39 235.219 1629.98L237.243 1617.71C237.475 1616.3 238.442 1615.12 239.78 1614.62L251.407 1610.24Z" fill="#3E4957" fill-opacity="0.5"/>
<path d="M347.851 1591.94C350.899 1590.79 354.328 1591.36 356.845 1593.42V1593.42C359.362 1595.49 360.585 1598.74 360.055 1601.96V1601.96C359.525 1605.17 357.321 1607.86 354.275 1609V1609C351.226 1610.15 347.797 1609.58 345.28 1607.52V1607.52C342.763 1605.45 341.54 1602.2 342.07 1598.99V1598.99C342.6 1595.77 344.804 1593.09 347.851 1591.94V1591.94Z" fill="#3E4957" fill-opacity="0.5"/>
<ellipse cx="59.7541" cy="1623.93" rx="12.2577" ry="12.2615" stroke="#252E39" stroke-width="0.3" stroke-linecap="round" stroke-dasharray="1 1"/>
<path d="M63.1708 1623.93C63.1708 1625.81 61.641 1627.34 59.754 1627.34C57.8671 1627.34 56.3373 1625.81 56.3373 1623.93C56.3373 1622.04 57.8671 1620.51 59.754 1620.51C61.641 1620.51 63.1708 1622.04 63.1708 1623.93Z" stroke="#43505F" stroke-opacity="0.5" stroke-width="0.2"/>
<path d="M215.163 1608.35C215.163 1610.02 213.813 1611.37 212.147 1611.37C210.481 1611.37 209.13 1610.02 209.13 1608.35C209.13 1606.69 210.481 1605.34 212.147 1605.34C213.813 1605.34 215.163 1606.69 215.163 1608.35Z" stroke="#43505F" stroke-opacity="0.5"/>
<path d="M302.872 1650.8C302.872 1652.47 301.521 1653.82 299.855 1653.82C298.189 1653.82 296.838 1652.47 296.838 1650.8C296.838 1649.13 298.189 1647.78 299.855 1647.78C301.521 1647.78 302.872 1649.13 302.872 1650.8Z" stroke="#43505F" stroke-opacity="0.5"/>
<defs>
<filter id="filter0_d_129_170" x="2.16077" y="2207.77" width="360" height="418.196" filterUnits="userSpaceOnUse" color-interpolation-filters="sRGB">
<feFlood flood-opacity="0" result="BackgroundImageFix"/>
<feColorMatrix in="SourceAlpha" type="matrix" values="0 0 0 0 0 0 0 0 0 0 0 0 0 0 0 0 0 0 127 0" result="hardAlpha"/>
<feOffset dy="-5"/>
<feComposite in2="hardAlpha" operator="out"/>
<feColorMatrix type="matrix" values="0 0 0 0 0 0 0 0 0 0 0 0 0 0 0 0 0 0 0.1 0"/>
<feBlend mode="normal" in2="BackgroundImageFix" result="effect1_dropShadow_129_170"/>
<feBlend mode="normal" in="SourceGraphic" in2="effect1_dropShadow_129_170" result="shape"/>
</filter>
<filter id="filter1_d_129_170" x="0.160522" y="1.68542" width="366" height="187.822" filterUnits="userSpaceOnUse" color-interpolation-filters="sRGB">
<feFlood flood-opacity="0" result="BackgroundImageFix"/>
<feColorMatrix in="SourceAlpha" type="matrix" values="0 0 0 0 0 0 0 0 0 0 0 0 0 0 0 0 0 0 127 0" result="hardAlpha"/>
<feOffset dy="3"/>
<feGaussianBlur stdDeviation="1.5"/>
<feComposite in2="hardAlpha" operator="out"/>
<feColorMatrix type="matrix" values="0 0 0 0 0 0 0 0 0 0 0 0 0 0 0 0 0 0 0.25 0"/>
<feBlend mode="normal" in2="BackgroundImageFix" result="effect1_dropShadow_129_170"/>
<feBlend mode="normal" in="SourceGraphic" in2="effect1_dropShadow_129_170" result="shape"/>
</filter>
<linearGradient id="paint0_linear_129_170" x1="182.161" y1="2266.52" x2="-177.34" y2="2422.6" gradientUnits="userSpaceOnUse">
<stop offset="0.441825" stop-color="#14171C"/>
<stop offset="0.442167" stop-color="#19212B"/>
<stop offset="0.442167" stop-color="#151A21"/>
</linearGradient>
<linearGradient id="paint1_linear_129_170" x1="68.664" y1="221.544" x2="314.786" y2="-95.5621" gradientUnits="userSpaceOnUse">
<stop offset="0.522632" stop-color="#13171C"/>
<stop offset="0.522732" stop-color="#151921"/>
</linearGradient>
</defs>
</svg>
