<svg width="1559" height="4098" viewBox="0 0 1559 4098" fill="none" xmlns="http://www.w3.org/2000/svg">
<path d="M11.7539 1.40552H203.754H395.754H587.754H779.754H971.754H1163.75H1355.75H1547.75V129.406V257.406V385.406V513.406V641.406V769.406V897.406V1025.41H1355.75H1163.75H971.754H779.754H587.754H395.754H203.754H11.7539V897.406V769.406V641.406V513.406V385.406V257.406V129.406V1.40552Z" fill="#161B22"/>
<path d="M779.754 1.40552V129.406M779.754 1.40552H587.754M779.754 1.40552H971.754M779.754 1025.41H587.754M779.754 1025.41H971.754M779.754 1025.41V897.406M11.7539 513.406H203.754M11.7539 513.406V385.406M11.7539 513.406V641.406M1547.75 513.406H1355.75M1547.75 513.406V385.406M1547.75 513.406V641.406M395.754 1.40552H203.754M395.754 1.40552V129.406M395.754 1.40552H587.754M395.754 513.406H203.754M395.754 513.406V385.406M395.754 513.406H587.754M395.754 513.406V641.406M395.754 1025.41H203.754M395.754 1025.41H587.754M395.754 1025.41V897.406M1163.75 1.40552V129.406M1163.75 1.40552H971.754M1163.75 1.40552H1355.75M1163.75 513.406H971.754M1163.75 513.406H1355.75M1163.75 513.406V385.406M1163.75 513.406V641.406M1163.75 1025.41H971.754M1163.75 1025.41H1355.75M1163.75 1025.41V897.406M11.7539 257.406H203.754M11.7539 257.406V129.406M11.7539 257.406V385.406M395.754 257.406H203.754M395.754 257.406V129.406M395.754 257.406V385.406M395.754 257.406H587.754M779.754 257.406V129.406M779.754 257.406H587.754M779.754 257.406H971.754M779.754 257.406V385.406M1163.75 257.406V129.406M1163.75 257.406H971.754M1163.75 257.406H1355.75M1163.75 257.406V385.406M1547.75 257.406V129.406M1547.75 257.406H1355.75M1547.75 257.406V385.406M1547.75 769.406H1355.75M1547.75 769.406V897.406M1547.75 769.406V641.406M1163.75 769.406H971.754M1163.75 769.406H1355.75M1163.75 769.406V897.406M1163.75 769.406V641.406M779.754 769.406H587.754M779.754 769.406H971.754M779.754 769.406V897.406M779.754 769.406V641.406M395.754 769.406H203.754M395.754 769.406H587.754M395.754 769.406V897.406M395.754 769.406V641.406M11.7539 769.406H203.754M11.7539 769.406V897.406M11.7539 769.406V641.406M203.754 1.40552H11.7539V129.406M203.754 1.40552V257.406M203.754 257.406V513.406M203.754 513.406V769.406M203.754 769.406V1025.41M203.754 1025.41H11.7539V897.406M11.7539 129.406H395.754M395.754 129.406H779.754M779.754 129.406H1163.75M1163.75 129.406H1547.75M1547.75 129.406V1.40552H1355.75M11.7539 385.406H395.754M395.754 385.406H779.754M587.754 257.406V513.406M587.754 257.406V1.40552M587.754 769.406V641.406M587.754 769.406V897.406M587.754 1025.41V897.406M971.754 1025.41V897.406M971.754 769.406V641.406M971.754 769.406V897.406M587.754 513.406H779.754H971.754M587.754 513.406V641.406M971.754 513.406V257.406M971.754 513.406V641.406M971.754 257.406V1.40552M1355.75 1.40552V257.406M1355.75 257.406V513.406M1355.75 513.406V641.406M1355.75 769.406V641.406M1355.75 769.406V897.406M1355.75 1025.41H1547.75V897.406M1355.75 1025.41V897.406M1547.75 897.406H1355.75M1163.75 897.406H971.754M1163.75 897.406H1355.75M779.754 897.406H587.754M779.754 897.406H971.754M395.754 897.406H11.7539M395.754 897.406H587.754M1163.75 385.406H779.754M1163.75 385.406H1547.75M779.754 385.406V641.406M1547.75 641.406H1355.75M1355.75 641.406H1163.75M1163.75 641.406H971.754M779.754 641.406H587.754M779.754 641.406H971.754M395.754 641.406H11.7539M395.754 641.406H587.754" stroke="white" stroke-opacity="0.03"/>
<path d="M11.7539 2049.4H203.754H395.754H587.754H779.754H971.754H1163.75H1355.75H1547.75V2177.4V2305.4V2433.4V2561.4V2689.4V2817.4V2945.4V3073.4H1355.75H1163.75H971.754H779.754H587.754H395.754H203.754H11.7539V2945.4V2817.4V2689.4V2561.4V2433.4V2305.4V2177.4V2049.4Z" fill="#161B22"/>
<path d="M779.754 2049.4V2177.4M779.754 2049.4H587.754M779.754 2049.4H971.754M779.754 3073.4H587.754M779.754 3073.4H971.754M779.754 3073.4V2945.4M11.7539 2561.4H203.754M11.7539 2561.4V2433.4M11.7539 2561.4V2689.4M1547.75 2561.4H1355.75M1547.75 2561.4V2433.4M1547.75 2561.4V2689.4M395.754 2049.4H203.754M395.754 2049.4V2177.4M395.754 2049.4H587.754M395.754 2561.4H203.754M395.754 2561.4V2433.4M395.754 2561.4H587.754M395.754 2561.4V2689.4M395.754 3073.4H203.754M395.754 3073.4H587.754M395.754 3073.4V2945.4M1163.75 2049.4V2177.4M1163.75 2049.4H971.754M1163.75 2049.4H1355.75M1163.75 2561.4H971.754M1163.75 2561.4H1355.75M1163.75 2561.4V2433.4M1163.75 2561.4V2689.4M1163.75 3073.4H971.754M1163.75 3073.4H1355.75M1163.75 3073.4V2945.4M11.7539 2305.4H203.754M11.7539 2305.4V2177.4M11.7539 2305.4V2433.4M395.754 2305.4H203.754M395.754 2305.4V2177.4M395.754 2305.4V2433.4M395.754 2305.4H587.754M779.754 2305.4V2177.4M779.754 2305.4H587.754M779.754 2305.4H971.754M779.754 2305.4V2433.4M1163.75 2305.4V2177.4M1163.75 2305.4H971.754M1163.75 2305.4H1355.75M1163.75 2305.4V2433.4M1547.75 2305.4V2177.4M1547.75 2305.4H1355.75M1547.75 2305.4V2433.4M1547.75 2817.4H1355.75M1547.75 2817.4V2945.4M1547.75 2817.4V2689.4M1163.75 2817.4H971.754M1163.75 2817.4H1355.75M1163.75 2817.4V2945.4M1163.75 2817.4V2689.4M779.754 2817.4H587.754M779.754 2817.4H971.754M779.754 2817.4V2945.4M779.754 2817.4V2689.4M395.754 2817.4H203.754M395.754 2817.4H587.754M395.754 2817.4V2945.4M395.754 2817.4V2689.4M11.7539 2817.4H203.754M11.7539 2817.4V2945.4M11.7539 2817.4V2689.4M203.754 2049.4H11.7539V2177.4M203.754 2049.4V2305.4M203.754 2305.4V2561.4M203.754 2561.4V2817.4M203.754 2817.4V3073.4M203.754 3073.4H11.7539V2945.4M11.7539 2177.4H395.754M395.754 2177.4H779.754M779.754 2177.4H1163.75M1163.75 2177.4H1547.75M1547.75 2177.4V2049.4H1355.75M11.7539 2433.4H395.754M395.754 2433.4H779.754M587.754 2305.4V2561.4M587.754 2305.4V2049.4M587.754 2817.4V2689.4M587.754 2817.4V2945.4M587.754 3073.4V2945.4M971.754 3073.4V2945.4M971.754 2817.4V2689.4M971.754 2817.4V2945.4M587.754 2561.4H779.754H971.754M587.754 2561.4V2689.4M971.754 2561.4V2305.4M971.754 2561.4V2689.4M971.754 2305.4V2049.4M1355.75 2049.4V2305.4M1355.75 2305.4V2561.4M1355.75 2561.4V2689.4M1355.75 2817.4V2689.4M1355.75 2817.4V2945.4M1355.75 3073.4H1547.75V2945.4M1355.75 3073.4V2945.4M1547.75 2945.4H1355.75M1163.75 2945.4H971.754M1163.75 2945.4H1355.75M779.754 2945.4H587.754M779.754 2945.4H971.754M395.754 2945.4H11.7539M395.754 2945.4H587.754M1163.75 2433.4H779.754M1163.75 2433.4H1547.75M779.754 2433.4V2689.4M1547.75 2689.4H1355.75M1355.75 2689.4H1163.75M1163.75 2689.4H971.754M779.754 2689.4H587.754M779.754 2689.4H971.754M395.754 2689.4H11.7539M395.754 2689.4H587.754" stroke="white" stroke-opacity="0.03"/>
<path d="M11.7539 3073.4H203.754H395.754H587.754H779.754H971.754H1163.75H1355.75H1547.75V3201.4V3329.4V3457.4V3585.4V3713.4V3841.4V3969.4V4097.4H1355.75H1163.75H971.754H779.754H587.754H395.754H203.754H11.7539V3969.4V3841.4V3713.4V3585.4V3457.4V3329.4V3201.4V3073.4Z" fill="#161B22"/>
<path d="M779.754 3073.4V3201.4M779.754 3073.4H587.754M779.754 3073.4H971.754M779.754 4097.4H587.754M779.754 4097.4H971.754M779.754 4097.4V3969.4M11.7539 3585.4H203.754M11.7539 3585.4V3457.4M11.7539 3585.4V3713.4M1547.75 3585.4H1355.75M1547.75 3585.4V3457.4M1547.75 3585.4V3713.4M395.754 3073.4H203.754M395.754 3073.4V3201.4M395.754 3073.4H587.754M395.754 3585.4H203.754M395.754 3585.4V3457.4M395.754 3585.4H587.754M395.754 3585.4V3713.4M395.754 4097.4H203.754M395.754 4097.4H587.754M395.754 4097.4V3969.4M1163.75 3073.4V3201.4M1163.75 3073.4H971.754M1163.75 3073.4H1355.75M1163.75 3585.4H971.754M1163.75 3585.4H1355.75M1163.75 3585.4V3457.4M1163.75 3585.4V3713.4M1163.75 4097.4H971.754M1163.75 4097.4H1355.75M1163.75 4097.4V3969.4M11.7539 3329.4H203.754M11.7539 3329.4V3201.4M11.7539 3329.4V3457.4M395.754 3329.4H203.754M395.754 3329.4V3201.4M395.754 3329.4V3457.4M395.754 3329.4H587.754M779.754 3329.4V3201.4M779.754 3329.4H587.754M779.754 3329.4H971.754M779.754 3329.4V3457.4M1163.75 3329.4V3201.4M1163.75 3329.4H971.754M1163.75 3329.4H1355.75M1163.75 3329.4V3457.4M1547.75 3329.4V3201.4M1547.75 3329.4H1355.75M1547.75 3329.4V3457.4M1547.75 3841.4H1355.75M1547.75 3841.4V3969.4M1547.75 3841.4V3713.4M1163.75 3841.4H971.754M1163.75 3841.4H1355.75M1163.75 3841.4V3969.4M1163.75 3841.4V3713.4M779.754 3841.4H587.754M779.754 3841.4H971.754M779.754 3841.4V3969.4M779.754 3841.4V3713.4M395.754 3841.4H203.754M395.754 3841.4H587.754M395.754 3841.4V3969.4M395.754 3841.4V3713.4M11.7539 3841.4H203.754M11.7539 3841.4V3969.4M11.7539 3841.4V3713.4M203.754 3073.4H11.7539V3201.4M203.754 3073.4V3329.4M203.754 3329.4V3585.4M203.754 3585.4V3841.4M203.754 3841.4V4097.4M203.754 4097.4H11.7539V3969.4M11.7539 3201.4H395.754M395.754 3201.4H779.754M779.754 3201.4H1163.75M1163.75 3201.4H1547.75M1547.75 3201.4V3073.4H1355.75M11.7539 3457.4H395.754M395.754 3457.4H779.754M587.754 3329.4V3585.4M587.754 3329.4V3073.4M587.754 3841.4V3713.4M587.754 3841.4V3969.4M587.754 4097.4V3969.4M971.754 4097.4V3969.4M971.754 3841.4V3713.4M971.754 3841.4V3969.4M587.754 3585.4H779.754H971.754M587.754 3585.4V3713.4M971.754 3585.4V3329.4M971.754 3585.4V3713.4M971.754 3329.4V3073.4M1355.75 3073.4V3329.4M1355.75 3329.4V3585.4M1355.75 3585.4V3713.4M1355.75 3841.4V3713.4M1355.75 3841.4V3969.4M1355.75 4097.4H1547.75V3969.4M1355.75 4097.4V3969.4M1547.75 3969.4H1355.75M1163.75 3969.4H971.754M1163.75 3969.4H1355.75M779.754 3969.4H587.754M779.754 3969.4H971.754M395.754 3969.4H11.7539M395.754 3969.4H587.754M1163.75 3457.4H779.754M1163.75 3457.4H1547.75M779.754 3457.4V3713.4M1547.75 3713.4H1355.75M1355.75 3713.4H1163.75M1163.75 3713.4H971.754M779.754 3713.4H587.754M779.754 3713.4H971.754M395.754 3713.4H11.7539M395.754 3713.4H587.754" stroke="white" stroke-opacity="0.03"/>
<path d="M11.7539 1025.4H203.754H395.754H587.754H779.754H971.754H1163.75H1355.75H1547.75V1153.4V1281.4V1409.4V1537.4V1665.4V1793.4V1921.4V2049.4H1355.75H1163.75H971.754H779.754H587.754H395.754H203.754H11.7539V1921.4V1793.4V1665.4V1537.4V1409.4V1281.4V1153.4V1025.4Z" fill="#161B22"/>
<path d="M779.754 1025.4V1153.4M779.754 1025.4H587.754M779.754 1025.4H971.754M779.754 2049.4H587.754M779.754 2049.4H971.754M779.754 2049.4V1921.4M11.7539 1537.4H203.754M11.7539 1537.4V1409.4M11.7539 1537.4V1665.4M1547.75 1537.4H1355.75M1547.75 1537.4V1409.4M1547.75 1537.4V1665.4M395.754 1025.4H203.754M395.754 1025.4V1153.4M395.754 1025.4H587.754M395.754 1537.4H203.754M395.754 1537.4V1409.4M395.754 1537.4H587.754M395.754 1537.4V1665.4M395.754 2049.4H203.754M395.754 2049.4H587.754M395.754 2049.4V1921.4M1163.75 1025.4V1153.4M1163.75 1025.4H971.754M1163.75 1025.4H1355.75M1163.75 1537.4H971.754M1163.75 1537.4H1355.75M1163.75 1537.4V1409.4M1163.75 1537.4V1665.4M1163.75 2049.4H971.754M1163.75 2049.4H1355.75M1163.75 2049.4V1921.4M11.7539 1281.4H203.754M11.7539 1281.4V1153.4M11.7539 1281.4V1409.4M395.754 1281.4H203.754M395.754 1281.4V1153.4M395.754 1281.4V1409.4M395.754 1281.4H587.754M779.754 1281.4V1153.4M779.754 1281.4H587.754M779.754 1281.4H971.754M779.754 1281.4V1409.4M1163.75 1281.4V1153.4M1163.75 1281.4H971.754M1163.75 1281.4H1355.75M1163.75 1281.4V1409.4M1547.75 1281.4V1153.4M1547.75 1281.4H1355.75M1547.75 1281.4V1409.4M1547.75 1793.4H1355.75M1547.75 1793.4V1921.4M1547.75 1793.4V1665.4M1163.75 1793.4H971.754M1163.75 1793.4H1355.75M1163.75 1793.4V1921.4M1163.75 1793.4V1665.4M779.754 1793.4H587.754M779.754 1793.4H971.754M779.754 1793.4V1921.4M779.754 1793.4V1665.4M395.754 1793.4H203.754M395.754 1793.4H587.754M395.754 1793.4V1921.4M395.754 1793.4V1665.4M11.7539 1793.4H203.754M11.7539 1793.4V1921.4M11.7539 1793.4V1665.4M203.754 1025.4H11.7539V1153.4M203.754 1025.4V1281.4M203.754 1281.4V1537.4M203.754 1537.4V1793.4M203.754 1793.4V2049.4M203.754 2049.4H11.7539V1921.4M11.7539 1153.4H395.754M395.754 1153.4H779.754M779.754 1153.4H1163.75M1163.75 1153.4H1547.75M1547.75 1153.4V1025.4H1355.75M11.7539 1409.4H395.754M395.754 1409.4H779.754M587.754 1281.4V1537.4M587.754 1281.4V1025.4M587.754 1793.4V1665.4M587.754 1793.4V1921.4M587.754 2049.4V1921.4M971.754 2049.4V1921.4M971.754 1793.4V1665.4M971.754 1793.4V1921.4M587.754 1537.4H779.754H971.754M587.754 1537.4V1665.4M971.754 1537.4V1281.4M971.754 1537.4V1665.4M971.754 1281.4V1025.4M1355.75 1025.4V1281.4M1355.75 1281.4V1537.4M1355.75 1537.4V1665.4M1355.75 1793.4V1665.4M1355.75 1793.4V1921.4M1355.75 2049.4H1547.75V1921.4M1355.75 2049.4V1921.4M1547.75 1921.4H1355.75M1163.75 1921.4H971.754M1163.75 1921.4H1355.75M779.754 1921.4H587.754M779.754 1921.4H971.754M395.754 1921.4H11.7539M395.754 1921.4H587.754M1163.75 1409.4H779.754M1163.75 1409.4H1547.75M779.754 1409.4V1665.4M1547.75 1665.4H1355.75M1355.75 1665.4H1163.75M1163.75 1665.4H971.754M779.754 1665.4H587.754M779.754 1665.4H971.754M395.754 1665.4H11.7539M395.754 1665.4H587.754" stroke="white" stroke-opacity="0.03"/>
<g filter="url(#filter0_d_125_150)">
<path d="M1397.32 564.025C1391.8 584.59 1375.74 600.654 1355.18 606.164L622.863 802.387C602.298 807.897 580.355 802.018 565.3 786.963L29.2101 250.873C14.155 235.818 8.27537 213.875 13.7859 193.309L64.8918 2.5791L1547.75 2.57912L1397.32 564.025Z" fill="url(#paint0_linear_125_150)"/>
</g>
<g filter="url(#filter1_d_125_150)">
<path d="M1310.38 3442.15L517.346 3298.36C498.359 3294.91 478.975 3301.86 466.498 3316.59L24.5566 3838.13C16.2886 3847.89 11.7517 3860.26 11.7539 3873.05L11.7933 4097.4H1547.49L1547.49 4033.12C1547.49 4026.91 1546.42 4020.75 1544.33 4014.9L1351.57 3477.06C1345.07 3458.9 1329.36 3445.6 1310.38 3442.15Z" fill="url(#paint1_linear_125_150)"/>
</g>
<path d="M419.343 1112.95C429.351 1110.27 440.029 1113.13 447.355 1120.46L528.78 1201.88C536.106 1209.21 538.968 1219.89 536.286 1229.89L506.482 1341.12C503.801 1351.13 495.984 1358.95 485.976 1361.63L374.747 1391.43C364.739 1394.11 354.061 1391.25 346.735 1383.93L265.31 1302.5C257.984 1295.17 255.123 1284.5 257.804 1274.49L287.608 1163.26C290.289 1153.25 298.106 1145.44 308.114 1142.75L419.343 1112.95Z" fill="#252E39" fill-opacity="0.5"/>
<path d="M1074.8 267.258C1085.02 265.611 1095.36 269.546 1101.9 277.581L1174.59 366.886C1181.13 374.921 1182.89 385.835 1179.2 395.517L1138.21 503.127C1134.52 512.809 1125.95 519.788 1115.72 521.435L1002.03 539.74C991.803 541.387 981.472 537.452 974.932 529.417L902.235 440.112C895.694 432.077 893.937 421.163 897.625 411.481L938.617 303.871C942.305 294.189 950.878 287.21 961.107 285.563L1074.8 267.258Z" fill="#252E39" fill-opacity="0.5"/>
<circle cx="397.858" cy="1252.19" r="179.174" stroke="#252E39" stroke-width="2"/>
<circle cx="397.858" cy="1252.19" r="205.249" stroke="#252E39" stroke-opacity="0.4" stroke-width="2"/>
<circle cx="356.215" cy="1078.64" r="17.5637" fill="#252E39" fill-opacity="0.5" stroke="#252E39" stroke-width="2"/>
<circle cx="601.663" cy="1277.71" r="9.28186" fill="#252E39" fill-opacity="0.3"/>
<circle cx="601.663" cy="1277.71" r="8.28186" stroke="#252E39" stroke-opacity="0.25" stroke-width="2"/>
<path d="M11.9832 2825.34L212.539 2611.57C230.436 2592.5 269.31 2588.55 294.764 2603.23L580.001 2767.71C605.455 2782.38 644.329 2778.44 662.226 2759.36L862.782 2545.6C880.679 2526.52 919.553 2522.58 945.007 2537.26L1230.24 2701.73C1255.7 2716.41 1294.57 2712.47 1312.47 2693.39L1546.97 2443.44" stroke="#384559" stroke-opacity="0.5" stroke-linecap="round" stroke-dasharray="5 5"/>
<path d="M104.863 2707.35C108.435 2707.36 111.735 2709.27 113.52 2712.36L134.141 2748.15C135.925 2751.25 135.922 2755.06 134.134 2758.15L113.458 2793.91C111.67 2797.01 108.368 2798.91 104.796 2798.91L63.5 2798.88C59.9273 2798.87 56.6272 2796.97 54.8431 2793.87L34.2218 2758.08C32.4381 2754.98 32.4408 2751.17 34.2289 2748.08L54.9048 2712.32C56.6929 2709.22 59.9947 2707.32 63.5667 2707.32L104.863 2707.35Z" fill="#3E4957" fill-opacity="0.5"/>
<path d="M1074.32 2535.28C1077.66 2534.02 1081.42 2534.64 1084.18 2536.91L1131.44 2575.7C1134.2 2577.96 1135.54 2581.53 1134.96 2585.05L1125 2645.39C1124.42 2648.91 1122 2651.86 1118.66 2653.12L1061.45 2674.66C1058.11 2675.91 1054.35 2675.29 1051.59 2673.03L1004.34 2634.24C1001.57 2631.97 1000.23 2628.4 1000.81 2624.88L1010.77 2564.55C1011.35 2561.02 1013.77 2558.08 1017.11 2556.82L1074.32 2535.28Z" fill="#3E4957" fill-opacity="0.5"/>
<path d="M1497.33 2452.79C1500.68 2451.53 1504.44 2452.15 1507.2 2454.42L1532.97 2475.57C1535.73 2477.84 1537.07 2481.4 1536.49 2484.93L1531.06 2517.83C1530.48 2521.35 1528.06 2524.3 1524.72 2525.56L1493.53 2537.3C1490.18 2538.56 1486.42 2537.94 1483.66 2535.67L1457.89 2514.52C1455.13 2512.26 1453.79 2508.69 1454.37 2505.16L1459.8 2472.26C1460.38 2468.74 1462.8 2465.79 1466.14 2464.53L1497.33 2452.79Z" fill="#3E4957" fill-opacity="0.5"/>
<path d="M305.005 2587.38C305.251 2589.06 305.418 2590.76 305.502 2592.49L304.503 2592.54C304.543 2593.37 304.564 2594.21 304.564 2595.06C304.564 2595.9 304.543 2596.74 304.503 2597.57L305.502 2597.62C305.418 2599.35 305.251 2601.05 305.005 2602.73L304.015 2602.58C303.769 2604.26 303.443 2605.9 303.039 2607.52L304.009 2607.76C303.593 2609.43 303.096 2611.07 302.522 2612.67L301.581 2612.34C301.013 2613.92 300.37 2615.47 299.654 2616.98L300.558 2617.41C299.824 2618.96 299.015 2620.47 298.137 2621.94L297.279 2621.42C296.414 2622.86 295.479 2624.26 294.481 2625.6L295.283 2626.2C294.262 2627.57 293.176 2628.9 292.027 2630.16L291.286 2629.49C290.159 2630.74 288.972 2631.92 287.728 2633.05L288.4 2633.79C287.134 2634.94 285.811 2636.03 284.437 2637.05L283.84 2636.25C282.496 2637.25 281.1 2638.18 279.659 2639.05L280.174 2639.91C278.712 2640.78 277.203 2641.59 275.652 2642.33L275.224 2641.43C273.714 2642.14 272.163 2642.79 270.576 2643.35L270.913 2644.3C269.311 2644.87 267.673 2645.37 266.003 2645.78L265.761 2644.81C264.145 2645.22 262.498 2645.54 260.825 2645.79L260.97 2646.78C259.293 2647.03 257.589 2647.19 255.863 2647.28L255.815 2646.28C254.981 2646.32 254.142 2646.34 253.297 2646.34C252.453 2646.34 251.614 2646.32 250.78 2646.28L250.731 2647.28C249.006 2647.19 247.302 2647.03 245.624 2646.78L245.77 2645.79C244.097 2645.54 242.45 2645.22 240.834 2644.81L240.591 2645.78C238.921 2645.37 237.283 2644.87 235.681 2644.3L236.018 2643.35C234.432 2642.79 232.881 2642.14 231.371 2641.43L230.943 2642.33C229.392 2641.59 227.883 2640.78 226.42 2639.91L226.936 2639.05C225.494 2638.18 224.099 2637.25 222.754 2636.25L222.158 2637.05C220.783 2636.03 219.46 2634.94 218.194 2633.79L218.866 2633.05C217.623 2631.92 216.435 2630.74 215.308 2629.49L214.567 2630.16C213.419 2628.9 212.332 2627.57 211.311 2626.2L212.114 2625.6C211.115 2624.26 210.181 2622.86 209.315 2621.42L208.458 2621.94C207.58 2620.47 206.771 2618.96 206.036 2617.41L206.94 2616.98C206.225 2615.47 205.581 2613.92 205.014 2612.34L204.072 2612.67C203.499 2611.07 203.002 2609.43 202.585 2607.76L203.555 2607.52C203.152 2605.9 202.825 2604.26 202.579 2602.58L201.59 2602.73C201.343 2601.05 201.176 2599.35 201.093 2597.62L202.092 2597.57C202.051 2596.74 202.031 2595.9 202.031 2595.06C202.031 2594.21 202.051 2593.37 202.092 2592.54L201.093 2592.49C201.176 2590.76 201.343 2589.06 201.59 2587.38L202.579 2587.53C202.825 2585.86 203.152 2584.21 203.555 2582.59L202.585 2582.35C203.002 2580.68 203.499 2579.04 204.072 2577.44L205.014 2577.78C205.581 2576.19 206.225 2574.64 206.94 2573.13L206.036 2572.7C206.771 2571.15 207.58 2569.64 208.458 2568.18L209.315 2568.69C210.181 2567.25 211.115 2565.85 212.114 2564.51L211.311 2563.91C212.332 2562.54 213.419 2561.22 214.567 2559.95L215.308 2560.62C216.435 2559.38 217.623 2558.19 218.866 2557.06L218.194 2556.32C219.46 2555.17 220.783 2554.08 222.158 2553.06L222.754 2553.86C224.099 2552.86 225.494 2551.93 226.936 2551.06L226.42 2550.21C227.883 2549.33 229.392 2548.52 230.943 2547.78L231.371 2548.69C232.881 2547.97 234.432 2547.33 236.018 2546.76L235.681 2545.82C237.283 2545.24 238.921 2544.75 240.591 2544.33L240.834 2545.3C242.45 2544.9 244.097 2544.57 245.77 2544.32L245.624 2543.33C247.302 2543.09 249.006 2542.92 250.731 2542.84L250.78 2543.83C251.614 2543.79 252.453 2543.77 253.297 2543.77C254.142 2543.77 254.981 2543.79 255.815 2543.83L255.863 2542.84C257.589 2542.92 259.293 2543.09 260.97 2543.33L260.825 2544.32C262.498 2544.57 264.145 2544.9 265.761 2545.3L266.003 2544.33C267.673 2544.75 269.311 2545.24 270.913 2545.82L270.576 2546.76C272.163 2547.33 273.714 2547.97 275.224 2548.69L275.652 2547.78C277.203 2548.52 278.712 2549.33 280.174 2550.21L279.659 2551.06C281.1 2551.93 282.496 2552.86 283.84 2553.86L284.437 2553.06C285.811 2554.08 287.134 2555.17 288.4 2556.32L287.728 2557.06C288.971 2558.19 290.159 2559.38 291.286 2560.62L292.027 2559.95C293.176 2561.22 294.262 2562.54 295.283 2563.91L294.481 2564.51C295.479 2565.85 296.414 2567.25 297.279 2568.69L298.137 2568.18C299.015 2569.64 299.824 2571.15 300.558 2572.7L299.654 2573.13C300.37 2574.64 301.013 2576.19 301.581 2577.78L302.522 2577.44C303.096 2579.04 303.593 2580.68 304.009 2582.35L303.039 2582.59C303.443 2584.21 303.769 2585.86 304.015 2587.53L305.005 2587.38Z" stroke="#252E39" stroke-opacity="0.5" stroke-width="2" stroke-dasharray="5 5"/>
<path d="M267.792 2595.06C267.792 2603.06 261.302 2609.56 253.297 2609.56C245.292 2609.56 238.802 2603.06 238.802 2595.06C238.802 2587.05 245.292 2580.56 253.297 2580.56C261.302 2580.56 267.792 2587.05 267.792 2595.06Z" stroke="#43505F" stroke-opacity="0.5"/>
<path d="M917.591 2528.66C917.591 2536.66 911.101 2543.16 903.096 2543.16C895.09 2543.16 888.6 2536.66 888.6 2528.66C888.6 2520.65 895.09 2514.16 903.096 2514.16C911.101 2514.16 917.591 2520.65 917.591 2528.66Z" stroke="#43505F" stroke-opacity="0.5"/>
<path d="M1291.58 2709.65C1291.58 2717.66 1285.09 2724.15 1277.08 2724.15C1269.08 2724.15 1262.59 2717.66 1262.59 2709.65C1262.59 2701.65 1269.08 2695.15 1277.08 2695.15C1285.09 2695.15 1291.58 2701.65 1291.58 2709.65Z" stroke="#43505F" stroke-opacity="0.5"/>
<g filter="url(#filter2_d_125_150)">
<path d="M1123.27 1639.38C1125.56 1636.64 1129.13 1635.33 1132.65 1635.94L1280.49 1661.6C1284.01 1662.21 1286.93 1664.65 1288.16 1668.01L1339.86 1808.86C1341.09 1812.22 1340.44 1815.97 1338.15 1818.72L1242.01 1933.91C1239.72 1936.65 1236.14 1937.97 1232.62 1937.36L1084.79 1911.69C1081.27 1911.08 1078.34 1908.64 1077.11 1905.29L1025.42 1764.43C1024.19 1761.08 1024.84 1757.32 1027.13 1754.58L1123.27 1639.38Z" fill="#212832" fill-opacity="0.3" shape-rendering="crispEdges"/>
</g>
<defs>
<filter id="filter0_d_125_150" x="0.553906" y="2.5791" width="1558.4" height="825.04" filterUnits="userSpaceOnUse" color-interpolation-filters="sRGB">
<feFlood flood-opacity="0" result="BackgroundImageFix"/>
<feColorMatrix in="SourceAlpha" type="matrix" values="0 0 0 0 0 0 0 0 0 0 0 0 0 0 0 0 0 0 127 0" result="hardAlpha"/>
<feOffset dy="12"/>
<feGaussianBlur stdDeviation="5.6"/>
<feComposite in2="hardAlpha" operator="out"/>
<feColorMatrix type="matrix" values="0 0 0 0 0 0 0 0 0 0 0 0 0 0 0 0 0 0 0.25 0"/>
<feBlend mode="normal" in2="BackgroundImageFix" result="effect1_dropShadow_125_150"/>
<feBlend mode="normal" in="SourceGraphic" in2="effect1_dropShadow_125_150" result="shape"/>
</filter>
<filter id="filter1_d_125_150" x="11.7539" y="3288.49" width="1535.74" height="808.916" filterUnits="userSpaceOnUse" color-interpolation-filters="sRGB">
<feFlood flood-opacity="0" result="BackgroundImageFix"/>
<feColorMatrix in="SourceAlpha" type="matrix" values="0 0 0 0 0 0 0 0 0 0 0 0 0 0 0 0 0 0 127 0" result="hardAlpha"/>
<feOffset dy="-9"/>
<feComposite in2="hardAlpha" operator="out"/>
<feColorMatrix type="matrix" values="0 0 0 0 0 0 0 0 0 0 0 0 0 0 0 0 0 0 0.1 0"/>
<feBlend mode="normal" in2="BackgroundImageFix" result="effect1_dropShadow_125_150"/>
<feBlend mode="normal" in="SourceGraphic" in2="effect1_dropShadow_125_150" result="shape"/>
</filter>
<filter id="filter2_d_125_150" x="1024.8" y="1635.79" width="322.665" height="320.715" filterUnits="userSpaceOnUse" color-interpolation-filters="sRGB">
<feFlood flood-opacity="0" result="BackgroundImageFix"/>
<feColorMatrix in="SourceAlpha" type="matrix" values="0 0 0 0 0 0 0 0 0 0 0 0 0 0 0 0 0 0 127 0" result="hardAlpha"/>
<feOffset dx="7" dy="19"/>
<feComposite in2="hardAlpha" operator="out"/>
<feColorMatrix type="matrix" values="0 0 0 0 0.0705882 0 0 0 0 0.0862745 0 0 0 0 0.105882 0 0 0 1 0"/>
<feBlend mode="normal" in2="BackgroundImageFix" result="effect1_dropShadow_125_150"/>
<feBlend mode="normal" in="SourceGraphic" in2="effect1_dropShadow_125_150" result="shape"/>
</filter>
<linearGradient id="paint0_linear_125_150" x1="291.235" y1="972.162" x2="1385.01" y2="-391.262" gradientUnits="userSpaceOnUse">
<stop offset="0.522632" stop-color="#13171C"/>
<stop offset="0.522732" stop-color="#151921"/>
</linearGradient>
<linearGradient id="paint1_linear_125_150" x1="779.624" y1="3401.55" x2="-172.018" y2="4312.01" gradientUnits="userSpaceOnUse">
<stop offset="0.441825" stop-color="#14171C"/>
<stop offset="0.442167" stop-color="#19212B"/>
<stop offset="0.442167" stop-color="#151A21"/>
</linearGradient>
</defs>
</svg>
