<svg width="381" height="5123" viewBox="0 0 381 5123" fill="none" xmlns="http://www.w3.org/2000/svg">
<rect x="3.3571" y="3121.88" width="373.961" height="2001.03" fill="#161B22"/>
<rect x="3.3571" y="1561.14" width="373.961" height="1560.73" fill="#161B22"/>
<rect x="3.3571" y="0.405518" width="373.961" height="1560.73" fill="#161B22"/>
<path d="M3.35709 1407.96L50.1023 1407.96M3.35709 1407.96L3.35709 1525.02M3.35709 1407.96L3.35709 1290.89M377.318 1407.96L377.318 1525.02M377.318 1407.96L377.318 1290.89M377.318 1407.96L330.573 1407.96M190.338 1876.23L190.338 1759.16M190.338 1876.23L143.593 1876.23M190.338 1876.23L237.083 1876.23M190.338 939.688L190.338 1056.76M190.338 939.688L143.593 939.688M190.338 939.688L237.083 939.688M3.3571 1642.09L3.3571 1759.16M3.3571 1642.09L50.1023 1642.09M3.3571 1642.09L3.35709 1525.02M190.338 1642.09L190.338 1759.16M190.338 1642.09L143.593 1642.09M190.338 1642.09L190.338 1525.02M190.338 1642.09L237.083 1642.09M377.319 1642.09L377.319 1759.16M377.319 1642.09L377.318 1525.02M377.319 1642.09L330.573 1642.09M3.35709 1173.82L50.1023 1173.82M3.35709 1173.82L3.35709 1290.89M3.35709 1173.82L3.35708 1056.76M190.338 1173.82L190.338 1290.89M190.338 1173.82L190.338 1056.76M190.338 1173.82L143.593 1173.82M190.338 1173.82L237.083 1173.82M377.318 1173.82L377.318 1290.89M377.318 1173.82L377.318 1056.76M377.318 1173.82L330.573 1173.82M96.8475 1876.23L96.8474 1759.16M96.8475 1876.23L50.1023 1876.23M96.8475 1876.23L143.593 1876.23M96.8474 1642.09L96.8474 1759.16M96.8474 1642.09L50.1023 1642.09M96.8474 1642.09L143.593 1642.09M96.8474 1642.09L96.8474 1525.02M96.8474 1407.96L50.1023 1407.96M96.8474 1407.96L96.8474 1525.02M96.8474 1407.96L96.8474 1290.89M96.8474 1407.96L143.593 1407.96M96.8474 1173.82L50.1023 1173.82M96.8474 1173.82L96.8474 1290.89M96.8474 1173.82L96.8474 1056.76M96.8474 1173.82L143.593 1173.82M96.8474 939.689L50.1023 939.689M96.8474 939.689L96.8474 1056.76M96.8474 939.689L143.593 939.688M283.828 939.688L283.828 1056.76M283.828 939.688L330.573 939.688M283.828 939.688L237.083 939.688M283.828 1173.82L283.828 1290.89M283.828 1173.82L283.828 1056.76M283.828 1173.82L330.573 1173.82M283.828 1173.82L237.083 1173.82M283.828 1407.96L283.828 1525.02M283.828 1407.96L283.828 1290.89M283.828 1407.96L330.573 1407.96M283.828 1407.96L237.083 1407.96M283.828 1642.09L283.828 1759.16M283.828 1642.09L283.828 1525.02M283.828 1642.09L330.573 1642.09M283.828 1642.09L237.083 1642.09M283.828 1876.23L283.828 1759.16M283.828 1876.23L330.573 1876.23M283.828 1876.23L237.083 1876.23M3.3571 1759.16L3.3571 1876.23L50.1023 1876.23M3.3571 1759.16L96.8474 1759.16M96.8474 1759.16L190.338 1759.16M190.338 1759.16L283.828 1759.16M283.828 1759.16L377.319 1759.16M377.319 1759.16L377.319 1876.23L330.573 1876.23M50.1023 1876.23L50.1023 1642.09M50.1023 1642.09L50.1023 1407.96M50.1023 1407.96L50.1023 1173.82M50.1023 1173.82L50.1023 939.689M50.1023 939.689L3.35708 939.689L3.35708 1056.76M143.593 1876.23L143.593 1642.09M143.593 1642.09L143.593 1407.96M96.8474 1525.02L190.338 1525.02M96.8474 1525.02L3.35709 1525.02M283.828 1525.02L237.083 1525.02M283.828 1525.02L330.573 1525.02M377.318 1525.02L330.573 1525.02M377.318 1290.89L330.573 1290.89M283.828 1290.89L237.083 1290.89M283.828 1290.89L330.573 1290.89M190.338 1525.02L190.338 1407.96L190.338 1290.89M190.338 1525.02L237.083 1525.02M190.338 1290.89L96.8474 1290.89M190.338 1290.89L237.083 1290.89M96.8474 1290.89L3.35709 1290.89M3.35708 1056.76L96.8474 1056.76M96.8474 1056.76L190.338 1056.76M190.338 1056.76L237.083 1056.76M283.828 1056.76L237.083 1056.76M283.828 1056.76L330.573 1056.76M377.318 1056.76L377.318 939.688L330.573 939.688M377.318 1056.76L330.573 1056.76M330.573 939.688L330.573 1056.76M330.573 1173.82L330.573 1290.89M330.573 1173.82L330.573 1056.76M330.573 1407.96L330.573 1525.02M330.573 1407.96L330.573 1290.89M330.573 1642.09L330.573 1876.23M330.573 1642.09L330.573 1525.02M143.593 1173.82L143.593 1407.96M143.593 1173.82L143.593 939.688M143.593 1407.96L237.083 1407.96M237.083 939.688L237.083 1056.76M237.083 1056.76L237.083 1173.82M237.083 1173.82L237.083 1290.89M237.083 1407.96L237.083 1525.02M237.083 1407.96L237.083 1290.89M237.083 1642.09L237.083 1876.23M237.083 1642.09L237.083 1525.02" stroke="white" stroke-opacity="0.02" stroke-width="0.5"/>
<path d="M3.35686 2344.49L50.102 2344.49M3.35686 2344.49L3.35686 2461.56M3.35686 2344.49L3.35686 2227.43M377.318 2344.49L377.318 2461.56M377.318 2344.49L377.318 2227.43M377.318 2344.49L330.573 2344.49M190.338 2812.76L190.338 2695.7M190.338 2812.76L143.592 2812.76M190.338 2812.76L237.083 2812.76M190.338 1876.23L190.338 1993.29M190.338 1876.23L143.592 1876.23M190.338 1876.23L237.083 1876.23M3.35687 2578.63L3.35687 2695.7M3.35687 2578.63L50.102 2578.63M3.35687 2578.63L3.35686 2461.56M190.338 2578.63L190.338 2695.7M190.338 2578.63L143.592 2578.63M190.338 2578.63L190.338 2461.56M190.338 2578.63L237.083 2578.63M377.318 2578.63L377.318 2695.7M377.318 2578.63L377.318 2461.56M377.318 2578.63L330.573 2578.63M3.35686 2110.36L50.102 2110.36M3.35686 2110.36L3.35686 2227.43M3.35686 2110.36L3.35685 1993.29M190.338 2110.36L190.338 2227.43M190.338 2110.36L190.338 1993.29M190.338 2110.36L143.592 2110.36M190.338 2110.36L237.083 2110.36M377.318 2110.36L377.318 2227.43M377.318 2110.36L377.318 1993.29M377.318 2110.36L330.573 2110.36M96.8472 2812.76L96.8472 2695.7M96.8472 2812.76L50.102 2812.76M96.8472 2812.76L143.592 2812.76M96.8472 2578.63L96.8472 2695.7M96.8472 2578.63L50.102 2578.63M96.8472 2578.63L143.592 2578.63M96.8472 2578.63L96.8472 2461.56M96.8472 2344.49L50.102 2344.49M96.8472 2344.49L96.8472 2461.56M96.8472 2344.49L96.8472 2227.43M96.8472 2344.49L143.592 2344.49M96.8472 2110.36L50.102 2110.36M96.8472 2110.36L96.8472 2227.43M96.8472 2110.36L96.8472 1993.29M96.8472 2110.36L143.592 2110.36M96.8472 1876.23L50.102 1876.23M96.8472 1876.23L96.8472 1993.29M96.8472 1876.23L143.592 1876.23M283.828 1876.23L283.828 1993.29M283.828 1876.23L330.573 1876.23M283.828 1876.23L237.083 1876.23M283.828 2110.36L283.828 2227.43M283.828 2110.36L283.828 1993.29M283.828 2110.36L330.573 2110.36M283.828 2110.36L237.083 2110.36M283.828 2344.49L283.828 2461.56M283.828 2344.49L283.828 2227.43M283.828 2344.49L330.573 2344.49M283.828 2344.49L237.083 2344.49M283.828 2578.63L283.828 2695.7M283.828 2578.63L283.828 2461.56M283.828 2578.63L330.573 2578.63M283.828 2578.63L237.083 2578.63M283.828 2812.76L283.828 2695.7M283.828 2812.76L330.573 2812.76M283.828 2812.76L237.083 2812.76M3.35687 2695.7L3.35687 2812.76L50.102 2812.76M3.35687 2695.7L96.8472 2695.7M96.8472 2695.7L190.338 2695.7M190.338 2695.7L283.828 2695.7M283.828 2695.7L377.318 2695.7M377.318 2695.7L377.318 2812.76L330.573 2812.76M50.102 2812.76L50.102 2578.63M50.102 2578.63L50.102 2344.49M50.102 2344.49L50.102 2110.36M50.102 2110.36L50.102 1876.23M50.102 1876.23L3.35685 1876.23L3.35685 1993.29M143.592 2812.76L143.592 2578.63M143.592 2578.63L143.592 2344.49M96.8472 2461.56L190.338 2461.56M96.8472 2461.56L3.35686 2461.56M283.828 2461.56L237.083 2461.56M283.828 2461.56L330.573 2461.56M377.318 2461.56L330.573 2461.56M377.318 2227.43L330.573 2227.43M283.828 2227.43L237.083 2227.43M283.828 2227.43L330.573 2227.43M190.338 2461.56L190.338 2344.49L190.338 2227.43M190.338 2461.56L237.083 2461.56M190.338 2227.43L96.8472 2227.43M190.338 2227.43L237.083 2227.43M96.8472 2227.43L3.35686 2227.43M3.35685 1993.29L96.8472 1993.29M96.8472 1993.29L190.338 1993.29M190.338 1993.29L237.083 1993.29M283.828 1993.29L237.083 1993.29M283.828 1993.29L330.573 1993.29M377.318 1993.29L377.318 1876.23L330.573 1876.23M377.318 1993.29L330.573 1993.29M330.573 1876.23L330.573 1993.29M330.573 2110.36L330.573 2227.43M330.573 2110.36L330.573 1993.29M330.573 2344.49L330.573 2461.56M330.573 2344.49L330.573 2227.43M330.573 2578.63L330.573 2812.76M330.573 2578.63L330.573 2461.56M143.592 2110.36L143.592 2344.49M143.592 2110.36L143.592 1876.23M143.592 2344.49L237.083 2344.49M237.083 1876.23L237.083 1993.29M237.083 1993.29L237.083 2110.36M237.083 2110.36L237.083 2227.43M237.083 2344.49L237.083 2461.56M237.083 2344.49L237.083 2227.43M237.083 2578.63L237.083 2812.76M237.083 2578.63L237.083 2461.56" stroke="white" stroke-opacity="0.02" stroke-width="0.5"/>
<path d="M3.35709 3281.03L50.1023 3281.03M3.35709 3281.03L3.35709 3398.1M3.35709 3281.03L3.35709 3163.96M377.318 3281.03L377.318 3398.1M377.318 3281.03L377.318 3163.96M377.318 3281.03L330.573 3281.03M190.338 3749.3L190.338 3632.23M190.338 3749.3L143.593 3749.3M190.338 3749.3L237.083 3749.3M190.338 2812.76L190.338 2929.83M190.338 2812.76L143.593 2812.76M190.338 2812.76L237.083 2812.76M3.3571 3515.16L3.3571 3632.23M3.3571 3515.16L50.1023 3515.16M3.3571 3515.16L3.35709 3398.1M190.338 3515.16L190.338 3632.23M190.338 3515.16L143.593 3515.16M190.338 3515.16L190.338 3398.1M190.338 3515.16L237.083 3515.16M377.319 3515.16L377.319 3632.23M377.319 3515.16L377.318 3398.1M377.319 3515.16L330.573 3515.16M3.35709 3046.9L50.1023 3046.9M3.35709 3046.9L3.35709 3163.96M3.35709 3046.9L3.35708 2929.83M190.338 3046.9L190.338 3163.96M190.338 3046.9L190.338 2929.83M190.338 3046.9L143.593 3046.9M190.338 3046.9L237.083 3046.9M377.318 3046.9L377.318 3163.96M377.318 3046.9L377.318 2929.83M377.318 3046.9L330.573 3046.9M96.8475 3749.3L96.8474 3632.23M96.8475 3749.3L50.1023 3749.3M96.8475 3749.3L143.593 3749.3M96.8474 3515.16L96.8474 3632.23M96.8474 3515.16L50.1023 3515.16M96.8474 3515.16L143.593 3515.16M96.8474 3515.16L96.8474 3398.1M96.8474 3281.03L50.1023 3281.03M96.8474 3281.03L96.8474 3398.1M96.8474 3281.03L96.8474 3163.96M96.8474 3281.03L143.593 3281.03M96.8474 3046.9L50.1023 3046.9M96.8474 3046.9L96.8474 3163.96M96.8474 3046.9L96.8474 2929.83M96.8474 3046.9L143.593 3046.9M96.8474 2812.76L50.1023 2812.76M96.8474 2812.76L96.8474 2929.83M96.8474 2812.76L143.593 2812.76M283.828 2812.76L283.828 2929.83M283.828 2812.76L330.573 2812.76M283.828 2812.76L237.083 2812.76M283.828 3046.9L283.828 3163.96M283.828 3046.9L283.828 2929.83M283.828 3046.9L330.573 3046.9M283.828 3046.9L237.083 3046.9M283.828 3281.03L283.828 3398.1M283.828 3281.03L283.828 3163.96M283.828 3281.03L330.573 3281.03M283.828 3281.03L237.083 3281.03M283.828 3515.16L283.828 3632.23M283.828 3515.16L283.828 3398.1M283.828 3515.16L330.573 3515.16M283.828 3515.16L237.083 3515.16M283.828 3749.3L283.828 3632.23M283.828 3749.3L330.573 3749.3M283.828 3749.3L237.083 3749.3M3.3571 3632.23L3.3571 3749.3L50.1023 3749.3M3.3571 3632.23L96.8474 3632.23M96.8474 3632.23L190.338 3632.23M190.338 3632.23L283.828 3632.23M283.828 3632.23L377.319 3632.23M377.319 3632.23L377.319 3749.3L330.573 3749.3M50.1023 3749.3L50.1023 3515.16M50.1023 3515.16L50.1023 3281.03M50.1023 3281.03L50.1023 3046.9M50.1023 3046.9L50.1023 2812.76M50.1023 2812.76L3.35708 2812.76L3.35708 2929.83M143.593 3749.3L143.593 3515.16M143.593 3515.16L143.593 3281.03M96.8474 3398.1L190.338 3398.1M96.8474 3398.1L3.35709 3398.1M283.828 3398.1L237.083 3398.1M283.828 3398.1L330.573 3398.1M377.318 3398.1L330.573 3398.1M377.318 3163.96L330.573 3163.96M283.828 3163.96L237.083 3163.96M283.828 3163.96L330.573 3163.96M190.338 3398.1L190.338 3281.03L190.338 3163.96M190.338 3398.1L237.083 3398.1M190.338 3163.96L96.8474 3163.96M190.338 3163.96L237.083 3163.96M96.8474 3163.96L3.35709 3163.96M3.35708 2929.83L96.8474 2929.83M96.8474 2929.83L190.338 2929.83M190.338 2929.83L237.083 2929.83M283.828 2929.83L237.083 2929.83M283.828 2929.83L330.573 2929.83M377.318 2929.83L377.318 2812.76L330.573 2812.76M377.318 2929.83L330.573 2929.83M330.573 2812.76L330.573 2929.83M330.573 3046.9L330.573 3163.96M330.573 3046.9L330.573 2929.83M330.573 3281.03L330.573 3398.1M330.573 3281.03L330.573 3163.96M330.573 3515.16L330.573 3749.3M330.573 3515.16L330.573 3398.1M143.593 3046.9L143.593 3281.03M143.593 3046.9L143.593 2812.76M143.593 3281.03L237.083 3281.03M237.083 2812.76L237.083 2929.83M237.083 2929.83L237.083 3046.9M237.083 3046.9L237.083 3163.96M237.083 3281.03L237.083 3398.1M237.083 3281.03L237.083 3163.96M237.083 3515.16L237.083 3749.3M237.083 3515.16L237.083 3398.1" stroke="white" stroke-opacity="0.02" stroke-width="0.5"/>
<path d="M3.35709 4217.57L50.1023 4217.57M3.35709 4217.57L3.35709 4334.63M3.35709 4217.57L3.35709 4100.5M377.318 4217.57L377.318 4334.63M377.318 4217.57L377.318 4100.5M377.318 4217.57L330.573 4217.57M190.338 4685.84L190.338 4568.77M190.338 4685.84L143.593 4685.84M190.338 4685.84L237.083 4685.84M190.338 3749.3L190.338 3866.37M190.338 3749.3L143.593 3749.3M190.338 3749.3L237.083 3749.3M3.3571 4451.7L3.3571 4568.77M3.3571 4451.7L50.1023 4451.7M3.3571 4451.7L3.35709 4334.63M190.338 4451.7L190.338 4568.77M190.338 4451.7L143.593 4451.7M190.338 4451.7L190.338 4334.63M190.338 4451.7L237.083 4451.7M377.319 4451.7L377.319 4568.77M377.319 4451.7L377.318 4334.63M377.319 4451.7L330.573 4451.7M3.35709 3983.43L50.1023 3983.43M3.35709 3983.43L3.35709 4100.5M3.35709 3983.43L3.35708 3866.37M190.338 3983.43L190.338 4100.5M190.338 3983.43L190.338 3866.37M190.338 3983.43L143.593 3983.43M190.338 3983.43L237.083 3983.43M377.318 3983.43L377.318 4100.5M377.318 3983.43L377.318 3866.37M377.318 3983.43L330.573 3983.43M96.8475 4685.84L96.8474 4568.77M96.8475 4685.84L50.1023 4685.84M96.8475 4685.84L143.593 4685.84M96.8474 4451.7L96.8474 4568.77M96.8474 4451.7L50.1023 4451.7M96.8474 4451.7L143.593 4451.7M96.8474 4451.7L96.8474 4334.63M96.8474 4217.57L50.1023 4217.57M96.8474 4217.57L96.8474 4334.63M96.8474 4217.57L96.8474 4100.5M96.8474 4217.57L143.593 4217.57M96.8474 3983.43L50.1023 3983.43M96.8474 3983.43L96.8474 4100.5M96.8474 3983.43L96.8474 3866.37M96.8474 3983.43L143.593 3983.43M96.8474 3749.3L50.1023 3749.3M96.8474 3749.3L96.8474 3866.37M96.8474 3749.3L143.593 3749.3M283.828 3749.3L283.828 3866.37M283.828 3749.3L330.573 3749.3M283.828 3749.3L237.083 3749.3M283.828 3983.43L283.828 4100.5M283.828 3983.43L283.828 3866.37M283.828 3983.43L330.573 3983.43M283.828 3983.43L237.083 3983.43M283.828 4217.57L283.828 4334.63M283.828 4217.57L283.828 4100.5M283.828 4217.57L330.573 4217.57M283.828 4217.57L237.083 4217.57M283.828 4451.7L283.828 4568.77M283.828 4451.7L283.828 4334.63M283.828 4451.7L330.573 4451.7M283.828 4451.7L237.083 4451.7M283.828 4685.84L283.828 4568.77M283.828 4685.84L330.573 4685.84M283.828 4685.84L237.083 4685.84M3.3571 4568.77L3.3571 4685.84L50.1023 4685.84M3.3571 4568.77L96.8474 4568.77M96.8474 4568.77L190.338 4568.77M190.338 4568.77L283.828 4568.77M283.828 4568.77L377.319 4568.77M377.319 4568.77L377.319 4685.84L330.573 4685.84M50.1023 4685.84L50.1023 4451.7M50.1023 4451.7L50.1023 4217.57M50.1023 4217.57L50.1023 3983.43M50.1023 3983.43L50.1023 3749.3M50.1023 3749.3L3.35708 3749.3L3.35708 3866.37M143.593 4685.84L143.593 4451.7M143.593 4451.7L143.593 4217.57M96.8474 4334.63L190.338 4334.63M96.8474 4334.63L3.35709 4334.63M283.828 4334.63L237.083 4334.63M283.828 4334.63L330.573 4334.63M377.318 4334.63L330.573 4334.63M377.318 4100.5L330.573 4100.5M283.828 4100.5L237.083 4100.5M283.828 4100.5L330.573 4100.5M190.338 4334.63L190.338 4217.57L190.338 4100.5M190.338 4334.63L237.083 4334.63M190.338 4100.5L96.8474 4100.5M190.338 4100.5L237.083 4100.5M96.8474 4100.5L3.35709 4100.5M3.35708 3866.37L96.8474 3866.37M96.8474 3866.37L190.338 3866.37M190.338 3866.37L237.083 3866.37M283.828 3866.37L237.083 3866.37M283.828 3866.37L330.573 3866.37M377.318 3866.37L377.318 3749.3L330.573 3749.3M377.318 3866.37L330.573 3866.37M330.573 3749.3L330.573 3866.37M330.573 3983.43L330.573 4100.5M330.573 3983.43L330.573 3866.37M330.573 4217.57L330.573 4334.63M330.573 4217.57L330.573 4100.5M330.573 4451.7L330.573 4685.84M330.573 4451.7L330.573 4334.63M143.593 3983.43L143.593 4217.57M143.593 3983.43L143.593 3749.3M143.593 4217.57L237.083 4217.57M237.083 3749.3L237.083 3866.37M237.083 3866.37L237.083 3983.43M237.083 3983.43L237.083 4100.5M237.083 4217.57L237.083 4334.63M237.083 4217.57L237.083 4100.5M237.083 4451.7L237.083 4685.84M237.083 4451.7L237.083 4334.63" stroke="white" stroke-opacity="0.02" stroke-width="0.5"/>
<path d="M190.338 4685.84L190.338 4802.9M190.338 4685.84L143.593 4685.84M190.338 4685.84L237.083 4685.84M3.35714 4919.97L50.1023 4919.97M3.35714 4919.97L3.35715 5037.04L96.8475 5037.04M3.35714 4919.97L3.35714 4802.9M190.338 4919.97L190.338 5037.04M190.338 4919.97L190.338 4802.9M190.338 4919.97L143.593 4919.97M190.338 4919.97L237.083 4919.97M377.319 4919.97L377.319 5037.04L330.573 5037.04M377.319 4919.97L377.319 4802.9M377.319 4919.97L330.573 4919.97M96.8475 4919.97L50.1023 4919.97M96.8475 4919.97L96.8475 5037.04M96.8475 4919.97L96.8475 4802.9M96.8475 4919.97L143.593 4919.97M96.8475 4685.84L50.1023 4685.84M96.8475 4685.84L96.8475 4802.9M96.8475 4685.84L143.593 4685.84M283.828 4685.84L283.828 4802.9M283.828 4685.84L330.573 4685.84M283.828 4685.84L237.083 4685.84M283.828 4919.97L283.828 5037.04M283.828 4919.97L283.828 4802.9M283.828 4919.97L330.573 4919.97M283.828 4919.97L237.083 4919.97M50.1023 4919.97L50.1023 4685.84M50.1023 4685.84L3.35714 4685.84L3.35714 4802.9M283.828 5037.04L237.083 5037.04M283.828 5037.04L330.573 5037.04M190.338 5037.04L96.8475 5037.04M190.338 5037.04L237.083 5037.04M3.35714 4802.9L96.8475 4802.9M96.8475 4802.9L190.338 4802.9M190.338 4802.9L237.083 4802.9M283.828 4802.9L237.083 4802.9M283.828 4802.9L330.573 4802.9M377.319 4802.9L377.319 4685.84L330.573 4685.84M377.319 4802.9L330.573 4802.9M330.573 4685.84L330.573 4802.9M330.573 4919.97L330.573 5037.04M330.573 4919.97L330.573 4802.9M143.593 4919.97L143.593 4685.84M237.083 4685.84L237.083 4802.9M237.083 4802.9L237.083 4919.97M237.083 4919.97L237.083 5037.04" stroke="white" stroke-opacity="0.02" stroke-width="0.5"/>
<g filter="url(#filter0_d_129_170)">
<path d="M324.712 4039.82C322.42 4026.34 311.024 4018.51 297.504 4016.5L111.596 3988.94C98.0769 3986.94 83.5626 3987.03 80.753 4000.41C79.8074 4004.91 78.9395 4010.3 78.1774 4016.52L5.43611 4686.35C3.42279 4702.78 2.31803 4723.61 2.31857 4745.15L2.32816 5122.9H376.28L376.28 5014.66C376.28 5004.2 376.019 4993.83 375.509 4983.99L328.572 4078.4C327.782 4063.16 326.436 4049.95 324.712 4039.82Z" fill="url(#paint0_linear_129_170)"/>
</g>
<path d="M318.041 2092.04C319.853 2091.13 321.787 2092.1 323.113 2094.59L337.858 2122.29C339.185 2124.78 339.703 2128.41 339.218 2131.81L333.82 2169.64C333.335 2173.04 331.919 2175.7 330.107 2176.61L309.965 2186.75C308.153 2187.66 306.219 2186.69 304.893 2184.2L290.148 2156.51C288.821 2154.01 288.303 2150.38 288.788 2146.98L294.185 2109.15C294.671 2105.75 296.087 2103.09 297.899 2102.18L318.041 2092.04Z" fill="#252E39"/>
<path d="M309.971 2080.37C309.971 2083.86 308.466 2086.69 306.609 2086.69C304.753 2086.69 303.248 2083.86 303.248 2080.37C303.248 2076.89 304.753 2074.06 306.609 2074.06C308.466 2074.06 309.971 2076.89 309.971 2080.37Z" fill="#252E39"/>
<path d="M352.737 2148.07C352.737 2149.82 351.985 2151.23 351.056 2151.23C350.128 2151.23 349.376 2149.82 349.376 2148.07C349.376 2146.33 350.128 2144.92 351.056 2144.92C351.985 2144.92 352.737 2146.33 352.737 2148.07Z" fill="#252E39" fill-opacity="0.3"/>
<path d="M322.804 2094.76L337.549 2122.45C338.834 2124.86 339.348 2128.42 338.871 2131.76L333.474 2169.59C333.236 2171.26 332.771 2172.74 332.152 2173.9C331.532 2175.06 330.77 2175.89 329.95 2176.3L309.808 2186.44C309.003 2186.84 308.183 2186.83 307.404 2186.44C306.613 2186.04 305.843 2185.24 305.201 2184.03L290.456 2156.34C289.172 2153.93 288.657 2150.37 289.135 2147.03L294.532 2109.2C294.77 2107.53 295.235 2106.06 295.854 2104.89C296.474 2103.73 297.236 2102.9 298.056 2102.49L318.198 2092.35C319.003 2091.95 319.823 2091.96 320.602 2092.35C321.393 2092.75 322.163 2093.55 322.804 2094.76ZM338.167 2122.12L323.422 2094.43C322.737 2093.14 321.877 2092.21 320.917 2091.73C319.944 2091.24 318.891 2091.22 317.883 2091.73L297.741 2101.86C296.749 2102.36 295.897 2103.32 295.236 2104.56C294.572 2105.81 294.086 2107.37 293.839 2109.1L288.442 2146.93C287.948 2150.39 288.47 2154.1 289.839 2156.67L304.584 2184.36C305.269 2185.65 306.129 2186.58 307.089 2187.06C308.062 2187.55 309.115 2187.57 310.122 2187.06L330.264 2176.93C331.257 2176.43 332.109 2175.47 332.77 2174.23C333.434 2172.98 333.92 2171.42 334.167 2169.69L339.564 2131.86C340.058 2128.4 339.536 2124.69 338.167 2122.12ZM346.427 2139.4C346.427 2156.27 342.784 2171.53 336.912 2182.56C331.032 2193.6 322.967 2200.32 314.15 2200.32C305.333 2200.32 297.269 2193.6 291.388 2182.56C285.516 2171.53 281.873 2156.27 281.873 2139.4C281.873 2122.52 285.516 2107.26 291.388 2096.23C294.672 2090.06 298.638 2085.24 303.035 2082.19C303.2 2083.26 303.508 2084.22 303.923 2085C304.555 2086.19 305.488 2087.04 306.609 2087.04C307.73 2087.04 308.663 2086.19 309.295 2085C309.935 2083.8 310.321 2082.16 310.321 2080.37C310.321 2079.87 310.291 2079.39 310.234 2078.92C311.519 2078.62 312.826 2078.47 314.15 2078.47C322.967 2078.47 331.032 2085.19 336.912 2096.23C342.784 2107.26 346.427 2122.52 346.427 2139.4ZM302.941 2081.41C298.297 2084.54 294.155 2089.54 290.77 2095.9C284.834 2107.05 281.173 2122.43 281.173 2139.4C281.173 2156.36 284.834 2171.74 290.77 2182.89C296.699 2194.02 304.948 2201.02 314.15 2201.02C323.352 2201.02 331.602 2194.02 337.53 2182.89C343.466 2171.74 347.127 2156.36 347.127 2139.4C347.127 2122.43 343.466 2107.05 337.53 2095.9C331.602 2084.77 323.352 2077.77 314.15 2077.77C312.787 2077.77 311.444 2077.92 310.127 2078.22C309.952 2077.29 309.667 2076.44 309.295 2075.74C308.663 2074.56 307.73 2073.71 306.609 2073.71C305.488 2073.71 304.555 2074.56 303.923 2075.74C303.283 2076.95 302.898 2078.58 302.898 2080.37C302.898 2080.72 302.913 2081.07 302.941 2081.41ZM304.541 2084.67C304.127 2083.89 303.821 2082.89 303.681 2081.76C305.568 2080.53 307.53 2079.63 309.549 2079.09C309.596 2079.5 309.621 2079.93 309.621 2080.37C309.621 2082.07 309.254 2083.59 308.677 2084.67C308.093 2085.77 307.345 2086.34 306.609 2086.34C305.873 2086.34 305.126 2085.77 304.541 2084.67ZM309.446 2078.39C307.434 2078.92 305.485 2079.79 303.613 2080.97C303.603 2080.77 303.598 2080.57 303.598 2080.37C303.598 2078.67 303.965 2077.16 304.541 2076.07C305.126 2074.97 305.873 2074.41 306.609 2074.41C307.345 2074.41 308.093 2074.97 308.677 2076.07C309.017 2076.71 309.284 2077.5 309.446 2078.39ZM351.149 2139.4C351.149 2141.14 351.115 2142.86 351.049 2144.57C350.396 2144.57 349.886 2145.06 349.559 2145.68C349.223 2146.31 349.026 2147.16 349.026 2148.07C349.026 2148.99 349.223 2149.84 349.559 2150.47C349.805 2150.93 350.156 2151.33 350.594 2151.5C349.251 2165.96 345.541 2178.9 340.251 2188.83C333.516 2201.48 324.271 2209.19 314.15 2209.19C304.029 2209.19 294.784 2201.48 288.05 2188.83C281.323 2176.2 277.151 2158.72 277.151 2139.4C277.151 2120.07 281.323 2102.59 288.05 2089.96C294.784 2077.31 304.029 2069.6 314.15 2069.6C324.271 2069.6 333.516 2077.31 340.251 2089.96C346.978 2102.59 351.149 2120.07 351.149 2139.4ZM351.936 2150.14C351.754 2150.48 351.553 2150.69 351.359 2150.8C351.507 2149.1 351.621 2147.38 351.703 2145.65C351.783 2145.75 351.861 2145.87 351.936 2146.01C352.208 2146.52 352.387 2147.25 352.387 2148.07C352.387 2148.9 352.208 2149.63 351.936 2150.14ZM350.177 2146.01C350.445 2145.5 350.755 2145.29 351.02 2145.27C350.938 2147.11 350.818 2148.94 350.662 2150.74C350.497 2150.62 350.33 2150.43 350.177 2150.14C349.905 2149.63 349.726 2148.9 349.726 2148.07C349.726 2147.25 349.905 2146.52 350.177 2146.01Z" stroke="#252E39" stroke-opacity="0.5" stroke-width="0.7"/>
<path d="M3.35709 471.42L50.1023 471.42M3.35709 471.42L3.35709 588.487M3.35709 471.42L3.35709 354.353M377.318 471.42L377.318 588.487M377.318 471.42L377.318 354.353M377.318 471.42L330.573 471.42M190.338 939.688L190.338 822.621M190.338 939.688L143.593 939.688M190.338 939.688L237.083 939.688M190.338 3.15163L190.338 120.219M190.338 3.15163L143.593 3.15163M190.338 3.15163L237.083 3.15163M3.3571 705.554L3.3571 822.621M3.3571 705.554L50.1023 705.554M3.3571 705.554L3.35709 588.487M190.338 705.554L190.338 822.621M190.338 705.554L143.593 705.554M190.338 705.554L190.338 588.487M190.338 705.554L237.083 705.554M377.319 705.554L377.319 822.621M377.319 705.554L377.318 588.487M377.319 705.554L330.573 705.554M3.35709 237.286L50.1023 237.286M3.35709 237.286L3.35709 354.353M3.35709 237.286L3.35708 120.219M190.338 237.286L190.338 354.353M190.338 237.286L190.338 120.219M190.338 237.286L143.593 237.286M190.338 237.286L237.083 237.286M377.318 237.286L377.318 354.353M377.318 237.286L377.318 120.219M377.318 237.286L330.573 237.286M96.8475 939.688L96.8474 822.621M96.8475 939.688L50.1023 939.688M96.8475 939.688L143.593 939.688M96.8474 705.554L96.8474 822.621M96.8474 705.554L50.1023 705.554M96.8474 705.554L143.593 705.554M96.8474 705.554L96.8474 588.487M96.8474 471.42L50.1023 471.42M96.8474 471.42L96.8474 588.487M96.8474 471.42L96.8474 354.353M96.8474 471.42L143.593 471.42M96.8474 237.286L50.1023 237.286M96.8474 237.286L96.8474 354.353M96.8474 237.286L96.8474 120.219M96.8474 237.286L143.593 237.286M96.8474 3.15164L50.1023 3.15164M96.8474 3.15164L96.8474 120.219M96.8474 3.15164L143.593 3.15163M283.828 3.15162L283.828 120.219M283.828 3.15162L330.573 3.15162M283.828 3.15162L237.083 3.15163M283.828 237.286L283.828 354.353M283.828 237.286L283.828 120.219M283.828 237.286L330.573 237.286M283.828 237.286L237.083 237.286M283.828 471.42L283.828 588.487M283.828 471.42L283.828 354.353M283.828 471.42L330.573 471.42M283.828 471.42L237.083 471.42M283.828 705.554L283.828 822.621M283.828 705.554L283.828 588.487M283.828 705.554L330.573 705.554M283.828 705.554L237.083 705.554M283.828 939.688L283.828 822.621M283.828 939.688L330.573 939.688M283.828 939.688L237.083 939.688M3.3571 822.621L3.3571 939.688L50.1023 939.688M3.3571 822.621L96.8474 822.621M96.8474 822.621L190.338 822.621M190.338 822.621L283.828 822.621M283.828 822.621L377.319 822.621M377.319 822.621L377.319 939.688L330.573 939.688M50.1023 939.688L50.1023 705.554M50.1023 705.554L50.1023 471.42M50.1023 471.42L50.1023 237.286M50.1023 237.286L50.1023 3.15164M50.1023 3.15164L3.35708 3.15165L3.35708 120.219M143.593 939.688L143.593 705.554M143.593 705.554L143.593 471.42M96.8474 588.487L190.338 588.487M96.8474 588.487L3.35709 588.487M283.828 588.487L237.083 588.487M283.828 588.487L330.573 588.487M377.318 588.487L330.573 588.487M377.318 354.353L330.573 354.353M283.828 354.353L237.083 354.353M283.828 354.353L330.573 354.353M190.338 588.487L190.338 471.42L190.338 354.353M190.338 588.487L237.083 588.487M190.338 354.353L96.8474 354.353M190.338 354.353L237.083 354.353M96.8474 354.353L3.35709 354.353M3.35708 120.219L96.8474 120.219M96.8474 120.219L190.338 120.219M190.338 120.219L237.083 120.219M283.828 120.219L237.083 120.219M283.828 120.219L330.573 120.219M377.318 120.219L377.318 3.15162L330.573 3.15162M377.318 120.219L330.573 120.219M330.573 3.15162L330.573 120.219M330.573 237.286L330.573 354.353M330.573 237.286L330.573 120.219M330.573 471.42L330.573 588.487M330.573 471.42L330.573 354.353M330.573 705.554L330.573 939.688M330.573 705.554L330.573 588.487M143.593 237.286L143.593 471.42M143.593 237.286L143.593 3.15163M143.593 471.42L237.083 471.42M237.083 3.15163L237.083 120.219M237.083 120.219L237.083 237.286M237.083 237.286L237.083 354.353M237.083 471.42L237.083 588.487M237.083 471.42L237.083 354.353M237.083 705.554L237.083 939.688M237.083 705.554L237.083 588.487" stroke="white" stroke-opacity="0.02" stroke-width="0.5"/>
<g filter="url(#filter1_d_129_170)">
<path d="M340.692 251.525C339.35 260.623 335.439 267.729 330.432 270.167L152.141 356.972C147.134 359.41 141.791 356.809 138.126 350.149L7.60705 112.992C3.94168 106.332 2.5102 96.6251 3.85182 87.5272L16.2943 3.15161L377.318 3.15162L340.692 251.525Z" fill="url(#paint1_linear_129_170)"/>
</g>
<path d="M312.396 200.469C312.791 199.762 313.357 199.505 313.88 199.794L319.698 203.005C320.221 203.294 320.623 204.086 320.751 205.082L322.179 216.15C322.308 217.145 322.143 218.194 321.748 218.901L317.359 226.758C316.964 227.465 316.398 227.722 315.874 227.433L310.057 224.221C309.533 223.932 309.132 223.141 309.003 222.145L307.575 211.077C307.447 210.081 307.611 209.032 308.006 208.325L312.396 200.469Z" fill="#212935"/>
<path d="M283.019 359.847C284.004 358.083 285.415 357.441 286.721 358.162L301.235 366.174C302.541 366.895 303.542 368.869 303.863 371.354L307.425 398.966C307.746 401.45 307.336 404.067 306.351 405.83L295.399 425.43C294.414 427.193 293.003 427.836 291.697 427.115L277.183 419.103C275.877 418.382 274.876 416.407 274.555 413.923L270.993 386.311C270.672 383.827 271.082 381.21 272.067 379.446L283.019 359.847Z" fill="#496181" fill-opacity="0.2"/>
<path d="M59.2579 690.77C61.9624 685.93 65.8363 684.167 69.4204 686.146L109.255 708.137C112.84 710.115 115.589 715.535 116.469 722.354L126.246 798.14C127.126 804.958 126.002 812.141 123.297 816.981L93.2392 870.776C90.5348 875.616 86.6609 877.379 83.0767 875.4L43.2416 853.409C39.6575 851.431 36.9077 846.011 36.028 839.192L26.251 763.406C25.3713 756.588 26.4954 749.405 29.1998 744.565L59.2579 690.77Z" fill="#252E39" fill-opacity="0.5"/>
<path d="M172.96 2565.22C175.665 2560.38 179.539 2558.61 183.123 2560.59L222.958 2582.58C226.542 2584.56 229.292 2589.98 230.172 2596.8L239.949 2672.59C240.828 2679.41 239.704 2686.59 237 2691.43L206.942 2745.22C204.237 2750.06 200.363 2751.83 196.779 2749.85L156.944 2727.86C153.36 2725.88 150.61 2720.46 149.73 2713.64L139.953 2637.85C139.074 2631.03 140.198 2623.85 142.902 2619.01L172.96 2565.22Z" fill="#252E39" fill-opacity="0.1"/>
<path d="M102.585 3942.7C104.214 3942.73 105.709 3944.4 106.508 3947.06L115.385 3976.69C116.184 3979.36 116.165 3982.62 115.335 3985.26L106.11 4014.51C105.28 4017.14 103.766 4018.74 102.137 4018.71L84.0352 4018.33C82.4065 4018.3 80.9112 4016.63 80.1124 4013.97L71.2352 3984.34C70.4365 3981.67 70.4557 3978.41 71.2857 3975.78L80.5103 3946.52C81.3402 3943.89 82.8548 3942.29 84.4835 3942.32L102.585 3942.7Z" fill="#29405F" fill-opacity="0.2"/>
<path d="M67.1961 1402.24C69.0084 1401.32 70.942 1402.3 72.2687 1404.79L87.0137 1432.48C88.3403 1434.97 88.8585 1438.6 88.3729 1442.01L82.9758 1479.84C82.4902 1483.24 81.0747 1485.9 79.2625 1486.81L59.1204 1496.95C57.3082 1497.86 55.3745 1496.89 54.0479 1494.39L39.3029 1466.7C37.9762 1464.21 37.4581 1460.58 37.9437 1457.17L43.3407 1419.35C43.8263 1415.94 45.2419 1413.28 47.0541 1412.37L67.1961 1402.24Z" fill="#252E39"/>
<path d="M59.1262 1390.57C59.1262 1394.05 57.6212 1396.88 55.7646 1396.88C53.908 1396.88 52.403 1394.05 52.403 1390.57C52.403 1387.08 53.908 1384.25 55.7646 1384.25C57.6212 1384.25 59.1262 1387.08 59.1262 1390.57Z" fill="#252E39"/>
<path d="M101.893 1458.27C101.893 1460.01 101.14 1461.43 100.212 1461.43C99.2835 1461.43 98.5309 1460.01 98.5309 1458.27C98.5309 1456.53 99.2835 1455.11 100.212 1455.11C101.14 1455.11 101.893 1456.53 101.893 1458.27Z" fill="#252E39" fill-opacity="0.3"/>
<path d="M71.9598 1404.95L86.7048 1432.65C87.9895 1435.06 88.5038 1438.61 88.0264 1441.96L82.6293 1479.79C82.3912 1481.46 81.9264 1482.93 81.3077 1484.09C80.687 1485.26 79.9248 1486.09 79.1051 1486.5L58.9631 1496.63C58.1579 1497.04 57.3382 1497.03 56.5594 1496.63C55.7682 1496.24 54.9984 1495.43 54.3568 1494.23L39.6118 1466.54C38.3271 1464.12 37.8128 1460.57 38.2902 1457.22L43.6872 1419.4C43.9254 1417.73 44.3902 1416.25 45.0089 1415.09C45.6296 1413.92 46.3917 1413.1 47.2114 1412.68L67.3535 1402.55C68.1587 1402.14 68.9784 1402.16 69.7572 1402.55C70.5484 1402.95 71.3182 1403.75 71.9598 1404.95ZM87.3226 1432.32L72.5776 1404.62C71.8925 1403.34 71.0322 1402.41 70.0718 1401.92C69.0991 1401.43 68.0459 1401.42 67.0388 1401.92L46.8968 1412.06C45.9042 1412.56 45.0525 1413.52 44.391 1414.76C43.7274 1416.01 43.2417 1417.56 42.9943 1419.3L37.5972 1457.13C37.1035 1460.59 37.6254 1464.3 38.994 1466.87L53.7389 1494.56C54.424 1495.84 55.2844 1496.78 56.2447 1497.26C57.2175 1497.75 58.2707 1497.77 59.2778 1497.26L79.4198 1487.12C80.4123 1486.62 81.2641 1485.66 81.9256 1484.42C82.5892 1483.18 83.0749 1481.62 83.3223 1479.89L88.7194 1442.06C89.2131 1438.6 88.6912 1434.89 87.3226 1432.32ZM95.5825 1449.59C95.5825 1466.47 91.9397 1481.73 86.0673 1492.76C80.1869 1503.8 72.1227 1510.52 63.3055 1510.52C54.4883 1510.52 46.4241 1503.8 40.5436 1492.76C34.6712 1481.73 31.0285 1466.47 31.0285 1449.59C31.0285 1432.72 34.6712 1417.46 40.5436 1406.43C43.8278 1400.26 47.7931 1395.44 52.1904 1392.39C52.3557 1393.46 52.6636 1394.42 53.0786 1395.2C53.7108 1396.38 54.6438 1397.23 55.7646 1397.23C56.8854 1397.23 57.8183 1396.38 58.4506 1395.2C59.0908 1393.99 59.4762 1392.36 59.4762 1390.57C59.4762 1390.07 59.4462 1389.58 59.3889 1389.11C60.6742 1388.82 61.9814 1388.66 63.3055 1388.66C72.1227 1388.66 80.1869 1395.38 86.0673 1406.43C91.9397 1417.46 95.5825 1432.72 95.5825 1449.59ZM52.0966 1391.6C47.4527 1394.73 43.3108 1399.74 39.9258 1406.1C33.9895 1417.25 30.3285 1432.62 30.3285 1449.59C30.3285 1466.56 33.9895 1481.94 39.9258 1493.08C45.8539 1504.22 54.1033 1511.22 63.3055 1511.22C72.5077 1511.22 80.757 1504.22 86.6852 1493.08C92.6215 1481.94 96.2825 1466.56 96.2825 1449.59C96.2825 1432.62 92.6215 1417.25 86.6852 1406.1C80.757 1394.96 72.5077 1387.96 63.3055 1387.96C61.942 1387.96 60.5994 1388.12 59.2822 1388.42C59.1078 1387.48 58.8221 1386.64 58.4506 1385.94C57.8183 1384.75 56.8854 1383.9 55.7646 1383.9C54.6438 1383.9 53.7108 1384.75 53.0786 1385.94C52.4383 1387.14 52.053 1388.78 52.053 1390.57C52.053 1390.92 52.0678 1391.27 52.0966 1391.6ZM53.6965 1394.87C53.2824 1394.09 52.9763 1393.09 52.8367 1391.95C54.7231 1390.73 56.6854 1389.83 58.7043 1389.28C58.7513 1389.7 58.7762 1390.13 58.7762 1390.57C58.7762 1392.27 58.4091 1393.79 57.8327 1394.87C57.2482 1395.97 56.5004 1396.53 55.7646 1396.53C55.0288 1396.53 54.281 1395.97 53.6965 1394.87ZM58.6013 1388.58C56.5898 1389.12 54.64 1389.99 52.7683 1391.17C52.7582 1390.97 52.753 1390.77 52.753 1390.57C52.753 1388.87 53.1201 1387.35 53.6965 1386.27C54.281 1385.17 55.0288 1384.6 55.7646 1384.6C56.5004 1384.6 57.2482 1385.17 57.8327 1386.27C58.1723 1386.91 58.4393 1387.7 58.6013 1388.58ZM100.304 1449.59C100.304 1451.33 100.27 1453.06 100.204 1454.76C99.5511 1454.77 99.041 1455.26 98.7143 1455.87C98.3782 1456.5 98.1809 1457.35 98.1809 1458.27C98.1809 1459.19 98.3782 1460.04 98.7143 1460.67C98.9608 1461.13 99.3115 1461.52 99.7492 1461.69C98.4059 1476.16 94.6963 1489.09 89.4061 1499.03C82.6712 1511.67 73.4266 1519.39 63.3055 1519.39C53.1844 1519.39 43.9398 1511.67 37.2048 1499.03C30.478 1486.39 26.3067 1468.92 26.3067 1449.59C26.3067 1430.27 30.478 1412.79 37.2048 1400.16C43.9398 1387.51 53.1844 1379.8 63.3055 1379.8C73.4266 1379.8 82.6712 1387.51 89.4061 1400.16C96.133 1412.79 100.304 1430.27 100.304 1449.59ZM101.091 1460.34C100.91 1460.68 100.708 1460.89 100.515 1460.99C100.662 1459.3 100.777 1457.58 100.858 1455.85C100.938 1455.94 101.016 1456.06 101.091 1456.2C101.364 1456.71 101.543 1457.44 101.543 1458.27C101.543 1459.1 101.364 1459.83 101.091 1460.34ZM99.3322 1456.2C99.5999 1455.7 99.9108 1455.48 100.175 1455.46C100.093 1457.31 99.9734 1459.13 99.817 1460.94C99.6525 1460.82 99.4853 1460.63 99.3322 1460.34C99.06 1459.83 98.8809 1459.1 98.8809 1458.27C98.8809 1457.44 99.06 1456.71 99.3322 1456.2Z" stroke="#252E39" stroke-opacity="0.5" stroke-width="0.7"/>
<path d="M3.3571 3273.37L52.2161 3175.57C56.5762 3166.84 66.0465 3165.03 72.2476 3171.75L141.736 3247C147.937 3253.72 157.408 3251.91 161.768 3243.19L210.627 3145.38C214.987 3136.65 224.457 3134.85 230.658 3141.56L300.147 3216.82C306.348 3223.53 315.819 3221.73 320.179 3213L377.308 3098.64" stroke="#384559" stroke-opacity="0.5" stroke-width="0.3" stroke-linecap="round" stroke-dasharray="1 1"/>
<path d="M21.8862 3219.38C25.132 3219.39 28.5188 3223.07 30.1396 3228.35L32.0571 3234.6C33.168 3238.22 33.2835 3242.09 32.3696 3245.05L28.8238 3256.57C27.9099 3259.54 26.0703 3261.28 23.8456 3261.28L20.0056 3261.27C16.7598 3261.27 13.373 3257.59 11.7522 3252.3L9.83468 3246.05C8.72373 3242.43 8.60825 3238.57 9.52215 3235.6L13.068 3224.08C13.9819 3221.11 15.8214 3219.38 18.0462 3219.38L21.8862 3219.38Z" fill="#3E4957" fill-opacity="0.5"/>
<path d="M260.461 3141.86C262.107 3140.7 264.609 3141.47 265.969 3143.57L276.198 3159.34C276.817 3160.29 277.112 3161.4 277.022 3162.43L274.42 3192.04C274.33 3193.07 273.861 3193.94 273.111 3194.47L260.727 3203.23C259.08 3204.39 256.579 3203.62 255.219 3201.52L244.99 3185.75C244.371 3184.79 244.075 3183.69 244.166 3182.66L246.767 3153.05C246.857 3152.02 247.327 3151.15 248.076 3150.62L260.461 3141.86Z" fill="#3E4957" fill-opacity="0.5"/>
<path d="M359.157 3107.2C363.182 3104.36 369.299 3106.25 372.624 3111.38V3111.38C374.138 3113.71 374.86 3116.42 374.638 3118.94L373.547 3131.36C373.326 3133.87 372.179 3136 370.346 3137.3V3137.3C366.32 3140.15 360.204 3138.25 356.879 3133.12V3133.12C355.365 3130.79 354.643 3128.08 354.864 3125.56L355.955 3113.15C356.177 3110.63 357.324 3108.5 359.157 3107.2V3107.2Z" fill="#3E4957" fill-opacity="0.5"/>
<ellipse cx="62.1455" cy="3168.01" rx="12.733" ry="23.9211" stroke="#252E39" stroke-width="0.3" stroke-linecap="round" stroke-dasharray="1 1"/>
<path d="M65.6985 3168.01C65.6985 3169.89 65.2923 3171.59 64.6403 3172.82C63.986 3174.04 63.0992 3174.77 62.1454 3174.77C61.1916 3174.77 60.3048 3174.04 59.6505 3172.82C58.9986 3171.59 58.5923 3169.89 58.5923 3168.01C58.5923 3166.13 58.9986 3164.43 59.6505 3163.2C60.3048 3161.97 61.1916 3161.25 62.1454 3161.25C63.0992 3161.25 63.986 3161.97 64.6403 3163.2C65.2923 3164.43 65.6985 3166.13 65.6985 3168.01Z" stroke="#43505F" stroke-opacity="0.5" stroke-width="0.2"/>
<path d="M223.601 3137.63C223.601 3139.46 223.205 3141.09 222.59 3142.25C221.963 3143.43 221.182 3143.99 220.448 3143.99C219.714 3143.99 218.933 3143.43 218.306 3142.25C217.691 3141.09 217.295 3139.46 217.295 3137.63C217.295 3135.8 217.691 3134.17 218.306 3133.01C218.933 3131.83 219.714 3131.27 220.448 3131.27C221.182 3131.27 221.963 3131.83 222.59 3133.01C223.205 3134.17 223.601 3135.8 223.601 3137.63Z" stroke="#43505F" stroke-opacity="0.5"/>
<path d="M314.711 3220.44C314.711 3222.27 314.315 3223.9 313.7 3225.06C313.073 3226.24 312.292 3226.81 311.558 3226.81C310.824 3226.81 310.043 3226.24 309.416 3225.06C308.801 3223.9 308.405 3222.27 308.405 3220.44C308.405 3218.61 308.801 3216.98 309.416 3215.82C310.043 3214.65 310.824 3214.08 311.558 3214.08C312.292 3214.08 313.073 3214.65 313.7 3215.82C314.315 3216.98 314.711 3218.61 314.711 3220.44Z" stroke="#43505F" stroke-opacity="0.5"/>
<defs>
<filter id="filter0_d_129_170" x="2.31857" y="3983" width="373.961" height="1139.9" filterUnits="userSpaceOnUse" color-interpolation-filters="sRGB">
<feFlood flood-opacity="0" result="BackgroundImageFix"/>
<feColorMatrix in="SourceAlpha" type="matrix" values="0 0 0 0 0 0 0 0 0 0 0 0 0 0 0 0 0 0 127 0" result="hardAlpha"/>
<feOffset dy="-5"/>
<feComposite in2="hardAlpha" operator="out"/>
<feColorMatrix type="matrix" values="0 0 0 0 0 0 0 0 0 0 0 0 0 0 0 0 0 0 0.1 0"/>
<feBlend mode="normal" in2="BackgroundImageFix" result="effect1_dropShadow_129_170"/>
<feBlend mode="normal" in="SourceGraphic" in2="effect1_dropShadow_129_170" result="shape"/>
</filter>
<filter id="filter1_d_129_170" x="0.357101" y="3.15161" width="379.961" height="360.72" filterUnits="userSpaceOnUse" color-interpolation-filters="sRGB">
<feFlood flood-opacity="0" result="BackgroundImageFix"/>
<feColorMatrix in="SourceAlpha" type="matrix" values="0 0 0 0 0 0 0 0 0 0 0 0 0 0 0 0 0 0 127 0" result="hardAlpha"/>
<feOffset dy="3"/>
<feGaussianBlur stdDeviation="1.5"/>
<feComposite in2="hardAlpha" operator="out"/>
<feColorMatrix type="matrix" values="0 0 0 0 0 0 0 0 0 0 0 0 0 0 0 0 0 0 0.25 0"/>
<feBlend mode="normal" in2="BackgroundImageFix" result="effect1_dropShadow_129_170"/>
<feBlend mode="normal" in="SourceGraphic" in2="effect1_dropShadow_129_170" result="shape"/>
</filter>
<linearGradient id="paint0_linear_129_170" x1="189.299" y1="3951.25" x2="-246.201" y2="4011.51" gradientUnits="userSpaceOnUse">
<stop offset="0.441825" stop-color="#14171C"/>
<stop offset="0.442167" stop-color="#19212B"/>
<stop offset="0.442167" stop-color="#151A21"/>
</linearGradient>
<linearGradient id="paint1_linear_129_170" x1="71.4009" y1="432.078" x2="533.839" y2="114.834" gradientUnits="userSpaceOnUse">
<stop offset="0.522632" stop-color="#13171C"/>
<stop offset="0.522732" stop-color="#151921"/>
</linearGradient>
</defs>
</svg>
