<svg width="1538" height="4098" viewBox="0 0 1538 4098" fill="none" xmlns="http://www.w3.org/2000/svg">
<path d="M0.753723 1.40552H192.754H384.754H576.754H768.754H960.754H1152.75H1344.75H1536.75V129.406V257.406V385.406V513.406V641.406V769.406V897.406V1025.41H1344.75H1152.75H960.754H768.754H576.754H384.754H192.754H0.753723V897.406V769.406V641.406V513.406V385.406V257.406V129.406V1.40552Z" fill="#161B22"/>
<path d="M768.754 1.40552V129.406M768.754 1.40552H576.754M768.754 1.40552H960.754M768.754 1025.41H576.754M768.754 1025.41H960.754M768.754 1025.41V897.406M0.753723 513.406H192.754M0.753723 513.406V385.406M0.753723 513.406V641.406M1536.75 513.406H1344.75M1536.75 513.406V385.406M1536.75 513.406V641.406M384.754 1.40552H192.754M384.754 1.40552V129.406M384.754 1.40552H576.754M384.754 513.406H192.754M384.754 513.406V385.406M384.754 513.406H576.754M384.754 513.406V641.406M384.754 1025.41H192.754M384.754 1025.41H576.754M384.754 1025.41V897.406M1152.75 1.40552V129.406M1152.75 1.40552H960.754M1152.75 1.40552H1344.75M1152.75 513.406H960.754M1152.75 513.406H1344.75M1152.75 513.406V385.406M1152.75 513.406V641.406M1152.75 1025.41H960.754M1152.75 1025.41H1344.75M1152.75 1025.41V897.406M0.753723 257.406H192.754M0.753723 257.406V129.406M0.753723 257.406V385.406M384.754 257.406H192.754M384.754 257.406V129.406M384.754 257.406V385.406M384.754 257.406H576.754M768.754 257.406V129.406M768.754 257.406H576.754M768.754 257.406H960.754M768.754 257.406V385.406M1152.75 257.406V129.406M1152.75 257.406H960.754M1152.75 257.406H1344.75M1152.75 257.406V385.406M1536.75 257.406V129.406M1536.75 257.406H1344.75M1536.75 257.406V385.406M1536.75 769.406H1344.75M1536.75 769.406V897.406M1536.75 769.406V641.406M1152.75 769.406H960.754M1152.75 769.406H1344.75M1152.75 769.406V897.406M1152.75 769.406V641.406M768.754 769.406H576.754M768.754 769.406H960.754M768.754 769.406V897.406M768.754 769.406V641.406M384.754 769.406H192.754M384.754 769.406H576.754M384.754 769.406V897.406M384.754 769.406V641.406M0.753723 769.406H192.754M0.753723 769.406V897.406M0.753723 769.406V641.406M192.754 1.40552H0.753723V129.406M192.754 1.40552V257.406M192.754 257.406V513.406M192.754 513.406V769.406M192.754 769.406V1025.41M192.754 1025.41H0.753723V897.406M0.753723 129.406H384.754M384.754 129.406H768.754M768.754 129.406H1152.75M1152.75 129.406H1536.75M1536.75 129.406V1.40552H1344.75M0.753723 385.406H384.754M384.754 385.406H768.754M576.754 257.406V513.406M576.754 257.406V1.40552M576.754 769.406V641.406M576.754 769.406V897.406M576.754 1025.41V897.406M960.754 1025.41V897.406M960.754 769.406V641.406M960.754 769.406V897.406M576.754 513.406H768.754H960.754M576.754 513.406V641.406M960.754 513.406V257.406M960.754 513.406V641.406M960.754 257.406V1.40552M1344.75 1.40552V257.406M1344.75 257.406V513.406M1344.75 513.406V641.406M1344.75 769.406V641.406M1344.75 769.406V897.406M1344.75 1025.41H1536.75V897.406M1344.75 1025.41V897.406M1536.75 897.406H1344.75M1152.75 897.406H960.754M1152.75 897.406H1344.75M768.754 897.406H576.754M768.754 897.406H960.754M384.754 897.406H0.753723M384.754 897.406H576.754M1152.75 385.406H768.754M1152.75 385.406H1536.75M768.754 385.406V641.406M1536.75 641.406H1344.75M1344.75 641.406H1152.75M1152.75 641.406H960.754M768.754 641.406H576.754M768.754 641.406H960.754M384.754 641.406H0.753723M384.754 641.406H576.754" stroke="white" stroke-opacity="0.02"/>
<path d="M0.753723 2049.4H192.754H384.754H576.754H768.754H960.754H1152.75H1344.75H1536.75V2177.4V2305.4V2433.4V2561.4V2689.4V2817.4V2945.4V3073.4H1344.75H1152.75H960.754H768.754H576.754H384.754H192.754H0.753723V2945.4V2817.4V2689.4V2561.4V2433.4V2305.4V2177.4V2049.4Z" fill="#161B22"/>
<path d="M768.754 2049.4V2177.4M768.754 2049.4H576.754M768.754 2049.4H960.754M768.754 3073.4H576.754M768.754 3073.4H960.754M768.754 3073.4V2945.4M0.753723 2561.4H192.754M0.753723 2561.4V2433.4M0.753723 2561.4V2689.4M1536.75 2561.4H1344.75M1536.75 2561.4V2433.4M1536.75 2561.4V2689.4M384.754 2049.4H192.754M384.754 2049.4V2177.4M384.754 2049.4H576.754M384.754 2561.4H192.754M384.754 2561.4V2433.4M384.754 2561.4H576.754M384.754 2561.4V2689.4M384.754 3073.4H192.754M384.754 3073.4H576.754M384.754 3073.4V2945.4M1152.75 2049.4V2177.4M1152.75 2049.4H960.754M1152.75 2049.4H1344.75M1152.75 2561.4H960.754M1152.75 2561.4H1344.75M1152.75 2561.4V2433.4M1152.75 2561.4V2689.4M1152.75 3073.4H960.754M1152.75 3073.4H1344.75M1152.75 3073.4V2945.4M0.753723 2305.4H192.754M0.753723 2305.4V2177.4M0.753723 2305.4V2433.4M384.754 2305.4H192.754M384.754 2305.4V2177.4M384.754 2305.4V2433.4M384.754 2305.4H576.754M768.754 2305.4V2177.4M768.754 2305.4H576.754M768.754 2305.4H960.754M768.754 2305.4V2433.4M1152.75 2305.4V2177.4M1152.75 2305.4H960.754M1152.75 2305.4H1344.75M1152.75 2305.4V2433.4M1536.75 2305.4V2177.4M1536.75 2305.4H1344.75M1536.75 2305.4V2433.4M1536.75 2817.4H1344.75M1536.75 2817.4V2945.4M1536.75 2817.4V2689.4M1152.75 2817.4H960.754M1152.75 2817.4H1344.75M1152.75 2817.4V2945.4M1152.75 2817.4V2689.4M768.754 2817.4H576.754M768.754 2817.4H960.754M768.754 2817.4V2945.4M768.754 2817.4V2689.4M384.754 2817.4H192.754M384.754 2817.4H576.754M384.754 2817.4V2945.4M384.754 2817.4V2689.4M0.753723 2817.4H192.754M0.753723 2817.4V2945.4M0.753723 2817.4V2689.4M192.754 2049.4H0.753723V2177.4M192.754 2049.4V2305.4M192.754 2305.4V2561.4M192.754 2561.4V2817.4M192.754 2817.4V3073.4M192.754 3073.4H0.753723V2945.4M0.753723 2177.4H384.754M384.754 2177.4H768.754M768.754 2177.4H1152.75M1152.75 2177.4H1536.75M1536.75 2177.4V2049.4H1344.75M0.753723 2433.4H384.754M384.754 2433.4H768.754M576.754 2305.4V2561.4M576.754 2305.4V2049.4M576.754 2817.4V2689.4M576.754 2817.4V2945.4M576.754 3073.4V2945.4M960.754 3073.4V2945.4M960.754 2817.4V2689.4M960.754 2817.4V2945.4M576.754 2561.4H768.754H960.754M576.754 2561.4V2689.4M960.754 2561.4V2305.4M960.754 2561.4V2689.4M960.754 2305.4V2049.4M1344.75 2049.4V2305.4M1344.75 2305.4V2561.4M1344.75 2561.4V2689.4M1344.75 2817.4V2689.4M1344.75 2817.4V2945.4M1344.75 3073.4H1536.75V2945.4M1344.75 3073.4V2945.4M1536.75 2945.4H1344.75M1152.75 2945.4H960.754M1152.75 2945.4H1344.75M768.754 2945.4H576.754M768.754 2945.4H960.754M384.754 2945.4H0.753723M384.754 2945.4H576.754M1152.75 2433.4H768.754M1152.75 2433.4H1536.75M768.754 2433.4V2689.4M1536.75 2689.4H1344.75M1344.75 2689.4H1152.75M1152.75 2689.4H960.754M768.754 2689.4H576.754M768.754 2689.4H960.754M384.754 2689.4H0.753723M384.754 2689.4H576.754" stroke="white" stroke-opacity="0.02"/>
<path d="M0.753723 3073.4H192.754H384.754H576.754H768.754H960.754H1152.75H1344.75H1536.75V3201.4V3329.4V3457.4V3585.4V3713.4V3841.4V3969.4V4097.4H1344.75H1152.75H960.754H768.754H576.754H384.754H192.754H0.753723V3969.4V3841.4V3713.4V3585.4V3457.4V3329.4V3201.4V3073.4Z" fill="#161B22"/>
<path d="M768.754 3073.4V3201.4M768.754 3073.4H576.754M768.754 3073.4H960.754M768.754 4097.4H576.754M768.754 4097.4H960.754M768.754 4097.4V3969.4M0.753723 3585.4H192.754M0.753723 3585.4V3457.4M0.753723 3585.4V3713.4M1536.75 3585.4H1344.75M1536.75 3585.4V3457.4M1536.75 3585.4V3713.4M384.754 3073.4H192.754M384.754 3073.4V3201.4M384.754 3073.4H576.754M384.754 3585.4H192.754M384.754 3585.4V3457.4M384.754 3585.4H576.754M384.754 3585.4V3713.4M384.754 4097.4H192.754M384.754 4097.4H576.754M384.754 4097.4V3969.4M1152.75 3073.4V3201.4M1152.75 3073.4H960.754M1152.75 3073.4H1344.75M1152.75 3585.4H960.754M1152.75 3585.4H1344.75M1152.75 3585.4V3457.4M1152.75 3585.4V3713.4M1152.75 4097.4H960.754M1152.75 4097.4H1344.75M1152.75 4097.4V3969.4M0.753723 3329.4H192.754M0.753723 3329.4V3201.4M0.753723 3329.4V3457.4M384.754 3329.4H192.754M384.754 3329.4V3201.4M384.754 3329.4V3457.4M384.754 3329.4H576.754M768.754 3329.4V3201.4M768.754 3329.4H576.754M768.754 3329.4H960.754M768.754 3329.4V3457.4M1152.75 3329.4V3201.4M1152.75 3329.4H960.754M1152.75 3329.4H1344.75M1152.75 3329.4V3457.4M1536.75 3329.4V3201.4M1536.75 3329.4H1344.75M1536.75 3329.4V3457.4M1536.75 3841.4H1344.75M1536.75 3841.4V3969.4M1536.75 3841.4V3713.4M1152.75 3841.4H960.754M1152.75 3841.4H1344.75M1152.75 3841.4V3969.4M1152.75 3841.4V3713.4M768.754 3841.4H576.754M768.754 3841.4H960.754M768.754 3841.4V3969.4M768.754 3841.4V3713.4M384.754 3841.4H192.754M384.754 3841.4H576.754M384.754 3841.4V3969.4M384.754 3841.4V3713.4M0.753723 3841.4H192.754M0.753723 3841.4V3969.4M0.753723 3841.4V3713.4M192.754 3073.4H0.753723V3201.4M192.754 3073.4V3329.4M192.754 3329.4V3585.4M192.754 3585.4V3841.4M192.754 3841.4V4097.4M192.754 4097.4H0.753723V3969.4M0.753723 3201.4H384.754M384.754 3201.4H768.754M768.754 3201.4H1152.75M1152.75 3201.4H1536.75M1536.75 3201.4V3073.4H1344.75M0.753723 3457.4H384.754M384.754 3457.4H768.754M576.754 3329.4V3585.4M576.754 3329.4V3073.4M576.754 3841.4V3713.4M576.754 3841.4V3969.4M576.754 4097.4V3969.4M960.754 4097.4V3969.4M960.754 3841.4V3713.4M960.754 3841.4V3969.4M576.754 3585.4H768.754H960.754M576.754 3585.4V3713.4M960.754 3585.4V3329.4M960.754 3585.4V3713.4M960.754 3329.4V3073.4M1344.75 3073.4V3329.4M1344.75 3329.4V3585.4M1344.75 3585.4V3713.4M1344.75 3841.4V3713.4M1344.75 3841.4V3969.4M1344.75 4097.4H1536.75V3969.4M1344.75 4097.4V3969.4M1536.75 3969.4H1344.75M1152.75 3969.4H960.754M1152.75 3969.4H1344.75M768.754 3969.4H576.754M768.754 3969.4H960.754M384.754 3969.4H0.753723M384.754 3969.4H576.754M1152.75 3457.4H768.754M1152.75 3457.4H1536.75M768.754 3457.4V3713.4M1536.75 3713.4H1344.75M1344.75 3713.4H1152.75M1152.75 3713.4H960.754M768.754 3713.4H576.754M768.754 3713.4H960.754M384.754 3713.4H0.753723M384.754 3713.4H576.754" stroke="white" stroke-opacity="0.02"/>
<path d="M0.753723 1025.4H192.754H384.754H576.754H768.754H960.754H1152.75H1344.75H1536.75V1153.4V1281.4V1409.4V1537.4V1665.4V1793.4V1921.4V2049.4H1344.75H1152.75H960.754H768.754H576.754H384.754H192.754H0.753723V1921.4V1793.4V1665.4V1537.4V1409.4V1281.4V1153.4V1025.4Z" fill="#161B22"/>
<path d="M768.754 1025.4V1153.4M768.754 1025.4H576.754M768.754 1025.4H960.754M768.754 2049.4H576.754M768.754 2049.4H960.754M768.754 2049.4V1921.4M0.753723 1537.4H192.754M0.753723 1537.4V1409.4M0.753723 1537.4V1665.4M1536.75 1537.4H1344.75M1536.75 1537.4V1409.4M1536.75 1537.4V1665.4M384.754 1025.4H192.754M384.754 1025.4V1153.4M384.754 1025.4H576.754M384.754 1537.4H192.754M384.754 1537.4V1409.4M384.754 1537.4H576.754M384.754 1537.4V1665.4M384.754 2049.4H192.754M384.754 2049.4H576.754M384.754 2049.4V1921.4M1152.75 1025.4V1153.4M1152.75 1025.4H960.754M1152.75 1025.4H1344.75M1152.75 1537.4H960.754M1152.75 1537.4H1344.75M1152.75 1537.4V1409.4M1152.75 1537.4V1665.4M1152.75 2049.4H960.754M1152.75 2049.4H1344.75M1152.75 2049.4V1921.4M0.753723 1281.4H192.754M0.753723 1281.4V1153.4M0.753723 1281.4V1409.4M384.754 1281.4H192.754M384.754 1281.4V1153.4M384.754 1281.4V1409.4M384.754 1281.4H576.754M768.754 1281.4V1153.4M768.754 1281.4H576.754M768.754 1281.4H960.754M768.754 1281.4V1409.4M1152.75 1281.4V1153.4M1152.75 1281.4H960.754M1152.75 1281.4H1344.75M1152.75 1281.4V1409.4M1536.75 1281.4V1153.4M1536.75 1281.4H1344.75M1536.75 1281.4V1409.4M1536.75 1793.4H1344.75M1536.75 1793.4V1921.4M1536.75 1793.4V1665.4M1152.75 1793.4H960.754M1152.75 1793.4H1344.75M1152.75 1793.4V1921.4M1152.75 1793.4V1665.4M768.754 1793.4H576.754M768.754 1793.4H960.754M768.754 1793.4V1921.4M768.754 1793.4V1665.4M384.754 1793.4H192.754M384.754 1793.4H576.754M384.754 1793.4V1921.4M384.754 1793.4V1665.4M0.753723 1793.4H192.754M0.753723 1793.4V1921.4M0.753723 1793.4V1665.4M192.754 1025.4H0.753723V1153.4M192.754 1025.4V1281.4M192.754 1281.4V1537.4M192.754 1537.4V1793.4M192.754 1793.4V2049.4M192.754 2049.4H0.753723V1921.4M0.753723 1153.4H384.754M384.754 1153.4H768.754M768.754 1153.4H1152.75M1152.75 1153.4H1536.75M1536.75 1153.4V1025.4H1344.75M0.753723 1409.4H384.754M384.754 1409.4H768.754M576.754 1281.4V1537.4M576.754 1281.4V1025.4M576.754 1793.4V1665.4M576.754 1793.4V1921.4M576.754 2049.4V1921.4M960.754 2049.4V1921.4M960.754 1793.4V1665.4M960.754 1793.4V1921.4M576.754 1537.4H768.754H960.754M576.754 1537.4V1665.4M960.754 1537.4V1281.4M960.754 1537.4V1665.4M960.754 1281.4V1025.4M1344.75 1025.4V1281.4M1344.75 1281.4V1537.4M1344.75 1537.4V1665.4M1344.75 1793.4V1665.4M1344.75 1793.4V1921.4M1344.75 2049.4H1536.75V1921.4M1344.75 2049.4V1921.4M1536.75 1921.4H1344.75M1152.75 1921.4H960.754M1152.75 1921.4H1344.75M768.754 1921.4H576.754M768.754 1921.4H960.754M384.754 1921.4H0.753723M384.754 1921.4H576.754M1152.75 1409.4H768.754M1152.75 1409.4H1536.75M768.754 1409.4V1665.4M1536.75 1665.4H1344.75M1344.75 1665.4H1152.75M1152.75 1665.4H960.754M768.754 1665.4H576.754M768.754 1665.4H960.754M384.754 1665.4H0.753723M384.754 1665.4H576.754" stroke="white" stroke-opacity="0.02"/>
<g filter="url(#filter0_d_133_205)">
<path d="M1386.31 564.025C1380.8 584.59 1364.74 600.654 1344.18 606.164L611.863 802.387C591.298 807.897 569.355 802.018 554.299 786.963L18.2099 250.873C3.15481 235.818 -2.72481 213.875 2.78572 193.309L53.8917 2.5791L1536.75 2.57912L1386.31 564.025Z" fill="url(#paint0_linear_133_205)"/>
</g>
<g filter="url(#filter1_d_133_205)">
<path d="M1299.38 3442.15L506.346 3298.36C487.359 3294.91 467.975 3301.86 455.498 3316.59L13.5564 3838.13C5.28838 3847.89 0.75148 3860.26 0.753724 3873.05L0.793088 4097.4H1536.49L1536.49 4033.12C1536.49 4026.91 1535.42 4020.75 1533.33 4014.9L1340.57 3477.06C1334.06 3458.9 1318.36 3445.6 1299.38 3442.15Z" fill="url(#paint1_linear_133_205)"/>
</g>
<path d="M1063.8 267.258C1074.02 265.611 1084.36 269.546 1090.9 277.581L1163.59 366.886C1170.13 374.921 1171.89 385.835 1168.2 395.517L1127.21 503.127C1123.52 512.809 1114.95 519.788 1104.72 521.435L991.032 539.74C980.803 541.387 970.472 537.452 963.932 529.417L891.235 440.112C884.694 432.077 882.937 421.163 886.625 411.481L927.617 303.871C931.305 294.189 939.878 287.21 950.107 285.563L1063.8 267.258Z" fill="#252E39" fill-opacity="0.12"/>
<g filter="url(#filter2_d_133_205)">
<path d="M341.478 1167.75C348.657 1160.28 359.276 1157.21 369.335 1159.69L424.172 1173.23C434.231 1175.71 442.202 1183.37 445.081 1193.32L460.779 1247.58C463.659 1257.53 461.01 1268.27 453.831 1275.74L414.691 1316.46C407.512 1323.93 396.893 1327 386.834 1324.52L331.996 1310.99C321.937 1308.5 313.967 1300.84 311.088 1290.89L295.39 1236.63C292.51 1226.68 295.159 1215.95 302.338 1208.48L341.478 1167.75Z" fill="#252E39" fill-opacity="0.12" shape-rendering="crispEdges"/>
<path d="M298.319 1246.76L296.385 1240.07C296.411 1240.06 296.426 1240.04 296.419 1240.01L295.438 1236.62C295.084 1235.39 294.813 1234.16 294.625 1232.92C294.621 1232.89 294.595 1232.87 294.568 1232.88C294.193 1230.38 294.149 1227.87 294.42 1225.41C294.447 1225.41 294.472 1225.39 294.475 1225.36C294.756 1222.85 295.365 1220.38 296.286 1218.03C296.296 1218 296.283 1217.97 296.258 1217.96C297.165 1215.65 298.372 1213.45 299.864 1211.42C299.886 1211.43 299.918 1211.43 299.934 1211.41C300.678 1210.4 301.492 1209.43 302.374 1208.51L304.821 1205.97C304.84 1205.95 304.839 1205.91 304.819 1205.9L309.642 1200.88C309.662 1200.9 309.694 1200.9 309.713 1200.88L314.605 1195.79C314.625 1195.77 314.624 1195.73 314.604 1195.71L319.427 1190.7C319.447 1190.72 319.479 1190.72 319.498 1190.7L324.39 1185.6C324.409 1185.58 324.409 1185.55 324.389 1185.53L329.212 1180.52C329.232 1180.53 329.264 1180.53 329.283 1180.51L334.175 1175.42C334.194 1175.4 334.194 1175.37 334.174 1175.35L338.997 1170.33C339.017 1170.35 339.048 1170.35 339.067 1170.33L341.514 1167.79C342.396 1166.87 343.331 1166.02 344.311 1165.23C344.332 1165.22 344.336 1165.19 344.318 1165.16C346.29 1163.59 348.442 1162.3 350.713 1161.3C350.725 1161.33 350.754 1161.34 350.779 1161.33C353.097 1160.31 355.538 1159.61 358.039 1159.23C358.066 1159.22 358.085 1159.2 358.081 1159.17C360.534 1158.8 363.045 1158.75 365.551 1159.02C365.548 1159.05 365.568 1159.07 365.595 1159.08C366.841 1159.22 368.086 1159.44 369.323 1159.74L372.75 1160.59C372.777 1160.59 372.804 1160.58 372.811 1160.55L379.569 1162.22C379.562 1162.25 379.578 1162.27 379.605 1162.28L386.46 1163.97C386.487 1163.98 386.514 1163.96 386.52 1163.93L393.278 1165.6C393.271 1165.63 393.288 1165.66 393.314 1165.66L400.169 1167.35C400.196 1167.36 400.223 1167.35 400.23 1167.32L406.987 1168.99C406.981 1169.01 406.997 1169.04 407.024 1169.05L413.878 1170.74C413.905 1170.75 413.932 1170.73 413.939 1170.7L420.697 1172.37C420.69 1172.4 420.706 1172.42 420.733 1172.43L424.16 1173.28C425.397 1173.58 426.602 1173.96 427.77 1174.42C427.796 1174.43 427.825 1174.42 427.835 1174.39C430.182 1175.32 432.378 1176.53 434.378 1178C434.362 1178.02 434.366 1178.05 434.389 1178.07C436.425 1179.57 438.258 1181.33 439.837 1183.31C439.855 1183.33 439.886 1183.33 439.908 1183.31C441.454 1185.26 442.757 1187.4 443.771 1189.71C443.746 1189.72 443.734 1189.75 443.745 1189.78C444.248 1190.92 444.679 1192.11 445.033 1193.34L446.014 1196.73C446.022 1196.75 446.05 1196.77 446.076 1196.76L448.011 1203.45C447.984 1203.46 447.969 1203.48 447.977 1203.51L449.939 1210.29C449.946 1210.32 449.974 1210.33 450.001 1210.33L451.935 1217.01C451.909 1217.02 451.893 1217.05 451.901 1217.07L453.863 1223.86C453.871 1223.88 453.899 1223.9 453.925 1223.89L455.86 1230.58C455.833 1230.58 455.818 1230.61 455.826 1230.64L457.788 1237.42C457.795 1237.45 457.823 1237.46 457.85 1237.46L459.784 1244.14C459.758 1244.15 459.742 1244.18 459.75 1244.2L460.731 1247.59C461.085 1248.82 461.356 1250.05 461.544 1251.29C461.548 1251.32 461.574 1251.34 461.601 1251.33C461.976 1253.83 462.02 1256.34 461.749 1258.8C461.721 1258.8 461.697 1258.82 461.694 1258.85C461.413 1261.36 460.804 1263.83 459.883 1266.19C459.873 1266.21 459.885 1266.24 459.911 1266.25C459.004 1268.56 457.796 1270.76 456.305 1272.79C456.282 1272.78 456.251 1272.78 456.235 1272.8C455.491 1273.81 454.677 1274.78 453.794 1275.7L451.348 1278.25C451.329 1278.27 451.33 1278.3 451.35 1278.32L446.527 1283.34C446.507 1283.32 446.475 1283.32 446.456 1283.34L441.563 1288.43C441.544 1288.45 441.545 1288.48 441.565 1288.5L436.742 1293.52C436.722 1293.5 436.69 1293.5 436.671 1293.52L431.779 1298.61C431.759 1298.63 431.76 1298.66 431.78 1298.68L426.957 1303.7C426.937 1303.68 426.905 1303.68 426.886 1303.7L421.994 1308.79C421.975 1308.81 421.975 1308.84 421.995 1308.86L417.172 1313.88C417.152 1313.86 417.12 1313.86 417.101 1313.88L414.655 1316.42C413.772 1317.34 412.838 1318.19 411.858 1318.98C411.837 1318.99 411.833 1319.03 411.851 1319.05C409.878 1320.62 407.727 1321.91 405.455 1322.91C405.444 1322.89 405.415 1322.87 405.39 1322.89C403.072 1323.9 400.631 1324.61 398.13 1324.99C398.102 1324.99 398.084 1325.02 398.088 1325.04C395.634 1325.41 393.124 1325.47 390.618 1325.19C390.621 1325.16 390.601 1325.14 390.574 1325.14C389.328 1325 388.082 1324.78 386.846 1324.47L383.418 1323.62C383.392 1323.62 383.364 1323.63 383.358 1323.66L376.6 1321.99C376.607 1321.97 376.59 1321.94 376.564 1321.93L369.709 1320.24C369.682 1320.23 369.655 1320.25 369.648 1320.28L362.891 1318.61C362.898 1318.58 362.881 1318.56 362.854 1318.55L356 1316.86C355.973 1316.85 355.946 1316.87 355.939 1316.89L349.182 1315.23C349.188 1315.2 349.172 1315.17 349.145 1315.17L342.29 1313.47C342.264 1313.47 342.236 1313.48 342.23 1313.51L335.472 1311.84C335.479 1311.82 335.463 1311.79 335.436 1311.78L332.008 1310.94C330.772 1310.63 329.567 1310.25 328.399 1309.79C328.373 1309.78 328.344 1309.79 328.334 1309.82C325.987 1308.9 323.791 1307.68 321.791 1306.21C321.807 1306.19 321.803 1306.16 321.78 1306.14C319.743 1304.64 317.911 1302.88 316.331 1300.91C316.314 1300.88 316.283 1300.88 316.261 1300.9C314.715 1298.96 313.412 1296.81 312.398 1294.5C312.423 1294.49 312.434 1294.46 312.423 1294.44C311.921 1293.29 311.49 1292.1 311.136 1290.88L310.155 1287.48C310.147 1287.46 310.119 1287.44 310.093 1287.45L308.158 1280.76C308.185 1280.76 308.2 1280.73 308.192 1280.7L306.23 1273.92C306.222 1273.89 306.195 1273.88 306.168 1273.89L304.234 1267.2C304.26 1267.19 304.275 1267.16 304.268 1267.14L302.306 1260.36C302.298 1260.33 302.27 1260.31 302.244 1260.32L300.309 1253.64C300.336 1253.63 300.351 1253.6 300.343 1253.57L298.381 1246.79C298.373 1246.77 298.346 1246.75 298.319 1246.76Z" stroke="white" stroke-width="0.1" stroke-linecap="round" stroke-linejoin="round" stroke-dasharray="8 8" shape-rendering="crispEdges"/>
</g>
<circle cx="378.505" cy="1241.85" r="109.007" transform="rotate(-31.1364 378.505 1241.85)" stroke="white" stroke-opacity="0.5" stroke-width="0.1" stroke-linecap="round" stroke-dasharray="8 8"/>
<circle cx="378.505" cy="1241.85" r="124.589" transform="rotate(-31.1364 378.505 1241.85)" stroke="#252E39" stroke-opacity="0.6" stroke-width="0.5"/>
<circle cx="302.614" cy="1164.97" r="11.0363" transform="rotate(-31.1364 302.614 1164.97)" fill="#252E39" fill-opacity="0.12" stroke="#252E39" stroke-width="0.4" stroke-linecap="round" stroke-linejoin="round" stroke-dasharray="3 3"/>
<circle cx="492.081" cy="1191.29" r="5.56817" transform="rotate(-31.1364 492.081 1191.29)" fill="#252E39" stroke="#455E7E" stroke-width="0.1"/>
<circle cx="373.656" cy="1321.72" r="5.56817" transform="rotate(-31.1364 373.656 1321.72)" fill="#252E39" stroke="#455E7E" stroke-width="0.1"/>
<circle cx="269.622" cy="1239.12" r="5.56817" transform="rotate(-31.1364 269.622 1239.12)" fill="#252E39" fill-opacity="0.5" stroke="#455E7E" stroke-width="0.1"/>
<path d="M0.983032 2825.34L201.539 2611.57C219.436 2592.5 258.31 2588.55 283.764 2603.23L569.001 2767.71C594.455 2782.38 633.329 2778.44 651.226 2759.36L851.782 2545.6C869.679 2526.52 908.553 2522.58 934.007 2537.26L1219.24 2701.73C1244.7 2716.41 1283.57 2712.47 1301.47 2693.39L1535.97 2443.44" stroke="#384559" stroke-opacity="0.5" stroke-linecap="round" stroke-dasharray="5 5"/>
<path d="M93.8625 2707.35C97.4352 2707.36 100.735 2709.27 102.519 2712.36L123.141 2748.15C124.924 2751.25 124.922 2755.06 123.134 2758.15L102.458 2793.91C100.67 2797.01 97.3678 2798.91 93.7958 2798.91L52.4998 2798.88C48.9271 2798.87 45.627 2796.97 43.843 2793.87L23.2216 2758.08C21.4379 2754.98 21.4406 2751.17 23.2287 2748.08L43.9046 2712.32C45.6927 2709.22 48.9945 2707.32 52.5665 2707.32L93.8625 2707.35Z" fill="#3E4957" fill-opacity="0.25"/>
<path d="M1063.32 2535.28C1066.66 2534.02 1070.42 2534.64 1073.18 2536.91L1120.44 2575.7C1123.2 2577.96 1124.54 2581.53 1123.96 2585.05L1114 2645.39C1113.42 2648.91 1111 2651.86 1107.66 2653.12L1050.45 2674.66C1047.11 2675.91 1043.35 2675.29 1040.59 2673.03L993.335 2634.24C990.574 2631.97 989.231 2628.4 989.813 2624.88L999.768 2564.55C1000.35 2561.02 1002.77 2558.08 1006.11 2556.82L1063.32 2535.28Z" fill="#3E4957" fill-opacity="0.25"/>
<path d="M1486.33 2452.79C1489.68 2451.53 1493.44 2452.15 1496.2 2454.42L1521.97 2475.57C1524.73 2477.84 1526.07 2481.4 1525.49 2484.93L1520.06 2517.83C1519.48 2521.35 1517.06 2524.3 1513.72 2525.56L1482.53 2537.3C1479.18 2538.56 1475.42 2537.94 1472.66 2535.67L1446.89 2514.52C1444.13 2512.26 1442.79 2508.69 1443.37 2505.16L1448.8 2472.26C1449.38 2468.74 1451.8 2465.79 1455.14 2464.53L1486.33 2452.79Z" fill="#3E4957" fill-opacity="0.25"/>
<path d="M294.005 2587.38C294.251 2589.06 294.418 2590.76 294.502 2592.49L293.503 2592.54C293.543 2593.37 293.564 2594.21 293.564 2595.06C293.564 2595.9 293.543 2596.74 293.503 2597.57L294.502 2597.62C294.418 2599.35 294.251 2601.05 294.005 2602.73L293.015 2602.58C292.769 2604.26 292.442 2605.9 292.039 2607.52L293.009 2607.76C292.592 2609.43 292.095 2611.07 291.522 2612.67L290.581 2612.34C290.013 2613.92 289.369 2615.47 288.654 2616.98L289.558 2617.41C288.823 2618.96 288.015 2620.47 287.137 2621.94L286.279 2621.42C285.414 2622.86 284.479 2624.26 283.48 2625.6L284.283 2626.2C283.262 2627.57 282.175 2628.9 281.027 2630.16L280.286 2629.49C279.159 2630.74 277.971 2631.92 276.728 2633.05L277.4 2633.79C276.134 2634.94 274.811 2636.03 273.437 2637.05L272.84 2636.25C271.495 2637.25 270.1 2638.18 268.659 2639.05L269.174 2639.91C267.712 2640.78 266.203 2641.59 264.652 2642.33L264.223 2641.43C262.713 2642.14 261.163 2642.79 259.576 2643.35L259.913 2644.3C258.311 2644.87 256.673 2645.37 255.003 2645.78L254.761 2644.81C253.145 2645.22 251.498 2645.54 249.825 2645.79L249.97 2646.78C248.292 2647.03 246.589 2647.19 244.863 2647.28L244.815 2646.28C243.981 2646.32 243.141 2646.34 242.297 2646.34C241.453 2646.34 240.613 2646.32 239.779 2646.28L239.731 2647.28C238.005 2647.19 236.302 2647.03 234.624 2646.78L234.77 2645.79C233.096 2645.54 231.45 2645.22 229.833 2644.81L229.591 2645.78C227.921 2645.37 226.283 2644.87 224.681 2644.3L225.018 2643.35C223.431 2642.79 221.881 2642.14 220.371 2641.43L219.942 2642.33C218.392 2641.59 216.883 2640.78 215.42 2639.91L215.935 2639.05C214.494 2638.18 213.099 2637.25 211.754 2636.25L211.158 2637.05C209.783 2636.03 208.46 2634.94 207.194 2633.79L207.866 2633.05C206.623 2631.92 205.435 2630.74 204.308 2629.49L203.567 2630.16C202.419 2628.9 201.332 2627.57 200.311 2626.2L201.114 2625.6C200.115 2624.26 199.181 2622.86 198.315 2621.42L197.458 2621.94C196.58 2620.47 195.771 2618.96 195.036 2617.41L195.94 2616.98C195.225 2615.47 194.581 2613.92 194.013 2612.34L193.072 2612.67C192.499 2611.07 192.002 2609.43 191.585 2607.76L192.555 2607.52C192.152 2605.9 191.825 2604.26 191.579 2602.58L190.59 2602.73C190.343 2601.05 190.176 2599.35 190.092 2597.62L191.091 2597.57C191.051 2596.74 191.031 2595.9 191.031 2595.06C191.031 2594.21 191.051 2593.37 191.091 2592.54L190.092 2592.49C190.176 2590.76 190.343 2589.06 190.59 2587.38L191.579 2587.53C191.825 2585.86 192.152 2584.21 192.555 2582.59L191.585 2582.35C192.002 2580.68 192.499 2579.04 193.072 2577.44L194.013 2577.78C194.581 2576.19 195.225 2574.64 195.94 2573.13L195.036 2572.7C195.771 2571.15 196.58 2569.64 197.458 2568.18L198.315 2568.69C199.181 2567.25 200.115 2565.85 201.114 2564.51L200.311 2563.91C201.332 2562.54 202.419 2561.22 203.567 2559.95L204.308 2560.62C205.435 2559.38 206.623 2558.19 207.866 2557.06L207.194 2556.32C208.46 2555.17 209.783 2554.08 211.158 2553.06L211.754 2553.86C213.099 2552.86 214.494 2551.93 215.935 2551.06L215.42 2550.21C216.883 2549.33 218.392 2548.52 219.942 2547.78L220.371 2548.69C221.881 2547.97 223.431 2547.33 225.018 2546.76L224.681 2545.82C226.283 2545.24 227.921 2544.75 229.591 2544.33L229.833 2545.3C231.45 2544.9 233.096 2544.57 234.77 2544.32L234.624 2543.33C236.302 2543.09 238.005 2542.92 239.731 2542.84L239.779 2543.83C240.613 2543.79 241.453 2543.77 242.297 2543.77C243.141 2543.77 243.981 2543.79 244.815 2543.83L244.863 2542.84C246.589 2542.92 248.292 2543.09 249.97 2543.33L249.825 2544.32C251.498 2544.57 253.145 2544.9 254.761 2545.3L255.003 2544.33C256.673 2544.75 258.311 2545.24 259.913 2545.82L259.576 2546.76C261.163 2547.33 262.713 2547.97 264.223 2548.69L264.652 2547.78C266.203 2548.52 267.712 2549.33 269.174 2550.21L268.659 2551.06C270.1 2551.93 271.495 2552.86 272.84 2553.86L273.437 2553.06C274.811 2554.08 276.134 2555.17 277.4 2556.32L276.728 2557.06C277.971 2558.19 279.159 2559.38 280.286 2560.62L281.027 2559.95C282.175 2561.22 283.262 2562.54 284.283 2563.91L283.48 2564.51C284.479 2565.85 285.414 2567.25 286.279 2568.69L287.136 2568.18C288.015 2569.64 288.823 2571.15 289.558 2572.7L288.654 2573.13C289.369 2574.64 290.013 2576.19 290.581 2577.78L291.522 2577.44C292.095 2579.04 292.592 2580.68 293.009 2582.35L292.039 2582.59C292.442 2584.21 292.769 2585.86 293.015 2587.53L294.005 2587.38Z" stroke="#252E39" stroke-opacity="0.12" stroke-width="2" stroke-dasharray="5 5"/>
<path d="M256.792 2595.06C256.792 2603.06 250.302 2609.56 242.297 2609.56C234.292 2609.56 227.802 2603.06 227.802 2595.06C227.802 2587.05 234.292 2580.56 242.297 2580.56C250.302 2580.56 256.792 2587.05 256.792 2595.06Z" stroke="#43505F" stroke-opacity="0.5"/>
<path d="M906.591 2528.66C906.591 2536.66 900.101 2543.16 892.096 2543.16C884.09 2543.16 877.6 2536.66 877.6 2528.66C877.6 2520.65 884.09 2514.16 892.096 2514.16C900.101 2514.16 906.591 2520.65 906.591 2528.66Z" stroke="#43505F" stroke-opacity="0.5"/>
<path d="M1280.58 2709.65C1280.58 2717.66 1274.09 2724.15 1266.08 2724.15C1258.08 2724.15 1251.59 2717.66 1251.59 2709.65C1251.59 2701.65 1258.08 2695.15 1266.08 2695.15C1274.09 2695.15 1280.58 2701.65 1280.58 2709.65Z" stroke="#43505F" stroke-opacity="0.5"/>
<g filter="url(#filter3_d_133_205)">
<path d="M1162.27 1709.38C1164.56 1706.64 1168.13 1705.33 1171.65 1705.94L1319.49 1731.6C1323.01 1732.21 1325.93 1734.65 1327.16 1738.01L1378.86 1878.86C1380.09 1882.22 1379.44 1885.97 1377.15 1888.72L1281.01 2003.91C1278.72 2006.65 1275.14 2007.97 1271.62 2007.36L1123.79 1981.69C1120.27 1981.08 1117.34 1978.64 1116.11 1975.29L1064.42 1834.43C1063.19 1831.08 1063.84 1827.32 1066.13 1824.58L1162.27 1709.38Z" fill="#1D242D" fill-opacity="0.6" shape-rendering="crispEdges"/>
<path d="M1164.33 1707.82C1164.44 1707.74 1164.47 1707.58 1164.39 1707.47C1165.71 1706.59 1167.22 1706.04 1168.8 1705.85C1168.81 1705.99 1168.93 1706.09 1169.07 1706.08C1169.91 1706 1170.76 1706.03 1171.61 1706.18L1175.72 1706.9C1175.85 1706.92 1175.98 1706.83 1176.01 1706.69L1183.73 1708.03C1183.7 1708.17 1183.8 1708.3 1183.93 1708.32L1192.14 1709.75C1192.28 1709.77 1192.41 1709.68 1192.43 1709.54L1200.15 1710.88C1200.13 1711.02 1200.22 1711.15 1200.36 1711.17L1208.57 1712.6C1208.71 1712.62 1208.84 1712.53 1208.86 1712.39L1216.58 1713.73C1216.56 1713.87 1216.65 1714 1216.78 1714.02L1225 1715.45C1225.13 1715.47 1225.26 1715.38 1225.29 1715.25L1233.01 1716.59C1232.98 1716.72 1233.07 1716.85 1233.21 1716.87L1241.42 1718.3C1241.56 1718.32 1241.69 1718.23 1241.71 1718.1L1249.43 1719.44C1249.41 1719.57 1249.5 1719.7 1249.63 1719.73L1257.85 1721.15C1257.98 1721.18 1258.11 1721.08 1258.14 1720.95L1265.86 1722.29C1265.83 1722.42 1265.92 1722.55 1266.06 1722.58L1274.27 1724C1274.41 1724.03 1274.54 1723.94 1274.56 1723.8L1282.28 1725.14C1282.26 1725.28 1282.35 1725.4 1282.49 1725.43L1290.7 1726.85C1290.84 1726.88 1290.96 1726.79 1290.99 1726.65L1298.71 1727.99C1298.69 1728.13 1298.78 1728.26 1298.91 1728.28L1307.13 1729.71C1307.26 1729.73 1307.39 1729.64 1307.41 1729.5L1315.13 1730.84C1315.11 1730.98 1315.2 1731.11 1315.34 1731.13L1319.44 1731.84C1320.3 1731.99 1321.11 1732.25 1321.87 1732.6C1322 1732.66 1322.15 1732.61 1322.2 1732.48C1323.63 1733.19 1324.86 1734.22 1325.81 1735.49C1325.7 1735.57 1325.67 1735.72 1325.75 1735.84C1326.23 1736.52 1326.63 1737.28 1326.93 1738.09L1328.37 1742C1328.41 1742.13 1328.56 1742.2 1328.69 1742.15L1331.39 1749.51C1331.26 1749.56 1331.19 1749.7 1331.24 1749.83L1334.11 1757.65C1334.16 1757.78 1334.3 1757.85 1334.43 1757.8L1337.13 1765.16C1337 1765.21 1336.93 1765.35 1336.98 1765.48L1339.85 1773.31C1339.9 1773.44 1340.04 1773.5 1340.17 1773.45L1342.87 1780.81C1342.74 1780.86 1342.68 1781 1342.73 1781.13L1345.6 1788.96C1345.64 1789.09 1345.79 1789.15 1345.92 1789.1L1348.62 1796.46C1348.49 1796.51 1348.42 1796.65 1348.47 1796.78L1351.34 1804.61C1351.39 1804.74 1351.53 1804.8 1351.66 1804.76L1354.36 1812.11C1354.23 1812.16 1354.16 1812.3 1354.21 1812.43L1357.08 1820.26C1357.13 1820.39 1357.28 1820.45 1357.4 1820.41L1360.1 1827.76C1359.97 1827.81 1359.91 1827.95 1359.96 1828.08L1362.83 1835.91C1362.88 1836.04 1363.02 1836.1 1363.15 1836.06L1365.85 1843.41C1365.72 1843.46 1365.65 1843.6 1365.7 1843.73L1368.57 1851.56C1368.62 1851.69 1368.76 1851.76 1368.89 1851.71L1371.59 1859.06C1371.46 1859.11 1371.4 1859.26 1371.44 1859.39L1374.31 1867.21C1374.36 1867.34 1374.51 1867.41 1374.64 1867.36L1377.34 1874.72C1377.21 1874.76 1377.14 1874.91 1377.19 1875.04L1378.62 1878.95C1378.92 1879.76 1379.1 1880.59 1379.18 1881.43C1379.19 1881.57 1379.31 1881.67 1379.45 1881.66C1379.55 1883.24 1379.28 1884.83 1378.65 1886.28C1378.52 1886.23 1378.37 1886.28 1378.32 1886.4C1377.96 1887.17 1377.51 1887.89 1376.96 1888.55L1374.28 1891.75C1374.2 1891.86 1374.21 1892.02 1374.32 1892.11L1369.3 1898.12C1369.19 1898.03 1369.03 1898.05 1368.94 1898.15L1363.6 1904.55C1363.51 1904.66 1363.53 1904.82 1363.63 1904.91L1358.61 1910.92C1358.51 1910.83 1358.35 1910.85 1358.26 1910.95L1352.92 1917.35C1352.83 1917.46 1352.85 1917.62 1352.95 1917.71L1347.93 1923.72C1347.83 1923.63 1347.67 1923.65 1347.58 1923.75L1342.24 1930.15C1342.15 1930.26 1342.16 1930.42 1342.27 1930.51L1337.25 1936.52C1337.14 1936.43 1336.99 1936.45 1336.9 1936.55L1331.56 1942.95C1331.47 1943.06 1331.48 1943.22 1331.59 1943.31L1326.57 1949.32C1326.46 1949.23 1326.3 1949.25 1326.21 1949.35L1320.87 1955.75C1320.79 1955.86 1320.8 1956.02 1320.91 1956.1L1315.88 1962.12C1315.78 1962.03 1315.62 1962.05 1315.53 1962.15L1310.19 1968.55C1310.1 1968.66 1310.12 1968.82 1310.22 1968.9L1305.2 1974.92C1305.1 1974.83 1304.94 1974.85 1304.85 1974.95L1299.51 1981.35C1299.42 1981.46 1299.44 1981.62 1299.54 1981.7L1294.52 1987.72C1294.41 1987.63 1294.26 1987.65 1294.17 1987.75L1288.83 1994.15C1288.74 1994.26 1288.75 1994.41 1288.86 1994.5L1283.84 2000.52C1283.73 2000.43 1283.57 2000.44 1283.49 2000.55L1280.82 2003.75C1280.26 2004.41 1279.63 2004.99 1278.94 2005.48C1278.83 2005.55 1278.8 2005.71 1278.88 2005.82C1277.56 2006.7 1276.05 2007.26 1274.48 2007.44C1274.46 2007.3 1274.34 2007.2 1274.21 2007.21C1273.37 2007.29 1272.51 2007.26 1271.66 2007.11L1267.56 2006.4C1267.42 2006.37 1267.29 2006.46 1267.27 2006.6L1259.55 2005.26C1259.57 2005.12 1259.48 2004.99 1259.34 2004.97L1251.13 2003.55C1250.99 2003.52 1250.86 2003.61 1250.84 2003.75L1243.12 2002.41C1243.14 2002.27 1243.05 2002.14 1242.92 2002.12L1234.7 2000.69C1234.57 2000.67 1234.44 2000.76 1234.42 2000.9L1226.69 1999.56C1226.72 1999.42 1226.63 1999.29 1226.49 1999.27L1218.28 1997.84C1218.14 1997.82 1218.01 1997.91 1217.99 1998.05L1210.27 1996.71C1210.29 1996.57 1210.2 1996.44 1210.07 1996.42L1201.85 1994.99C1201.72 1994.97 1201.59 1995.06 1201.56 1995.2L1193.84 1993.86C1193.87 1993.72 1193.78 1993.59 1193.64 1993.57L1185.43 1992.14C1185.29 1992.12 1185.16 1992.21 1185.14 1992.34L1177.42 1991C1177.44 1990.87 1177.35 1990.74 1177.21 1990.71L1169 1989.29C1168.86 1989.27 1168.74 1989.36 1168.71 1989.49L1160.99 1988.15C1161.02 1988.02 1160.92 1987.89 1160.79 1987.86L1152.58 1986.44C1152.44 1986.41 1152.31 1986.51 1152.29 1986.64L1144.57 1985.3C1144.59 1985.17 1144.5 1985.04 1144.36 1985.01L1136.15 1983.59C1136.01 1983.56 1135.88 1983.65 1135.86 1983.79L1128.14 1982.45C1128.16 1982.31 1128.07 1982.18 1127.94 1982.16L1123.83 1981.45C1122.98 1981.3 1122.16 1981.04 1121.4 1980.69C1121.28 1980.63 1121.13 1980.69 1121.07 1980.81C1119.65 1980.11 1118.41 1979.08 1117.47 1977.8C1117.58 1977.72 1117.6 1977.57 1117.53 1977.46C1117.04 1976.77 1116.64 1976.01 1116.34 1975.2L1114.91 1971.29C1114.86 1971.16 1114.72 1971.09 1114.59 1971.14L1111.89 1963.78C1112.02 1963.74 1112.08 1963.59 1112.04 1963.46L1109.16 1955.64C1109.12 1955.51 1108.97 1955.44 1108.84 1955.49L1106.14 1948.13C1106.27 1948.09 1106.34 1947.94 1106.29 1947.81L1103.42 1939.99C1103.37 1939.86 1103.23 1939.79 1103.1 1939.84L1100.4 1932.48C1100.53 1932.43 1100.6 1932.29 1100.55 1932.16L1097.68 1924.34C1097.63 1924.21 1097.49 1924.14 1097.36 1924.19L1094.66 1916.83C1094.79 1916.78 1094.85 1916.64 1094.81 1916.51L1091.93 1908.68C1091.89 1908.56 1091.74 1908.49 1091.61 1908.54L1088.91 1901.18C1089.04 1901.13 1089.11 1900.99 1089.06 1900.86L1086.19 1893.03C1086.14 1892.9 1086 1892.84 1085.87 1892.89L1083.17 1885.53C1083.3 1885.48 1083.37 1885.34 1083.32 1885.21L1080.45 1877.38C1080.4 1877.25 1080.26 1877.19 1080.13 1877.23L1077.43 1869.88C1077.56 1869.83 1077.62 1869.69 1077.57 1869.56L1074.7 1861.73C1074.66 1861.6 1074.51 1861.54 1074.38 1861.58L1071.68 1854.23C1071.81 1854.18 1071.88 1854.04 1071.83 1853.91L1068.96 1846.08C1068.91 1845.95 1068.77 1845.89 1068.64 1845.93L1065.94 1838.58C1066.07 1838.53 1066.14 1838.39 1066.09 1838.26L1064.65 1834.34C1064.35 1833.53 1064.17 1832.7 1064.09 1831.86C1064.08 1831.72 1063.96 1831.62 1063.83 1831.63C1063.72 1830.05 1064 1828.47 1064.63 1827.01C1064.75 1827.07 1064.9 1827.01 1064.96 1826.89C1065.31 1826.12 1065.77 1825.4 1066.32 1824.74L1068.99 1821.54C1069.08 1821.43 1069.06 1821.27 1068.96 1821.19L1073.98 1815.17C1074.08 1815.26 1074.24 1815.24 1074.33 1815.14L1079.67 1808.74C1079.76 1808.63 1079.75 1808.47 1079.64 1808.39L1084.66 1802.37C1084.77 1802.46 1084.92 1802.44 1085.01 1802.34L1090.35 1795.94C1090.44 1795.83 1090.43 1795.67 1090.32 1795.59L1095.34 1789.57C1095.45 1789.66 1095.61 1789.64 1095.7 1789.54L1101.04 1783.14C1101.12 1783.03 1101.11 1782.88 1101 1782.79L1106.03 1776.77C1106.13 1776.86 1106.29 1776.84 1106.38 1776.74L1111.72 1770.34C1111.81 1770.23 1111.79 1770.08 1111.69 1769.99L1116.71 1763.97C1116.81 1764.06 1116.97 1764.05 1117.06 1763.94L1122.4 1757.54C1122.49 1757.43 1122.48 1757.28 1122.37 1757.19L1127.39 1751.17C1127.5 1751.26 1127.65 1751.25 1127.74 1751.14L1133.08 1744.74C1133.17 1744.63 1133.16 1744.48 1133.05 1744.39L1138.07 1738.37C1138.18 1738.46 1138.34 1738.45 1138.42 1738.34L1143.77 1731.94C1143.85 1731.83 1143.84 1731.68 1143.73 1731.59L1148.75 1725.57C1148.86 1725.66 1149.02 1725.65 1149.11 1725.54L1154.45 1719.14C1154.54 1719.04 1154.52 1718.88 1154.42 1718.79L1159.44 1712.77C1159.54 1712.86 1159.7 1712.85 1159.79 1712.74L1162.46 1709.54C1163.01 1708.88 1163.64 1708.3 1164.33 1707.82Z" stroke="white" stroke-opacity="0.3" stroke-width="0.5" stroke-linecap="round" stroke-dasharray="8 8" shape-rendering="crispEdges"/>
</g>
<path d="M180.623 424.863C-225.326 893.899 660.216 889.482 380.855 1244.99C183.857 1495.69 550.177 1660.47 814.233 1497.34C1050.32 1351.49 1501.89 1551.85 1236.64 1840.2C719.196 2402.71 1060.12 2307.8 1061.09 2608.21C1062.15 2933.39 884.988 3359.98 884.988 3359.98" stroke="white" stroke-opacity="0.3" stroke-width="0.5" stroke-linejoin="round" stroke-dasharray="8 8"/>
<defs>
<filter id="filter0_d_133_205" x="0.753723" y="2.5791" width="1536" height="813.84" filterUnits="userSpaceOnUse" color-interpolation-filters="sRGB">
<feFlood flood-opacity="0" result="BackgroundImageFix"/>
<feColorMatrix in="SourceAlpha" type="matrix" values="0 0 0 0 0 0 0 0 0 0 0 0 0 0 0 0 0 0 127 0" result="hardAlpha"/>
<feOffset dy="12"/>
<feComposite in2="hardAlpha" operator="out"/>
<feColorMatrix type="matrix" values="0 0 0 0 0 0 0 0 0 0 0 0 0 0 0 0 0 0 0.25 0"/>
<feBlend mode="normal" in2="BackgroundImageFix" result="effect1_dropShadow_133_205"/>
<feBlend mode="normal" in="SourceGraphic" in2="effect1_dropShadow_133_205" result="shape"/>
</filter>
<filter id="filter1_d_133_205" x="0.753723" y="3287.49" width="1535.74" height="809.916" filterUnits="userSpaceOnUse" color-interpolation-filters="sRGB">
<feFlood flood-opacity="0" result="BackgroundImageFix"/>
<feColorMatrix in="SourceAlpha" type="matrix" values="0 0 0 0 0 0 0 0 0 0 0 0 0 0 0 0 0 0 127 0" result="hardAlpha"/>
<feOffset dy="-10"/>
<feComposite in2="hardAlpha" operator="out"/>
<feColorMatrix type="matrix" values="0 0 0 0 0.114069 0 0 0 0 0.134113 0 0 0 0 0.159167 0 0 0 1 0"/>
<feBlend mode="normal" in2="BackgroundImageFix" result="effect1_dropShadow_133_205"/>
<feBlend mode="normal" in="SourceGraphic" in2="effect1_dropShadow_133_205" result="shape"/>
</filter>
<filter id="filter2_d_133_205" x="294.246" y="1158.85" width="167.676" height="174.516" filterUnits="userSpaceOnUse" color-interpolation-filters="sRGB">
<feFlood flood-opacity="0" result="BackgroundImageFix"/>
<feColorMatrix in="SourceAlpha" type="matrix" values="0 0 0 0 0 0 0 0 0 0 0 0 0 0 0 0 0 0 127 0" result="hardAlpha"/>
<feOffset dy="8"/>
<feComposite in2="hardAlpha" operator="out"/>
<feColorMatrix type="matrix" values="0 0 0 0 0.0823529 0 0 0 0 0.101961 0 0 0 0 0.129412 0 0 0 1 0"/>
<feBlend mode="normal" in2="BackgroundImageFix" result="effect1_dropShadow_133_205"/>
<feBlend mode="normal" in="SourceGraphic" in2="effect1_dropShadow_133_205" result="shape"/>
</filter>
<filter id="filter3_d_133_205" x="1063.8" y="1705.79" width="322.665" height="320.715" filterUnits="userSpaceOnUse" color-interpolation-filters="sRGB">
<feFlood flood-opacity="0" result="BackgroundImageFix"/>
<feColorMatrix in="SourceAlpha" type="matrix" values="0 0 0 0 0 0 0 0 0 0 0 0 0 0 0 0 0 0 127 0" result="hardAlpha"/>
<feOffset dx="7" dy="19"/>
<feComposite in2="hardAlpha" operator="out"/>
<feColorMatrix type="matrix" values="0 0 0 0 0.0705882 0 0 0 0 0.0862745 0 0 0 0 0.105882 0 0 0 1 0"/>
<feBlend mode="normal" in2="BackgroundImageFix" result="effect1_dropShadow_133_205"/>
<feBlend mode="normal" in="SourceGraphic" in2="effect1_dropShadow_133_205" result="shape"/>
</filter>
<linearGradient id="paint0_linear_133_205" x1="280.235" y1="972.162" x2="1374.01" y2="-391.262" gradientUnits="userSpaceOnUse">
<stop offset="0.522632" stop-color="#13171C"/>
<stop offset="0.522732" stop-color="#151921"/>
</linearGradient>
<linearGradient id="paint1_linear_133_205" x1="768.623" y1="3401.55" x2="-183.018" y2="4312.01" gradientUnits="userSpaceOnUse">
<stop offset="0.441825" stop-color="#14171C"/>
<stop offset="0.442167" stop-color="#19212B"/>
<stop offset="0.442167" stop-color="#151A21"/>
</linearGradient>
</defs>
</svg>
