<svg width="367" height="2627" viewBox="0 0 367 2627" fill="none" xmlns="http://www.w3.org/2000/svg">
<rect x="3.90793" y="1600.4" width="360" height="1025.68" fill="#161B22"/>
<rect x="3.90793" y="800.398" width="360" height="800" fill="#161B22"/>
<rect x="3.90793" y="0.398315" width="360" height="800" fill="#161B22"/>
<path d="M3.90792 721.88L48.9079 721.88M3.90792 721.88L3.90792 781.886M3.90792 721.88L3.90792 661.874M363.908 721.88L363.908 781.886M363.908 721.88L363.908 661.874M363.908 721.88L318.908 721.88M183.908 961.904L183.908 901.898M183.908 961.904L138.908 961.904M183.908 961.904L228.908 961.904M183.908 481.855L183.908 541.861M183.908 481.855L138.908 481.855M183.908 481.855L228.908 481.855M3.90792 841.892L3.90793 901.898M3.90792 841.892L48.9079 841.892M3.90792 841.892L3.90792 781.886M183.908 841.892L183.908 901.898M183.908 841.892L138.908 841.892M183.908 841.892L183.908 781.886M183.908 841.892L228.908 841.892M363.908 841.892L363.908 901.898M363.908 841.892L363.908 781.886M363.908 841.892L318.908 841.892M3.90791 601.867L48.9079 601.867M3.90791 601.867L3.90792 661.874M3.90791 601.867L3.90791 541.861M183.908 601.867L183.908 661.874M183.908 601.867L183.908 541.861M183.908 601.867L138.908 601.867M183.908 601.867L228.908 601.867M363.908 601.867L363.908 661.874M363.908 601.867L363.908 541.861M363.908 601.867L318.908 601.867M93.9079 961.904L93.9079 901.898M93.9079 961.904L48.9079 961.904M93.9079 961.904L138.908 961.904M93.9079 841.892L93.9079 901.898M93.9079 841.892L48.9079 841.892M93.9079 841.892L138.908 841.892M93.9079 841.892L93.9079 781.886M93.9079 721.88L48.9079 721.88M93.9079 721.88L93.9079 781.886M93.9079 721.88L93.9079 661.874M93.9079 721.88L138.908 721.88M93.9079 601.867L48.9079 601.867M93.9079 601.867L93.9079 661.874M93.9079 601.867L93.9079 541.861M93.9079 601.867L138.908 601.867M93.9079 481.855L48.9079 481.855M93.9079 481.855L93.9079 541.861M93.9079 481.855L138.908 481.855M273.908 481.855L273.908 541.861M273.908 481.855L318.908 481.855M273.908 481.855L228.908 481.855M273.908 601.867L273.908 661.874M273.908 601.867L273.908 541.861M273.908 601.867L318.908 601.867M273.908 601.867L228.908 601.867M273.908 721.88L273.908 781.886M273.908 721.88L273.908 661.874M273.908 721.88L318.908 721.88M273.908 721.88L228.908 721.88M273.908 841.892L273.908 901.898M273.908 841.892L273.908 781.886M273.908 841.892L318.908 841.892M273.908 841.892L228.908 841.892M273.908 961.904L273.908 901.898M273.908 961.904L318.908 961.904M273.908 961.904L228.908 961.904M3.90793 901.898L3.90793 961.904L48.9079 961.904M3.90793 901.898L93.9079 901.898M93.9079 901.898L183.908 901.898M183.908 901.898L273.908 901.898M273.908 901.898L363.908 901.898M363.908 901.898L363.908 961.904L318.908 961.904M48.9079 961.904L48.9079 841.892M48.9079 841.892L48.9079 721.88M48.9079 721.88L48.9079 601.867M48.9079 601.867L48.9079 481.855M48.9079 481.855L3.90791 481.855L3.90791 541.861M138.908 961.904L138.908 841.892M138.908 841.892L138.908 721.88M93.9079 781.886L183.908 781.886M93.9079 781.886L3.90792 781.886M273.908 781.886L228.908 781.886M273.908 781.886L318.908 781.886M363.908 781.886L318.908 781.886M363.908 661.874L318.908 661.874M273.908 661.874L228.908 661.874M273.908 661.874L318.908 661.874M183.908 781.886L183.908 721.88L183.908 661.874M183.908 781.886L228.908 781.886M183.908 661.874L93.9079 661.874M183.908 661.874L228.908 661.874M93.9079 661.874L3.90792 661.874M3.90791 541.861L93.9079 541.861M93.9079 541.861L183.908 541.861M183.908 541.861L228.908 541.861M273.908 541.861L228.908 541.861M273.908 541.861L318.908 541.861M363.908 541.861L363.908 481.855L318.908 481.855M363.908 541.861L318.908 541.861M318.908 481.855L318.908 541.861M318.908 601.867L318.908 661.874M318.908 601.867L318.908 541.861M318.908 721.88L318.908 781.886M318.908 721.88L318.908 661.874M318.908 841.892L318.908 961.904M318.908 841.892L318.908 781.886M138.908 601.867L138.908 721.88M138.908 601.867L138.908 481.855M138.908 721.88L228.908 721.88M228.908 481.855L228.908 541.861M228.908 541.861L228.908 601.867M228.908 601.867L228.908 661.874M228.908 721.88L228.908 781.886M228.908 721.88L228.908 661.874M228.908 841.892L228.908 961.904M228.908 841.892L228.908 781.886" stroke="white" stroke-opacity="0.02" stroke-width="0.5"/>
<path d="M3.9077 1201.93L48.9077 1201.93M3.9077 1201.93L3.90771 1261.94M3.9077 1201.93L3.9077 1141.92M363.908 1201.93L363.908 1261.94M363.908 1201.93L363.908 1141.92M363.908 1201.93L318.908 1201.93M183.908 1441.95L183.908 1381.95M183.908 1441.95L138.908 1441.95M183.908 1441.95L228.908 1441.95M183.908 961.904L183.908 1021.91M183.908 961.904L138.908 961.904M183.908 961.904L228.908 961.904M3.90771 1321.94L3.90771 1381.95M3.90771 1321.94L48.9077 1321.94M3.90771 1321.94L3.90771 1261.94M183.908 1321.94L183.908 1381.95M183.908 1321.94L138.908 1321.94M183.908 1321.94L183.908 1261.94M183.908 1321.94L228.908 1321.94M363.908 1321.94L363.908 1381.95M363.908 1321.94L363.908 1261.94M363.908 1321.94L318.908 1321.94M3.9077 1081.92L48.9077 1081.92M3.9077 1081.92L3.9077 1141.92M3.9077 1081.92L3.9077 1021.91M183.908 1081.92L183.908 1141.92M183.908 1081.92L183.908 1021.91M183.908 1081.92L138.908 1081.92M183.908 1081.92L228.908 1081.92M363.908 1081.92L363.908 1141.92M363.908 1081.92L363.908 1021.91M363.908 1081.92L318.908 1081.92M93.9077 1441.95L93.9077 1381.95M93.9077 1441.95L48.9077 1441.95M93.9077 1441.95L138.908 1441.95M93.9077 1321.94L93.9077 1381.95M93.9077 1321.94L48.9077 1321.94M93.9077 1321.94L138.908 1321.94M93.9077 1321.94L93.9077 1261.94M93.9077 1201.93L48.9077 1201.93M93.9077 1201.93L93.9077 1261.94M93.9077 1201.93L93.9077 1141.92M93.9077 1201.93L138.908 1201.93M93.9077 1081.92L48.9077 1081.92M93.9077 1081.92L93.9077 1141.92M93.9077 1081.92L93.9077 1021.91M93.9077 1081.92L138.908 1081.92M93.9077 961.904L48.9077 961.904M93.9077 961.904L93.9077 1021.91M93.9077 961.904L138.908 961.904M273.908 961.904L273.908 1021.91M273.908 961.904L318.908 961.904M273.908 961.904L228.908 961.904M273.908 1081.92L273.908 1141.92M273.908 1081.92L273.908 1021.91M273.908 1081.92L318.908 1081.92M273.908 1081.92L228.908 1081.92M273.908 1201.93L273.908 1261.94M273.908 1201.93L273.908 1141.92M273.908 1201.93L318.908 1201.93M273.908 1201.93L228.908 1201.93M273.908 1321.94L273.908 1381.95M273.908 1321.94L273.908 1261.94M273.908 1321.94L318.908 1321.94M273.908 1321.94L228.908 1321.94M273.908 1441.95L273.908 1381.95M273.908 1441.95L318.908 1441.95M273.908 1441.95L228.908 1441.95M3.90771 1381.95L3.90771 1441.95L48.9077 1441.95M3.90771 1381.95L93.9077 1381.95M93.9077 1381.95L183.908 1381.95M183.908 1381.95L273.908 1381.95M273.908 1381.95L363.908 1381.95M363.908 1381.95L363.908 1441.95L318.908 1441.95M48.9077 1441.95L48.9077 1321.94M48.9077 1321.94L48.9077 1201.93M48.9077 1201.93L48.9077 1081.92M48.9077 1081.92L48.9077 961.904M48.9077 961.904L3.90769 961.904L3.9077 1021.91M138.908 1441.95L138.908 1321.94M138.908 1321.94L138.908 1201.93M93.9077 1261.94L183.908 1261.94M93.9077 1261.94L3.90771 1261.94M273.908 1261.94L228.908 1261.94M273.908 1261.94L318.908 1261.94M363.908 1261.94L318.908 1261.94M363.908 1141.92L318.908 1141.92M273.908 1141.92L228.908 1141.92M273.908 1141.92L318.908 1141.92M183.908 1261.94L183.908 1201.93L183.908 1141.92M183.908 1261.94L228.908 1261.94M183.908 1141.92L93.9077 1141.92M183.908 1141.92L228.908 1141.92M93.9077 1141.92L3.9077 1141.92M3.9077 1021.91L93.9077 1021.91M93.9077 1021.91L183.908 1021.91M183.908 1021.91L228.908 1021.91M273.908 1021.91L228.908 1021.91M273.908 1021.91L318.908 1021.91M363.908 1021.91L363.908 961.904L318.908 961.904M363.908 1021.91L318.908 1021.91M318.908 961.904L318.908 1021.91M318.908 1081.92L318.908 1141.92M318.908 1081.92L318.908 1021.91M318.908 1201.93L318.908 1261.94M318.908 1201.93L318.908 1141.92M318.908 1321.94L318.908 1441.95M318.908 1321.94L318.908 1261.94M138.908 1081.92L138.908 1201.93M138.908 1081.92L138.908 961.904M138.908 1201.93L228.908 1201.93M228.908 961.904L228.908 1021.91M228.908 1021.91L228.908 1081.92M228.908 1081.92L228.908 1141.92M228.908 1201.93L228.908 1261.94M228.908 1201.93L228.908 1141.92M228.908 1321.94L228.908 1441.95M228.908 1321.94L228.908 1261.94" stroke="white" stroke-opacity="0.02" stroke-width="0.5"/>
<path d="M3.90792 1681.98L48.9079 1681.98M3.90792 1681.98L3.90792 1741.98M3.90792 1681.98L3.90792 1621.97M363.908 1681.98L363.908 1741.98M363.908 1681.98L363.908 1621.97M363.908 1681.98L318.908 1681.98M183.908 1922L183.908 1862M183.908 1922L138.908 1922M183.908 1922L228.908 1922M183.908 1441.95L183.908 1501.96M183.908 1441.95L138.908 1441.95M183.908 1441.95L228.908 1441.95M3.90792 1801.99L3.90793 1862M3.90792 1801.99L48.9079 1801.99M3.90792 1801.99L3.90792 1741.98M183.908 1801.99L183.908 1862M183.908 1801.99L138.908 1801.99M183.908 1801.99L183.908 1741.98M183.908 1801.99L228.908 1801.99M363.908 1801.99L363.908 1862M363.908 1801.99L363.908 1741.98M363.908 1801.99L318.908 1801.99M3.90791 1561.97L48.9079 1561.97M3.90791 1561.97L3.90792 1621.97M3.90791 1561.97L3.90791 1501.96M183.908 1561.97L183.908 1621.97M183.908 1561.97L183.908 1501.96M183.908 1561.97L138.908 1561.97M183.908 1561.97L228.908 1561.97M363.908 1561.97L363.908 1621.97M363.908 1561.97L363.908 1501.96M363.908 1561.97L318.908 1561.97M93.9079 1922L93.9079 1862M93.9079 1922L48.9079 1922M93.9079 1922L138.908 1922M93.9079 1801.99L93.9079 1862M93.9079 1801.99L48.9079 1801.99M93.9079 1801.99L138.908 1801.99M93.9079 1801.99L93.9079 1741.98M93.9079 1681.98L48.9079 1681.98M93.9079 1681.98L93.9079 1741.98M93.9079 1681.98L93.9079 1621.97M93.9079 1681.98L138.908 1681.98M93.9079 1561.97L48.9079 1561.97M93.9079 1561.97L93.9079 1621.97M93.9079 1561.97L93.9079 1501.96M93.9079 1561.97L138.908 1561.97M93.9079 1441.95L48.9079 1441.95M93.9079 1441.95L93.9079 1501.96M93.9079 1441.95L138.908 1441.95M273.908 1441.95L273.908 1501.96M273.908 1441.95L318.908 1441.95M273.908 1441.95L228.908 1441.95M273.908 1561.97L273.908 1621.97M273.908 1561.97L273.908 1501.96M273.908 1561.97L318.908 1561.97M273.908 1561.97L228.908 1561.97M273.908 1681.98L273.908 1741.98M273.908 1681.98L273.908 1621.97M273.908 1681.98L318.908 1681.98M273.908 1681.98L228.908 1681.98M273.908 1801.99L273.908 1862M273.908 1801.99L273.908 1741.98M273.908 1801.99L318.908 1801.99M273.908 1801.99L228.908 1801.99M273.908 1922L273.908 1862M273.908 1922L318.908 1922M273.908 1922L228.908 1922M3.90793 1862L3.90793 1922L48.9079 1922M3.90793 1862L93.9079 1862M93.9079 1862L183.908 1862M183.908 1862L273.908 1862M273.908 1862L363.908 1862M363.908 1862L363.908 1922L318.908 1922M48.9079 1922L48.9079 1801.99M48.9079 1801.99L48.9079 1681.98M48.9079 1681.98L48.9079 1561.97M48.9079 1561.97L48.9079 1441.95M48.9079 1441.95L3.90791 1441.95L3.90791 1501.96M138.908 1922L138.908 1801.99M138.908 1801.99L138.908 1681.98M93.9079 1741.98L183.908 1741.98M93.9079 1741.98L3.90792 1741.98M273.908 1741.98L228.908 1741.98M273.908 1741.98L318.908 1741.98M363.908 1741.98L318.908 1741.98M363.908 1621.97L318.908 1621.97M273.908 1621.97L228.908 1621.97M273.908 1621.97L318.908 1621.97M183.908 1741.98L183.908 1681.98L183.908 1621.97M183.908 1741.98L228.908 1741.98M183.908 1621.97L93.9079 1621.97M183.908 1621.97L228.908 1621.97M93.9079 1621.97L3.90792 1621.97M3.90791 1501.96L93.9079 1501.96M93.9079 1501.96L183.908 1501.96M183.908 1501.96L228.908 1501.96M273.908 1501.96L228.908 1501.96M273.908 1501.96L318.908 1501.96M363.908 1501.96L363.908 1441.95L318.908 1441.95M363.908 1501.96L318.908 1501.96M318.908 1441.95L318.908 1501.96M318.908 1561.97L318.908 1621.97M318.908 1561.97L318.908 1501.96M318.908 1681.98L318.908 1741.98M318.908 1681.98L318.908 1621.97M318.908 1801.99L318.908 1922M318.908 1801.99L318.908 1741.98M138.908 1561.97L138.908 1681.98M138.908 1561.97L138.908 1441.95M138.908 1681.98L228.908 1681.98M228.908 1441.95L228.908 1501.96M228.908 1501.96L228.908 1561.97M228.908 1561.97L228.908 1621.97M228.908 1681.98L228.908 1741.98M228.908 1681.98L228.908 1621.97M228.908 1801.99L228.908 1922M228.908 1801.99L228.908 1741.98" stroke="white" stroke-opacity="0.02" stroke-width="0.5"/>
<path d="M3.90792 2162.03L48.9079 2162.03M3.90792 2162.03L3.90792 2222.03M3.90792 2162.03L3.90792 2102.02M363.908 2162.03L363.908 2222.03M363.908 2162.03L363.908 2102.02M363.908 2162.03L318.908 2162.03M183.908 2402.05L183.908 2342.05M183.908 2402.05L138.908 2402.05M183.908 2402.05L228.908 2402.05M183.908 1922L183.908 1982.01M183.908 1922L138.908 1922M183.908 1922L228.908 1922M3.90792 2282.04L3.90793 2342.05M3.90792 2282.04L48.9079 2282.04M3.90792 2282.04L3.90792 2222.03M183.908 2282.04L183.908 2342.05M183.908 2282.04L138.908 2282.04M183.908 2282.04L183.908 2222.03M183.908 2282.04L228.908 2282.04M363.908 2282.04L363.908 2342.05M363.908 2282.04L363.908 2222.03M363.908 2282.04L318.908 2282.04M3.90791 2042.01L48.9079 2042.01M3.90791 2042.01L3.90792 2102.02M3.90791 2042.01L3.90791 1982.01M183.908 2042.01L183.908 2102.02M183.908 2042.01L183.908 1982.01M183.908 2042.01L138.908 2042.01M183.908 2042.01L228.908 2042.01M363.908 2042.01L363.908 2102.02M363.908 2042.01L363.908 1982.01M363.908 2042.01L318.908 2042.01M93.9079 2402.05L93.9079 2342.05M93.9079 2402.05L48.9079 2402.05M93.9079 2402.05L138.908 2402.05M93.9079 2282.04L93.9079 2342.05M93.9079 2282.04L48.9079 2282.04M93.9079 2282.04L138.908 2282.04M93.9079 2282.04L93.9079 2222.03M93.9079 2162.03L48.9079 2162.03M93.9079 2162.03L93.9079 2222.03M93.9079 2162.03L93.9079 2102.02M93.9079 2162.03L138.908 2162.03M93.9079 2042.01L48.9079 2042.01M93.9079 2042.01L93.9079 2102.02M93.9079 2042.01L93.9079 1982.01M93.9079 2042.01L138.908 2042.01M93.9079 1922L48.9079 1922M93.9079 1922L93.9079 1982.01M93.9079 1922L138.908 1922M273.908 1922L273.908 1982.01M273.908 1922L318.908 1922M273.908 1922L228.908 1922M273.908 2042.01L273.908 2102.02M273.908 2042.01L273.908 1982.01M273.908 2042.01L318.908 2042.01M273.908 2042.01L228.908 2042.01M273.908 2162.03L273.908 2222.03M273.908 2162.03L273.908 2102.02M273.908 2162.03L318.908 2162.03M273.908 2162.03L228.908 2162.03M273.908 2282.04L273.908 2342.05M273.908 2282.04L273.908 2222.03M273.908 2282.04L318.908 2282.04M273.908 2282.04L228.908 2282.04M273.908 2402.05L273.908 2342.05M273.908 2402.05L318.908 2402.05M273.908 2402.05L228.908 2402.05M3.90793 2342.05L3.90793 2402.05L48.9079 2402.05M3.90793 2342.05L93.9079 2342.05M93.9079 2342.05L183.908 2342.05M183.908 2342.05L273.908 2342.05M273.908 2342.05L363.908 2342.05M363.908 2342.05L363.908 2402.05L318.908 2402.05M48.9079 2402.05L48.9079 2282.04M48.9079 2282.04L48.9079 2162.03M48.9079 2162.03L48.9079 2042.01M48.9079 2042.01L48.9079 1922M48.9079 1922L3.90791 1922L3.90791 1982.01M138.908 2402.05L138.908 2282.04M138.908 2282.04L138.908 2162.03M93.9079 2222.03L183.908 2222.03M93.9079 2222.03L3.90792 2222.03M273.908 2222.03L228.908 2222.03M273.908 2222.03L318.908 2222.03M363.908 2222.03L318.908 2222.03M363.908 2102.02L318.908 2102.02M273.908 2102.02L228.908 2102.02M273.908 2102.02L318.908 2102.02M183.908 2222.03L183.908 2162.03L183.908 2102.02M183.908 2222.03L228.908 2222.03M183.908 2102.02L93.9079 2102.02M183.908 2102.02L228.908 2102.02M93.9079 2102.02L3.90792 2102.02M3.90791 1982.01L93.9079 1982.01M93.9079 1982.01L183.908 1982.01M183.908 1982.01L228.908 1982.01M273.908 1982.01L228.908 1982.01M273.908 1982.01L318.908 1982.01M363.908 1982.01L363.908 1922L318.908 1922M363.908 1982.01L318.908 1982.01M318.908 1922L318.908 1982.01M318.908 2042.01L318.908 2102.02M318.908 2042.01L318.908 1982.01M318.908 2162.03L318.908 2222.03M318.908 2162.03L318.908 2102.02M318.908 2282.04L318.908 2402.05M318.908 2282.04L318.908 2222.03M138.908 2042.01L138.908 2162.03M138.908 2042.01L138.908 1922M138.908 2162.03L228.908 2162.03M228.908 1922L228.908 1982.01M228.908 1982.01L228.908 2042.01M228.908 2042.01L228.908 2102.02M228.908 2162.03L228.908 2222.03M228.908 2162.03L228.908 2102.02M228.908 2282.04L228.908 2402.05M228.908 2282.04L228.908 2222.03" stroke="white" stroke-opacity="0.02" stroke-width="0.5"/>
<path d="M183.908 2402.05L183.908 2462.06M183.908 2402.05L138.908 2402.05M183.908 2402.05L228.908 2402.05M3.90799 2522.06L48.908 2522.06M3.90799 2522.06L3.90799 2582.07L93.908 2582.07M3.90799 2522.06L3.90798 2462.06M183.908 2522.06L183.908 2582.07M183.908 2522.06L183.908 2462.06M183.908 2522.06L138.908 2522.06M183.908 2522.06L228.908 2522.06M363.908 2522.06L363.908 2582.07L318.908 2582.07M363.908 2522.06L363.908 2462.06M363.908 2522.06L318.908 2522.06M93.908 2522.06L48.908 2522.06M93.908 2522.06L93.908 2582.07M93.908 2522.06L93.908 2462.06M93.908 2522.06L138.908 2522.06M93.908 2402.05L48.908 2402.05M93.908 2402.05L93.908 2462.06M93.908 2402.05L138.908 2402.05M273.908 2402.05L273.908 2462.06M273.908 2402.05L318.908 2402.05M273.908 2402.05L228.908 2402.05M273.908 2522.06L273.908 2582.07M273.908 2522.06L273.908 2462.06M273.908 2522.06L318.908 2522.06M273.908 2522.06L228.908 2522.06M48.908 2522.06L48.908 2402.05M48.908 2402.05L3.90798 2402.05L3.90798 2462.06M273.908 2582.07L228.908 2582.07M273.908 2582.07L318.908 2582.07M183.908 2582.07L93.908 2582.07M183.908 2582.07L228.908 2582.07M3.90798 2462.06L93.908 2462.06M93.908 2462.06L183.908 2462.06M183.908 2462.06L228.908 2462.06M273.908 2462.06L228.908 2462.06M273.908 2462.06L318.908 2462.06M363.908 2462.06L363.908 2402.05L318.908 2402.05M363.908 2462.06L318.908 2462.06M318.908 2402.05L318.908 2462.06M318.908 2522.06L318.908 2582.07M318.908 2522.06L318.908 2462.06M138.908 2522.06L138.908 2402.05M228.908 2402.05L228.908 2462.06M228.908 2462.06L228.908 2522.06M228.908 2522.06L228.908 2582.07" stroke="white" stroke-opacity="0.02" stroke-width="0.5"/>
<mask id="path-9-inside-1_98_217" fill="white">
<path d="M25.576 1494.78C26.4139 1494.78 27.1878 1495.23 27.6063 1495.96L32.4426 1504.35C32.8609 1505.08 32.8603 1505.97 32.4409 1506.7L27.5918 1515.08C27.1724 1515.81 26.3981 1516.26 25.5603 1516.26L15.8752 1516.25C15.0373 1516.25 14.2633 1515.8 13.8449 1515.07L9.00858 1506.68C8.59025 1505.95 8.59089 1505.06 9.01025 1504.33L13.8594 1495.95C14.2787 1495.22 15.0531 1494.78 15.8908 1494.78L25.576 1494.78Z"/>
<path d="M135.169 1483.72C135.602 1483 136.386 1482.57 137.223 1482.59L160.707 1483.06C161.544 1483.08 162.309 1483.54 162.713 1484.28L174.044 1504.86C174.448 1505.59 174.43 1506.49 173.997 1507.2L161.844 1527.31C161.411 1528.03 160.627 1528.46 159.79 1528.44L136.306 1527.97C135.469 1527.95 134.704 1527.49 134.3 1526.75L122.969 1506.17C122.565 1505.44 122.583 1504.54 123.016 1503.83L135.169 1483.72Z"/>
<path d="M142.753 1511.3C141.866 1511.3 141.078 1511.15 140.389 1510.84C139.704 1510.53 139.165 1510.11 138.773 1509.57C138.381 1509.03 138.183 1508.41 138.179 1507.71H141.258C141.261 1507.93 141.327 1508.13 141.456 1508.3C141.587 1508.47 141.767 1508.6 141.994 1508.69C142.221 1508.79 142.482 1508.84 142.775 1508.84C143.057 1508.84 143.306 1508.79 143.522 1508.69C143.739 1508.59 143.907 1508.44 144.028 1508.26C144.149 1508.09 144.208 1507.88 144.204 1507.65C144.208 1507.42 144.138 1507.22 143.995 1507.04C143.856 1506.87 143.66 1506.73 143.407 1506.63C143.154 1506.53 142.863 1506.48 142.533 1506.48H141.39V1504.37H142.533C142.837 1504.37 143.105 1504.32 143.335 1504.22C143.57 1504.13 143.751 1503.99 143.88 1503.81C144.012 1503.64 144.076 1503.43 144.072 1503.21C144.076 1502.99 144.023 1502.79 143.913 1502.62C143.803 1502.46 143.649 1502.32 143.451 1502.23C143.257 1502.13 143.031 1502.09 142.775 1502.09C142.496 1502.09 142.247 1502.14 142.027 1502.23C141.811 1502.33 141.641 1502.47 141.516 1502.65C141.391 1502.82 141.327 1503.02 141.324 1503.25H138.399C138.403 1502.56 138.592 1501.95 138.965 1501.43C139.343 1500.9 139.86 1500.48 140.516 1500.18C141.171 1499.88 141.925 1499.73 142.775 1499.73C143.607 1499.73 144.341 1499.87 144.979 1500.16C145.62 1500.44 146.12 1500.83 146.48 1501.32C146.842 1501.81 147.022 1502.38 147.018 1503.01C147.026 1503.64 146.809 1504.16 146.37 1504.56C145.934 1504.96 145.38 1505.2 144.71 1505.27V1505.36C145.618 1505.46 146.302 1505.74 146.76 1506.2C147.218 1506.65 147.443 1507.22 147.436 1507.91C147.44 1508.57 147.242 1509.16 146.842 1509.67C146.447 1510.18 145.895 1510.58 145.188 1510.86C144.484 1511.15 143.673 1511.3 142.753 1511.3Z"/>
<path d="M153.11 1511.14H148.779V1499.89H153.066C154.224 1499.89 155.224 1500.11 156.067 1500.56C156.914 1501.01 157.566 1501.66 158.024 1502.5C158.486 1503.34 158.717 1504.34 158.717 1505.52C158.717 1506.69 158.488 1507.7 158.03 1508.54C157.572 1509.38 156.923 1510.02 156.084 1510.47C155.245 1510.92 154.253 1511.14 153.11 1511.14ZM151.835 1508.55H153C153.557 1508.55 154.032 1508.46 154.424 1508.28C154.82 1508.1 155.12 1507.79 155.325 1507.35C155.534 1506.91 155.639 1506.3 155.639 1505.52C155.639 1504.73 155.532 1504.12 155.32 1503.68C155.111 1503.24 154.803 1502.93 154.396 1502.75C153.993 1502.57 153.498 1502.48 152.912 1502.48H151.835V1508.55Z"/>
<path d="M253.056 1458.66C253.841 1458.36 254.723 1458.51 255.371 1459.04L266.452 1468.13C267.1 1468.67 267.415 1469.5 267.279 1470.33L264.944 1484.48C264.807 1485.31 264.24 1486 263.456 1486.29L250.04 1491.34C249.255 1491.64 248.373 1491.49 247.725 1490.96L236.644 1481.86C235.996 1481.33 235.681 1480.5 235.818 1479.67L238.152 1465.52C238.289 1464.69 238.856 1464 239.64 1463.71L253.056 1458.66Z"/>
<path d="M352.267 1439.31C353.051 1439.01 353.933 1439.16 354.581 1439.69L360.624 1444.65C361.271 1445.18 361.586 1446.02 361.45 1446.85L360.176 1454.56C360.04 1455.39 359.473 1456.08 358.689 1456.38L351.373 1459.13C350.589 1459.43 349.707 1459.28 349.059 1458.75L343.016 1453.79C342.369 1453.26 342.054 1452.42 342.19 1451.59L343.464 1443.88C343.6 1443.05 344.167 1442.36 344.951 1442.06L352.267 1439.31Z"/>
<path d="M72.7612 1472.68C72.7612 1479.45 67.2731 1484.94 60.5031 1484.94C53.7332 1484.94 48.2451 1479.45 48.2451 1472.68C48.2451 1465.9 53.7332 1460.41 60.5031 1460.41C67.2731 1460.41 72.7612 1465.9 72.7612 1472.68Z"/>
<path d="M64.02 1472.68C64.02 1474.62 62.4454 1476.19 60.5031 1476.19C58.5608 1476.19 56.9863 1474.62 56.9863 1472.68C56.9863 1470.73 58.5608 1469.16 60.5031 1469.16C62.4454 1469.16 64.02 1470.73 64.02 1472.68Z"/>
<path d="M216.417 1457.1C216.417 1459.05 214.842 1460.62 212.9 1460.62C210.958 1460.62 209.383 1459.05 209.383 1457.1C209.383 1455.16 210.958 1453.58 212.9 1453.58C214.842 1453.58 216.417 1455.16 216.417 1457.1Z"/>
<path d="M304.128 1499.55C304.128 1501.49 302.553 1503.07 300.611 1503.07C298.669 1503.07 297.094 1501.49 297.094 1499.55C297.094 1497.61 298.669 1496.03 300.611 1496.03C302.553 1496.03 304.128 1497.61 304.128 1499.55Z"/>
</mask>
<path d="M25.576 1494.78C26.4139 1494.78 27.1878 1495.23 27.6063 1495.96L32.4426 1504.35C32.8609 1505.08 32.8603 1505.97 32.4409 1506.7L27.5918 1515.08C27.1724 1515.81 26.3981 1516.26 25.5603 1516.26L15.8752 1516.25C15.0373 1516.25 14.2633 1515.8 13.8449 1515.07L9.00858 1506.68C8.59025 1505.95 8.59089 1505.06 9.01025 1504.33L13.8594 1495.95C14.2787 1495.22 15.0531 1494.78 15.8908 1494.78L25.576 1494.78Z" fill="#3E4957"/>
<path d="M135.169 1483.72C135.602 1483 136.386 1482.57 137.223 1482.59L160.707 1483.06C161.544 1483.08 162.309 1483.54 162.713 1484.28L174.044 1504.86C174.448 1505.59 174.43 1506.49 173.997 1507.2L161.844 1527.31C161.411 1528.03 160.627 1528.46 159.79 1528.44L136.306 1527.97C135.469 1527.95 134.704 1527.49 134.3 1526.75L122.969 1506.17C122.565 1505.44 122.583 1504.54 123.016 1503.83L135.169 1483.72Z" fill="#3E4957"/>
<path d="M142.753 1511.3C141.866 1511.3 141.078 1511.15 140.389 1510.84C139.704 1510.53 139.165 1510.11 138.773 1509.57C138.381 1509.03 138.183 1508.41 138.179 1507.71H141.258C141.261 1507.93 141.327 1508.13 141.456 1508.3C141.587 1508.47 141.767 1508.6 141.994 1508.69C142.221 1508.79 142.482 1508.84 142.775 1508.84C143.057 1508.84 143.306 1508.79 143.522 1508.69C143.739 1508.59 143.907 1508.44 144.028 1508.26C144.149 1508.09 144.208 1507.88 144.204 1507.65C144.208 1507.42 144.138 1507.22 143.995 1507.04C143.856 1506.87 143.66 1506.73 143.407 1506.63C143.154 1506.53 142.863 1506.48 142.533 1506.48H141.39V1504.37H142.533C142.837 1504.37 143.105 1504.32 143.335 1504.22C143.57 1504.13 143.751 1503.99 143.88 1503.81C144.012 1503.64 144.076 1503.43 144.072 1503.21C144.076 1502.99 144.023 1502.79 143.913 1502.62C143.803 1502.46 143.649 1502.32 143.451 1502.23C143.257 1502.13 143.031 1502.09 142.775 1502.09C142.496 1502.09 142.247 1502.14 142.027 1502.23C141.811 1502.33 141.641 1502.47 141.516 1502.65C141.391 1502.82 141.327 1503.02 141.324 1503.25H138.399C138.403 1502.56 138.592 1501.95 138.965 1501.43C139.343 1500.9 139.86 1500.48 140.516 1500.18C141.171 1499.88 141.925 1499.73 142.775 1499.73C143.607 1499.73 144.341 1499.87 144.979 1500.16C145.62 1500.44 146.12 1500.83 146.48 1501.32C146.842 1501.81 147.022 1502.38 147.018 1503.01C147.026 1503.64 146.809 1504.16 146.37 1504.56C145.934 1504.96 145.38 1505.2 144.71 1505.27V1505.36C145.618 1505.46 146.302 1505.74 146.76 1506.2C147.218 1506.65 147.443 1507.22 147.436 1507.91C147.44 1508.57 147.242 1509.16 146.842 1509.67C146.447 1510.18 145.895 1510.58 145.188 1510.86C144.484 1511.15 143.673 1511.3 142.753 1511.3Z" fill="#719AA6"/>
<path d="M153.11 1511.14H148.779V1499.89H153.066C154.224 1499.89 155.224 1500.11 156.067 1500.56C156.914 1501.01 157.566 1501.66 158.024 1502.5C158.486 1503.34 158.717 1504.34 158.717 1505.52C158.717 1506.69 158.488 1507.7 158.03 1508.54C157.572 1509.38 156.923 1510.02 156.084 1510.47C155.245 1510.92 154.253 1511.14 153.11 1511.14ZM151.835 1508.55H153C153.557 1508.55 154.032 1508.46 154.424 1508.28C154.82 1508.1 155.12 1507.79 155.325 1507.35C155.534 1506.91 155.639 1506.3 155.639 1505.52C155.639 1504.73 155.532 1504.12 155.32 1503.68C155.111 1503.24 154.803 1502.93 154.396 1502.75C153.993 1502.57 153.498 1502.48 152.912 1502.48H151.835V1508.55Z" fill="#719AA6"/>
<path d="M253.056 1458.66C253.841 1458.36 254.723 1458.51 255.371 1459.04L266.452 1468.13C267.1 1468.67 267.415 1469.5 267.279 1470.33L264.944 1484.48C264.807 1485.31 264.24 1486 263.456 1486.29L250.04 1491.34C249.255 1491.64 248.373 1491.49 247.725 1490.96L236.644 1481.86C235.996 1481.33 235.681 1480.5 235.818 1479.67L238.152 1465.52C238.289 1464.69 238.856 1464 239.64 1463.71L253.056 1458.66Z" fill="#3E4957"/>
<path d="M352.267 1439.31C353.051 1439.01 353.933 1439.16 354.581 1439.69L360.624 1444.65C361.271 1445.18 361.586 1446.02 361.45 1446.85L360.176 1454.56C360.04 1455.39 359.473 1456.08 358.689 1456.38L351.373 1459.13C350.589 1459.43 349.707 1459.28 349.059 1458.75L343.016 1453.79C342.369 1453.26 342.054 1452.42 342.19 1451.59L343.464 1443.88C343.6 1443.05 344.167 1442.36 344.951 1442.06L352.267 1439.31Z" fill="#3E4957"/>
<path d="M25.576 1494.78C26.4139 1494.78 27.1878 1495.23 27.6063 1495.96L32.4426 1504.35C32.8609 1505.08 32.8603 1505.97 32.4409 1506.7L27.5918 1515.08C27.1724 1515.81 26.3981 1516.26 25.5603 1516.26L15.8752 1516.25C15.0373 1516.25 14.2633 1515.8 13.8449 1515.07L9.00858 1506.68C8.59025 1505.95 8.59089 1505.06 9.01025 1504.33L13.8594 1495.95C14.2787 1495.22 15.0531 1494.78 15.8908 1494.78L25.576 1494.78Z" stroke="#43505F" stroke-width="0.4" mask="url(#path-9-inside-1_98_217)"/>
<path d="M135.169 1483.72C135.602 1483 136.386 1482.57 137.223 1482.59L160.707 1483.06C161.544 1483.08 162.309 1483.54 162.713 1484.28L174.044 1504.86C174.448 1505.59 174.43 1506.49 173.997 1507.2L161.844 1527.31C161.411 1528.03 160.627 1528.46 159.79 1528.44L136.306 1527.97C135.469 1527.95 134.704 1527.49 134.3 1526.75L122.969 1506.17C122.565 1505.44 122.583 1504.54 123.016 1503.83L135.169 1483.72Z" stroke="#43505F" stroke-width="0.4" mask="url(#path-9-inside-1_98_217)"/>
<path d="M142.753 1511.3C141.866 1511.3 141.078 1511.15 140.389 1510.84C139.704 1510.53 139.165 1510.11 138.773 1509.57C138.381 1509.03 138.183 1508.41 138.179 1507.71H141.258C141.261 1507.93 141.327 1508.13 141.456 1508.3C141.587 1508.47 141.767 1508.6 141.994 1508.69C142.221 1508.79 142.482 1508.84 142.775 1508.84C143.057 1508.84 143.306 1508.79 143.522 1508.69C143.739 1508.59 143.907 1508.44 144.028 1508.26C144.149 1508.09 144.208 1507.88 144.204 1507.65C144.208 1507.42 144.138 1507.22 143.995 1507.04C143.856 1506.87 143.66 1506.73 143.407 1506.63C143.154 1506.53 142.863 1506.48 142.533 1506.48H141.39V1504.37H142.533C142.837 1504.37 143.105 1504.32 143.335 1504.22C143.57 1504.13 143.751 1503.99 143.88 1503.81C144.012 1503.64 144.076 1503.43 144.072 1503.21C144.076 1502.99 144.023 1502.79 143.913 1502.62C143.803 1502.46 143.649 1502.32 143.451 1502.23C143.257 1502.13 143.031 1502.09 142.775 1502.09C142.496 1502.09 142.247 1502.14 142.027 1502.23C141.811 1502.33 141.641 1502.47 141.516 1502.65C141.391 1502.82 141.327 1503.02 141.324 1503.25H138.399C138.403 1502.56 138.592 1501.95 138.965 1501.43C139.343 1500.9 139.86 1500.48 140.516 1500.18C141.171 1499.88 141.925 1499.73 142.775 1499.73C143.607 1499.73 144.341 1499.87 144.979 1500.16C145.62 1500.44 146.12 1500.83 146.48 1501.32C146.842 1501.81 147.022 1502.38 147.018 1503.01C147.026 1503.64 146.809 1504.16 146.37 1504.56C145.934 1504.96 145.38 1505.2 144.71 1505.27V1505.36C145.618 1505.46 146.302 1505.74 146.76 1506.2C147.218 1506.65 147.443 1507.22 147.436 1507.91C147.44 1508.57 147.242 1509.16 146.842 1509.67C146.447 1510.18 145.895 1510.58 145.188 1510.86C144.484 1511.15 143.673 1511.3 142.753 1511.3Z" stroke="#43505F" stroke-width="0.4" mask="url(#path-9-inside-1_98_217)"/>
<path d="M153.11 1511.14H148.779V1499.89H153.066C154.224 1499.89 155.224 1500.11 156.067 1500.56C156.914 1501.01 157.566 1501.66 158.024 1502.5C158.486 1503.34 158.717 1504.34 158.717 1505.52C158.717 1506.69 158.488 1507.7 158.03 1508.54C157.572 1509.38 156.923 1510.02 156.084 1510.47C155.245 1510.92 154.253 1511.14 153.11 1511.14ZM151.835 1508.55H153C153.557 1508.55 154.032 1508.46 154.424 1508.28C154.82 1508.1 155.12 1507.79 155.325 1507.35C155.534 1506.91 155.639 1506.3 155.639 1505.52C155.639 1504.73 155.532 1504.12 155.32 1503.68C155.111 1503.24 154.803 1502.93 154.396 1502.75C153.993 1502.57 153.498 1502.48 152.912 1502.48H151.835V1508.55Z" stroke="#43505F" stroke-width="0.4" mask="url(#path-9-inside-1_98_217)"/>
<path d="M253.056 1458.66C253.841 1458.36 254.723 1458.51 255.371 1459.04L266.452 1468.13C267.1 1468.67 267.415 1469.5 267.279 1470.33L264.944 1484.48C264.807 1485.31 264.24 1486 263.456 1486.29L250.04 1491.34C249.255 1491.64 248.373 1491.49 247.725 1490.96L236.644 1481.86C235.996 1481.33 235.681 1480.5 235.818 1479.67L238.152 1465.52C238.289 1464.69 238.856 1464 239.64 1463.71L253.056 1458.66Z" stroke="#43505F" stroke-width="0.4" mask="url(#path-9-inside-1_98_217)"/>
<path d="M352.267 1439.31C353.051 1439.01 353.933 1439.16 354.581 1439.69L360.624 1444.65C361.271 1445.18 361.586 1446.02 361.45 1446.85L360.176 1454.56C360.04 1455.39 359.473 1456.08 358.689 1456.38L351.373 1459.13C350.589 1459.43 349.707 1459.28 349.059 1458.75L343.016 1453.79C342.369 1453.26 342.054 1452.42 342.19 1451.59L343.464 1443.88C343.6 1443.05 344.167 1442.36 344.951 1442.06L352.267 1439.31Z" stroke="#43505F" stroke-width="0.4" mask="url(#path-9-inside-1_98_217)"/>
<path d="M72.7612 1472.68C72.7612 1479.45 67.2731 1484.94 60.5031 1484.94C53.7332 1484.94 48.2451 1479.45 48.2451 1472.68C48.2451 1465.9 53.7332 1460.41 60.5031 1460.41C67.2731 1460.41 72.7612 1465.9 72.7612 1472.68Z" stroke="#43505F" stroke-width="0.4" mask="url(#path-9-inside-1_98_217)"/>
<path d="M64.02 1472.68C64.02 1474.62 62.4454 1476.19 60.5031 1476.19C58.5608 1476.19 56.9863 1474.62 56.9863 1472.68C56.9863 1470.73 58.5608 1469.16 60.5031 1469.16C62.4454 1469.16 64.02 1470.73 64.02 1472.68Z" stroke="#43505F" stroke-width="0.4" mask="url(#path-9-inside-1_98_217)"/>
<path d="M216.417 1457.1C216.417 1459.05 214.842 1460.62 212.9 1460.62C210.958 1460.62 209.383 1459.05 209.383 1457.1C209.383 1455.16 210.958 1453.58 212.9 1453.58C214.842 1453.58 216.417 1455.16 216.417 1457.1Z" stroke="#43505F" stroke-width="0.4" mask="url(#path-9-inside-1_98_217)"/>
<path d="M304.128 1499.55C304.128 1501.49 302.553 1503.07 300.611 1503.07C298.669 1503.07 297.094 1501.49 297.094 1499.55C297.094 1497.61 298.669 1496.03 300.611 1496.03C302.553 1496.03 304.128 1497.61 304.128 1499.55Z" stroke="#43505F" stroke-width="0.4" mask="url(#path-9-inside-1_98_217)"/>
<path d="M3.90793 1526.68L50.9443 1476.55C55.1417 1472.07 64.2587 1471.15 70.2284 1474.59L137.125 1513.17C143.095 1516.61 152.212 1515.68 156.409 1511.21L203.445 1461.08C207.643 1456.6 216.76 1455.68 222.73 1459.12L289.626 1497.69C295.596 1501.14 304.713 1500.21 308.91 1495.74L363.908 1437.12" stroke="#384559" stroke-width="0.5" stroke-linecap="round"/>
<g filter="url(#filter0_d_98_217)">
<path d="M307.325 2287.61L121.426 2213.33C116.976 2211.56 112.432 2215.15 109.507 2222.75L5.90932 2492.15C3.97116 2497.19 2.90765 2503.59 2.90817 2510.19L2.9174 2626.08H362.908L362.908 2592.88C362.908 2589.67 362.657 2586.48 362.166 2583.47L316.982 2305.65C315.456 2296.27 311.775 2289.39 307.325 2287.61Z" fill="url(#paint0_linear_98_217)"/>
</g>
<path d="M306.843 1072.53C308.588 1072.06 310.449 1072.56 311.726 1073.84L325.921 1088.03C327.198 1089.31 327.697 1091.17 327.229 1092.91L322.034 1112.3C321.566 1114.05 320.204 1115.41 318.459 1115.88L299.069 1121.07C297.324 1121.54 295.463 1121.04 294.186 1119.76L279.991 1105.57C278.714 1104.29 278.215 1102.43 278.683 1100.69L283.878 1081.3C284.346 1079.55 285.709 1078.19 287.453 1077.72L306.843 1072.53Z" fill="#252E39"/>
<path d="M299.075 1066.55C299.075 1068.33 297.626 1069.78 295.838 1069.78C294.051 1069.78 292.602 1068.33 292.602 1066.55C292.602 1064.76 294.051 1063.31 295.838 1063.31C297.626 1063.31 299.075 1064.76 299.075 1066.55Z" fill="#252E39"/>
<path d="M340.244 1101.25C340.244 1102.14 339.52 1102.87 338.626 1102.87C337.733 1102.87 337.008 1102.14 337.008 1101.25C337.008 1100.35 337.733 1099.63 338.626 1099.63C339.52 1099.63 340.244 1100.35 340.244 1101.25Z" fill="#252E39" fill-opacity="0.3"/>
<path d="M311.479 1074.08L325.673 1088.28C326.862 1089.47 327.326 1091.2 326.891 1092.82L321.696 1112.21C321.261 1113.84 319.992 1115.1 318.369 1115.54L298.978 1120.74C297.355 1121.17 295.622 1120.71 294.433 1119.52L280.239 1105.32C279.05 1104.13 278.586 1102.4 279.021 1100.78L284.217 1081.39C284.652 1079.76 285.92 1078.5 287.544 1078.06L306.934 1072.86C308.558 1072.43 310.29 1072.89 311.479 1074.08ZM326.168 1087.78L311.974 1073.59C310.608 1072.22 308.618 1071.69 306.753 1072.19L287.363 1077.38C285.497 1077.88 284.04 1079.34 283.54 1081.21L278.345 1100.6C277.845 1102.46 278.378 1104.45 279.744 1105.82L293.938 1120.01C295.304 1121.38 297.294 1121.91 299.16 1121.41L318.55 1116.22C320.415 1115.72 321.872 1114.26 322.372 1112.39L327.567 1093C328.067 1091.14 327.534 1089.15 326.168 1087.78ZM334.157 1096.8C334.157 1113.95 320.251 1127.86 303.098 1127.86C285.944 1127.86 272.039 1113.95 272.039 1096.8C272.039 1083.4 280.526 1071.98 292.418 1067.63C292.876 1069.08 294.234 1070.13 295.838 1070.13C297.819 1070.13 299.425 1068.53 299.425 1066.55C299.425 1066.35 299.408 1066.15 299.377 1065.96C300.597 1065.82 301.839 1065.74 303.098 1065.74C320.251 1065.74 334.157 1079.65 334.157 1096.8ZM292.273 1066.93C280.063 1071.36 271.339 1083.06 271.339 1096.8C271.339 1114.34 285.558 1128.56 303.098 1128.56C320.638 1128.56 334.857 1114.34 334.857 1096.8C334.857 1079.26 320.638 1065.04 303.098 1065.04C301.776 1065.04 300.473 1065.12 299.194 1065.28C298.682 1063.92 297.373 1062.96 295.838 1062.96C293.858 1062.96 292.252 1064.57 292.252 1066.55C292.252 1066.68 292.259 1066.81 292.273 1066.93ZM295.838 1069.43C294.539 1069.43 293.44 1068.57 293.079 1067.39C294.878 1066.78 296.752 1066.33 298.683 1066.05C298.71 1066.21 298.725 1066.38 298.725 1066.55C298.725 1068.14 297.432 1069.43 295.838 1069.43ZM298.477 1065.37C296.577 1065.65 294.731 1066.1 292.956 1066.69C292.954 1066.65 292.952 1066.6 292.952 1066.55C292.952 1064.95 294.245 1063.66 295.838 1063.66C297.015 1063.66 298.028 1064.36 298.477 1065.37ZM338.702 1096.8C338.702 1097.63 338.674 1098.46 338.617 1099.28C337.534 1099.29 336.658 1100.16 336.658 1101.25C336.658 1102.17 337.287 1102.94 338.137 1103.16C335.14 1119.79 320.592 1132.4 303.098 1132.4C283.434 1132.4 267.493 1116.46 267.493 1096.8C267.493 1077.14 283.434 1061.2 303.098 1061.2C322.762 1061.2 338.702 1077.14 338.702 1096.8ZM339.894 1101.25C339.894 1101.83 339.499 1102.32 338.962 1102.47C339.082 1101.7 339.179 1100.93 339.25 1100.14C339.635 1100.36 339.894 1100.77 339.894 1101.25ZM337.358 1101.25C337.358 1100.57 337.892 1100.02 338.562 1099.98C338.488 1100.82 338.385 1101.64 338.255 1102.46C337.736 1102.3 337.358 1101.82 337.358 1101.25Z" stroke="#252E39" stroke-opacity="0.5" stroke-width="0.7"/>
<path d="M3.90792 241.831L48.9079 241.831M3.90792 241.831L3.90792 301.837M3.90792 241.831L3.90792 181.824M363.908 241.83L363.908 301.837M363.908 241.83L363.908 181.824M363.908 241.83L318.908 241.83M183.908 481.855L183.908 421.849M183.908 481.855L138.908 481.855M183.908 481.855L228.908 481.855M183.908 1.80591L183.908 61.8121M183.908 1.80591L138.908 1.80591M183.908 1.80591L228.908 1.8059M3.90792 361.843L3.90793 421.849M3.90792 361.843L48.9079 361.843M3.90792 361.843L3.90792 301.837M183.908 361.843L183.908 421.849M183.908 361.843L138.908 361.843M183.908 361.843L183.908 301.837M183.908 361.843L228.908 361.843M363.908 361.843L363.908 421.849M363.908 361.843L363.908 301.837M363.908 361.843L318.908 361.843M3.90791 121.818L48.9079 121.818M3.90791 121.818L3.90792 181.824M3.90791 121.818L3.90791 61.8121M183.908 121.818L183.908 181.824M183.908 121.818L183.908 61.8121M183.908 121.818L138.908 121.818M183.908 121.818L228.908 121.818M363.908 121.818L363.908 181.824M363.908 121.818L363.908 61.812M363.908 121.818L318.908 121.818M93.9079 481.855L93.9079 421.849M93.9079 481.855L48.9079 481.855M93.9079 481.855L138.908 481.855M93.9079 361.843L93.9079 421.849M93.9079 361.843L48.9079 361.843M93.9079 361.843L138.908 361.843M93.9079 361.843L93.9079 301.837M93.9079 241.831L48.9079 241.831M93.9079 241.831L93.9079 301.837M93.9079 241.831L93.9079 181.824M93.9079 241.831L138.908 241.831M93.9079 121.818L48.9079 121.818M93.9079 121.818L93.9079 181.824M93.9079 121.818L93.9079 61.8121M93.9079 121.818L138.908 121.818M93.9079 1.80591L48.9079 1.80591M93.9079 1.80591L93.9079 61.8121M93.9079 1.80591L138.908 1.80591M273.908 1.8059L273.908 61.812M273.908 1.8059L318.908 1.8059M273.908 1.8059L228.908 1.8059M273.908 121.818L273.908 181.824M273.908 121.818L273.908 61.812M273.908 121.818L318.908 121.818M273.908 121.818L228.908 121.818M273.908 241.83L273.908 301.837M273.908 241.83L273.908 181.824M273.908 241.83L318.908 241.83M273.908 241.83L228.908 241.83M273.908 361.843L273.908 421.849M273.908 361.843L273.908 301.837M273.908 361.843L318.908 361.843M273.908 361.843L228.908 361.843M273.908 481.855L273.908 421.849M273.908 481.855L318.908 481.855M273.908 481.855L228.908 481.855M3.90793 421.849L3.90793 481.855L48.9079 481.855M3.90793 421.849L93.9079 421.849M93.9079 421.849L183.908 421.849M183.908 421.849L273.908 421.849M273.908 421.849L363.908 421.849M363.908 421.849L363.908 481.855L318.908 481.855M48.9079 481.855L48.9079 361.843M48.9079 361.843L48.9079 241.831M48.9079 241.831L48.9079 121.818M48.9079 121.818L48.9079 1.80591M48.9079 1.80591L3.90791 1.80591L3.90791 61.8121M138.908 481.855L138.908 361.843M138.908 361.843L138.908 241.831M93.9079 301.837L183.908 301.837M93.9079 301.837L3.90792 301.837M273.908 301.837L228.908 301.837M273.908 301.837L318.908 301.837M363.908 301.837L318.908 301.837M363.908 181.824L318.908 181.824M273.908 181.824L228.908 181.824M273.908 181.824L318.908 181.824M183.908 301.837L183.908 241.83L183.908 181.824M183.908 301.837L228.908 301.837M183.908 181.824L93.9079 181.824M183.908 181.824L228.908 181.824M93.9079 181.824L3.90792 181.824M3.90791 61.8121L93.9079 61.8121M93.9079 61.8121L183.908 61.8121M183.908 61.8121L228.908 61.8121M273.908 61.812L228.908 61.8121M273.908 61.812L318.908 61.812M363.908 61.812L363.908 1.8059L318.908 1.8059M363.908 61.812L318.908 61.812M318.908 1.8059L318.908 61.812M318.908 121.818L318.908 181.824M318.908 121.818L318.908 61.812M318.908 241.83L318.908 301.837M318.908 241.83L318.908 181.824M318.908 361.843L318.908 481.855M318.908 361.843L318.908 301.837M138.908 121.818L138.908 241.831M138.908 121.818L138.908 1.80591M138.908 241.831L228.908 241.83M228.908 1.8059L228.908 61.8121M228.908 61.8121L228.908 121.818M228.908 121.818L228.908 181.824M228.908 241.83L228.908 301.837M228.908 241.83L228.908 181.824M228.908 361.843L228.908 481.855M228.908 361.843L228.908 301.837" stroke="white" stroke-opacity="0.02" stroke-width="0.5"/>
<g filter="url(#filter1_d_98_217)">
<path d="M328.649 129.117C327.357 133.78 323.592 137.423 318.772 138.672L147.137 183.167C142.317 184.417 137.174 183.083 133.645 179.67L7.99921 58.108C4.47068 54.6942 3.09265 49.7184 4.38418 45.0551L16.3621 1.80591L363.908 1.80591L328.649 129.117Z" fill="url(#paint1_linear_98_217)"/>
</g>
<path d="M301.409 102.947C301.789 102.584 302.334 102.452 302.838 102.6L308.438 104.247C308.942 104.395 309.329 104.801 309.452 105.311L310.827 110.984C310.951 111.495 310.793 112.032 310.412 112.395L306.187 116.422C305.806 116.784 305.262 116.916 304.758 116.768L299.157 115.122C298.653 114.974 298.267 114.568 298.143 114.057L296.769 108.384C296.645 107.874 296.803 107.336 297.183 106.974L301.409 102.947Z" fill="#496181"/>
<path d="M273.129 184.64C274.077 183.736 275.436 183.407 276.693 183.777L290.665 187.884C291.922 188.253 292.886 189.265 293.195 190.539L296.624 204.692C296.932 205.965 296.538 207.307 295.59 208.211L285.047 218.257C284.099 219.161 282.74 219.49 281.483 219.121L267.511 215.014C266.254 214.644 265.29 213.632 264.981 212.359L261.552 198.205C261.243 196.932 261.638 195.591 262.586 194.687L273.129 184.64Z" fill="#496181" fill-opacity="0.2"/>
<path d="M57.2757 186.407C59.8792 183.926 63.6085 183.022 67.0588 184.037L105.407 195.309C108.857 196.323 111.504 199.101 112.351 202.596L121.763 241.442C122.61 244.937 121.528 248.619 118.924 251.1L89.9884 278.674C87.3849 281.155 83.6556 282.059 80.2053 281.044L41.8574 269.772C38.4071 268.758 35.7599 265.98 34.9131 262.485L25.5011 223.639C24.6542 220.144 25.7364 216.462 28.3398 213.981L57.2757 186.407Z" fill="#252E39" fill-opacity="0.5"/>
<path d="M65.3636 718.947C67.1082 718.48 68.9697 718.979 70.2468 720.256L84.4413 734.45C85.7185 735.727 86.2172 737.589 85.7498 739.333L80.5542 758.723C80.0868 760.468 78.7241 761.831 76.9795 762.298L57.5894 767.494C55.8448 767.961 53.9834 767.462 52.7063 766.185L38.5117 751.991C37.2346 750.714 36.7358 748.852 37.2033 747.108L42.3989 727.718C42.8663 725.973 44.229 724.61 45.9736 724.143L65.3636 718.947Z" fill="#252E39"/>
<path d="M57.595 712.966C57.595 714.754 56.1461 716.203 54.3589 716.203C52.5716 716.203 51.1227 714.754 51.1227 712.966C51.1227 711.179 52.5716 709.73 54.3589 709.73C56.1461 709.73 57.595 711.179 57.595 712.966Z" fill="#252E39"/>
<path d="M98.7647 747.669C98.7647 748.563 98.0403 749.287 97.1467 749.287C96.253 749.287 95.5286 748.563 95.5286 747.669C95.5286 746.775 96.253 746.051 97.1467 746.051C98.0403 746.051 98.7647 746.775 98.7647 747.669Z" fill="#252E39" fill-opacity="0.3"/>
<path d="M69.9993 720.503L84.1938 734.698C85.3825 735.886 85.8468 737.619 85.4117 739.243L80.2161 758.633C79.781 760.257 78.5127 761.525 76.8889 761.96L57.4988 767.156C55.875 767.591 54.1425 767.127 52.9537 765.938L38.7592 751.743C37.5705 750.555 37.1063 748.822 37.5414 747.198L42.7369 727.808C43.172 726.184 44.4404 724.916 46.0642 724.481L65.4542 719.285C67.078 718.85 68.8106 719.315 69.9993 720.503ZM84.6888 734.203L70.4943 720.008C69.1288 718.643 67.1384 718.109 65.2731 718.609L45.883 723.805C44.0176 724.305 42.5606 725.762 42.0608 727.627L36.8652 747.017C36.3654 748.882 36.8987 750.873 38.2643 752.238L52.4588 766.433C53.8243 767.798 55.8146 768.332 57.68 767.832L77.0701 762.636C78.9354 762.136 80.3925 760.679 80.8923 758.814L86.0878 739.424C86.5877 737.559 86.0544 735.568 84.6888 734.203ZM92.6771 743.221C92.6771 760.374 78.7716 774.279 61.6182 774.279C44.4649 774.279 30.5593 760.374 30.5593 743.221C30.5593 729.82 39.0462 718.401 50.9382 714.047C51.3965 715.499 52.7547 716.553 54.3589 716.553C56.3394 716.553 57.945 714.947 57.945 712.966C57.945 712.768 57.9288 712.572 57.8976 712.382C59.1175 712.237 60.3591 712.162 61.6182 712.162C78.7716 712.162 92.6771 726.067 92.6771 743.221ZM50.7934 713.354C38.5831 717.781 29.8593 729.482 29.8593 743.221C29.8593 760.76 44.0783 774.979 61.6182 774.979C79.1582 774.979 93.3771 760.76 93.3771 743.221C93.3771 725.681 79.1582 711.462 61.6182 711.462C60.2966 711.462 58.9939 711.542 57.7146 711.699C57.2026 710.344 55.8933 709.38 54.3589 709.38C52.3783 709.38 50.7727 710.986 50.7727 712.966C50.7727 713.097 50.7798 713.227 50.7934 713.354ZM54.3589 715.853C53.0595 715.853 51.9607 714.994 51.5989 713.813C53.3983 713.2 55.2721 712.748 57.203 712.473C57.2306 712.633 57.245 712.798 57.245 712.966C57.245 714.56 55.9528 715.853 54.3589 715.853ZM56.9975 711.795C55.0974 712.072 53.2519 712.517 51.4765 713.115C51.474 713.066 51.4727 713.016 51.4727 712.966C51.4727 711.373 52.7649 710.08 54.3589 710.08C55.5359 710.08 56.5483 710.785 56.9975 711.795ZM97.2226 743.221C97.2226 744.054 97.194 744.882 97.1376 745.701C96.0548 745.706 95.1786 746.585 95.1786 747.669C95.1786 748.587 95.807 749.358 96.6571 749.576C93.6604 766.207 79.1128 778.825 61.6182 778.825C41.9545 778.825 26.0138 762.884 26.0138 743.221C26.0138 723.557 41.9545 707.616 61.6182 707.616C81.282 707.616 97.2226 723.557 97.2226 743.221ZM98.4147 747.669C98.4147 748.253 98.0197 748.745 97.4822 748.892C97.6027 748.124 97.6991 747.348 97.7706 746.565C98.1552 746.783 98.4147 747.196 98.4147 747.669ZM95.8786 747.669C95.8786 746.99 96.4119 746.436 97.0824 746.403C97.0084 747.238 96.9056 748.064 96.775 748.882C96.256 748.723 95.8786 748.24 95.8786 747.669Z" stroke="#252E39" stroke-opacity="0.5" stroke-width="0.7"/>
<defs>
<filter id="filter0_d_98_217" x="2.90817" y="2207.89" width="360" height="418.196" filterUnits="userSpaceOnUse" color-interpolation-filters="sRGB">
<feFlood flood-opacity="0" result="BackgroundImageFix"/>
<feColorMatrix in="SourceAlpha" type="matrix" values="0 0 0 0 0 0 0 0 0 0 0 0 0 0 0 0 0 0 127 0" result="hardAlpha"/>
<feOffset dy="-5"/>
<feComposite in2="hardAlpha" operator="out"/>
<feColorMatrix type="matrix" values="0 0 0 0 0 0 0 0 0 0 0 0 0 0 0 0 0 0 0.1 0"/>
<feBlend mode="normal" in2="BackgroundImageFix" result="effect1_dropShadow_98_217"/>
<feBlend mode="normal" in="SourceGraphic" in2="effect1_dropShadow_98_217" result="shape"/>
</filter>
<filter id="filter1_d_98_217" x="0.907928" y="1.80591" width="366" height="187.822" filterUnits="userSpaceOnUse" color-interpolation-filters="sRGB">
<feFlood flood-opacity="0" result="BackgroundImageFix"/>
<feColorMatrix in="SourceAlpha" type="matrix" values="0 0 0 0 0 0 0 0 0 0 0 0 0 0 0 0 0 0 127 0" result="hardAlpha"/>
<feOffset dy="3"/>
<feGaussianBlur stdDeviation="1.5"/>
<feComposite in2="hardAlpha" operator="out"/>
<feColorMatrix type="matrix" values="0 0 0 0 0 0 0 0 0 0 0 0 0 0 0 0 0 0 0.25 0"/>
<feBlend mode="normal" in2="BackgroundImageFix" result="effect1_dropShadow_98_217"/>
<feBlend mode="normal" in="SourceGraphic" in2="effect1_dropShadow_98_217" result="shape"/>
</filter>
<linearGradient id="paint0_linear_98_217" x1="182.908" y1="2266.64" x2="-176.592" y2="2422.72" gradientUnits="userSpaceOnUse">
<stop offset="0.441825" stop-color="#14171C"/>
<stop offset="0.442167" stop-color="#19212B"/>
<stop offset="0.442167" stop-color="#151A21"/>
</linearGradient>
<linearGradient id="paint1_linear_98_217" x1="69.4114" y1="221.665" x2="315.533" y2="-95.4416" gradientUnits="userSpaceOnUse">
<stop offset="0.522632" stop-color="#13171C"/>
<stop offset="0.522732" stop-color="#151921"/>
</linearGradient>
</defs>
</svg>
