<svg width="375" height="8188" viewBox="0 0 375 8188" fill="none" xmlns="http://www.w3.org/2000/svg">
<rect x="0.357025" y="4997.2" width="373.961" height="3190.14" fill="#161B22"/>
<rect x="0.357025" y="2498.8" width="373.961" height="2498.4" fill="#161B22"/>
<rect x="0.357025" y="0.405518" width="373.961" height="2498.4" fill="#161B22"/>
<path d="M0.35696 250.406L47.1021 250.406M0.35696 250.406L0.356961 312.906M0.35696 250.406L0.35696 187.906M374.318 250.405L374.318 312.905M374.318 250.405L374.318 187.905M374.318 250.405L327.573 250.405M187.338 500.405L187.338 437.905M187.338 500.405L140.592 500.405M187.338 500.405L234.083 500.405M187.338 0.405504L187.338 62.9055M187.338 0.405504L140.592 0.40551M187.338 0.405504L234.083 0.405498M0.356962 375.406L0.356963 437.906M0.356962 375.406L47.1021 375.406M0.356962 375.406L0.356961 312.906M187.338 375.405L187.338 437.905M187.338 375.405L140.592 375.406M187.338 375.405L187.338 312.905M187.338 375.405L234.083 375.405M374.318 375.405L374.318 437.905M374.318 375.405L374.318 312.905M374.318 375.405L327.573 375.405M0.356959 125.406L47.1021 125.406M0.356959 125.406L0.35696 187.906M0.356959 125.406L0.356958 62.9055M187.338 125.406L187.338 187.906M187.338 125.406L187.338 62.9055M187.338 125.406L140.592 125.406M187.338 125.406L234.083 125.405M374.318 125.405L374.318 187.905M374.318 125.405L374.318 62.9055M374.318 125.405L327.573 125.405M93.8473 500.406L93.8473 437.906M93.8473 500.406L47.1021 500.406M93.8473 500.406L140.592 500.405M93.8473 375.406L93.8473 437.906M93.8473 375.406L47.1021 375.406M93.8473 375.406L140.592 375.406M93.8473 375.406L93.8473 312.906M93.8473 250.406L47.1021 250.406M93.8473 250.406L93.8473 312.906M93.8473 250.406L93.8473 187.906M93.8473 250.406L140.592 250.406M93.8473 125.406L47.1021 125.406M93.8473 125.406L93.8473 187.906M93.8473 125.406L93.8473 62.9055M93.8473 125.406L140.592 125.406M93.8473 0.405517L47.1021 0.405523M93.8473 0.405517L93.8473 62.9055M93.8473 0.405517L140.592 0.40551M280.828 0.405492L280.828 62.9055M280.828 0.405492L327.573 0.405486M280.828 0.405492L234.083 0.405498M280.828 125.405L280.828 187.905M280.828 125.405L280.828 62.9055M280.828 125.405L327.573 125.405M280.828 125.405L234.083 125.405M280.828 250.405L280.828 312.905M280.828 250.405L280.828 187.905M280.828 250.405L327.573 250.405M280.828 250.405L234.083 250.405M280.828 375.405L280.828 437.905M280.828 375.405L280.828 312.905M280.828 375.405L327.573 375.405M280.828 375.405L234.083 375.405M280.828 500.405L280.828 437.905M280.828 500.405L327.573 500.405M280.828 500.405L234.083 500.405M0.356963 437.906L0.356964 500.406L47.1021 500.406M0.356963 437.906L93.8473 437.906M93.8473 437.906L187.338 437.905M187.338 437.905L280.828 437.905M280.828 437.905L374.318 437.905M374.318 437.905L374.318 500.405L327.573 500.405M47.1021 500.406L47.1021 375.406M47.1021 375.406L47.1021 250.406M47.1021 250.406L47.1021 125.406M47.1021 125.406L47.1021 0.405523M47.1021 0.405523L0.356957 0.405529L0.356958 62.9055M140.592 500.405L140.592 375.406M140.592 375.406L140.592 250.406M93.8473 312.906L187.338 312.905M93.8473 312.906L0.356961 312.906M280.828 312.905L234.083 312.905M280.828 312.905L327.573 312.905M374.318 312.905L327.573 312.905M374.318 187.905L327.573 187.905M280.828 187.905L234.083 187.905M280.828 187.905L327.573 187.905M187.338 312.905L187.338 250.405L187.338 187.906M187.338 312.905L234.083 312.905M187.338 187.906L93.8473 187.906M187.338 187.906L234.083 187.905M93.8473 187.906L0.35696 187.906M0.356958 62.9055L93.8473 62.9055M93.8473 62.9055L187.338 62.9055M187.338 62.9055L234.083 62.9055M280.828 62.9055L234.083 62.9055M280.828 62.9055L327.573 62.9055M374.318 62.9055L374.318 0.40548L327.573 0.405486M374.318 62.9055L327.573 62.9055M327.573 0.405486L327.573 62.9055M327.573 125.405L327.573 187.905M327.573 125.405L327.573 62.9055M327.573 250.405L327.573 312.905M327.573 250.405L327.573 187.905M327.573 375.405L327.573 500.405M327.573 375.405L327.573 312.905M140.592 125.406L140.592 250.406M140.592 125.406L140.592 0.40551M140.592 250.406L234.083 250.405M234.083 0.405498L234.083 62.9055M234.083 62.9055L234.083 125.405M234.083 125.405L234.083 187.905M234.083 250.405L234.083 312.905M234.083 250.405L234.083 187.905M234.083 375.405L234.083 500.405M234.083 375.405L234.083 312.905" stroke="white" stroke-opacity="0.02" stroke-width="0.5"/>
<path d="M0.356915 750.406L47.1021 750.406M0.356915 750.406L0.356916 812.906M0.356915 750.406L0.356914 687.906M374.318 750.405L374.318 812.905M374.318 750.405L374.318 687.905M374.318 750.405L327.573 750.405M187.338 1000.41L187.338 937.905M187.338 1000.41L140.592 1000.41M187.338 1000.41L234.083 1000.41M187.338 500.406L187.338 562.906M187.338 500.406L140.592 500.406M187.338 500.406L234.083 500.405M0.356917 875.406L0.356917 937.906M0.356917 875.406L47.1021 875.406M0.356917 875.406L0.356916 812.906M187.338 875.405L187.338 937.905M187.338 875.405L140.592 875.406M187.338 875.405L187.338 812.905M187.338 875.405L234.083 875.405M374.318 875.405L374.318 937.905M374.318 875.405L374.318 812.905M374.318 875.405L327.573 875.405M0.356913 625.406L47.1021 625.406M0.356913 625.406L0.356914 687.906M0.356913 625.406L0.356912 562.906M187.338 625.406L187.338 687.906M187.338 625.406L187.338 562.906M187.338 625.406L140.592 625.406M187.338 625.406L234.083 625.405M374.318 625.405L374.318 687.905M374.318 625.405L374.318 562.905M374.318 625.405L327.573 625.405M93.8473 1000.41L93.8473 937.906M93.8473 1000.41L47.1021 1000.41M93.8473 1000.41L140.592 1000.41M93.8473 875.406L93.8473 937.906M93.8473 875.406L47.1021 875.406M93.8473 875.406L140.592 875.406M93.8473 875.406L93.8473 812.906M93.8473 750.406L47.1021 750.406M93.8473 750.406L93.8473 812.906M93.8473 750.406L93.8473 687.906M93.8473 750.406L140.592 750.406M93.8473 625.406L47.1021 625.406M93.8473 625.406L93.8473 687.906M93.8473 625.406L93.8473 562.906M93.8473 625.406L140.592 625.406M93.8473 500.406L47.1021 500.406M93.8473 500.406L93.8473 562.906M93.8473 500.406L140.592 500.406M280.828 500.405L280.828 562.905M280.828 500.405L327.573 500.405M280.828 500.405L234.083 500.405M280.828 625.405L280.828 687.905M280.828 625.405L280.828 562.905M280.828 625.405L327.573 625.405M280.828 625.405L234.083 625.405M280.828 750.405L280.828 812.905M280.828 750.405L280.828 687.905M280.828 750.405L327.573 750.405M280.828 750.405L234.083 750.405M280.828 875.405L280.828 937.905M280.828 875.405L280.828 812.905M280.828 875.405L327.573 875.405M280.828 875.405L234.083 875.405M280.828 1000.41L280.828 937.905M280.828 1000.41L327.573 1000.41M280.828 1000.41L234.083 1000.41M0.356917 937.906L0.356918 1000.41L47.1021 1000.41M0.356917 937.906L93.8473 937.906M93.8473 937.906L187.338 937.905M187.338 937.905L280.828 937.905M280.828 937.905L374.318 937.905M374.318 937.905L374.318 1000.41L327.573 1000.41M47.1021 1000.41L47.1021 875.406M47.1021 875.406L47.1021 750.406M47.1021 750.406L47.1021 625.406M47.1021 625.406L47.1021 500.406M47.1021 500.406L0.356911 500.406L0.356912 562.906M140.592 1000.41L140.592 875.406M140.592 875.406L140.592 750.406M93.8473 812.906L187.338 812.905M93.8473 812.906L0.356916 812.906M280.828 812.905L234.083 812.905M280.828 812.905L327.573 812.905M374.318 812.905L327.573 812.905M374.318 687.905L327.573 687.905M280.828 687.905L234.083 687.905M280.828 687.905L327.573 687.905M187.338 812.905L187.338 750.405L187.338 687.906M187.338 812.905L234.083 812.905M187.338 687.906L93.8473 687.906M187.338 687.906L234.083 687.905M93.8473 687.906L0.356914 687.906M0.356912 562.906L93.8473 562.906M93.8473 562.906L187.338 562.906M187.338 562.906L234.083 562.905M280.828 562.905L234.083 562.905M280.828 562.905L327.573 562.905M374.318 562.905L374.318 500.405L327.573 500.405M374.318 562.905L327.573 562.905M327.573 500.405L327.573 562.905M327.573 625.405L327.573 687.905M327.573 625.405L327.573 562.905M327.573 750.405L327.573 812.905M327.573 750.405L327.573 687.905M327.573 875.405L327.573 1000.41M327.573 875.405L327.573 812.905M140.592 625.406L140.592 750.406M140.592 625.406L140.592 500.406M140.592 750.406L234.083 750.405M234.083 500.405L234.083 562.905M234.083 562.905L234.083 625.405M234.083 625.405L234.083 687.905M234.083 750.405L234.083 812.905M234.083 750.405L234.083 687.905M234.083 875.405L234.083 1000.41M234.083 875.405L234.083 812.905" stroke="white" stroke-opacity="0.02" stroke-width="0.5"/>
<path d="M0.357006 1249.6L47.1022 1249.6M0.357006 1249.6L0.357007 1312.1M0.357006 1249.6L0.357005 1187.1M374.318 1249.6L374.318 1312.1M374.318 1249.6L374.318 1187.1M374.318 1249.6L327.573 1249.6M187.338 1499.6L187.338 1437.1M187.338 1499.6L140.593 1499.6M187.338 1499.6L234.083 1499.6M187.338 999.604L187.338 1062.1M187.338 999.604L140.593 999.604M187.338 999.604L234.083 999.604M0.357008 1374.6L0.357009 1437.1M0.357008 1374.6L47.1022 1374.6M0.357008 1374.6L0.357007 1312.1M187.338 1374.6L187.338 1437.1M187.338 1374.6L140.593 1374.6M187.338 1374.6L187.338 1312.1M187.338 1374.6L234.083 1374.6M374.318 1374.6L374.318 1437.1M374.318 1374.6L374.318 1312.1M374.318 1374.6L327.573 1374.6M0.357004 1124.6L47.1022 1124.6M0.357004 1124.6L0.357005 1187.1M0.357004 1124.6L0.357004 1062.1M187.338 1124.6L187.338 1187.1M187.338 1124.6L187.338 1062.1M187.338 1124.6L140.593 1124.6M187.338 1124.6L234.083 1124.6M374.318 1124.6L374.318 1187.1M374.318 1124.6L374.318 1062.1M374.318 1124.6L327.573 1124.6M93.8474 1499.6L93.8474 1437.1M93.8474 1499.6L47.1022 1499.6M93.8474 1499.6L140.593 1499.6M93.8474 1374.6L93.8474 1437.1M93.8474 1374.6L47.1022 1374.6M93.8474 1374.6L140.593 1374.6M93.8474 1374.6L93.8474 1312.1M93.8474 1249.6L47.1022 1249.6M93.8474 1249.6L93.8474 1312.1M93.8474 1249.6L93.8474 1187.1M93.8474 1249.6L140.593 1249.6M93.8474 1124.6L47.1022 1124.6M93.8474 1124.6L93.8474 1187.1M93.8474 1124.6L93.8474 1062.1M93.8474 1124.6L140.593 1124.6M93.8474 999.604L47.1022 999.604M93.8474 999.604L93.8474 1062.1M93.8474 999.604L140.593 999.604M280.828 999.604L280.828 1062.1M280.828 999.604L327.573 999.604M280.828 999.604L234.083 999.604M280.828 1124.6L280.828 1187.1M280.828 1124.6L280.828 1062.1M280.828 1124.6L327.573 1124.6M280.828 1124.6L234.083 1124.6M280.828 1249.6L280.828 1312.1M280.828 1249.6L280.828 1187.1M280.828 1249.6L327.573 1249.6M280.828 1249.6L234.083 1249.6M280.828 1374.6L280.828 1437.1M280.828 1374.6L280.828 1312.1M280.828 1374.6L327.573 1374.6M280.828 1374.6L234.083 1374.6M280.828 1499.6L280.828 1437.1M280.828 1499.6L327.573 1499.6M280.828 1499.6L234.083 1499.6M0.357009 1437.1L0.35701 1499.6L47.1022 1499.6M0.357009 1437.1L93.8474 1437.1M93.8474 1437.1L187.338 1437.1M187.338 1437.1L280.828 1437.1M280.828 1437.1L374.318 1437.1M374.318 1437.1L374.318 1499.6L327.573 1499.6M47.1022 1499.6L47.1022 1374.6M47.1022 1374.6L47.1022 1249.6M47.1022 1249.6L47.1022 1124.6M47.1022 1124.6L47.1022 999.604M47.1022 999.604L0.357003 999.604L0.357004 1062.1M140.593 1499.6L140.593 1374.6M140.593 1374.6L140.593 1249.6M93.8474 1312.1L187.338 1312.1M93.8474 1312.1L0.357007 1312.1M280.828 1312.1L234.083 1312.1M280.828 1312.1L327.573 1312.1M374.318 1312.1L327.573 1312.1M374.318 1187.1L327.573 1187.1M280.828 1187.1L234.083 1187.1M280.828 1187.1L327.573 1187.1M187.338 1312.1L187.338 1249.6L187.338 1187.1M187.338 1312.1L234.083 1312.1M187.338 1187.1L93.8474 1187.1M187.338 1187.1L234.083 1187.1M93.8474 1187.1L0.357005 1187.1M0.357004 1062.1L93.8474 1062.1M93.8474 1062.1L187.338 1062.1M187.338 1062.1L234.083 1062.1M280.828 1062.1L234.083 1062.1M280.828 1062.1L327.573 1062.1M374.318 1062.1L374.318 999.604L327.573 999.604M374.318 1062.1L327.573 1062.1M327.573 999.604L327.573 1062.1M327.573 1124.6L327.573 1187.1M327.573 1124.6L327.573 1062.1M327.573 1249.6L327.573 1312.1M327.573 1249.6L327.573 1187.1M327.573 1374.6L327.573 1499.6M327.573 1374.6L327.573 1312.1M140.593 1124.6L140.593 1249.6M140.593 1124.6L140.593 999.604M140.593 1249.6L234.083 1249.6M234.083 999.604L234.083 1062.1M234.083 1062.1L234.083 1124.6M234.083 1124.6L234.083 1187.1M234.083 1249.6L234.083 1312.1M234.083 1249.6L234.083 1187.1M234.083 1374.6L234.083 1499.6M234.083 1374.6L234.083 1312.1" stroke="white" stroke-opacity="0.02" stroke-width="0.5"/>
<path d="M0.357006 1749.6L47.1022 1749.6M0.357006 1749.6L0.357007 1812.1M0.357006 1749.6L0.357005 1687.1M374.318 1749.6L374.318 1812.1M374.318 1749.6L374.318 1687.1M374.318 1749.6L327.573 1749.6M187.338 1999.6L187.338 1937.1M187.338 1999.6L140.593 1999.6M187.338 1999.6L234.083 1999.6M187.338 1499.6L187.338 1562.1M187.338 1499.6L140.593 1499.6M187.338 1499.6L234.083 1499.6M0.357008 1874.6L0.357009 1937.1M0.357008 1874.6L47.1022 1874.6M0.357008 1874.6L0.357007 1812.1M187.338 1874.6L187.338 1937.1M187.338 1874.6L140.593 1874.6M187.338 1874.6L187.338 1812.1M187.338 1874.6L234.083 1874.6M374.318 1874.6L374.318 1937.1M374.318 1874.6L374.318 1812.1M374.318 1874.6L327.573 1874.6M0.357004 1624.6L47.1022 1624.6M0.357004 1624.6L0.357005 1687.1M0.357004 1624.6L0.357004 1562.1M187.338 1624.6L187.338 1687.1M187.338 1624.6L187.338 1562.1M187.338 1624.6L140.593 1624.6M187.338 1624.6L234.083 1624.6M374.318 1624.6L374.318 1687.1M374.318 1624.6L374.318 1562.1M374.318 1624.6L327.573 1624.6M93.8474 1999.6L93.8474 1937.1M93.8474 1999.6L47.1022 1999.6M93.8474 1999.6L140.593 1999.6M93.8474 1874.6L93.8474 1937.1M93.8474 1874.6L47.1022 1874.6M93.8474 1874.6L140.593 1874.6M93.8474 1874.6L93.8474 1812.1M93.8474 1749.6L47.1022 1749.6M93.8474 1749.6L93.8474 1812.1M93.8474 1749.6L93.8474 1687.1M93.8474 1749.6L140.593 1749.6M93.8474 1624.6L47.1022 1624.6M93.8474 1624.6L93.8474 1687.1M93.8474 1624.6L93.8474 1562.1M93.8474 1624.6L140.593 1624.6M93.8474 1499.6L47.1022 1499.6M93.8474 1499.6L93.8474 1562.1M93.8474 1499.6L140.593 1499.6M280.828 1499.6L280.828 1562.1M280.828 1499.6L327.573 1499.6M280.828 1499.6L234.083 1499.6M280.828 1624.6L280.828 1687.1M280.828 1624.6L280.828 1562.1M280.828 1624.6L327.573 1624.6M280.828 1624.6L234.083 1624.6M280.828 1749.6L280.828 1812.1M280.828 1749.6L280.828 1687.1M280.828 1749.6L327.573 1749.6M280.828 1749.6L234.083 1749.6M280.828 1874.6L280.828 1937.1M280.828 1874.6L280.828 1812.1M280.828 1874.6L327.573 1874.6M280.828 1874.6L234.083 1874.6M280.828 1999.6L280.828 1937.1M280.828 1999.6L327.573 1999.6M280.828 1999.6L234.083 1999.6M0.357009 1937.1L0.35701 1999.6L47.1022 1999.6M0.357009 1937.1L93.8474 1937.1M93.8474 1937.1L187.338 1937.1M187.338 1937.1L280.828 1937.1M280.828 1937.1L374.318 1937.1M374.318 1937.1L374.318 1999.6L327.573 1999.6M47.1022 1999.6L47.1022 1874.6M47.1022 1874.6L47.1022 1749.6M47.1022 1749.6L47.1022 1624.6M47.1022 1624.6L47.1022 1499.6M47.1022 1499.6L0.357003 1499.6L0.357004 1562.1M140.593 1999.6L140.593 1874.6M140.593 1874.6L140.593 1749.6M93.8474 1812.1L187.338 1812.1M93.8474 1812.1L0.357007 1812.1M280.828 1812.1L234.083 1812.1M280.828 1812.1L327.573 1812.1M374.318 1812.1L327.573 1812.1M374.318 1687.1L327.573 1687.1M280.828 1687.1L234.083 1687.1M280.828 1687.1L327.573 1687.1M187.338 1812.1L187.338 1749.6L187.338 1687.1M187.338 1812.1L234.083 1812.1M187.338 1687.1L93.8474 1687.1M187.338 1687.1L234.083 1687.1M93.8474 1687.1L0.357005 1687.1M0.357004 1562.1L93.8474 1562.1M93.8474 1562.1L187.338 1562.1M187.338 1562.1L234.083 1562.1M280.828 1562.1L234.083 1562.1M280.828 1562.1L327.573 1562.1M374.318 1562.1L374.318 1499.6L327.573 1499.6M374.318 1562.1L327.573 1562.1M327.573 1499.6L327.573 1562.1M327.573 1624.6L327.573 1687.1M327.573 1624.6L327.573 1562.1M327.573 1749.6L327.573 1812.1M327.573 1749.6L327.573 1687.1M327.573 1874.6L327.573 1999.6M327.573 1874.6L327.573 1812.1M140.593 1624.6L140.593 1749.6M140.593 1624.6L140.593 1499.6M140.593 1749.6L234.083 1749.6M234.083 1499.6L234.083 1562.1M234.083 1562.1L234.083 1624.6M234.083 1624.6L234.083 1687.1M234.083 1749.6L234.083 1812.1M234.083 1749.6L234.083 1687.1M234.083 1874.6L234.083 1999.6M234.083 1874.6L234.083 1812.1" stroke="white" stroke-opacity="0.02" stroke-width="0.5"/>
<path d="M0.357006 2249.6L47.1022 2249.6M0.357006 2249.6L0.357007 2312.1M0.357006 2249.6L0.357005 2187.1M374.318 2249.6L374.318 2312.1M374.318 2249.6L374.318 2187.1M374.318 2249.6L327.573 2249.6M187.338 2499.6L187.338 2437.1M187.338 2499.6L140.593 2499.6M187.338 2499.6L234.083 2499.6M187.338 1999.6L187.338 2062.1M187.338 1999.6L140.593 1999.6M187.338 1999.6L234.083 1999.6M0.357008 2374.6L0.357009 2437.1M0.357008 2374.6L47.1022 2374.6M0.357008 2374.6L0.357007 2312.1M187.338 2374.6L187.338 2437.1M187.338 2374.6L140.593 2374.6M187.338 2374.6L187.338 2312.1M187.338 2374.6L234.083 2374.6M374.318 2374.6L374.318 2437.1M374.318 2374.6L374.318 2312.1M374.318 2374.6L327.573 2374.6M0.357004 2124.6L47.1022 2124.6M0.357004 2124.6L0.357005 2187.1M0.357004 2124.6L0.357004 2062.1M187.338 2124.6L187.338 2187.1M187.338 2124.6L187.338 2062.1M187.338 2124.6L140.593 2124.6M187.338 2124.6L234.083 2124.6M374.318 2124.6L374.318 2187.1M374.318 2124.6L374.318 2062.1M374.318 2124.6L327.573 2124.6M93.8474 2499.6L93.8474 2437.1M93.8474 2499.6L47.1022 2499.6M93.8474 2499.6L140.593 2499.6M93.8474 2374.6L93.8474 2437.1M93.8474 2374.6L47.1022 2374.6M93.8474 2374.6L140.593 2374.6M93.8474 2374.6L93.8474 2312.1M93.8474 2249.6L47.1022 2249.6M93.8474 2249.6L93.8474 2312.1M93.8474 2249.6L93.8474 2187.1M93.8474 2249.6L140.593 2249.6M93.8474 2124.6L47.1022 2124.6M93.8474 2124.6L93.8474 2187.1M93.8474 2124.6L93.8474 2062.1M93.8474 2124.6L140.593 2124.6M93.8474 1999.6L47.1022 1999.6M93.8474 1999.6L93.8474 2062.1M93.8474 1999.6L140.593 1999.6M280.828 1999.6L280.828 2062.1M280.828 1999.6L327.573 1999.6M280.828 1999.6L234.083 1999.6M280.828 2124.6L280.828 2187.1M280.828 2124.6L280.828 2062.1M280.828 2124.6L327.573 2124.6M280.828 2124.6L234.083 2124.6M280.828 2249.6L280.828 2312.1M280.828 2249.6L280.828 2187.1M280.828 2249.6L327.573 2249.6M280.828 2249.6L234.083 2249.6M280.828 2374.6L280.828 2437.1M280.828 2374.6L280.828 2312.1M280.828 2374.6L327.573 2374.6M280.828 2374.6L234.083 2374.6M280.828 2499.6L280.828 2437.1M280.828 2499.6L327.573 2499.6M280.828 2499.6L234.083 2499.6M0.357009 2437.1L0.35701 2499.6L47.1022 2499.6M0.357009 2437.1L93.8474 2437.1M93.8474 2437.1L187.338 2437.1M187.338 2437.1L280.828 2437.1M280.828 2437.1L374.318 2437.1M374.318 2437.1L374.318 2499.6L327.573 2499.6M47.1022 2499.6L47.1022 2374.6M47.1022 2374.6L47.1022 2249.6M47.1022 2249.6L47.1022 2124.6M47.1022 2124.6L47.1022 1999.6M47.1022 1999.6L0.357003 1999.6L0.357004 2062.1M140.593 2499.6L140.593 2374.6M140.593 2374.6L140.593 2249.6M93.8474 2312.1L187.338 2312.1M93.8474 2312.1L0.357007 2312.1M280.828 2312.1L234.083 2312.1M280.828 2312.1L327.573 2312.1M374.318 2312.1L327.573 2312.1M374.318 2187.1L327.573 2187.1M280.828 2187.1L234.083 2187.1M280.828 2187.1L327.573 2187.1M187.338 2312.1L187.338 2249.6L187.338 2187.1M187.338 2312.1L234.083 2312.1M187.338 2187.1L93.8474 2187.1M187.338 2187.1L234.083 2187.1M93.8474 2187.1L0.357005 2187.1M0.357004 2062.1L93.8474 2062.1M93.8474 2062.1L187.338 2062.1M187.338 2062.1L234.083 2062.1M280.828 2062.1L234.083 2062.1M280.828 2062.1L327.573 2062.1M374.318 2062.1L374.318 1999.6L327.573 1999.6M374.318 2062.1L327.573 2062.1M327.573 1999.6L327.573 2062.1M327.573 2124.6L327.573 2187.1M327.573 2124.6L327.573 2062.1M327.573 2249.6L327.573 2312.1M327.573 2249.6L327.573 2187.1M327.573 2374.6L327.573 2499.6M327.573 2374.6L327.573 2312.1M140.593 2124.6L140.593 2249.6M140.593 2124.6L140.593 1999.6M140.593 2249.6L234.083 2249.6M234.083 1999.6L234.083 2062.1M234.083 2062.1L234.083 2124.6M234.083 2124.6L234.083 2187.1M234.083 2249.6L234.083 2312.1M234.083 2249.6L234.083 2187.1M234.083 2374.6L234.083 2499.6M234.083 2374.6L234.083 2312.1" stroke="white" stroke-opacity="0.02" stroke-width="0.5"/>
<path d="M0.357037 2748.8L47.1022 2748.8M0.357037 2748.8L0.357038 2811.3M0.357037 2748.8L0.357036 2686.3M374.318 2748.8L374.318 2811.3M374.318 2748.8L374.318 2686.3M374.318 2748.8L327.573 2748.8M187.338 2998.8L187.338 2936.3M187.338 2998.8L140.593 2998.8M187.338 2998.8L234.083 2998.8M187.338 2498.8L187.338 2561.3M187.338 2498.8L140.593 2498.8M187.338 2498.8L234.083 2498.8M0.357039 2873.8L0.357039 2936.3M0.357039 2873.8L47.1022 2873.8M0.357039 2873.8L0.357038 2811.3M187.338 2873.8L187.338 2936.3M187.338 2873.8L140.593 2873.8M187.338 2873.8L187.338 2811.3M187.338 2873.8L234.083 2873.8M374.318 2873.8L374.318 2936.3M374.318 2873.8L374.318 2811.3M374.318 2873.8L327.573 2873.8M0.357035 2623.8L47.1022 2623.8M0.357035 2623.8L0.357036 2686.3M0.357035 2623.8L0.357034 2561.3M187.338 2623.8L187.338 2686.3M187.338 2623.8L187.338 2561.3M187.338 2623.8L140.593 2623.8M187.338 2623.8L234.083 2623.8M374.318 2623.8L374.318 2686.3M374.318 2623.8L374.318 2561.3M374.318 2623.8L327.573 2623.8M93.8474 2998.8L93.8474 2936.3M93.8474 2998.8L47.1022 2998.8M93.8474 2998.8L140.593 2998.8M93.8474 2873.8L93.8474 2936.3M93.8474 2873.8L47.1022 2873.8M93.8474 2873.8L140.593 2873.8M93.8474 2873.8L93.8474 2811.3M93.8474 2748.8L47.1022 2748.8M93.8474 2748.8L93.8474 2811.3M93.8474 2748.8L93.8474 2686.3M93.8474 2748.8L140.593 2748.8M93.8474 2623.8L47.1022 2623.8M93.8474 2623.8L93.8474 2686.3M93.8474 2623.8L93.8474 2561.3M93.8474 2623.8L140.593 2623.8M93.8474 2498.8L47.1022 2498.8M93.8474 2498.8L93.8474 2561.3M93.8474 2498.8L140.593 2498.8M280.828 2498.8L280.828 2561.3M280.828 2498.8L327.573 2498.8M280.828 2498.8L234.083 2498.8M280.828 2623.8L280.828 2686.3M280.828 2623.8L280.828 2561.3M280.828 2623.8L327.573 2623.8M280.828 2623.8L234.083 2623.8M280.828 2748.8L280.828 2811.3M280.828 2748.8L280.828 2686.3M280.828 2748.8L327.573 2748.8M280.828 2748.8L234.083 2748.8M280.828 2873.8L280.828 2936.3M280.828 2873.8L280.828 2811.3M280.828 2873.8L327.573 2873.8M280.828 2873.8L234.083 2873.8M280.828 2998.8L280.828 2936.3M280.828 2998.8L327.573 2998.8M280.828 2998.8L234.083 2998.8M0.357039 2936.3L0.35704 2998.8L47.1022 2998.8M0.357039 2936.3L93.8474 2936.3M93.8474 2936.3L187.338 2936.3M187.338 2936.3L280.828 2936.3M280.828 2936.3L374.318 2936.3M374.318 2936.3L374.318 2998.8L327.573 2998.8M47.1022 2998.8L47.1022 2873.8M47.1022 2873.8L47.1022 2748.8M47.1022 2748.8L47.1022 2623.8M47.1022 2623.8L47.1022 2498.8M47.1022 2498.8L0.357033 2498.8L0.357034 2561.3M140.593 2998.8L140.593 2873.8M140.593 2873.8L140.593 2748.8M93.8474 2811.3L187.338 2811.3M93.8474 2811.3L0.357038 2811.3M280.828 2811.3L234.083 2811.3M280.828 2811.3L327.573 2811.3M374.318 2811.3L327.573 2811.3M374.318 2686.3L327.573 2686.3M280.828 2686.3L234.083 2686.3M280.828 2686.3L327.573 2686.3M187.338 2811.3L187.338 2748.8L187.338 2686.3M187.338 2811.3L234.083 2811.3M187.338 2686.3L93.8474 2686.3M187.338 2686.3L234.083 2686.3M93.8474 2686.3L0.357036 2686.3M0.357034 2561.3L93.8474 2561.3M93.8474 2561.3L187.338 2561.3M187.338 2561.3L234.083 2561.3M280.828 2561.3L234.083 2561.3M280.828 2561.3L327.573 2561.3M374.318 2561.3L374.318 2498.8L327.573 2498.8M374.318 2561.3L327.573 2561.3M327.573 2498.8L327.573 2561.3M327.573 2623.8L327.573 2686.3M327.573 2623.8L327.573 2561.3M327.573 2748.8L327.573 2811.3M327.573 2748.8L327.573 2686.3M327.573 2873.8L327.573 2998.8M327.573 2873.8L327.573 2811.3M140.593 2623.8L140.593 2748.8M140.593 2623.8L140.593 2498.8M140.593 2748.8L234.083 2748.8M234.083 2498.8L234.083 2561.3M234.083 2561.3L234.083 2623.8M234.083 2623.8L234.083 2686.3M234.083 2748.8L234.083 2811.3M234.083 2748.8L234.083 2686.3M234.083 2873.8L234.083 2998.8M234.083 2873.8L234.083 2811.3" stroke="white" stroke-opacity="0.02" stroke-width="0.5"/>
<path d="M0.356991 3248.8L47.1022 3248.8M0.356991 3248.8L0.356992 3311.3M0.356991 3248.8L0.35699 3186.3M374.318 3248.8L374.318 3311.3M374.318 3248.8L374.318 3186.3M374.318 3248.8L327.573 3248.8M187.338 3498.8L187.338 3436.3M187.338 3498.8L140.593 3498.8M187.338 3498.8L234.083 3498.8M187.338 2998.8L187.338 3061.3M187.338 2998.8L140.593 2998.8M187.338 2998.8L234.083 2998.8M0.356993 3373.8L0.356994 3436.3M0.356993 3373.8L47.1022 3373.8M0.356993 3373.8L0.356992 3311.3M187.338 3373.8L187.338 3436.3M187.338 3373.8L140.593 3373.8M187.338 3373.8L187.338 3311.3M187.338 3373.8L234.083 3373.8M374.318 3373.8L374.318 3436.3M374.318 3373.8L374.318 3311.3M374.318 3373.8L327.573 3373.8M0.356989 3123.8L47.1022 3123.8M0.356989 3123.8L0.35699 3186.3M0.356989 3123.8L0.356988 3061.3M187.338 3123.8L187.338 3186.3M187.338 3123.8L187.338 3061.3M187.338 3123.8L140.593 3123.8M187.338 3123.8L234.083 3123.8M374.318 3123.8L374.318 3186.3M374.318 3123.8L374.318 3061.3M374.318 3123.8L327.573 3123.8M93.8473 3498.8L93.8473 3436.3M93.8473 3498.8L47.1022 3498.8M93.8473 3498.8L140.593 3498.8M93.8473 3373.8L93.8473 3436.3M93.8473 3373.8L47.1022 3373.8M93.8473 3373.8L140.593 3373.8M93.8473 3373.8L93.8473 3311.3M93.8473 3248.8L47.1022 3248.8M93.8473 3248.8L93.8473 3311.3M93.8473 3248.8L93.8473 3186.3M93.8473 3248.8L140.593 3248.8M93.8473 3123.8L47.1022 3123.8M93.8473 3123.8L93.8473 3186.3M93.8473 3123.8L93.8473 3061.3M93.8473 3123.8L140.593 3123.8M93.8473 2998.8L47.1022 2998.8M93.8473 2998.8L93.8473 3061.3M93.8473 2998.8L140.593 2998.8M280.828 2998.8L280.828 3061.3M280.828 2998.8L327.573 2998.8M280.828 2998.8L234.083 2998.8M280.828 3123.8L280.828 3186.3M280.828 3123.8L280.828 3061.3M280.828 3123.8L327.573 3123.8M280.828 3123.8L234.083 3123.8M280.828 3248.8L280.828 3311.3M280.828 3248.8L280.828 3186.3M280.828 3248.8L327.573 3248.8M280.828 3248.8L234.083 3248.8M280.828 3373.8L280.828 3436.3M280.828 3373.8L280.828 3311.3M280.828 3373.8L327.573 3373.8M280.828 3373.8L234.083 3373.8M280.828 3498.8L280.828 3436.3M280.828 3498.8L327.573 3498.8M280.828 3498.8L234.083 3498.8M0.356994 3436.3L0.356995 3498.8L47.1022 3498.8M0.356994 3436.3L93.8473 3436.3M93.8473 3436.3L187.338 3436.3M187.338 3436.3L280.828 3436.3M280.828 3436.3L374.318 3436.3M374.318 3436.3L374.318 3498.8L327.573 3498.8M47.1022 3498.8L47.1022 3373.8M47.1022 3373.8L47.1022 3248.8M47.1022 3248.8L47.1022 3123.8M47.1022 3123.8L47.1022 2998.8M47.1022 2998.8L0.356987 2998.8L0.356988 3061.3M140.593 3498.8L140.593 3373.8M140.593 3373.8L140.593 3248.8M93.8473 3311.3L187.338 3311.3M93.8473 3311.3L0.356992 3311.3M280.828 3311.3L234.083 3311.3M280.828 3311.3L327.573 3311.3M374.318 3311.3L327.573 3311.3M374.318 3186.3L327.573 3186.3M280.828 3186.3L234.083 3186.3M280.828 3186.3L327.573 3186.3M187.338 3311.3L187.338 3248.8L187.338 3186.3M187.338 3311.3L234.083 3311.3M187.338 3186.3L93.8473 3186.3M187.338 3186.3L234.083 3186.3M93.8473 3186.3L0.35699 3186.3M0.356988 3061.3L93.8473 3061.3M93.8473 3061.3L187.338 3061.3M187.338 3061.3L234.083 3061.3M280.828 3061.3L234.083 3061.3M280.828 3061.3L327.573 3061.3M374.318 3061.3L374.318 2998.8L327.573 2998.8M374.318 3061.3L327.573 3061.3M327.573 2998.8L327.573 3061.3M327.573 3123.8L327.573 3186.3M327.573 3123.8L327.573 3061.3M327.573 3248.8L327.573 3311.3M327.573 3248.8L327.573 3186.3M327.573 3373.8L327.573 3498.8M327.573 3373.8L327.573 3311.3M140.593 3123.8L140.593 3248.8M140.593 3123.8L140.593 2998.8M140.593 3248.8L234.083 3248.8M234.083 2998.8L234.083 3061.3M234.083 3061.3L234.083 3123.8M234.083 3123.8L234.083 3186.3M234.083 3248.8L234.083 3311.3M234.083 3248.8L234.083 3186.3M234.083 3373.8L234.083 3498.8M234.083 3373.8L234.083 3311.3" stroke="white" stroke-opacity="0.02" stroke-width="0.5"/>
<path d="M0.357037 3748.8L47.1022 3748.8M0.357037 3748.8L0.357038 3811.3M0.357037 3748.8L0.357036 3686.3M374.318 3748.8L374.318 3811.3M374.318 3748.8L374.318 3686.3M374.318 3748.8L327.573 3748.8M187.338 3998.8L187.338 3936.3M187.338 3998.8L140.593 3998.8M187.338 3998.8L234.083 3998.8M187.338 3498.8L187.338 3561.3M187.338 3498.8L140.593 3498.8M187.338 3498.8L234.083 3498.8M0.357039 3873.8L0.357039 3936.3M0.357039 3873.8L47.1022 3873.8M0.357039 3873.8L0.357038 3811.3M187.338 3873.8L187.338 3936.3M187.338 3873.8L140.593 3873.8M187.338 3873.8L187.338 3811.3M187.338 3873.8L234.083 3873.8M374.318 3873.8L374.318 3936.3M374.318 3873.8L374.318 3811.3M374.318 3873.8L327.573 3873.8M0.357035 3623.8L47.1022 3623.8M0.357035 3623.8L0.357036 3686.3M0.357035 3623.8L0.357034 3561.3M187.338 3623.8L187.338 3686.3M187.338 3623.8L187.338 3561.3M187.338 3623.8L140.593 3623.8M187.338 3623.8L234.083 3623.8M374.318 3623.8L374.318 3686.3M374.318 3623.8L374.318 3561.3M374.318 3623.8L327.573 3623.8M93.8474 3998.8L93.8474 3936.3M93.8474 3998.8L47.1022 3998.8M93.8474 3998.8L140.593 3998.8M93.8474 3873.8L93.8474 3936.3M93.8474 3873.8L47.1022 3873.8M93.8474 3873.8L140.593 3873.8M93.8474 3873.8L93.8474 3811.3M93.8474 3748.8L47.1022 3748.8M93.8474 3748.8L93.8474 3811.3M93.8474 3748.8L93.8474 3686.3M93.8474 3748.8L140.593 3748.8M93.8474 3623.8L47.1022 3623.8M93.8474 3623.8L93.8474 3686.3M93.8474 3623.8L93.8474 3561.3M93.8474 3623.8L140.593 3623.8M93.8474 3498.8L47.1022 3498.8M93.8474 3498.8L93.8474 3561.3M93.8474 3498.8L140.593 3498.8M280.828 3498.8L280.828 3561.3M280.828 3498.8L327.573 3498.8M280.828 3498.8L234.083 3498.8M280.828 3623.8L280.828 3686.3M280.828 3623.8L280.828 3561.3M280.828 3623.8L327.573 3623.8M280.828 3623.8L234.083 3623.8M280.828 3748.8L280.828 3811.3M280.828 3748.8L280.828 3686.3M280.828 3748.8L327.573 3748.8M280.828 3748.8L234.083 3748.8M280.828 3873.8L280.828 3936.3M280.828 3873.8L280.828 3811.3M280.828 3873.8L327.573 3873.8M280.828 3873.8L234.083 3873.8M280.828 3998.8L280.828 3936.3M280.828 3998.8L327.573 3998.8M280.828 3998.8L234.083 3998.8M0.357039 3936.3L0.35704 3998.8L47.1022 3998.8M0.357039 3936.3L93.8474 3936.3M93.8474 3936.3L187.338 3936.3M187.338 3936.3L280.828 3936.3M280.828 3936.3L374.318 3936.3M374.318 3936.3L374.318 3998.8L327.573 3998.8M47.1022 3998.8L47.1022 3873.8M47.1022 3873.8L47.1022 3748.8M47.1022 3748.8L47.1022 3623.8M47.1022 3623.8L47.1022 3498.8M47.1022 3498.8L0.357033 3498.8L0.357034 3561.3M140.593 3998.8L140.593 3873.8M140.593 3873.8L140.593 3748.8M93.8474 3811.3L187.338 3811.3M93.8474 3811.3L0.357038 3811.3M280.828 3811.3L234.083 3811.3M280.828 3811.3L327.573 3811.3M374.318 3811.3L327.573 3811.3M374.318 3686.3L327.573 3686.3M280.828 3686.3L234.083 3686.3M280.828 3686.3L327.573 3686.3M187.338 3811.3L187.338 3748.8L187.338 3686.3M187.338 3811.3L234.083 3811.3M187.338 3686.3L93.8474 3686.3M187.338 3686.3L234.083 3686.3M93.8474 3686.3L0.357036 3686.3M0.357034 3561.3L93.8474 3561.3M93.8474 3561.3L187.338 3561.3M187.338 3561.3L234.083 3561.3M280.828 3561.3L234.083 3561.3M280.828 3561.3L327.573 3561.3M374.318 3561.3L374.318 3498.8L327.573 3498.8M374.318 3561.3L327.573 3561.3M327.573 3498.8L327.573 3561.3M327.573 3623.8L327.573 3686.3M327.573 3623.8L327.573 3561.3M327.573 3748.8L327.573 3811.3M327.573 3748.8L327.573 3686.3M327.573 3873.8L327.573 3998.8M327.573 3873.8L327.573 3811.3M140.593 3623.8L140.593 3748.8M140.593 3623.8L140.593 3498.8M140.593 3748.8L234.083 3748.8M234.083 3498.8L234.083 3561.3M234.083 3561.3L234.083 3623.8M234.083 3623.8L234.083 3686.3M234.083 3748.8L234.083 3811.3M234.083 3748.8L234.083 3686.3M234.083 3873.8L234.083 3998.8M234.083 3873.8L234.083 3811.3" stroke="white" stroke-opacity="0.02" stroke-width="0.5"/>
<path d="M0.357037 4248.8L47.1022 4248.8M0.357037 4248.8L0.357038 4311.3M0.357037 4248.8L0.357036 4186.3M374.318 4248.8L374.318 4311.3M374.318 4248.8L374.318 4186.3M374.318 4248.8L327.573 4248.8M187.338 4498.8L187.338 4436.3M187.338 4498.8L140.593 4498.8M187.338 4498.8L234.083 4498.8M187.338 3998.8L187.338 4061.3M187.338 3998.8L140.593 3998.8M187.338 3998.8L234.083 3998.8M0.357039 4373.8L0.357039 4436.3M0.357039 4373.8L47.1022 4373.8M0.357039 4373.8L0.357038 4311.3M187.338 4373.8L187.338 4436.3M187.338 4373.8L140.593 4373.8M187.338 4373.8L187.338 4311.3M187.338 4373.8L234.083 4373.8M374.318 4373.8L374.318 4436.3M374.318 4373.8L374.318 4311.3M374.318 4373.8L327.573 4373.8M0.357035 4123.8L47.1022 4123.8M0.357035 4123.8L0.357036 4186.3M0.357035 4123.8L0.357034 4061.3M187.338 4123.8L187.338 4186.3M187.338 4123.8L187.338 4061.3M187.338 4123.8L140.593 4123.8M187.338 4123.8L234.083 4123.8M374.318 4123.8L374.318 4186.3M374.318 4123.8L374.318 4061.3M374.318 4123.8L327.573 4123.8M93.8474 4498.8L93.8474 4436.3M93.8474 4498.8L47.1022 4498.8M93.8474 4498.8L140.593 4498.8M93.8474 4373.8L93.8474 4436.3M93.8474 4373.8L47.1022 4373.8M93.8474 4373.8L140.593 4373.8M93.8474 4373.8L93.8474 4311.3M93.8474 4248.8L47.1022 4248.8M93.8474 4248.8L93.8474 4311.3M93.8474 4248.8L93.8474 4186.3M93.8474 4248.8L140.593 4248.8M93.8474 4123.8L47.1022 4123.8M93.8474 4123.8L93.8474 4186.3M93.8474 4123.8L93.8474 4061.3M93.8474 4123.8L140.593 4123.8M93.8474 3998.8L47.1022 3998.8M93.8474 3998.8L93.8474 4061.3M93.8474 3998.8L140.593 3998.8M280.828 3998.8L280.828 4061.3M280.828 3998.8L327.573 3998.8M280.828 3998.8L234.083 3998.8M280.828 4123.8L280.828 4186.3M280.828 4123.8L280.828 4061.3M280.828 4123.8L327.573 4123.8M280.828 4123.8L234.083 4123.8M280.828 4248.8L280.828 4311.3M280.828 4248.8L280.828 4186.3M280.828 4248.8L327.573 4248.8M280.828 4248.8L234.083 4248.8M280.828 4373.8L280.828 4436.3M280.828 4373.8L280.828 4311.3M280.828 4373.8L327.573 4373.8M280.828 4373.8L234.083 4373.8M280.828 4498.8L280.828 4436.3M280.828 4498.8L327.573 4498.8M280.828 4498.8L234.083 4498.8M0.357039 4436.3L0.35704 4498.8L47.1022 4498.8M0.357039 4436.3L93.8474 4436.3M93.8474 4436.3L187.338 4436.3M187.338 4436.3L280.828 4436.3M280.828 4436.3L374.318 4436.3M374.318 4436.3L374.318 4498.8L327.573 4498.8M47.1022 4498.8L47.1022 4373.8M47.1022 4373.8L47.1022 4248.8M47.1022 4248.8L47.1022 4123.8M47.1022 4123.8L47.1022 3998.8M47.1022 3998.8L0.357033 3998.8L0.357034 4061.3M140.593 4498.8L140.593 4373.8M140.593 4373.8L140.593 4248.8M93.8474 4311.3L187.338 4311.3M93.8474 4311.3L0.357038 4311.3M280.828 4311.3L234.083 4311.3M280.828 4311.3L327.573 4311.3M374.318 4311.3L327.573 4311.3M374.318 4186.3L327.573 4186.3M280.828 4186.3L234.083 4186.3M280.828 4186.3L327.573 4186.3M187.338 4311.3L187.338 4248.8L187.338 4186.3M187.338 4311.3L234.083 4311.3M187.338 4186.3L93.8474 4186.3M187.338 4186.3L234.083 4186.3M93.8474 4186.3L0.357036 4186.3M0.357034 4061.3L93.8474 4061.3M93.8474 4061.3L187.338 4061.3M187.338 4061.3L234.083 4061.3M280.828 4061.3L234.083 4061.3M280.828 4061.3L327.573 4061.3M374.318 4061.3L374.318 3998.8L327.573 3998.8M374.318 4061.3L327.573 4061.3M327.573 3998.8L327.573 4061.3M327.573 4123.8L327.573 4186.3M327.573 4123.8L327.573 4061.3M327.573 4248.8L327.573 4311.3M327.573 4248.8L327.573 4186.3M327.573 4373.8L327.573 4498.8M327.573 4373.8L327.573 4311.3M140.593 4123.8L140.593 4248.8M140.593 4123.8L140.593 3998.8M140.593 4248.8L234.083 4248.8M234.083 3998.8L234.083 4061.3M234.083 4061.3L234.083 4123.8M234.083 4123.8L234.083 4186.3M234.083 4248.8L234.083 4311.3M234.083 4248.8L234.083 4186.3M234.083 4373.8L234.083 4498.8M234.083 4373.8L234.083 4311.3" stroke="white" stroke-opacity="0.02" stroke-width="0.5"/>
<path d="M0.357052 4748.8L47.1022 4748.8M0.357052 4748.8L0.357053 4811.3M0.357052 4748.8L0.357051 4686.3M374.318 4748.8L374.318 4811.3M374.318 4748.8L374.318 4686.3M374.318 4748.8L327.573 4748.8M187.338 4998.8L187.338 4936.3M187.338 4998.8L140.593 4998.8M187.338 4998.8L234.083 4998.8M187.338 4498.8L187.338 4561.3M187.338 4498.8L140.593 4498.8M187.338 4498.8L234.083 4498.8M0.357054 4873.8L0.357055 4936.3M0.357054 4873.8L47.1022 4873.8M0.357054 4873.8L0.357053 4811.3M187.338 4873.8L187.338 4936.3M187.338 4873.8L140.593 4873.8M187.338 4873.8L187.338 4811.3M187.338 4873.8L234.083 4873.8M374.318 4873.8L374.318 4936.3M374.318 4873.8L374.318 4811.3M374.318 4873.8L327.573 4873.8M0.35705 4623.8L47.1022 4623.8M0.35705 4623.8L0.357051 4686.3M0.35705 4623.8L0.357049 4561.3M187.338 4623.8L187.338 4686.3M187.338 4623.8L187.338 4561.3M187.338 4623.8L140.593 4623.8M187.338 4623.8L234.083 4623.8M374.318 4623.8L374.318 4686.3M374.318 4623.8L374.318 4561.3M374.318 4623.8L327.573 4623.8M93.8474 4998.8L93.8474 4936.3M93.8474 4998.8L47.1022 4998.8M93.8474 4998.8L140.593 4998.8M93.8474 4873.8L93.8474 4936.3M93.8474 4873.8L47.1022 4873.8M93.8474 4873.8L140.593 4873.8M93.8474 4873.8L93.8474 4811.3M93.8474 4748.8L47.1022 4748.8M93.8474 4748.8L93.8474 4811.3M93.8474 4748.8L93.8474 4686.3M93.8474 4748.8L140.593 4748.8M93.8474 4623.8L47.1022 4623.8M93.8474 4623.8L93.8474 4686.3M93.8474 4623.8L93.8474 4561.3M93.8474 4623.8L140.593 4623.8M93.8474 4498.8L47.1022 4498.8M93.8474 4498.8L93.8474 4561.3M93.8474 4498.8L140.593 4498.8M280.828 4498.8L280.828 4561.3M280.828 4498.8L327.573 4498.8M280.828 4498.8L234.083 4498.8M280.828 4623.8L280.828 4686.3M280.828 4623.8L280.828 4561.3M280.828 4623.8L327.573 4623.8M280.828 4623.8L234.083 4623.8M280.828 4748.8L280.828 4811.3M280.828 4748.8L280.828 4686.3M280.828 4748.8L327.573 4748.8M280.828 4748.8L234.083 4748.8M280.828 4873.8L280.828 4936.3M280.828 4873.8L280.828 4811.3M280.828 4873.8L327.573 4873.8M280.828 4873.8L234.083 4873.8M280.828 4998.8L280.828 4936.3M280.828 4998.8L327.573 4998.8M280.828 4998.8L234.083 4998.8M0.357055 4936.3L0.357056 4998.8L47.1022 4998.8M0.357055 4936.3L93.8474 4936.3M93.8474 4936.3L187.338 4936.3M187.338 4936.3L280.828 4936.3M280.828 4936.3L374.318 4936.3M374.318 4936.3L374.318 4998.8L327.573 4998.8M47.1022 4998.8L47.1022 4873.8M47.1022 4873.8L47.1022 4748.8M47.1022 4748.8L47.1022 4623.8M47.1022 4623.8L47.1022 4498.8M47.1022 4498.8L0.357048 4498.8L0.357049 4561.3M140.593 4998.8L140.593 4873.8M140.593 4873.8L140.593 4748.8M93.8474 4811.3L187.338 4811.3M93.8474 4811.3L0.357053 4811.3M280.828 4811.3L234.083 4811.3M280.828 4811.3L327.573 4811.3M374.318 4811.3L327.573 4811.3M374.318 4686.3L327.573 4686.3M280.828 4686.3L234.083 4686.3M280.828 4686.3L327.573 4686.3M187.338 4811.3L187.338 4748.8L187.338 4686.3M187.338 4811.3L234.083 4811.3M187.338 4686.3L93.8474 4686.3M187.338 4686.3L234.083 4686.3M93.8474 4686.3L0.357051 4686.3M0.357049 4561.3L93.8474 4561.3M93.8474 4561.3L187.338 4561.3M187.338 4561.3L234.083 4561.3M280.828 4561.3L234.083 4561.3M280.828 4561.3L327.573 4561.3M374.318 4561.3L374.318 4498.8L327.573 4498.8M374.318 4561.3L327.573 4561.3M327.573 4498.8L327.573 4561.3M327.573 4623.8L327.573 4686.3M327.573 4623.8L327.573 4561.3M327.573 4748.8L327.573 4811.3M327.573 4748.8L327.573 4686.3M327.573 4873.8L327.573 4998.8M327.573 4873.8L327.573 4811.3M140.593 4623.8L140.593 4748.8M140.593 4623.8L140.593 4498.8M140.593 4748.8L234.083 4748.8M234.083 4498.8L234.083 4561.3M234.083 4561.3L234.083 4623.8M234.083 4623.8L234.083 4686.3M234.083 4748.8L234.083 4811.3M234.083 4748.8L234.083 4686.3M234.083 4873.8L234.083 4998.8M234.083 4873.8L234.083 4811.3" stroke="white" stroke-opacity="0.02" stroke-width="0.5"/>
<path d="M0.357067 5248.8L47.1022 5248.8M0.357067 5248.8L0.357068 5311.3M0.357067 5248.8L0.357066 5186.3M374.318 5248.8L374.318 5311.3M374.318 5248.8L374.318 5186.3M374.318 5248.8L327.573 5248.8M187.338 5498.8L187.338 5436.3M187.338 5498.8L140.593 5498.8M187.338 5498.8L234.083 5498.8M187.338 4998.8L187.338 5061.3M187.338 4998.8L140.593 4998.8M187.338 4998.8L234.083 4998.8M0.357069 5373.8L0.35707 5436.3M0.357069 5373.8L47.1022 5373.8M0.357069 5373.8L0.357068 5311.3M187.338 5373.8L187.338 5436.3M187.338 5373.8L140.593 5373.8M187.338 5373.8L187.338 5311.3M187.338 5373.8L234.083 5373.8M374.318 5373.8L374.318 5436.3M374.318 5373.8L374.318 5311.3M374.318 5373.8L327.573 5373.8M0.357065 5123.8L47.1022 5123.8M0.357065 5123.8L0.357066 5186.3M0.357065 5123.8L0.357065 5061.3M187.338 5123.8L187.338 5186.3M187.338 5123.8L187.338 5061.3M187.338 5123.8L140.593 5123.8M187.338 5123.8L234.083 5123.8M374.318 5123.8L374.318 5186.3M374.318 5123.8L374.318 5061.3M374.318 5123.8L327.573 5123.8M93.8474 5498.8L93.8474 5436.3M93.8474 5498.8L47.1022 5498.8M93.8474 5498.8L140.593 5498.8M93.8474 5373.8L93.8474 5436.3M93.8474 5373.8L47.1022 5373.8M93.8474 5373.8L140.593 5373.8M93.8474 5373.8L93.8474 5311.3M93.8474 5248.8L47.1022 5248.8M93.8474 5248.8L93.8474 5311.3M93.8474 5248.8L93.8474 5186.3M93.8474 5248.8L140.593 5248.8M93.8474 5123.8L47.1022 5123.8M93.8474 5123.8L93.8474 5186.3M93.8474 5123.8L93.8474 5061.3M93.8474 5123.8L140.593 5123.8M93.8474 4998.8L47.1022 4998.8M93.8474 4998.8L93.8474 5061.3M93.8474 4998.8L140.593 4998.8M280.828 4998.8L280.828 5061.3M280.828 4998.8L327.573 4998.8M280.828 4998.8L234.083 4998.8M280.828 5123.8L280.828 5186.3M280.828 5123.8L280.828 5061.3M280.828 5123.8L327.573 5123.8M280.828 5123.8L234.083 5123.8M280.828 5248.8L280.828 5311.3M280.828 5248.8L280.828 5186.3M280.828 5248.8L327.573 5248.8M280.828 5248.8L234.083 5248.8M280.828 5373.8L280.828 5436.3M280.828 5373.8L280.828 5311.3M280.828 5373.8L327.573 5373.8M280.828 5373.8L234.083 5373.8M280.828 5498.8L280.828 5436.3M280.828 5498.8L327.573 5498.8M280.828 5498.8L234.083 5498.8M0.35707 5436.3L0.357071 5498.8L47.1022 5498.8M0.35707 5436.3L93.8474 5436.3M93.8474 5436.3L187.338 5436.3M187.338 5436.3L280.828 5436.3M280.828 5436.3L374.318 5436.3M374.318 5436.3L374.318 5498.8L327.573 5498.8M47.1022 5498.8L47.1022 5373.8M47.1022 5373.8L47.1022 5248.8M47.1022 5248.8L47.1022 5123.8M47.1022 5123.8L47.1022 4998.8M47.1022 4998.8L0.357064 4998.8L0.357065 5061.3M140.593 5498.8L140.593 5373.8M140.593 5373.8L140.593 5248.8M93.8474 5311.3L187.338 5311.3M93.8474 5311.3L0.357068 5311.3M280.828 5311.3L234.083 5311.3M280.828 5311.3L327.573 5311.3M374.318 5311.3L327.573 5311.3M374.318 5186.3L327.573 5186.3M280.828 5186.3L234.083 5186.3M280.828 5186.3L327.573 5186.3M187.338 5311.3L187.338 5248.8L187.338 5186.3M187.338 5311.3L234.083 5311.3M187.338 5186.3L93.8474 5186.3M187.338 5186.3L234.083 5186.3M93.8474 5186.3L0.357066 5186.3M0.357065 5061.3L93.8474 5061.3M93.8474 5061.3L187.338 5061.3M187.338 5061.3L234.083 5061.3M280.828 5061.3L234.083 5061.3M280.828 5061.3L327.573 5061.3M374.318 5061.3L374.318 4998.8L327.573 4998.8M374.318 5061.3L327.573 5061.3M327.573 4998.8L327.573 5061.3M327.573 5123.8L327.573 5186.3M327.573 5123.8L327.573 5061.3M327.573 5248.8L327.573 5311.3M327.573 5248.8L327.573 5186.3M327.573 5373.8L327.573 5498.8M327.573 5373.8L327.573 5311.3M140.593 5123.8L140.593 5248.8M140.593 5123.8L140.593 4998.8M140.593 5248.8L234.083 5248.8M234.083 4998.8L234.083 5061.3M234.083 5061.3L234.083 5123.8M234.083 5123.8L234.083 5186.3M234.083 5248.8L234.083 5311.3M234.083 5248.8L234.083 5186.3M234.083 5373.8L234.083 5498.8M234.083 5373.8L234.083 5311.3" stroke="white" stroke-opacity="0.02" stroke-width="0.5"/>
<path d="M0.356976 5748.8L47.1022 5748.8M0.356976 5748.8L0.356977 5811.3M0.356976 5748.8L0.356975 5686.3M374.318 5748.8L374.318 5811.3M374.318 5748.8L374.318 5686.3M374.318 5748.8L327.573 5748.8M187.338 5998.8L187.338 5936.3M187.338 5998.8L140.593 5998.8M187.338 5998.8L234.083 5998.8M187.338 5498.8L187.338 5561.3M187.338 5498.8L140.593 5498.8M187.338 5498.8L234.083 5498.8M0.356978 5873.8L0.356978 5936.3M0.356978 5873.8L47.1022 5873.8M0.356978 5873.8L0.356977 5811.3M187.338 5873.8L187.338 5936.3M187.338 5873.8L140.593 5873.8M187.338 5873.8L187.338 5811.3M187.338 5873.8L234.083 5873.8M374.318 5873.8L374.318 5936.3M374.318 5873.8L374.318 5811.3M374.318 5873.8L327.573 5873.8M0.356974 5623.8L47.1021 5623.8M0.356974 5623.8L0.356975 5686.3M0.356974 5623.8L0.356973 5561.3M187.338 5623.8L187.338 5686.3M187.338 5623.8L187.338 5561.3M187.338 5623.8L140.593 5623.8M187.338 5623.8L234.083 5623.8M374.318 5623.8L374.318 5686.3M374.318 5623.8L374.318 5561.3M374.318 5623.8L327.573 5623.8M93.8473 5998.8L93.8473 5936.3M93.8473 5998.8L47.1022 5998.8M93.8473 5998.8L140.593 5998.8M93.8473 5873.8L93.8473 5936.3M93.8473 5873.8L47.1022 5873.8M93.8473 5873.8L140.593 5873.8M93.8473 5873.8L93.8473 5811.3M93.8473 5748.8L47.1022 5748.8M93.8473 5748.8L93.8473 5811.3M93.8473 5748.8L93.8473 5686.3M93.8473 5748.8L140.593 5748.8M93.8473 5623.8L47.1021 5623.8M93.8473 5623.8L93.8473 5686.3M93.8473 5623.8L93.8473 5561.3M93.8473 5623.8L140.593 5623.8M93.8473 5498.8L47.1021 5498.8M93.8473 5498.8L93.8473 5561.3M93.8473 5498.8L140.593 5498.8M280.828 5498.8L280.828 5561.3M280.828 5498.8L327.573 5498.8M280.828 5498.8L234.083 5498.8M280.828 5623.8L280.828 5686.3M280.828 5623.8L280.828 5561.3M280.828 5623.8L327.573 5623.8M280.828 5623.8L234.083 5623.8M280.828 5748.8L280.828 5811.3M280.828 5748.8L280.828 5686.3M280.828 5748.8L327.573 5748.8M280.828 5748.8L234.083 5748.8M280.828 5873.8L280.828 5936.3M280.828 5873.8L280.828 5811.3M280.828 5873.8L327.573 5873.8M280.828 5873.8L234.083 5873.8M280.828 5998.8L280.828 5936.3M280.828 5998.8L327.573 5998.8M280.828 5998.8L234.083 5998.8M0.356978 5936.3L0.356979 5998.8L47.1022 5998.8M0.356978 5936.3L93.8473 5936.3M93.8473 5936.3L187.338 5936.3M187.338 5936.3L280.828 5936.3M280.828 5936.3L374.318 5936.3M374.318 5936.3L374.318 5998.8L327.573 5998.8M47.1022 5998.8L47.1022 5873.8M47.1022 5873.8L47.1022 5748.8M47.1022 5748.8L47.1021 5623.8M47.1021 5623.8L47.1021 5498.8M47.1021 5498.8L0.356972 5498.8L0.356973 5561.3M140.593 5998.8L140.593 5873.8M140.593 5873.8L140.593 5748.8M93.8473 5811.3L187.338 5811.3M93.8473 5811.3L0.356977 5811.3M280.828 5811.3L234.083 5811.3M280.828 5811.3L327.573 5811.3M374.318 5811.3L327.573 5811.3M374.318 5686.3L327.573 5686.3M280.828 5686.3L234.083 5686.3M280.828 5686.3L327.573 5686.3M187.338 5811.3L187.338 5748.8L187.338 5686.3M187.338 5811.3L234.083 5811.3M187.338 5686.3L93.8473 5686.3M187.338 5686.3L234.083 5686.3M93.8473 5686.3L0.356975 5686.3M0.356973 5561.3L93.8473 5561.3M93.8473 5561.3L187.338 5561.3M187.338 5561.3L234.083 5561.3M280.828 5561.3L234.083 5561.3M280.828 5561.3L327.573 5561.3M374.318 5561.3L374.318 5498.8L327.573 5498.8M374.318 5561.3L327.573 5561.3M327.573 5498.8L327.573 5561.3M327.573 5623.8L327.573 5686.3M327.573 5623.8L327.573 5561.3M327.573 5748.8L327.573 5811.3M327.573 5748.8L327.573 5686.3M327.573 5873.8L327.573 5998.8M327.573 5873.8L327.573 5811.3M140.593 5623.8L140.593 5748.8M140.593 5623.8L140.593 5498.8M140.593 5748.8L234.083 5748.8M234.083 5498.8L234.083 5561.3M234.083 5561.3L234.083 5623.8M234.083 5623.8L234.083 5686.3M234.083 5748.8L234.083 5811.3M234.083 5748.8L234.083 5686.3M234.083 5873.8L234.083 5998.8M234.083 5873.8L234.083 5811.3" stroke="white" stroke-opacity="0.02" stroke-width="0.5"/>
<path d="M0.357022 6248.8L47.1022 6248.8M0.357022 6248.8L0.357022 6311.3M0.357022 6248.8L0.357021 6186.3M374.318 6248.8L374.318 6311.3M374.318 6248.8L374.318 6186.3M374.318 6248.8L327.573 6248.8M187.338 6498.8L187.338 6436.3M187.338 6498.8L140.593 6498.8M187.338 6498.8L234.083 6498.8M187.338 5998.8L187.338 6061.3M187.338 5998.8L140.593 5998.8M187.338 5998.8L234.083 5998.8M0.357023 6373.8L0.357024 6436.3M0.357023 6373.8L47.1022 6373.8M0.357023 6373.8L0.357022 6311.3M187.338 6373.8L187.338 6436.3M187.338 6373.8L140.593 6373.8M187.338 6373.8L187.338 6311.3M187.338 6373.8L234.083 6373.8M374.318 6373.8L374.318 6436.3M374.318 6373.8L374.318 6311.3M374.318 6373.8L327.573 6373.8M0.35702 6123.8L47.1022 6123.8M0.35702 6123.8L0.357021 6186.3M0.35702 6123.8L0.357019 6061.3M187.338 6123.8L187.338 6186.3M187.338 6123.8L187.338 6061.3M187.338 6123.8L140.593 6123.8M187.338 6123.8L234.083 6123.8M374.318 6123.8L374.318 6186.3M374.318 6123.8L374.318 6061.3M374.318 6123.8L327.573 6123.8M93.8474 6498.8L93.8474 6436.3M93.8474 6498.8L47.1022 6498.8M93.8474 6498.8L140.593 6498.8M93.8474 6373.8L93.8474 6436.3M93.8474 6373.8L47.1022 6373.8M93.8474 6373.8L140.593 6373.8M93.8474 6373.8L93.8474 6311.3M93.8474 6248.8L47.1022 6248.8M93.8474 6248.8L93.8474 6311.3M93.8474 6248.8L93.8474 6186.3M93.8474 6248.8L140.593 6248.8M93.8474 6123.8L47.1022 6123.8M93.8474 6123.8L93.8474 6186.3M93.8474 6123.8L93.8474 6061.3M93.8474 6123.8L140.593 6123.8M93.8474 5998.8L47.1022 5998.8M93.8474 5998.8L93.8474 6061.3M93.8474 5998.8L140.593 5998.8M280.828 5998.8L280.828 6061.3M280.828 5998.8L327.573 5998.8M280.828 5998.8L234.083 5998.8M280.828 6123.8L280.828 6186.3M280.828 6123.8L280.828 6061.3M280.828 6123.8L327.573 6123.8M280.828 6123.8L234.083 6123.8M280.828 6248.8L280.828 6311.3M280.828 6248.8L280.828 6186.3M280.828 6248.8L327.573 6248.8M280.828 6248.8L234.083 6248.8M280.828 6373.8L280.828 6436.3M280.828 6373.8L280.828 6311.3M280.828 6373.8L327.573 6373.8M280.828 6373.8L234.083 6373.8M280.828 6498.8L280.828 6436.3M280.828 6498.8L327.573 6498.8M280.828 6498.8L234.083 6498.8M0.357024 6436.3L0.357025 6498.8L47.1022 6498.8M0.357024 6436.3L93.8474 6436.3M93.8474 6436.3L187.338 6436.3M187.338 6436.3L280.828 6436.3M280.828 6436.3L374.318 6436.3M374.318 6436.3L374.318 6498.8L327.573 6498.8M47.1022 6498.8L47.1022 6373.8M47.1022 6373.8L47.1022 6248.8M47.1022 6248.8L47.1022 6123.8M47.1022 6123.8L47.1022 5998.8M47.1022 5998.8L0.357018 5998.8L0.357019 6061.3M140.593 6498.8L140.593 6373.8M140.593 6373.8L140.593 6248.8M93.8474 6311.3L187.338 6311.3M93.8474 6311.3L0.357022 6311.3M280.828 6311.3L234.083 6311.3M280.828 6311.3L327.573 6311.3M374.318 6311.3L327.573 6311.3M374.318 6186.3L327.573 6186.3M280.828 6186.3L234.083 6186.3M280.828 6186.3L327.573 6186.3M187.338 6311.3L187.338 6248.8L187.338 6186.3M187.338 6311.3L234.083 6311.3M187.338 6186.3L93.8474 6186.3M187.338 6186.3L234.083 6186.3M93.8474 6186.3L0.357021 6186.3M0.357019 6061.3L93.8474 6061.3M93.8474 6061.3L187.338 6061.3M187.338 6061.3L234.083 6061.3M280.828 6061.3L234.083 6061.3M280.828 6061.3L327.573 6061.3M374.318 6061.3L374.318 5998.8L327.573 5998.8M374.318 6061.3L327.573 6061.3M327.573 5998.8L327.573 6061.3M327.573 6123.8L327.573 6186.3M327.573 6123.8L327.573 6061.3M327.573 6248.8L327.573 6311.3M327.573 6248.8L327.573 6186.3M327.573 6373.8L327.573 6498.8M327.573 6373.8L327.573 6311.3M140.593 6123.8L140.593 6248.8M140.593 6123.8L140.593 5998.8M140.593 6248.8L234.083 6248.8M234.083 5998.8L234.083 6061.3M234.083 6061.3L234.083 6123.8M234.083 6123.8L234.083 6186.3M234.083 6248.8L234.083 6311.3M234.083 6248.8L234.083 6186.3M234.083 6373.8L234.083 6498.8M234.083 6373.8L234.083 6311.3" stroke="white" stroke-opacity="0.02" stroke-width="0.5"/>
<path d="M0.357006 6748.8L47.1022 6748.8M0.357006 6748.8L0.357007 6811.3M0.357006 6748.8L0.357005 6686.3M374.318 6748.8L374.318 6811.3M374.318 6748.8L374.318 6686.3M374.318 6748.8L327.573 6748.8M187.338 6998.8L187.338 6936.3M187.338 6998.8L140.593 6998.8M187.338 6998.8L234.083 6998.8M187.338 6498.8L187.338 6561.3M187.338 6498.8L140.593 6498.8M187.338 6498.8L234.083 6498.8M0.357008 6873.8L0.357009 6936.3M0.357008 6873.8L47.1022 6873.8M0.357008 6873.8L0.357007 6811.3M187.338 6873.8L187.338 6936.3M187.338 6873.8L140.593 6873.8M187.338 6873.8L187.338 6811.3M187.338 6873.8L234.083 6873.8M374.318 6873.8L374.318 6936.3M374.318 6873.8L374.318 6811.3M374.318 6873.8L327.573 6873.8M0.357004 6623.8L47.1022 6623.8M0.357004 6623.8L0.357005 6686.3M0.357004 6623.8L0.357004 6561.3M187.338 6623.8L187.338 6686.3M187.338 6623.8L187.338 6561.3M187.338 6623.8L140.593 6623.8M187.338 6623.8L234.083 6623.8M374.318 6623.8L374.318 6686.3M374.318 6623.8L374.318 6561.3M374.318 6623.8L327.573 6623.8M93.8474 6998.8L93.8474 6936.3M93.8474 6998.8L47.1022 6998.8M93.8474 6998.8L140.593 6998.8M93.8474 6873.8L93.8474 6936.3M93.8474 6873.8L47.1022 6873.8M93.8474 6873.8L140.593 6873.8M93.8474 6873.8L93.8474 6811.3M93.8474 6748.8L47.1022 6748.8M93.8474 6748.8L93.8474 6811.3M93.8474 6748.8L93.8474 6686.3M93.8474 6748.8L140.593 6748.8M93.8474 6623.8L47.1022 6623.8M93.8474 6623.8L93.8474 6686.3M93.8474 6623.8L93.8474 6561.3M93.8474 6623.8L140.593 6623.8M93.8474 6498.8L47.1022 6498.8M93.8474 6498.8L93.8474 6561.3M93.8474 6498.8L140.593 6498.8M280.828 6498.8L280.828 6561.3M280.828 6498.8L327.573 6498.8M280.828 6498.8L234.083 6498.8M280.828 6623.8L280.828 6686.3M280.828 6623.8L280.828 6561.3M280.828 6623.8L327.573 6623.8M280.828 6623.8L234.083 6623.8M280.828 6748.8L280.828 6811.3M280.828 6748.8L280.828 6686.3M280.828 6748.8L327.573 6748.8M280.828 6748.8L234.083 6748.8M280.828 6873.8L280.828 6936.3M280.828 6873.8L280.828 6811.3M280.828 6873.8L327.573 6873.8M280.828 6873.8L234.083 6873.8M280.828 6998.8L280.828 6936.3M280.828 6998.8L327.573 6998.8M280.828 6998.8L234.083 6998.8M0.357009 6936.3L0.35701 6998.8L47.1022 6998.8M0.357009 6936.3L93.8474 6936.3M93.8474 6936.3L187.338 6936.3M187.338 6936.3L280.828 6936.3M280.828 6936.3L374.318 6936.3M374.318 6936.3L374.318 6998.8L327.573 6998.8M47.1022 6998.8L47.1022 6873.8M47.1022 6873.8L47.1022 6748.8M47.1022 6748.8L47.1022 6623.8M47.1022 6623.8L47.1022 6498.8M47.1022 6498.8L0.357003 6498.8L0.357004 6561.3M140.593 6998.8L140.593 6873.8M140.593 6873.8L140.593 6748.8M93.8474 6811.3L187.338 6811.3M93.8474 6811.3L0.357007 6811.3M280.828 6811.3L234.083 6811.3M280.828 6811.3L327.573 6811.3M374.318 6811.3L327.573 6811.3M374.318 6686.3L327.573 6686.3M280.828 6686.3L234.083 6686.3M280.828 6686.3L327.573 6686.3M187.338 6811.3L187.338 6748.8L187.338 6686.3M187.338 6811.3L234.083 6811.3M187.338 6686.3L93.8474 6686.3M187.338 6686.3L234.083 6686.3M93.8474 6686.3L0.357005 6686.3M0.357004 6561.3L93.8474 6561.3M93.8474 6561.3L187.338 6561.3M187.338 6561.3L234.083 6561.3M280.828 6561.3L234.083 6561.3M280.828 6561.3L327.573 6561.3M374.318 6561.3L374.318 6498.8L327.573 6498.8M374.318 6561.3L327.573 6561.3M327.573 6498.8L327.573 6561.3M327.573 6623.8L327.573 6686.3M327.573 6623.8L327.573 6561.3M327.573 6748.8L327.573 6811.3M327.573 6748.8L327.573 6686.3M327.573 6873.8L327.573 6998.8M327.573 6873.8L327.573 6811.3M140.593 6623.8L140.593 6748.8M140.593 6623.8L140.593 6498.8M140.593 6748.8L234.083 6748.8M234.083 6498.8L234.083 6561.3M234.083 6561.3L234.083 6623.8M234.083 6623.8L234.083 6686.3M234.083 6748.8L234.083 6811.3M234.083 6748.8L234.083 6686.3M234.083 6873.8L234.083 6998.8M234.083 6873.8L234.083 6811.3" stroke="white" stroke-opacity="0.02" stroke-width="0.5"/>
<path d="M0.357006 7248.8L47.1022 7248.8M0.357006 7248.8L0.357007 7311.3M0.357006 7248.8L0.357005 7186.3M374.318 7248.8L374.318 7311.3M374.318 7248.8L374.318 7186.3M374.318 7248.8L327.573 7248.8M187.338 7498.8L187.338 7436.3M187.338 7498.8L140.593 7498.8M187.338 7498.8L234.083 7498.8M187.338 6998.8L187.338 7061.3M187.338 6998.8L140.593 6998.8M187.338 6998.8L234.083 6998.8M0.357008 7373.8L0.357009 7436.3M0.357008 7373.8L47.1022 7373.8M0.357008 7373.8L0.357007 7311.3M187.338 7373.8L187.338 7436.3M187.338 7373.8L140.593 7373.8M187.338 7373.8L187.338 7311.3M187.338 7373.8L234.083 7373.8M374.318 7373.8L374.318 7436.3M374.318 7373.8L374.318 7311.3M374.318 7373.8L327.573 7373.8M0.357004 7123.8L47.1022 7123.8M0.357004 7123.8L0.357005 7186.3M0.357004 7123.8L0.357004 7061.3M187.338 7123.8L187.338 7186.3M187.338 7123.8L187.338 7061.3M187.338 7123.8L140.593 7123.8M187.338 7123.8L234.083 7123.8M374.318 7123.8L374.318 7186.3M374.318 7123.8L374.318 7061.3M374.318 7123.8L327.573 7123.8M93.8474 7498.8L93.8474 7436.3M93.8474 7498.8L47.1022 7498.8M93.8474 7498.8L140.593 7498.8M93.8474 7373.8L93.8474 7436.3M93.8474 7373.8L47.1022 7373.8M93.8474 7373.8L140.593 7373.8M93.8474 7373.8L93.8474 7311.3M93.8474 7248.8L47.1022 7248.8M93.8474 7248.8L93.8474 7311.3M93.8474 7248.8L93.8474 7186.3M93.8474 7248.8L140.593 7248.8M93.8474 7123.8L47.1022 7123.8M93.8474 7123.8L93.8474 7186.3M93.8474 7123.8L93.8474 7061.3M93.8474 7123.8L140.593 7123.8M93.8474 6998.8L47.1022 6998.8M93.8474 6998.8L93.8474 7061.3M93.8474 6998.8L140.593 6998.8M280.828 6998.8L280.828 7061.3M280.828 6998.8L327.573 6998.8M280.828 6998.8L234.083 6998.8M280.828 7123.8L280.828 7186.3M280.828 7123.8L280.828 7061.3M280.828 7123.8L327.573 7123.8M280.828 7123.8L234.083 7123.8M280.828 7248.8L280.828 7311.3M280.828 7248.8L280.828 7186.3M280.828 7248.8L327.573 7248.8M280.828 7248.8L234.083 7248.8M280.828 7373.8L280.828 7436.3M280.828 7373.8L280.828 7311.3M280.828 7373.8L327.573 7373.8M280.828 7373.8L234.083 7373.8M280.828 7498.8L280.828 7436.3M280.828 7498.8L327.573 7498.8M280.828 7498.8L234.083 7498.8M0.357009 7436.3L0.35701 7498.8L47.1022 7498.8M0.357009 7436.3L93.8474 7436.3M93.8474 7436.3L187.338 7436.3M187.338 7436.3L280.828 7436.3M280.828 7436.3L374.318 7436.3M374.318 7436.3L374.318 7498.8L327.573 7498.8M47.1022 7498.8L47.1022 7373.8M47.1022 7373.8L47.1022 7248.8M47.1022 7248.8L47.1022 7123.8M47.1022 7123.8L47.1022 6998.8M47.1022 6998.8L0.357003 6998.8L0.357004 7061.3M140.593 7498.8L140.593 7373.8M140.593 7373.8L140.593 7248.8M93.8474 7311.3L187.338 7311.3M93.8474 7311.3L0.357007 7311.3M280.828 7311.3L234.083 7311.3M280.828 7311.3L327.573 7311.3M374.318 7311.3L327.573 7311.3M374.318 7186.3L327.573 7186.3M280.828 7186.3L234.083 7186.3M280.828 7186.3L327.573 7186.3M187.338 7311.3L187.338 7248.8L187.338 7186.3M187.338 7311.3L234.083 7311.3M187.338 7186.3L93.8474 7186.3M187.338 7186.3L234.083 7186.3M93.8474 7186.3L0.357005 7186.3M0.357004 7061.3L93.8474 7061.3M93.8474 7061.3L187.338 7061.3M187.338 7061.3L234.083 7061.3M280.828 7061.3L234.083 7061.3M280.828 7061.3L327.573 7061.3M374.318 7061.3L374.318 6998.8L327.573 6998.8M374.318 7061.3L327.573 7061.3M327.573 6998.8L327.573 7061.3M327.573 7123.8L327.573 7186.3M327.573 7123.8L327.573 7061.3M327.573 7248.8L327.573 7311.3M327.573 7248.8L327.573 7186.3M327.573 7373.8L327.573 7498.8M327.573 7373.8L327.573 7311.3M140.593 7123.8L140.593 7248.8M140.593 7123.8L140.593 6998.8M140.593 7248.8L234.083 7248.8M234.083 6998.8L234.083 7061.3M234.083 7061.3L234.083 7123.8M234.083 7123.8L234.083 7186.3M234.083 7248.8L234.083 7311.3M234.083 7248.8L234.083 7186.3M234.083 7373.8L234.083 7498.8M234.083 7373.8L234.083 7311.3" stroke="white" stroke-opacity="0.02" stroke-width="0.5"/>
<path d="M0.357006 7748.8L47.1022 7748.8M0.357006 7748.8L0.357007 7811.3M0.357006 7748.8L0.357005 7686.3M374.318 7748.8L374.318 7811.3M374.318 7748.8L374.318 7686.3M374.318 7748.8L327.573 7748.8M187.338 7998.8L187.338 7936.3M187.338 7998.8L140.593 7998.8M187.338 7998.8L234.083 7998.8M187.338 7498.8L187.338 7561.3M187.338 7498.8L140.593 7498.8M187.338 7498.8L234.083 7498.8M0.357008 7873.8L0.357009 7936.3M0.357008 7873.8L47.1022 7873.8M0.357008 7873.8L0.357007 7811.3M187.338 7873.8L187.338 7936.3M187.338 7873.8L140.593 7873.8M187.338 7873.8L187.338 7811.3M187.338 7873.8L234.083 7873.8M374.318 7873.8L374.318 7936.3M374.318 7873.8L374.318 7811.3M374.318 7873.8L327.573 7873.8M0.357004 7623.8L47.1022 7623.8M0.357004 7623.8L0.357005 7686.3M0.357004 7623.8L0.357004 7561.3M187.338 7623.8L187.338 7686.3M187.338 7623.8L187.338 7561.3M187.338 7623.8L140.593 7623.8M187.338 7623.8L234.083 7623.8M374.318 7623.8L374.318 7686.3M374.318 7623.8L374.318 7561.3M374.318 7623.8L327.573 7623.8M93.8474 7998.8L93.8474 7936.3M93.8474 7998.8L47.1022 7998.8M93.8474 7998.8L140.593 7998.8M93.8474 7873.8L93.8474 7936.3M93.8474 7873.8L47.1022 7873.8M93.8474 7873.8L140.593 7873.8M93.8474 7873.8L93.8474 7811.3M93.8474 7748.8L47.1022 7748.8M93.8474 7748.8L93.8474 7811.3M93.8474 7748.8L93.8474 7686.3M93.8474 7748.8L140.593 7748.8M93.8474 7623.8L47.1022 7623.8M93.8474 7623.8L93.8474 7686.3M93.8474 7623.8L93.8474 7561.3M93.8474 7623.8L140.593 7623.8M93.8474 7498.8L47.1022 7498.8M93.8474 7498.8L93.8474 7561.3M93.8474 7498.8L140.593 7498.8M280.828 7498.8L280.828 7561.3M280.828 7498.8L327.573 7498.8M280.828 7498.8L234.083 7498.8M280.828 7623.8L280.828 7686.3M280.828 7623.8L280.828 7561.3M280.828 7623.8L327.573 7623.8M280.828 7623.8L234.083 7623.8M280.828 7748.8L280.828 7811.3M280.828 7748.8L280.828 7686.3M280.828 7748.8L327.573 7748.8M280.828 7748.8L234.083 7748.8M280.828 7873.8L280.828 7936.3M280.828 7873.8L280.828 7811.3M280.828 7873.8L327.573 7873.8M280.828 7873.8L234.083 7873.8M280.828 7998.8L280.828 7936.3M280.828 7998.8L327.573 7998.8M280.828 7998.8L234.083 7998.8M0.357009 7936.3L0.35701 7998.8L47.1022 7998.8M0.357009 7936.3L93.8474 7936.3M93.8474 7936.3L187.338 7936.3M187.338 7936.3L280.828 7936.3M280.828 7936.3L374.318 7936.3M374.318 7936.3L374.318 7998.8L327.573 7998.8M47.1022 7998.8L47.1022 7873.8M47.1022 7873.8L47.1022 7748.8M47.1022 7748.8L47.1022 7623.8M47.1022 7623.8L47.1022 7498.8M47.1022 7498.8L0.357003 7498.8L0.357004 7561.3M140.593 7998.8L140.593 7873.8M140.593 7873.8L140.593 7748.8M93.8474 7811.3L187.338 7811.3M93.8474 7811.3L0.357007 7811.3M280.828 7811.3L234.083 7811.3M280.828 7811.3L327.573 7811.3M374.318 7811.3L327.573 7811.3M374.318 7686.3L327.573 7686.3M280.828 7686.3L234.083 7686.3M280.828 7686.3L327.573 7686.3M187.338 7811.3L187.338 7748.8L187.338 7686.3M187.338 7811.3L234.083 7811.3M187.338 7686.3L93.8474 7686.3M187.338 7686.3L234.083 7686.3M93.8474 7686.3L0.357005 7686.3M0.357004 7561.3L93.8474 7561.3M93.8474 7561.3L187.338 7561.3M187.338 7561.3L234.083 7561.3M280.828 7561.3L234.083 7561.3M280.828 7561.3L327.573 7561.3M374.318 7561.3L374.318 7498.8L327.573 7498.8M374.318 7561.3L327.573 7561.3M327.573 7498.8L327.573 7561.3M327.573 7623.8L327.573 7686.3M327.573 7623.8L327.573 7561.3M327.573 7748.8L327.573 7811.3M327.573 7748.8L327.573 7686.3M327.573 7873.8L327.573 7998.8M327.573 7873.8L327.573 7811.3M140.593 7623.8L140.593 7748.8M140.593 7623.8L140.593 7498.8M140.593 7748.8L234.083 7748.8M234.083 7498.8L234.083 7561.3M234.083 7561.3L234.083 7623.8M234.083 7623.8L234.083 7686.3M234.083 7748.8L234.083 7811.3M234.083 7748.8L234.083 7686.3M234.083 7873.8L234.083 7998.8M234.083 7873.8L234.083 7811.3" stroke="white" stroke-opacity="0.02" stroke-width="0.5"/>
<path d="M187.338 7998.8L187.338 8061.3M187.338 7998.8L140.593 7998.8M187.338 7998.8L234.083 7998.8M0.357009 8123.8L47.1022 8123.8M0.357009 8123.8L0.35701 8186.3L47.1022 8186.3M0.357009 8123.8L0.357008 8061.3M187.338 8123.8L187.338 8186.3M187.338 8123.8L187.338 8061.3M187.338 8123.8L140.593 8123.8M187.338 8123.8L234.083 8123.8M374.318 8123.8L374.318 8186.3L327.573 8186.3M374.318 8123.8L374.318 8061.3M374.318 8123.8L327.573 8123.8M93.8474 8123.8L47.1022 8123.8M93.8474 8123.8L93.8474 8186.3M93.8474 8123.8L93.8474 8061.3M93.8474 8123.8L140.593 8123.8M93.8474 7998.8L47.1022 7998.8M93.8474 7998.8L93.8474 8061.3M93.8474 7998.8L140.593 7998.8M280.828 7998.8L280.828 8061.3M280.828 7998.8L327.573 7998.8M280.828 7998.8L234.083 7998.8M280.828 8123.8L280.828 8186.3M280.828 8123.8L280.828 8061.3M280.828 8123.8L327.573 8123.8M280.828 8123.8L234.083 8123.8M47.1022 8123.8L47.1022 7998.8M47.1022 8123.8L47.1022 8186.3M47.1022 7998.8L0.357007 7998.8L0.357008 8061.3M280.828 8186.3L234.083 8186.3M280.828 8186.3L327.573 8186.3M187.338 8186.3L234.083 8186.3M187.338 8186.3L140.593 8186.3M93.8474 8186.3L47.1022 8186.3M93.8474 8186.3L140.593 8186.3M0.357008 8061.3L93.8474 8061.3M93.8474 8061.3L187.338 8061.3M187.338 8061.3L234.083 8061.3M280.828 8061.3L234.083 8061.3M280.828 8061.3L327.573 8061.3M374.318 8061.3L374.318 7998.8L327.573 7998.8M374.318 8061.3L327.573 8061.3M327.573 7998.8L327.573 8061.3M327.573 8123.8L327.573 8186.3M327.573 8123.8L327.573 8061.3M140.593 8123.8L140.593 7998.8M140.593 8123.8L140.593 8186.3M234.083 7998.8L234.083 8061.3M234.083 8061.3L234.083 8123.8M234.083 8123.8L234.083 8186.3" stroke="white" stroke-opacity="0.02" stroke-width="0.5"/>
<rect x="73.2466" y="8154.65" width="32.6397" height="28.0098" fill="#D9D9D9"/>
<g filter="url(#filter0_d_255_159)">
<path d="M337.692 175.926C336.35 182.355 332.439 187.377 327.432 189.099L149.141 250.443C144.134 252.166 138.791 250.327 135.126 245.621L4.60698 78.0276C0.941605 73.3211 -0.489875 66.4611 0.851745 60.0319L13.2942 0.405518L374.318 0.405522L337.692 175.926Z" fill="url(#paint0_linear_255_159)"/>
<path d="M12.57 3.87629C12.8403 3.9327 13.1052 3.75929 13.1616 3.48897L13.7007 0.905518L16.3028 0.905518C16.579 0.905518 16.8028 0.68166 16.8028 0.405518H21.8199C21.8199 0.68166 22.0437 0.905518 22.3199 0.905518L28.337 0.905518C28.6131 0.905518 28.837 0.68166 28.837 0.405518H33.854C33.854 0.68166 34.0779 0.905518 34.354 0.905518L40.3711 0.905518C40.6472 0.905518 40.8711 0.68166 40.8711 0.405518H45.8881C45.8881 0.68166 46.112 0.905518 46.3881 0.905518L52.4052 0.905518C52.6813 0.905518 52.9052 0.681661 52.9052 0.405518H57.9222C57.9222 0.681661 58.1461 0.905518 58.4222 0.905518L64.4393 0.905518C64.7154 0.905518 64.9393 0.681661 64.9393 0.405518H69.9564C69.9564 0.681661 70.1802 0.905518 70.4564 0.905518L76.4734 0.905518C76.7496 0.905518 76.9734 0.681661 76.9734 0.405518H81.9905C81.9905 0.681661 82.2143 0.905519 82.4905 0.905519L88.5075 0.905519C88.7837 0.905519 89.0075 0.681661 89.0075 0.405518H94.0246C94.0246 0.681661 94.2485 0.905519 94.5246 0.905519L100.542 0.905519C100.818 0.905519 101.042 0.681661 101.042 0.405518H106.059C106.059 0.681661 106.283 0.905519 106.559 0.905519L112.576 0.905519C112.852 0.905519 113.076 0.681661 113.076 0.405518H118.093C118.093 0.681661 118.317 0.905519 118.593 0.905519L124.61 0.905519C124.886 0.905519 125.11 0.681661 125.11 0.405518H130.127C130.127 0.681662 130.351 0.905519 130.627 0.905519L136.644 0.905519C136.92 0.905519 137.144 0.681662 137.144 0.405518H142.161C142.161 0.681662 142.385 0.905519 142.661 0.905519L148.678 0.905519C148.954 0.905519 149.178 0.681662 149.178 0.405518L154.195 0.405519C154.195 0.681662 154.419 0.905519 154.695 0.905519L160.712 0.90552C160.989 0.90552 161.212 0.681662 161.212 0.40552L166.229 0.40552C166.229 0.681662 166.453 0.90552 166.729 0.90552L172.747 0.90552C173.023 0.90552 173.247 0.681662 173.247 0.40552L178.264 0.40552C178.264 0.681662 178.487 0.90552 178.764 0.90552L184.781 0.90552C185.057 0.90552 185.281 0.681662 185.281 0.40552L190.298 0.40552C190.298 0.681662 190.522 0.90552 190.798 0.90552L196.815 0.90552C197.091 0.90552 197.315 0.681662 197.315 0.40552L202.332 0.40552C202.332 0.681663 202.556 0.90552 202.832 0.90552L208.849 0.90552C209.125 0.90552 209.349 0.681663 209.349 0.40552L214.366 0.40552C214.366 0.681663 214.59 0.90552 214.866 0.90552L220.883 0.90552C221.159 0.90552 221.383 0.681663 221.383 0.40552L226.4 0.40552C226.4 0.681663 226.624 0.90552 226.9 0.90552L232.917 0.905521C233.193 0.905521 233.417 0.681663 233.417 0.405521L238.434 0.405521C238.434 0.681663 238.658 0.905521 238.934 0.905521L244.951 0.905521C245.228 0.905521 245.451 0.681663 245.451 0.405521L250.469 0.405521C250.469 0.681663 250.692 0.905521 250.969 0.905521L256.986 0.905521C257.262 0.905521 257.486 0.681663 257.486 0.405521L262.503 0.405521C262.503 0.681663 262.727 0.905521 263.003 0.905521L269.02 0.905521C269.296 0.905521 269.52 0.681663 269.52 0.405521L274.537 0.405521C274.537 0.681664 274.761 0.905521 275.037 0.905521L281.054 0.905521C281.33 0.905521 281.554 0.681664 281.554 0.405521L286.571 0.405521C286.571 0.681664 286.795 0.905521 287.071 0.905521L293.088 0.905521C293.364 0.905521 293.588 0.681664 293.588 0.405521L298.605 0.405521C298.605 0.681664 298.829 0.905521 299.105 0.905521L305.122 0.905522C305.398 0.905522 305.622 0.681664 305.622 0.405522L310.639 0.405522C310.639 0.681664 310.863 0.905522 311.139 0.905522L317.156 0.905522C317.432 0.905522 317.656 0.681664 317.656 0.405522L322.673 0.405522C322.673 0.681664 322.897 0.905522 323.173 0.905522L329.19 0.905522C329.467 0.905522 329.69 0.681664 329.69 0.405522L334.708 0.405522C334.708 0.681664 334.931 0.905522 335.208 0.905522L341.225 0.905522C341.501 0.905522 341.725 0.681664 341.725 0.405522L346.742 0.405522C346.742 0.681664 346.966 0.905522 347.242 0.905522L353.259 0.905522C353.535 0.905522 353.759 0.681665 353.759 0.405522L358.776 0.405522C358.776 0.681665 359 0.905522 359.276 0.905522L365.293 0.905522C365.569 0.905522 365.793 0.681665 365.793 0.405522L370.81 0.405522C370.81 0.681665 371.034 0.905522 371.31 0.905522L373.703 0.905523L373.219 3.22869C373.162 3.49901 373.336 3.76387 373.606 3.82028L372.589 8.69203C372.319 8.63563 372.054 8.80903 371.998 9.07935L370.777 14.93C370.72 15.2004 370.894 15.4652 371.164 15.5216L370.148 20.3934C369.877 20.337 369.612 20.5104 369.556 20.7807L368.335 26.6314C368.279 26.9017 368.452 27.1666 368.722 27.223L367.706 32.0947C367.435 32.0383 367.171 32.2117 367.114 32.4821L365.893 38.3327C365.837 38.6031 366.01 38.8679 366.281 38.9243L365.264 43.7961C364.994 43.7397 364.729 43.9131 364.672 44.1834L363.452 50.0341C363.395 50.3044 363.569 50.5693 363.839 50.6257L362.822 55.4974C362.552 55.441 362.287 55.6144 362.231 55.8848L361.01 61.7354C360.953 62.0057 361.127 62.2706 361.397 62.327L360.38 67.1988C360.11 67.1424 359.845 67.3158 359.789 67.5861L358.568 73.4368C358.512 73.7071 358.685 73.972 358.955 74.0284L357.939 78.9001C357.668 78.8437 357.404 79.0171 357.347 79.2875L356.126 85.1381C356.07 85.4084 356.243 85.6733 356.514 85.7297L355.497 90.6015C355.227 90.5451 354.962 90.7185 354.905 90.9888L353.684 96.8395C353.628 97.1098 353.801 97.3746 354.072 97.4311L353.055 102.303C352.785 102.246 352.52 102.42 352.464 102.69L351.243 108.541C351.186 108.811 351.36 109.076 351.63 109.132L350.613 114.004C350.343 113.948 350.078 114.121 350.022 114.391L348.801 120.242C348.745 120.512 348.918 120.777 349.188 120.834L348.172 125.706C347.901 125.649 347.636 125.823 347.58 126.093L346.359 131.944C346.303 132.214 346.476 132.479 346.746 132.535L345.73 137.407C345.46 137.35 345.195 137.524 345.138 137.794L343.917 143.645C343.861 143.915 344.034 144.18 344.305 144.236L343.288 149.108C343.018 149.052 342.753 149.225 342.697 149.496L341.476 155.346C341.419 155.617 341.593 155.881 341.863 155.938L340.846 160.81C340.576 160.753 340.311 160.927 340.255 161.197L339.034 167.048C338.977 167.318 339.151 167.583 339.421 167.639L338.405 172.511C338.134 172.454 337.869 172.628 337.813 172.898L337.203 175.824C336.903 177.258 336.474 178.619 335.931 179.885C335.823 180.137 335.939 180.428 336.188 180.539C335.055 183.016 333.491 185.122 331.624 186.692C331.453 186.48 331.143 186.445 330.928 186.613C329.801 187.497 328.572 188.179 327.27 188.627L324.484 189.585C324.223 189.675 324.084 189.959 324.174 190.221L319.548 191.812C319.458 191.551 319.173 191.412 318.912 191.502L313.341 193.419C313.08 193.509 312.941 193.793 313.031 194.055L308.405 195.646C308.315 195.385 308.03 195.246 307.769 195.336L302.197 197.253C301.936 197.343 301.798 197.627 301.887 197.889L297.261 199.48C297.171 199.219 296.887 199.08 296.626 199.17L291.054 201.087C290.793 201.177 290.654 201.461 290.744 201.723L286.118 203.314C286.028 203.053 285.744 202.914 285.483 203.004L279.911 204.921C279.65 205.011 279.511 205.295 279.601 205.556L274.975 207.148C274.885 206.887 274.6 206.748 274.339 206.838L268.768 208.755C268.507 208.845 268.368 209.129 268.458 209.39L263.832 210.982C263.742 210.721 263.457 210.582 263.196 210.672L257.624 212.589C257.363 212.679 257.225 212.963 257.314 213.224L252.688 214.816C252.598 214.555 252.314 214.416 252.053 214.506L246.481 216.423C246.22 216.513 246.081 216.797 246.171 217.058L241.545 218.65C241.455 218.389 241.171 218.25 240.91 218.34L235.338 220.257C235.077 220.347 234.938 220.631 235.028 220.892L230.402 222.484C230.312 222.223 230.027 222.084 229.766 222.174L224.195 224.091C223.934 224.181 223.795 224.465 223.885 224.726L219.259 226.318C219.169 226.057 218.884 225.918 218.623 226.008L213.051 227.925C212.79 228.015 212.652 228.299 212.741 228.56L208.115 230.152C208.025 229.891 207.741 229.752 207.48 229.842L201.908 231.759C201.647 231.849 201.508 232.133 201.598 232.394L196.972 233.986C196.882 233.725 196.598 233.586 196.337 233.676L190.765 235.593C190.504 235.683 190.365 235.967 190.455 236.228L185.829 237.82C185.739 237.559 185.454 237.42 185.193 237.51L179.622 239.427C179.361 239.517 179.222 239.801 179.312 240.062L174.686 241.654C174.596 241.393 174.311 241.254 174.05 241.344L168.479 243.261C168.217 243.35 168.079 243.635 168.168 243.896L163.542 245.488C163.453 245.227 163.168 245.088 162.907 245.178L157.335 247.095C157.074 247.184 156.935 247.469 157.025 247.73L152.399 249.322C152.309 249.061 152.025 248.922 151.764 249.012L148.978 249.97C147.744 250.395 146.491 250.593 145.252 250.577C144.979 250.574 144.755 250.789 144.746 251.06C142.494 250.932 140.292 250.132 138.32 248.72C138.483 248.502 138.44 248.193 138.224 248.026C137.255 247.279 136.345 246.373 135.52 245.314L133.708 242.986C133.538 242.768 133.224 242.729 133.006 242.899L129.995 239.032C130.213 238.863 130.252 238.549 130.082 238.331L126.456 233.675C126.287 233.457 125.973 233.418 125.755 233.588L122.744 229.722C122.962 229.552 123.001 229.238 122.831 229.02L119.205 224.365C119.036 224.147 118.722 224.108 118.504 224.277L115.493 220.411C115.71 220.241 115.75 219.927 115.58 219.709L111.954 215.054C111.785 214.836 111.471 214.797 111.253 214.967L108.242 211.1C108.459 210.93 108.499 210.616 108.329 210.398L104.703 205.743C104.534 205.525 104.219 205.486 104.002 205.656L100.991 201.789C101.208 201.62 101.247 201.306 101.078 201.088L97.4523 196.432C97.2826 196.214 96.9684 196.175 96.7506 196.345L93.7395 192.479C93.9573 192.309 93.9964 191.995 93.8267 191.777L90.2012 187.122C90.0315 186.904 89.7174 186.865 89.4995 187.034L86.4884 183.168C86.7063 182.998 86.7454 182.684 86.5757 182.466L82.9502 177.811C82.7805 177.593 82.4663 177.554 82.2485 177.724L79.2374 173.857C79.4552 173.687 79.4943 173.373 79.3246 173.155L75.6991 168.5C75.5295 168.282 75.2153 168.243 74.9974 168.413L71.9863 164.546C72.2042 164.377 72.2433 164.063 72.0736 163.845L68.4481 159.189C68.2784 158.971 67.9642 158.932 67.7464 159.102L64.7353 155.236C64.9532 155.066 64.9922 154.752 64.8226 154.534L61.197 149.879C61.0274 149.661 60.7132 149.622 60.4953 149.791L57.4842 145.925C57.7021 145.755 57.7412 145.441 57.5715 145.223L53.946 140.568C53.7763 140.35 53.4622 140.311 53.2443 140.481L50.2332 136.614C50.4511 136.445 50.4902 136.13 50.3205 135.913L46.695 131.257C46.5253 131.039 46.2111 131 45.9933 131.17L42.9822 127.303C43.2 127.134 43.2391 126.82 43.0694 126.602L39.4439 121.946C39.2742 121.729 38.9601 121.689 38.7422 121.859L35.7311 117.993C35.949 117.823 35.9881 117.509 35.8184 117.291L32.1929 112.636C32.0232 112.418 31.709 112.379 31.4912 112.548L28.4801 108.682C28.698 108.512 28.737 108.198 28.5674 107.98L24.9418 103.325C24.7722 103.107 24.458 103.068 24.2401 103.238L21.229 99.3713C21.4469 99.2016 21.486 98.8874 21.3163 98.6695L17.6908 94.0142C17.5211 93.7963 17.207 93.7572 16.9891 93.9269L13.978 90.0605C14.1959 89.8908 14.2349 89.5767 14.0653 89.3588L10.4397 84.7034C10.2701 84.4856 9.95591 84.4465 9.73804 84.6162L6.72696 80.7498C6.94482 80.5801 6.98389 80.2659 6.81422 80.0481L5.00146 77.7204C4.53407 77.1202 4.10347 76.4832 3.71105 75.8149C3.57233 75.5787 3.26968 75.4983 3.03238 75.6336C2.43797 74.5579 1.93821 73.411 1.53754 72.2143C1.79792 72.1305 1.94297 71.8525 1.86186 71.5906C1.41155 70.1361 1.10832 68.6106 0.960844 67.0532C0.934978 66.78 0.693944 66.5791 0.421179 66.6021C0.330471 65.3679 0.335353 64.1174 0.439648 62.8689C0.712162 62.8946 0.955192 62.6961 0.983798 62.4232C1.06414 61.6568 1.18298 60.8922 1.3412 60.134L1.96333 57.1527C2.01974 56.8824 1.84633 56.6175 1.57601 56.5611L2.61598 51.5774C2.8863 51.6338 3.15117 51.4604 3.20758 51.1901L4.45182 45.2274C4.50823 44.9571 4.33482 44.6922 4.0645 44.6358L5.10448 39.6521C5.3748 39.7085 5.63966 39.5351 5.69607 39.2648L6.94032 33.3022C6.99673 33.0318 6.82332 32.767 6.553 32.7106L7.59297 27.7268C7.86329 27.7832 8.12816 27.6098 8.18457 27.3395L9.42881 21.3769C9.48522 21.1066 9.31181 20.8417 9.0415 20.7853L10.0815 15.8016C10.3518 15.858 10.6167 15.6846 10.6731 15.4142L11.9173 9.45161C11.9737 9.18129 11.8003 8.91642 11.53 8.86001L12.57 3.87629Z" stroke="#E8D7AB" stroke-opacity="0.06" stroke-linecap="round" stroke-linejoin="round" stroke-dasharray="6 6"/>
</g>
<defs>
<filter id="filter0_d_255_159" x="0.357025" y="0.405518" width="373.961" height="262.673" filterUnits="userSpaceOnUse" color-interpolation-filters="sRGB">
<feFlood flood-opacity="0" result="BackgroundImageFix"/>
<feColorMatrix in="SourceAlpha" type="matrix" values="0 0 0 0 0 0 0 0 0 0 0 0 0 0 0 0 0 0 127 0" result="hardAlpha"/>
<feOffset dy="12"/>
<feComposite in2="hardAlpha" operator="out"/>
<feColorMatrix type="matrix" values="0 0 0 0 0 0 0 0 0 0 0 0 0 0 0 0 0 0 0.25 0"/>
<feBlend mode="normal" in2="BackgroundImageFix" result="effect1_dropShadow_255_159"/>
<feBlend mode="normal" in="SourceGraphic" in2="effect1_dropShadow_255_159" result="shape"/>
</filter>
<linearGradient id="paint0_linear_255_159" x1="68.4008" y1="303.518" x2="418.521" y2="-36.3696" gradientUnits="userSpaceOnUse">
<stop offset="0.522632" stop-color="#13171C"/>
<stop offset="0.522732" stop-color="#151921"/>
</linearGradient>
</defs>
</svg>
