<svg width="1281" height="473" viewBox="0 0 1281 473" fill="none" xmlns="http://www.w3.org/2000/svg">
<g filter="url(#filter0_d_460_6)">
<path d="M0.585938 472.914L1280.55 472.801L1231.07 158.832C1225.28 122.149 1208.02 88.2419 1181.77 61.9829V61.9829C1148.83 29.0457 1104.16 10.5417 1057.57 10.5417H229.198C175.644 10.5417 124.284 31.816 86.4153 69.6845V69.6845C53.3917 102.708 32.8361 146.158 28.2489 192.634L0.585938 472.914Z" fill="url(#paint0_linear_460_6)" shape-rendering="crispEdges"/>
<path d="M88.9373 67.9021C89.1353 67.7099 89.1402 67.3937 88.9484 67.1955C90.1726 66.0135 91.4103 64.8485 92.661 63.7005C92.8473 63.9039 93.1632 63.9181 93.367 63.732C94.8664 62.3626 96.3845 61.0177 97.9206 59.6975C98.1299 59.5177 98.1539 59.2024 97.9744 58.9929C99.2678 57.8869 100.574 56.7984 101.892 55.7276C102.066 55.9419 102.38 55.9751 102.595 55.8017C104.174 54.5255 105.771 53.2746 107.385 52.0492C107.604 51.8823 107.647 51.569 107.481 51.3491C108.838 50.3237 110.207 49.3162 111.588 48.3269C111.748 48.5514 112.06 48.6035 112.285 48.4434C113.938 47.2653 115.607 46.1132 117.292 44.9874C117.521 44.8341 117.583 44.524 117.43 44.2944C118.847 43.3529 120.274 42.4299 121.713 41.5255C121.859 41.7593 122.168 41.8302 122.402 41.6839C124.122 40.6079 125.858 39.5586 127.609 38.5363C127.847 38.3971 127.927 38.0913 127.789 37.8529C129.259 36.9989 130.74 36.1639 132.23 35.3479C132.362 35.59 132.666 35.6794 132.908 35.5475C134.69 34.5777 136.486 33.6352 138.296 32.7202C138.542 32.5957 138.641 32.2953 138.516 32.049C140.036 31.2855 141.564 30.5413 143.101 29.8166C143.219 30.0663 143.516 30.1739 143.766 30.0568C145.603 29.1965 147.453 28.3641 149.314 27.5598C149.568 27.4504 149.684 27.1564 149.575 26.9031C151.137 26.2328 152.708 25.5822 154.287 24.9516C154.389 25.2079 154.679 25.3332 154.935 25.2314C156.821 24.4837 158.717 23.7644 160.624 23.0738C160.884 22.9799 161.018 22.6935 160.925 22.434C162.524 21.8594 164.131 21.3048 165.745 20.7705C165.831 21.0324 166.114 21.175 166.376 21.089C168.302 20.4566 170.239 19.8531 172.185 19.2788C172.449 19.2006 172.6 18.9229 172.523 18.6583C174.154 18.1813 175.791 17.7247 177.435 17.2887C177.505 17.5555 177.778 17.7148 178.045 17.6448C180.006 17.1299 181.975 16.6444 183.953 16.1885C184.222 16.1265 184.39 15.8584 184.328 15.5895C185.985 15.2119 187.647 14.8551 189.314 14.5191C189.368 14.7896 189.631 14.9651 189.902 14.9113C191.89 14.5159 193.884 14.1503 195.886 13.8146C196.158 13.769 196.342 13.5115 196.297 13.2394C197.973 12.9627 199.653 12.7069 201.338 12.4722C201.376 12.7455 201.628 12.9366 201.901 12.8992C203.908 12.6246 205.922 12.3801 207.941 12.1659C208.215 12.1368 208.414 11.8909 208.386 11.6166C210.075 11.4416 211.768 11.2877 213.465 11.1552C213.486 11.4302 213.726 11.6362 214.001 11.6154C216.021 11.4627 218.045 11.3402 220.074 11.2483C220.35 11.2358 220.563 11.0024 220.551 10.7268C222.247 10.6542 223.946 10.6028 225.647 10.5729C225.652 10.8488 225.879 11.0689 226.155 11.0647C227.169 11.0494 228.183 11.0417 229.198 11.0417H232.2C232.476 11.0417 232.7 10.8179 232.7 10.5417H237.703C237.703 10.8179 237.926 11.0417 238.203 11.0417H244.205C244.481 11.0417 244.705 10.8179 244.705 10.5417H249.708C249.708 10.8179 249.932 11.0417 250.208 11.0417H256.211C256.487 11.0417 256.711 10.8179 256.711 10.5417H261.713C261.713 10.8179 261.937 11.0417 262.213 11.0417H268.216C268.492 11.0417 268.716 10.8179 268.716 10.5417H273.719C273.719 10.8179 273.943 11.0417 274.219 11.0417H280.222C280.498 11.0417 280.722 10.8179 280.722 10.5417H285.724C285.724 10.8179 285.948 11.0417 286.224 11.0417H292.227C292.503 11.0417 292.727 10.8179 292.727 10.5417H297.73C297.73 10.8179 297.954 11.0417 298.23 11.0417H304.233C304.509 11.0417 304.733 10.8179 304.733 10.5417H309.735C309.735 10.8179 309.959 11.0417 310.235 11.0417H316.238C316.514 11.0417 316.738 10.8179 316.738 10.5417H321.741C321.741 10.8179 321.965 11.0417 322.241 11.0417H328.243C328.52 11.0417 328.743 10.8179 328.743 10.5417H333.746C333.746 10.8179 333.97 11.0417 334.246 11.0417H340.249C340.525 11.0417 340.749 10.8179 340.749 10.5417H345.752C345.752 10.8179 345.976 11.0417 346.252 11.0417H352.254C352.531 11.0417 352.754 10.8179 352.754 10.5417H357.757C357.757 10.8179 357.981 11.0417 358.257 11.0417H364.26C364.536 11.0417 364.76 10.8179 364.76 10.5417H369.763C369.763 10.8179 369.986 11.0417 370.263 11.0417H376.265C376.541 11.0417 376.765 10.8179 376.765 10.5417H381.768C381.768 10.8179 381.992 11.0417 382.268 11.0417H388.271C388.547 11.0417 388.771 10.8179 388.771 10.5417H393.774C393.774 10.8179 393.997 11.0417 394.274 11.0417H400.276C400.552 11.0417 400.776 10.8179 400.776 10.5417H405.779C405.779 10.8179 406.003 11.0417 406.279 11.0417H412.282C412.558 11.0417 412.782 10.8179 412.782 10.5417H417.784C417.784 10.8179 418.008 11.0417 418.284 11.0417H424.287C424.563 11.0417 424.787 10.8179 424.787 10.5417H429.79C429.79 10.8179 430.014 11.0417 430.29 11.0417H436.293C436.569 11.0417 436.793 10.8179 436.793 10.5417H441.795C441.795 10.8179 442.019 11.0417 442.295 11.0417H448.298C448.574 11.0417 448.798 10.8179 448.798 10.5417H453.801C453.801 10.8179 454.025 11.0417 454.301 11.0417H460.304C460.58 11.0417 460.804 10.8179 460.804 10.5417H465.806C465.806 10.8179 466.03 11.0417 466.306 11.0417H472.309C472.585 11.0417 472.809 10.8179 472.809 10.5417H477.812C477.812 10.8179 478.036 11.0417 478.312 11.0417H484.315C484.591 11.0417 484.815 10.8179 484.815 10.5417H489.817C489.817 10.8179 490.041 11.0417 490.317 11.0417H496.32C496.596 11.0417 496.82 10.8179 496.82 10.5417H501.823C501.823 10.8179 502.047 11.0417 502.323 11.0417H508.325C508.602 11.0417 508.825 10.8179 508.825 10.5417H513.828C513.828 10.8179 514.052 11.0417 514.328 11.0417H520.331C520.607 11.0417 520.831 10.8179 520.831 10.5417H525.833C525.833 10.8179 526.057 11.0417 526.333 11.0417H532.336C532.612 11.0417 532.836 10.8179 532.836 10.5417H537.839C537.839 10.8179 538.063 11.0417 538.339 11.0417H544.342C544.618 11.0417 544.842 10.8179 544.842 10.5417H549.844C549.844 10.8179 550.068 11.0417 550.344 11.0417H556.347C556.623 11.0417 556.847 10.8179 556.847 10.5417H561.85C561.85 10.8179 562.074 11.0417 562.35 11.0417H568.353C568.629 11.0417 568.853 10.8179 568.853 10.5417H573.855C573.855 10.8179 574.079 11.0417 574.355 11.0417H580.358C580.634 11.0417 580.858 10.8179 580.858 10.5417H585.861C585.861 10.8179 586.085 11.0417 586.361 11.0417H592.363C592.64 11.0417 592.863 10.8179 592.863 10.5417H597.866C597.866 10.8179 598.09 11.0417 598.366 11.0417H604.369C604.645 11.0417 604.869 10.8179 604.869 10.5417H609.872C609.872 10.8179 610.095 11.0417 610.372 11.0417H616.374C616.65 11.0417 616.874 10.8179 616.874 10.5417H621.877C621.877 10.8179 622.101 11.0417 622.377 11.0417H628.38C628.656 11.0417 628.88 10.8179 628.88 10.5417H633.882C633.882 10.8179 634.106 11.0417 634.382 11.0417H640.385C640.661 11.0417 640.885 10.8179 640.885 10.5417H645.888C645.888 10.8179 646.112 11.0417 646.388 11.0417H652.391C652.667 11.0417 652.891 10.8179 652.891 10.5417H657.893C657.893 10.8179 658.117 11.0417 658.393 11.0417H664.396C664.672 11.0417 664.896 10.8179 664.896 10.5417H669.899C669.899 10.8179 670.123 11.0417 670.399 11.0417H676.401C676.678 11.0417 676.901 10.8179 676.901 10.5417H681.904C681.904 10.8179 682.128 11.0417 682.404 11.0417H688.407C688.683 11.0417 688.907 10.8179 688.907 10.5417H693.91C693.91 10.8179 694.133 11.0417 694.41 11.0417H700.412C700.688 11.0417 700.912 10.8179 700.912 10.5417H705.915C705.915 10.8179 706.139 11.0417 706.415 11.0417H712.418C712.694 11.0417 712.918 10.8179 712.918 10.5417H717.92C717.92 10.8179 718.144 11.0417 718.42 11.0417H724.423C724.699 11.0417 724.923 10.8179 724.923 10.5417H729.926C729.926 10.8179 730.15 11.0417 730.426 11.0417H736.429C736.705 11.0417 736.929 10.8179 736.929 10.5417H741.931C741.931 10.8179 742.155 11.0417 742.431 11.0417H748.434C748.71 11.0417 748.934 10.8179 748.934 10.5417H753.937C753.937 10.8179 754.161 11.0417 754.437 11.0417H760.44C760.716 11.0417 760.94 10.8179 760.94 10.5417H765.942C765.942 10.8179 766.166 11.0417 766.442 11.0417H772.445C772.721 11.0417 772.945 10.8179 772.945 10.5417H777.948C777.948 10.8179 778.172 11.0417 778.448 11.0417H784.451C784.727 11.0417 784.951 10.8179 784.951 10.5417H789.953C789.953 10.8179 790.177 11.0417 790.453 11.0417H796.456C796.732 11.0417 796.956 10.8179 796.956 10.5417H801.959C801.959 10.8179 802.183 11.0417 802.459 11.0417H808.461C808.738 11.0417 808.961 10.8179 808.961 10.5417H813.964C813.964 10.8179 814.188 11.0417 814.464 11.0417H820.467C820.743 11.0417 820.967 10.8179 820.967 10.5417H825.97C825.97 10.8179 826.194 11.0417 826.47 11.0417H832.473C832.749 11.0417 832.973 10.8179 832.973 10.5417H837.975C837.975 10.8179 838.199 11.0417 838.475 11.0417H844.478C844.754 11.0417 844.978 10.8179 844.978 10.5417H849.981C849.981 10.8179 850.205 11.0417 850.481 11.0417H856.483C856.76 11.0417 856.983 10.8179 856.983 10.5417H861.986C861.986 10.8179 862.21 11.0417 862.486 11.0417H868.489C868.765 11.0417 868.989 10.8179 868.989 10.5417H873.992C873.992 10.8179 874.216 11.0417 874.492 11.0417H880.495C880.771 11.0417 880.995 10.8179 880.995 10.5417H885.997C885.997 10.8179 886.221 11.0417 886.497 11.0417H892.5C892.776 11.0417 893 10.8179 893 10.5417H898.003C898.003 10.8179 898.227 11.0417 898.503 11.0417H904.505C904.782 11.0417 905.005 10.8179 905.005 10.5417H910.008C910.008 10.8179 910.232 11.0417 910.508 11.0417H916.511C916.787 11.0417 917.011 10.8179 917.011 10.5417H922.014C922.014 10.8179 922.238 11.0417 922.514 11.0417H928.516C928.793 11.0417 929.016 10.8179 929.016 10.5417H934.019C934.019 10.8179 934.243 11.0417 934.519 11.0417H940.522C940.798 11.0417 941.022 10.8179 941.022 10.5417H946.025C946.025 10.8179 946.249 11.0417 946.525 11.0417H952.527C952.804 11.0417 953.027 10.8179 953.027 10.5417H958.03C958.03 10.8179 958.254 11.0417 958.53 11.0417H964.533C964.809 11.0417 965.033 10.8179 965.033 10.5417H970.036C970.036 10.8179 970.26 11.0417 970.536 11.0417H976.538C976.815 11.0417 977.038 10.8179 977.038 10.5417H982.041C982.041 10.8179 982.265 11.0417 982.541 11.0417H988.544C988.82 11.0417 989.044 10.8179 989.044 10.5417H994.047C994.047 10.8179 994.271 11.0417 994.547 11.0417H1000.55C1000.83 11.0417 1001.05 10.8179 1001.05 10.5417H1006.05C1006.05 10.8179 1006.28 11.0417 1006.55 11.0417H1012.55C1012.83 11.0417 1013.05 10.8179 1013.05 10.5417H1018.06C1018.06 10.8179 1018.28 11.0417 1018.56 11.0417H1024.56C1024.84 11.0417 1025.06 10.8179 1025.06 10.5417H1030.06C1030.06 10.8179 1030.29 11.0417 1030.56 11.0417H1036.57C1036.84 11.0417 1037.07 10.8179 1037.07 10.5417H1042.07C1042.07 10.8179 1042.29 11.0417 1042.57 11.0417H1048.57C1048.85 11.0417 1049.07 10.8179 1049.07 10.5417H1054.07C1054.07 10.8179 1054.3 11.0417 1054.57 11.0417H1057.57C1058.62 11.0417 1059.66 11.0511 1060.7 11.0696C1060.98 11.0746 1061.21 10.8551 1061.21 10.5793C1062.97 10.6157 1064.72 10.6784 1066.48 10.7673C1066.46 11.0427 1066.67 11.2778 1066.95 11.2926C1069.03 11.4042 1071.11 11.553 1073.19 11.7384C1073.46 11.763 1073.7 11.5603 1073.73 11.2856C1075.48 11.4473 1077.23 11.6351 1078.97 11.8487C1078.93 12.1225 1079.13 12.3721 1079.4 12.4064C1081.47 12.6664 1083.53 12.9632 1085.59 13.2962C1085.86 13.3403 1086.12 13.1555 1086.16 12.8833C1087.9 13.1695 1089.63 13.4814 1091.35 13.8189C1091.3 14.0895 1091.47 14.3523 1091.74 14.4062C1093.79 14.8131 1095.82 15.2563 1097.85 15.7353C1098.12 15.7988 1098.39 15.6327 1098.45 15.3644C1100.16 15.7735 1101.86 16.208 1103.56 16.6677C1103.49 16.9338 1103.64 17.2085 1103.91 17.2815C1105.92 17.8332 1107.92 18.4205 1109.91 19.0431C1110.17 19.1255 1110.45 18.9791 1110.53 18.716C1112.21 19.2459 1113.88 19.8007 1115.53 20.3803C1115.44 20.6405 1115.58 20.9257 1115.84 21.0175C1117.8 21.711 1119.76 22.4394 1121.7 23.2023C1121.95 23.3034 1122.24 23.1773 1122.34 22.9208C1123.98 23.5686 1125.6 24.2409 1127.21 24.9374C1127.1 25.1905 1127.22 25.4847 1127.47 25.5948C1129.38 26.4264 1131.28 27.2922 1133.16 28.1918C1133.41 28.3109 1133.71 28.2058 1133.83 27.9572C1135.41 28.7196 1136.98 29.5059 1138.54 30.3159C1138.41 30.5604 1138.51 30.8622 1138.75 30.99C1140.6 31.9556 1142.42 32.9544 1144.24 33.9861C1144.48 34.1226 1144.78 34.0391 1144.92 33.7996C1146.44 34.6727 1147.95 35.569 1149.45 36.4884C1149.31 36.7232 1149.38 37.0309 1149.61 37.1759C1151.39 38.2704 1153.14 39.3972 1154.87 40.556C1155.1 40.7093 1155.41 40.6478 1155.57 40.4187C1157.02 41.3979 1158.47 42.3991 1159.89 43.4232C1159.73 43.6471 1159.78 43.9596 1160.01 44.1212C1161.7 45.3389 1163.37 46.588 1165.01 47.8681C1165.23 48.0375 1165.55 47.9981 1165.71 47.78C1167.1 48.8604 1168.46 49.9625 1169.82 51.0863C1169.64 51.2982 1169.67 51.6135 1169.88 51.7906C1171.48 53.1253 1173.05 54.4902 1174.61 55.8851C1174.81 56.0696 1175.13 56.0527 1175.31 55.8473C1176.61 57.0232 1177.9 58.2202 1179.17 59.438C1178.98 59.6368 1178.98 59.9533 1179.18 60.145C1179.93 60.8682 1180.67 61.5987 1181.41 62.3365C1182.13 63.0584 1182.85 63.7861 1183.56 64.5195C1183.75 64.7181 1184.07 64.7236 1184.26 64.5318C1185.45 65.7686 1186.62 67.0215 1187.77 68.2898C1187.56 68.4746 1187.55 68.7907 1187.73 68.996C1189.1 70.5139 1190.44 72.054 1191.75 73.6154C1191.92 73.8269 1192.24 73.8545 1192.45 73.6771C1193.55 74.9933 1194.63 76.3246 1195.68 77.6703C1195.47 77.8403 1195.43 78.1545 1195.6 78.3721C1196.85 79.9812 1198.08 81.611 1199.28 83.2606C1199.44 83.484 1199.75 83.5336 1199.98 83.3713C1200.98 84.7608 1201.96 86.1641 1202.92 87.5809C1202.69 87.7353 1202.63 88.046 1202.79 88.275C1203.93 89.9675 1205.04 91.6791 1206.12 93.4089C1206.27 93.6431 1206.58 93.7144 1206.81 93.5682C1207.71 95.0238 1208.59 96.4923 1209.45 97.9731C1209.22 98.111 1209.13 98.4168 1209.27 98.656C1210.29 100.424 1211.28 102.208 1212.24 104.01C1212.37 104.254 1212.67 104.347 1212.91 104.217C1213.71 105.732 1214.49 107.258 1215.24 108.796C1215 108.917 1214.89 109.216 1215.01 109.464C1215.91 111.298 1216.77 113.148 1217.6 115.012C1217.71 115.265 1218.01 115.378 1218.26 115.266C1218.95 116.833 1219.62 118.41 1220.26 119.996C1220.01 120.1 1219.88 120.391 1219.99 120.647C1220.75 122.539 1221.48 124.444 1222.18 126.362C1222.27 126.622 1222.56 126.756 1222.82 126.661C1223.4 128.272 1223.95 129.892 1224.49 131.521C1224.22 131.606 1224.08 131.888 1224.17 132.15C1224.8 134.09 1225.39 136.041 1225.95 138.004C1226.03 138.27 1226.3 138.423 1226.57 138.347C1227.04 139.994 1227.48 141.649 1227.9 143.311C1227.63 143.378 1227.47 143.649 1227.53 143.917C1228.02 145.895 1228.48 147.883 1228.9 149.881C1228.96 150.152 1229.23 150.324 1229.5 150.267C1229.85 151.942 1230.17 153.624 1230.47 155.312C1230.2 155.359 1230.02 155.618 1230.07 155.89C1230.24 156.895 1230.41 157.901 1230.57 158.909L1231.05 161.928C1231.09 162.201 1231.35 162.387 1231.62 162.344L1232.41 167.395C1232.14 167.438 1231.96 167.694 1232 167.966L1232.95 174.004C1232.99 174.277 1233.25 174.463 1233.52 174.42L1234.32 179.47C1234.04 179.513 1233.86 179.769 1233.9 180.042L1234.85 186.08C1234.9 186.353 1235.15 186.539 1235.42 186.496L1236.22 191.546C1235.95 191.589 1235.76 191.845 1235.8 192.118L1236.76 198.156C1236.8 198.428 1237.06 198.615 1237.33 198.572L1238.12 203.622C1237.85 203.665 1237.66 203.921 1237.71 204.194L1238.66 210.231C1238.7 210.504 1238.96 210.691 1239.23 210.648L1240.03 215.698C1239.75 215.741 1239.57 215.997 1239.61 216.269L1240.56 222.307C1240.61 222.58 1240.86 222.766 1241.13 222.723L1241.93 227.773C1241.66 227.816 1241.47 228.072 1241.51 228.345L1242.47 234.383C1242.51 234.656 1242.76 234.842 1243.04 234.799L1243.83 239.849C1243.56 239.892 1243.37 240.148 1243.42 240.421L1244.37 246.459C1244.41 246.732 1244.67 246.918 1244.94 246.875L1245.74 251.925C1245.46 251.968 1245.28 252.224 1245.32 252.497L1246.27 258.535C1246.31 258.807 1246.57 258.994 1246.84 258.951L1247.64 264.001C1247.37 264.044 1247.18 264.3 1247.22 264.572L1248.17 270.61C1248.22 270.883 1248.47 271.069 1248.75 271.026L1249.54 276.076C1249.27 276.119 1249.08 276.375 1249.13 276.648L1250.08 282.686C1250.12 282.959 1250.38 283.145 1250.65 283.102L1251.45 288.152C1251.17 288.195 1250.99 288.451 1251.03 288.724L1251.98 294.762C1252.02 295.035 1252.28 295.221 1252.55 295.178L1253.35 300.228C1253.08 300.271 1252.89 300.527 1252.93 300.8L1253.88 306.838C1253.93 307.11 1254.18 307.297 1254.46 307.254L1255.25 312.304C1254.98 312.347 1254.79 312.603 1254.84 312.875L1255.79 318.913C1255.83 319.186 1256.09 319.372 1256.36 319.329L1257.15 324.379C1256.88 324.422 1256.7 324.678 1256.74 324.951L1257.69 330.989C1257.73 331.262 1257.99 331.448 1258.26 331.405L1259.06 336.455C1258.79 336.498 1258.6 336.754 1258.64 337.027L1259.59 343.065C1259.64 343.338 1259.89 343.524 1260.17 343.481L1260.96 348.531C1260.69 348.574 1260.5 348.83 1260.54 349.103L1261.5 355.141C1261.54 355.413 1261.8 355.6 1262.07 355.557L1262.86 360.607C1262.59 360.65 1262.41 360.906 1262.45 361.178L1263.4 367.216C1263.44 367.489 1263.7 367.675 1263.97 367.632L1264.77 372.682C1264.49 372.725 1264.31 372.981 1264.35 373.254L1265.3 379.292C1265.35 379.565 1265.6 379.751 1265.87 379.708L1266.67 384.758C1266.4 384.801 1266.21 385.057 1266.25 385.33L1267.21 391.368C1267.25 391.641 1267.5 391.827 1267.78 391.784L1268.57 396.834C1268.3 396.877 1268.11 397.133 1268.16 397.406L1269.11 403.444C1269.15 403.716 1269.41 403.903 1269.68 403.86L1270.48 408.91C1270.2 408.953 1270.02 409.209 1270.06 409.482L1271.01 415.519C1271.05 415.792 1271.31 415.978 1271.58 415.935L1272.38 420.986C1272.11 421.029 1271.92 421.284 1271.96 421.557L1272.92 427.595C1272.96 427.868 1273.21 428.054 1273.49 428.011L1274.28 433.061C1274.01 433.104 1273.82 433.36 1273.87 433.633L1274.82 439.671C1274.86 439.944 1275.12 440.13 1275.39 440.087L1276.19 445.137C1275.91 445.18 1275.73 445.436 1275.77 445.709L1276.72 451.747C1276.76 452.019 1277.02 452.206 1277.29 452.163L1278.09 457.213C1277.82 457.256 1277.63 457.512 1277.67 457.785L1278.62 463.822C1278.67 464.095 1278.92 464.281 1279.2 464.238L1279.99 469.289C1279.72 469.332 1279.53 469.587 1279.58 469.86L1279.96 472.302L1277.55 472.302C1277.28 472.302 1277.05 472.526 1277.05 472.802L1272.07 472.802C1272.07 472.526 1271.85 472.302 1271.57 472.302L1265.59 472.303C1265.32 472.303 1265.09 472.527 1265.09 472.803L1260.11 472.803C1260.11 472.527 1259.89 472.303 1259.61 472.303L1253.63 472.304C1253.35 472.304 1253.13 472.528 1253.13 472.804L1248.15 472.804C1248.15 472.528 1247.93 472.304 1247.65 472.304L1241.67 472.305C1241.39 472.305 1241.17 472.529 1241.17 472.805L1236.19 472.805C1236.19 472.529 1235.96 472.305 1235.69 472.305L1229.71 472.306C1229.43 472.306 1229.21 472.53 1229.21 472.806L1224.22 472.806C1224.22 472.53 1224 472.306 1223.72 472.306L1217.74 472.307C1217.47 472.307 1217.24 472.531 1217.24 472.807L1212.26 472.807C1212.26 472.531 1212.04 472.307 1211.76 472.308L1205.78 472.308C1205.51 472.308 1205.28 472.532 1205.28 472.808L1200.3 472.809C1200.3 472.532 1200.08 472.309 1199.8 472.309L1193.82 472.309C1193.54 472.309 1193.32 472.533 1193.32 472.809L1188.34 472.81C1188.34 472.533 1188.11 472.31 1187.84 472.31L1181.86 472.31C1181.58 472.31 1181.36 472.534 1181.36 472.81L1176.38 472.811C1176.38 472.534 1176.15 472.311 1175.88 472.311L1169.89 472.311C1169.62 472.311 1169.39 472.535 1169.39 472.811L1164.41 472.812C1164.41 472.536 1164.19 472.312 1163.91 472.312L1157.93 472.312C1157.66 472.312 1157.43 472.536 1157.43 472.812L1152.45 472.813C1152.45 472.537 1152.23 472.313 1151.95 472.313L1145.97 472.313C1145.69 472.313 1145.47 472.537 1145.47 472.813L1140.49 472.814C1140.49 472.538 1140.27 472.314 1139.99 472.314L1134.01 472.314C1133.73 472.314 1133.51 472.538 1133.51 472.814L1128.53 472.815C1128.53 472.539 1128.3 472.315 1128.03 472.315L1122.05 472.315C1121.77 472.315 1121.55 472.539 1121.55 472.815L1116.56 472.816C1116.56 472.54 1116.34 472.316 1116.06 472.316L1110.08 472.316C1109.81 472.316 1109.58 472.54 1109.58 472.816L1104.6 472.817C1104.6 472.541 1104.38 472.317 1104.1 472.317L1098.12 472.317C1097.85 472.318 1097.62 472.541 1097.62 472.818L1092.64 472.818C1092.64 472.542 1092.42 472.318 1092.14 472.318L1086.16 472.319C1085.88 472.319 1085.66 472.542 1085.66 472.819L1080.68 472.819C1080.68 472.543 1080.45 472.319 1080.18 472.319L1074.2 472.32C1073.92 472.32 1073.7 472.543 1073.7 472.82L1068.72 472.82C1068.72 472.544 1068.49 472.32 1068.22 472.32L1062.23 472.321C1061.96 472.321 1061.73 472.545 1061.73 472.821L1056.75 472.821C1056.75 472.545 1056.53 472.321 1056.25 472.321L1050.27 472.322C1050 472.322 1049.77 472.546 1049.77 472.822L1044.79 472.822C1044.79 472.546 1044.57 472.322 1044.29 472.322L1038.31 472.323C1038.03 472.323 1037.81 472.547 1037.81 472.823L1032.83 472.823C1032.83 472.547 1032.61 472.323 1032.33 472.323L1026.35 472.324C1026.07 472.324 1025.85 472.548 1025.85 472.824L1020.87 472.824C1020.87 472.548 1020.64 472.324 1020.37 472.324L1014.39 472.325C1014.11 472.325 1013.89 472.549 1013.89 472.825L1008.9 472.825C1008.9 472.549 1008.68 472.325 1008.4 472.325L1002.42 472.326C1002.15 472.326 1001.92 472.55 1001.92 472.826L996.942 472.826C996.942 472.55 996.718 472.326 996.442 472.326L990.461 472.327C990.185 472.327 989.961 472.551 989.961 472.827L984.98 472.827C984.98 472.551 984.756 472.327 984.48 472.327L978.499 472.328C978.223 472.328 977.999 472.552 977.999 472.828L973.018 472.828C973.018 472.552 972.794 472.328 972.518 472.328L966.537 472.329C966.261 472.329 966.037 472.553 966.037 472.829L961.056 472.829C961.056 472.553 960.832 472.329 960.556 472.33L954.574 472.33C954.298 472.33 954.075 472.554 954.075 472.83L949.093 472.831C949.093 472.554 948.87 472.331 948.593 472.331L942.612 472.331C942.336 472.331 942.112 472.555 942.112 472.831L937.131 472.832C937.131 472.555 936.907 472.332 936.631 472.332L930.65 472.332C930.374 472.332 930.15 472.556 930.15 472.832L925.169 472.833C925.169 472.556 924.945 472.333 924.669 472.333L918.688 472.333C918.412 472.333 918.188 472.557 918.188 472.833L913.207 472.834C913.207 472.558 912.983 472.334 912.707 472.334L906.726 472.334C906.449 472.334 906.226 472.558 906.226 472.834L901.245 472.835C901.245 472.559 901.021 472.335 900.745 472.335L894.763 472.335C894.487 472.335 894.263 472.559 894.263 472.835L889.282 472.836C889.282 472.56 889.058 472.336 888.782 472.336L882.801 472.336C882.525 472.336 882.301 472.56 882.301 472.836L877.32 472.837C877.32 472.561 877.096 472.337 876.82 472.337L870.839 472.337C870.563 472.337 870.339 472.561 870.339 472.837L865.358 472.838C865.358 472.562 865.134 472.338 864.858 472.338L858.877 472.338C858.601 472.338 858.377 472.562 858.377 472.838L853.396 472.839C853.396 472.563 853.172 472.339 852.896 472.339L846.914 472.339C846.638 472.34 846.415 472.563 846.415 472.84L841.433 472.84C841.433 472.564 841.21 472.34 840.933 472.34L834.952 472.341C834.676 472.341 834.452 472.564 834.452 472.841L829.471 472.841C829.471 472.565 829.247 472.341 828.971 472.341L822.99 472.342C822.714 472.342 822.49 472.565 822.49 472.842L817.509 472.842C817.509 472.566 817.285 472.342 817.009 472.342L811.028 472.343C810.752 472.343 810.528 472.567 810.528 472.843L805.547 472.843C805.547 472.567 805.323 472.343 805.047 472.343L799.066 472.344C798.789 472.344 798.566 472.568 798.566 472.844L793.585 472.844C793.585 472.568 793.361 472.344 793.085 472.344L787.103 472.345C786.827 472.345 786.603 472.569 786.603 472.845L781.622 472.845C781.622 472.569 781.398 472.345 781.122 472.345L775.141 472.346C774.865 472.346 774.641 472.57 774.641 472.846L769.66 472.846C769.66 472.57 769.436 472.346 769.16 472.346L763.179 472.347C762.903 472.347 762.679 472.571 762.679 472.847L757.698 472.847C757.698 472.571 757.474 472.347 757.198 472.347L751.217 472.348C750.941 472.348 750.717 472.572 750.717 472.848L745.736 472.848C745.736 472.572 745.512 472.348 745.236 472.348L739.254 472.349C738.978 472.349 738.754 472.573 738.754 472.849L733.773 472.849C733.773 472.573 733.549 472.349 733.273 472.349L727.292 472.35C727.016 472.35 726.792 472.574 726.792 472.85L721.811 472.85C721.811 472.574 721.587 472.35 721.311 472.35L715.33 472.351C715.054 472.351 714.83 472.575 714.83 472.851L709.849 472.852C709.849 472.575 709.625 472.352 709.349 472.352L703.368 472.352C703.091 472.352 702.868 472.576 702.868 472.852L697.886 472.853C697.886 472.576 697.663 472.353 697.386 472.353L691.405 472.353C691.129 472.353 690.905 472.577 690.905 472.853L685.924 472.854C685.924 472.577 685.7 472.354 685.424 472.354L679.443 472.354C679.167 472.354 678.943 472.578 678.943 472.854L673.962 472.855C673.962 472.578 673.738 472.355 673.462 472.355L667.481 472.355C667.205 472.355 666.981 472.579 666.981 472.855L662 472.856C662 472.58 661.776 472.356 661.5 472.356L655.518 472.356C655.242 472.356 655.018 472.58 655.018 472.856L650.037 472.857C650.037 472.581 649.813 472.357 649.537 472.357L643.556 472.357C643.28 472.357 643.056 472.581 643.056 472.857L638.075 472.858C638.075 472.582 637.851 472.358 637.575 472.358L631.594 472.358C631.318 472.358 631.094 472.582 631.094 472.858L626.113 472.859C626.113 472.583 625.889 472.359 625.613 472.359L619.632 472.359C619.355 472.359 619.132 472.583 619.132 472.859L614.151 472.86C614.151 472.584 613.927 472.36 613.651 472.36L607.669 472.36C607.393 472.36 607.169 472.584 607.169 472.861L602.188 472.861C602.188 472.585 601.964 472.361 601.688 472.361L595.707 472.362C595.431 472.362 595.207 472.585 595.207 472.862L590.226 472.862C590.226 472.586 590.002 472.362 589.726 472.362L583.745 472.363C583.469 472.363 583.245 472.586 583.245 472.863L578.264 472.863C578.264 472.587 578.04 472.363 577.764 472.363L571.782 472.364C571.506 472.364 571.282 472.587 571.283 472.864L566.301 472.864C566.301 472.588 566.078 472.364 565.801 472.364L559.82 472.365C559.544 472.365 559.32 472.589 559.32 472.865L554.339 472.865C554.339 472.589 554.115 472.365 553.839 472.365L547.858 472.366C547.582 472.366 547.358 472.59 547.358 472.866L542.377 472.866C542.377 472.59 542.153 472.366 541.877 472.366L535.896 472.367C535.619 472.367 535.396 472.591 535.396 472.867L530.415 472.867C530.415 472.591 530.191 472.367 529.914 472.367L523.933 472.368C523.657 472.368 523.433 472.592 523.433 472.868L518.452 472.868C518.452 472.592 518.228 472.368 517.952 472.368L511.971 472.369C511.695 472.369 511.471 472.593 511.471 472.869L506.49 472.869C506.49 472.593 506.266 472.369 505.99 472.369L500.009 472.37C499.733 472.37 499.509 472.594 499.509 472.87L494.528 472.87C494.528 472.594 494.304 472.37 494.028 472.37L488.047 472.371C487.77 472.371 487.547 472.595 487.547 472.871L482.565 472.871C482.565 472.595 482.342 472.371 482.065 472.371L476.084 472.372C475.808 472.372 475.584 472.596 475.584 472.872L470.603 472.872C470.603 472.596 470.379 472.372 470.103 472.373L464.122 472.373C463.846 472.373 463.622 472.597 463.622 472.873L458.641 472.874C458.641 472.597 458.417 472.374 458.141 472.374L452.16 472.374C451.884 472.374 451.66 472.598 451.66 472.874L446.679 472.875C446.679 472.598 446.455 472.375 446.179 472.375L440.197 472.375C439.921 472.375 439.697 472.599 439.697 472.875L434.716 472.876C434.716 472.599 434.492 472.376 434.216 472.376L428.235 472.376C427.959 472.376 427.735 472.6 427.735 472.876L422.754 472.877C422.754 472.601 422.53 472.377 422.254 472.377L416.273 472.377C415.997 472.377 415.773 472.601 415.773 472.877L410.792 472.878C410.792 472.602 410.568 472.378 410.292 472.378L404.311 472.378C404.034 472.378 403.811 472.602 403.811 472.878L398.829 472.879C398.829 472.603 398.606 472.379 398.329 472.379L392.348 472.379C392.072 472.379 391.848 472.603 391.848 472.879L386.867 472.88C386.867 472.604 386.643 472.38 386.367 472.38L380.386 472.38C380.11 472.38 379.886 472.604 379.886 472.88L374.905 472.881C374.905 472.605 374.681 472.381 374.405 472.381L368.424 472.381C368.148 472.381 367.924 472.605 367.924 472.881L362.943 472.882C362.943 472.606 362.719 472.382 362.443 472.382L356.461 472.382C356.185 472.383 355.961 472.606 355.961 472.883L350.98 472.883C350.98 472.607 350.756 472.383 350.48 472.383L344.499 472.384C344.223 472.384 343.999 472.607 343.999 472.884L339.018 472.884C339.018 472.608 338.794 472.384 338.518 472.384L332.537 472.385C332.261 472.385 332.037 472.608 332.037 472.885L327.056 472.885C327.056 472.609 326.832 472.385 326.556 472.385L320.575 472.386C320.298 472.386 320.075 472.61 320.075 472.886L315.094 472.886C315.093 472.61 314.87 472.386 314.593 472.386L308.612 472.387C308.336 472.387 308.112 472.611 308.112 472.887L303.131 472.887C303.131 472.611 302.907 472.387 302.631 472.387L296.65 472.388C296.374 472.388 296.15 472.612 296.15 472.888L291.169 472.888C291.169 472.612 290.945 472.388 290.669 472.388L284.688 472.389C284.412 472.389 284.188 472.613 284.188 472.889L279.207 472.889C279.207 472.613 278.983 472.389 278.707 472.389L272.726 472.39C272.449 472.39 272.226 472.614 272.226 472.89L267.244 472.89C267.244 472.614 267.02 472.39 266.744 472.39L260.763 472.391C260.487 472.391 260.263 472.615 260.263 472.891L255.282 472.891C255.282 472.615 255.058 472.391 254.782 472.391L248.801 472.392C248.525 472.392 248.301 472.616 248.301 472.892L243.32 472.892C243.32 472.616 243.096 472.392 242.82 472.392L236.839 472.393C236.563 472.393 236.339 472.617 236.339 472.893L231.358 472.893C231.358 472.617 231.134 472.393 230.858 472.393L224.877 472.394C224.601 472.394 224.377 472.618 224.377 472.894L219.396 472.895C219.396 472.618 219.172 472.395 218.896 472.395L212.914 472.395C212.638 472.395 212.414 472.619 212.415 472.895L207.433 472.896C207.433 472.619 207.21 472.396 206.933 472.396L200.952 472.396C200.676 472.396 200.452 472.62 200.452 472.896L195.471 472.897C195.471 472.62 195.247 472.397 194.971 472.397L188.99 472.397C188.714 472.397 188.49 472.621 188.49 472.897L183.509 472.898C183.509 472.621 183.285 472.398 183.009 472.398L177.028 472.398C176.752 472.398 176.528 472.622 176.528 472.898L171.547 472.899C171.547 472.623 171.323 472.399 171.047 472.399L165.066 472.399C164.79 472.399 164.566 472.623 164.566 472.899L159.585 472.9C159.585 472.624 159.361 472.4 159.085 472.4L153.104 472.4C152.828 472.4 152.604 472.624 152.604 472.9L147.623 472.901C147.623 472.625 147.399 472.401 147.123 472.401L141.142 472.401C140.865 472.401 140.642 472.625 140.642 472.901L135.661 472.902C135.661 472.626 135.437 472.402 135.161 472.402L129.179 472.402C128.903 472.402 128.679 472.626 128.679 472.902L123.698 472.903C123.698 472.627 123.474 472.403 123.198 472.403L117.217 472.403C116.941 472.403 116.717 472.627 116.717 472.903L111.736 472.904C111.736 472.628 111.512 472.404 111.236 472.404L105.255 472.404C104.979 472.405 104.755 472.628 104.755 472.905L99.7741 472.905C99.774 472.629 99.5502 472.405 99.274 472.405L93.2929 472.406C93.0168 472.406 92.7929 472.629 92.793 472.906L87.8119 472.906C87.8118 472.63 87.588 472.406 87.3118 472.406L81.3308 472.407C81.0547 472.407 80.8308 472.63 80.8308 472.907L75.8497 472.907C75.8497 472.631 75.6258 472.407 75.3497 472.407L69.3686 472.408C69.0924 472.408 68.8686 472.632 68.8686 472.908L63.8876 472.908C63.8876 472.632 63.6637 472.408 63.3876 472.408L57.4065 472.409C57.1303 472.409 56.9065 472.633 56.9065 472.909L51.9254 472.909C51.9254 472.633 51.7015 472.409 51.4254 472.409L45.4443 472.41C45.1682 472.41 44.9443 472.634 44.9444 472.91L39.9633 472.91C39.9632 472.634 39.7394 472.41 39.4632 472.41L33.4821 472.411C33.206 472.411 32.9821 472.635 32.9822 472.911L28.0011 472.911C28.0011 472.635 27.7772 472.411 27.5011 472.411L21.52 472.412C21.2438 472.412 21.02 472.636 21.02 472.912L16.0389 472.912C16.0389 472.636 15.815 472.412 15.5389 472.412L9.55785 472.413C9.28171 472.413 9.05787 472.637 9.0579 472.913L4.07679 472.913C4.07677 472.637 3.85289 472.413 3.57675 472.413L1.13772 472.414L1.3842 469.916C1.41133 469.641 1.21054 469.397 0.935733 469.37L1.43888 464.272C1.71369 464.299 1.95845 464.098 1.98557 463.823L2.58694 457.73C2.61407 457.455 2.41328 457.211 2.13847 457.184L2.64162 452.086C2.91643 452.113 3.16119 451.912 3.18831 451.637L3.78968 445.544C3.8168 445.269 3.61602 445.025 3.34121 444.997L3.84436 439.9C4.11917 439.927 4.36393 439.726 4.39105 439.451L4.99242 433.358C5.01954 433.083 4.81876 432.839 4.54395 432.811L5.0471 427.714C5.3219 427.741 5.56667 427.54 5.59379 427.265L6.19516 421.172C6.22228 420.897 6.02149 420.652 5.74669 420.625L6.24984 415.527C6.52464 415.555 6.76941 415.354 6.79653 415.079L7.3979 408.986C7.42502 408.711 7.22423 408.466 6.94943 408.439L7.45258 403.341C7.72738 403.369 7.97215 403.168 7.99927 402.893L8.60064 396.8C8.62776 396.525 8.42697 396.28 8.15217 396.253L8.65531 391.155C8.93012 391.182 9.17488 390.982 9.20201 390.707L9.80338 384.614C9.8305 384.339 9.62971 384.094 9.3549 384.067L9.85805 378.969C10.1329 378.996 10.3776 378.796 10.4047 378.521L11.0061 372.428C11.0332 372.153 10.8325 371.908 10.5576 371.881L11.0608 366.783C11.3356 366.81 11.5804 366.61 11.6075 366.335L12.2089 360.242C12.236 359.967 12.0352 359.722 11.7604 359.695L12.2635 354.597C12.5383 354.624 12.7831 354.424 12.8102 354.149L13.4116 348.056C13.4387 347.781 13.2379 347.536 12.9631 347.509L13.4663 342.411C13.7411 342.438 13.9858 342.237 14.013 341.963L14.6143 335.87C14.6415 335.595 14.4407 335.35 14.1659 335.323L14.669 330.225C14.9438 330.252 15.1886 330.051 15.2157 329.777L15.8171 323.684C15.8442 323.409 15.6434 323.164 15.3686 323.137L15.8717 318.039C16.1466 318.066 16.3913 317.865 16.4184 317.591L17.0198 311.497C17.0469 311.223 16.8461 310.978 16.5713 310.951L17.0745 305.853C17.3493 305.88 17.5941 305.679 17.6212 305.404L18.2225 299.311C18.2497 299.037 18.0489 298.792 17.7741 298.765L18.2772 293.667C18.552 293.694 18.7968 293.493 18.8239 293.218L19.4253 287.125C19.4524 286.851 19.2516 286.606 18.9768 286.579L19.48 281.481C19.7548 281.508 19.9995 281.307 20.0267 281.032L20.628 274.939C20.6551 274.665 20.4544 274.42 20.1796 274.393L20.6827 269.295C20.9575 269.322 21.2023 269.121 21.2294 268.846L21.8308 262.753C21.8579 262.478 21.6571 262.234 21.3823 262.207L21.8854 257.109C22.1602 257.136 22.405 256.935 22.4321 256.66L23.0335 250.567C23.0606 250.292 22.8598 250.048 22.585 250.021L23.0882 244.923C23.363 244.95 23.6078 244.749 23.6349 244.474L24.2362 238.381C24.2634 238.106 24.0626 237.862 23.7878 237.834L24.2909 232.737C24.5657 232.764 24.8105 232.563 24.8376 232.288L25.439 226.195C25.4661 225.92 25.2653 225.676 24.9905 225.648L25.4937 220.551C25.7685 220.578 26.0132 220.377 26.0404 220.102L26.6417 214.009C26.6688 213.734 26.4681 213.489 26.1933 213.462L26.6964 208.364C26.9712 208.392 27.216 208.191 27.2431 207.916L27.8445 201.823C27.8716 201.548 27.6708 201.303 27.396 201.276L27.8991 196.178C28.1739 196.206 28.4187 196.005 28.4458 195.73L28.7465 192.683C28.841 191.726 28.9423 190.77 29.0503 189.816C29.0813 189.541 28.8844 189.294 28.6103 189.263C28.7935 187.679 28.9954 186.098 29.2156 184.522C29.4888 184.56 29.7416 184.37 29.7804 184.097C30.0514 182.192 30.3494 180.293 30.6741 178.4C30.7208 178.128 30.5383 177.87 30.2665 177.823C30.5401 176.252 30.832 174.686 31.1422 173.124C31.4127 173.178 31.676 173.003 31.7304 172.732C32.1098 170.847 32.5159 168.968 32.9485 167.097C33.0106 166.828 32.8432 166.56 32.5745 166.498C32.9375 164.945 33.3187 163.398 33.7179 161.856C33.9848 161.925 34.2577 161.765 34.3275 161.498C34.8142 159.638 35.3272 157.785 35.8662 155.942C35.9437 155.677 35.7919 155.399 35.5272 155.322C35.9784 153.793 36.4474 152.27 36.9342 150.754C37.1967 150.838 37.4783 150.694 37.5633 150.432C38.1555 148.602 38.7737 146.782 39.4175 144.972C39.51 144.712 39.3744 144.426 39.1146 144.334C39.6524 142.833 40.2078 141.34 40.7807 139.853C41.038 139.953 41.3273 139.825 41.4272 139.568C42.1229 137.776 42.8442 135.994 43.5906 134.224C43.6978 133.969 43.5788 133.676 43.3247 133.569C43.9474 132.102 44.5873 130.643 45.2444 129.191C45.4956 129.305 45.7918 129.194 45.9062 128.943C46.7032 127.194 47.5252 125.457 48.3719 123.731C48.4935 123.484 48.3914 123.184 48.1439 123.062C48.8493 121.634 49.5717 120.213 50.3109 118.802C50.5551 118.93 50.8572 118.836 50.9858 118.592C51.8813 116.892 52.8013 115.204 53.7455 113.53C53.8811 113.289 53.7963 112.985 53.5561 112.849C54.342 111.463 55.1445 110.087 55.9634 108.719C56.1999 108.861 56.5068 108.785 56.6491 108.549C57.6403 106.903 58.6555 105.27 59.6942 103.652C59.8433 103.42 59.776 103.111 59.5441 102.962C60.4078 101.624 61.2876 100.295 62.1835 98.9767C62.4115 99.132 62.7222 99.0734 62.8779 98.8455C63.9614 97.2594 65.0682 95.688 66.198 94.1317C66.3601 93.9084 66.3107 93.596 66.0877 93.4337C67.0265 92.1472 67.9811 90.8711 68.9513 89.6057C69.17 89.7738 69.4836 89.733 69.652 89.5145C70.8242 87.9935 72.019 86.4881 73.2362 84.9988C73.4108 84.7852 73.3794 84.4705 73.166 84.2957C74.1767 83.0653 75.2026 81.8461 76.2437 80.6382C76.4525 80.8185 76.7679 80.7958 76.9486 80.5872C78.2058 79.1358 79.4851 77.701 80.7861 76.2832C80.9727 76.0799 80.9593 75.7639 80.7562 75.5771C81.8353 74.4071 82.9291 73.2487 84.0377 72.1023C84.2357 72.2944 84.5519 72.2897 84.7443 72.0918C85.4138 71.4028 86.0887 70.7182 86.7688 70.038C87.4868 69.3201 88.2097 68.6081 88.9373 67.9021Z" stroke="#E8D7AB" stroke-opacity="0.06" stroke-linecap="round" stroke-linejoin="round" stroke-dasharray="6 6" shape-rendering="crispEdges"/>
</g>
<defs>
<filter id="filter0_d_460_6" x="0.585938" y="0.541748" width="1279.96" height="472.372" filterUnits="userSpaceOnUse" color-interpolation-filters="sRGB">
<feFlood flood-opacity="0" result="BackgroundImageFix"/>
<feColorMatrix in="SourceAlpha" type="matrix" values="0 0 0 0 0 0 0 0 0 0 0 0 0 0 0 0 0 0 127 0" result="hardAlpha"/>
<feOffset dy="-10"/>
<feComposite in2="hardAlpha" operator="out"/>
<feColorMatrix type="matrix" values="0 0 0 0 0 0 0 0 0 0 0 0 0 0 0 0 0 0 0.25 0"/>
<feBlend mode="normal" in2="BackgroundImageFix" result="effect1_dropShadow_460_6"/>
<feBlend mode="normal" in="SourceGraphic" in2="effect1_dropShadow_460_6" result="shape"/>
</filter>
<linearGradient id="paint0_linear_460_6" x1="1137.49" y1="10.5418" x2="0.585918" y2="472.914" gradientUnits="userSpaceOnUse">
<stop offset="0.5399" stop-color="#252E39" stop-opacity="0.12"/>
<stop offset="0.54" stop-color="#14171C"/>
</linearGradient>
</defs>
</svg>
