<svg width="381" height="2627" viewBox="0 0 381 2627" fill="none" xmlns="http://www.w3.org/2000/svg">
<rect x="3.3571" y="1600.41" width="373.961" height="1025.68" fill="#161B22"/>
<rect x="3.3571" y="800.406" width="373.961" height="800" fill="#161B22"/>
<rect x="3.3571" y="0.405518" width="373.961" height="800" fill="#161B22"/>
<path d="M3.35709 721.887L50.1023 721.887M3.35709 721.887L3.35709 781.893M3.35709 721.887L3.35709 661.881M377.318 721.887L377.318 781.893M377.318 721.887L377.318 661.881M377.318 721.887L330.573 721.887M190.338 961.911L190.338 901.905M190.338 961.911L143.593 961.911M190.338 961.911L237.083 961.911M190.338 481.862L190.338 541.868M190.338 481.862L143.593 481.862M190.338 481.862L237.083 481.862M3.3571 841.899L3.3571 901.905M3.3571 841.899L50.1023 841.899M3.3571 841.899L3.35709 781.893M190.338 841.899L190.338 901.905M190.338 841.899L143.593 841.899M190.338 841.899L190.338 781.893M190.338 841.899L237.083 841.899M377.319 841.899L377.319 901.905M377.319 841.899L377.318 781.893M377.319 841.899L330.573 841.899M3.35709 601.875L50.1023 601.875M3.35709 601.875L3.35709 661.881M3.35709 601.875L3.35708 541.868M190.338 601.875L190.338 661.881M190.338 601.875L190.338 541.868M190.338 601.875L143.593 601.875M190.338 601.875L237.083 601.875M377.318 601.875L377.318 661.881M377.318 601.875L377.318 541.868M377.318 601.875L330.573 601.875M96.8475 961.911L96.8474 901.905M96.8475 961.911L50.1023 961.911M96.8475 961.911L143.593 961.911M96.8474 841.899L96.8474 901.905M96.8474 841.899L50.1023 841.899M96.8474 841.899L143.593 841.899M96.8474 841.899L96.8474 781.893M96.8474 721.887L50.1023 721.887M96.8474 721.887L96.8474 781.893M96.8474 721.887L96.8474 661.881M96.8474 721.887L143.593 721.887M96.8474 601.875L50.1023 601.875M96.8474 601.875L96.8474 661.881M96.8474 601.875L96.8474 541.868M96.8474 601.875L143.593 601.875M96.8474 481.862L50.1023 481.862M96.8474 481.862L96.8474 541.868M96.8474 481.862L143.593 481.862M283.828 481.862L283.828 541.868M283.828 481.862L330.573 481.862M283.828 481.862L237.083 481.862M283.828 601.875L283.828 661.881M283.828 601.875L283.828 541.868M283.828 601.875L330.573 601.875M283.828 601.875L237.083 601.875M283.828 721.887L283.828 781.893M283.828 721.887L283.828 661.881M283.828 721.887L330.573 721.887M283.828 721.887L237.083 721.887M283.828 841.899L283.828 901.905M283.828 841.899L283.828 781.893M283.828 841.899L330.573 841.899M283.828 841.899L237.083 841.899M283.828 961.911L283.828 901.905M283.828 961.911L330.573 961.911M283.828 961.911L237.083 961.911M3.3571 901.905L3.3571 961.911L50.1023 961.911M3.3571 901.905L96.8474 901.905M96.8474 901.905L190.338 901.905M190.338 901.905L283.828 901.905M283.828 901.905L377.319 901.905M377.319 901.905L377.319 961.911L330.573 961.911M50.1023 961.911L50.1023 841.899M50.1023 841.899L50.1023 721.887M50.1023 721.887L50.1023 601.875M50.1023 601.875L50.1023 481.862M50.1023 481.862L3.35708 481.862L3.35708 541.868M143.593 961.911L143.593 841.899M143.593 841.899L143.593 721.887M96.8474 781.893L190.338 781.893M96.8474 781.893L3.35709 781.893M283.828 781.893L237.083 781.893M283.828 781.893L330.573 781.893M377.318 781.893L330.573 781.893M377.318 661.881L330.573 661.881M283.828 661.881L237.083 661.881M283.828 661.881L330.573 661.881M190.338 781.893L190.338 721.887L190.338 661.881M190.338 781.893L237.083 781.893M190.338 661.881L96.8474 661.881M190.338 661.881L237.083 661.881M96.8474 661.881L3.35709 661.881M3.35708 541.868L96.8474 541.868M96.8474 541.868L190.338 541.868M190.338 541.868L237.083 541.868M283.828 541.868L237.083 541.868M283.828 541.868L330.573 541.868M377.318 541.868L377.318 481.862L330.573 481.862M377.318 541.868L330.573 541.868M330.573 481.862L330.573 541.868M330.573 601.875L330.573 661.881M330.573 601.875L330.573 541.868M330.573 721.887L330.573 781.893M330.573 721.887L330.573 661.881M330.573 841.899L330.573 961.911M330.573 841.899L330.573 781.893M143.593 601.875L143.593 721.887M143.593 601.875L143.593 481.862M143.593 721.887L237.083 721.887M237.083 481.862L237.083 541.868M237.083 541.868L237.083 601.875M237.083 601.875L237.083 661.881M237.083 721.887L237.083 781.893M237.083 721.887L237.083 661.881M237.083 841.899L237.083 961.911M237.083 841.899L237.083 781.893" stroke="white" stroke-opacity="0.02" stroke-width="0.5"/>
<path d="M3.35686 1201.94L50.102 1201.94M3.35686 1201.94L3.35686 1261.94M3.35686 1201.94L3.35686 1141.93M377.318 1201.94L377.318 1261.94M377.318 1201.94L377.318 1141.93M377.318 1201.94L330.573 1201.94M190.338 1441.96L190.338 1381.95M190.338 1441.96L143.592 1441.96M190.338 1441.96L237.083 1441.96M190.338 961.911L190.338 1021.92M190.338 961.911L143.592 961.911M190.338 961.911L237.083 961.911M3.35687 1321.95L3.35687 1381.95M3.35687 1321.95L50.102 1321.95M3.35687 1321.95L3.35686 1261.94M190.338 1321.95L190.338 1381.95M190.338 1321.95L143.592 1321.95M190.338 1321.95L190.338 1261.94M190.338 1321.95L237.083 1321.95M377.318 1321.95L377.318 1381.95M377.318 1321.95L377.318 1261.94M377.318 1321.95L330.573 1321.95M3.35686 1081.92L50.102 1081.92M3.35686 1081.92L3.35686 1141.93M3.35686 1081.92L3.35685 1021.92M190.338 1081.92L190.338 1141.93M190.338 1081.92L190.338 1021.92M190.338 1081.92L143.592 1081.92M190.338 1081.92L237.083 1081.92M377.318 1081.92L377.318 1141.93M377.318 1081.92L377.318 1021.92M377.318 1081.92L330.573 1081.92M96.8472 1441.96L96.8472 1381.95M96.8472 1441.96L50.102 1441.96M96.8472 1441.96L143.592 1441.96M96.8472 1321.95L96.8472 1381.95M96.8472 1321.95L50.102 1321.95M96.8472 1321.95L143.592 1321.95M96.8472 1321.95L96.8472 1261.94M96.8472 1201.94L50.102 1201.94M96.8472 1201.94L96.8472 1261.94M96.8472 1201.94L96.8472 1141.93M96.8472 1201.94L143.592 1201.94M96.8472 1081.92L50.102 1081.92M96.8472 1081.92L96.8472 1141.93M96.8472 1081.92L96.8472 1021.92M96.8472 1081.92L143.592 1081.92M96.8472 961.911L50.102 961.912M96.8472 961.911L96.8472 1021.92M96.8472 961.911L143.592 961.911M283.828 961.911L283.828 1021.92M283.828 961.911L330.573 961.911M283.828 961.911L237.083 961.911M283.828 1081.92L283.828 1141.93M283.828 1081.92L283.828 1021.92M283.828 1081.92L330.573 1081.92M283.828 1081.92L237.083 1081.92M283.828 1201.94L283.828 1261.94M283.828 1201.94L283.828 1141.93M283.828 1201.94L330.573 1201.94M283.828 1201.94L237.083 1201.94M283.828 1321.95L283.828 1381.95M283.828 1321.95L283.828 1261.94M283.828 1321.95L330.573 1321.95M283.828 1321.95L237.083 1321.95M283.828 1441.96L283.828 1381.95M283.828 1441.96L330.573 1441.96M283.828 1441.96L237.083 1441.96M3.35687 1381.95L3.35687 1441.96L50.102 1441.96M3.35687 1381.95L96.8472 1381.95M96.8472 1381.95L190.338 1381.95M190.338 1381.95L283.828 1381.95M283.828 1381.95L377.318 1381.95M377.318 1381.95L377.318 1441.96L330.573 1441.96M50.102 1441.96L50.102 1321.95M50.102 1321.95L50.102 1201.94M50.102 1201.94L50.102 1081.92M50.102 1081.92L50.102 961.912M50.102 961.912L3.35685 961.912L3.35685 1021.92M143.592 1441.96L143.592 1321.95M143.592 1321.95L143.592 1201.94M96.8472 1261.94L190.338 1261.94M96.8472 1261.94L3.35686 1261.94M283.828 1261.94L237.083 1261.94M283.828 1261.94L330.573 1261.94M377.318 1261.94L330.573 1261.94M377.318 1141.93L330.573 1141.93M283.828 1141.93L237.083 1141.93M283.828 1141.93L330.573 1141.93M190.338 1261.94L190.338 1201.94L190.338 1141.93M190.338 1261.94L237.083 1261.94M190.338 1141.93L96.8472 1141.93M190.338 1141.93L237.083 1141.93M96.8472 1141.93L3.35686 1141.93M3.35685 1021.92L96.8472 1021.92M96.8472 1021.92L190.338 1021.92M190.338 1021.92L237.083 1021.92M283.828 1021.92L237.083 1021.92M283.828 1021.92L330.573 1021.92M377.318 1021.92L377.318 961.911L330.573 961.911M377.318 1021.92L330.573 1021.92M330.573 961.911L330.573 1021.92M330.573 1081.92L330.573 1141.93M330.573 1081.92L330.573 1021.92M330.573 1201.94L330.573 1261.94M330.573 1201.94L330.573 1141.93M330.573 1321.95L330.573 1441.96M330.573 1321.95L330.573 1261.94M143.592 1081.92L143.592 1201.94M143.592 1081.92L143.592 961.911M143.592 1201.94L237.083 1201.94M237.083 961.911L237.083 1021.92M237.083 1021.92L237.083 1081.92M237.083 1081.92L237.083 1141.93M237.083 1201.94L237.083 1261.94M237.083 1201.94L237.083 1141.93M237.083 1321.95L237.083 1441.96M237.083 1321.95L237.083 1261.94" stroke="white" stroke-opacity="0.02" stroke-width="0.5"/>
<path d="M3.35709 1681.99L50.1023 1681.99M3.35709 1681.99L3.35709 1741.99M3.35709 1681.99L3.35709 1621.98M377.318 1681.99L377.318 1741.99M377.318 1681.99L377.318 1621.98M377.318 1681.99L330.573 1681.99M190.338 1922.01L190.338 1862M190.338 1922.01L143.593 1922.01M190.338 1922.01L237.083 1922.01M190.338 1441.96L190.338 1501.97M190.338 1441.96L143.593 1441.96M190.338 1441.96L237.083 1441.96M3.3571 1802L3.3571 1862M3.3571 1802L50.1023 1802M3.3571 1802L3.35709 1741.99M190.338 1802L190.338 1862M190.338 1802L143.593 1802M190.338 1802L190.338 1741.99M190.338 1802L237.083 1802M377.319 1802L377.319 1862M377.319 1802L377.318 1741.99M377.319 1802L330.573 1802M3.35709 1561.97L50.1023 1561.97M3.35709 1561.97L3.35709 1621.98M3.35709 1561.97L3.35708 1501.97M190.338 1561.97L190.338 1621.98M190.338 1561.97L190.338 1501.97M190.338 1561.97L143.593 1561.97M190.338 1561.97L237.083 1561.97M377.318 1561.97L377.318 1621.98M377.318 1561.97L377.318 1501.97M377.318 1561.97L330.573 1561.97M96.8475 1922.01L96.8474 1862M96.8475 1922.01L50.1023 1922.01M96.8475 1922.01L143.593 1922.01M96.8474 1802L96.8474 1862M96.8474 1802L50.1023 1802M96.8474 1802L143.593 1802M96.8474 1802L96.8474 1741.99M96.8474 1681.99L50.1023 1681.99M96.8474 1681.99L96.8474 1741.99M96.8474 1681.99L96.8474 1621.98M96.8474 1681.99L143.593 1681.99M96.8474 1561.97L50.1023 1561.97M96.8474 1561.97L96.8474 1621.98M96.8474 1561.97L96.8474 1501.97M96.8474 1561.97L143.593 1561.97M96.8474 1441.96L50.1023 1441.96M96.8474 1441.96L96.8474 1501.97M96.8474 1441.96L143.593 1441.96M283.828 1441.96L283.828 1501.97M283.828 1441.96L330.573 1441.96M283.828 1441.96L237.083 1441.96M283.828 1561.97L283.828 1621.98M283.828 1561.97L283.828 1501.97M283.828 1561.97L330.573 1561.97M283.828 1561.97L237.083 1561.97M283.828 1681.99L283.828 1741.99M283.828 1681.99L283.828 1621.98M283.828 1681.99L330.573 1681.99M283.828 1681.99L237.083 1681.99M283.828 1802L283.828 1862M283.828 1802L283.828 1741.99M283.828 1802L330.573 1802M283.828 1802L237.083 1802M283.828 1922.01L283.828 1862M283.828 1922.01L330.573 1922.01M283.828 1922.01L237.083 1922.01M3.3571 1862L3.3571 1922.01L50.1023 1922.01M3.3571 1862L96.8474 1862M96.8474 1862L190.338 1862M190.338 1862L283.828 1862M283.828 1862L377.319 1862M377.319 1862L377.319 1922.01L330.573 1922.01M50.1023 1922.01L50.1023 1802M50.1023 1802L50.1023 1681.99M50.1023 1681.99L50.1023 1561.97M50.1023 1561.97L50.1023 1441.96M50.1023 1441.96L3.35708 1441.96L3.35708 1501.97M143.593 1922.01L143.593 1802M143.593 1802L143.593 1681.99M96.8474 1741.99L190.338 1741.99M96.8474 1741.99L3.35709 1741.99M283.828 1741.99L237.083 1741.99M283.828 1741.99L330.573 1741.99M377.318 1741.99L330.573 1741.99M377.318 1621.98L330.573 1621.98M283.828 1621.98L237.083 1621.98M283.828 1621.98L330.573 1621.98M190.338 1741.99L190.338 1681.99L190.338 1621.98M190.338 1741.99L237.083 1741.99M190.338 1621.98L96.8474 1621.98M190.338 1621.98L237.083 1621.98M96.8474 1621.98L3.35709 1621.98M3.35708 1501.97L96.8474 1501.97M96.8474 1501.97L190.338 1501.97M190.338 1501.97L237.083 1501.97M283.828 1501.97L237.083 1501.97M283.828 1501.97L330.573 1501.97M377.318 1501.97L377.318 1441.96L330.573 1441.96M377.318 1501.97L330.573 1501.97M330.573 1441.96L330.573 1501.97M330.573 1561.97L330.573 1621.98M330.573 1561.97L330.573 1501.97M330.573 1681.99L330.573 1741.99M330.573 1681.99L330.573 1621.98M330.573 1802L330.573 1922.01M330.573 1802L330.573 1741.99M143.593 1561.97L143.593 1681.99M143.593 1561.97L143.593 1441.96M143.593 1681.99L237.083 1681.99M237.083 1441.96L237.083 1501.97M237.083 1501.97L237.083 1561.97M237.083 1561.97L237.083 1621.98M237.083 1681.99L237.083 1741.99M237.083 1681.99L237.083 1621.98M237.083 1802L237.083 1922.01M237.083 1802L237.083 1741.99" stroke="white" stroke-opacity="0.02" stroke-width="0.5"/>
<path d="M3.35709 2162.03L50.1023 2162.03M3.35709 2162.03L3.35709 2222.04M3.35709 2162.03L3.35709 2102.03M377.318 2162.03L377.318 2222.04M377.318 2162.03L377.318 2102.03M377.318 2162.03L330.573 2162.03M190.338 2402.06L190.338 2342.05M190.338 2402.06L143.593 2402.06M190.338 2402.06L237.083 2402.06M190.338 1922.01L190.338 1982.02M190.338 1922.01L143.593 1922.01M190.338 1922.01L237.083 1922.01M3.3571 2282.05L3.3571 2342.05M3.3571 2282.05L50.1023 2282.05M3.3571 2282.05L3.35709 2222.04M190.338 2282.05L190.338 2342.05M190.338 2282.05L143.593 2282.05M190.338 2282.05L190.338 2222.04M190.338 2282.05L237.083 2282.05M377.319 2282.05L377.319 2342.05M377.319 2282.05L377.318 2222.04M377.319 2282.05L330.573 2282.05M3.35709 2042.02L50.1023 2042.02M3.35709 2042.02L3.35709 2102.03M3.35709 2042.02L3.35708 1982.02M190.338 2042.02L190.338 2102.03M190.338 2042.02L190.338 1982.02M190.338 2042.02L143.593 2042.02M190.338 2042.02L237.083 2042.02M377.318 2042.02L377.318 2102.03M377.318 2042.02L377.318 1982.02M377.318 2042.02L330.573 2042.02M96.8475 2402.06L96.8474 2342.05M96.8475 2402.06L50.1023 2402.06M96.8475 2402.06L143.593 2402.06M96.8474 2282.05L96.8474 2342.05M96.8474 2282.05L50.1023 2282.05M96.8474 2282.05L143.593 2282.05M96.8474 2282.05L96.8474 2222.04M96.8474 2162.03L50.1023 2162.03M96.8474 2162.03L96.8474 2222.04M96.8474 2162.03L96.8474 2102.03M96.8474 2162.03L143.593 2162.03M96.8474 2042.02L50.1023 2042.02M96.8474 2042.02L96.8474 2102.03M96.8474 2042.02L96.8474 1982.02M96.8474 2042.02L143.593 2042.02M96.8474 1922.01L50.1023 1922.01M96.8474 1922.01L96.8474 1982.02M96.8474 1922.01L143.593 1922.01M283.828 1922.01L283.828 1982.02M283.828 1922.01L330.573 1922.01M283.828 1922.01L237.083 1922.01M283.828 2042.02L283.828 2102.03M283.828 2042.02L283.828 1982.02M283.828 2042.02L330.573 2042.02M283.828 2042.02L237.083 2042.02M283.828 2162.03L283.828 2222.04M283.828 2162.03L283.828 2102.03M283.828 2162.03L330.573 2162.03M283.828 2162.03L237.083 2162.03M283.828 2282.05L283.828 2342.05M283.828 2282.05L283.828 2222.04M283.828 2282.05L330.573 2282.05M283.828 2282.05L237.083 2282.05M283.828 2402.06L283.828 2342.05M283.828 2402.06L330.573 2402.06M283.828 2402.06L237.083 2402.06M3.3571 2342.05L3.3571 2402.06L50.1023 2402.06M3.3571 2342.05L96.8474 2342.05M96.8474 2342.05L190.338 2342.05M190.338 2342.05L283.828 2342.05M283.828 2342.05L377.319 2342.05M377.319 2342.05L377.319 2402.06L330.573 2402.06M50.1023 2402.06L50.1023 2282.05M50.1023 2282.05L50.1023 2162.03M50.1023 2162.03L50.1023 2042.02M50.1023 2042.02L50.1023 1922.01M50.1023 1922.01L3.35708 1922.01L3.35708 1982.02M143.593 2402.06L143.593 2282.05M143.593 2282.05L143.593 2162.03M96.8474 2222.04L190.338 2222.04M96.8474 2222.04L3.35709 2222.04M283.828 2222.04L237.083 2222.04M283.828 2222.04L330.573 2222.04M377.318 2222.04L330.573 2222.04M377.318 2102.03L330.573 2102.03M283.828 2102.03L237.083 2102.03M283.828 2102.03L330.573 2102.03M190.338 2222.04L190.338 2162.03L190.338 2102.03M190.338 2222.04L237.083 2222.04M190.338 2102.03L96.8474 2102.03M190.338 2102.03L237.083 2102.03M96.8474 2102.03L3.35709 2102.03M3.35708 1982.02L96.8474 1982.02M96.8474 1982.02L190.338 1982.02M190.338 1982.02L237.083 1982.02M283.828 1982.02L237.083 1982.02M283.828 1982.02L330.573 1982.02M377.318 1982.02L377.318 1922.01L330.573 1922.01M377.318 1982.02L330.573 1982.02M330.573 1922.01L330.573 1982.02M330.573 2042.02L330.573 2102.03M330.573 2042.02L330.573 1982.02M330.573 2162.03L330.573 2222.04M330.573 2162.03L330.573 2102.03M330.573 2282.05L330.573 2402.06M330.573 2282.05L330.573 2222.04M143.593 2042.02L143.593 2162.03M143.593 2042.02L143.593 1922.01M143.593 2162.03L237.083 2162.03M237.083 1922.01L237.083 1982.02M237.083 1982.02L237.083 2042.02M237.083 2042.02L237.083 2102.03M237.083 2162.03L237.083 2222.04M237.083 2162.03L237.083 2102.03M237.083 2282.05L237.083 2402.06M237.083 2282.05L237.083 2222.04" stroke="white" stroke-opacity="0.02" stroke-width="0.5"/>
<path d="M190.338 2402.06L190.338 2462.07M190.338 2402.06L143.593 2402.06M190.338 2402.06L237.083 2402.06M3.35714 2522.07L50.1023 2522.07M3.35714 2522.07L3.35715 2582.08L96.8475 2582.08M3.35714 2522.07L3.35714 2462.07M190.338 2522.07L190.338 2582.08M190.338 2522.07L190.338 2462.07M190.338 2522.07L143.593 2522.07M190.338 2522.07L237.083 2522.07M377.319 2522.07L377.319 2582.08L330.573 2582.08M377.319 2522.07L377.319 2462.07M377.319 2522.07L330.573 2522.07M96.8475 2522.07L50.1023 2522.07M96.8475 2522.07L96.8475 2582.08M96.8475 2522.07L96.8475 2462.07M96.8475 2522.07L143.593 2522.07M96.8475 2402.06L50.1023 2402.06M96.8475 2402.06L96.8475 2462.07M96.8475 2402.06L143.593 2402.06M283.828 2402.06L283.828 2462.07M283.828 2402.06L330.573 2402.06M283.828 2402.06L237.083 2402.06M283.828 2522.07L283.828 2582.08M283.828 2522.07L283.828 2462.07M283.828 2522.07L330.573 2522.07M283.828 2522.07L237.083 2522.07M50.1023 2522.07L50.1023 2402.06M50.1023 2402.06L3.35714 2402.06L3.35714 2462.07M283.828 2582.08L237.083 2582.08M283.828 2582.08L330.573 2582.08M190.338 2582.08L96.8475 2582.08M190.338 2582.08L237.083 2582.08M3.35714 2462.07L96.8475 2462.07M96.8475 2462.07L190.338 2462.07M190.338 2462.07L237.083 2462.07M283.828 2462.07L237.083 2462.07M283.828 2462.07L330.573 2462.07M377.319 2462.07L377.319 2402.06L330.573 2402.06M377.319 2462.07L330.573 2462.07M330.573 2402.06L330.573 2462.07M330.573 2522.07L330.573 2582.08M330.573 2522.07L330.573 2462.07M143.593 2522.07L143.593 2402.06M237.083 2402.06L237.083 2462.07M237.083 2462.07L237.083 2522.07M237.083 2522.07L237.083 2582.08" stroke="white" stroke-opacity="0.02" stroke-width="0.5"/>
<g filter="url(#filter0_d_129_170)">
<path d="M325.138 2072.26C322.53 2063.69 313.862 2060.22 304.925 2059.54L104.175 2044.28C95.2385 2043.6 84.4708 2042 80.9547 2050.24C79.9306 2052.64 78.9934 2055.57 78.1774 2058.98L5.43611 2402.32C3.42279 2410.74 2.31803 2421.42 2.31857 2432.46L2.32816 2626.09H376.28L376.28 2570.61C376.28 2565.25 376.019 2559.93 375.509 2554.88L328.572 2090.7C327.849 2083.54 326.658 2077.26 325.138 2072.26Z" fill="url(#paint0_linear_129_170)"/>
</g>
<path d="M318.041 1072.53C319.853 1072.07 321.787 1072.57 323.113 1073.84L337.858 1088.04C339.185 1089.31 339.703 1091.18 339.218 1092.92L333.82 1112.31C333.335 1114.05 331.919 1115.42 330.107 1115.88L309.965 1121.08C308.153 1121.55 306.219 1121.05 304.893 1119.77L290.148 1105.58C288.821 1104.3 288.303 1102.44 288.788 1100.69L294.185 1081.3C294.671 1079.56 296.087 1078.2 297.899 1077.73L318.041 1072.53Z" fill="#252E39"/>
<path d="M309.971 1066.55C309.971 1068.34 308.466 1069.79 306.609 1069.79C304.753 1069.79 303.248 1068.34 303.248 1066.55C303.248 1064.77 304.753 1063.32 306.609 1063.32C308.466 1063.32 309.971 1064.77 309.971 1066.55Z" fill="#252E39"/>
<path d="M352.737 1101.26C352.737 1102.15 351.985 1102.87 351.056 1102.87C350.128 1102.87 349.376 1102.15 349.376 1101.26C349.376 1100.36 350.128 1099.64 351.056 1099.64C351.985 1099.64 352.737 1100.36 352.737 1101.26Z" fill="#252E39" fill-opacity="0.3"/>
<path d="M322.871 1074.09L337.616 1088.29C338.852 1089.48 339.331 1091.21 338.88 1092.83L333.483 1112.22C333.033 1113.84 331.716 1115.11 330.02 1115.55L309.878 1120.74C308.181 1121.18 306.373 1120.71 305.135 1119.52L290.39 1105.33C289.154 1104.14 288.675 1102.41 289.126 1100.79L294.523 1081.4C294.973 1079.78 296.29 1078.51 297.986 1078.07L318.128 1072.87C319.825 1072.44 321.633 1072.9 322.871 1074.09ZM338.101 1087.78L323.356 1073.59C321.94 1072.23 319.881 1071.7 317.953 1072.19L297.811 1077.39C295.883 1077.89 294.369 1079.34 293.848 1081.21L288.451 1100.6C287.93 1102.47 288.487 1104.47 289.905 1105.83L304.65 1120.02C306.066 1121.39 308.125 1121.92 310.053 1121.42L330.195 1116.22C332.123 1115.73 333.637 1114.27 334.158 1112.4L339.555 1093.01C340.076 1091.14 339.518 1089.15 338.101 1087.78ZM346.427 1096.81C346.427 1113.95 331.989 1127.87 314.15 1127.87C296.311 1127.87 281.873 1113.95 281.873 1096.81C281.873 1083.41 290.695 1071.98 303.067 1067.63C303.54 1069.09 304.955 1070.14 306.609 1070.14C308.646 1070.14 310.321 1068.55 310.321 1066.55C310.321 1066.35 310.304 1066.16 310.272 1065.97C311.544 1065.82 312.838 1065.75 314.15 1065.75C331.989 1065.75 346.427 1079.67 346.427 1096.81ZM302.919 1066.94C290.241 1071.36 281.173 1083.06 281.173 1096.81C281.173 1114.36 295.95 1128.57 314.15 1128.57C332.35 1128.57 347.127 1114.36 347.127 1096.81C347.127 1079.25 332.35 1065.05 314.15 1065.05C312.773 1065.05 311.416 1065.13 310.084 1065.29C309.553 1063.93 308.19 1062.97 306.609 1062.97C304.572 1062.97 302.898 1064.56 302.898 1066.55C302.898 1066.68 302.905 1066.81 302.919 1066.94ZM306.609 1069.44C305.246 1069.44 304.107 1068.58 303.73 1067.4C305.607 1066.79 307.562 1066.33 309.576 1066.06C309.606 1066.22 309.621 1066.38 309.621 1066.55C309.621 1068.13 308.285 1069.44 306.609 1069.44ZM309.362 1065.38C307.379 1065.66 305.454 1066.11 303.602 1066.71C303.599 1066.66 303.598 1066.6 303.598 1066.55C303.598 1064.97 304.933 1063.67 306.609 1063.67C307.844 1063.67 308.894 1064.38 309.362 1065.38ZM351.149 1096.81C351.149 1097.64 351.119 1098.47 351.06 1099.29C351.059 1099.29 351.058 1099.29 351.056 1099.29C349.948 1099.29 349.026 1100.16 349.026 1101.26C349.026 1102.19 349.686 1102.95 350.561 1103.16C347.446 1119.79 332.339 1132.41 314.15 1132.41C293.704 1132.41 277.151 1116.46 277.151 1096.81C277.151 1077.16 293.704 1061.2 314.15 1061.2C334.597 1061.2 351.149 1077.16 351.149 1096.81ZM352.387 1101.26C352.387 1101.84 351.971 1102.34 351.391 1102.48C351.517 1101.71 351.618 1100.93 351.692 1100.14C352.11 1100.36 352.387 1100.78 352.387 1101.26ZM349.726 1101.26C349.726 1100.58 350.281 1100.02 351.003 1099.99C350.926 1100.83 350.819 1101.65 350.683 1102.47C350.123 1102.32 349.726 1101.82 349.726 1101.26Z" stroke="#252E39" stroke-opacity="0.5" stroke-width="0.7"/>
<path d="M3.35709 241.838L50.1023 241.838M3.35709 241.838L3.35709 301.844M3.35709 241.838L3.35709 181.832M377.318 241.838L377.318 301.844M377.318 241.838L377.318 181.832M377.318 241.838L330.573 241.838M190.338 481.862L190.338 421.856M190.338 481.862L143.593 481.862M190.338 481.862L237.083 481.862M190.338 1.81311L190.338 61.8193M190.338 1.81311L143.593 1.81311M190.338 1.81311L237.083 1.81311M3.3571 361.85L3.3571 421.856M3.3571 361.85L50.1023 361.85M3.3571 361.85L3.35709 301.844M190.338 361.85L190.338 421.856M190.338 361.85L143.593 361.85M190.338 361.85L190.338 301.844M190.338 361.85L237.083 361.85M377.319 361.85L377.319 421.856M377.319 361.85L377.318 301.844M377.319 361.85L330.573 361.85M3.35709 121.825L50.1023 121.825M3.35709 121.825L3.35709 181.832M3.35709 121.825L3.35708 61.8193M190.338 121.825L190.338 181.832M190.338 121.825L190.338 61.8193M190.338 121.825L143.593 121.825M190.338 121.825L237.083 121.825M377.318 121.825L377.318 181.832M377.318 121.825L377.318 61.8192M377.318 121.825L330.573 121.825M96.8475 481.862L96.8474 421.856M96.8475 481.862L50.1023 481.862M96.8475 481.862L143.593 481.862M96.8474 361.85L96.8474 421.856M96.8474 361.85L50.1023 361.85M96.8474 361.85L143.593 361.85M96.8474 361.85L96.8474 301.844M96.8474 241.838L50.1023 241.838M96.8474 241.838L96.8474 301.844M96.8474 241.838L96.8474 181.832M96.8474 241.838L143.593 241.838M96.8474 121.825L50.1023 121.825M96.8474 121.825L96.8474 181.832M96.8474 121.825L96.8474 61.8193M96.8474 121.825L143.593 121.825M96.8474 1.81311L50.1023 1.81311M96.8474 1.81311L96.8474 61.8193M96.8474 1.81311L143.593 1.81311M283.828 1.8131L283.828 61.8193M283.828 1.8131L330.573 1.8131M283.828 1.8131L237.083 1.81311M283.828 121.825L283.828 181.832M283.828 121.825L283.828 61.8193M283.828 121.825L330.573 121.825M283.828 121.825L237.083 121.825M283.828 241.838L283.828 301.844M283.828 241.838L283.828 181.832M283.828 241.838L330.573 241.838M283.828 241.838L237.083 241.838M283.828 361.85L283.828 421.856M283.828 361.85L283.828 301.844M283.828 361.85L330.573 361.85M283.828 361.85L237.083 361.85M283.828 481.862L283.828 421.856M283.828 481.862L330.573 481.862M283.828 481.862L237.083 481.862M3.3571 421.856L3.3571 481.862L50.1023 481.862M3.3571 421.856L96.8474 421.856M96.8474 421.856L190.338 421.856M190.338 421.856L283.828 421.856M283.828 421.856L377.319 421.856M377.319 421.856L377.319 481.862L330.573 481.862M50.1023 481.862L50.1023 361.85M50.1023 361.85L50.1023 241.838M50.1023 241.838L50.1023 121.825M50.1023 121.825L50.1023 1.81311M50.1023 1.81311L3.35708 1.81312L3.35708 61.8193M143.593 481.862L143.593 361.85M143.593 361.85L143.593 241.838M96.8474 301.844L190.338 301.844M96.8474 301.844L3.35709 301.844M283.828 301.844L237.083 301.844M283.828 301.844L330.573 301.844M377.318 301.844L330.573 301.844M377.318 181.832L330.573 181.832M283.828 181.832L237.083 181.832M283.828 181.832L330.573 181.832M190.338 301.844L190.338 241.838L190.338 181.832M190.338 301.844L237.083 301.844M190.338 181.832L96.8474 181.832M190.338 181.832L237.083 181.832M96.8474 181.832L3.35709 181.832M3.35708 61.8193L96.8474 61.8193M96.8474 61.8193L190.338 61.8193M190.338 61.8193L237.083 61.8193M283.828 61.8193L237.083 61.8193M283.828 61.8193L330.573 61.8193M377.318 61.8192L377.318 1.8131L330.573 1.8131M377.318 61.8192L330.573 61.8193M330.573 1.8131L330.573 61.8193M330.573 121.825L330.573 181.832M330.573 121.825L330.573 61.8193M330.573 241.838L330.573 301.844M330.573 241.838L330.573 181.832M330.573 361.85L330.573 481.862M330.573 361.85L330.573 301.844M143.593 121.825L143.593 241.838M143.593 121.825L143.593 1.81311M143.593 241.838L237.083 241.838M237.083 1.81311L237.083 61.8193M237.083 61.8193L237.083 121.825M237.083 121.825L237.083 181.832M237.083 241.838L237.083 301.844M237.083 241.838L237.083 181.832M237.083 361.85L237.083 481.862M237.083 361.85L237.083 301.844" stroke="white" stroke-opacity="0.02" stroke-width="0.5"/>
<g filter="url(#filter1_d_129_170)">
<path d="M340.692 129.124C339.35 133.788 335.439 137.43 330.432 138.68L152.141 183.174C147.134 184.424 141.791 183.091 138.126 179.677L7.60705 58.1152C3.94168 54.7014 2.5102 49.7256 3.85182 45.0623L16.2943 1.81311L377.318 1.81311L340.692 129.124Z" fill="url(#paint1_linear_129_170)"/>
</g>
<path d="M312.396 102.954C312.791 102.592 313.357 102.46 313.88 102.608L319.698 104.254C320.221 104.402 320.623 104.808 320.751 105.318L322.179 110.991C322.308 111.502 322.143 112.04 321.748 112.402L317.359 116.429C316.964 116.791 316.398 116.923 315.874 116.775L310.057 115.129C309.533 114.981 309.132 114.575 309.003 114.065L307.575 108.391C307.447 107.881 307.611 107.343 308.006 106.981L312.396 102.954Z" fill="#212935"/>
<path d="M283.019 184.648C284.004 183.744 285.415 183.414 286.721 183.784L301.235 187.891C302.541 188.26 303.542 189.272 303.863 190.546L307.425 204.699C307.746 205.973 307.336 207.314 306.351 208.218L295.399 218.264C294.414 219.168 293.003 219.497 291.697 219.128L277.183 215.021C275.877 214.651 274.876 213.639 274.555 212.366L270.993 198.213C270.672 196.939 271.082 195.598 272.067 194.694L283.019 184.648Z" fill="#496181" fill-opacity="0.2"/>
<path d="M59.2579 354.272C61.9624 351.791 65.8363 350.888 69.4204 351.902L109.255 363.174C112.84 364.188 115.589 366.966 116.469 370.461L126.246 409.307C127.126 412.803 126.002 416.484 123.297 418.965L93.2392 446.539C90.5348 449.02 86.6609 449.924 83.0767 448.909L43.2416 437.637C39.6575 436.623 36.9077 433.845 36.028 430.35L26.251 391.504C25.3713 388.009 26.4954 384.327 29.1998 381.846L59.2579 354.272Z" fill="#252E39" fill-opacity="0.5"/>
<path d="M172.96 1315.07C175.665 1312.59 179.539 1311.69 183.123 1312.7L222.958 1323.98C226.542 1324.99 229.292 1327.77 230.172 1331.26L239.949 1370.11C240.828 1373.6 239.704 1377.29 237 1379.77L206.942 1407.34C204.237 1409.82 200.363 1410.73 196.779 1409.71L156.944 1398.44C153.36 1397.43 150.61 1394.65 149.73 1391.15L139.953 1352.31C139.074 1348.81 140.198 1345.13 142.902 1342.65L172.96 1315.07Z" fill="#252E39" fill-opacity="0.1"/>
<path d="M102.585 2021.14C104.214 2021.16 105.709 2022.01 106.508 2023.38L115.385 2038.57C116.184 2039.93 116.165 2041.61 115.335 2042.96L106.11 2057.95C105.28 2059.3 103.766 2060.12 102.137 2060.1L84.0352 2059.91C82.4065 2059.89 80.9112 2059.04 80.1124 2057.67L71.2352 2042.49C70.4365 2041.12 70.4557 2039.45 71.2857 2038.1L80.5103 2023.1C81.3402 2021.75 82.8548 2020.93 84.4835 2020.95L102.585 2021.14Z" fill="#29405F" fill-opacity="0.2"/>
<path d="M67.1961 718.955C69.0084 718.487 70.942 718.986 72.2687 720.263L87.0137 734.457C88.3403 735.735 88.8585 737.596 88.3729 739.341L82.9758 758.731C82.4902 760.475 81.0747 761.838 79.2625 762.305L59.1204 767.501C57.3082 767.968 55.3745 767.47 54.0479 766.193L39.3029 751.998C37.9762 750.721 37.4581 748.859 37.9437 747.115L43.3407 727.725C43.8263 725.98 45.2419 724.618 47.0541 724.15L67.1961 718.955Z" fill="#252E39"/>
<path d="M59.1262 712.974C59.1262 714.761 57.6212 716.21 55.7646 716.21C53.908 716.21 52.403 714.761 52.403 712.974C52.403 711.186 53.908 709.738 55.7646 709.738C57.6212 709.738 59.1262 711.186 59.1262 712.974Z" fill="#252E39"/>
<path d="M101.893 747.676C101.893 748.57 101.14 749.294 100.212 749.294C99.2835 749.294 98.5309 748.57 98.5309 747.676C98.5309 746.783 99.2835 746.058 100.212 746.058C101.14 746.058 101.893 746.783 101.893 747.676Z" fill="#252E39" fill-opacity="0.3"/>
<path d="M72.026 720.515L86.771 734.71C88.0069 735.899 88.4861 737.629 88.0357 739.247L82.6387 758.637C82.1879 760.256 80.8713 761.529 79.175 761.967L59.033 767.162C57.3361 767.6 55.528 767.132 54.2906 765.94L39.5456 751.746C38.3097 750.556 37.8305 748.827 38.2809 747.209L43.6779 727.819C44.1286 726.199 45.4453 724.926 47.1415 724.489L67.2836 719.293C68.9805 718.856 70.7886 719.324 72.026 720.515ZM87.2564 734.205L72.5114 720.011C71.0955 718.648 69.0363 718.118 67.1087 718.616L46.9667 723.811C45.0384 724.309 43.524 725.761 43.0036 727.631L37.6065 747.021C37.0857 748.892 37.6428 750.886 39.0602 752.25L53.8051 766.445C55.2211 767.808 57.2803 768.337 59.2079 767.84L79.3499 762.644C81.2782 762.147 82.7925 760.694 83.313 758.825L88.7101 739.434C89.2309 737.563 88.6738 735.57 87.2564 734.205ZM95.5825 743.228C95.5825 760.369 81.1442 774.287 63.3055 774.287C45.4667 774.287 31.0285 760.369 31.0285 743.228C31.0285 729.829 39.8501 718.4 52.222 714.048C52.6957 715.51 54.1106 716.56 55.7646 716.56C57.8018 716.56 59.4762 714.967 59.4762 712.974C59.4762 712.775 59.4596 712.58 59.4276 712.391C60.6989 712.244 61.993 712.169 63.3055 712.169C81.1442 712.169 95.5825 726.087 95.5825 743.228ZM52.074 713.359C39.3963 717.781 30.3285 729.478 30.3285 743.228C30.3285 760.78 45.1054 774.987 63.3055 774.987C81.5055 774.987 96.2825 760.78 96.2825 743.228C96.2825 725.675 81.5055 711.469 63.3055 711.469C61.9287 711.469 60.5716 711.55 59.2389 711.708C58.7079 710.347 57.3454 709.388 55.7646 709.388C53.7274 709.388 52.053 710.981 52.053 712.974C52.053 713.104 52.0601 713.232 52.074 713.359ZM55.7646 715.86C54.401 715.86 53.2626 714.996 52.8857 713.822C54.7624 713.207 56.717 712.753 58.7318 712.478C58.761 712.639 58.7762 712.805 58.7762 712.974C58.7762 714.555 57.4405 715.86 55.7646 715.86ZM58.5168 711.801C56.5345 712.079 54.6091 712.527 52.7572 713.129C52.7544 713.077 52.753 713.026 52.753 712.974C52.753 711.392 54.0886 710.088 55.7646 710.088C56.9995 710.088 58.0496 710.796 58.5168 711.801ZM100.304 743.228C100.304 744.062 100.274 744.889 100.216 745.708C100.214 745.708 100.213 745.708 100.212 745.708C99.1028 745.708 98.1809 746.577 98.1809 747.676C98.1809 748.607 98.841 749.372 99.716 749.585C96.6018 766.207 81.4945 778.832 63.3055 778.832C42.8589 778.832 26.3067 762.879 26.3067 743.228C26.3067 723.576 42.8589 707.623 63.3055 707.623C83.752 707.623 100.304 723.576 100.304 743.228ZM101.543 747.676C101.543 748.257 101.126 748.762 100.546 748.904C100.672 748.131 100.773 747.35 100.847 746.562C101.265 746.778 101.543 747.202 101.543 747.676ZM98.8809 747.676C98.8809 747.005 99.4366 746.436 100.158 746.409C100.081 747.246 99.9743 748.075 99.8381 748.894C99.2786 748.739 98.8809 748.244 98.8809 747.676Z" stroke="#252E39" stroke-opacity="0.5" stroke-width="0.7"/>
<path d="M3.3571 1678.06L52.2161 1627.93C56.5762 1623.45 66.0465 1622.53 72.2476 1625.97L141.736 1664.54C147.937 1667.99 157.408 1667.06 161.768 1662.59L210.627 1612.45C214.987 1607.98 224.457 1607.06 230.658 1610.5L300.147 1649.07C306.348 1652.51 315.819 1651.59 320.179 1647.11L377.308 1588.5" stroke="#384559" stroke-opacity="0.5" stroke-width="0.3" stroke-linecap="round" stroke-dasharray="1 1"/>
<path d="M21.646 1650.39C25.2097 1650.39 28.4799 1652.21 30.2595 1655.18L30.8685 1656.2C32.6921 1659.25 32.673 1663.04 30.8187 1666.13L30.3747 1666.87C28.5203 1669.95 25.1172 1671.86 21.4654 1671.86L20.2458 1671.86C16.682 1671.85 13.4118 1670.03 11.6323 1667.06L11.0232 1666.04C9.19969 1663 9.21873 1659.2 11.0731 1656.12L11.5171 1655.38C13.3714 1652.29 16.7746 1650.38 20.4264 1650.39L21.646 1650.39Z" fill="#3E4957" fill-opacity="0.5"/>
<path d="M261.371 1610.32C262.68 1609.85 264.135 1610.08 265.216 1610.93L275.328 1618.92C276.461 1619.82 277.011 1621.26 276.766 1622.69L274.677 1634.88C274.431 1636.31 273.429 1637.5 272.058 1638L259.816 1642.43C258.507 1642.91 257.052 1642.68 255.971 1641.82L245.859 1633.83C244.727 1632.94 244.177 1631.5 244.422 1630.07L246.511 1617.88C246.756 1616.45 247.758 1615.25 249.129 1614.76L261.371 1610.32Z" fill="#3E4957" fill-opacity="0.5"/>
<path d="M361.552 1592.02C364.648 1590.89 368.088 1591.44 370.645 1593.46L370.87 1593.64C373.409 1595.65 374.642 1598.88 374.093 1602.08V1602.08C373.543 1605.29 371.297 1607.97 368.223 1609.08L367.95 1609.18C364.855 1610.3 361.415 1609.76 358.858 1607.74L358.633 1607.56C356.094 1605.55 354.86 1602.32 355.41 1599.11V1599.11C355.959 1595.91 358.206 1593.23 361.28 1592.12L361.552 1592.02Z" fill="#3E4957" fill-opacity="0.5"/>
<ellipse cx="62.1455" cy="1624.05" rx="12.733" ry="12.2615" stroke="#252E39" stroke-width="0.3" stroke-linecap="round" stroke-dasharray="1 1"/>
<path d="M65.6985 1624.05C65.6985 1625.94 64.1113 1627.47 62.1454 1627.47C60.1795 1627.47 58.5923 1625.94 58.5923 1624.05C58.5923 1622.17 60.1795 1620.64 62.1454 1620.64C64.1113 1620.64 65.6985 1622.17 65.6985 1624.05Z" stroke="#43505F" stroke-opacity="0.5" stroke-width="0.2"/>
<path d="M223.601 1608.48C223.601 1610.13 222.207 1611.5 220.448 1611.5C218.689 1611.5 217.295 1610.13 217.295 1608.48C217.295 1606.83 218.689 1605.46 220.448 1605.46C222.207 1605.46 223.601 1606.83 223.601 1608.48Z" stroke="#43505F" stroke-opacity="0.5"/>
<path d="M314.711 1650.93C314.711 1652.58 313.317 1653.95 311.558 1653.95C309.799 1653.95 308.405 1652.58 308.405 1650.93C308.405 1649.28 309.799 1647.91 311.558 1647.91C313.317 1647.91 314.711 1649.28 314.711 1650.93Z" stroke="#43505F" stroke-opacity="0.5"/>
<defs>
<filter id="filter0_d_129_170" x="2.31857" y="2038.69" width="373.961" height="587.4" filterUnits="userSpaceOnUse" color-interpolation-filters="sRGB">
<feFlood flood-opacity="0" result="BackgroundImageFix"/>
<feColorMatrix in="SourceAlpha" type="matrix" values="0 0 0 0 0 0 0 0 0 0 0 0 0 0 0 0 0 0 127 0" result="hardAlpha"/>
<feOffset dy="-5"/>
<feComposite in2="hardAlpha" operator="out"/>
<feColorMatrix type="matrix" values="0 0 0 0 0 0 0 0 0 0 0 0 0 0 0 0 0 0 0.1 0"/>
<feBlend mode="normal" in2="BackgroundImageFix" result="effect1_dropShadow_129_170"/>
<feBlend mode="normal" in="SourceGraphic" in2="effect1_dropShadow_129_170" result="shape"/>
</filter>
<filter id="filter1_d_129_170" x="0.357101" y="1.81311" width="379.961" height="187.822" filterUnits="userSpaceOnUse" color-interpolation-filters="sRGB">
<feFlood flood-opacity="0" result="BackgroundImageFix"/>
<feColorMatrix in="SourceAlpha" type="matrix" values="0 0 0 0 0 0 0 0 0 0 0 0 0 0 0 0 0 0 127 0" result="hardAlpha"/>
<feOffset dy="3"/>
<feGaussianBlur stdDeviation="1.5"/>
<feComposite in2="hardAlpha" operator="out"/>
<feColorMatrix type="matrix" values="0 0 0 0 0 0 0 0 0 0 0 0 0 0 0 0 0 0 0.25 0"/>
<feBlend mode="normal" in2="BackgroundImageFix" result="effect1_dropShadow_129_170"/>
<feBlend mode="normal" in="SourceGraphic" in2="effect1_dropShadow_129_170" result="shape"/>
</filter>
<linearGradient id="paint0_linear_129_170" x1="189.299" y1="2025.53" x2="-224.395" y2="2137.2" gradientUnits="userSpaceOnUse">
<stop offset="0.441825" stop-color="#14171C"/>
<stop offset="0.442167" stop-color="#19212B"/>
<stop offset="0.442167" stop-color="#151A21"/>
</linearGradient>
<linearGradient id="paint1_linear_129_170" x1="71.4009" y1="221.672" x2="315.046" y2="-104.417" gradientUnits="userSpaceOnUse">
<stop offset="0.522632" stop-color="#13171C"/>
<stop offset="0.522732" stop-color="#151921"/>
</linearGradient>
</defs>
</svg>
