<svg width="401" height="8188" viewBox="0 0 401 8188" fill="none" xmlns="http://www.w3.org/2000/svg">
<rect x="0.357025" y="4997.2" width="400" height="3190.14" fill="#161B22"/>
<rect x="0.357025" y="2498.8" width="400" height="2498.4" fill="#161B22"/>
<rect x="0.357025" y="0.405518" width="400" height="2498.4" fill="#161B22"/>
<path d="M0.35696 250.406L50.3569 250.406M0.35696 250.406L0.356961 312.906M0.35696 250.406L0.35696 187.906M400.357 250.405L400.357 312.905M400.357 250.405L400.357 187.905M400.357 250.405L350.357 250.405M200.357 500.405L200.357 437.905M200.357 500.405L150.357 500.405M200.357 500.405L250.357 500.405M200.357 0.405503L200.357 62.9055M200.357 0.405503L150.357 0.405509M200.357 0.405503L250.357 0.405496M0.356962 375.406L0.356963 437.906M0.356962 375.406L50.3569 375.406M0.356962 375.406L0.356961 312.906M200.357 375.405L200.357 437.905M200.357 375.405L150.357 375.406M200.357 375.405L200.357 312.905M200.357 375.405L250.357 375.405M400.357 375.405L400.357 437.905M400.357 375.405L400.357 312.905M400.357 375.405L350.357 375.405M0.356959 125.406L50.3569 125.406M0.356959 125.406L0.35696 187.906M0.356959 125.406L0.356958 62.9055M200.357 125.405L200.357 187.905M200.357 125.405L200.357 62.9055M200.357 125.405L150.357 125.406M200.357 125.405L250.357 125.405M400.357 125.405L400.357 187.905M400.357 125.405L400.357 62.9055M400.357 125.405L350.357 125.405M100.357 500.406L100.357 437.906M100.357 500.406L50.3569 500.406M100.357 500.406L150.357 500.405M100.357 375.406L100.357 437.906M100.357 375.406L50.3569 375.406M100.357 375.406L150.357 375.406M100.357 375.406L100.357 312.906M100.357 250.406L50.3569 250.406M100.357 250.406L100.357 312.906M100.357 250.406L100.357 187.906M100.357 250.406L150.357 250.406M100.357 125.406L50.3569 125.406M100.357 125.406L100.357 187.906M100.357 125.406L100.357 62.9055M100.357 125.406L150.357 125.406M100.357 0.405516L50.3569 0.405522M100.357 0.405516L100.357 62.9055M100.357 0.405516L150.357 0.405509M300.357 0.405489L300.357 62.9055M300.357 0.405489L350.357 0.405483M300.357 0.405489L250.357 0.405496M300.357 125.405L300.357 187.905M300.357 125.405L300.357 62.9055M300.357 125.405L350.357 125.405M300.357 125.405L250.357 125.405M300.357 250.405L300.357 312.905M300.357 250.405L300.357 187.905M300.357 250.405L350.357 250.405M300.357 250.405L250.357 250.405M300.357 375.405L300.357 437.905M300.357 375.405L300.357 312.905M300.357 375.405L350.357 375.405M300.357 375.405L250.357 375.405M300.357 500.405L300.357 437.905M300.357 500.405L350.357 500.405M300.357 500.405L250.357 500.405M0.356963 437.906L0.356964 500.406L50.3569 500.406M0.356963 437.906L100.357 437.906M100.357 437.906L200.357 437.905M200.357 437.905L300.357 437.905M300.357 437.905L400.357 437.905M400.357 437.905L400.357 500.405L350.357 500.405M50.3569 500.406L50.3569 375.406M50.3569 375.406L50.3569 250.406M50.3569 250.406L50.3569 125.406M50.3569 125.406L50.3569 0.405522M50.3569 0.405522L0.356957 0.405529L0.356958 62.9055M150.357 500.405L150.357 375.406M150.357 375.406L150.357 250.406M100.357 312.906L200.357 312.905M100.357 312.906L0.356961 312.906M300.357 312.905L250.357 312.905M300.357 312.905L350.357 312.905M400.357 312.905L350.357 312.905M400.357 187.905L350.357 187.905M300.357 187.905L250.357 187.905M300.357 187.905L350.357 187.905M200.357 312.905L200.357 250.405L200.357 187.905M200.357 312.905L250.357 312.905M200.357 187.905L100.357 187.906M200.357 187.905L250.357 187.905M100.357 187.906L0.35696 187.906M0.356958 62.9055L100.357 62.9055M100.357 62.9055L200.357 62.9055M200.357 62.9055L250.357 62.9055M300.357 62.9055L250.357 62.9055M300.357 62.9055L350.357 62.9055M400.357 62.9055L400.357 0.405476L350.357 0.405483M400.357 62.9055L350.357 62.9055M350.357 0.405483L350.357 62.9055M350.357 125.405L350.357 187.905M350.357 125.405L350.357 62.9055M350.357 250.405L350.357 312.905M350.357 250.405L350.357 187.905M350.357 375.405L350.357 500.405M350.357 375.405L350.357 312.905M150.357 125.406L150.357 250.406M150.357 125.406L150.357 0.405509M150.357 250.406L250.357 250.405M250.357 0.405496L250.357 62.9055M250.357 62.9055L250.357 125.405M250.357 125.405L250.357 187.905M250.357 250.405L250.357 312.905M250.357 250.405L250.357 187.905M250.357 375.405L250.357 500.405M250.357 375.405L250.357 312.905" stroke="white" stroke-opacity="0.02" stroke-width="0.5"/>
<path d="M0.356915 750.406L50.3569 750.406M0.356915 750.406L0.356916 812.906M0.356915 750.406L0.356914 687.906M400.357 750.405L400.357 812.905M400.357 750.405L400.357 687.905M400.357 750.405L350.357 750.405M200.357 1000.41L200.357 937.905M200.357 1000.41L150.357 1000.41M200.357 1000.41L250.357 1000.41M200.357 500.406L200.357 562.906M200.357 500.406L150.357 500.406M200.357 500.406L250.357 500.405M0.356917 875.406L0.356917 937.906M0.356917 875.406L50.3569 875.406M0.356917 875.406L0.356916 812.906M200.357 875.405L200.357 937.905M200.357 875.405L150.357 875.406M200.357 875.405L200.357 812.905M200.357 875.405L250.357 875.405M400.357 875.405L400.357 937.905M400.357 875.405L400.357 812.905M400.357 875.405L350.357 875.405M0.356913 625.406L50.3569 625.406M0.356913 625.406L0.356914 687.906M0.356913 625.406L0.356912 562.906M200.357 625.405L200.357 687.905M200.357 625.405L200.357 562.906M200.357 625.405L150.357 625.406M200.357 625.405L250.357 625.405M400.357 625.405L400.357 687.905M400.357 625.405L400.357 562.905M400.357 625.405L350.357 625.405M100.357 1000.41L100.357 937.906M100.357 1000.41L50.3569 1000.41M100.357 1000.41L150.357 1000.41M100.357 875.406L100.357 937.906M100.357 875.406L50.3569 875.406M100.357 875.406L150.357 875.406M100.357 875.406L100.357 812.906M100.357 750.406L50.3569 750.406M100.357 750.406L100.357 812.906M100.357 750.406L100.357 687.906M100.357 750.406L150.357 750.406M100.357 625.406L50.3569 625.406M100.357 625.406L100.357 687.906M100.357 625.406L100.357 562.906M100.357 625.406L150.357 625.406M100.357 500.406L50.3569 500.406M100.357 500.406L100.357 562.906M100.357 500.406L150.357 500.406M300.357 500.405L300.357 562.905M300.357 500.405L350.357 500.405M300.357 500.405L250.357 500.405M300.357 625.405L300.357 687.905M300.357 625.405L300.357 562.905M300.357 625.405L350.357 625.405M300.357 625.405L250.357 625.405M300.357 750.405L300.357 812.905M300.357 750.405L300.357 687.905M300.357 750.405L350.357 750.405M300.357 750.405L250.357 750.405M300.357 875.405L300.357 937.905M300.357 875.405L300.357 812.905M300.357 875.405L350.357 875.405M300.357 875.405L250.357 875.405M300.357 1000.41L300.357 937.905M300.357 1000.41L350.357 1000.41M300.357 1000.41L250.357 1000.41M0.356917 937.906L0.356918 1000.41L50.3569 1000.41M0.356917 937.906L100.357 937.906M100.357 937.906L200.357 937.905M200.357 937.905L300.357 937.905M300.357 937.905L400.357 937.905M400.357 937.905L400.357 1000.41L350.357 1000.41M50.3569 1000.41L50.3569 875.406M50.3569 875.406L50.3569 750.406M50.3569 750.406L50.3569 625.406M50.3569 625.406L50.3569 500.406M50.3569 500.406L0.356911 500.406L0.356912 562.906M150.357 1000.41L150.357 875.406M150.357 875.406L150.357 750.406M100.357 812.906L200.357 812.905M100.357 812.906L0.356916 812.906M300.357 812.905L250.357 812.905M300.357 812.905L350.357 812.905M400.357 812.905L350.357 812.905M400.357 687.905L350.357 687.905M300.357 687.905L250.357 687.905M300.357 687.905L350.357 687.905M200.357 812.905L200.357 750.405L200.357 687.905M200.357 812.905L250.357 812.905M200.357 687.905L100.357 687.906M200.357 687.905L250.357 687.905M100.357 687.906L0.356914 687.906M0.356912 562.906L100.357 562.906M100.357 562.906L200.357 562.906M200.357 562.906L250.357 562.905M300.357 562.905L250.357 562.905M300.357 562.905L350.357 562.905M400.357 562.905L400.357 500.405L350.357 500.405M400.357 562.905L350.357 562.905M350.357 500.405L350.357 562.905M350.357 625.405L350.357 687.905M350.357 625.405L350.357 562.905M350.357 750.405L350.357 812.905M350.357 750.405L350.357 687.905M350.357 875.405L350.357 1000.41M350.357 875.405L350.357 812.905M150.357 625.406L150.357 750.406M150.357 625.406L150.357 500.406M150.357 750.406L250.357 750.405M250.357 500.405L250.357 562.905M250.357 562.905L250.357 625.405M250.357 625.405L250.357 687.905M250.357 750.405L250.357 812.905M250.357 750.405L250.357 687.905M250.357 875.405L250.357 1000.41M250.357 875.405L250.357 812.905" stroke="white" stroke-opacity="0.02" stroke-width="0.5"/>
<path d="M0.357006 1249.6L50.357 1249.6M0.357006 1249.6L0.357007 1312.1M0.357006 1249.6L0.357005 1187.1M400.357 1249.6L400.357 1312.1M400.357 1249.6L400.357 1187.1M400.357 1249.6L350.357 1249.6M200.357 1499.6L200.357 1437.1M200.357 1499.6L150.357 1499.6M200.357 1499.6L250.357 1499.6M200.357 999.604L200.357 1062.1M200.357 999.604L150.357 999.604M200.357 999.604L250.357 999.604M0.357008 1374.6L0.357009 1437.1M0.357008 1374.6L50.357 1374.6M0.357008 1374.6L0.357007 1312.1M200.357 1374.6L200.357 1437.1M200.357 1374.6L150.357 1374.6M200.357 1374.6L200.357 1312.1M200.357 1374.6L250.357 1374.6M400.357 1374.6L400.357 1437.1M400.357 1374.6L400.357 1312.1M400.357 1374.6L350.357 1374.6M0.357004 1124.6L50.357 1124.6M0.357004 1124.6L0.357005 1187.1M0.357004 1124.6L0.357004 1062.1M200.357 1124.6L200.357 1187.1M200.357 1124.6L200.357 1062.1M200.357 1124.6L150.357 1124.6M200.357 1124.6L250.357 1124.6M400.357 1124.6L400.357 1187.1M400.357 1124.6L400.357 1062.1M400.357 1124.6L350.357 1124.6M100.357 1499.6L100.357 1437.1M100.357 1499.6L50.357 1499.6M100.357 1499.6L150.357 1499.6M100.357 1374.6L100.357 1437.1M100.357 1374.6L50.357 1374.6M100.357 1374.6L150.357 1374.6M100.357 1374.6L100.357 1312.1M100.357 1249.6L50.357 1249.6M100.357 1249.6L100.357 1312.1M100.357 1249.6L100.357 1187.1M100.357 1249.6L150.357 1249.6M100.357 1124.6L50.357 1124.6M100.357 1124.6L100.357 1187.1M100.357 1124.6L100.357 1062.1M100.357 1124.6L150.357 1124.6M100.357 999.604L50.357 999.604M100.357 999.604L100.357 1062.1M100.357 999.604L150.357 999.604M300.357 999.604L300.357 1062.1M300.357 999.604L350.357 999.604M300.357 999.604L250.357 999.604M300.357 1124.6L300.357 1187.1M300.357 1124.6L300.357 1062.1M300.357 1124.6L350.357 1124.6M300.357 1124.6L250.357 1124.6M300.357 1249.6L300.357 1312.1M300.357 1249.6L300.357 1187.1M300.357 1249.6L350.357 1249.6M300.357 1249.6L250.357 1249.6M300.357 1374.6L300.357 1437.1M300.357 1374.6L300.357 1312.1M300.357 1374.6L350.357 1374.6M300.357 1374.6L250.357 1374.6M300.357 1499.6L300.357 1437.1M300.357 1499.6L350.357 1499.6M300.357 1499.6L250.357 1499.6M0.357009 1437.1L0.35701 1499.6L50.357 1499.6M0.357009 1437.1L100.357 1437.1M100.357 1437.1L200.357 1437.1M200.357 1437.1L300.357 1437.1M300.357 1437.1L400.357 1437.1M400.357 1437.1L400.357 1499.6L350.357 1499.6M50.357 1499.6L50.357 1374.6M50.357 1374.6L50.357 1249.6M50.357 1249.6L50.357 1124.6M50.357 1124.6L50.357 999.604M50.357 999.604L0.357003 999.604L0.357004 1062.1M150.357 1499.6L150.357 1374.6M150.357 1374.6L150.357 1249.6M100.357 1312.1L200.357 1312.1M100.357 1312.1L0.357007 1312.1M300.357 1312.1L250.357 1312.1M300.357 1312.1L350.357 1312.1M400.357 1312.1L350.357 1312.1M400.357 1187.1L350.357 1187.1M300.357 1187.1L250.357 1187.1M300.357 1187.1L350.357 1187.1M200.357 1312.1L200.357 1249.6L200.357 1187.1M200.357 1312.1L250.357 1312.1M200.357 1187.1L100.357 1187.1M200.357 1187.1L250.357 1187.1M100.357 1187.1L0.357005 1187.1M0.357004 1062.1L100.357 1062.1M100.357 1062.1L200.357 1062.1M200.357 1062.1L250.357 1062.1M300.357 1062.1L250.357 1062.1M300.357 1062.1L350.357 1062.1M400.357 1062.1L400.357 999.604L350.357 999.604M400.357 1062.1L350.357 1062.1M350.357 999.604L350.357 1062.1M350.357 1124.6L350.357 1187.1M350.357 1124.6L350.357 1062.1M350.357 1249.6L350.357 1312.1M350.357 1249.6L350.357 1187.1M350.357 1374.6L350.357 1499.6M350.357 1374.6L350.357 1312.1M150.357 1124.6L150.357 1249.6M150.357 1124.6L150.357 999.604M150.357 1249.6L250.357 1249.6M250.357 999.604L250.357 1062.1M250.357 1062.1L250.357 1124.6M250.357 1124.6L250.357 1187.1M250.357 1249.6L250.357 1312.1M250.357 1249.6L250.357 1187.1M250.357 1374.6L250.357 1499.6M250.357 1374.6L250.357 1312.1" stroke="white" stroke-opacity="0.02" stroke-width="0.5"/>
<path d="M0.357006 1749.6L50.357 1749.6M0.357006 1749.6L0.357007 1812.1M0.357006 1749.6L0.357005 1687.1M400.357 1749.6L400.357 1812.1M400.357 1749.6L400.357 1687.1M400.357 1749.6L350.357 1749.6M200.357 1999.6L200.357 1937.1M200.357 1999.6L150.357 1999.6M200.357 1999.6L250.357 1999.6M200.357 1499.6L200.357 1562.1M200.357 1499.6L150.357 1499.6M200.357 1499.6L250.357 1499.6M0.357008 1874.6L0.357009 1937.1M0.357008 1874.6L50.357 1874.6M0.357008 1874.6L0.357007 1812.1M200.357 1874.6L200.357 1937.1M200.357 1874.6L150.357 1874.6M200.357 1874.6L200.357 1812.1M200.357 1874.6L250.357 1874.6M400.357 1874.6L400.357 1937.1M400.357 1874.6L400.357 1812.1M400.357 1874.6L350.357 1874.6M0.357004 1624.6L50.357 1624.6M0.357004 1624.6L0.357005 1687.1M0.357004 1624.6L0.357004 1562.1M200.357 1624.6L200.357 1687.1M200.357 1624.6L200.357 1562.1M200.357 1624.6L150.357 1624.6M200.357 1624.6L250.357 1624.6M400.357 1624.6L400.357 1687.1M400.357 1624.6L400.357 1562.1M400.357 1624.6L350.357 1624.6M100.357 1999.6L100.357 1937.1M100.357 1999.6L50.357 1999.6M100.357 1999.6L150.357 1999.6M100.357 1874.6L100.357 1937.1M100.357 1874.6L50.357 1874.6M100.357 1874.6L150.357 1874.6M100.357 1874.6L100.357 1812.1M100.357 1749.6L50.357 1749.6M100.357 1749.6L100.357 1812.1M100.357 1749.6L100.357 1687.1M100.357 1749.6L150.357 1749.6M100.357 1624.6L50.357 1624.6M100.357 1624.6L100.357 1687.1M100.357 1624.6L100.357 1562.1M100.357 1624.6L150.357 1624.6M100.357 1499.6L50.357 1499.6M100.357 1499.6L100.357 1562.1M100.357 1499.6L150.357 1499.6M300.357 1499.6L300.357 1562.1M300.357 1499.6L350.357 1499.6M300.357 1499.6L250.357 1499.6M300.357 1624.6L300.357 1687.1M300.357 1624.6L300.357 1562.1M300.357 1624.6L350.357 1624.6M300.357 1624.6L250.357 1624.6M300.357 1749.6L300.357 1812.1M300.357 1749.6L300.357 1687.1M300.357 1749.6L350.357 1749.6M300.357 1749.6L250.357 1749.6M300.357 1874.6L300.357 1937.1M300.357 1874.6L300.357 1812.1M300.357 1874.6L350.357 1874.6M300.357 1874.6L250.357 1874.6M300.357 1999.6L300.357 1937.1M300.357 1999.6L350.357 1999.6M300.357 1999.6L250.357 1999.6M0.357009 1937.1L0.35701 1999.6L50.357 1999.6M0.357009 1937.1L100.357 1937.1M100.357 1937.1L200.357 1937.1M200.357 1937.1L300.357 1937.1M300.357 1937.1L400.357 1937.1M400.357 1937.1L400.357 1999.6L350.357 1999.6M50.357 1999.6L50.357 1874.6M50.357 1874.6L50.357 1749.6M50.357 1749.6L50.357 1624.6M50.357 1624.6L50.357 1499.6M50.357 1499.6L0.357003 1499.6L0.357004 1562.1M150.357 1999.6L150.357 1874.6M150.357 1874.6L150.357 1749.6M100.357 1812.1L200.357 1812.1M100.357 1812.1L0.357007 1812.1M300.357 1812.1L250.357 1812.1M300.357 1812.1L350.357 1812.1M400.357 1812.1L350.357 1812.1M400.357 1687.1L350.357 1687.1M300.357 1687.1L250.357 1687.1M300.357 1687.1L350.357 1687.1M200.357 1812.1L200.357 1749.6L200.357 1687.1M200.357 1812.1L250.357 1812.1M200.357 1687.1L100.357 1687.1M200.357 1687.1L250.357 1687.1M100.357 1687.1L0.357005 1687.1M0.357004 1562.1L100.357 1562.1M100.357 1562.1L200.357 1562.1M200.357 1562.1L250.357 1562.1M300.357 1562.1L250.357 1562.1M300.357 1562.1L350.357 1562.1M400.357 1562.1L400.357 1499.6L350.357 1499.6M400.357 1562.1L350.357 1562.1M350.357 1499.6L350.357 1562.1M350.357 1624.6L350.357 1687.1M350.357 1624.6L350.357 1562.1M350.357 1749.6L350.357 1812.1M350.357 1749.6L350.357 1687.1M350.357 1874.6L350.357 1999.6M350.357 1874.6L350.357 1812.1M150.357 1624.6L150.357 1749.6M150.357 1624.6L150.357 1499.6M150.357 1749.6L250.357 1749.6M250.357 1499.6L250.357 1562.1M250.357 1562.1L250.357 1624.6M250.357 1624.6L250.357 1687.1M250.357 1749.6L250.357 1812.1M250.357 1749.6L250.357 1687.1M250.357 1874.6L250.357 1999.6M250.357 1874.6L250.357 1812.1" stroke="white" stroke-opacity="0.02" stroke-width="0.5"/>
<path d="M0.357006 2249.6L50.357 2249.6M0.357006 2249.6L0.357007 2312.1M0.357006 2249.6L0.357005 2187.1M400.357 2249.6L400.357 2312.1M400.357 2249.6L400.357 2187.1M400.357 2249.6L350.357 2249.6M200.357 2499.6L200.357 2437.1M200.357 2499.6L150.357 2499.6M200.357 2499.6L250.357 2499.6M200.357 1999.6L200.357 2062.1M200.357 1999.6L150.357 1999.6M200.357 1999.6L250.357 1999.6M0.357008 2374.6L0.357009 2437.1M0.357008 2374.6L50.357 2374.6M0.357008 2374.6L0.357007 2312.1M200.357 2374.6L200.357 2437.1M200.357 2374.6L150.357 2374.6M200.357 2374.6L200.357 2312.1M200.357 2374.6L250.357 2374.6M400.357 2374.6L400.357 2437.1M400.357 2374.6L400.357 2312.1M400.357 2374.6L350.357 2374.6M0.357004 2124.6L50.357 2124.6M0.357004 2124.6L0.357005 2187.1M0.357004 2124.6L0.357004 2062.1M200.357 2124.6L200.357 2187.1M200.357 2124.6L200.357 2062.1M200.357 2124.6L150.357 2124.6M200.357 2124.6L250.357 2124.6M400.357 2124.6L400.357 2187.1M400.357 2124.6L400.357 2062.1M400.357 2124.6L350.357 2124.6M100.357 2499.6L100.357 2437.1M100.357 2499.6L50.357 2499.6M100.357 2499.6L150.357 2499.6M100.357 2374.6L100.357 2437.1M100.357 2374.6L50.357 2374.6M100.357 2374.6L150.357 2374.6M100.357 2374.6L100.357 2312.1M100.357 2249.6L50.357 2249.6M100.357 2249.6L100.357 2312.1M100.357 2249.6L100.357 2187.1M100.357 2249.6L150.357 2249.6M100.357 2124.6L50.357 2124.6M100.357 2124.6L100.357 2187.1M100.357 2124.6L100.357 2062.1M100.357 2124.6L150.357 2124.6M100.357 1999.6L50.357 1999.6M100.357 1999.6L100.357 2062.1M100.357 1999.6L150.357 1999.6M300.357 1999.6L300.357 2062.1M300.357 1999.6L350.357 1999.6M300.357 1999.6L250.357 1999.6M300.357 2124.6L300.357 2187.1M300.357 2124.6L300.357 2062.1M300.357 2124.6L350.357 2124.6M300.357 2124.6L250.357 2124.6M300.357 2249.6L300.357 2312.1M300.357 2249.6L300.357 2187.1M300.357 2249.6L350.357 2249.6M300.357 2249.6L250.357 2249.6M300.357 2374.6L300.357 2437.1M300.357 2374.6L300.357 2312.1M300.357 2374.6L350.357 2374.6M300.357 2374.6L250.357 2374.6M300.357 2499.6L300.357 2437.1M300.357 2499.6L350.357 2499.6M300.357 2499.6L250.357 2499.6M0.357009 2437.1L0.35701 2499.6L50.357 2499.6M0.357009 2437.1L100.357 2437.1M100.357 2437.1L200.357 2437.1M200.357 2437.1L300.357 2437.1M300.357 2437.1L400.357 2437.1M400.357 2437.1L400.357 2499.6L350.357 2499.6M50.357 2499.6L50.357 2374.6M50.357 2374.6L50.357 2249.6M50.357 2249.6L50.357 2124.6M50.357 2124.6L50.357 1999.6M50.357 1999.6L0.357003 1999.6L0.357004 2062.1M150.357 2499.6L150.357 2374.6M150.357 2374.6L150.357 2249.6M100.357 2312.1L200.357 2312.1M100.357 2312.1L0.357007 2312.1M300.357 2312.1L250.357 2312.1M300.357 2312.1L350.357 2312.1M400.357 2312.1L350.357 2312.1M400.357 2187.1L350.357 2187.1M300.357 2187.1L250.357 2187.1M300.357 2187.1L350.357 2187.1M200.357 2312.1L200.357 2249.6L200.357 2187.1M200.357 2312.1L250.357 2312.1M200.357 2187.1L100.357 2187.1M200.357 2187.1L250.357 2187.1M100.357 2187.1L0.357005 2187.1M0.357004 2062.1L100.357 2062.1M100.357 2062.1L200.357 2062.1M200.357 2062.1L250.357 2062.1M300.357 2062.1L250.357 2062.1M300.357 2062.1L350.357 2062.1M400.357 2062.1L400.357 1999.6L350.357 1999.6M400.357 2062.1L350.357 2062.1M350.357 1999.6L350.357 2062.1M350.357 2124.6L350.357 2187.1M350.357 2124.6L350.357 2062.1M350.357 2249.6L350.357 2312.1M350.357 2249.6L350.357 2187.1M350.357 2374.6L350.357 2499.6M350.357 2374.6L350.357 2312.1M150.357 2124.6L150.357 2249.6M150.357 2124.6L150.357 1999.6M150.357 2249.6L250.357 2249.6M250.357 1999.6L250.357 2062.1M250.357 2062.1L250.357 2124.6M250.357 2124.6L250.357 2187.1M250.357 2249.6L250.357 2312.1M250.357 2249.6L250.357 2187.1M250.357 2374.6L250.357 2499.6M250.357 2374.6L250.357 2312.1" stroke="white" stroke-opacity="0.02" stroke-width="0.5"/>
<path d="M0.357037 2748.8L50.357 2748.8M0.357037 2748.8L0.357038 2811.3M0.357037 2748.8L0.357036 2686.3M400.357 2748.8L400.357 2811.3M400.357 2748.8L400.357 2686.3M400.357 2748.8L350.357 2748.8M200.357 2998.8L200.357 2936.3M200.357 2998.8L150.357 2998.8M200.357 2998.8L250.357 2998.8M200.357 2498.8L200.357 2561.3M200.357 2498.8L150.357 2498.8M200.357 2498.8L250.357 2498.8M0.357039 2873.8L0.357039 2936.3M0.357039 2873.8L50.357 2873.8M0.357039 2873.8L0.357038 2811.3M200.357 2873.8L200.357 2936.3M200.357 2873.8L150.357 2873.8M200.357 2873.8L200.357 2811.3M200.357 2873.8L250.357 2873.8M400.357 2873.8L400.357 2936.3M400.357 2873.8L400.357 2811.3M400.357 2873.8L350.357 2873.8M0.357035 2623.8L50.357 2623.8M0.357035 2623.8L0.357036 2686.3M0.357035 2623.8L0.357034 2561.3M200.357 2623.8L200.357 2686.3M200.357 2623.8L200.357 2561.3M200.357 2623.8L150.357 2623.8M200.357 2623.8L250.357 2623.8M400.357 2623.8L400.357 2686.3M400.357 2623.8L400.357 2561.3M400.357 2623.8L350.357 2623.8M100.357 2998.8L100.357 2936.3M100.357 2998.8L50.357 2998.8M100.357 2998.8L150.357 2998.8M100.357 2873.8L100.357 2936.3M100.357 2873.8L50.357 2873.8M100.357 2873.8L150.357 2873.8M100.357 2873.8L100.357 2811.3M100.357 2748.8L50.357 2748.8M100.357 2748.8L100.357 2811.3M100.357 2748.8L100.357 2686.3M100.357 2748.8L150.357 2748.8M100.357 2623.8L50.357 2623.8M100.357 2623.8L100.357 2686.3M100.357 2623.8L100.357 2561.3M100.357 2623.8L150.357 2623.8M100.357 2498.8L50.357 2498.8M100.357 2498.8L100.357 2561.3M100.357 2498.8L150.357 2498.8M300.357 2498.8L300.357 2561.3M300.357 2498.8L350.357 2498.8M300.357 2498.8L250.357 2498.8M300.357 2623.8L300.357 2686.3M300.357 2623.8L300.357 2561.3M300.357 2623.8L350.357 2623.8M300.357 2623.8L250.357 2623.8M300.357 2748.8L300.357 2811.3M300.357 2748.8L300.357 2686.3M300.357 2748.8L350.357 2748.8M300.357 2748.8L250.357 2748.8M300.357 2873.8L300.357 2936.3M300.357 2873.8L300.357 2811.3M300.357 2873.8L350.357 2873.8M300.357 2873.8L250.357 2873.8M300.357 2998.8L300.357 2936.3M300.357 2998.8L350.357 2998.8M300.357 2998.8L250.357 2998.8M0.357039 2936.3L0.35704 2998.8L50.357 2998.8M0.357039 2936.3L100.357 2936.3M100.357 2936.3L200.357 2936.3M200.357 2936.3L300.357 2936.3M300.357 2936.3L400.357 2936.3M400.357 2936.3L400.357 2998.8L350.357 2998.8M50.357 2998.8L50.357 2873.8M50.357 2873.8L50.357 2748.8M50.357 2748.8L50.357 2623.8M50.357 2623.8L50.357 2498.8M50.357 2498.8L0.357033 2498.8L0.357034 2561.3M150.357 2998.8L150.357 2873.8M150.357 2873.8L150.357 2748.8M100.357 2811.3L200.357 2811.3M100.357 2811.3L0.357038 2811.3M300.357 2811.3L250.357 2811.3M300.357 2811.3L350.357 2811.3M400.357 2811.3L350.357 2811.3M400.357 2686.3L350.357 2686.3M300.357 2686.3L250.357 2686.3M300.357 2686.3L350.357 2686.3M200.357 2811.3L200.357 2748.8L200.357 2686.3M200.357 2811.3L250.357 2811.3M200.357 2686.3L100.357 2686.3M200.357 2686.3L250.357 2686.3M100.357 2686.3L0.357036 2686.3M0.357034 2561.3L100.357 2561.3M100.357 2561.3L200.357 2561.3M200.357 2561.3L250.357 2561.3M300.357 2561.3L250.357 2561.3M300.357 2561.3L350.357 2561.3M400.357 2561.3L400.357 2498.8L350.357 2498.8M400.357 2561.3L350.357 2561.3M350.357 2498.8L350.357 2561.3M350.357 2623.8L350.357 2686.3M350.357 2623.8L350.357 2561.3M350.357 2748.8L350.357 2811.3M350.357 2748.8L350.357 2686.3M350.357 2873.8L350.357 2998.8M350.357 2873.8L350.357 2811.3M150.357 2623.8L150.357 2748.8M150.357 2623.8L150.357 2498.8M150.357 2748.8L250.357 2748.8M250.357 2498.8L250.357 2561.3M250.357 2561.3L250.357 2623.8M250.357 2623.8L250.357 2686.3M250.357 2748.8L250.357 2811.3M250.357 2748.8L250.357 2686.3M250.357 2873.8L250.357 2998.8M250.357 2873.8L250.357 2811.3" stroke="white" stroke-opacity="0.02" stroke-width="0.5"/>
<path d="M0.356991 3248.8L50.357 3248.8M0.356991 3248.8L0.356992 3311.3M0.356991 3248.8L0.35699 3186.3M400.357 3248.8L400.357 3311.3M400.357 3248.8L400.357 3186.3M400.357 3248.8L350.357 3248.8M200.357 3498.8L200.357 3436.3M200.357 3498.8L150.357 3498.8M200.357 3498.8L250.357 3498.8M200.357 2998.8L200.357 3061.3M200.357 2998.8L150.357 2998.8M200.357 2998.8L250.357 2998.8M0.356993 3373.8L0.356994 3436.3M0.356993 3373.8L50.357 3373.8M0.356993 3373.8L0.356992 3311.3M200.357 3373.8L200.357 3436.3M200.357 3373.8L150.357 3373.8M200.357 3373.8L200.357 3311.3M200.357 3373.8L250.357 3373.8M400.357 3373.8L400.357 3436.3M400.357 3373.8L400.357 3311.3M400.357 3373.8L350.357 3373.8M0.356989 3123.8L50.357 3123.8M0.356989 3123.8L0.35699 3186.3M0.356989 3123.8L0.356988 3061.3M200.357 3123.8L200.357 3186.3M200.357 3123.8L200.357 3061.3M200.357 3123.8L150.357 3123.8M200.357 3123.8L250.357 3123.8M400.357 3123.8L400.357 3186.3M400.357 3123.8L400.357 3061.3M400.357 3123.8L350.357 3123.8M100.357 3498.8L100.357 3436.3M100.357 3498.8L50.357 3498.8M100.357 3498.8L150.357 3498.8M100.357 3373.8L100.357 3436.3M100.357 3373.8L50.357 3373.8M100.357 3373.8L150.357 3373.8M100.357 3373.8L100.357 3311.3M100.357 3248.8L50.357 3248.8M100.357 3248.8L100.357 3311.3M100.357 3248.8L100.357 3186.3M100.357 3248.8L150.357 3248.8M100.357 3123.8L50.357 3123.8M100.357 3123.8L100.357 3186.3M100.357 3123.8L100.357 3061.3M100.357 3123.8L150.357 3123.8M100.357 2998.8L50.357 2998.8M100.357 2998.8L100.357 3061.3M100.357 2998.8L150.357 2998.8M300.357 2998.8L300.357 3061.3M300.357 2998.8L350.357 2998.8M300.357 2998.8L250.357 2998.8M300.357 3123.8L300.357 3186.3M300.357 3123.8L300.357 3061.3M300.357 3123.8L350.357 3123.8M300.357 3123.8L250.357 3123.8M300.357 3248.8L300.357 3311.3M300.357 3248.8L300.357 3186.3M300.357 3248.8L350.357 3248.8M300.357 3248.8L250.357 3248.8M300.357 3373.8L300.357 3436.3M300.357 3373.8L300.357 3311.3M300.357 3373.8L350.357 3373.8M300.357 3373.8L250.357 3373.8M300.357 3498.8L300.357 3436.3M300.357 3498.8L350.357 3498.8M300.357 3498.8L250.357 3498.8M0.356994 3436.3L0.356995 3498.8L50.357 3498.8M0.356994 3436.3L100.357 3436.3M100.357 3436.3L200.357 3436.3M200.357 3436.3L300.357 3436.3M300.357 3436.3L400.357 3436.3M400.357 3436.3L400.357 3498.8L350.357 3498.8M50.357 3498.8L50.357 3373.8M50.357 3373.8L50.357 3248.8M50.357 3248.8L50.357 3123.8M50.357 3123.8L50.357 2998.8M50.357 2998.8L0.356987 2998.8L0.356988 3061.3M150.357 3498.8L150.357 3373.8M150.357 3373.8L150.357 3248.8M100.357 3311.3L200.357 3311.3M100.357 3311.3L0.356992 3311.3M300.357 3311.3L250.357 3311.3M300.357 3311.3L350.357 3311.3M400.357 3311.3L350.357 3311.3M400.357 3186.3L350.357 3186.3M300.357 3186.3L250.357 3186.3M300.357 3186.3L350.357 3186.3M200.357 3311.3L200.357 3248.8L200.357 3186.3M200.357 3311.3L250.357 3311.3M200.357 3186.3L100.357 3186.3M200.357 3186.3L250.357 3186.3M100.357 3186.3L0.35699 3186.3M0.356988 3061.3L100.357 3061.3M100.357 3061.3L200.357 3061.3M200.357 3061.3L250.357 3061.3M300.357 3061.3L250.357 3061.3M300.357 3061.3L350.357 3061.3M400.357 3061.3L400.357 2998.8L350.357 2998.8M400.357 3061.3L350.357 3061.3M350.357 2998.8L350.357 3061.3M350.357 3123.8L350.357 3186.3M350.357 3123.8L350.357 3061.3M350.357 3248.8L350.357 3311.3M350.357 3248.8L350.357 3186.3M350.357 3373.8L350.357 3498.8M350.357 3373.8L350.357 3311.3M150.357 3123.8L150.357 3248.8M150.357 3123.8L150.357 2998.8M150.357 3248.8L250.357 3248.8M250.357 2998.8L250.357 3061.3M250.357 3061.3L250.357 3123.8M250.357 3123.8L250.357 3186.3M250.357 3248.8L250.357 3311.3M250.357 3248.8L250.357 3186.3M250.357 3373.8L250.357 3498.8M250.357 3373.8L250.357 3311.3" stroke="white" stroke-opacity="0.02" stroke-width="0.5"/>
<path d="M0.357037 3748.8L50.357 3748.8M0.357037 3748.8L0.357038 3811.3M0.357037 3748.8L0.357036 3686.3M400.357 3748.8L400.357 3811.3M400.357 3748.8L400.357 3686.3M400.357 3748.8L350.357 3748.8M200.357 3998.8L200.357 3936.3M200.357 3998.8L150.357 3998.8M200.357 3998.8L250.357 3998.8M200.357 3498.8L200.357 3561.3M200.357 3498.8L150.357 3498.8M200.357 3498.8L250.357 3498.8M0.357039 3873.8L0.357039 3936.3M0.357039 3873.8L50.357 3873.8M0.357039 3873.8L0.357038 3811.3M200.357 3873.8L200.357 3936.3M200.357 3873.8L150.357 3873.8M200.357 3873.8L200.357 3811.3M200.357 3873.8L250.357 3873.8M400.357 3873.8L400.357 3936.3M400.357 3873.8L400.357 3811.3M400.357 3873.8L350.357 3873.8M0.357035 3623.8L50.357 3623.8M0.357035 3623.8L0.357036 3686.3M0.357035 3623.8L0.357034 3561.3M200.357 3623.8L200.357 3686.3M200.357 3623.8L200.357 3561.3M200.357 3623.8L150.357 3623.8M200.357 3623.8L250.357 3623.8M400.357 3623.8L400.357 3686.3M400.357 3623.8L400.357 3561.3M400.357 3623.8L350.357 3623.8M100.357 3998.8L100.357 3936.3M100.357 3998.8L50.357 3998.8M100.357 3998.8L150.357 3998.8M100.357 3873.8L100.357 3936.3M100.357 3873.8L50.357 3873.8M100.357 3873.8L150.357 3873.8M100.357 3873.8L100.357 3811.3M100.357 3748.8L50.357 3748.8M100.357 3748.8L100.357 3811.3M100.357 3748.8L100.357 3686.3M100.357 3748.8L150.357 3748.8M100.357 3623.8L50.357 3623.8M100.357 3623.8L100.357 3686.3M100.357 3623.8L100.357 3561.3M100.357 3623.8L150.357 3623.8M100.357 3498.8L50.357 3498.8M100.357 3498.8L100.357 3561.3M100.357 3498.8L150.357 3498.8M300.357 3498.8L300.357 3561.3M300.357 3498.8L350.357 3498.8M300.357 3498.8L250.357 3498.8M300.357 3623.8L300.357 3686.3M300.357 3623.8L300.357 3561.3M300.357 3623.8L350.357 3623.8M300.357 3623.8L250.357 3623.8M300.357 3748.8L300.357 3811.3M300.357 3748.8L300.357 3686.3M300.357 3748.8L350.357 3748.8M300.357 3748.8L250.357 3748.8M300.357 3873.8L300.357 3936.3M300.357 3873.8L300.357 3811.3M300.357 3873.8L350.357 3873.8M300.357 3873.8L250.357 3873.8M300.357 3998.8L300.357 3936.3M300.357 3998.8L350.357 3998.8M300.357 3998.8L250.357 3998.8M0.357039 3936.3L0.35704 3998.8L50.357 3998.8M0.357039 3936.3L100.357 3936.3M100.357 3936.3L200.357 3936.3M200.357 3936.3L300.357 3936.3M300.357 3936.3L400.357 3936.3M400.357 3936.3L400.357 3998.8L350.357 3998.8M50.357 3998.8L50.357 3873.8M50.357 3873.8L50.357 3748.8M50.357 3748.8L50.357 3623.8M50.357 3623.8L50.357 3498.8M50.357 3498.8L0.357033 3498.8L0.357034 3561.3M150.357 3998.8L150.357 3873.8M150.357 3873.8L150.357 3748.8M100.357 3811.3L200.357 3811.3M100.357 3811.3L0.357038 3811.3M300.357 3811.3L250.357 3811.3M300.357 3811.3L350.357 3811.3M400.357 3811.3L350.357 3811.3M400.357 3686.3L350.357 3686.3M300.357 3686.3L250.357 3686.3M300.357 3686.3L350.357 3686.3M200.357 3811.3L200.357 3748.8L200.357 3686.3M200.357 3811.3L250.357 3811.3M200.357 3686.3L100.357 3686.3M200.357 3686.3L250.357 3686.3M100.357 3686.3L0.357036 3686.3M0.357034 3561.3L100.357 3561.3M100.357 3561.3L200.357 3561.3M200.357 3561.3L250.357 3561.3M300.357 3561.3L250.357 3561.3M300.357 3561.3L350.357 3561.3M400.357 3561.3L400.357 3498.8L350.357 3498.8M400.357 3561.3L350.357 3561.3M350.357 3498.8L350.357 3561.3M350.357 3623.8L350.357 3686.3M350.357 3623.8L350.357 3561.3M350.357 3748.8L350.357 3811.3M350.357 3748.8L350.357 3686.3M350.357 3873.8L350.357 3998.8M350.357 3873.8L350.357 3811.3M150.357 3623.8L150.357 3748.8M150.357 3623.8L150.357 3498.8M150.357 3748.8L250.357 3748.8M250.357 3498.8L250.357 3561.3M250.357 3561.3L250.357 3623.8M250.357 3623.8L250.357 3686.3M250.357 3748.8L250.357 3811.3M250.357 3748.8L250.357 3686.3M250.357 3873.8L250.357 3998.8M250.357 3873.8L250.357 3811.3" stroke="white" stroke-opacity="0.02" stroke-width="0.5"/>
<path d="M0.357037 4248.8L50.357 4248.8M0.357037 4248.8L0.357038 4311.3M0.357037 4248.8L0.357036 4186.3M400.357 4248.8L400.357 4311.3M400.357 4248.8L400.357 4186.3M400.357 4248.8L350.357 4248.8M200.357 4498.8L200.357 4436.3M200.357 4498.8L150.357 4498.8M200.357 4498.8L250.357 4498.8M200.357 3998.8L200.357 4061.3M200.357 3998.8L150.357 3998.8M200.357 3998.8L250.357 3998.8M0.357039 4373.8L0.357039 4436.3M0.357039 4373.8L50.357 4373.8M0.357039 4373.8L0.357038 4311.3M200.357 4373.8L200.357 4436.3M200.357 4373.8L150.357 4373.8M200.357 4373.8L200.357 4311.3M200.357 4373.8L250.357 4373.8M400.357 4373.8L400.357 4436.3M400.357 4373.8L400.357 4311.3M400.357 4373.8L350.357 4373.8M0.357035 4123.8L50.357 4123.8M0.357035 4123.8L0.357036 4186.3M0.357035 4123.8L0.357034 4061.3M200.357 4123.8L200.357 4186.3M200.357 4123.8L200.357 4061.3M200.357 4123.8L150.357 4123.8M200.357 4123.8L250.357 4123.8M400.357 4123.8L400.357 4186.3M400.357 4123.8L400.357 4061.3M400.357 4123.8L350.357 4123.8M100.357 4498.8L100.357 4436.3M100.357 4498.8L50.357 4498.8M100.357 4498.8L150.357 4498.8M100.357 4373.8L100.357 4436.3M100.357 4373.8L50.357 4373.8M100.357 4373.8L150.357 4373.8M100.357 4373.8L100.357 4311.3M100.357 4248.8L50.357 4248.8M100.357 4248.8L100.357 4311.3M100.357 4248.8L100.357 4186.3M100.357 4248.8L150.357 4248.8M100.357 4123.8L50.357 4123.8M100.357 4123.8L100.357 4186.3M100.357 4123.8L100.357 4061.3M100.357 4123.8L150.357 4123.8M100.357 3998.8L50.357 3998.8M100.357 3998.8L100.357 4061.3M100.357 3998.8L150.357 3998.8M300.357 3998.8L300.357 4061.3M300.357 3998.8L350.357 3998.8M300.357 3998.8L250.357 3998.8M300.357 4123.8L300.357 4186.3M300.357 4123.8L300.357 4061.3M300.357 4123.8L350.357 4123.8M300.357 4123.8L250.357 4123.8M300.357 4248.8L300.357 4311.3M300.357 4248.8L300.357 4186.3M300.357 4248.8L350.357 4248.8M300.357 4248.8L250.357 4248.8M300.357 4373.8L300.357 4436.3M300.357 4373.8L300.357 4311.3M300.357 4373.8L350.357 4373.8M300.357 4373.8L250.357 4373.8M300.357 4498.8L300.357 4436.3M300.357 4498.8L350.357 4498.8M300.357 4498.8L250.357 4498.8M0.357039 4436.3L0.35704 4498.8L50.357 4498.8M0.357039 4436.3L100.357 4436.3M100.357 4436.3L200.357 4436.3M200.357 4436.3L300.357 4436.3M300.357 4436.3L400.357 4436.3M400.357 4436.3L400.357 4498.8L350.357 4498.8M50.357 4498.8L50.357 4373.8M50.357 4373.8L50.357 4248.8M50.357 4248.8L50.357 4123.8M50.357 4123.8L50.357 3998.8M50.357 3998.8L0.357033 3998.8L0.357034 4061.3M150.357 4498.8L150.357 4373.8M150.357 4373.8L150.357 4248.8M100.357 4311.3L200.357 4311.3M100.357 4311.3L0.357038 4311.3M300.357 4311.3L250.357 4311.3M300.357 4311.3L350.357 4311.3M400.357 4311.3L350.357 4311.3M400.357 4186.3L350.357 4186.3M300.357 4186.3L250.357 4186.3M300.357 4186.3L350.357 4186.3M200.357 4311.3L200.357 4248.8L200.357 4186.3M200.357 4311.3L250.357 4311.3M200.357 4186.3L100.357 4186.3M200.357 4186.3L250.357 4186.3M100.357 4186.3L0.357036 4186.3M0.357034 4061.3L100.357 4061.3M100.357 4061.3L200.357 4061.3M200.357 4061.3L250.357 4061.3M300.357 4061.3L250.357 4061.3M300.357 4061.3L350.357 4061.3M400.357 4061.3L400.357 3998.8L350.357 3998.8M400.357 4061.3L350.357 4061.3M350.357 3998.8L350.357 4061.3M350.357 4123.8L350.357 4186.3M350.357 4123.8L350.357 4061.3M350.357 4248.8L350.357 4311.3M350.357 4248.8L350.357 4186.3M350.357 4373.8L350.357 4498.8M350.357 4373.8L350.357 4311.3M150.357 4123.8L150.357 4248.8M150.357 4123.8L150.357 3998.8M150.357 4248.8L250.357 4248.8M250.357 3998.8L250.357 4061.3M250.357 4061.3L250.357 4123.8M250.357 4123.8L250.357 4186.3M250.357 4248.8L250.357 4311.3M250.357 4248.8L250.357 4186.3M250.357 4373.8L250.357 4498.8M250.357 4373.8L250.357 4311.3" stroke="white" stroke-opacity="0.02" stroke-width="0.5"/>
<path d="M0.357052 4748.8L50.357 4748.8M0.357052 4748.8L0.357053 4811.3M0.357052 4748.8L0.357051 4686.3M400.357 4748.8L400.357 4811.3M400.357 4748.8L400.357 4686.3M400.357 4748.8L350.357 4748.8M200.357 4998.8L200.357 4936.3M200.357 4998.8L150.357 4998.8M200.357 4998.8L250.357 4998.8M200.357 4498.8L200.357 4561.3M200.357 4498.8L150.357 4498.8M200.357 4498.8L250.357 4498.8M0.357054 4873.8L0.357055 4936.3M0.357054 4873.8L50.357 4873.8M0.357054 4873.8L0.357053 4811.3M200.357 4873.8L200.357 4936.3M200.357 4873.8L150.357 4873.8M200.357 4873.8L200.357 4811.3M200.357 4873.8L250.357 4873.8M400.357 4873.8L400.357 4936.3M400.357 4873.8L400.357 4811.3M400.357 4873.8L350.357 4873.8M0.35705 4623.8L50.357 4623.8M0.35705 4623.8L0.357051 4686.3M0.35705 4623.8L0.357049 4561.3M200.357 4623.8L200.357 4686.3M200.357 4623.8L200.357 4561.3M200.357 4623.8L150.357 4623.8M200.357 4623.8L250.357 4623.8M400.357 4623.8L400.357 4686.3M400.357 4623.8L400.357 4561.3M400.357 4623.8L350.357 4623.8M100.357 4998.8L100.357 4936.3M100.357 4998.8L50.357 4998.8M100.357 4998.8L150.357 4998.8M100.357 4873.8L100.357 4936.3M100.357 4873.8L50.357 4873.8M100.357 4873.8L150.357 4873.8M100.357 4873.8L100.357 4811.3M100.357 4748.8L50.357 4748.8M100.357 4748.8L100.357 4811.3M100.357 4748.8L100.357 4686.3M100.357 4748.8L150.357 4748.8M100.357 4623.8L50.357 4623.8M100.357 4623.8L100.357 4686.3M100.357 4623.8L100.357 4561.3M100.357 4623.8L150.357 4623.8M100.357 4498.8L50.357 4498.8M100.357 4498.8L100.357 4561.3M100.357 4498.8L150.357 4498.8M300.357 4498.8L300.357 4561.3M300.357 4498.8L350.357 4498.8M300.357 4498.8L250.357 4498.8M300.357 4623.8L300.357 4686.3M300.357 4623.8L300.357 4561.3M300.357 4623.8L350.357 4623.8M300.357 4623.8L250.357 4623.8M300.357 4748.8L300.357 4811.3M300.357 4748.8L300.357 4686.3M300.357 4748.8L350.357 4748.8M300.357 4748.8L250.357 4748.8M300.357 4873.8L300.357 4936.3M300.357 4873.8L300.357 4811.3M300.357 4873.8L350.357 4873.8M300.357 4873.8L250.357 4873.8M300.357 4998.8L300.357 4936.3M300.357 4998.8L350.357 4998.8M300.357 4998.8L250.357 4998.8M0.357055 4936.3L0.357056 4998.8L50.357 4998.8M0.357055 4936.3L100.357 4936.3M100.357 4936.3L200.357 4936.3M200.357 4936.3L300.357 4936.3M300.357 4936.3L400.357 4936.3M400.357 4936.3L400.357 4998.8L350.357 4998.8M50.357 4998.8L50.357 4873.8M50.357 4873.8L50.357 4748.8M50.357 4748.8L50.357 4623.8M50.357 4623.8L50.357 4498.8M50.357 4498.8L0.357048 4498.8L0.357049 4561.3M150.357 4998.8L150.357 4873.8M150.357 4873.8L150.357 4748.8M100.357 4811.3L200.357 4811.3M100.357 4811.3L0.357053 4811.3M300.357 4811.3L250.357 4811.3M300.357 4811.3L350.357 4811.3M400.357 4811.3L350.357 4811.3M400.357 4686.3L350.357 4686.3M300.357 4686.3L250.357 4686.3M300.357 4686.3L350.357 4686.3M200.357 4811.3L200.357 4748.8L200.357 4686.3M200.357 4811.3L250.357 4811.3M200.357 4686.3L100.357 4686.3M200.357 4686.3L250.357 4686.3M100.357 4686.3L0.357051 4686.3M0.357049 4561.3L100.357 4561.3M100.357 4561.3L200.357 4561.3M200.357 4561.3L250.357 4561.3M300.357 4561.3L250.357 4561.3M300.357 4561.3L350.357 4561.3M400.357 4561.3L400.357 4498.8L350.357 4498.8M400.357 4561.3L350.357 4561.3M350.357 4498.8L350.357 4561.3M350.357 4623.8L350.357 4686.3M350.357 4623.8L350.357 4561.3M350.357 4748.8L350.357 4811.3M350.357 4748.8L350.357 4686.3M350.357 4873.8L350.357 4998.8M350.357 4873.8L350.357 4811.3M150.357 4623.8L150.357 4748.8M150.357 4623.8L150.357 4498.8M150.357 4748.8L250.357 4748.8M250.357 4498.8L250.357 4561.3M250.357 4561.3L250.357 4623.8M250.357 4623.8L250.357 4686.3M250.357 4748.8L250.357 4811.3M250.357 4748.8L250.357 4686.3M250.357 4873.8L250.357 4998.8M250.357 4873.8L250.357 4811.3" stroke="white" stroke-opacity="0.02" stroke-width="0.5"/>
<path d="M0.357067 5248.8L50.357 5248.8M0.357067 5248.8L0.357068 5311.3M0.357067 5248.8L0.357066 5186.3M400.357 5248.8L400.357 5311.3M400.357 5248.8L400.357 5186.3M400.357 5248.8L350.357 5248.8M200.357 5498.8L200.357 5436.3M200.357 5498.8L150.357 5498.8M200.357 5498.8L250.357 5498.8M200.357 4998.8L200.357 5061.3M200.357 4998.8L150.357 4998.8M200.357 4998.8L250.357 4998.8M0.357069 5373.8L0.35707 5436.3M0.357069 5373.8L50.3571 5373.8M0.357069 5373.8L0.357068 5311.3M200.357 5373.8L200.357 5436.3M200.357 5373.8L150.357 5373.8M200.357 5373.8L200.357 5311.3M200.357 5373.8L250.357 5373.8M400.357 5373.8L400.357 5436.3M400.357 5373.8L400.357 5311.3M400.357 5373.8L350.357 5373.8M0.357065 5123.8L50.357 5123.8M0.357065 5123.8L0.357066 5186.3M0.357065 5123.8L0.357065 5061.3M200.357 5123.8L200.357 5186.3M200.357 5123.8L200.357 5061.3M200.357 5123.8L150.357 5123.8M200.357 5123.8L250.357 5123.8M400.357 5123.8L400.357 5186.3M400.357 5123.8L400.357 5061.3M400.357 5123.8L350.357 5123.8M100.357 5498.8L100.357 5436.3M100.357 5498.8L50.3571 5498.8M100.357 5498.8L150.357 5498.8M100.357 5373.8L100.357 5436.3M100.357 5373.8L50.3571 5373.8M100.357 5373.8L150.357 5373.8M100.357 5373.8L100.357 5311.3M100.357 5248.8L50.357 5248.8M100.357 5248.8L100.357 5311.3M100.357 5248.8L100.357 5186.3M100.357 5248.8L150.357 5248.8M100.357 5123.8L50.357 5123.8M100.357 5123.8L100.357 5186.3M100.357 5123.8L100.357 5061.3M100.357 5123.8L150.357 5123.8M100.357 4998.8L50.357 4998.8M100.357 4998.8L100.357 5061.3M100.357 4998.8L150.357 4998.8M300.357 4998.8L300.357 5061.3M300.357 4998.8L350.357 4998.8M300.357 4998.8L250.357 4998.8M300.357 5123.8L300.357 5186.3M300.357 5123.8L300.357 5061.3M300.357 5123.8L350.357 5123.8M300.357 5123.8L250.357 5123.8M300.357 5248.8L300.357 5311.3M300.357 5248.8L300.357 5186.3M300.357 5248.8L350.357 5248.8M300.357 5248.8L250.357 5248.8M300.357 5373.8L300.357 5436.3M300.357 5373.8L300.357 5311.3M300.357 5373.8L350.357 5373.8M300.357 5373.8L250.357 5373.8M300.357 5498.8L300.357 5436.3M300.357 5498.8L350.357 5498.8M300.357 5498.8L250.357 5498.8M0.35707 5436.3L0.357071 5498.8L50.3571 5498.8M0.35707 5436.3L100.357 5436.3M100.357 5436.3L200.357 5436.3M200.357 5436.3L300.357 5436.3M300.357 5436.3L400.357 5436.3M400.357 5436.3L400.357 5498.8L350.357 5498.8M50.3571 5498.8L50.3571 5373.8M50.3571 5373.8L50.357 5248.8M50.357 5248.8L50.357 5123.8M50.357 5123.8L50.357 4998.8M50.357 4998.8L0.357064 4998.8L0.357065 5061.3M150.357 5498.8L150.357 5373.8M150.357 5373.8L150.357 5248.8M100.357 5311.3L200.357 5311.3M100.357 5311.3L0.357068 5311.3M300.357 5311.3L250.357 5311.3M300.357 5311.3L350.357 5311.3M400.357 5311.3L350.357 5311.3M400.357 5186.3L350.357 5186.3M300.357 5186.3L250.357 5186.3M300.357 5186.3L350.357 5186.3M200.357 5311.3L200.357 5248.8L200.357 5186.3M200.357 5311.3L250.357 5311.3M200.357 5186.3L100.357 5186.3M200.357 5186.3L250.357 5186.3M100.357 5186.3L0.357066 5186.3M0.357065 5061.3L100.357 5061.3M100.357 5061.3L200.357 5061.3M200.357 5061.3L250.357 5061.3M300.357 5061.3L250.357 5061.3M300.357 5061.3L350.357 5061.3M400.357 5061.3L400.357 4998.8L350.357 4998.8M400.357 5061.3L350.357 5061.3M350.357 4998.8L350.357 5061.3M350.357 5123.8L350.357 5186.3M350.357 5123.8L350.357 5061.3M350.357 5248.8L350.357 5311.3M350.357 5248.8L350.357 5186.3M350.357 5373.8L350.357 5498.8M350.357 5373.8L350.357 5311.3M150.357 5123.8L150.357 5248.8M150.357 5123.8L150.357 4998.8M150.357 5248.8L250.357 5248.8M250.357 4998.8L250.357 5061.3M250.357 5061.3L250.357 5123.8M250.357 5123.8L250.357 5186.3M250.357 5248.8L250.357 5311.3M250.357 5248.8L250.357 5186.3M250.357 5373.8L250.357 5498.8M250.357 5373.8L250.357 5311.3" stroke="white" stroke-opacity="0.02" stroke-width="0.5"/>
<path d="M0.356976 5748.8L50.357 5748.8M0.356976 5748.8L0.356977 5811.3M0.356976 5748.8L0.356975 5686.3M400.357 5748.8L400.357 5811.3M400.357 5748.8L400.357 5686.3M400.357 5748.8L350.357 5748.8M200.357 5998.8L200.357 5936.3M200.357 5998.8L150.357 5998.8M200.357 5998.8L250.357 5998.8M200.357 5498.8L200.357 5561.3M200.357 5498.8L150.357 5498.8M200.357 5498.8L250.357 5498.8M0.356978 5873.8L0.356978 5936.3M0.356978 5873.8L50.357 5873.8M0.356978 5873.8L0.356977 5811.3M200.357 5873.8L200.357 5936.3M200.357 5873.8L150.357 5873.8M200.357 5873.8L200.357 5811.3M200.357 5873.8L250.357 5873.8M400.357 5873.8L400.357 5936.3M400.357 5873.8L400.357 5811.3M400.357 5873.8L350.357 5873.8M0.356974 5623.8L50.357 5623.8M0.356974 5623.8L0.356975 5686.3M0.356974 5623.8L0.356973 5561.3M200.357 5623.8L200.357 5686.3M200.357 5623.8L200.357 5561.3M200.357 5623.8L150.357 5623.8M200.357 5623.8L250.357 5623.8M400.357 5623.8L400.357 5686.3M400.357 5623.8L400.357 5561.3M400.357 5623.8L350.357 5623.8M100.357 5998.8L100.357 5936.3M100.357 5998.8L50.357 5998.8M100.357 5998.8L150.357 5998.8M100.357 5873.8L100.357 5936.3M100.357 5873.8L50.357 5873.8M100.357 5873.8L150.357 5873.8M100.357 5873.8L100.357 5811.3M100.357 5748.8L50.357 5748.8M100.357 5748.8L100.357 5811.3M100.357 5748.8L100.357 5686.3M100.357 5748.8L150.357 5748.8M100.357 5623.8L50.357 5623.8M100.357 5623.8L100.357 5686.3M100.357 5623.8L100.357 5561.3M100.357 5623.8L150.357 5623.8M100.357 5498.8L50.357 5498.8M100.357 5498.8L100.357 5561.3M100.357 5498.8L150.357 5498.8M300.357 5498.8L300.357 5561.3M300.357 5498.8L350.357 5498.8M300.357 5498.8L250.357 5498.8M300.357 5623.8L300.357 5686.3M300.357 5623.8L300.357 5561.3M300.357 5623.8L350.357 5623.8M300.357 5623.8L250.357 5623.8M300.357 5748.8L300.357 5811.3M300.357 5748.8L300.357 5686.3M300.357 5748.8L350.357 5748.8M300.357 5748.8L250.357 5748.8M300.357 5873.8L300.357 5936.3M300.357 5873.8L300.357 5811.3M300.357 5873.8L350.357 5873.8M300.357 5873.8L250.357 5873.8M300.357 5998.8L300.357 5936.3M300.357 5998.8L350.357 5998.8M300.357 5998.8L250.357 5998.8M0.356978 5936.3L0.356979 5998.8L50.357 5998.8M0.356978 5936.3L100.357 5936.3M100.357 5936.3L200.357 5936.3M200.357 5936.3L300.357 5936.3M300.357 5936.3L400.357 5936.3M400.357 5936.3L400.357 5998.8L350.357 5998.8M50.357 5998.8L50.357 5873.8M50.357 5873.8L50.357 5748.8M50.357 5748.8L50.357 5623.8M50.357 5623.8L50.357 5498.8M50.357 5498.8L0.356972 5498.8L0.356973 5561.3M150.357 5998.8L150.357 5873.8M150.357 5873.8L150.357 5748.8M100.357 5811.3L200.357 5811.3M100.357 5811.3L0.356977 5811.3M300.357 5811.3L250.357 5811.3M300.357 5811.3L350.357 5811.3M400.357 5811.3L350.357 5811.3M400.357 5686.3L350.357 5686.3M300.357 5686.3L250.357 5686.3M300.357 5686.3L350.357 5686.3M200.357 5811.3L200.357 5748.8L200.357 5686.3M200.357 5811.3L250.357 5811.3M200.357 5686.3L100.357 5686.3M200.357 5686.3L250.357 5686.3M100.357 5686.3L0.356975 5686.3M0.356973 5561.3L100.357 5561.3M100.357 5561.3L200.357 5561.3M200.357 5561.3L250.357 5561.3M300.357 5561.3L250.357 5561.3M300.357 5561.3L350.357 5561.3M400.357 5561.3L400.357 5498.8L350.357 5498.8M400.357 5561.3L350.357 5561.3M350.357 5498.8L350.357 5561.3M350.357 5623.8L350.357 5686.3M350.357 5623.8L350.357 5561.3M350.357 5748.8L350.357 5811.3M350.357 5748.8L350.357 5686.3M350.357 5873.8L350.357 5998.8M350.357 5873.8L350.357 5811.3M150.357 5623.8L150.357 5748.8M150.357 5623.8L150.357 5498.8M150.357 5748.8L250.357 5748.8M250.357 5498.8L250.357 5561.3M250.357 5561.3L250.357 5623.8M250.357 5623.8L250.357 5686.3M250.357 5748.8L250.357 5811.3M250.357 5748.8L250.357 5686.3M250.357 5873.8L250.357 5998.8M250.357 5873.8L250.357 5811.3" stroke="white" stroke-opacity="0.02" stroke-width="0.5"/>
<path d="M0.357022 6248.8L50.357 6248.8M0.357022 6248.8L0.357022 6311.3M0.357022 6248.8L0.357021 6186.3M400.357 6248.8L400.357 6311.3M400.357 6248.8L400.357 6186.3M400.357 6248.8L350.357 6248.8M200.357 6498.8L200.357 6436.3M200.357 6498.8L150.357 6498.8M200.357 6498.8L250.357 6498.8M200.357 5998.8L200.357 6061.3M200.357 5998.8L150.357 5998.8M200.357 5998.8L250.357 5998.8M0.357023 6373.8L0.357024 6436.3M0.357023 6373.8L50.357 6373.8M0.357023 6373.8L0.357022 6311.3M200.357 6373.8L200.357 6436.3M200.357 6373.8L150.357 6373.8M200.357 6373.8L200.357 6311.3M200.357 6373.8L250.357 6373.8M400.357 6373.8L400.357 6436.3M400.357 6373.8L400.357 6311.3M400.357 6373.8L350.357 6373.8M0.35702 6123.8L50.357 6123.8M0.35702 6123.8L0.357021 6186.3M0.35702 6123.8L0.357019 6061.3M200.357 6123.8L200.357 6186.3M200.357 6123.8L200.357 6061.3M200.357 6123.8L150.357 6123.8M200.357 6123.8L250.357 6123.8M400.357 6123.8L400.357 6186.3M400.357 6123.8L400.357 6061.3M400.357 6123.8L350.357 6123.8M100.357 6498.8L100.357 6436.3M100.357 6498.8L50.357 6498.8M100.357 6498.8L150.357 6498.8M100.357 6373.8L100.357 6436.3M100.357 6373.8L50.357 6373.8M100.357 6373.8L150.357 6373.8M100.357 6373.8L100.357 6311.3M100.357 6248.8L50.357 6248.8M100.357 6248.8L100.357 6311.3M100.357 6248.8L100.357 6186.3M100.357 6248.8L150.357 6248.8M100.357 6123.8L50.357 6123.8M100.357 6123.8L100.357 6186.3M100.357 6123.8L100.357 6061.3M100.357 6123.8L150.357 6123.8M100.357 5998.8L50.357 5998.8M100.357 5998.8L100.357 6061.3M100.357 5998.8L150.357 5998.8M300.357 5998.8L300.357 6061.3M300.357 5998.8L350.357 5998.8M300.357 5998.8L250.357 5998.8M300.357 6123.8L300.357 6186.3M300.357 6123.8L300.357 6061.3M300.357 6123.8L350.357 6123.8M300.357 6123.8L250.357 6123.8M300.357 6248.8L300.357 6311.3M300.357 6248.8L300.357 6186.3M300.357 6248.8L350.357 6248.8M300.357 6248.8L250.357 6248.8M300.357 6373.8L300.357 6436.3M300.357 6373.8L300.357 6311.3M300.357 6373.8L350.357 6373.8M300.357 6373.8L250.357 6373.8M300.357 6498.8L300.357 6436.3M300.357 6498.8L350.357 6498.8M300.357 6498.8L250.357 6498.8M0.357024 6436.3L0.357025 6498.8L50.357 6498.8M0.357024 6436.3L100.357 6436.3M100.357 6436.3L200.357 6436.3M200.357 6436.3L300.357 6436.3M300.357 6436.3L400.357 6436.3M400.357 6436.3L400.357 6498.8L350.357 6498.8M50.357 6498.8L50.357 6373.8M50.357 6373.8L50.357 6248.8M50.357 6248.8L50.357 6123.8M50.357 6123.8L50.357 5998.8M50.357 5998.8L0.357018 5998.8L0.357019 6061.3M150.357 6498.8L150.357 6373.8M150.357 6373.8L150.357 6248.8M100.357 6311.3L200.357 6311.3M100.357 6311.3L0.357022 6311.3M300.357 6311.3L250.357 6311.3M300.357 6311.3L350.357 6311.3M400.357 6311.3L350.357 6311.3M400.357 6186.3L350.357 6186.3M300.357 6186.3L250.357 6186.3M300.357 6186.3L350.357 6186.3M200.357 6311.3L200.357 6248.8L200.357 6186.3M200.357 6311.3L250.357 6311.3M200.357 6186.3L100.357 6186.3M200.357 6186.3L250.357 6186.3M100.357 6186.3L0.357021 6186.3M0.357019 6061.3L100.357 6061.3M100.357 6061.3L200.357 6061.3M200.357 6061.3L250.357 6061.3M300.357 6061.3L250.357 6061.3M300.357 6061.3L350.357 6061.3M400.357 6061.3L400.357 5998.8L350.357 5998.8M400.357 6061.3L350.357 6061.3M350.357 5998.8L350.357 6061.3M350.357 6123.8L350.357 6186.3M350.357 6123.8L350.357 6061.3M350.357 6248.8L350.357 6311.3M350.357 6248.8L350.357 6186.3M350.357 6373.8L350.357 6498.8M350.357 6373.8L350.357 6311.3M150.357 6123.8L150.357 6248.8M150.357 6123.8L150.357 5998.8M150.357 6248.8L250.357 6248.8M250.357 5998.8L250.357 6061.3M250.357 6061.3L250.357 6123.8M250.357 6123.8L250.357 6186.3M250.357 6248.8L250.357 6311.3M250.357 6248.8L250.357 6186.3M250.357 6373.8L250.357 6498.8M250.357 6373.8L250.357 6311.3" stroke="white" stroke-opacity="0.02" stroke-width="0.5"/>
<path d="M0.357006 6748.8L50.357 6748.8M0.357006 6748.8L0.357007 6811.3M0.357006 6748.8L0.357005 6686.3M400.357 6748.8L400.357 6811.3M400.357 6748.8L400.357 6686.3M400.357 6748.8L350.357 6748.8M200.357 6998.8L200.357 6936.3M200.357 6998.8L150.357 6998.8M200.357 6998.8L250.357 6998.8M200.357 6498.8L200.357 6561.3M200.357 6498.8L150.357 6498.8M200.357 6498.8L250.357 6498.8M0.357008 6873.8L0.357009 6936.3M0.357008 6873.8L50.357 6873.8M0.357008 6873.8L0.357007 6811.3M200.357 6873.8L200.357 6936.3M200.357 6873.8L150.357 6873.8M200.357 6873.8L200.357 6811.3M200.357 6873.8L250.357 6873.8M400.357 6873.8L400.357 6936.3M400.357 6873.8L400.357 6811.3M400.357 6873.8L350.357 6873.8M0.357004 6623.8L50.357 6623.8M0.357004 6623.8L0.357005 6686.3M0.357004 6623.8L0.357004 6561.3M200.357 6623.8L200.357 6686.3M200.357 6623.8L200.357 6561.3M200.357 6623.8L150.357 6623.8M200.357 6623.8L250.357 6623.8M400.357 6623.8L400.357 6686.3M400.357 6623.8L400.357 6561.3M400.357 6623.8L350.357 6623.8M100.357 6998.8L100.357 6936.3M100.357 6998.8L50.357 6998.8M100.357 6998.8L150.357 6998.8M100.357 6873.8L100.357 6936.3M100.357 6873.8L50.357 6873.8M100.357 6873.8L150.357 6873.8M100.357 6873.8L100.357 6811.3M100.357 6748.8L50.357 6748.8M100.357 6748.8L100.357 6811.3M100.357 6748.8L100.357 6686.3M100.357 6748.8L150.357 6748.8M100.357 6623.8L50.357 6623.8M100.357 6623.8L100.357 6686.3M100.357 6623.8L100.357 6561.3M100.357 6623.8L150.357 6623.8M100.357 6498.8L50.357 6498.8M100.357 6498.8L100.357 6561.3M100.357 6498.8L150.357 6498.8M300.357 6498.8L300.357 6561.3M300.357 6498.8L350.357 6498.8M300.357 6498.8L250.357 6498.8M300.357 6623.8L300.357 6686.3M300.357 6623.8L300.357 6561.3M300.357 6623.8L350.357 6623.8M300.357 6623.8L250.357 6623.8M300.357 6748.8L300.357 6811.3M300.357 6748.8L300.357 6686.3M300.357 6748.8L350.357 6748.8M300.357 6748.8L250.357 6748.8M300.357 6873.8L300.357 6936.3M300.357 6873.8L300.357 6811.3M300.357 6873.8L350.357 6873.8M300.357 6873.8L250.357 6873.8M300.357 6998.8L300.357 6936.3M300.357 6998.8L350.357 6998.8M300.357 6998.8L250.357 6998.8M0.357009 6936.3L0.35701 6998.8L50.357 6998.8M0.357009 6936.3L100.357 6936.3M100.357 6936.3L200.357 6936.3M200.357 6936.3L300.357 6936.3M300.357 6936.3L400.357 6936.3M400.357 6936.3L400.357 6998.8L350.357 6998.8M50.357 6998.8L50.357 6873.8M50.357 6873.8L50.357 6748.8M50.357 6748.8L50.357 6623.8M50.357 6623.8L50.357 6498.8M50.357 6498.8L0.357003 6498.8L0.357004 6561.3M150.357 6998.8L150.357 6873.8M150.357 6873.8L150.357 6748.8M100.357 6811.3L200.357 6811.3M100.357 6811.3L0.357007 6811.3M300.357 6811.3L250.357 6811.3M300.357 6811.3L350.357 6811.3M400.357 6811.3L350.357 6811.3M400.357 6686.3L350.357 6686.3M300.357 6686.3L250.357 6686.3M300.357 6686.3L350.357 6686.3M200.357 6811.3L200.357 6748.8L200.357 6686.3M200.357 6811.3L250.357 6811.3M200.357 6686.3L100.357 6686.3M200.357 6686.3L250.357 6686.3M100.357 6686.3L0.357005 6686.3M0.357004 6561.3L100.357 6561.3M100.357 6561.3L200.357 6561.3M200.357 6561.3L250.357 6561.3M300.357 6561.3L250.357 6561.3M300.357 6561.3L350.357 6561.3M400.357 6561.3L400.357 6498.8L350.357 6498.8M400.357 6561.3L350.357 6561.3M350.357 6498.8L350.357 6561.3M350.357 6623.8L350.357 6686.3M350.357 6623.8L350.357 6561.3M350.357 6748.8L350.357 6811.3M350.357 6748.8L350.357 6686.3M350.357 6873.8L350.357 6998.8M350.357 6873.8L350.357 6811.3M150.357 6623.8L150.357 6748.8M150.357 6623.8L150.357 6498.8M150.357 6748.8L250.357 6748.8M250.357 6498.8L250.357 6561.3M250.357 6561.3L250.357 6623.8M250.357 6623.8L250.357 6686.3M250.357 6748.8L250.357 6811.3M250.357 6748.8L250.357 6686.3M250.357 6873.8L250.357 6998.8M250.357 6873.8L250.357 6811.3" stroke="white" stroke-opacity="0.02" stroke-width="0.5"/>
<path d="M0.357006 7248.8L50.357 7248.8M0.357006 7248.8L0.357007 7311.3M0.357006 7248.8L0.357005 7186.3M400.357 7248.8L400.357 7311.3M400.357 7248.8L400.357 7186.3M400.357 7248.8L350.357 7248.8M200.357 7498.8L200.357 7436.3M200.357 7498.8L150.357 7498.8M200.357 7498.8L250.357 7498.8M200.357 6998.8L200.357 7061.3M200.357 6998.8L150.357 6998.8M200.357 6998.8L250.357 6998.8M0.357008 7373.8L0.357009 7436.3M0.357008 7373.8L50.357 7373.8M0.357008 7373.8L0.357007 7311.3M200.357 7373.8L200.357 7436.3M200.357 7373.8L150.357 7373.8M200.357 7373.8L200.357 7311.3M200.357 7373.8L250.357 7373.8M400.357 7373.8L400.357 7436.3M400.357 7373.8L400.357 7311.3M400.357 7373.8L350.357 7373.8M0.357004 7123.8L50.357 7123.8M0.357004 7123.8L0.357005 7186.3M0.357004 7123.8L0.357004 7061.3M200.357 7123.8L200.357 7186.3M200.357 7123.8L200.357 7061.3M200.357 7123.8L150.357 7123.8M200.357 7123.8L250.357 7123.8M400.357 7123.8L400.357 7186.3M400.357 7123.8L400.357 7061.3M400.357 7123.8L350.357 7123.8M100.357 7498.8L100.357 7436.3M100.357 7498.8L50.357 7498.8M100.357 7498.8L150.357 7498.8M100.357 7373.8L100.357 7436.3M100.357 7373.8L50.357 7373.8M100.357 7373.8L150.357 7373.8M100.357 7373.8L100.357 7311.3M100.357 7248.8L50.357 7248.8M100.357 7248.8L100.357 7311.3M100.357 7248.8L100.357 7186.3M100.357 7248.8L150.357 7248.8M100.357 7123.8L50.357 7123.8M100.357 7123.8L100.357 7186.3M100.357 7123.8L100.357 7061.3M100.357 7123.8L150.357 7123.8M100.357 6998.8L50.357 6998.8M100.357 6998.8L100.357 7061.3M100.357 6998.8L150.357 6998.8M300.357 6998.8L300.357 7061.3M300.357 6998.8L350.357 6998.8M300.357 6998.8L250.357 6998.8M300.357 7123.8L300.357 7186.3M300.357 7123.8L300.357 7061.3M300.357 7123.8L350.357 7123.8M300.357 7123.8L250.357 7123.8M300.357 7248.8L300.357 7311.3M300.357 7248.8L300.357 7186.3M300.357 7248.8L350.357 7248.8M300.357 7248.8L250.357 7248.8M300.357 7373.8L300.357 7436.3M300.357 7373.8L300.357 7311.3M300.357 7373.8L350.357 7373.8M300.357 7373.8L250.357 7373.8M300.357 7498.8L300.357 7436.3M300.357 7498.8L350.357 7498.8M300.357 7498.8L250.357 7498.8M0.357009 7436.3L0.35701 7498.8L50.357 7498.8M0.357009 7436.3L100.357 7436.3M100.357 7436.3L200.357 7436.3M200.357 7436.3L300.357 7436.3M300.357 7436.3L400.357 7436.3M400.357 7436.3L400.357 7498.8L350.357 7498.8M50.357 7498.8L50.357 7373.8M50.357 7373.8L50.357 7248.8M50.357 7248.8L50.357 7123.8M50.357 7123.8L50.357 6998.8M50.357 6998.8L0.357003 6998.8L0.357004 7061.3M150.357 7498.8L150.357 7373.8M150.357 7373.8L150.357 7248.8M100.357 7311.3L200.357 7311.3M100.357 7311.3L0.357007 7311.3M300.357 7311.3L250.357 7311.3M300.357 7311.3L350.357 7311.3M400.357 7311.3L350.357 7311.3M400.357 7186.3L350.357 7186.3M300.357 7186.3L250.357 7186.3M300.357 7186.3L350.357 7186.3M200.357 7311.3L200.357 7248.8L200.357 7186.3M200.357 7311.3L250.357 7311.3M200.357 7186.3L100.357 7186.3M200.357 7186.3L250.357 7186.3M100.357 7186.3L0.357005 7186.3M0.357004 7061.3L100.357 7061.3M100.357 7061.3L200.357 7061.3M200.357 7061.3L250.357 7061.3M300.357 7061.3L250.357 7061.3M300.357 7061.3L350.357 7061.3M400.357 7061.3L400.357 6998.8L350.357 6998.8M400.357 7061.3L350.357 7061.3M350.357 6998.8L350.357 7061.3M350.357 7123.8L350.357 7186.3M350.357 7123.8L350.357 7061.3M350.357 7248.8L350.357 7311.3M350.357 7248.8L350.357 7186.3M350.357 7373.8L350.357 7498.8M350.357 7373.8L350.357 7311.3M150.357 7123.8L150.357 7248.8M150.357 7123.8L150.357 6998.8M150.357 7248.8L250.357 7248.8M250.357 6998.8L250.357 7061.3M250.357 7061.3L250.357 7123.8M250.357 7123.8L250.357 7186.3M250.357 7248.8L250.357 7311.3M250.357 7248.8L250.357 7186.3M250.357 7373.8L250.357 7498.8M250.357 7373.8L250.357 7311.3" stroke="white" stroke-opacity="0.02" stroke-width="0.5"/>
<path d="M0.357006 7748.8L50.357 7748.8M0.357006 7748.8L0.357007 7811.3M0.357006 7748.8L0.357005 7686.3M400.357 7748.8L400.357 7811.3M400.357 7748.8L400.357 7686.3M400.357 7748.8L350.357 7748.8M200.357 7998.8L200.357 7936.3M200.357 7998.8L150.357 7998.8M200.357 7998.8L250.357 7998.8M200.357 7498.8L200.357 7561.3M200.357 7498.8L150.357 7498.8M200.357 7498.8L250.357 7498.8M0.357008 7873.8L0.357009 7936.3M0.357008 7873.8L50.357 7873.8M0.357008 7873.8L0.357007 7811.3M200.357 7873.8L200.357 7936.3M200.357 7873.8L150.357 7873.8M200.357 7873.8L200.357 7811.3M200.357 7873.8L250.357 7873.8M400.357 7873.8L400.357 7936.3M400.357 7873.8L400.357 7811.3M400.357 7873.8L350.357 7873.8M0.357004 7623.8L50.357 7623.8M0.357004 7623.8L0.357005 7686.3M0.357004 7623.8L0.357004 7561.3M200.357 7623.8L200.357 7686.3M200.357 7623.8L200.357 7561.3M200.357 7623.8L150.357 7623.8M200.357 7623.8L250.357 7623.8M400.357 7623.8L400.357 7686.3M400.357 7623.8L400.357 7561.3M400.357 7623.8L350.357 7623.8M100.357 7998.8L100.357 7936.3M100.357 7998.8L50.357 7998.8M100.357 7998.8L150.357 7998.8M100.357 7873.8L100.357 7936.3M100.357 7873.8L50.357 7873.8M100.357 7873.8L150.357 7873.8M100.357 7873.8L100.357 7811.3M100.357 7748.8L50.357 7748.8M100.357 7748.8L100.357 7811.3M100.357 7748.8L100.357 7686.3M100.357 7748.8L150.357 7748.8M100.357 7623.8L50.357 7623.8M100.357 7623.8L100.357 7686.3M100.357 7623.8L100.357 7561.3M100.357 7623.8L150.357 7623.8M100.357 7498.8L50.357 7498.8M100.357 7498.8L100.357 7561.3M100.357 7498.8L150.357 7498.8M300.357 7498.8L300.357 7561.3M300.357 7498.8L350.357 7498.8M300.357 7498.8L250.357 7498.8M300.357 7623.8L300.357 7686.3M300.357 7623.8L300.357 7561.3M300.357 7623.8L350.357 7623.8M300.357 7623.8L250.357 7623.8M300.357 7748.8L300.357 7811.3M300.357 7748.8L300.357 7686.3M300.357 7748.8L350.357 7748.8M300.357 7748.8L250.357 7748.8M300.357 7873.8L300.357 7936.3M300.357 7873.8L300.357 7811.3M300.357 7873.8L350.357 7873.8M300.357 7873.8L250.357 7873.8M300.357 7998.8L300.357 7936.3M300.357 7998.8L350.357 7998.8M300.357 7998.8L250.357 7998.8M0.357009 7936.3L0.35701 7998.8L50.357 7998.8M0.357009 7936.3L100.357 7936.3M100.357 7936.3L200.357 7936.3M200.357 7936.3L300.357 7936.3M300.357 7936.3L400.357 7936.3M400.357 7936.3L400.357 7998.8L350.357 7998.8M50.357 7998.8L50.357 7873.8M50.357 7873.8L50.357 7748.8M50.357 7748.8L50.357 7623.8M50.357 7623.8L50.357 7498.8M50.357 7498.8L0.357003 7498.8L0.357004 7561.3M150.357 7998.8L150.357 7873.8M150.357 7873.8L150.357 7748.8M100.357 7811.3L200.357 7811.3M100.357 7811.3L0.357007 7811.3M300.357 7811.3L250.357 7811.3M300.357 7811.3L350.357 7811.3M400.357 7811.3L350.357 7811.3M400.357 7686.3L350.357 7686.3M300.357 7686.3L250.357 7686.3M300.357 7686.3L350.357 7686.3M200.357 7811.3L200.357 7748.8L200.357 7686.3M200.357 7811.3L250.357 7811.3M200.357 7686.3L100.357 7686.3M200.357 7686.3L250.357 7686.3M100.357 7686.3L0.357005 7686.3M0.357004 7561.3L100.357 7561.3M100.357 7561.3L200.357 7561.3M200.357 7561.3L250.357 7561.3M300.357 7561.3L250.357 7561.3M300.357 7561.3L350.357 7561.3M400.357 7561.3L400.357 7498.8L350.357 7498.8M400.357 7561.3L350.357 7561.3M350.357 7498.8L350.357 7561.3M350.357 7623.8L350.357 7686.3M350.357 7623.8L350.357 7561.3M350.357 7748.8L350.357 7811.3M350.357 7748.8L350.357 7686.3M350.357 7873.8L350.357 7998.8M350.357 7873.8L350.357 7811.3M150.357 7623.8L150.357 7748.8M150.357 7623.8L150.357 7498.8M150.357 7748.8L250.357 7748.8M250.357 7498.8L250.357 7561.3M250.357 7561.3L250.357 7623.8M250.357 7623.8L250.357 7686.3M250.357 7748.8L250.357 7811.3M250.357 7748.8L250.357 7686.3M250.357 7873.8L250.357 7998.8M250.357 7873.8L250.357 7811.3" stroke="white" stroke-opacity="0.02" stroke-width="0.5"/>
<path d="M200.357 7998.8L200.357 8061.3M200.357 7998.8L150.357 7998.8M200.357 7998.8L250.357 7998.8M0.357009 8123.8L50.357 8123.8M0.357009 8123.8L0.35701 8186.3L50.357 8186.3M0.357009 8123.8L0.357008 8061.3M200.357 8123.8L200.357 8186.3M200.357 8123.8L200.357 8061.3M200.357 8123.8L150.357 8123.8M200.357 8123.8L250.357 8123.8M400.357 8123.8L400.357 8186.3L350.357 8186.3M400.357 8123.8L400.357 8061.3M400.357 8123.8L350.357 8123.8M100.357 8123.8L50.357 8123.8M100.357 8123.8L100.357 8186.3M100.357 8123.8L100.357 8061.3M100.357 8123.8L150.357 8123.8M100.357 7998.8L50.357 7998.8M100.357 7998.8L100.357 8061.3M100.357 7998.8L150.357 7998.8M300.357 7998.8L300.357 8061.3M300.357 7998.8L350.357 7998.8M300.357 7998.8L250.357 7998.8M300.357 8123.8L300.357 8186.3M300.357 8123.8L300.357 8061.3M300.357 8123.8L350.357 8123.8M300.357 8123.8L250.357 8123.8M50.357 8123.8L50.357 7998.8M50.357 8123.8L50.357 8186.3M50.357 7998.8L0.357007 7998.8L0.357008 8061.3M300.357 8186.3L250.357 8186.3M300.357 8186.3L350.357 8186.3M200.357 8186.3L250.357 8186.3M200.357 8186.3L150.357 8186.3M100.357 8186.3L50.357 8186.3M100.357 8186.3L150.357 8186.3M0.357008 8061.3L100.357 8061.3M100.357 8061.3L200.357 8061.3M200.357 8061.3L250.357 8061.3M300.357 8061.3L250.357 8061.3M300.357 8061.3L350.357 8061.3M400.357 8061.3L400.357 7998.8L350.357 7998.8M400.357 8061.3L350.357 8061.3M350.357 7998.8L350.357 8061.3M350.357 8123.8L350.357 8186.3M350.357 8123.8L350.357 8061.3M150.357 8123.8L150.357 7998.8M150.357 8123.8L150.357 8186.3M250.357 7998.8L250.357 8061.3M250.357 8061.3L250.357 8123.8M250.357 8123.8L250.357 8186.3" stroke="white" stroke-opacity="0.02" stroke-width="0.5"/>
<rect x="78.3219" y="8154.65" width="34.9124" height="28.0098" fill="#D9D9D9"/>
<g filter="url(#filter0_d_255_159)">
<path d="M361.18 175.926C359.745 182.355 355.562 187.377 350.206 189.099L159.5 250.443C154.144 252.166 148.43 250.327 144.51 245.621L4.9029 78.0276C0.982309 73.3211 -0.548844 66.4611 0.886192 60.0319L14.195 0.405518L400.357 0.405522L361.18 175.926Z" fill="url(#paint0_linear_255_159)"/>
<path d="M13.4207 3.87483C13.6902 3.93498 13.9574 3.76527 14.0176 3.49576L14.5957 0.905518L17.2118 0.905518C17.4879 0.905518 17.7118 0.68166 17.7118 0.405518H22.7455C22.7455 0.68166 22.9694 0.905518 23.2455 0.905518L29.2793 0.905518C29.5555 0.905518 29.7793 0.68166 29.7793 0.405518H34.8131C34.8131 0.68166 35.037 0.905518 35.3131 0.905518L41.3469 0.905518C41.623 0.905518 41.8469 0.68166 41.8469 0.405518H46.8807C46.8807 0.68166 47.1045 0.905518 47.3807 0.905518L53.4145 0.905518C53.6906 0.905518 53.9145 0.68166 53.9145 0.405518H58.9482C58.9482 0.681661 59.1721 0.905518 59.4482 0.905518L65.482 0.905518C65.7582 0.905518 65.982 0.681661 65.982 0.405518H71.0158C71.0158 0.681661 71.2397 0.905518 71.5158 0.905518L77.5496 0.905518C77.8257 0.905518 78.0496 0.681661 78.0496 0.405518H83.0834C83.0834 0.681661 83.3072 0.905518 83.5834 0.905518L89.6172 0.905519C89.8933 0.905519 90.1172 0.681661 90.1172 0.405518H95.1509C95.1509 0.681661 95.3748 0.905519 95.6509 0.905519L101.685 0.905519C101.961 0.905519 102.185 0.681661 102.185 0.405518H107.218C107.218 0.681661 107.442 0.905519 107.718 0.905519L113.752 0.905519C114.028 0.905519 114.252 0.681661 114.252 0.405518H119.286C119.286 0.681661 119.51 0.905519 119.786 0.905519L125.82 0.905519C126.096 0.905519 126.32 0.681661 126.32 0.405518H131.354C131.354 0.681661 131.577 0.905519 131.854 0.905519L137.887 0.905519C138.164 0.905519 138.387 0.681662 138.387 0.405518H143.421C143.421 0.681662 143.645 0.905519 143.921 0.905519L149.955 0.905519C150.231 0.905519 150.455 0.681662 150.455 0.405518H155.489C155.489 0.681662 155.713 0.905519 155.989 0.905519L162.023 0.905519C162.299 0.905519 162.523 0.681662 162.523 0.405518L167.556 0.40552C167.556 0.681662 167.78 0.90552 168.056 0.90552L174.09 0.90552C174.366 0.90552 174.59 0.681662 174.59 0.40552L179.624 0.40552C179.624 0.681662 179.848 0.90552 180.124 0.90552L186.158 0.90552C186.434 0.90552 186.658 0.681662 186.658 0.40552L191.691 0.40552C191.691 0.681662 191.915 0.90552 192.191 0.90552L198.225 0.90552C198.501 0.90552 198.725 0.681662 198.725 0.40552L203.759 0.40552C203.759 0.681662 203.983 0.90552 204.259 0.90552L210.293 0.90552C210.569 0.90552 210.793 0.681662 210.793 0.40552L215.827 0.40552C215.827 0.681663 216.05 0.90552 216.327 0.90552L222.36 0.90552C222.637 0.90552 222.86 0.681663 222.86 0.40552L227.894 0.40552C227.894 0.681663 228.118 0.90552 228.394 0.90552L234.428 0.90552C234.704 0.90552 234.928 0.681663 234.928 0.40552L239.962 0.40552C239.962 0.681663 240.186 0.90552 240.462 0.90552L246.496 0.905521C246.772 0.905521 246.996 0.681663 246.996 0.405521L252.029 0.405521C252.029 0.681663 252.253 0.905521 252.529 0.905521L258.563 0.905521C258.839 0.905521 259.063 0.681663 259.063 0.405521L264.097 0.405521C264.097 0.681663 264.321 0.905521 264.597 0.905521L270.631 0.905521C270.907 0.905521 271.131 0.681663 271.131 0.405521L276.164 0.405521C276.164 0.681663 276.388 0.905521 276.664 0.905521L282.698 0.905521C282.974 0.905521 283.198 0.681663 283.198 0.405521L288.232 0.405521C288.232 0.681663 288.456 0.905521 288.732 0.905521L294.766 0.905521C295.042 0.905521 295.266 0.681664 295.266 0.405521L300.3 0.405521C300.3 0.681664 300.523 0.905521 300.8 0.905521L306.833 0.905521C307.109 0.905521 307.333 0.681664 307.333 0.405521L312.367 0.405521C312.367 0.681664 312.591 0.905521 312.867 0.905521L318.901 0.905521C319.177 0.905521 319.401 0.681664 319.401 0.405521L324.435 0.405522C324.435 0.681664 324.659 0.905522 324.935 0.905522L330.968 0.905522C331.245 0.905522 331.468 0.681664 331.468 0.405522L336.502 0.405522C336.502 0.681664 336.726 0.905522 337.002 0.905522L343.036 0.905522C343.312 0.905522 343.536 0.681664 343.536 0.405522L348.57 0.405522C348.57 0.681664 348.794 0.905522 349.07 0.905522L355.104 0.905522C355.38 0.905522 355.604 0.681664 355.604 0.405522L360.637 0.405522C360.637 0.681664 360.861 0.905522 361.137 0.905522L367.171 0.905522C367.447 0.905522 367.671 0.681664 367.671 0.405522L372.705 0.405522C372.705 0.681665 372.929 0.905522 373.205 0.905522L379.239 0.905522C379.515 0.905522 379.739 0.681665 379.739 0.405522L384.772 0.405522C384.772 0.681665 384.996 0.905522 385.272 0.905522L391.306 0.905522C391.582 0.905522 391.806 0.681665 391.806 0.405522L396.84 0.405522C396.84 0.681665 397.064 0.905522 397.34 0.905522L399.733 0.905523L399.216 3.22188C399.156 3.49139 399.326 3.75864 399.595 3.8188L398.507 8.69349C398.238 8.63333 397.97 8.80305 397.91 9.07256L396.604 14.9232C396.544 15.1927 396.714 15.46 396.983 15.5202L395.895 20.3948C395.626 20.3347 395.358 20.5044 395.298 20.7739L393.992 26.6246C393.932 26.8941 394.102 27.1613 394.371 27.2215L393.283 32.0962C393.014 32.036 392.747 32.2058 392.687 32.4753L391.381 38.3259C391.32 38.5954 391.49 38.8627 391.76 38.9228L390.672 43.7975C390.402 43.7374 390.135 43.9071 390.075 44.1766L388.769 50.0273C388.709 50.2968 388.878 50.564 389.148 50.6242L388.06 55.4989C387.79 55.4387 387.523 55.6085 387.463 55.878L386.157 61.7286C386.097 61.9982 386.267 62.2654 386.536 62.3256L385.448 67.2002C385.179 67.1401 384.911 67.3098 384.851 67.5793L383.545 73.43C383.485 73.6995 383.655 73.9667 383.924 74.0269L382.836 78.9016C382.567 78.8414 382.3 79.0112 382.239 79.2807L380.934 85.1313C380.873 85.4008 381.043 85.6681 381.313 85.7283L380.225 90.6029C379.955 90.5428 379.688 90.7125 379.628 90.982L378.322 96.8327C378.262 97.1022 378.431 97.3694 378.701 97.4296L377.613 102.304C377.343 102.244 377.076 102.414 377.016 102.683L375.71 108.534C375.65 108.804 375.819 109.071 376.089 109.131L375.001 114.006C374.731 113.945 374.464 114.115 374.404 114.385L373.098 120.235C373.038 120.505 373.208 120.772 373.477 120.832L372.389 125.707C372.12 125.647 371.852 125.817 371.792 126.086L370.486 131.937C370.426 132.206 370.596 132.473 370.865 132.534L369.777 137.408C369.508 137.348 369.241 137.518 369.18 137.787L367.875 143.638C367.814 143.908 367.984 144.175 368.254 144.235L367.166 149.11C366.896 149.05 366.629 149.219 366.569 149.489L365.263 155.339C365.203 155.609 365.372 155.876 365.642 155.936L364.554 160.811C364.284 160.751 364.017 160.921 363.957 161.19L362.651 167.041C362.591 167.31 362.761 167.578 363.03 167.638L361.942 172.512C361.673 172.452 361.405 172.622 361.345 172.891L360.692 175.817C360.366 177.28 359.893 178.668 359.296 179.956C359.181 180.204 359.287 180.499 359.534 180.617C358.303 183.103 356.607 185.212 354.585 186.773C354.422 186.555 354.114 186.507 353.892 186.667C352.708 187.521 351.419 188.184 350.053 188.623L347.249 189.526C346.986 189.61 346.841 189.892 346.926 190.155L342.269 191.653C342.184 191.39 341.903 191.245 341.64 191.33L336.031 193.134C335.768 193.219 335.623 193.5 335.708 193.763L331.051 195.261C330.966 194.998 330.685 194.854 330.422 194.938L324.813 196.742C324.55 196.827 324.405 197.109 324.49 197.372L319.833 198.87C319.748 198.607 319.467 198.462 319.204 198.547L313.595 200.351C313.332 200.435 313.187 200.717 313.272 200.98L308.615 202.478C308.53 202.215 308.249 202.071 307.986 202.155L302.377 203.959C302.114 204.044 301.969 204.326 302.054 204.588L297.397 206.086C297.312 205.824 297.031 205.679 296.768 205.764L291.159 207.568C290.896 207.652 290.751 207.934 290.836 208.197L286.179 209.695C286.094 209.432 285.812 209.287 285.55 209.372L279.941 211.176C279.678 211.261 279.533 211.542 279.618 211.805L274.961 213.303C274.876 213.04 274.595 212.896 274.332 212.98L268.723 214.785C268.46 214.869 268.315 215.151 268.4 215.414L263.743 216.912C263.658 216.649 263.376 216.504 263.114 216.589L257.505 218.393C257.242 218.478 257.097 218.759 257.182 219.022L252.525 220.52C252.44 220.257 252.158 220.113 251.896 220.197L246.287 222.002C246.024 222.086 245.879 222.368 245.964 222.631L241.307 224.129C241.222 223.866 240.94 223.721 240.678 223.806L235.069 225.61C234.806 225.695 234.661 225.976 234.746 226.239L230.089 227.737C230.004 227.474 229.722 227.33 229.46 227.414L223.851 229.218C223.588 229.303 223.443 229.585 223.528 229.847L218.871 231.345C218.786 231.083 218.504 230.938 218.242 231.023L212.633 232.827C212.37 232.911 212.225 233.193 212.31 233.456L207.653 234.954C207.568 234.691 207.286 234.546 207.024 234.631L201.415 236.435C201.152 236.52 201.007 236.801 201.092 237.064L196.435 238.562C196.35 238.299 196.068 238.155 195.806 238.239L190.197 240.044C189.934 240.128 189.789 240.41 189.874 240.673L185.217 242.171C185.132 241.908 184.85 241.763 184.588 241.848L178.979 243.652C178.716 243.737 178.571 244.018 178.656 244.281L173.999 245.779C173.914 245.516 173.632 245.372 173.37 245.456L167.76 247.261C167.498 247.345 167.353 247.627 167.438 247.89L162.781 249.388C162.696 249.125 162.414 248.98 162.151 249.065L159.347 249.967C158.036 250.389 156.704 250.588 155.384 250.578C155.111 250.576 154.888 250.792 154.88 251.064C152.462 250.951 150.095 250.159 147.975 248.752C148.129 248.528 148.075 248.22 147.853 248.062C146.79 247.305 145.794 246.382 144.894 245.301L142.955 242.973C142.778 242.761 142.463 242.732 142.25 242.909L139.013 239.022C139.225 238.845 139.253 238.53 139.077 238.318L135.199 233.662C135.022 233.45 134.707 233.422 134.495 233.598L131.257 229.711C131.469 229.535 131.498 229.219 131.321 229.007L127.443 224.352C127.266 224.14 126.951 224.111 126.739 224.288L123.501 220.401C123.713 220.224 123.742 219.909 123.565 219.696L119.687 215.041C119.51 214.829 119.195 214.8 118.983 214.977L115.745 211.09C115.957 210.913 115.986 210.598 115.809 210.386L111.931 205.73C111.754 205.518 111.439 205.489 111.227 205.666L107.989 201.779C108.201 201.602 108.23 201.287 108.053 201.075L104.175 196.42C103.998 196.207 103.683 196.179 103.471 196.355L100.233 192.468C100.445 192.292 100.474 191.976 100.297 191.764L96.4192 187.109C96.2424 186.897 95.9272 186.868 95.715 187.045L92.4771 183.158C92.6892 182.981 92.718 182.666 92.5412 182.453L88.6633 177.798C88.4865 177.586 88.1712 177.557 87.9591 177.734L84.7211 173.847C84.9333 173.67 84.962 173.355 84.7853 173.143L80.9073 168.487C80.7306 168.275 80.4153 168.246 80.2031 168.423L76.9652 164.536C77.1774 164.359 77.2061 164.044 77.0294 163.832L73.1514 159.177C72.9747 158.964 72.6594 158.936 72.4472 159.112L69.2093 155.225C69.4215 155.049 69.4502 154.733 69.2734 154.521L65.3955 149.866C65.2187 149.654 64.9035 149.625 64.6913 149.802L61.4534 145.915C61.6655 145.738 61.6943 145.423 61.5175 145.21L57.6396 140.555C57.4628 140.343 57.1475 140.314 56.9354 140.491L53.6974 136.604C53.9096 136.427 53.9383 136.112 53.7616 135.9L49.8836 131.244C49.7069 131.032 49.3916 131.003 49.1794 131.18L45.9415 127.293C46.1537 127.116 46.1824 126.801 46.0057 126.589L42.1277 121.934C41.951 121.721 41.6357 121.693 41.4235 121.869L38.1856 117.982C38.3978 117.806 38.4265 117.49 38.2497 117.278L34.3718 112.623C34.195 112.411 33.8798 112.382 33.6676 112.559L30.4297 108.672C30.6418 108.495 30.6706 108.18 30.4938 107.967L26.6159 103.312C26.4391 103.1 26.1238 103.071 25.9117 103.248L22.6737 99.3609C22.8859 99.1842 22.9146 98.8689 22.7379 98.6567L18.8599 94.0014C18.6832 93.7892 18.3679 93.7605 18.1557 93.9372L14.9178 90.0502C15.13 89.8735 15.1587 89.5582 14.982 89.346L11.104 84.6906C10.9273 84.4785 10.612 84.4497 10.3998 84.6265L7.1619 80.7395C7.37407 80.5627 7.40279 80.2474 7.22605 80.0353L5.28707 77.7076C4.79458 77.1164 4.34044 76.4896 3.92601 75.8326C3.77987 75.601 3.47487 75.5303 3.242 75.673C2.60551 74.602 2.06964 73.46 1.6391 72.2682C1.89736 72.1785 2.03601 71.8974 1.94908 71.6374C1.46199 70.1806 1.13326 68.6522 0.972151 67.0914C0.94399 66.8186 0.701466 66.6198 0.42905 66.6448C0.328819 65.4006 0.332532 64.1395 0.444381 62.8803C0.716574 62.9077 0.960726 62.7108 0.991141 62.4383C1.07697 61.6691 1.20433 60.9018 1.37418 60.1408L2.03963 57.1595C2.09978 56.89 1.93007 56.6227 1.66056 56.5626L2.77359 51.5759C3.04311 51.6361 3.31035 51.4664 3.37051 51.1968L4.70139 45.2342C4.76155 44.9647 4.59183 44.6975 4.32232 44.6373L5.43536 39.6506C5.70487 39.7108 5.97212 39.5411 6.03228 39.2716L7.36316 33.3089C7.42332 33.0394 7.2536 32.7722 6.98409 32.712L8.09713 27.7254C8.36664 27.7855 8.63389 27.6158 8.69404 27.3463L10.0249 21.3837C10.0851 21.1142 9.91537 20.8469 9.64586 20.7868L10.7589 15.8001C11.0284 15.8603 11.2957 15.6905 11.3558 15.421L12.6867 9.45839C12.7468 9.18888 12.5771 8.92164 12.3076 8.86148L13.4207 3.87483Z" stroke="#E8D7AB" stroke-opacity="0.06" stroke-linecap="round" stroke-linejoin="round" stroke-dasharray="6 6"/>
</g>
<defs>
<filter id="filter0_d_255_159" x="0.357025" y="0.405518" width="400" height="262.673" filterUnits="userSpaceOnUse" color-interpolation-filters="sRGB">
<feFlood flood-opacity="0" result="BackgroundImageFix"/>
<feColorMatrix in="SourceAlpha" type="matrix" values="0 0 0 0 0 0 0 0 0 0 0 0 0 0 0 0 0 0 127 0" result="hardAlpha"/>
<feOffset dy="12"/>
<feComposite in2="hardAlpha" operator="out"/>
<feColorMatrix type="matrix" values="0 0 0 0 0 0 0 0 0 0 0 0 0 0 0 0 0 0 0.25 0"/>
<feBlend mode="normal" in2="BackgroundImageFix" result="effect1_dropShadow_255_159"/>
<feBlend mode="normal" in="SourceGraphic" in2="effect1_dropShadow_255_159" result="shape"/>
</filter>
<linearGradient id="paint0_linear_255_159" x1="73.1386" y1="303.518" x2="423.165" y2="-59.9379" gradientUnits="userSpaceOnUse">
<stop offset="0.522632" stop-color="#13171C"/>
<stop offset="0.522732" stop-color="#151921"/>
</linearGradient>
</defs>
</svg>
