<svg width="1526" height="751" viewBox="0 0 1526 751" fill="none" xmlns="http://www.w3.org/2000/svg">
<path d="M0.585938 0.526611H191.086H381.586H572.086H762.586H953.086H1143.59H1334.09H1524.59V94.1516V187.777V281.401V375.026V468.651V562.276V655.901V749.526H1334.09H1143.59H953.086H762.586H572.086H381.586H191.086H0.585938V655.901V562.276V468.651V375.026V281.401V187.777V94.1516V0.526611Z" fill="#161B22"/>
<path d="M762.586 0.526611V94.1516M762.586 0.526611H572.086M762.586 0.526611H953.086M762.586 749.526H572.086M762.586 749.526H953.086M762.586 749.526V655.901M0.585938 375.026H191.086M0.585938 375.026V281.401M0.585938 375.026V468.651M1524.59 375.026H1334.09M1524.59 375.026V281.401M1524.59 375.026V468.651M381.586 0.526611H191.086M381.586 0.526611V94.1516M381.586 0.526611H572.086M381.586 375.026H191.086M381.586 375.026V281.401M381.586 375.026H572.086M381.586 375.026V468.651M381.586 749.526H191.086M381.586 749.526H572.086M381.586 749.526V655.901M1143.59 0.526611V94.1516M1143.59 0.526611H953.086M1143.59 0.526611H1334.09M1143.59 375.026H953.086M1143.59 375.026H1334.09M1143.59 375.026V281.401M1143.59 375.026V468.651M1143.59 749.526H953.086M1143.59 749.526H1334.09M1143.59 749.526V655.901M0.585938 187.777H191.086M0.585938 187.777V94.1516M0.585938 187.777V281.401M381.586 187.777H191.086M381.586 187.777V94.1516M381.586 187.777V281.401M381.586 187.777H572.086M762.586 187.777V94.1516M762.586 187.777H572.086M762.586 187.777H953.086M762.586 187.777V281.401M1143.59 187.777V94.1516M1143.59 187.777H953.086M1143.59 187.777H1334.09M1143.59 187.777V281.401M1524.59 187.777V94.1516M1524.59 187.777H1334.09M1524.59 187.777V281.401M1524.59 562.276H1334.09M1524.59 562.276V655.901M1524.59 562.276V468.651M1143.59 562.276H953.086M1143.59 562.276H1334.09M1143.59 562.276V655.901M1143.59 562.276V468.651M762.586 562.276H572.086M762.586 562.276H953.086M762.586 562.276V655.901M762.586 562.276V468.651M381.586 562.276H191.086M381.586 562.276H572.086M381.586 562.276V655.901M381.586 562.276V468.651M0.585938 562.276H191.086M0.585938 562.276V655.901M0.585938 562.276V468.651M191.086 0.526611H0.585938V94.1516M191.086 0.526611V187.777M191.086 187.777V375.026M191.086 375.026V562.276M191.086 562.276V749.526M191.086 749.526H0.585938V655.901M0.585938 94.1516H381.586M381.586 94.1516H762.586M762.586 94.1516H1143.59M1143.59 94.1516H1524.59M1524.59 94.1516V0.526611H1334.09M0.585938 281.401H381.586M381.586 281.401H762.586M572.086 187.777V375.026M572.086 187.777V0.526611M572.086 562.276V468.651M572.086 562.276V655.901M572.086 749.526V655.901M953.086 749.526V655.901M953.086 562.276V468.651M953.086 562.276V655.901M572.086 375.026H762.586H953.086M572.086 375.026V468.651M953.086 375.026V187.777M953.086 375.026V468.651M953.086 187.777V0.526611M1334.09 0.526611V187.777M1334.09 187.777V375.026M1334.09 375.026V468.651M1334.09 562.276V468.651M1334.09 562.276V655.901M1334.09 749.526H1524.59V655.901M1334.09 749.526V655.901M1524.59 655.901H1334.09M1143.59 655.901H953.086M1143.59 655.901H1334.09M762.586 655.901H572.086M762.586 655.901H953.086M381.586 655.901H0.585938M381.586 655.901H572.086M1143.59 281.401H762.586M1143.59 281.401H1524.59M762.586 281.401V468.651M1524.59 468.651H1334.09M1334.09 468.651H1143.59M1143.59 468.651H953.086M762.586 468.651H572.086M762.586 468.651H953.086M381.586 468.651H0.585938M381.586 468.651H572.086" stroke="white" stroke-opacity="0.05"/>
</svg>
