<svg width="1559" height="4098" viewBox="0 0 1559 4098" fill="none" xmlns="http://www.w3.org/2000/svg">
<path d="M11.2145 0.870239H203.214H395.214H587.214H779.214H971.214H1163.21H1355.21H1547.21V128.87V256.87V384.87V512.87V640.87V768.87V896.87V1024.87H1355.21H1163.21H971.214H779.214H587.214H395.214H203.214H11.2145V896.87V768.87V640.87V512.87V384.87V256.87V128.87V0.870239Z" fill="#161B22"/>
<path d="M779.214 0.870239V128.87M779.214 0.870239H587.214M779.214 0.870239H971.214M779.214 1024.87H587.214M779.214 1024.87H971.214M779.214 1024.87V896.87M11.2145 512.87H203.214M11.2145 512.87V384.87M11.2145 512.87V640.87M1547.21 512.87H1355.21M1547.21 512.87V384.87M1547.21 512.87V640.87M395.214 0.870239H203.214M395.214 0.870239V128.87M395.214 0.870239H587.214M395.214 512.87H203.214M395.214 512.87V384.87M395.214 512.87H587.214M395.214 512.87V640.87M395.214 1024.87H203.214M395.214 1024.87H587.214M395.214 1024.87V896.87M1163.21 0.870239V128.87M1163.21 0.870239H971.214M1163.21 0.870239H1355.21M1163.21 512.87H971.214M1163.21 512.87H1355.21M1163.21 512.87V384.87M1163.21 512.87V640.87M1163.21 1024.87H971.214M1163.21 1024.87H1355.21M1163.21 1024.87V896.87M11.2145 256.87H203.214M11.2145 256.87V128.87M11.2145 256.87V384.87M395.214 256.87H203.214M395.214 256.87V128.87M395.214 256.87V384.87M395.214 256.87H587.214M779.214 256.87V128.87M779.214 256.87H587.214M779.214 256.87H971.214M779.214 256.87V384.87M1163.21 256.87V128.87M1163.21 256.87H971.214M1163.21 256.87H1355.21M1163.21 256.87V384.87M1547.21 256.87V128.87M1547.21 256.87H1355.21M1547.21 256.87V384.87M1547.21 768.87H1355.21M1547.21 768.87V896.87M1547.21 768.87V640.87M1163.21 768.87H971.214M1163.21 768.87H1355.21M1163.21 768.87V896.87M1163.21 768.87V640.87M779.214 768.87H587.214M779.214 768.87H971.214M779.214 768.87V896.87M779.214 768.87V640.87M395.214 768.87H203.214M395.214 768.87H587.214M395.214 768.87V896.87M395.214 768.87V640.87M11.2145 768.87H203.214M11.2145 768.87V896.87M11.2145 768.87V640.87M203.214 0.870239H11.2145V128.87M203.214 0.870239V256.87M203.214 256.87V512.87M203.214 512.87V768.87M203.214 768.87V1024.87M203.214 1024.87H11.2145V896.87M11.2145 128.87H395.214M395.214 128.87H779.214M779.214 128.87H1163.21M1163.21 128.87H1547.21M1547.21 128.87V0.870239H1355.21M11.2145 384.87H395.214M395.214 384.87H779.214M587.214 256.87V512.87M587.214 256.87V0.870239M587.214 768.87V640.87M587.214 768.87V896.87M587.214 1024.87V896.87M971.214 1024.87V896.87M971.214 768.87V640.87M971.214 768.87V896.87M587.214 512.87H779.214H971.214M587.214 512.87V640.87M971.214 512.87V256.87M971.214 512.87V640.87M971.214 256.87V0.870239M1355.21 0.870239V256.87M1355.21 256.87V512.87M1355.21 512.87V640.87M1355.21 768.87V640.87M1355.21 768.87V896.87M1355.21 1024.87H1547.21V896.87M1355.21 1024.87V896.87M1547.21 896.87H1355.21M1163.21 896.87H971.214M1163.21 896.87H1355.21M779.214 896.87H587.214M779.214 896.87H971.214M395.214 896.87H11.2145M395.214 896.87H587.214M1163.21 384.87H779.214M1163.21 384.87H1547.21M779.214 384.87V640.87M1547.21 640.87H1355.21M1355.21 640.87H1163.21M1163.21 640.87H971.214M779.214 640.87H587.214M779.214 640.87H971.214M395.214 640.87H11.2145M395.214 640.87H587.214" stroke="white" stroke-opacity="0.03"/>
<path d="M11.2145 2048.87H203.214H395.214H587.214H779.214H971.214H1163.21H1355.21H1547.21V2176.87V2304.87V2432.87V2560.87V2688.87V2816.87V2944.87V3072.87H1355.21H1163.21H971.214H779.214H587.214H395.214H203.214H11.2145V2944.87V2816.87V2688.87V2560.87V2432.87V2304.87V2176.87V2048.87Z" fill="#161B22"/>
<path d="M779.214 2048.87V2176.87M779.214 2048.87H587.214M779.214 2048.87H971.214M779.214 3072.87H587.214M779.214 3072.87H971.214M779.214 3072.87V2944.87M11.2145 2560.87H203.214M11.2145 2560.87V2432.87M11.2145 2560.87V2688.87M1547.21 2560.87H1355.21M1547.21 2560.87V2432.87M1547.21 2560.87V2688.87M395.214 2048.87H203.214M395.214 2048.87V2176.87M395.214 2048.87H587.214M395.214 2560.87H203.214M395.214 2560.87V2432.87M395.214 2560.87H587.214M395.214 2560.87V2688.87M395.214 3072.87H203.214M395.214 3072.87H587.214M395.214 3072.87V2944.87M1163.21 2048.87V2176.87M1163.21 2048.87H971.214M1163.21 2048.87H1355.21M1163.21 2560.87H971.214M1163.21 2560.87H1355.21M1163.21 2560.87V2432.87M1163.21 2560.87V2688.87M1163.21 3072.87H971.214M1163.21 3072.87H1355.21M1163.21 3072.87V2944.87M11.2145 2304.87H203.214M11.2145 2304.87V2176.87M11.2145 2304.87V2432.87M395.214 2304.87H203.214M395.214 2304.87V2176.87M395.214 2304.87V2432.87M395.214 2304.87H587.214M779.214 2304.87V2176.87M779.214 2304.87H587.214M779.214 2304.87H971.214M779.214 2304.87V2432.87M1163.21 2304.87V2176.87M1163.21 2304.87H971.214M1163.21 2304.87H1355.21M1163.21 2304.87V2432.87M1547.21 2304.87V2176.87M1547.21 2304.87H1355.21M1547.21 2304.87V2432.87M1547.21 2816.87H1355.21M1547.21 2816.87V2944.87M1547.21 2816.87V2688.87M1163.21 2816.87H971.214M1163.21 2816.87H1355.21M1163.21 2816.87V2944.87M1163.21 2816.87V2688.87M779.214 2816.87H587.214M779.214 2816.87H971.214M779.214 2816.87V2944.87M779.214 2816.87V2688.87M395.214 2816.87H203.214M395.214 2816.87H587.214M395.214 2816.87V2944.87M395.214 2816.87V2688.87M11.2145 2816.87H203.214M11.2145 2816.87V2944.87M11.2145 2816.87V2688.87M203.214 2048.87H11.2145V2176.87M203.214 2048.87V2304.87M203.214 2304.87V2560.87M203.214 2560.87V2816.87M203.214 2816.87V3072.87M203.214 3072.87H11.2145V2944.87M11.2145 2176.87H395.214M395.214 2176.87H779.214M779.214 2176.87H1163.21M1163.21 2176.87H1547.21M1547.21 2176.87V2048.87H1355.21M11.2145 2432.87H395.214M395.214 2432.87H779.214M587.214 2304.87V2560.87M587.214 2304.87V2048.87M587.214 2816.87V2688.87M587.214 2816.87V2944.87M587.214 3072.87V2944.87M971.214 3072.87V2944.87M971.214 2816.87V2688.87M971.214 2816.87V2944.87M587.214 2560.87H779.214H971.214M587.214 2560.87V2688.87M971.214 2560.87V2304.87M971.214 2560.87V2688.87M971.214 2304.87V2048.87M1355.21 2048.87V2304.87M1355.21 2304.87V2560.87M1355.21 2560.87V2688.87M1355.21 2816.87V2688.87M1355.21 2816.87V2944.87M1355.21 3072.87H1547.21V2944.87M1355.21 3072.87V2944.87M1547.21 2944.87H1355.21M1163.21 2944.87H971.214M1163.21 2944.87H1355.21M779.214 2944.87H587.214M779.214 2944.87H971.214M395.214 2944.87H11.2145M395.214 2944.87H587.214M1163.21 2432.87H779.214M1163.21 2432.87H1547.21M779.214 2432.87V2688.87M1547.21 2688.87H1355.21M1355.21 2688.87H1163.21M1163.21 2688.87H971.214M779.214 2688.87H587.214M779.214 2688.87H971.214M395.214 2688.87H11.2145M395.214 2688.87H587.214" stroke="white" stroke-opacity="0.03"/>
<path d="M11.2145 3072.87H203.214H395.214H587.214H779.214H971.214H1163.21H1355.21H1547.21V3200.87V3328.87V3456.87V3584.87V3712.87V3840.87V3968.87V4096.87H1355.21H1163.21H971.214H779.214H587.214H395.214H203.214H11.2145V3968.87V3840.87V3712.87V3584.87V3456.87V3328.87V3200.87V3072.87Z" fill="#161B22"/>
<path d="M779.214 3072.87V3200.87M779.214 3072.87H587.214M779.214 3072.87H971.214M779.214 4096.87H587.214M779.214 4096.87H971.214M779.214 4096.87V3968.87M11.2145 3584.87H203.214M11.2145 3584.87V3456.87M11.2145 3584.87V3712.87M1547.21 3584.87H1355.21M1547.21 3584.87V3456.87M1547.21 3584.87V3712.87M395.214 3072.87H203.214M395.214 3072.87V3200.87M395.214 3072.87H587.214M395.214 3584.87H203.214M395.214 3584.87V3456.87M395.214 3584.87H587.214M395.214 3584.87V3712.87M395.214 4096.87H203.214M395.214 4096.87H587.214M395.214 4096.87V3968.87M1163.21 3072.87V3200.87M1163.21 3072.87H971.214M1163.21 3072.87H1355.21M1163.21 3584.87H971.214M1163.21 3584.87H1355.21M1163.21 3584.87V3456.87M1163.21 3584.87V3712.87M1163.21 4096.87H971.214M1163.21 4096.87H1355.21M1163.21 4096.87V3968.87M11.2145 3328.87H203.214M11.2145 3328.87V3200.87M11.2145 3328.87V3456.87M395.214 3328.87H203.214M395.214 3328.87V3200.87M395.214 3328.87V3456.87M395.214 3328.87H587.214M779.214 3328.87V3200.87M779.214 3328.87H587.214M779.214 3328.87H971.214M779.214 3328.87V3456.87M1163.21 3328.87V3200.87M1163.21 3328.87H971.214M1163.21 3328.87H1355.21M1163.21 3328.87V3456.87M1547.21 3328.87V3200.87M1547.21 3328.87H1355.21M1547.21 3328.87V3456.87M1547.21 3840.87H1355.21M1547.21 3840.87V3968.87M1547.21 3840.87V3712.87M1163.21 3840.87H971.214M1163.21 3840.87H1355.21M1163.21 3840.87V3968.87M1163.21 3840.87V3712.87M779.214 3840.87H587.214M779.214 3840.87H971.214M779.214 3840.87V3968.87M779.214 3840.87V3712.87M395.214 3840.87H203.214M395.214 3840.87H587.214M395.214 3840.87V3968.87M395.214 3840.87V3712.87M11.2145 3840.87H203.214M11.2145 3840.87V3968.87M11.2145 3840.87V3712.87M203.214 3072.87H11.2145V3200.87M203.214 3072.87V3328.87M203.214 3328.87V3584.87M203.214 3584.87V3840.87M203.214 3840.87V4096.87M203.214 4096.87H11.2145V3968.87M11.2145 3200.87H395.214M395.214 3200.87H779.214M779.214 3200.87H1163.21M1163.21 3200.87H1547.21M1547.21 3200.87V3072.87H1355.21M11.2145 3456.87H395.214M395.214 3456.87H779.214M587.214 3328.87V3584.87M587.214 3328.87V3072.87M587.214 3840.87V3712.87M587.214 3840.87V3968.87M587.214 4096.87V3968.87M971.214 4096.87V3968.87M971.214 3840.87V3712.87M971.214 3840.87V3968.87M587.214 3584.87H779.214H971.214M587.214 3584.87V3712.87M971.214 3584.87V3328.87M971.214 3584.87V3712.87M971.214 3328.87V3072.87M1355.21 3072.87V3328.87M1355.21 3328.87V3584.87M1355.21 3584.87V3712.87M1355.21 3840.87V3712.87M1355.21 3840.87V3968.87M1355.21 4096.87H1547.21V3968.87M1355.21 4096.87V3968.87M1547.21 3968.87H1355.21M1163.21 3968.87H971.214M1163.21 3968.87H1355.21M779.214 3968.87H587.214M779.214 3968.87H971.214M395.214 3968.87H11.2145M395.214 3968.87H587.214M1163.21 3456.87H779.214M1163.21 3456.87H1547.21M779.214 3456.87V3712.87M1547.21 3712.87H1355.21M1355.21 3712.87H1163.21M1163.21 3712.87H971.214M779.214 3712.87H587.214M779.214 3712.87H971.214M395.214 3712.87H11.2145M395.214 3712.87H587.214" stroke="white" stroke-opacity="0.03"/>
<path d="M11.2145 1024.87H203.214H395.214H587.214H779.214H971.214H1163.21H1355.21H1547.21V1152.87V1280.87V1408.87V1536.87V1664.87V1792.87V1920.87V2048.87H1355.21H1163.21H971.214H779.214H587.214H395.214H203.214H11.2145V1920.87V1792.87V1664.87V1536.87V1408.87V1280.87V1152.87V1024.87Z" fill="#161B22"/>
<path d="M779.214 1024.87V1152.87M779.214 1024.87H587.214M779.214 1024.87H971.214M779.214 2048.87H587.214M779.214 2048.87H971.214M779.214 2048.87V1920.87M11.2145 1536.87H203.214M11.2145 1536.87V1408.87M11.2145 1536.87V1664.87M1547.21 1536.87H1355.21M1547.21 1536.87V1408.87M1547.21 1536.87V1664.87M395.214 1024.87H203.214M395.214 1024.87V1152.87M395.214 1024.87H587.214M395.214 1536.87H203.214M395.214 1536.87V1408.87M395.214 1536.87H587.214M395.214 1536.87V1664.87M395.214 2048.87H203.214M395.214 2048.87H587.214M395.214 2048.87V1920.87M1163.21 1024.87V1152.87M1163.21 1024.87H971.214M1163.21 1024.87H1355.21M1163.21 1536.87H971.214M1163.21 1536.87H1355.21M1163.21 1536.87V1408.87M1163.21 1536.87V1664.87M1163.21 2048.87H971.214M1163.21 2048.87H1355.21M1163.21 2048.87V1920.87M11.2145 1280.87H203.214M11.2145 1280.87V1152.87M11.2145 1280.87V1408.87M395.214 1280.87H203.214M395.214 1280.87V1152.87M395.214 1280.87V1408.87M395.214 1280.87H587.214M779.214 1280.87V1152.87M779.214 1280.87H587.214M779.214 1280.87H971.214M779.214 1280.87V1408.87M1163.21 1280.87V1152.87M1163.21 1280.87H971.214M1163.21 1280.87H1355.21M1163.21 1280.87V1408.87M1547.21 1280.87V1152.87M1547.21 1280.87H1355.21M1547.21 1280.87V1408.87M1547.21 1792.87H1355.21M1547.21 1792.87V1920.87M1547.21 1792.87V1664.87M1163.21 1792.87H971.214M1163.21 1792.87H1355.21M1163.21 1792.87V1920.87M1163.21 1792.87V1664.87M779.214 1792.87H587.214M779.214 1792.87H971.214M779.214 1792.87V1920.87M779.214 1792.87V1664.87M395.214 1792.87H203.214M395.214 1792.87H587.214M395.214 1792.87V1920.87M395.214 1792.87V1664.87M11.2145 1792.87H203.214M11.2145 1792.87V1920.87M11.2145 1792.87V1664.87M203.214 1024.87H11.2145V1152.87M203.214 1024.87V1280.87M203.214 1280.87V1536.87M203.214 1536.87V1792.87M203.214 1792.87V2048.87M203.214 2048.87H11.2145V1920.87M11.2145 1152.87H395.214M395.214 1152.87H779.214M779.214 1152.87H1163.21M1163.21 1152.87H1547.21M1547.21 1152.87V1024.87H1355.21M11.2145 1408.87H395.214M395.214 1408.87H779.214M587.214 1280.87V1536.87M587.214 1280.87V1024.87M587.214 1792.87V1664.87M587.214 1792.87V1920.87M587.214 2048.87V1920.87M971.214 2048.87V1920.87M971.214 1792.87V1664.87M971.214 1792.87V1920.87M587.214 1536.87H779.214H971.214M587.214 1536.87V1664.87M971.214 1536.87V1280.87M971.214 1536.87V1664.87M971.214 1280.87V1024.87M1355.21 1024.87V1280.87M1355.21 1280.87V1536.87M1355.21 1536.87V1664.87M1355.21 1792.87V1664.87M1355.21 1792.87V1920.87M1355.21 2048.87H1547.21V1920.87M1355.21 2048.87V1920.87M1547.21 1920.87H1355.21M1163.21 1920.87H971.214M1163.21 1920.87H1355.21M779.214 1920.87H587.214M779.214 1920.87H971.214M395.214 1920.87H11.2145M395.214 1920.87H587.214M1163.21 1408.87H779.214M1163.21 1408.87H1547.21M779.214 1408.87V1664.87M1547.21 1664.87H1355.21M1355.21 1664.87H1163.21M1163.21 1664.87H971.214M779.214 1664.87H587.214M779.214 1664.87H971.214M395.214 1664.87H11.2145M395.214 1664.87H587.214" stroke="white" stroke-opacity="0.03"/>
<g filter="url(#filter0_d_76_463)">
<path d="M1396.78 563.489C1391.27 584.055 1375.2 600.118 1354.64 605.629L622.324 801.852C601.758 807.362 579.815 801.482 564.76 786.427L28.6706 250.338C13.6156 235.283 7.73596 213.339 13.2465 192.774L64.3524 2.04382L1547.21 2.04384L1396.78 563.489Z" fill="url(#paint0_linear_76_463)"/>
</g>
<g filter="url(#filter1_d_76_463)">
<path d="M1126.43 916.256L1285.64 943.893L1341.31 1095.59L1237.77 1219.65L1078.56 1192.01L1022.89 1040.32L1126.43 916.256Z" fill="#212832" fill-opacity="0.3" shape-rendering="crispEdges"/>
</g>
<g filter="url(#filter2_d_76_463)">
<path d="M1309.84 3441.62L516.807 3297.82C497.819 3294.38 478.436 3301.33 465.959 3316.05L24.0172 3837.59C15.7492 3847.35 11.2122 3859.73 11.2145 3872.52L11.2539 4096.87H1546.95L1546.95 4032.58C1546.95 4026.37 1545.88 4020.21 1543.79 4014.37L1351.03 3476.53C1344.53 3458.37 1328.82 3445.06 1309.84 3441.62Z" fill="url(#paint1_linear_76_463)"/>
</g>
<path d="M418.803 1112.42C428.811 1109.73 439.489 1112.59 446.815 1119.92L528.24 1201.35C535.567 1208.67 538.428 1219.35 535.746 1229.36L505.942 1340.59C503.261 1350.59 495.444 1358.41 485.436 1361.09L374.207 1390.9C364.2 1393.58 353.522 1390.72 346.195 1383.39L264.77 1301.97C257.444 1294.64 254.583 1283.96 257.264 1273.95L287.068 1162.72C289.75 1152.72 297.566 1144.9 307.574 1142.22L418.803 1112.42Z" fill="#252E39"/>
<path d="M1074.14 222.858C1081.64 215.71 1092.38 213.107 1102.32 216.029L1212.8 248.503C1222.74 251.425 1230.37 259.428 1232.81 269.498L1259.93 381.412C1262.37 391.482 1259.25 402.088 1251.75 409.235L1168.38 488.675C1160.88 495.823 1150.14 498.426 1140.2 495.504L1029.72 463.03C1019.78 460.108 1012.15 452.105 1009.71 442.036L982.599 330.121C980.159 320.051 983.276 309.445 990.777 302.298L1074.14 222.858Z" fill="#252E39"/>
<circle cx="397.318" cy="1251.66" r="179.174" stroke="#252E39" stroke-width="2"/>
<circle cx="397.318" cy="1251.66" r="205.249" stroke="#252E39" stroke-opacity="0.4" stroke-width="2"/>
<circle cx="355.675" cy="1078.11" r="17.5637" fill="#252E39" stroke="#252E39" stroke-width="2"/>
<circle cx="601.123" cy="1277.17" r="9.28186" fill="#252E39" fill-opacity="0.3"/>
<circle cx="601.123" cy="1277.17" r="8.28186" stroke="#252E39" stroke-opacity="0.25" stroke-width="2"/>
<path d="M11.4437 2824.8L212 2611.04C229.897 2591.96 268.771 2588.02 294.225 2602.7L579.462 2767.17C604.916 2781.85 643.79 2777.91 661.687 2758.83L862.243 2545.07C880.14 2525.99 919.014 2522.05 944.468 2536.72L1229.7 2701.2C1255.16 2715.88 1294.03 2711.93 1311.93 2692.86L1546.43 2442.91" stroke="#384559" stroke-linecap="round"/>
<path d="M103.833 2688.79C107.406 2688.79 110.706 2690.7 112.49 2693.8L133.111 2729.59C134.895 2732.68 134.892 2736.5 133.104 2739.59L112.428 2775.35C110.64 2778.44 107.338 2780.35 103.766 2780.34L62.4704 2780.31C58.8977 2780.31 55.5976 2778.4 53.8135 2775.3L33.1922 2739.51C31.4085 2736.42 31.4112 2732.61 33.1993 2729.51L53.8752 2693.75C55.6633 2690.66 58.9651 2688.76 62.5371 2688.76L103.833 2688.79Z" fill="#3E4957"/>
<path d="M571.121 2641.62C572.97 2638.56 576.309 2636.72 579.881 2636.8L680.012 2638.82C683.583 2638.89 686.844 2640.87 688.567 2643.99L736.881 2731.75C738.604 2734.88 738.527 2738.69 736.678 2741.75L684.861 2827.48C683.012 2830.54 679.673 2832.38 676.101 2832.31L575.97 2830.28C572.399 2830.21 569.138 2828.24 567.415 2825.11L519.101 2737.35C517.378 2734.22 517.455 2730.41 519.304 2727.35L571.121 2641.62Z" fill="#3E4957"/>
<path d="M1073.78 2534.75C1077.12 2533.49 1080.88 2534.11 1083.64 2536.37L1130.9 2575.16C1133.66 2577.43 1135 2581 1134.42 2584.52L1124.46 2644.85C1123.88 2648.38 1121.46 2651.32 1118.12 2652.58L1060.91 2674.12C1057.57 2675.38 1053.81 2674.76 1051.05 2672.49L1003.79 2633.7C1001.03 2631.44 999.691 2627.87 1000.27 2624.35L1010.23 2564.01C1010.81 2560.49 1013.23 2557.54 1016.57 2556.28L1073.78 2534.75Z" fill="#3E4957"/>
<path d="M1496.79 2452.26C1500.14 2451 1503.9 2451.62 1506.66 2453.89L1532.43 2475.04C1535.19 2477.3 1536.53 2480.87 1535.95 2484.39L1530.52 2517.29C1529.94 2520.82 1527.52 2523.76 1524.18 2525.02L1492.99 2536.77C1489.64 2538.03 1485.88 2537.41 1483.12 2535.14L1457.35 2513.99C1454.59 2511.72 1453.25 2508.15 1453.83 2504.63L1459.26 2471.73C1459.84 2468.21 1462.26 2465.26 1465.6 2464L1496.79 2452.26Z" fill="#3E4957"/>
<path d="M304.024 2594.52C304.024 2622.85 281.071 2645.81 252.758 2645.81C224.444 2645.81 201.491 2622.85 201.491 2594.52C201.491 2566.2 224.444 2543.24 252.758 2543.24C281.071 2543.24 304.024 2566.2 304.024 2594.52Z" stroke="#252E39" stroke-width="2"/>
<path d="M267.253 2594.52C267.253 2602.53 260.763 2609.02 252.757 2609.02C244.752 2609.02 238.262 2602.53 238.262 2594.52C238.262 2586.51 244.752 2580.02 252.757 2580.02C260.763 2580.02 267.253 2586.51 267.253 2594.52Z" stroke="#43505F"/>
<path d="M917.051 2528.12C917.051 2536.13 910.561 2542.62 902.556 2542.62C894.55 2542.62 888.06 2536.13 888.06 2528.12C888.06 2520.11 894.55 2513.62 902.556 2513.62C910.561 2513.62 917.051 2520.11 917.051 2528.12Z" stroke="#43505F"/>
<path d="M1291.04 2709.12C1291.04 2717.13 1284.55 2723.62 1276.54 2723.62C1268.54 2723.62 1262.05 2717.13 1262.05 2709.12C1262.05 2701.11 1268.54 2694.62 1276.54 2694.62C1284.55 2694.62 1291.04 2701.11 1291.04 2709.12Z" stroke="#43505F"/>
<defs>
<filter id="filter0_d_76_463" x="0.014493" y="2.04382" width="1558.4" height="825.04" filterUnits="userSpaceOnUse" color-interpolation-filters="sRGB">
<feFlood flood-opacity="0" result="BackgroundImageFix"/>
<feColorMatrix in="SourceAlpha" type="matrix" values="0 0 0 0 0 0 0 0 0 0 0 0 0 0 0 0 0 0 127 0" result="hardAlpha"/>
<feOffset dy="12"/>
<feGaussianBlur stdDeviation="5.6"/>
<feComposite in2="hardAlpha" operator="out"/>
<feColorMatrix type="matrix" values="0 0 0 0 0 0 0 0 0 0 0 0 0 0 0 0 0 0 0.25 0"/>
<feBlend mode="normal" in2="BackgroundImageFix" result="effect1_dropShadow_76_463"/>
<feBlend mode="normal" in="SourceGraphic" in2="effect1_dropShadow_76_463" result="shape"/>
</filter>
<filter id="filter1_d_76_463" x="1018.89" y="916.256" width="326.418" height="311.395" filterUnits="userSpaceOnUse" color-interpolation-filters="sRGB">
<feFlood flood-opacity="0" result="BackgroundImageFix"/>
<feColorMatrix in="SourceAlpha" type="matrix" values="0 0 0 0 0 0 0 0 0 0 0 0 0 0 0 0 0 0 127 0" result="hardAlpha"/>
<feOffset dy="4"/>
<feGaussianBlur stdDeviation="2"/>
<feComposite in2="hardAlpha" operator="out"/>
<feColorMatrix type="matrix" values="0 0 0 0 0 0 0 0 0 0 0 0 0 0 0 0 0 0 0.25 0"/>
<feBlend mode="normal" in2="BackgroundImageFix" result="effect1_dropShadow_76_463"/>
<feBlend mode="normal" in="SourceGraphic" in2="effect1_dropShadow_76_463" result="shape"/>
</filter>
<filter id="filter2_d_76_463" x="11.2145" y="3287.95" width="1535.74" height="808.916" filterUnits="userSpaceOnUse" color-interpolation-filters="sRGB">
<feFlood flood-opacity="0" result="BackgroundImageFix"/>
<feColorMatrix in="SourceAlpha" type="matrix" values="0 0 0 0 0 0 0 0 0 0 0 0 0 0 0 0 0 0 127 0" result="hardAlpha"/>
<feOffset dy="-9"/>
<feComposite in2="hardAlpha" operator="out"/>
<feColorMatrix type="matrix" values="0 0 0 0 0 0 0 0 0 0 0 0 0 0 0 0 0 0 0.1 0"/>
<feBlend mode="normal" in2="BackgroundImageFix" result="effect1_dropShadow_76_463"/>
<feBlend mode="normal" in="SourceGraphic" in2="effect1_dropShadow_76_463" result="shape"/>
</filter>
<linearGradient id="paint0_linear_76_463" x1="290.696" y1="971.627" x2="1384.47" y2="-391.797" gradientUnits="userSpaceOnUse">
<stop offset="0.522632" stop-color="#13171C"/>
<stop offset="0.522732" stop-color="#151921"/>
</linearGradient>
<linearGradient id="paint1_linear_76_463" x1="779.084" y1="3401.01" x2="-172.558" y2="4311.47" gradientUnits="userSpaceOnUse">
<stop offset="0.441825" stop-color="#14171C"/>
<stop offset="0.442167" stop-color="#19212B"/>
<stop offset="0.442167" stop-color="#151A21"/>
</linearGradient>
</defs>
</svg>
