<svg width="1538" height="1026" viewBox="0 0 1538 1026" fill="none" xmlns="http://www.w3.org/2000/svg">
<path d="M769.212 1.2019V129.202M769.212 1.2019H577.212M769.212 1.2019H961.212M769.212 1025.2H577.212M769.212 1025.2H961.212M769.212 1025.2V897.202M1.21191 513.202H193.212M1.21191 513.202V385.202M1.21191 513.202V641.202M1537.21 513.202H1345.21M1537.21 513.202V385.202M1537.21 513.202V641.202M385.212 1.2019H193.212M385.212 1.2019V129.202M385.212 1.2019H577.212M385.212 513.202H193.212M385.212 513.202V385.202M385.212 513.202H577.212M385.212 513.202V641.202M385.212 1025.2H193.212M385.212 1025.2H577.212M385.212 1025.2V897.202M1153.21 1.2019V129.202M1153.21 1.2019H961.212M1153.21 1.2019H1345.21M1153.21 513.202H961.212M1153.21 513.202H1345.21M1153.21 513.202V385.202M1153.21 513.202V641.202M1153.21 1025.2H961.212M1153.21 1025.2H1345.21M1153.21 1025.2V897.202M1.21191 257.202H193.212M1.21191 257.202V129.202M1.21191 257.202V385.202M385.212 257.202H193.212M385.212 257.202V129.202M385.212 257.202V385.202M385.212 257.202H577.212M769.212 257.202V129.202M769.212 257.202H577.212M769.212 257.202H961.212M769.212 257.202V385.202M1153.21 257.202V129.202M1153.21 257.202H961.212M1153.21 257.202H1345.21M1153.21 257.202V385.202M1537.21 257.202V129.202M1537.21 257.202H1345.21M1537.21 257.202V385.202M1537.21 769.202H1345.21M1537.21 769.202V897.202M1537.21 769.202V641.202M1153.21 769.202H961.212M1153.21 769.202H1345.21M1153.21 769.202V897.202M1153.21 769.202V641.202M769.212 769.202H577.212M769.212 769.202H961.212M769.212 769.202V897.202M769.212 769.202V641.202M385.212 769.202H193.212M385.212 769.202H577.212M385.212 769.202V897.202M385.212 769.202V641.202M1.21191 769.202H193.212M1.21191 769.202V897.202M1.21191 769.202V641.202M193.212 1.2019H1.21191V129.202M193.212 1.2019V257.202M193.212 257.202V513.202M193.212 513.202V769.202M193.212 769.202V1025.2M193.212 1025.2H1.21191V897.202M1.21191 129.202H385.212M385.212 129.202H769.212M769.212 129.202H1153.21M1153.21 129.202H1537.21M1537.21 129.202V1.2019H1345.21M1.21191 385.202H385.212M385.212 385.202H769.212M577.212 257.202V513.202M577.212 257.202V1.2019M577.212 769.202V641.202M577.212 769.202V897.202M577.212 1025.2V897.202M961.212 1025.2V897.202M961.212 769.202V641.202M961.212 769.202V897.202M577.212 513.202H769.212H961.212M577.212 513.202V641.202M961.212 513.202V257.202M961.212 513.202V641.202M961.212 257.202V1.2019M1345.21 1.2019V257.202M1345.21 257.202V513.202M1345.21 513.202V641.202M1345.21 769.202V641.202M1345.21 769.202V897.202M1345.21 1025.2H1537.21V897.202M1345.21 1025.2V897.202M1537.21 897.202H1345.21M1153.21 897.202H961.212M1153.21 897.202H1345.21M769.212 897.202H577.212M769.212 897.202H961.212M385.212 897.202H1.21191M385.212 897.202H577.212M1153.21 385.202H769.212M1153.21 385.202H1537.21M769.212 385.202V641.202M1537.21 641.202H1345.21M1345.21 641.202H1153.21M1153.21 641.202H961.212M769.212 641.202H577.212M769.212 641.202H961.212M385.212 641.202H1.21191M385.212 641.202H577.212" stroke="white" stroke-opacity="0.03"/>
</svg>
