<svg width="1526" height="752" viewBox="0 0 1526 752" fill="none" xmlns="http://www.w3.org/2000/svg">
<path d="M0.967773 1.34509H191.468H381.968H572.468H762.968H953.468H1143.97H1334.47H1524.97V94.97V188.595V282.22V375.845V469.47V563.095V656.72V750.345H1334.47H1143.97H953.468H762.968H572.468H381.968H191.468H0.967773V656.72V563.095V469.47V375.845V282.22V188.595V94.97V1.34509Z" fill="#161B22"/>
<path d="M762.968 1.34509V94.97M762.968 1.34509H572.468M762.968 1.34509H953.468M762.968 750.345H572.468M762.968 750.345H953.468M762.968 750.345V656.72M0.967773 375.845H191.468M0.967773 375.845V282.22M0.967773 375.845V469.47M1524.97 375.845H1334.47M1524.97 375.845V282.22M1524.97 375.845V469.47M381.968 1.34509H191.468M381.968 1.34509V94.97M381.968 1.34509H572.468M381.968 375.845H191.468M381.968 375.845V282.22M381.968 375.845H572.468M381.968 375.845V469.47M381.968 750.345H191.468M381.968 750.345H572.468M381.968 750.345V656.72M1143.97 1.34509V94.97M1143.97 1.34509H953.468M1143.97 1.34509H1334.47M1143.97 375.845H953.468M1143.97 375.845H1334.47M1143.97 375.845V282.22M1143.97 375.845V469.47M1143.97 750.345H953.468M1143.97 750.345H1334.47M1143.97 750.345V656.72M0.967773 188.595H191.468M0.967773 188.595V94.97M0.967773 188.595V282.22M381.968 188.595H191.468M381.968 188.595V94.97M381.968 188.595V282.22M381.968 188.595H572.468M762.968 188.595V94.97M762.968 188.595H572.468M762.968 188.595H953.468M762.968 188.595V282.22M1143.97 188.595V94.97M1143.97 188.595H953.468M1143.97 188.595H1334.47M1143.97 188.595V282.22M1524.97 188.595V94.97M1524.97 188.595H1334.47M1524.97 188.595V282.22M1524.97 563.095H1334.47M1524.97 563.095V656.72M1524.97 563.095V469.47M1143.97 563.095H953.468M1143.97 563.095H1334.47M1143.97 563.095V656.72M1143.97 563.095V469.47M762.968 563.095H572.468M762.968 563.095H953.468M762.968 563.095V656.72M762.968 563.095V469.47M381.968 563.095H191.468M381.968 563.095H572.468M381.968 563.095V656.72M381.968 563.095V469.47M0.967773 563.095H191.468M0.967773 563.095V656.72M0.967773 563.095V469.47M191.468 1.34509H0.967773V94.97M191.468 1.34509V188.595M191.468 188.595V375.845M191.468 375.845V563.095M191.468 563.095V750.345M191.468 750.345H0.967773V656.72M0.967773 94.97H381.968M381.968 94.97H762.968M762.968 94.97H1143.97M1143.97 94.97H1524.97M1524.97 94.97V1.34509H1334.47M0.967773 282.22H381.968M381.968 282.22H762.968M572.468 188.595V375.845M572.468 188.595V1.34509M572.468 563.095V469.47M572.468 563.095V656.72M572.468 750.345V656.72M953.468 750.345V656.72M953.468 563.095V469.47M953.468 563.095V656.72M572.468 375.845H762.968H953.468M572.468 375.845V469.47M953.468 375.845V188.595M953.468 375.845V469.47M953.468 188.595V1.34509M1334.47 1.34509V188.595M1334.47 188.595V375.845M1334.47 375.845V469.47M1334.47 563.095V469.47M1334.47 563.095V656.72M1334.47 750.345H1524.97V656.72M1334.47 750.345V656.72M1524.97 656.72H1334.47M1143.97 656.72H953.468M1143.97 656.72H1334.47M762.968 656.72H572.468M762.968 656.72H953.468M381.968 656.72H0.967773M381.968 656.72H572.468M1143.97 282.22H762.968M1143.97 282.22H1524.97M762.968 282.22V469.47M1524.97 469.47H1334.47M1334.47 469.47H1143.97M1143.97 469.47H953.468M762.968 469.47H572.468M762.968 469.47H953.468M381.968 469.47H0.967773M381.968 469.47H572.468" stroke="white" stroke-opacity="0.05"/>
<path d="M126.576 451.174L126.35 451.281L126.576 451.174ZM76.6984 1.34509C76.6984 2.08147 77.2954 2.67843 78.0317 2.67843C78.7681 2.67843 79.3651 2.08147 79.3651 1.34509C79.3651 0.608713 78.7681 0.0117594 78.0317 0.0117594C77.2954 0.0117594 76.6984 0.608713 76.6984 1.34509ZM1355.7 270.018C1355.7 270.755 1356.3 271.352 1357.03 271.352C1357.77 271.352 1358.37 270.755 1358.37 270.018C1358.37 269.282 1357.77 268.685 1357.03 268.685C1356.3 268.685 1355.7 269.282 1355.7 270.018ZM1406.5 373.754C1406.5 374.49 1407.1 375.087 1407.83 375.087C1408.57 375.087 1409.17 374.49 1409.17 373.754C1409.17 373.018 1408.57 372.421 1407.83 372.421C1407.1 372.421 1406.5 373.018 1406.5 373.754ZM1044.69 750.345C1044.69 751.081 1045.29 751.678 1046.03 751.678C1046.76 751.678 1047.36 751.081 1047.36 750.345C1047.36 749.608 1046.76 749.011 1046.03 749.011C1045.29 749.011 1044.69 749.608 1044.69 750.345ZM1298.66 637.704L1298.77 637.479L1298.66 637.704ZM161.077 171.463C161.077 172.199 161.674 172.796 162.41 172.796C163.147 172.796 163.744 172.199 163.744 171.463C163.744 170.726 163.147 170.129 162.41 170.129C161.674 170.129 161.077 170.726 161.077 171.463ZM183.394 252.501C183.394 253.237 183.991 253.834 184.728 253.834C185.464 253.834 186.061 253.237 186.061 252.501C186.061 251.764 185.464 251.167 184.728 251.167C183.991 251.167 183.394 251.764 183.394 252.501ZM77.7817 1.34509C77.7817 2.68291 77.8115 4.02115 77.8699 5.35958L78.3694 5.33778C78.3113 4.00647 78.2817 2.6755 78.2817 1.34509H77.7817ZM78.5522 13.3642C78.8843 16.0052 79.3195 18.6452 79.8493 21.2824L80.3395 21.1839C79.812 18.558 79.3788 15.9301 79.0483 13.3018L78.5522 13.3642ZM81.6903 29.0953C82.3823 31.6635 83.1567 34.2275 84.0054 36.7855L84.48 36.6281C83.634 34.0785 82.8625 31.5237 82.1731 28.9652L81.6903 29.0953ZM86.725 44.3324C87.6868 46.8102 88.7119 49.281 89.7929 51.7433L90.2508 51.5423C89.1724 49.0862 88.1502 46.6221 87.1912 44.1515L86.725 44.3324ZM93.1595 59.0263C94.3216 61.4233 95.5306 63.8108 96.7799 66.1873L97.2225 65.9547C95.9756 63.5826 94.769 61.1999 93.6095 58.8081L93.1595 59.0263ZM100.613 73.2314C101.92 75.5579 103.26 77.8724 104.626 80.1735L105.056 79.9183C103.692 77.6203 102.354 75.3092 101.049 72.9865L100.613 73.2314ZM108.79 87.0264C110.202 89.2997 111.634 91.5582 113.078 93.8008L113.498 93.53C112.055 91.2895 110.625 89.0333 109.215 86.7626L108.79 87.0264ZM117.464 100.509C118.948 102.748 120.439 104.969 121.929 107.171L122.343 106.891C120.853 104.69 119.364 102.47 117.881 100.232L117.464 100.509ZM126.446 113.796C127.971 116.017 129.487 118.218 130.989 120.394L131.401 120.11C129.899 117.934 128.382 115.734 126.858 113.513L126.446 113.796ZM135.535 126.987C137.073 129.222 138.587 131.43 140.066 133.609L140.48 133.328C138.999 131.148 137.486 128.939 135.947 126.703L135.535 126.987ZM144.529 140.255C146.036 142.531 147.494 144.771 148.893 146.972L149.315 146.704C147.915 144.499 146.455 142.257 144.946 139.979L144.529 140.255ZM153.095 153.79C154.507 156.163 155.83 158.484 157.049 160.751L157.489 160.515C156.267 158.24 154.94 155.912 153.525 153.534L153.095 153.79ZM160.608 167.891C161.173 169.132 161.697 170.354 162.178 171.556L162.643 171.37C162.158 170.16 161.631 168.931 161.063 167.684L160.608 167.891ZM184.484 252.557C184.744 253.686 184.765 255.008 184.565 256.518L185.061 256.584C185.266 255.035 185.249 253.649 184.971 252.445L184.484 252.557ZM182.298 264.408C181.392 266.7 180.253 269.196 178.921 271.878L179.368 272.1C180.704 269.41 181.85 266.901 182.763 264.592L182.298 264.408ZM175.088 279.187C173.832 281.485 172.483 283.882 171.06 286.37L171.494 286.618C172.918 284.128 174.269 281.728 175.526 279.427L175.088 279.187ZM166.919 293.532C165.57 295.847 164.178 298.226 162.755 300.663L163.186 300.915C164.609 298.479 166.002 296.099 167.352 293.784L166.919 293.532ZM158.611 307.785C157.256 310.127 155.885 312.514 154.507 314.941L154.942 315.188C156.319 312.762 157.689 310.376 159.044 308.035L158.611 307.785ZM150.473 322.142C149.155 324.53 147.84 326.95 146.536 329.399L146.978 329.634C148.28 327.187 149.594 324.769 150.911 322.384L150.473 322.142ZM142.722 336.723C141.479 339.167 140.254 341.635 139.057 344.123L139.507 344.34C140.703 341.855 141.926 339.391 143.168 336.95L142.722 336.723ZM135.568 351.609C134.438 354.12 133.342 356.648 132.287 359.189L132.749 359.381C133.801 356.844 134.896 354.321 136.024 351.814L135.568 351.609ZM129.25 366.87C128.279 369.458 127.359 372.055 126.497 374.659L126.972 374.816C127.831 372.219 128.749 369.628 129.718 367.046L129.25 366.87ZM124.076 382.557C123.325 385.225 122.644 387.895 122.041 390.564L122.529 390.675C123.13 388.014 123.808 385.352 124.557 382.693L124.076 382.557ZM120.457 398.673C120.009 401.411 119.652 404.143 119.397 406.867L119.894 406.914C120.149 404.202 120.504 401.481 120.95 398.754L120.457 398.673ZM118.94 415.118C118.897 417.889 118.971 420.647 119.17 423.386L119.669 423.349C119.47 420.626 119.397 417.883 119.44 415.125L118.94 415.118ZM120.168 431.595C120.635 434.308 121.24 436.997 121.994 439.658L122.475 439.522C121.726 436.878 121.125 434.206 120.661 431.51L120.168 431.595ZM124.678 447.476C125.197 448.752 125.754 450.021 126.35 451.281L126.802 451.067C126.21 449.816 125.657 448.555 125.141 447.287L124.678 447.476ZM126.35 451.281C126.957 452.563 127.572 453.83 128.194 455.082L128.642 454.859C128.021 453.611 127.408 452.346 126.802 451.067L126.35 451.281ZM132.02 462.412C133.326 464.796 134.662 467.12 136.028 469.385L136.456 469.127C135.094 466.868 133.761 464.55 132.459 462.172L132.02 462.412ZM140.215 476.004C141.641 478.153 143.096 480.243 144.58 482.276L144.984 481.981C143.504 479.954 142.053 477.87 140.632 475.728L140.215 476.004ZM149.567 488.759C151.286 490.88 153.041 492.931 154.831 494.914L155.202 494.579C153.418 492.602 151.669 490.558 149.955 488.444L149.567 488.759ZM160.303 500.658C162.162 502.505 164.054 504.284 165.981 505.998L166.313 505.624C164.394 503.917 162.508 502.144 160.656 500.303L160.303 500.658ZM172.107 511.137C174.22 512.806 176.37 514.403 178.557 515.928L178.843 515.518C176.665 513.999 174.523 512.408 172.417 510.745L172.107 511.137ZM185.224 520.291C187.482 521.674 189.776 522.987 192.105 524.232L192.341 523.791C190.021 522.551 187.735 521.243 185.485 519.864L185.224 520.291ZM199.208 527.766C201.612 528.876 204.05 529.919 206.521 530.895L206.705 530.43C204.242 529.457 201.813 528.418 199.418 527.312L199.208 527.766ZM214.037 533.625C216.575 534.47 219.147 535.25 221.75 535.966L221.883 535.484C219.287 534.77 216.725 533.993 214.195 533.151L214.037 533.625ZM229.379 537.862C231.934 538.431 234.518 538.944 237.13 539.4L237.216 538.907C234.611 538.452 232.035 537.942 229.488 537.374L229.379 537.862ZM245.053 540.601C247.721 540.946 250.418 541.237 253.142 541.473L253.185 540.975C250.468 540.739 247.779 540.45 245.117 540.105L245.053 540.601ZM260.988 542.004C263.58 542.13 266.196 542.211 268.835 542.247L268.842 541.747C266.209 541.711 263.599 541.631 261.012 541.504L260.988 542.004ZM276.818 542.221C279.502 542.168 282.208 542.071 284.936 541.932L284.911 541.432C282.188 541.572 279.487 541.668 276.809 541.721L276.818 542.221ZM292.965 541.403C295.528 541.197 298.11 540.955 300.709 540.679L300.656 540.181C298.061 540.458 295.484 540.699 292.925 540.904L292.965 541.403ZM308.561 539.744C311.197 539.397 313.849 539.017 316.519 538.602L316.442 538.108C313.776 538.522 311.127 538.902 308.496 539.248L308.561 539.744ZM324.58 537.259C327.161 536.801 329.757 536.312 332.369 535.794L332.272 535.303C329.663 535.821 327.07 536.309 324.492 536.767L324.58 537.259ZM340.012 534.204C342.574 533.646 345.15 533.062 347.739 532.452L347.624 531.965C345.038 532.575 342.465 533.158 339.906 533.715L340.012 534.204ZM355.546 530.543C358.162 529.88 360.791 529.192 363.433 528.479L363.302 527.996C360.663 528.709 358.037 529.396 355.423 530.058L355.546 530.543ZM371.126 526.342C373.612 525.633 376.108 524.902 378.615 524.151L378.472 523.672C375.967 524.423 373.472 525.153 370.989 525.861L371.126 526.342ZM386.168 521.835C388.697 521.042 391.235 520.229 393.784 519.397L393.629 518.922C391.082 519.753 388.545 520.566 386.019 521.357L386.168 521.835ZM401.461 516.84C404.029 515.969 406.607 515.079 409.195 514.169L409.029 513.698C406.443 514.606 403.867 515.496 401.301 516.367L401.461 516.84ZM416.522 511.554C418.973 510.666 421.432 509.762 423.899 508.842L423.725 508.373C421.259 509.293 418.801 510.196 416.351 511.084L416.522 511.554ZM431.326 506.035C433.809 505.083 436.301 504.117 438.8 503.135L438.617 502.67C436.119 503.651 433.629 504.617 431.147 505.568L431.326 506.035ZM446.321 500.146C448.814 499.144 451.314 498.127 453.822 497.097L453.632 496.634C451.125 497.664 448.626 498.68 446.135 499.682L446.321 500.146ZM461.043 494.099C463.456 493.088 465.876 492.064 468.303 491.028L468.106 490.568C465.681 491.604 463.262 492.627 460.85 493.638L461.043 494.099ZM475.6 487.884C478.038 486.825 480.483 485.753 482.934 484.671L482.732 484.213C480.282 485.295 477.838 486.366 475.4 487.426L475.6 487.884ZM490.303 481.389C492.764 480.285 495.23 479.169 497.702 478.044L497.495 477.589C495.024 478.714 492.558 479.829 490.098 480.933L490.303 481.389ZM504.826 474.777C507.205 473.679 509.59 472.571 511.979 471.454L511.767 471.001C509.379 472.118 506.995 473.225 504.616 474.323L504.826 474.777ZM519.161 468.077C521.56 466.942 523.964 465.798 526.372 464.646L526.156 464.195C523.749 465.347 521.346 466.49 518.948 467.625L519.161 468.077ZM533.609 461.165C536.026 459.996 538.447 458.819 540.872 457.634L540.653 457.185C538.228 458.369 535.807 459.546 533.391 460.715L533.609 461.165ZM548.017 454.127C550.369 452.967 552.725 451.8 555.085 450.626L554.862 450.178C552.503 451.352 550.147 452.519 547.795 453.679L548.017 454.127ZM562.175 447.084C564.542 445.897 566.912 444.703 569.286 443.503L569.06 443.057C566.687 444.257 564.317 445.45 561.951 446.637L562.175 447.084ZM576.417 439.885C578.798 438.672 581.181 437.454 583.568 436.23L583.34 435.785C580.953 437.009 578.57 438.227 576.19 439.439L576.417 439.885ZM590.737 432.542C593.073 431.336 595.412 430.125 597.754 428.909L597.524 428.465C595.182 429.681 592.843 430.892 590.507 432.098L590.737 432.542ZM604.778 425.252C607.122 424.028 609.469 422.799 611.818 421.567L611.586 421.124C609.237 422.357 606.891 423.585 604.547 424.808L604.778 425.252ZM618.872 417.855C621.226 416.614 623.581 415.369 625.939 414.119L625.705 413.678C623.348 414.927 620.992 416.172 618.639 417.413L618.872 417.855ZM633.02 410.361C635.377 409.107 637.736 407.849 640.097 406.589L639.861 406.148C637.501 407.408 635.142 408.665 632.785 409.919L633.02 410.361ZM647.084 402.851C649.414 401.602 651.747 400.351 654.081 399.096L653.844 398.656C651.51 399.91 649.178 401.162 646.847 402.41L647.084 402.851ZM661.087 395.324C663.424 394.065 665.763 392.803 668.102 391.538L667.865 391.098C665.525 392.363 663.187 393.625 660.85 394.884L661.087 395.324ZM675.126 387.738C677.468 386.47 679.812 385.199 682.156 383.927L681.918 383.487C679.573 384.76 677.23 386.03 674.888 387.299L675.126 387.738ZM689.181 380.112C691.508 378.847 693.836 377.58 696.165 376.313L695.926 375.874C693.597 377.141 691.269 378.408 688.942 379.672L689.181 380.112ZM703.155 372.507C705.485 371.237 707.816 369.966 710.148 368.695L709.909 368.256C707.577 369.527 705.246 370.798 702.915 372.068L703.155 372.507ZM717.145 364.878C719.478 363.606 721.812 362.332 724.145 361.059L723.906 360.62C721.572 361.894 719.239 363.167 716.906 364.439L717.145 364.878ZM731.147 357.238C733.481 355.965 735.816 354.691 738.15 353.417L737.911 352.978C735.576 354.252 733.242 355.526 730.908 356.799L731.147 357.238ZM745.153 349.599C747.487 348.326 749.821 347.054 752.155 345.783L751.916 345.344C749.582 346.615 747.248 347.887 744.914 349.16L745.153 349.599ZM759.157 341.971C761.491 340.702 763.824 339.433 766.157 338.165L765.919 337.726C763.586 338.994 761.252 340.262 758.918 341.532L759.157 341.971ZM773.155 334.367C775.488 333.102 777.819 331.838 780.151 330.577L779.913 330.137C777.581 331.399 775.249 332.662 772.917 333.927L773.155 334.367ZM787.155 326.79C789.503 325.521 791.851 324.255 794.197 322.991L793.96 322.551C791.614 323.815 789.266 325.081 786.917 326.35L787.155 326.79ZM801.235 319.206C803.58 317.947 805.923 316.69 808.266 315.436L808.03 314.995C805.687 316.249 803.343 317.506 800.998 318.766L801.235 319.206ZM815.291 311.681C817.631 310.433 819.97 309.187 822.308 307.944L822.073 307.503C819.735 308.746 817.396 309.991 815.055 311.24L815.291 311.681ZM829.317 304.227C831.664 302.985 834.009 301.746 836.352 300.511L836.119 300.069C833.775 301.304 831.43 302.543 829.083 303.785L829.317 304.227ZM843.456 296.777C845.822 295.536 848.186 294.3 850.549 293.067L850.317 292.624C847.955 293.856 845.59 295.093 843.223 296.334L843.456 296.777ZM857.63 289.383C859.989 288.159 862.345 286.94 864.7 285.726L864.471 285.282C862.116 286.496 859.759 287.715 857.4 288.939L857.63 289.383ZM871.756 282.098C874.106 280.894 876.454 279.695 878.799 278.501L878.572 278.056C876.226 279.25 873.878 280.449 871.528 281.653L871.756 282.098ZM885.911 274.894C888.308 273.682 890.704 272.476 893.096 271.276L892.872 270.829C890.479 272.029 888.083 273.235 885.685 274.448L885.911 274.894ZM900.265 267.695C902.651 266.508 905.035 265.327 907.416 264.153L907.194 263.704C904.813 264.879 902.429 266.06 900.042 267.247L900.265 267.695ZM914.548 260.651C916.922 259.491 919.293 258.337 921.661 257.191L921.443 256.741C919.075 257.887 916.703 259.041 914.328 260.202L914.548 260.651ZM928.753 253.775C931.179 252.613 933.601 251.458 936.02 250.312L935.806 249.86C933.387 251.006 930.964 252.161 928.537 253.324L928.753 253.775ZM943.304 246.879C945.729 245.743 948.149 244.616 950.565 243.498L950.355 243.044C947.938 244.163 945.517 245.29 943.092 246.426L943.304 246.879ZM957.8 240.171C960.207 239.072 962.61 237.981 965.008 236.9L964.803 236.445C962.404 237.526 960 238.616 957.592 239.717L957.8 240.171ZM972.19 233.687C974.618 232.608 977.042 231.54 979.46 230.482L979.26 230.024C976.84 231.082 974.416 232.151 971.987 233.23L972.19 233.687ZM986.887 227.261C989.357 226.198 991.822 225.147 994.281 224.108L994.086 223.647C991.626 224.687 989.16 225.738 986.689 226.801L986.887 227.261ZM1001.64 221.026C1004.09 220.011 1006.53 219.007 1008.97 218.017L1008.78 217.554C1006.34 218.545 1003.9 219.548 1001.45 220.564L1001.64 221.026ZM1016.26 215.083C1018.71 214.108 1021.15 213.145 1023.59 212.196L1023.41 211.73C1020.97 212.68 1018.52 213.643 1016.07 214.618L1016.26 215.083ZM1031.18 209.278C1033.7 208.32 1036.21 207.377 1038.72 206.45L1038.55 205.981C1036.04 206.909 1033.52 207.852 1031 208.811L1031.18 209.278ZM1046.22 203.714C1048.72 202.818 1051.2 201.938 1053.68 201.074L1053.51 200.602C1051.03 201.466 1048.55 202.347 1046.05 203.244L1046.22 203.714ZM1061.09 198.531C1063.6 197.683 1066.1 196.852 1068.6 196.039L1068.44 195.564C1065.94 196.377 1063.44 197.208 1060.93 198.057L1061.09 198.531ZM1076.35 193.561C1078.93 192.755 1081.49 191.968 1084.05 191.201L1083.9 190.723C1081.35 191.49 1078.78 192.277 1076.2 193.084L1076.35 193.561ZM1091.69 188.963C1094.22 188.237 1096.75 187.532 1099.27 186.848L1099.13 186.365C1096.62 187.05 1094.09 187.756 1091.55 188.482L1091.69 188.963ZM1106.78 184.86C1109.42 184.183 1112.04 183.531 1114.65 182.903L1114.53 182.417C1111.92 183.046 1109.29 183.699 1106.66 184.375L1106.78 184.86ZM1122.54 181.072C1125.16 180.487 1127.76 179.928 1130.36 179.395L1130.26 178.905C1127.66 179.439 1125.05 179.998 1122.43 180.584L1122.54 181.072ZM1138.1 177.877C1140.67 177.398 1143.22 176.946 1145.76 176.522L1145.68 176.029C1143.14 176.454 1140.58 176.906 1138.01 177.386L1138.1 177.877ZM1153.69 175.282C1156.39 174.889 1159.07 174.528 1161.73 174.201L1161.67 173.705C1159 174.033 1156.32 174.394 1153.62 174.787L1153.69 175.282ZM1169.68 173.32C1172.32 173.06 1174.93 172.835 1177.54 172.643L1177.5 172.145C1174.89 172.336 1172.27 172.562 1169.64 172.823L1169.68 173.32ZM1185.28 172.175C1188 172.047 1190.69 171.959 1193.37 171.911L1193.36 171.411C1190.68 171.459 1187.98 171.548 1185.26 171.676L1185.28 172.175ZM1201.44 171.892C1204.11 171.928 1206.76 172.007 1209.39 172.129L1209.42 171.629C1206.78 171.507 1204.13 171.428 1201.45 171.392L1201.44 171.892ZM1217.22 172.626C1219.85 172.84 1222.46 173.099 1225.05 173.406L1225.11 172.909C1222.51 172.602 1219.9 172.342 1217.26 172.128L1217.22 172.626ZM1233.06 174.517C1235.71 174.94 1238.33 175.414 1240.92 175.941L1241.02 175.451C1238.42 174.922 1235.79 174.447 1233.14 174.024L1233.06 174.517ZM1248.62 177.683C1251.17 178.318 1253.69 179.008 1256.18 179.753L1256.33 179.274C1253.83 178.527 1251.3 177.835 1248.75 177.198L1248.62 177.683ZM1263.8 182.235C1266.32 183.123 1268.8 184.07 1271.25 185.078L1271.44 184.615C1268.98 183.604 1266.49 182.654 1263.97 181.764L1263.8 182.235ZM1278.52 188.287C1280.91 189.419 1283.27 190.614 1285.6 191.871L1285.84 191.431C1283.5 190.169 1281.13 188.971 1278.73 187.836L1278.52 188.287ZM1292.43 195.797C1294.68 197.168 1296.89 198.602 1299.08 200.101L1299.36 199.689C1297.17 198.185 1294.95 196.746 1292.69 195.37L1292.43 195.797ZM1305.53 204.793C1307.65 206.422 1309.73 208.117 1311.79 209.879L1312.11 209.499C1310.05 207.732 1307.96 206.031 1305.83 204.396L1305.53 204.793ZM1317.58 215.106C1319.46 216.887 1321.3 218.728 1323.12 220.631L1323.48 220.285C1321.66 218.377 1319.81 216.53 1317.92 214.743L1317.58 215.106ZM1328.48 226.524C1330.24 228.55 1331.96 230.638 1333.66 232.79L1334.05 232.481C1332.35 230.323 1330.62 228.228 1328.86 226.196L1328.48 226.524ZM1338.47 239.181C1339.94 241.233 1341.39 243.338 1342.82 245.495L1343.23 245.22C1341.81 243.057 1340.35 240.947 1338.87 238.889L1338.47 239.181ZM1347.01 252.128C1348.38 254.392 1349.73 256.71 1351.05 259.083L1351.49 258.84C1350.16 256.462 1348.81 254.139 1347.44 251.869L1347.01 252.128ZM1354.93 266.364C1355.56 267.605 1356.19 268.86 1356.81 270.128L1357.26 269.909C1356.64 268.638 1356.01 267.381 1355.37 266.137L1354.93 266.364ZM1046.26 750.428C1046.71 749.159 1047.16 747.899 1047.61 746.649L1047.14 746.48C1046.69 747.731 1046.24 748.991 1045.79 750.262L1046.26 750.428ZM1050.34 739.264C1051.28 736.773 1052.23 734.321 1053.19 731.909L1052.72 731.724C1051.76 734.139 1050.81 736.593 1049.87 739.087L1050.34 739.264ZM1056.15 724.638C1057.18 722.17 1058.22 719.746 1059.26 717.366L1058.81 717.165C1057.76 719.548 1056.72 721.975 1055.68 724.446L1056.15 724.638ZM1062.48 710.255C1063.61 707.817 1064.76 705.427 1065.91 703.086L1065.46 702.865C1064.31 705.21 1063.16 707.603 1062.03 710.044L1062.48 710.255ZM1069.46 696.095C1070.7 693.73 1071.94 691.418 1073.2 689.158L1072.76 688.915C1071.5 691.179 1070.25 693.495 1069.02 695.864L1069.46 696.095ZM1077.14 682.314C1078.5 680.034 1079.87 677.813 1081.25 675.649L1080.83 675.38C1079.44 677.548 1078.07 679.774 1076.71 682.058L1077.14 682.314ZM1085.61 669.07C1087.12 666.865 1088.65 664.725 1090.2 662.65L1089.8 662.351C1088.25 664.431 1086.71 666.576 1085.19 668.787L1085.61 669.07ZM1095.01 656.446C1096.68 654.383 1098.37 652.391 1100.07 650.47L1099.7 650.139C1097.99 652.065 1096.3 654.062 1094.62 656.131L1095.01 656.446ZM1105.45 644.688C1107.32 642.78 1109.21 640.951 1111.11 639.202L1110.77 638.833C1108.86 640.589 1106.97 642.424 1105.1 644.339L1105.45 644.688ZM1117.05 634.046C1119.1 632.364 1121.18 630.768 1123.28 629.257L1122.99 628.851C1120.88 630.368 1118.8 631.97 1116.73 633.659L1117.05 634.046ZM1129.8 624.873C1132.04 623.47 1134.3 622.157 1136.59 620.935L1136.36 620.494C1134.06 621.722 1131.78 623.04 1129.53 624.449L1129.8 624.873ZM1143.65 617.477C1146.06 616.403 1148.49 615.421 1150.94 614.53L1150.77 614.06C1148.3 614.955 1145.86 615.941 1143.45 617.021L1143.65 617.477ZM1158.42 612.112C1160.94 611.396 1163.49 610.77 1166.06 610.231L1165.96 609.742C1163.37 610.283 1160.82 610.912 1158.29 611.631L1158.42 612.112ZM1173.8 608.881C1176.38 608.519 1178.99 608.241 1181.62 608.043L1181.58 607.545C1178.94 607.743 1176.33 608.023 1173.73 608.385L1173.8 608.881ZM1189.47 607.693C1192.07 607.654 1194.69 607.69 1197.33 607.798L1197.35 607.299C1194.7 607.19 1192.07 607.154 1189.46 607.193L1189.47 607.693ZM1205.18 608.324C1207.77 608.563 1210.37 608.868 1213 609.236L1213.07 608.741C1210.44 608.372 1207.82 608.066 1205.23 607.827L1205.18 608.324ZM1220.78 610.499C1223.34 610.97 1225.91 611.497 1228.51 612.08L1228.62 611.592C1226.02 611.008 1223.43 610.479 1220.87 610.007L1220.78 610.499ZM1236.14 613.938C1238.64 614.595 1241.17 615.301 1243.71 616.054L1243.85 615.575C1241.3 614.82 1238.78 614.113 1236.26 613.454L1236.14 613.938ZM1251.23 618.404C1253.7 619.216 1256.19 620.071 1258.69 620.967L1258.86 620.497C1256.35 619.599 1253.86 618.742 1251.38 617.929L1251.23 618.404ZM1266.07 623.71C1268.49 624.642 1270.93 625.61 1273.37 626.615L1273.56 626.153C1271.11 625.146 1268.67 624.176 1266.25 623.243L1266.07 623.71ZM1280.64 629.682C1283.03 630.721 1285.44 631.792 1287.86 632.895L1288.07 632.44C1285.64 631.336 1283.23 630.263 1280.84 629.223L1280.64 629.682ZM1294.97 636.208C1296.16 636.774 1297.36 637.348 1298.56 637.929L1298.77 637.479C1297.58 636.898 1296.38 636.323 1295.19 635.756L1294.97 636.208ZM1298.56 637.929C1299.8 638.532 1301.03 639.098 1302.26 639.626L1302.46 639.166C1301.24 638.642 1300.01 638.079 1298.77 637.479L1298.56 637.929ZM1309.57 642.365C1312.17 643.195 1314.73 643.851 1317.25 644.343L1317.35 643.852C1314.85 643.365 1312.31 642.712 1309.72 641.889L1309.57 642.365ZM1325.11 645.354C1327.79 645.519 1330.42 645.491 1333 645.281L1332.95 644.782C1330.4 644.99 1327.8 645.018 1325.14 644.855L1325.11 645.354ZM1340.79 644.063C1343.35 643.464 1345.87 642.679 1348.32 641.718L1348.14 641.252C1345.71 642.205 1343.22 642.983 1340.67 643.576L1340.79 644.063ZM1355.47 638.344C1357.75 637.079 1359.98 635.658 1362.15 634.09L1361.86 633.685C1359.7 635.241 1357.49 636.652 1355.23 637.907L1355.47 638.344ZM1368.28 629.153C1370.21 627.436 1372.09 625.601 1373.92 623.655L1373.56 623.312C1371.74 625.248 1369.87 627.073 1367.95 628.779L1368.28 629.153ZM1379.11 617.704C1380.74 615.684 1382.33 613.575 1383.87 611.382L1383.47 611.094C1381.93 613.278 1380.34 615.379 1378.72 617.389L1379.11 617.704ZM1388.24 604.803C1389.6 602.611 1390.93 600.352 1392.23 598.032L1391.79 597.789C1390.5 600.102 1389.18 602.354 1387.81 604.538L1388.24 604.803ZM1395.92 591.046C1397.09 588.715 1398.22 586.332 1399.32 583.902L1398.87 583.696C1397.77 586.12 1396.64 588.497 1395.47 590.822L1395.92 591.046ZM1402.43 576.691C1403.42 574.276 1404.38 571.823 1405.31 569.336L1404.84 569.161C1403.92 571.643 1402.96 574.092 1401.97 576.501L1402.43 576.691ZM1407.96 561.899C1408.8 559.431 1409.6 556.934 1410.38 554.412L1409.9 554.265C1409.13 556.782 1408.32 559.275 1407.48 561.739L1407.96 561.899ZM1412.61 546.832C1413.32 544.314 1413.99 541.777 1414.64 539.223L1414.16 539.1C1413.51 541.65 1412.83 544.184 1412.13 546.697L1412.61 546.832ZM1416.49 531.556C1417.07 528.998 1417.63 526.427 1418.16 523.846L1417.67 523.746C1417.14 526.323 1416.59 528.89 1416 531.445L1416.49 531.556ZM1419.65 516.108C1420.12 513.521 1420.56 510.929 1420.98 508.334L1420.48 508.256C1420.07 510.847 1419.63 513.435 1419.16 516.018L1419.65 516.108ZM1422.13 500.536C1422.49 497.924 1422.82 495.314 1423.12 492.708L1422.62 492.651C1422.32 495.253 1421.99 497.86 1421.64 500.468L1422.13 500.536ZM1423.94 484.885C1424.18 482.249 1424.4 479.621 1424.59 477.006L1424.09 476.97C1423.9 479.582 1423.68 482.206 1423.44 484.839L1423.94 484.885ZM1425.06 469.141C1425.19 466.499 1425.28 463.875 1425.35 461.272L1424.85 461.259C1424.78 463.858 1424.69 466.479 1424.56 469.117L1425.06 469.141ZM1425.45 453.363C1425.45 450.713 1425.41 448.091 1425.35 445.5L1424.85 445.513C1424.91 448.099 1424.95 450.718 1424.95 453.363L1425.45 453.363ZM1425.03 437.621C1424.88 434.947 1424.7 432.313 1424.47 429.724L1423.98 429.768C1424.2 432.35 1424.38 434.979 1424.53 437.648L1425.03 437.621ZM1423.66 421.895C1423.34 419.248 1422.97 416.659 1422.56 414.135L1422.07 414.215C1422.48 416.733 1422.84 419.315 1423.16 421.955L1423.66 421.895ZM1421.1 406.329C1420.54 403.673 1419.92 401.105 1419.25 398.635L1418.77 398.766C1419.44 401.227 1420.05 403.786 1420.61 406.433L1421.1 406.329ZM1416.91 391.089C1416 388.503 1415.02 386.056 1413.96 383.763L1413.51 383.973C1414.56 386.25 1415.53 388.682 1416.44 391.255L1416.91 391.089ZM1410.22 376.8C1409.52 375.677 1408.79 374.611 1408.03 373.604L1407.63 373.904C1408.38 374.899 1409.1 375.954 1409.8 377.066L1410.22 376.8Z" fill="white" fill-opacity="0.3"/>
<g filter="url(#filter0_d_202_45)">
<path d="M1346.83 322.468C1346.19 322.04 1346.25 321.079 1346.94 320.74L1398.61 295.36C1399.3 295.021 1400.1 295.557 1400.05 296.325L1396.2 353.764C1396.14 354.532 1395.28 354.956 1394.64 354.527L1346.83 322.468Z" fill="#1D242D" fill-opacity="0.6" shape-rendering="crispEdges"/>
<path d="M1391.79 352.316C1391.68 352.239 1391.52 352.27 1391.45 352.384L1385.88 348.655C1385.96 348.541 1385.93 348.385 1385.82 348.309L1379.84 344.301C1379.72 344.224 1379.57 344.255 1379.49 344.37L1373.93 340.641C1374.01 340.526 1373.98 340.371 1373.86 340.294L1367.88 336.286C1367.77 336.21 1367.61 336.24 1367.54 336.355L1361.98 332.626C1362.05 332.511 1362.02 332.356 1361.91 332.279L1355.93 328.272C1355.82 328.195 1355.66 328.225 1355.58 328.34L1350.02 324.611C1350.1 324.496 1350.07 324.341 1349.95 324.264L1346.97 322.261C1346.49 321.939 1346.53 321.219 1347.05 320.964L1350.28 319.378C1350.41 319.317 1350.46 319.168 1350.4 319.044L1356.41 316.092C1356.47 316.215 1356.62 316.267 1356.74 316.206L1363.2 313.033C1363.32 312.972 1363.37 312.823 1363.31 312.699L1369.32 309.747C1369.39 309.87 1369.53 309.922 1369.66 309.861L1376.12 306.688C1376.24 306.627 1376.29 306.478 1376.23 306.354L1382.24 303.402C1382.3 303.525 1382.45 303.577 1382.58 303.516L1389.04 300.343C1389.16 300.282 1389.21 300.133 1389.15 300.009L1395.16 297.057C1395.22 297.18 1395.37 297.232 1395.49 297.171L1398.72 295.584C1399.24 295.33 1399.84 295.732 1399.8 296.308L1399.56 299.898C1399.55 300.036 1399.66 300.155 1399.79 300.164L1399.35 306.845C1399.21 306.836 1399.09 306.94 1399.08 307.078L1398.6 314.258C1398.59 314.395 1398.69 314.515 1398.83 314.524L1398.38 321.205C1398.24 321.196 1398.13 321.3 1398.12 321.437L1397.63 328.617C1397.62 328.755 1397.73 328.874 1397.87 328.884L1397.42 335.565C1397.28 335.555 1397.16 335.659 1397.15 335.797L1396.67 342.977C1396.66 343.115 1396.76 343.234 1396.9 343.243L1396.45 349.924C1396.32 349.915 1396.2 350.019 1396.19 350.157L1395.95 353.747C1395.91 354.323 1395.26 354.641 1394.78 354.32L1391.79 352.316Z" stroke="white" stroke-opacity="0.3" stroke-width="0.5" stroke-linecap="round" stroke-dasharray="8 8" shape-rendering="crispEdges"/>
</g>
<circle cx="1380.55" cy="323.864" r="45.0336" transform="rotate(-90.1707 1380.55 323.864)" stroke="#E8D7AB" stroke-width="0.1" stroke-linecap="round" stroke-dasharray="8 8"/>
<circle cx="1380.55" cy="323.864" r="51.5768" transform="rotate(-90.1707 1380.55 323.864)" stroke="#FEF3C7" stroke-opacity="0.25" stroke-width="0.5"/>
<g filter="url(#filter1_d_202_45)">
<path d="M211.585 201.218L183.55 248.251L135.76 221.557L163.795 174.524L211.585 201.218Z" fill="#3E4957" fill-opacity="0.25" shape-rendering="crispEdges"/>
<path d="M206.465 198.358L209.879 200.265L209.818 200.374L211.412 201.264L210.477 202.834L210.584 202.898L208.582 206.257L208.474 206.193L206.472 209.553L206.579 209.617L204.577 212.976L204.469 212.912L202.467 216.272L202.574 216.336L200.572 219.695L200.464 219.631L198.462 222.991L198.569 223.055L196.567 226.414L196.459 226.35L194.457 229.71L194.564 229.774L192.562 233.133L192.454 233.069L190.452 236.429L190.559 236.493L188.557 239.852L188.449 239.788L186.447 243.148L186.554 243.212L184.552 246.571L184.444 246.507L183.505 248.082L181.905 247.188L181.844 247.298L178.43 245.391L178.491 245.282L175.077 243.375L175.016 243.484L171.603 241.577L171.664 241.468L168.25 239.562L168.189 239.671L164.776 237.764L164.837 237.655L161.423 235.748L161.362 235.857L157.949 233.951L158.01 233.842L154.596 231.935L154.535 232.044L151.121 230.137L151.182 230.028L147.769 228.121L147.708 228.231L144.294 226.324L144.355 226.215L140.942 224.308L140.881 224.417L137.467 222.511L137.528 222.401L135.934 221.511L136.869 219.941L136.762 219.877L138.764 216.518L138.871 216.582L140.874 213.222L140.767 213.159L142.769 209.799L142.876 209.863L144.879 206.504L144.772 206.44L146.774 203.08L146.881 203.144L148.884 199.785L148.777 199.721L150.779 196.361L150.886 196.425L152.889 193.066L152.782 193.002L154.784 189.642L154.892 189.706L156.894 186.347L156.787 186.283L158.789 182.923L158.897 182.987L160.899 179.628L160.792 179.564L162.794 176.204L162.902 176.268L163.841 174.693L165.441 175.587L165.502 175.478L168.916 177.384L168.855 177.494L172.268 179.4L172.329 179.291L175.743 181.198L175.682 181.307L179.096 183.214L179.157 183.104L182.57 185.011L182.509 185.12L185.923 187.027L185.984 186.918L189.397 188.825L189.336 188.934L192.75 190.84L192.811 190.731L196.224 192.638L196.163 192.747L199.577 194.654L199.638 194.545L203.052 196.451L202.991 196.56L206.404 198.467L206.465 198.358Z" stroke="#E8D7AB" stroke-opacity="0.5" stroke-width="0.25" stroke-dasharray="4 4" shape-rendering="crispEdges"/>
</g>
<path d="M161.727 470.268C161.727 482.304 151.973 492.061 139.941 492.061C127.909 492.061 118.155 482.304 118.155 470.268C118.155 458.232 127.909 448.475 139.941 448.475C151.973 448.475 161.727 458.232 161.727 470.268Z" stroke="#43505F" stroke-opacity="0.5"/>
<ellipse cx="139.941" cy="470.268" rx="20.0494" ry="20.0556" fill="#D9D9D9" fill-opacity="0.05"/>
<path d="M159.776 467.325C159.871 467.968 159.935 468.622 159.967 469.284L159.467 469.308C159.483 469.626 159.49 469.946 159.49 470.268C159.49 470.59 159.483 470.91 159.467 471.228L159.967 471.252C159.935 471.914 159.871 472.568 159.776 473.211L159.281 473.139C159.187 473.777 159.063 474.405 158.909 475.021L159.394 475.142C159.234 475.783 159.044 476.411 158.824 477.026L158.353 476.857C158.137 477.462 157.891 478.054 157.618 478.63L158.07 478.844C157.788 479.439 157.478 480.018 157.141 480.579L156.713 480.321C156.383 480.871 156.026 481.403 155.645 481.916L156.047 482.214C155.655 482.742 155.238 483.25 154.798 483.735L154.427 483.4C153.997 483.874 153.545 484.327 153.071 484.757L153.406 485.127C152.921 485.568 152.413 485.985 151.886 486.377L151.588 485.976C151.075 486.357 150.543 486.713 149.993 487.044L150.251 487.472C149.69 487.809 149.111 488.12 148.516 488.402L148.302 487.95C147.726 488.223 147.135 488.469 146.53 488.685L146.698 489.156C146.084 489.376 145.456 489.567 144.815 489.727L144.694 489.242C144.078 489.396 143.45 489.52 142.812 489.614L142.884 490.109C142.241 490.204 141.587 490.268 140.925 490.3L140.901 489.8C140.583 489.816 140.263 489.824 139.941 489.824C139.619 489.824 139.299 489.816 138.981 489.8L138.957 490.3C138.295 490.268 137.641 490.204 136.998 490.109L137.07 489.614C136.432 489.52 135.804 489.396 135.188 489.242L135.067 489.727C134.426 489.567 133.798 489.376 133.184 489.156L133.352 488.685C132.747 488.469 132.156 488.223 131.58 487.95L131.366 488.402C130.771 488.12 130.192 487.809 129.631 487.472L129.889 487.044C129.339 486.713 128.807 486.357 128.294 485.976L127.996 486.377C127.469 485.985 126.961 485.568 126.475 485.127L126.811 484.757C126.337 484.327 125.885 483.874 125.455 483.4L125.084 483.735C124.644 483.25 124.227 482.742 123.835 482.214L124.237 481.916C123.856 481.403 123.499 480.871 123.169 480.321L122.741 480.579C122.404 480.018 122.094 479.439 121.812 478.844L122.264 478.63C121.991 478.054 121.745 477.462 121.529 476.857L121.058 477.026C120.838 476.411 120.648 475.783 120.488 475.142L120.973 475.021C120.819 474.405 120.694 473.777 120.601 473.139L120.106 473.211C120.011 472.568 119.947 471.914 119.915 471.252L120.415 471.228C120.399 470.91 120.392 470.59 120.392 470.268C120.392 469.946 120.399 469.626 120.415 469.308L119.915 469.284C119.947 468.622 120.011 467.968 120.106 467.325L120.601 467.397C120.694 466.759 120.819 466.131 120.973 465.515L120.488 465.394C120.648 464.753 120.838 464.125 121.058 463.51L121.529 463.679C121.745 463.074 121.991 462.482 122.264 461.906L121.812 461.692C122.094 461.097 122.404 460.518 122.741 459.957L123.169 460.215C123.499 459.665 123.856 459.133 124.237 458.62L123.835 458.322C124.227 457.794 124.644 457.287 125.084 456.801L125.455 457.136C125.885 456.662 126.337 456.209 126.811 455.779L126.475 455.409C126.961 454.968 127.469 454.551 127.996 454.159L128.294 454.56C128.807 454.179 129.339 453.823 129.889 453.492L129.631 453.064C130.192 452.727 130.771 452.416 131.366 452.134L131.58 452.586C132.156 452.313 132.747 452.067 133.352 451.851L133.184 451.38C133.798 451.16 134.426 450.969 135.067 450.809L135.188 451.294C135.804 451.14 136.432 451.016 137.07 450.922L136.998 450.427C137.641 450.332 138.295 450.268 138.957 450.236L138.981 450.736C139.299 450.72 139.619 450.712 139.941 450.712C140.263 450.712 140.583 450.72 140.901 450.736L140.925 450.236C141.587 450.268 142.241 450.332 142.884 450.427L142.812 450.922C143.45 451.016 144.078 451.14 144.694 451.294L144.815 450.809C145.456 450.969 146.084 451.16 146.698 451.38L146.53 451.851C147.135 452.067 147.726 452.313 148.302 452.586L148.516 452.134C149.111 452.416 149.69 452.727 150.251 453.064L149.993 453.492C150.543 453.823 151.075 454.179 151.588 454.56L151.886 454.159C152.413 454.551 152.921 454.968 153.406 455.409L153.071 455.779C153.545 456.209 153.997 456.662 154.427 457.136L154.798 456.801C155.238 457.287 155.655 457.794 156.047 458.322L155.645 458.62C156.026 459.133 156.383 459.665 156.713 460.215L157.141 459.957C157.478 460.518 157.788 461.097 158.07 461.692L157.618 461.906C157.891 462.482 158.137 463.074 158.353 463.679L158.824 463.51C159.044 464.125 159.234 464.753 159.394 465.394L158.909 465.515C159.063 466.131 159.187 466.759 159.281 467.397L159.776 467.325Z" stroke="#43505F" stroke-opacity="0.5" stroke-dasharray="2 2"/>
<path d="M1350.92 642.586C1350.92 654.622 1341.16 664.379 1329.13 664.379C1317.1 664.379 1307.34 654.622 1307.34 642.586C1307.34 630.55 1317.1 620.793 1329.13 620.793C1341.16 620.793 1350.92 630.55 1350.92 642.586Z" stroke="#43505F" stroke-opacity="0.5"/>
<ellipse cx="1329.13" cy="642.586" rx="20.0494" ry="20.0556" fill="#D9D9D9" fill-opacity="0.05"/>
<path d="M1348.97 639.643C1349.06 640.286 1349.12 640.94 1349.16 641.602L1348.66 641.626C1348.67 641.944 1348.68 642.264 1348.68 642.586C1348.68 642.908 1348.67 643.228 1348.66 643.546L1349.16 643.57C1349.12 644.232 1349.06 644.886 1348.97 645.53L1348.47 645.457C1348.38 646.095 1348.25 646.723 1348.1 647.339L1348.58 647.46C1348.42 648.101 1348.23 648.729 1348.01 649.344L1347.54 649.175C1347.33 649.781 1347.08 650.372 1346.81 650.948L1347.26 651.162C1346.98 651.757 1346.67 652.336 1346.33 652.897L1345.9 652.64C1345.57 653.189 1345.22 653.722 1344.83 654.235L1345.24 654.533C1344.84 655.06 1344.43 655.568 1343.99 656.054L1343.62 655.718C1343.19 656.192 1342.73 656.645 1342.26 657.075L1342.6 657.446C1342.11 657.886 1341.6 658.303 1341.08 658.695L1340.78 658.294C1340.26 658.675 1339.73 659.032 1339.18 659.362L1339.44 659.79C1338.88 660.128 1338.3 660.438 1337.71 660.72L1337.49 660.268C1336.92 660.541 1336.32 660.787 1335.72 661.003L1335.89 661.474C1335.27 661.694 1334.65 661.885 1334 662.045L1333.88 661.56C1333.27 661.714 1332.64 661.839 1332 661.932L1332.07 662.427C1331.43 662.522 1330.78 662.586 1330.11 662.618L1330.09 662.119C1329.77 662.134 1329.45 662.142 1329.13 662.142C1328.81 662.142 1328.49 662.134 1328.17 662.119L1328.15 662.618C1327.48 662.586 1326.83 662.522 1326.19 662.427L1326.26 661.932C1325.62 661.839 1324.99 661.714 1324.38 661.56L1324.26 662.045C1323.62 661.885 1322.99 661.694 1322.37 661.474L1322.54 661.003C1321.94 660.787 1321.35 660.541 1320.77 660.268L1320.56 660.72C1319.96 660.438 1319.38 660.128 1318.82 659.79L1319.08 659.362C1318.53 659.032 1318 658.675 1317.48 658.294L1317.19 658.695C1316.66 658.303 1316.15 657.886 1315.66 657.446L1316 657.075C1315.53 656.645 1315.07 656.192 1314.64 655.718L1314.27 656.054C1313.83 655.568 1313.42 655.06 1313.02 654.533L1313.43 654.235C1313.05 653.722 1312.69 653.189 1312.36 652.64L1311.93 652.897C1311.59 652.336 1311.28 651.757 1311 651.162L1311.45 650.948C1311.18 650.372 1310.93 649.781 1310.72 649.175L1310.25 649.344C1310.03 648.729 1309.84 648.101 1309.68 647.46L1310.16 647.339C1310.01 646.723 1309.88 646.095 1309.79 645.457L1309.3 645.53C1309.2 644.886 1309.14 644.232 1309.1 643.57L1309.6 643.546C1309.59 643.228 1309.58 642.908 1309.58 642.586C1309.58 642.264 1309.59 641.944 1309.6 641.626L1309.1 641.602C1309.14 640.94 1309.2 640.286 1309.3 639.643L1309.79 639.715C1309.88 639.077 1310.01 638.449 1310.16 637.833L1309.68 637.712C1309.84 637.071 1310.03 636.443 1310.25 635.828L1310.72 635.997C1310.93 635.392 1311.18 634.8 1311.45 634.224L1311 634.01C1311.28 633.415 1311.59 632.836 1311.93 632.275L1312.36 632.533C1312.69 631.983 1313.05 631.451 1313.43 630.938L1313.02 630.64C1313.42 630.112 1313.83 629.605 1314.27 629.119L1314.64 629.455C1315.07 628.98 1315.53 628.527 1316 628.097L1315.66 627.727C1316.15 627.286 1316.66 626.869 1317.19 626.477L1317.48 626.878C1318 626.497 1318.53 626.141 1319.08 625.81L1318.82 625.382C1319.38 625.045 1319.96 624.734 1320.56 624.452L1320.77 624.904C1321.35 624.631 1321.94 624.386 1322.54 624.169L1322.37 623.698C1322.99 623.478 1323.62 623.287 1324.26 623.127L1324.38 623.612C1324.99 623.458 1325.62 623.334 1326.26 623.24L1326.19 622.745C1326.83 622.65 1327.48 622.586 1328.15 622.554L1328.17 623.054C1328.49 623.038 1328.81 623.031 1329.13 623.031C1329.45 623.031 1329.77 623.038 1330.09 623.054L1330.11 622.554C1330.78 622.586 1331.43 622.65 1332.07 622.745L1332 623.24C1332.64 623.334 1333.27 623.458 1333.88 623.612L1334 623.127C1334.65 623.287 1335.27 623.478 1335.89 623.698L1335.72 624.169C1336.32 624.386 1336.92 624.631 1337.49 624.904L1337.71 624.452C1338.3 624.734 1338.88 625.045 1339.44 625.382L1339.18 625.81C1339.73 626.141 1340.26 626.497 1340.78 626.878L1341.08 626.477C1341.6 626.869 1342.11 627.286 1342.6 627.727L1342.26 628.097C1342.73 628.527 1343.19 628.98 1343.62 629.455L1343.99 629.119C1344.43 629.605 1344.84 630.112 1345.24 630.64L1344.83 630.938C1345.22 631.451 1345.57 631.983 1345.9 632.533L1346.33 632.275C1346.67 632.836 1346.98 633.415 1347.26 634.01L1346.81 634.224C1347.08 634.8 1347.33 635.392 1347.54 635.997L1348.01 635.828C1348.23 636.443 1348.42 637.071 1348.58 637.712L1348.1 637.833C1348.25 638.449 1348.38 639.077 1348.47 639.715L1348.97 639.643Z" stroke="#43505F" stroke-opacity="0.5" stroke-dasharray="2 2"/>
<defs>
<filter id="filter0_d_202_45" x="1346.38" y="295.256" width="56.6719" height="67.4419" filterUnits="userSpaceOnUse" color-interpolation-filters="sRGB">
<feFlood flood-opacity="0" result="BackgroundImageFix"/>
<feColorMatrix in="SourceAlpha" type="matrix" values="0 0 0 0 0 0 0 0 0 0 0 0 0 0 0 0 0 0 127 0" result="hardAlpha"/>
<feOffset dx="3" dy="8"/>
<feComposite in2="hardAlpha" operator="out"/>
<feColorMatrix type="matrix" values="0 0 0 0 0.0705882 0 0 0 0 0.0862745 0 0 0 0 0.105882 0 0 0 1 0"/>
<feBlend mode="normal" in2="BackgroundImageFix" result="effect1_dropShadow_202_45"/>
<feBlend mode="normal" in="SourceGraphic" in2="effect1_dropShadow_202_45" result="shape"/>
</filter>
<filter id="filter1_d_202_45" x="135.76" y="174.524" width="77.8252" height="77.7266" filterUnits="userSpaceOnUse" color-interpolation-filters="sRGB">
<feFlood flood-opacity="0" result="BackgroundImageFix"/>
<feColorMatrix in="SourceAlpha" type="matrix" values="0 0 0 0 0 0 0 0 0 0 0 0 0 0 0 0 0 0 127 0" result="hardAlpha"/>
<feOffset dx="2" dy="4"/>
<feComposite in2="hardAlpha" operator="out"/>
<feColorMatrix type="matrix" values="0 0 0 0 0.08245 0 0 0 0 0.0993436 0 0 0 0 0.1275 0 0 0 1 0"/>
<feBlend mode="normal" in2="BackgroundImageFix" result="effect1_dropShadow_202_45"/>
<feBlend mode="normal" in="SourceGraphic" in2="effect1_dropShadow_202_45" result="shape"/>
</filter>
</defs>
</svg>
