<svg width="1538" height="1030" viewBox="0 0 1538 1030" fill="none" xmlns="http://www.w3.org/2000/svg">
<path d="M0.822021 1.34509H192.822H384.822H576.822H768.822H960.822H1152.82H1344.82H1536.82V129.72V258.095V386.47V514.845V643.22V771.595V899.97V1028.35H1344.82H1152.82H960.822H768.822H576.822H384.822H192.822H0.822021V899.97V771.595V643.22V514.845V386.47V258.095V129.72V1.34509Z" fill="#161B22"/>
<path d="M768.822 1.34509V129.72M768.822 1.34509H576.822M768.822 1.34509H960.822M768.822 1028.35H576.822M768.822 1028.35H960.822M768.822 1028.35V899.97M0.822021 514.845H192.822M0.822021 514.845V386.47M0.822021 514.845V643.22M1536.82 514.845H1344.82M1536.82 514.845V386.47M1536.82 514.845V643.22M384.822 1.34509H192.822M384.822 1.34509V129.72M384.822 1.34509H576.822M384.822 514.845H192.822M384.822 514.845V386.47M384.822 514.845H576.822M384.822 514.845V643.22M384.822 1028.35H192.822M384.822 1028.35H576.822M384.822 1028.35V899.97M1152.82 1.34509V129.72M1152.82 1.34509H960.822M1152.82 1.34509H1344.82M1152.82 514.845H960.822M1152.82 514.845H1344.82M1152.82 514.845V386.47M1152.82 514.845V643.22M1152.82 1028.35H960.822M1152.82 1028.35H1344.82M1152.82 1028.35V899.97M0.822021 258.095H192.822M0.822021 258.095V129.72M0.822021 258.095V386.47M384.822 258.095H192.822M384.822 258.095V129.72M384.822 258.095V386.47M384.822 258.095H576.822M768.822 258.095V129.72M768.822 258.095H576.822M768.822 258.095H960.822M768.822 258.095V386.47M1152.82 258.095V129.72M1152.82 258.095H960.822M1152.82 258.095H1344.82M1152.82 258.095V386.47M1536.82 258.095V129.72M1536.82 258.095H1344.82M1536.82 258.095V386.47M1536.82 771.595H1344.82M1536.82 771.595V899.97M1536.82 771.595V643.22M1152.82 771.595H960.822M1152.82 771.595H1344.82M1152.82 771.595V899.97M1152.82 771.595V643.22M768.822 771.595H576.822M768.822 771.595H960.822M768.822 771.595V899.97M768.822 771.595V643.22M384.822 771.595H192.822M384.822 771.595H576.822M384.822 771.595V899.97M384.822 771.595V643.22M0.822021 771.595H192.822M0.822021 771.595V899.97M0.822021 771.595V643.22M192.822 1.34509H0.822021V129.72M192.822 1.34509V258.095M192.822 258.095V514.845M192.822 514.845V771.595M192.822 771.595V1028.35M192.822 1028.35H0.822021V899.97M0.822021 129.72H384.822M384.822 129.72H768.822M768.822 129.72H1152.82M1152.82 129.72H1536.82M1536.82 129.72V1.34509H1344.82M0.822021 386.47H384.822M384.822 386.47H768.822M576.822 258.095V514.845M576.822 258.095V1.34509M576.822 771.595V643.22M576.822 771.595V899.97M576.822 1028.35V899.97M960.822 1028.35V899.97M960.822 771.595V643.22M960.822 771.595V899.97M576.822 514.845H768.822H960.822M576.822 514.845V643.22M960.822 514.845V258.095M960.822 514.845V643.22M960.822 258.095V1.34509M1344.82 1.34509V258.095M1344.82 258.095V514.845M1344.82 514.845V643.22M1344.82 771.595V643.22M1344.82 771.595V899.97M1344.82 1028.35H1536.82V899.97M1344.82 1028.35V899.97M1536.82 899.97H1344.82M1152.82 899.97H960.822M1152.82 899.97H1344.82M768.822 899.97H576.822M768.822 899.97H960.822M384.822 899.97H0.822021M384.822 899.97H576.822M1152.82 386.47H768.822M1152.82 386.47H1536.82M768.822 386.47V643.22M1536.82 643.22H1344.82M1344.82 643.22H1152.82M1152.82 643.22H960.822M768.822 643.22H576.822M768.822 643.22H960.822M384.822 643.22H0.822021M384.822 643.22H576.822" stroke="white" stroke-opacity="0.05"/>
<g filter="url(#filter0_d_192_11)">
<path d="M1382.7 433.901C1380.37 431.889 1381.1 428.108 1384 427.096L1455 402.389C1457.91 401.377 1460.83 403.893 1460.25 406.918L1446.14 480.759C1445.57 483.784 1441.93 485.049 1439.6 483.036L1382.7 433.901Z" fill="#1D242D" fill-opacity="0.6" shape-rendering="crispEdges"/>
<path d="M1381.77 432.109C1381.73 431.981 1381.59 431.912 1381.46 431.952C1381.13 430.752 1381.38 429.443 1382.13 428.45C1382.23 428.534 1382.39 428.521 1382.48 428.419C1382.88 427.945 1383.42 427.563 1384.09 427.332L1387.64 426.097C1387.77 426.051 1387.84 425.909 1387.79 425.778L1394.42 423.472C1394.46 423.603 1394.61 423.671 1394.74 423.626L1401.84 421.155C1401.97 421.11 1402.04 420.968 1401.99 420.837L1408.62 418.531C1408.66 418.661 1408.81 418.73 1408.94 418.685L1416.04 416.214C1416.17 416.169 1416.24 416.026 1416.19 415.896L1422.82 413.59C1422.86 413.72 1423.01 413.789 1423.14 413.743L1430.24 411.273C1430.37 411.227 1430.44 411.085 1430.39 410.955L1437.02 408.648C1437.06 408.779 1437.21 408.848 1437.34 408.802L1444.44 406.332C1444.57 406.286 1444.64 406.144 1444.59 406.013L1451.22 403.707C1451.26 403.837 1451.41 403.906 1451.54 403.861L1455.09 402.626C1455.75 402.395 1456.41 402.36 1457.02 402.478C1457.16 402.503 1457.29 402.419 1457.31 402.287C1458.52 402.6 1459.53 403.471 1460.01 404.618C1459.89 404.666 1459.82 404.805 1459.87 404.933C1460.07 405.523 1460.13 406.181 1460 406.871L1459.3 410.563C1459.27 410.698 1459.36 410.829 1459.5 410.855L1458.18 417.748C1458.04 417.722 1457.91 417.811 1457.89 417.947L1456.48 425.331C1456.45 425.467 1456.54 425.598 1456.68 425.624L1455.36 432.517C1455.22 432.491 1455.09 432.58 1455.07 432.715L1453.66 440.099C1453.63 440.235 1453.72 440.366 1453.85 440.392L1452.54 447.285C1452.4 447.259 1452.27 447.348 1452.25 447.484L1450.84 454.868C1450.81 455.003 1450.9 455.134 1451.03 455.16L1449.72 462.053C1449.58 462.027 1449.45 462.116 1449.43 462.252L1448.01 469.636C1447.99 469.772 1448.08 469.903 1448.21 469.929L1446.9 476.822C1446.76 476.796 1446.63 476.885 1446.6 477.02L1445.9 480.712C1445.77 481.402 1445.47 481.991 1445.06 482.463C1444.97 482.566 1444.98 482.719 1445.08 482.811C1444.21 483.698 1442.95 484.136 1441.71 483.982C1441.73 483.849 1441.64 483.723 1441.51 483.698C1440.9 483.582 1440.3 483.306 1439.76 482.847L1436.92 480.39C1436.82 480.3 1436.66 480.312 1436.57 480.416L1431.26 475.829C1431.35 475.725 1431.33 475.567 1431.23 475.477L1425.54 470.563C1425.44 470.473 1425.28 470.485 1425.19 470.589L1419.88 466.002C1419.97 465.898 1419.96 465.74 1419.85 465.65L1414.16 460.736C1414.06 460.646 1413.9 460.658 1413.81 460.762L1408.5 456.175C1408.59 456.071 1408.58 455.913 1408.47 455.823L1402.78 450.909C1402.68 450.819 1402.52 450.831 1402.43 450.935L1397.12 446.348C1397.21 446.244 1397.2 446.086 1397.09 445.996L1391.4 441.082C1391.3 440.992 1391.14 441.004 1391.05 441.108L1385.74 436.521C1385.83 436.417 1385.82 436.259 1385.71 436.169L1382.87 433.712C1382.34 433.253 1381.98 432.699 1381.77 432.109Z" stroke="white" stroke-opacity="0.3" stroke-width="0.5" stroke-linecap="round" stroke-dasharray="8 8" shape-rendering="crispEdges"/>
</g>
<circle cx="1427.95" cy="439.017" r="65.717" transform="rotate(-90.1707 1427.95 439.017)" stroke="#E8D7AB" stroke-width="0.1" stroke-linecap="round" stroke-dasharray="8 8"/>
<circle cx="1427.95" cy="439.016" r="75.3538" transform="rotate(-90.1707 1427.95 439.016)" stroke="#FEF3C7" stroke-opacity="0.25" stroke-width="0.5"/>
<path d="M99.4557 665.435C99.4557 677.471 89.7016 687.228 77.6695 687.228C65.6375 687.228 55.8833 677.471 55.8833 665.435C55.8833 653.399 65.6375 643.642 77.6695 643.642C89.7016 643.642 99.4557 653.399 99.4557 665.435Z" stroke="#43505F" stroke-opacity="0.5"/>
<ellipse cx="77.6695" cy="665.435" rx="20.0494" ry="20.0556" fill="#D9D9D9" fill-opacity="0.05"/>
<path d="M97.5045 662.492C97.5991 663.135 97.6632 663.789 97.6952 664.451L97.1957 664.475C97.2111 664.793 97.2189 665.113 97.2189 665.435C97.2189 665.757 97.2111 666.077 97.1957 666.395L97.6952 666.419C97.6632 667.081 97.5991 667.735 97.5045 668.378L97.0098 668.306C96.916 668.944 96.7914 669.572 96.6375 670.188L97.1227 670.309C96.9628 670.95 96.7721 671.578 96.5523 672.193L96.0815 672.024C95.865 672.629 95.6196 673.221 95.3468 673.797L95.7987 674.011C95.5169 674.606 95.2067 675.185 94.8699 675.746L94.4412 675.488C94.1111 676.038 93.7548 676.57 93.3739 677.083L93.7754 677.381C93.3837 677.909 92.9668 678.417 92.5263 678.902L92.1559 678.567C91.726 679.041 91.2731 679.494 90.799 679.924L91.135 680.294C90.6493 680.735 90.1419 681.152 89.6146 681.544L89.3164 681.143C88.8036 681.524 88.2715 681.88 87.7219 682.211L87.9794 682.639C87.4185 682.976 86.8397 683.287 86.2448 683.569L86.0306 683.117C85.4547 683.39 84.8635 683.636 84.2584 683.852L84.427 684.323C83.8125 684.543 83.1841 684.734 82.5436 684.894L82.4224 684.409C81.8061 684.563 81.1781 684.687 80.5401 684.781L80.6129 685.276C79.9693 685.371 79.3158 685.435 78.6538 685.467L78.6297 684.967C78.3116 684.983 77.9915 684.991 77.6695 684.991C77.3475 684.991 77.0274 684.983 76.7093 684.967L76.6852 685.467C76.0232 685.435 75.3697 685.371 74.7261 685.276L74.7989 684.781C74.1609 684.687 73.5329 684.563 72.9166 684.409L72.7954 684.894C72.1549 684.734 71.5265 684.543 70.912 684.323L71.0806 683.852C70.4755 683.636 69.8842 683.39 69.3084 683.117L69.0942 683.569C68.4993 683.287 67.9205 682.976 67.3596 682.639L67.6171 682.211C67.0675 681.88 66.5354 681.524 66.0226 681.143L65.7244 681.544C65.1971 681.152 64.6897 680.735 64.204 680.294L64.54 679.924C64.0659 679.494 63.613 679.041 63.1831 678.567L62.8127 678.902C62.3722 678.417 61.9553 677.909 61.5636 677.381L61.9651 677.083C61.5842 676.57 61.2279 676.038 60.8978 675.488L60.4691 675.746C60.1323 675.185 59.8221 674.606 59.5403 674.011L59.9922 673.797C59.7194 673.221 59.474 672.629 59.2575 672.024L58.7867 672.193C58.5669 671.578 58.3762 670.95 58.2163 670.309L58.7015 670.188C58.5476 669.572 58.423 668.944 58.3292 668.306L57.8345 668.378C57.7399 667.735 57.6758 667.081 57.6438 666.419L58.1433 666.395C58.1279 666.077 58.1201 665.757 58.1201 665.435C58.1201 665.113 58.1279 664.793 58.1433 664.475L57.6438 664.451C57.6758 663.789 57.7399 663.135 57.8345 662.492L58.3292 662.564C58.423 661.926 58.5476 661.298 58.7015 660.682L58.2163 660.561C58.3762 659.92 58.5669 659.292 58.7867 658.677L59.2575 658.846C59.474 658.241 59.7194 657.649 59.9922 657.073L59.5403 656.859C59.8221 656.264 60.1323 655.685 60.4691 655.124L60.8978 655.382C61.2279 654.832 61.5842 654.3 61.9651 653.787L61.5636 653.489C61.9553 652.961 62.3722 652.454 62.8127 651.968L63.1831 652.303C63.613 651.829 64.0659 651.376 64.54 650.946L64.204 650.576C64.6897 650.135 65.1971 649.718 65.7244 649.326L66.0226 649.727C66.5354 649.346 67.0675 648.99 67.6171 648.659L67.3596 648.231C67.9205 647.894 68.4993 647.583 69.0942 647.301L69.3084 647.753C69.8843 647.48 70.4755 647.234 71.0806 647.018L70.912 646.547C71.5265 646.327 72.1549 646.136 72.7954 645.976L72.9166 646.461C73.5329 646.307 74.1609 646.183 74.7989 646.089L74.7261 645.594C75.3697 645.499 76.0232 645.435 76.6852 645.403L76.7093 645.903C77.0274 645.887 77.3475 645.879 77.6695 645.879C77.9915 645.879 78.3116 645.887 78.6297 645.903L78.6538 645.403C79.3158 645.435 79.9693 645.499 80.6129 645.594L80.5401 646.089C81.1781 646.183 81.8061 646.307 82.4224 646.461L82.5436 645.976C83.1841 646.136 83.8125 646.327 84.427 646.547L84.2584 647.018C84.8635 647.234 85.4548 647.48 86.0306 647.753L86.2448 647.301C86.8397 647.583 87.4185 647.894 87.9794 648.231L87.7219 648.659C88.2715 648.99 88.8036 649.346 89.3164 649.727L89.6146 649.326C90.1419 649.718 90.6493 650.135 91.135 650.576L90.799 650.946C91.2731 651.376 91.726 651.829 92.1559 652.303L92.5263 651.968C92.9668 652.454 93.3837 652.961 93.7754 653.489L93.3739 653.787C93.7548 654.3 94.1111 654.832 94.4412 655.382L94.8699 655.124C95.2067 655.685 95.5169 656.264 95.7987 656.859L95.3468 657.073C95.6196 657.649 95.865 658.241 96.0815 658.846L96.5523 658.677C96.7721 659.292 96.9628 659.92 97.1227 660.561L96.6375 660.682C96.7914 661.298 96.916 661.926 97.0098 662.564L97.5045 662.492Z" stroke="#43505F" stroke-opacity="0.5" stroke-dasharray="2 2"/>
<path d="M194.122 763.066L194.12 762.816L194.122 763.066ZM18.225 3.40967C18.225 4.14605 18.822 4.743 19.5583 4.743C20.2947 4.743 20.8917 4.14605 20.8917 3.40967C20.8917 2.67329 20.2947 2.07633 19.5583 2.07633C18.822 2.07633 18.225 2.67329 18.225 3.40967ZM1386.31 371.063C1386.31 371.799 1386.91 372.396 1387.64 372.396C1388.38 372.396 1388.98 371.799 1388.98 371.063C1388.98 370.327 1388.38 369.73 1387.64 369.73C1386.91 369.73 1386.31 370.327 1386.31 371.063ZM1455.83 513.015C1455.83 513.752 1456.42 514.349 1457.16 514.349C1457.9 514.349 1458.49 513.752 1458.49 513.015C1458.49 512.279 1457.9 511.682 1457.16 511.682C1456.42 511.682 1455.83 512.279 1455.83 513.015ZM960.727 1028.35C960.727 1029.08 961.324 1029.68 962.06 1029.68C962.797 1029.68 963.394 1029.08 963.394 1028.35C963.394 1027.61 962.797 1027.01 962.06 1027.01C961.324 1027.01 960.727 1027.61 960.727 1028.35ZM1307.77 874.207L1307.66 874.432L1307.77 874.207ZM133.689 236.2C133.689 236.936 134.286 237.533 135.023 237.533C135.759 237.533 136.356 236.936 136.356 236.2C136.356 235.463 135.759 234.866 135.023 234.866C134.286 234.866 133.689 235.463 133.689 236.2ZM164.229 347.093C164.229 347.829 164.825 348.426 165.562 348.426C166.298 348.426 166.895 347.829 166.895 347.093C166.895 346.356 166.298 345.759 165.562 345.759C164.825 345.759 164.229 346.356 164.229 347.093ZM19.3083 3.40967C19.3083 4.78165 19.3312 6.15398 19.3764 7.52651L19.8761 7.51007C19.8311 6.14294 19.8083 4.77609 19.8083 3.40967H19.3083ZM19.9075 15.7451C20.1683 18.4694 20.5119 21.1935 20.9331 23.9163L21.4272 23.8399C21.0074 21.1263 20.6651 18.4118 20.4052 15.6974L19.9075 15.7451ZM22.4118 32.0174C22.9728 34.6914 23.6043 37.3632 24.3015 40.032L24.7852 39.9056C24.09 37.2444 23.4604 34.5804 22.9011 31.9147L22.4118 32.0174ZM26.5613 47.9497C27.3678 50.559 28.233 53.1643 29.1525 55.7648L29.6239 55.5981C28.7065 53.0036 27.8434 50.4046 27.039 47.802L26.5613 47.9497ZM32.0393 63.4753C33.0426 66.0166 34.0939 68.5523 35.1891 71.0818L35.6479 70.8831C34.5548 68.3584 33.5056 65.8277 32.5043 63.2917L32.0393 63.4753ZM38.5724 78.5869C39.732 81.0635 40.93 83.533 42.1625 85.9948L42.6096 85.771C41.3789 83.3129 40.1828 80.8473 39.0252 78.3749L38.5724 78.5869ZM45.9355 93.3104C47.2182 95.7286 48.5308 98.1385 49.8695 100.539L50.3062 100.296C48.9691 97.8978 47.6582 95.491 46.3772 93.0761L45.9355 93.3104ZM53.9441 107.686C55.3232 110.055 56.7243 112.413 58.1436 114.761L58.5715 114.503C57.1535 112.157 55.7539 109.8 54.3762 107.434L53.9441 107.686ZM62.4515 121.772C63.9054 124.101 65.3737 126.419 66.8527 128.724L67.2736 128.454C65.7956 126.15 64.3284 123.834 62.8757 121.507L62.4515 121.772ZM71.3327 135.626C72.842 137.926 74.3583 140.212 75.8777 142.485L76.2934 142.207C74.7747 139.935 73.2592 137.65 71.7507 135.352L71.3327 135.626ZM80.4743 149.308C82.0214 151.589 83.5677 153.855 85.1091 156.104L85.5216 155.821C83.9805 153.572 82.4347 151.307 80.8881 149.027L80.4743 149.308ZM89.7686 162.882C91.3363 165.157 92.8946 167.414 94.4388 169.652L94.8503 169.368C93.306 167.129 91.7479 164.873 90.1803 162.598L89.7686 162.882ZM99.1046 176.424C100.674 178.708 102.224 180.97 103.749 183.21L104.163 182.929C102.637 180.688 101.087 178.425 99.5167 176.14L99.1046 176.424ZM108.353 190.025C109.902 192.338 111.417 194.624 112.894 196.884L113.312 196.61C111.835 194.349 110.318 192.061 108.769 189.747L108.353 190.025ZM117.34 203.802C118.833 206.168 120.274 208.501 121.655 210.8L122.084 210.542C120.701 208.24 119.258 205.904 117.763 203.535L117.34 203.802ZM125.786 217.896C127.162 220.345 128.456 222.75 129.66 225.11L130.105 224.882C128.898 222.516 127.601 220.105 126.222 217.651L125.786 217.896ZM133.21 232.544C133.769 233.808 134.297 235.058 134.791 236.292L135.255 236.107C134.758 234.866 134.229 233.611 133.667 232.341L133.21 232.544ZM165.318 347.149C165.563 348.21 165.678 349.452 165.671 350.867L166.171 350.869C166.179 349.427 166.061 348.146 165.805 347.036L165.318 347.149ZM164.757 358.776C164.308 361.096 163.7 363.64 162.949 366.393L163.432 366.525C164.185 363.763 164.796 361.206 165.248 358.871L164.757 358.776ZM160.721 373.903C159.959 376.305 159.119 378.824 158.21 381.453L158.682 381.616C159.593 378.984 160.434 376.461 161.197 374.055L160.721 373.903ZM155.523 388.993C154.66 391.358 153.752 393.794 152.804 396.299L153.272 396.476C154.22 393.97 155.129 391.531 155.993 389.165L155.523 388.993ZM149.926 403.81C149.006 406.182 148.058 408.605 147.085 411.078L147.55 411.261C148.524 408.788 149.472 406.363 150.392 403.99L149.926 403.81ZM144.137 418.521C143.187 420.909 142.218 423.337 141.232 425.801L141.696 425.987C142.682 423.522 143.652 421.094 144.602 418.706L144.137 418.521ZM138.255 433.231C137.295 435.625 136.323 438.051 135.34 440.505L135.804 440.691C136.787 438.237 137.759 435.811 138.72 433.417L138.255 433.231ZM132.362 447.952C131.404 450.352 130.439 452.776 129.468 455.223L129.933 455.408C130.903 452.961 131.869 450.537 132.826 448.137L132.362 447.952ZM126.54 462.63C125.584 465.06 124.624 467.509 123.663 469.976L124.129 470.158C125.09 467.691 126.05 465.242 127.006 462.813L126.54 462.63ZM120.802 477.363C119.856 479.819 118.911 482.291 117.967 484.777L118.435 484.954C119.378 482.469 120.323 479.998 121.268 477.543L120.802 477.363ZM115.184 492.166C114.259 494.641 113.338 497.129 112.421 499.628L112.891 499.8C113.807 497.302 114.728 494.815 115.653 492.341L115.184 492.166ZM109.728 507.043C108.836 509.524 107.951 512.013 107.073 514.51L107.545 514.676C108.422 512.18 109.307 509.692 110.198 507.212L109.728 507.043ZM104.474 521.995C103.62 524.489 102.774 526.989 101.94 529.493L102.414 529.651C103.248 527.148 104.093 524.65 104.947 522.157L104.474 521.995ZM99.4692 537.019C98.6564 539.534 97.8561 542.053 97.0696 544.573L97.5469 544.722C98.3328 542.203 99.1327 539.686 99.9449 537.173L99.4692 537.019ZM94.7533 552.136C93.9916 554.673 93.2455 557.21 92.5165 559.745L92.997 559.883C93.7254 557.35 94.471 554.815 95.2321 552.28L94.7533 552.136ZM90.3756 567.371C89.6778 569.92 88.9989 572.465 88.3406 575.007L88.8246 575.132C89.4824 572.593 90.1607 570.049 90.8579 567.503L90.3756 567.371ZM86.4043 582.717C85.781 585.282 85.1804 587.84 84.6042 590.391L85.0919 590.501C85.6675 587.953 86.2675 585.397 86.8901 582.835L86.4043 582.717ZM82.9189 598.171C82.3813 600.766 81.8711 603.352 81.3899 605.926L81.8814 606.018C82.362 603.447 82.8716 600.865 83.4085 598.273L82.9189 598.171ZM80.0161 613.731C79.5826 616.361 79.182 618.977 78.8161 621.577L79.3112 621.647C79.6765 619.051 80.0765 616.439 80.5094 613.813L80.0161 613.731ZM77.8172 629.396C77.5124 632.06 77.2471 634.706 77.0236 637.33L77.5218 637.372C77.7449 634.753 78.0097 632.112 78.314 629.453L77.8172 629.396ZM76.4797 645.156C76.3361 647.849 76.2404 650.517 76.195 653.157L76.695 653.166C76.7402 650.532 76.8357 647.869 76.979 645.182L76.4797 645.156ZM76.2125 660.995C76.2729 663.696 76.3911 666.365 76.5699 668.999L77.0688 668.965C76.8905 666.339 76.7726 663.678 76.7123 660.984L76.2125 660.995ZM77.2925 676.805C77.6102 679.489 77.9976 682.132 78.458 684.729L78.9503 684.642C78.4917 682.054 78.1057 679.421 77.7891 676.746L77.2925 676.805ZM80.0694 692.418C80.707 695.035 81.4279 697.6 82.2358 700.109L82.7117 699.956C81.9077 697.459 81.1901 694.906 80.5552 692.3L80.0694 692.418ZM84.9469 707.52C85.9647 709.988 87.0791 712.393 88.2941 714.73L88.7378 714.5C87.5298 712.176 86.4215 709.784 85.4091 707.329L84.9469 707.52ZM92.2667 721.572C93.7033 723.795 95.2467 725.945 96.9013 728.018L97.2921 727.706C95.6481 725.646 94.1143 723.51 92.6867 721.301L92.2667 721.572ZM102.132 733.932C103.978 735.817 105.935 737.624 108.007 739.35L108.327 738.966C106.268 737.251 104.323 735.455 102.489 733.582L102.132 733.932ZM114.26 744.065C116.434 745.548 118.713 746.953 121.103 748.279L121.345 747.842C118.969 746.523 116.703 745.126 114.542 743.652L114.26 744.065ZM128.06 751.771C130.462 752.858 132.962 753.874 135.56 754.817L135.731 754.347C133.144 753.408 130.657 752.397 128.266 751.315L128.06 751.771ZM142.9 757.206C145.43 757.94 148.044 758.612 150.745 759.219L150.854 758.731C148.164 758.126 145.559 757.457 143.039 756.726L142.9 757.206ZM158.344 760.717C160.896 761.153 163.518 761.536 166.211 761.864L166.271 761.368C163.586 761.04 160.972 760.659 158.428 760.224L158.344 760.717ZM174.196 762.663C176.708 762.861 179.277 763.015 181.905 763.125L181.925 762.626C179.304 762.516 176.741 762.362 174.236 762.164L174.196 762.663ZM189.962 763.32C191.335 763.33 192.722 763.329 194.124 763.316L194.12 762.816C192.72 762.829 191.336 762.83 189.966 762.82L189.962 763.32ZM194.124 763.316C195.383 763.305 196.651 763.27 197.93 763.213L197.908 762.713C196.635 762.77 195.372 762.805 194.12 762.816L194.124 763.316ZM205.726 762.6C208.365 762.307 211.044 761.925 213.763 761.458L213.678 760.965C210.969 761.431 208.3 761.811 205.671 762.103L205.726 762.6ZM221.695 759.877C224.166 759.32 226.666 758.697 229.197 758.01L229.066 757.528C226.542 758.213 224.048 758.834 221.585 759.389L221.695 759.877ZM236.876 755.761C239.466 754.949 242.084 754.074 244.73 753.139L244.564 752.668C241.923 753.601 239.31 754.474 236.727 755.284L236.876 755.761ZM252.036 750.434C254.432 749.507 256.85 748.534 259.29 747.515L259.097 747.054C256.661 748.071 254.247 749.042 251.856 749.968L252.036 750.434ZM266.674 744.324C269.156 743.216 271.66 742.063 274.185 740.867L273.971 740.416C271.449 741.61 268.949 742.761 266.47 743.867L266.674 744.324ZM281.212 737.456C283.516 736.311 285.837 735.132 288.173 733.92L287.943 733.476C285.609 734.687 283.291 735.865 280.99 737.009L281.212 737.456ZM295.233 730.185C297.602 728.908 299.987 727.598 302.388 726.257L302.144 725.82C299.745 727.16 297.362 728.469 294.995 729.745L295.233 730.185ZM309.429 722.26C311.646 720.982 313.875 719.678 316.118 718.35L315.863 717.92C313.622 719.247 311.394 720.55 309.18 721.826L309.429 722.26ZM322.882 714.292C325.149 712.915 327.429 711.513 329.721 710.088L329.457 709.663C327.166 711.088 324.888 712.488 322.622 713.864L322.882 714.292ZM336.633 705.743C338.874 704.319 341.126 702.874 343.388 701.408L343.117 700.989C340.855 702.454 338.605 703.898 336.365 705.321L336.633 705.743ZM349.905 697.149C352.087 695.711 354.279 694.254 356.481 692.779L356.203 692.363C354.002 693.838 351.811 695.294 349.63 696.732L349.905 697.149ZM363.116 688.299C365.337 686.788 367.568 685.26 369.808 683.714L369.524 683.302C367.285 684.847 365.055 686.375 362.835 687.886L363.116 688.299ZM376.496 679.068C378.611 677.59 380.733 676.098 382.863 674.591L382.574 674.183C380.445 675.689 378.323 677.181 376.21 678.659L376.496 679.068ZM389.277 670.028C391.423 668.494 393.577 666.945 395.738 665.383L395.446 664.978C393.285 666.539 391.132 668.087 388.986 669.622L389.277 670.028ZM402.246 660.658C404.422 659.07 406.607 657.469 408.798 655.855L408.502 655.452C406.311 657.066 404.127 658.666 401.951 660.254L402.246 660.658ZM415.224 651.104C417.312 649.554 419.407 647.992 421.508 646.42L421.209 646.02C419.108 647.592 417.014 649.152 414.926 650.702L415.224 651.104ZM427.831 641.674C429.945 640.081 432.065 638.478 434.191 636.866L433.889 636.467C431.763 638.08 429.644 639.682 427.53 641.274L427.831 641.674ZM440.588 631.999C442.727 630.367 444.871 628.725 447.022 627.075L446.717 626.678C444.567 628.328 442.423 629.97 440.285 631.601L440.588 631.999ZM453.346 622.207C455.414 620.612 457.487 619.008 459.565 617.397L459.258 617.001C457.181 618.613 455.108 620.216 453.041 621.811L453.346 622.207ZM465.815 612.539C467.903 610.913 469.997 609.279 472.095 607.637L471.787 607.244C469.689 608.885 467.596 610.519 465.507 612.145L465.815 612.539ZM478.406 602.692C480.514 601.037 482.627 599.375 484.745 597.706L484.436 597.313C482.318 598.982 480.205 600.644 478.097 602.299L478.406 602.692ZM491.055 592.727C493.109 591.104 495.167 589.475 497.229 587.84L496.919 587.448C494.857 589.083 492.799 590.712 490.745 592.335L491.055 592.727ZM503.429 582.92C505.5 581.274 507.575 579.623 509.654 577.967L509.343 577.576C507.264 579.232 505.189 580.883 503.118 582.528L503.429 582.92ZM515.903 572.985C517.991 571.319 520.082 569.649 522.177 567.974L521.865 567.584C519.77 569.258 517.679 570.929 515.592 572.594L515.903 572.985ZM528.474 562.936C530.532 561.288 532.594 559.636 534.66 557.98L534.347 557.59C532.282 559.246 530.22 560.898 528.161 562.546L528.474 562.936ZM540.834 553.028C542.895 551.374 544.96 549.716 547.028 548.055L546.715 547.665C544.647 549.326 542.582 550.984 540.521 552.638L540.834 553.028ZM553.243 543.062C555.318 541.395 557.396 539.725 559.477 538.052L559.164 537.662C557.083 539.335 555.005 541.005 552.93 542.673L553.243 543.062ZM565.73 533.025C567.812 531.352 569.896 529.676 571.984 527.997L571.671 527.608C569.583 529.286 567.498 530.962 565.417 532.635L565.73 533.025ZM578.157 523.036C580.217 521.38 582.28 519.723 584.346 518.063L584.033 517.673C581.967 519.333 579.904 520.991 577.843 522.646L578.157 523.036ZM590.552 513.08C592.623 511.418 594.697 509.754 596.773 508.088L596.461 507.698C594.384 509.364 592.31 511.028 590.239 512.69L590.552 513.08ZM603.01 503.089C605.092 501.422 607.176 499.754 609.262 498.085L608.95 497.694C606.863 499.363 604.779 501.032 602.698 502.699L603.01 503.089ZM615.502 493.096C617.57 491.445 619.64 489.792 621.712 488.14L621.4 487.749C619.328 489.402 617.258 491.054 615.19 492.706L615.502 493.096ZM627.935 483.182C630.012 481.529 632.09 479.876 634.171 478.223L633.86 477.832C631.779 479.485 629.7 481.137 627.624 482.79L627.935 483.182ZM640.419 473.266C642.503 471.614 644.59 469.962 646.678 468.311L646.368 467.919C644.28 469.57 642.193 471.222 640.108 472.874L640.419 473.266ZM652.949 463.36C655.037 461.714 657.126 460.069 659.218 458.425L658.908 458.032C656.817 459.676 654.728 461.322 652.64 462.968L652.949 463.36ZM665.484 453.506C667.575 451.867 669.667 450.23 671.761 448.594L671.453 448.2C669.359 449.836 667.267 451.474 665.176 453.112L665.484 453.506ZM678.047 443.692C680.143 442.06 682.242 440.429 684.341 438.801L684.035 438.406C681.935 440.034 679.836 441.665 677.74 443.298L678.047 443.692ZM690.644 433.921C692.746 432.297 694.85 430.675 696.955 429.055L696.65 428.659C694.545 430.279 692.441 431.901 690.338 433.526L690.644 433.921ZM703.285 424.194C705.399 422.575 707.514 420.958 709.629 419.344L709.326 418.946C707.21 420.561 705.095 422.177 702.981 423.797L703.285 424.194ZM715.98 414.512C718.098 412.904 720.217 411.299 722.337 409.698L722.035 409.299C719.915 410.901 717.796 412.505 715.678 414.113L715.98 414.512ZM728.699 404.905C730.82 403.311 732.942 401.72 735.066 400.133L734.766 399.733C732.643 401.32 730.52 402.911 728.398 404.505L728.699 404.905ZM741.437 395.385C743.579 393.794 745.721 392.206 747.864 390.623L747.567 390.221C745.424 391.804 743.281 393.392 741.139 394.984L741.437 395.385ZM754.307 385.878C756.455 384.301 758.604 382.729 760.753 381.161L760.458 380.757C758.309 382.325 756.16 383.898 754.011 385.475L754.307 385.878ZM767.202 376.474C769.352 374.916 771.502 373.363 773.652 371.816L773.36 371.41C771.209 372.958 769.059 374.511 766.908 376.069L767.202 376.474ZM780.105 367.191C782.257 365.654 784.409 364.123 786.561 362.597L786.272 362.189C784.12 363.715 781.967 365.247 779.815 366.784L780.105 367.191ZM793.124 357.964C795.312 356.425 797.5 354.893 799.688 353.367L799.402 352.957C797.213 354.483 795.025 356.016 792.837 357.555L793.124 357.964ZM806.251 348.81C808.438 347.298 810.626 345.792 812.813 344.293L812.53 343.881C810.343 345.38 808.155 346.886 805.966 348.399L806.251 348.81ZM819.374 339.818C821.561 338.334 823.747 336.857 825.933 335.387L825.654 334.972C823.468 336.442 821.28 337.92 819.093 339.405L819.374 339.818ZM832.544 330.964C834.781 329.475 837.017 327.994 839.253 326.522L838.978 326.104C836.742 327.577 834.505 329.058 832.267 330.548L832.544 330.964ZM845.958 322.13C848.193 320.674 850.427 319.228 852.66 317.79L852.389 317.369C850.155 318.808 847.921 320.255 845.685 321.711L845.958 322.13ZM859.356 313.503C861.588 312.083 863.818 310.672 866.048 309.271L865.782 308.848C863.551 310.249 861.32 311.661 859.088 313.081L859.356 313.503ZM872.733 305.095C875.017 303.678 877.3 302.271 879.581 300.875L879.32 300.448C877.038 301.845 874.754 303.253 872.47 304.671L872.733 305.095ZM886.456 296.697C888.747 295.315 891.036 293.943 893.323 292.583L893.068 292.153C890.779 293.514 888.489 294.886 886.198 296.268L886.456 296.697ZM900.182 288.537C902.467 287.199 904.75 285.873 907.032 284.559L906.782 284.126C904.499 285.441 902.215 286.767 899.929 288.105L900.182 288.537ZM913.872 280.652C916.192 279.337 918.511 278.035 920.828 276.746L920.585 276.309C918.267 277.599 915.947 278.901 913.625 280.217L913.872 280.652ZM927.898 272.848C930.252 271.563 932.605 270.291 934.955 269.032L934.719 268.592C932.368 269.85 930.014 271.123 927.658 272.41L927.898 272.848ZM942 265.3C944.346 264.069 946.689 262.853 949.03 261.652L948.802 261.207C946.46 262.409 944.115 263.626 941.768 264.857L942 265.3ZM956.047 258.092C958.423 256.9 960.797 255.723 963.168 254.562L962.948 254.113C960.576 255.274 958.2 256.452 955.823 257.645L956.047 258.092ZM970.453 251.04C972.878 249.883 975.3 248.743 977.719 247.62L977.509 247.166C975.088 248.29 972.664 249.431 970.238 250.589L970.453 251.04ZM984.967 244.303C987.38 243.215 989.79 242.145 992.196 241.092L991.995 240.634C989.587 241.687 987.176 242.759 984.762 243.847L984.967 244.303ZM999.404 237.989C1001.87 236.946 1004.32 235.923 1006.78 234.919L1006.59 234.456C1004.13 235.461 1001.67 236.485 999.209 237.529L999.404 237.989ZM1014.29 231.906C1016.79 230.923 1019.28 229.96 1021.77 229.019L1021.59 228.552C1019.1 229.493 1016.6 230.457 1014.1 231.441L1014.29 231.906ZM1029.23 226.261C1031.71 225.363 1034.18 224.487 1036.66 223.633L1036.49 223.161C1034.02 224.015 1031.54 224.892 1029.06 225.791L1029.23 226.261ZM1044.06 221.139C1046.64 220.291 1049.22 219.467 1051.79 218.669L1051.65 218.192C1049.07 218.99 1046.49 219.815 1043.9 220.664L1044.06 221.139ZM1059.51 216.348C1062.08 215.6 1064.64 214.878 1067.19 214.182L1067.06 213.7C1064.5 214.396 1061.94 215.119 1059.37 215.868L1059.51 216.348ZM1074.84 212.176C1077.38 211.534 1079.92 210.919 1082.45 210.331L1082.34 209.844C1079.8 210.432 1077.26 211.048 1074.72 211.691L1074.84 212.176ZM1090.28 208.599C1092.92 208.042 1095.56 207.516 1098.19 207.021L1098.1 206.53C1095.46 207.025 1092.82 207.552 1090.17 208.11L1090.28 208.599ZM1106.06 205.631C1108.68 205.2 1111.29 204.801 1113.89 204.434L1113.82 203.939C1111.22 204.306 1108.6 204.706 1105.98 205.138L1106.06 205.631ZM1121.68 203.431C1124.33 203.122 1126.98 202.848 1129.62 202.609L1129.57 202.111C1126.93 202.35 1124.28 202.625 1121.62 202.935L1121.68 203.431ZM1137.64 201.99C1140.31 201.821 1142.97 201.69 1145.62 201.596L1145.6 201.096C1142.95 201.19 1140.28 201.322 1137.61 201.491L1137.64 201.99ZM1153.54 201.43C1156.17 201.413 1158.79 201.434 1161.41 201.495L1161.42 200.996C1158.8 200.934 1156.17 200.913 1153.54 200.93L1153.54 201.43ZM1169.39 201.806C1172.07 201.952 1174.73 202.141 1177.38 202.373L1177.42 201.875C1174.77 201.643 1172.1 201.454 1169.42 201.307L1169.39 201.806ZM1185.3 203.198C1187.93 203.517 1190.55 203.88 1193.16 204.287L1193.24 203.793C1190.62 203.385 1188 203.022 1185.36 202.702L1185.3 203.198ZM1200.96 205.643C1203.57 206.144 1206.16 206.692 1208.75 207.286L1208.86 206.798C1206.27 206.203 1203.67 205.654 1201.05 205.152L1200.96 205.643ZM1216.47 209.209C1219.03 209.897 1221.58 210.633 1224.12 211.416L1224.27 210.939C1221.72 210.153 1219.17 209.416 1216.6 208.726L1216.47 209.209ZM1231.7 213.913C1234.19 214.788 1236.68 215.71 1239.15 216.682L1239.33 216.217C1236.85 215.243 1234.36 214.318 1231.86 213.442L1231.7 213.913ZM1246.43 219.704C1248.84 220.76 1251.24 221.863 1253.63 223.016L1253.85 222.566C1251.46 221.41 1249.05 220.304 1246.63 219.246L1246.43 219.704ZM1260.76 226.623C1263.13 227.875 1265.48 229.177 1267.82 230.529L1268.07 230.096C1265.72 228.741 1263.37 227.436 1261 226.181L1260.76 226.623ZM1274.58 234.601C1276.77 235.979 1278.96 237.402 1281.13 238.873L1281.41 238.459C1279.23 236.985 1277.04 235.558 1274.84 234.177L1274.58 234.601ZM1287.61 243.426C1289.76 244.991 1291.9 246.603 1294.02 248.262L1294.33 247.868C1292.2 246.205 1290.06 244.59 1287.91 243.022L1287.61 243.426ZM1300.35 253.386C1302.35 255.06 1304.34 256.777 1306.31 258.539L1306.65 258.166C1304.67 256.4 1302.68 254.68 1300.67 253.003L1300.35 253.386ZM1312.02 263.788C1313.92 265.581 1315.8 267.415 1317.67 269.292L1318.02 268.939C1316.15 267.059 1314.26 265.221 1312.37 263.425L1312.02 263.788ZM1323.24 275.052C1325.09 277.015 1326.93 279.022 1328.75 281.072L1329.12 280.74C1327.3 278.686 1325.46 276.676 1323.61 274.71L1323.24 275.052ZM1334.08 287.233C1335.71 289.165 1337.33 291.134 1338.94 293.139L1339.33 292.826C1337.72 290.818 1336.1 288.846 1334.47 286.91L1334.08 287.233ZM1343.74 299.264C1345.33 301.343 1346.91 303.458 1348.48 305.61L1348.88 305.316C1347.31 303.16 1345.73 301.042 1344.14 298.961L1343.74 299.264ZM1353.15 312.18C1354.7 314.407 1356.24 316.671 1357.77 318.974L1358.19 318.697C1356.66 316.392 1355.12 314.124 1353.56 311.894L1353.15 312.18ZM1362.22 325.838C1363.57 327.961 1364.91 330.115 1366.24 332.3L1366.67 332.04C1365.34 329.853 1364 327.696 1362.65 325.57L1362.22 325.838ZM1370.21 338.946C1371.52 341.193 1372.83 343.47 1374.12 345.779L1374.56 345.534C1373.26 343.223 1371.96 340.943 1370.64 338.694L1370.21 338.946ZM1377.99 352.798C1379.27 355.169 1380.54 357.572 1381.8 360.006L1382.24 359.776C1380.98 357.339 1379.71 354.934 1378.43 352.56L1377.99 352.798ZM1385.56 367.404C1386.18 368.652 1386.8 369.909 1387.42 371.173L1387.87 370.953C1387.25 369.688 1386.63 368.431 1386.01 367.181L1385.56 367.404ZM962.296 1028.43C962.755 1027.13 963.216 1025.83 963.677 1024.54L963.207 1024.37C962.745 1025.66 962.284 1026.96 961.825 1028.26L962.296 1028.43ZM966.466 1016.9C967.401 1014.39 968.341 1011.9 969.288 1009.44L968.821 1009.26C967.874 1011.72 966.933 1014.21 965.997 1016.73L966.466 1016.9ZM972.276 1001.82C973.282 999.302 974.295 996.815 975.314 994.359L974.853 994.167C973.833 996.625 972.819 999.115 971.811 1001.64L972.276 1001.82ZM978.46 986.925C979.545 984.411 980.636 981.932 981.735 979.488L981.279 979.283C980.179 981.73 979.087 984.211 978.001 986.727L978.46 986.925ZM985.066 972.224C986.235 969.726 987.412 967.267 988.597 964.844L988.148 964.625C986.962 967.05 985.784 969.512 984.613 972.012L985.066 972.224ZM992.173 957.689C993.426 955.238 994.687 952.827 995.956 950.457L995.515 950.221C994.244 952.594 992.982 955.007 991.728 957.461L992.173 957.689ZM999.815 943.416C1001.16 941.024 1002.51 938.675 1003.87 936.369L1003.44 936.115C1002.08 938.424 1000.72 940.776 999.379 943.171L999.815 943.416ZM1008.04 929.491C1009.48 927.163 1010.94 924.881 1012.41 922.645L1011.99 922.371C1010.52 924.61 1009.06 926.895 1007.61 929.227L1008.04 929.491ZM1016.9 915.986C1018.46 913.731 1020.04 911.527 1021.63 909.372L1021.23 909.076C1019.64 911.234 1018.06 913.442 1016.49 915.701L1016.9 915.986ZM1026.47 902.996C1028.17 900.83 1029.88 898.719 1031.6 896.663L1031.22 896.342C1029.49 898.402 1027.78 900.518 1026.08 902.688L1026.47 902.996ZM1036.86 890.592C1038.69 888.555 1040.53 886.576 1042.39 884.656L1042.03 884.308C1040.17 886.233 1038.32 888.216 1036.49 890.258L1036.86 890.592ZM1048.11 878.956C1050.07 877.08 1052.04 875.267 1054.03 873.515L1053.7 873.139C1051.71 874.896 1049.73 876.714 1047.77 878.595L1048.11 878.956ZM1060.24 868.282C1062.35 866.579 1064.48 864.942 1066.62 863.37L1066.33 862.967C1064.18 864.543 1062.04 866.185 1059.92 867.893L1060.24 868.282ZM1073.24 858.76C1075.51 857.26 1077.8 855.83 1080.1 854.468L1079.85 854.037C1077.54 855.403 1075.24 856.838 1072.97 858.343L1073.24 858.76ZM1087.15 850.546C1089.54 849.293 1091.96 848.111 1094.39 846.998L1094.18 846.543C1091.74 847.66 1089.32 848.846 1086.92 850.103L1087.15 850.546ZM1101.83 843.834C1104.34 842.846 1106.87 841.928 1109.41 841.08L1109.26 840.606C1106.7 841.456 1104.16 842.377 1101.65 843.369L1101.83 843.834ZM1117.14 838.736C1119.73 838.024 1122.35 837.381 1124.98 836.805L1124.87 836.317C1122.23 836.894 1119.61 837.54 1117.01 838.254L1117.14 838.736ZM1132.9 835.285C1135.55 834.846 1138.22 834.473 1140.9 834.163L1140.85 833.667C1138.15 833.977 1135.48 834.351 1132.82 834.791L1132.9 835.285ZM1148.95 833.432C1151.62 833.252 1154.3 833.133 1157 833.073L1156.99 832.573C1154.28 832.633 1151.59 832.753 1148.91 832.933L1148.95 833.432ZM1165.09 833.068C1167.76 833.123 1170.46 833.234 1173.17 833.399L1173.2 832.9C1170.48 832.734 1167.78 832.623 1165.1 832.568L1165.09 833.068ZM1181.2 834.04C1183.86 834.303 1186.54 834.616 1189.24 834.978L1189.31 834.483C1186.6 834.12 1183.92 833.806 1181.25 833.543L1181.2 834.04ZM1197.23 836.188C1199.86 836.63 1202.5 837.116 1205.16 837.647L1205.26 837.156C1202.6 836.625 1199.95 836.138 1197.31 835.695L1197.23 836.188ZM1213.09 839.35C1215.69 839.945 1218.3 840.581 1220.92 841.256L1221.04 840.772C1218.42 840.096 1215.8 839.459 1213.21 838.862L1213.09 839.35ZM1228.72 843.369C1231.3 844.1 1233.89 844.868 1236.49 845.671L1236.64 845.193C1234.03 844.389 1231.44 843.62 1228.86 842.888L1228.72 843.369ZM1244.16 848.131C1246.71 848.978 1249.28 849.859 1251.86 850.772L1252.02 850.301C1249.44 849.386 1246.88 848.505 1244.32 847.656L1244.16 848.131ZM1259.4 853.526C1261.92 854.469 1264.44 855.441 1266.98 856.442L1267.16 855.977C1264.62 854.975 1262.1 854.002 1259.58 853.058L1259.4 853.526ZM1274.45 859.463C1276.93 860.487 1279.41 861.537 1281.91 862.614L1282.11 862.155C1279.61 861.077 1277.12 860.026 1274.64 859.001L1274.45 859.463ZM1289.31 865.863C1291.75 866.957 1294.21 868.075 1296.67 869.217L1296.88 868.763C1294.41 867.62 1291.96 866.501 1289.51 865.406L1289.31 865.863ZM1303.98 872.66C1305.21 873.245 1306.43 873.836 1307.66 874.432L1307.88 873.982C1306.65 873.386 1305.42 872.794 1304.2 872.209L1303.98 872.66ZM1307.66 874.432C1308.91 875.037 1310.15 875.615 1311.39 876.164L1311.59 875.707C1310.36 875.16 1309.12 874.585 1307.88 873.982L1307.66 874.432ZM1318.71 879.13C1321.26 880.056 1323.77 880.863 1326.26 881.553L1326.4 881.072C1323.92 880.385 1321.42 879.582 1318.89 878.661L1318.71 879.13ZM1333.92 883.333C1336.59 883.83 1339.22 884.192 1341.82 884.423L1341.86 883.925C1339.28 883.696 1336.66 883.336 1334.01 882.841L1333.92 883.333ZM1349.67 884.723C1352.35 884.688 1355 884.509 1357.6 884.194L1357.54 883.697C1354.95 884.011 1352.33 884.188 1349.66 884.223L1349.67 884.723ZM1365.39 882.819C1367.97 882.218 1370.5 881.48 1373 880.611L1372.83 880.139C1370.36 881.002 1367.84 881.735 1365.28 882.332L1365.39 882.819ZM1380.32 877.627C1382.7 876.518 1385.03 875.287 1387.33 873.94L1387.07 873.509C1384.79 874.848 1382.47 876.072 1380.11 877.174L1380.32 877.627ZM1394 869.613C1396.12 868.11 1398.19 866.506 1400.23 864.805L1399.91 864.421C1397.88 866.114 1395.81 867.71 1393.71 869.206L1394 869.613ZM1406.16 859.5C1408.03 857.701 1409.87 855.819 1411.68 853.857L1411.31 853.519C1409.51 855.472 1407.68 857.347 1405.81 859.139L1406.16 859.5ZM1416.88 847.888C1418.54 845.87 1420.17 843.784 1421.77 841.633L1421.37 841.334C1419.77 843.479 1418.15 845.559 1416.49 847.57L1416.88 847.888ZM1426.32 835.204C1427.8 833.029 1429.24 830.798 1430.65 828.515L1430.23 828.252C1428.82 830.529 1427.38 832.754 1425.91 834.923L1426.32 835.204ZM1434.67 821.755C1435.97 819.469 1437.24 817.137 1438.49 814.763L1438.05 814.53C1436.8 816.9 1435.53 819.227 1434.23 821.508L1434.67 821.755ZM1442.04 807.753C1443.2 805.387 1444.32 802.984 1445.43 800.546L1444.97 800.34C1443.87 802.773 1442.74 805.172 1441.59 807.534L1442.04 807.753ZM1448.58 793.337C1449.6 790.913 1450.6 788.459 1451.57 785.977L1451.11 785.794C1450.13 788.272 1449.14 790.723 1448.12 793.143L1448.58 793.337ZM1454.37 778.605C1455.27 776.137 1456.15 773.645 1457.01 771.132L1456.54 770.97C1455.68 773.48 1454.8 775.969 1453.9 778.433L1454.37 778.605ZM1459.49 763.626C1460.28 761.124 1461.06 758.603 1461.81 756.065L1461.33 755.922C1460.58 758.457 1459.81 760.975 1459.01 763.475L1459.49 763.626ZM1463.99 748.453C1464.69 745.922 1465.37 743.376 1466.03 740.819L1465.55 740.694C1464.89 743.249 1464.21 745.792 1463.51 748.32L1463.99 748.453ZM1467.94 733.125C1468.55 730.569 1469.13 728.002 1469.7 725.427L1469.21 725.319C1468.65 727.892 1468.06 730.456 1467.45 733.009L1467.94 733.125ZM1471.34 717.678C1471.87 715.098 1472.37 712.51 1472.85 709.918L1472.36 709.827C1471.88 712.416 1471.38 715.001 1470.85 717.579L1471.34 717.678ZM1474.24 702.132C1474.68 699.529 1475.1 696.924 1475.5 694.317L1475 694.242C1474.6 696.845 1474.18 699.448 1473.74 702.048L1474.24 702.132ZM1476.63 686.493C1476.99 683.875 1477.33 681.259 1477.65 678.645L1477.15 678.585C1476.84 681.196 1476.5 683.81 1476.14 686.425L1476.63 686.493ZM1478.54 670.781C1478.81 668.155 1479.07 665.535 1479.3 662.921L1478.8 662.877C1478.57 665.488 1478.32 668.106 1478.04 670.729L1478.54 670.781ZM1479.94 655.016C1480.13 652.388 1480.3 649.769 1480.45 647.161L1479.95 647.133C1479.8 649.738 1479.63 652.354 1479.44 654.98L1479.94 655.016ZM1480.83 639.214C1480.93 636.578 1481.01 633.956 1481.07 631.35L1480.57 631.339C1480.51 633.942 1480.43 636.562 1480.33 639.195L1480.83 639.214ZM1481.17 623.393C1481.18 620.75 1481.16 618.125 1481.12 615.523L1480.62 615.53C1480.66 618.13 1480.68 620.751 1480.67 623.391L1481.17 623.393ZM1480.92 607.57C1480.83 604.923 1480.71 602.302 1480.56 599.709L1480.06 599.737C1480.21 602.327 1480.33 604.945 1480.42 607.588L1480.92 607.57ZM1480.02 591.769C1479.81 589.126 1479.57 586.517 1479.3 583.945L1478.8 583.997C1479.07 586.565 1479.31 589.17 1479.52 591.808L1480.02 591.769ZM1478.36 576.023C1478.01 573.4 1477.63 570.82 1477.22 568.288L1476.73 568.368C1477.14 570.896 1477.52 573.47 1477.87 576.089L1478.36 576.023ZM1475.8 560.401C1475.28 557.78 1474.72 555.218 1474.13 552.72L1473.64 552.836C1474.24 555.328 1474.79 557.883 1475.31 560.498L1475.8 560.401ZM1472.12 545.034C1471.37 542.421 1470.57 539.891 1469.73 537.452L1469.26 537.615C1470.1 540.046 1470.89 542.567 1471.64 545.172L1472.12 545.034ZM1466.95 530.125C1465.89 527.595 1464.77 525.186 1463.59 522.907L1463.14 523.137C1464.32 525.403 1465.43 527.8 1466.48 530.319L1466.95 530.125ZM1459.58 516.021C1458.86 514.927 1458.12 513.874 1457.36 512.865L1456.96 513.165C1457.71 514.166 1458.44 515.21 1459.16 516.296L1459.58 516.021Z" fill="white" fill-opacity="0.3"/>
<g filter="url(#filter1_d_192_11)">
<path d="M202.761 277.728L164.327 342.207L98.81 305.611L137.244 241.133L202.761 277.728Z" fill="#3E4957" fill-opacity="0.25" shape-rendering="crispEdges"/>
<path d="M197.301 274.678L200.941 276.711L200.88 276.82L202.588 277.774L201.586 279.455L201.693 279.519L199.558 283.101L199.451 283.037L197.315 286.619L197.423 286.683L195.288 290.265L195.18 290.201L193.045 293.783L193.152 293.847L191.017 297.43L190.91 297.366L188.774 300.948L188.882 301.012L186.747 304.594L186.639 304.53L184.504 308.112L184.611 308.176L182.476 311.758L182.369 311.694L180.234 315.276L180.341 315.34L178.206 318.923L178.098 318.859L175.963 322.441L176.07 322.505L173.935 326.087L173.828 326.023L171.693 329.605L171.8 329.669L169.665 333.251L169.557 333.187L167.422 336.769L167.53 336.833L165.394 340.415L165.287 340.351L164.282 342.038L162.568 341.081L162.507 341.19L158.867 339.157L158.928 339.048L155.288 337.015L155.227 337.124L151.587 335.091L151.648 334.982L148.008 332.949L147.948 333.058L144.308 331.025L144.369 330.916L140.729 328.882L140.668 328.992L137.028 326.959L137.089 326.849L133.449 324.816L133.388 324.925L129.748 322.892L129.809 322.783L126.17 320.75L126.109 320.859L122.469 318.826L122.53 318.717L118.89 316.684L118.829 316.793L115.189 314.76L115.25 314.651L111.61 312.618L111.549 312.727L107.909 310.694L107.97 310.585L104.331 308.552L104.27 308.661L100.63 306.628L100.691 306.519L98.9831 305.565L99.9849 303.884L99.8776 303.82L102.013 300.238L102.12 300.302L104.255 296.72L104.148 296.656L106.283 293.074L106.391 293.138L108.526 289.556L108.418 289.492L110.554 285.91L110.661 285.974L112.796 282.391L112.689 282.327L114.824 278.745L114.932 278.809L117.067 275.227L116.959 275.163L119.095 271.581L119.202 271.645L121.337 268.063L121.23 267.999L123.365 264.417L123.472 264.481L125.608 260.899L125.5 260.835L127.636 257.252L127.743 257.316L129.878 253.734L129.771 253.67L131.906 250.088L132.013 250.152L134.149 246.57L134.041 246.506L136.176 242.924L136.284 242.988L137.289 241.301L139.003 242.258L139.064 242.149L142.704 244.182L142.643 244.291L146.283 246.325L146.344 246.215L149.983 248.248L149.922 248.358L153.562 250.391L153.623 250.281L157.263 252.315L157.202 252.424L160.842 254.457L160.903 254.348L164.543 256.381L164.482 256.49L168.122 258.523L168.183 258.414L171.822 260.447L171.761 260.556L175.401 262.589L175.462 262.48L179.102 264.513L179.041 264.622L182.681 266.655L182.742 266.546L186.382 268.579L186.321 268.688L189.96 270.721L190.021 270.612L193.661 272.645L193.6 272.754L197.24 274.787L197.301 274.678Z" stroke="#E8D7AB" stroke-opacity="0.5" stroke-width="0.25" stroke-dasharray="4 4" shape-rendering="crispEdges"/>
</g>
<defs>
<filter id="filter0_d_192_11" x="1381.32" y="402.162" width="82.0044" height="89.8506" filterUnits="userSpaceOnUse" color-interpolation-filters="sRGB">
<feFlood flood-opacity="0" result="BackgroundImageFix"/>
<feColorMatrix in="SourceAlpha" type="matrix" values="0 0 0 0 0 0 0 0 0 0 0 0 0 0 0 0 0 0 127 0" result="hardAlpha"/>
<feOffset dx="3" dy="8"/>
<feComposite in2="hardAlpha" operator="out"/>
<feColorMatrix type="matrix" values="0 0 0 0 0.0705882 0 0 0 0 0.0862745 0 0 0 0 0.105882 0 0 0 1 0"/>
<feBlend mode="normal" in2="BackgroundImageFix" result="effect1_dropShadow_192_11"/>
<feBlend mode="normal" in="SourceGraphic" in2="effect1_dropShadow_192_11" result="shape"/>
</filter>
<filter id="filter1_d_192_11" x="98.8101" y="241.133" width="105.951" height="105.074" filterUnits="userSpaceOnUse" color-interpolation-filters="sRGB">
<feFlood flood-opacity="0" result="BackgroundImageFix"/>
<feColorMatrix in="SourceAlpha" type="matrix" values="0 0 0 0 0 0 0 0 0 0 0 0 0 0 0 0 0 0 127 0" result="hardAlpha"/>
<feOffset dx="2" dy="4"/>
<feComposite in2="hardAlpha" operator="out"/>
<feColorMatrix type="matrix" values="0 0 0 0 0.08245 0 0 0 0 0.0993436 0 0 0 0 0.1275 0 0 0 1 0"/>
<feBlend mode="normal" in2="BackgroundImageFix" result="effect1_dropShadow_192_11"/>
<feBlend mode="normal" in="SourceGraphic" in2="effect1_dropShadow_192_11" result="shape"/>
</filter>
</defs>
</svg>
