<svg width="277" height="69" viewBox="0 0 277 69" fill="none" xmlns="http://www.w3.org/2000/svg">
<g filter="url(#filter0_d_127_151)">
<path d="M74.3424 32.4312C74.5896 32.8596 74.5896 33.3873 74.3424 33.8156L56.5157 64.702C56.2685 65.1303 55.8116 65.3942 55.3172 65.3942L19.6637 65.3942C19.1693 65.3942 18.7124 65.1303 18.4652 64.702L0.638486 33.8156C0.391266 33.3873 0.391266 32.8596 0.638486 32.4312L18.4652 1.54485C18.7124 1.11652 19.1693 0.852659 19.6637 0.852659L55.3172 0.85266C55.8116 0.85266 56.2685 1.11652 56.5157 1.54485L74.3424 32.4312Z" fill="#46556B"/>
</g>
<path d="M48.3794 20.7704L46.8657 24.5301L39.1265 40.2772L35.1226 40.5213L27.3833 24.286L26.1138 20.7704V45.7704L30.8745 46.7713V49.7743H17.3735V46.7713L21.6216 45.7704V18.7684L17.3735 17.7674V15.0331L28.6284 14.7645L37.6616 34.784L47.1099 15.0331L57.6323 14.7645V17.7674L53.3599 18.7684V45.7704L57.6323 46.7713V49.7743H43.6187V46.7713L48.3794 45.7704V20.7704Z" fill="#B3DBE6"/>
<path d="M69.9606 48.578C67.9909 48.578 66.2627 48.1092 64.776 47.1717C63.2987 46.2342 62.1434 44.9227 61.3101 43.2371C60.4862 41.5515 60.0743 39.5818 60.0743 37.328C60.0743 35.0553 60.4862 33.0714 61.3101 31.3763C62.1434 29.6812 63.2987 28.3649 64.776 27.4274C66.2627 26.4899 67.9909 26.0212 69.9606 26.0212C71.9303 26.0212 73.6538 26.4899 75.1311 27.4274C76.6178 28.3649 77.7731 29.6812 78.597 31.3763C79.4303 33.0714 79.847 35.0553 79.847 37.328C79.847 39.5818 79.4303 41.5515 78.597 43.2371C77.7731 44.9227 76.6178 46.2342 75.1311 47.1717C73.6538 48.1092 71.9303 48.578 69.9606 48.578ZM69.9606 45.5666C71.4568 45.5666 72.6879 45.1831 73.6538 44.4161C74.6197 43.649 75.3347 42.6405 75.7987 41.3905C76.2627 40.1405 76.4947 38.7863 76.4947 37.328C76.4947 35.8697 76.2627 34.5108 75.7987 33.2513C75.3347 31.9918 74.6197 30.9738 73.6538 30.1973C72.6879 29.4208 71.4568 29.0325 69.9606 29.0325C68.4644 29.0325 67.2334 29.4208 66.2674 30.1973C65.3015 30.9738 64.5866 31.9918 64.1226 33.2513C63.6585 34.5108 63.4265 35.8697 63.4265 37.328C63.4265 38.7863 63.6585 40.1405 64.1226 41.3905C64.5866 42.6405 65.3015 43.649 66.2674 44.4161C67.2334 45.1831 68.4644 45.5666 69.9606 45.5666ZM93.2028 48.578C91.3846 48.578 89.7795 48.1187 88.3875 47.2001C86.9954 46.2721 85.9064 44.9653 85.1204 43.2797C84.3344 41.5846 83.9415 39.5818 83.9415 37.2712C83.9415 34.9795 84.3344 32.9909 85.1204 31.3053C85.9064 29.6197 87.0002 28.3176 88.4017 27.399C89.8032 26.4805 91.4225 26.0212 93.2596 26.0212C94.6801 26.0212 95.8022 26.2579 96.6261 26.7314C97.4594 27.1954 98.0939 27.7257 98.5295 28.3223C98.9746 28.9094 99.3202 29.3924 99.5665 29.7712H99.8505V19.0325H103.203V48.1234H99.9642V44.7712H99.5665C99.3202 45.1689 98.9699 45.6708 98.5153 46.2769C98.0608 46.8734 97.4121 47.4085 96.5693 47.882C95.7265 48.346 94.6043 48.578 93.2028 48.578ZM93.6574 45.5666C95.0021 45.5666 96.1384 45.2162 97.0665 44.5155C97.9945 43.8053 98.7 42.8251 99.1829 41.5751C99.6659 40.3157 99.9074 38.8621 99.9074 37.2144C99.9074 35.5856 99.6706 34.1604 99.1971 32.9388C98.7236 31.7077 98.0229 30.7513 97.0949 30.0695C96.1668 29.3782 95.021 29.0325 93.6574 29.0325C92.2369 29.0325 91.0532 29.3971 90.1062 30.1263C89.1687 30.846 88.4632 31.8261 87.9897 33.0666C87.5257 34.2977 87.2937 35.6803 87.2937 37.2144C87.2937 38.7674 87.5305 40.1784 88.004 41.4473C88.4869 42.7068 89.1971 43.7106 90.1346 44.4587C91.0816 45.1973 92.2558 45.5666 93.6574 45.5666ZM118.956 48.578C116.853 48.578 115.04 48.114 113.515 47.1859C112 46.2484 110.831 44.9416 110.007 43.2655C109.192 41.5799 108.785 39.6197 108.785 37.3848C108.785 35.15 109.192 33.1803 110.007 31.4757C110.831 29.7617 111.976 28.4265 113.444 27.47C114.922 26.5041 116.645 26.0212 118.615 26.0212C119.751 26.0212 120.873 26.2106 121.981 26.5894C123.089 26.9681 124.098 27.5837 125.007 28.4359C125.916 29.2787 126.64 30.3962 127.18 31.7882C127.72 33.1803 127.99 34.8943 127.99 36.9303V38.3507H111.172V35.453H124.581C124.581 34.2219 124.334 33.1234 123.842 32.1575C123.359 31.1916 122.668 30.4293 121.768 29.8706C120.878 29.3119 119.827 29.0325 118.615 29.0325C117.28 29.0325 116.124 29.364 115.149 30.0269C114.183 30.6803 113.44 31.5325 112.919 32.5837C112.398 33.6348 112.137 34.7617 112.137 35.9644V37.8962C112.137 39.5439 112.422 40.9407 112.99 42.0865C113.567 43.2229 114.368 44.0894 115.39 44.6859C116.413 45.2731 117.601 45.5666 118.956 45.5666C119.836 45.5666 120.632 45.4435 121.342 45.1973C122.062 44.9416 122.682 44.5628 123.203 44.0609C123.724 43.5496 124.126 42.9151 124.41 42.1575L127.649 43.0666C127.308 44.1651 126.735 45.131 125.93 45.9644C125.125 46.7882 124.131 47.4322 122.947 47.8962C121.763 48.3507 120.433 48.578 118.956 48.578ZM136.441 19.0325V48.1234H133.089V19.0325H136.441ZM149.002 48.6348C147.619 48.6348 146.365 48.3744 145.238 47.8536C144.111 47.3233 143.216 46.5609 142.553 45.5666C141.89 44.5628 141.559 43.3507 141.559 41.9303C141.559 40.6803 141.805 39.667 142.297 38.8905C142.79 38.1045 143.448 37.489 144.272 37.0439C145.096 36.5988 146.005 36.2674 146.999 36.0496C148.003 35.8223 149.011 35.6424 150.025 35.5098C151.35 35.3394 152.425 35.2115 153.249 35.1263C154.082 35.0316 154.688 34.8753 155.067 34.6575C155.455 34.4397 155.65 34.0609 155.65 33.5212V33.4075C155.65 32.006 155.266 30.917 154.499 30.1405C153.741 29.364 152.591 28.9757 151.047 28.9757C149.447 28.9757 148.192 29.3261 147.283 30.0269C146.374 30.7276 145.735 31.4757 145.365 32.2712L142.184 31.1348C142.752 29.809 143.509 28.7769 144.456 28.0382C145.413 27.2901 146.454 26.7693 147.581 26.4757C148.718 26.1727 149.835 26.0212 150.934 26.0212C151.634 26.0212 152.439 26.1064 153.348 26.2769C154.267 26.4378 155.152 26.774 156.005 27.2854C156.866 27.7967 157.581 28.5685 158.15 29.6007C158.718 30.6329 159.002 32.0155 159.002 33.7484V48.1234H155.65V45.1689H155.479C155.252 45.6424 154.873 46.149 154.343 46.6888C153.812 47.2286 153.107 47.6878 152.226 48.0666C151.346 48.4454 150.271 48.6348 149.002 48.6348ZM149.513 45.6234C150.839 45.6234 151.956 45.363 152.865 44.8422C153.784 44.3214 154.475 43.649 154.939 42.8251C155.413 42.0013 155.65 41.1348 155.65 40.2257V37.1575C155.508 37.328 155.195 37.4842 154.712 37.6263C154.239 37.7589 153.689 37.8772 153.064 37.9814C152.449 38.0761 151.847 38.1613 151.26 38.2371C150.683 38.3034 150.214 38.3602 149.854 38.4075C148.983 38.5212 148.168 38.7058 147.411 38.9615C146.663 39.2077 146.057 39.5818 145.593 40.0837C145.138 40.5761 144.911 41.2484 144.911 42.1007C144.911 43.2655 145.342 44.1462 146.204 44.7428C147.075 45.3299 148.178 45.6234 149.513 45.6234ZM173.359 48.578C171.541 48.578 169.936 48.1187 168.544 47.2001C167.152 46.2721 166.063 44.9653 165.277 43.2797C164.491 41.5846 164.098 39.5818 164.098 37.2712C164.098 34.9795 164.491 32.9909 165.277 31.3053C166.063 29.6197 167.156 28.3176 168.558 27.399C169.959 26.4805 171.579 26.0212 173.416 26.0212C174.836 26.0212 175.958 26.2579 176.782 26.7314C177.616 27.1954 178.25 27.7257 178.686 28.3223C179.131 28.9094 179.476 29.3924 179.723 29.7712H180.007V19.0325H183.359V48.1234H180.12V44.7712H179.723C179.476 45.1689 179.126 45.6708 178.672 46.2769C178.217 46.8734 177.568 47.4085 176.726 47.882C175.883 48.346 174.761 48.578 173.359 48.578ZM173.814 45.5666C175.158 45.5666 176.295 45.2162 177.223 44.5155C178.151 43.8053 178.856 42.8251 179.339 41.5751C179.822 40.3157 180.064 38.8621 180.064 37.2144C180.064 35.5856 179.827 34.1604 179.353 32.9388C178.88 31.7077 178.179 30.7513 177.251 30.0695C176.323 29.3782 175.177 29.0325 173.814 29.0325C172.393 29.0325 171.209 29.3971 170.262 30.1263C169.325 30.846 168.619 31.8261 168.146 33.0666C167.682 34.2977 167.45 35.6803 167.45 37.2144C167.45 38.7674 167.687 40.1784 168.16 41.4473C168.643 42.7068 169.353 43.7106 170.291 44.4587C171.238 45.1973 172.412 45.5666 173.814 45.5666ZM198.828 48.578C196.858 48.578 195.13 48.1092 193.643 47.1717C192.166 46.2342 191.011 44.9227 190.177 43.2371C189.353 41.5515 188.941 39.5818 188.941 37.328C188.941 35.0553 189.353 33.0714 190.177 31.3763C191.011 29.6812 192.166 28.3649 193.643 27.4274C195.13 26.4899 196.858 26.0212 198.828 26.0212C200.798 26.0212 202.521 26.4899 203.998 27.4274C205.485 28.3649 206.64 29.6812 207.464 31.3763C208.298 33.0714 208.714 35.0553 208.714 37.328C208.714 39.5818 208.298 41.5515 207.464 43.2371C206.64 44.9227 205.485 46.2342 203.998 47.1717C202.521 48.1092 200.798 48.578 198.828 48.578ZM198.828 45.5666C200.324 45.5666 201.555 45.1831 202.521 44.4161C203.487 43.649 204.202 42.6405 204.666 41.3905C205.13 40.1405 205.362 38.7863 205.362 37.328C205.362 35.8697 205.13 34.5108 204.666 33.2513C204.202 31.9918 203.487 30.9738 202.521 30.1973C201.555 29.4208 200.324 29.0325 198.828 29.0325C197.332 29.0325 196.101 29.4208 195.135 30.1973C194.169 30.9738 193.454 31.9918 192.99 33.2513C192.526 34.5108 192.294 35.8697 192.294 37.328C192.294 38.7863 192.526 40.1405 192.99 41.3905C193.454 42.6405 194.169 43.649 195.135 44.4161C196.101 45.1831 197.332 45.5666 198.828 45.5666Z" fill="#69949F"/>
<path d="M234.854 48.5212C232.979 48.5212 231.308 48.1992 229.84 47.5553C228.382 46.9113 227.222 46.0164 226.36 44.8706C225.508 43.7153 225.043 42.3753 224.968 40.8507H228.547C228.623 41.7882 228.945 42.5979 229.513 43.2797C230.081 43.952 230.825 44.4729 231.743 44.8422C232.662 45.2115 233.68 45.3962 234.797 45.3962C236.047 45.3962 237.155 45.1784 238.121 44.7428C239.087 44.3072 239.845 43.7011 240.394 42.9246C240.943 42.1481 241.218 41.2484 241.218 40.2257C241.218 39.1556 240.953 38.2134 240.422 37.399C239.892 36.5751 239.115 35.9312 238.093 35.4672C237.07 35.0032 235.82 34.7712 234.343 34.7712H232.013V31.6462H234.343C235.498 31.6462 236.511 31.4378 237.383 31.0212C238.263 30.6045 238.95 30.0174 239.442 29.2598C239.944 28.5022 240.195 27.6121 240.195 26.5894C240.195 25.6045 239.977 24.7475 239.542 24.0183C239.106 23.2892 238.49 22.721 237.695 22.3138C236.909 21.9066 235.981 21.703 234.911 21.703C233.907 21.703 232.96 21.8876 232.07 22.257C231.189 22.6168 230.47 23.1424 229.911 23.8337C229.352 24.5155 229.049 25.3394 229.002 26.3053H225.593C225.65 24.7806 226.109 23.4454 226.971 22.2996C227.832 21.1443 228.959 20.2447 230.351 19.6007C231.753 18.9568 233.292 18.6348 234.968 18.6348C236.767 18.6348 238.311 18.9994 239.598 19.7286C240.886 20.4483 241.876 21.4 242.567 22.5837C243.258 23.7674 243.604 25.0458 243.604 26.4189C243.604 28.0572 243.173 29.4539 242.311 30.6092C241.459 31.7645 240.299 32.5647 238.831 33.0098V33.2371C240.668 33.5401 242.103 34.3214 243.135 35.5808C244.168 36.8308 244.684 38.3791 244.684 40.2257C244.684 41.8072 244.253 43.2276 243.391 44.4871C242.539 45.7371 241.374 46.7219 239.897 47.4416C238.419 48.1613 236.739 48.5212 234.854 48.5212ZM259.982 48.1234H251.005V19.0325H260.38C263.202 19.0325 265.616 19.6149 267.624 20.7797C269.632 21.935 271.17 23.5969 272.24 25.7655C273.311 27.9246 273.846 30.5098 273.846 33.5212C273.846 36.5515 273.306 39.1604 272.226 41.3479C271.147 43.5259 269.575 45.202 267.51 46.3763C265.446 47.5411 262.936 48.1234 259.982 48.1234ZM254.527 44.9984H259.755C262.16 44.9984 264.153 44.5344 265.735 43.6064C267.316 42.6784 268.495 41.3573 269.272 39.6433C270.048 37.9293 270.436 35.8886 270.436 33.5212C270.436 31.1727 270.053 29.1509 269.286 27.4558C268.519 25.7513 267.373 24.4445 265.848 23.5354C264.324 22.6168 262.425 22.1575 260.152 22.1575H254.527V44.9984Z" fill="#B3DBE6"/>
<defs>
<filter id="filter0_d_127_151" x="0.453125" y="0.852661" width="76.0747" height="67.5415" filterUnits="userSpaceOnUse" color-interpolation-filters="sRGB">
<feFlood flood-opacity="0" result="BackgroundImageFix"/>
<feColorMatrix in="SourceAlpha" type="matrix" values="0 0 0 0 0 0 0 0 0 0 0 0 0 0 0 0 0 0 127 0" result="hardAlpha"/>
<feOffset dx="2" dy="3"/>
<feComposite in2="hardAlpha" operator="out"/>
<feColorMatrix type="matrix" values="0 0 0 0 0.0705882 0 0 0 0 0.0862745 0 0 0 0 0.105882 0 0 0 1 0"/>
<feBlend mode="normal" in2="BackgroundImageFix" result="effect1_dropShadow_127_151"/>
<feBlend mode="normal" in="SourceGraphic" in2="effect1_dropShadow_127_151" result="shape"/>
</filter>
</defs>
</svg>
