<svg width="307" height="91" viewBox="0 0 307 91" fill="none" xmlns="http://www.w3.org/2000/svg">
<g filter="url(#filter0_d_133_194)">
<path d="M44.5028 37.1317L44.5093 52.9916C44.5094 53.2116 44.1558 53.4148 43.5819 53.5248L2.19328 61.4529C1.6193 61.5628 0.912077 61.5628 0.338013 61.4528L0.324707 28.6665C0.898682 28.5566 1.6059 28.5566 2.17997 28.6666L43.575 36.5985C44.1491 36.7085 44.5027 36.9117 44.5028 37.1317Z" fill="#9FD1DD"/>
</g>
<path d="M84.4302 32.9562L83.0679 36.34L76.1025 50.5123L72.499 50.7321L65.5337 36.1203L64.3911 32.9562V55.4562L68.6758 56.3571V59.0597H56.5249V56.3571L60.3481 55.4562V31.1544L56.5249 30.2536V27.7926L66.6543 27.5509L74.7842 45.5685L83.2876 27.7926L92.7578 27.5509V30.2536L88.9126 31.1544V55.4562L92.7578 56.3571V59.0597H80.1455V56.3571L84.4302 55.4562V32.9562ZM106.334 37.4581C109.29 37.4581 111.595 38.4152 113.249 40.3292C114.902 42.2303 115.729 44.8084 115.729 48.0636C115.729 50.3032 115.312 52.2889 114.479 54.0206C113.659 55.7524 112.487 57.0936 110.963 58.0441C109.453 58.9816 107.708 59.4503 105.729 59.4503C102.695 59.4503 100.338 58.5389 98.6587 56.716C96.979 54.893 96.1392 52.2107 96.1392 48.6691C96.1392 46.4295 96.5688 44.4634 97.4282 42.7706C98.3006 41.0649 99.505 39.7563 101.042 38.8449C102.578 37.9204 104.342 37.4581 106.334 37.4581ZM106.139 40.6613C104.16 40.6613 102.695 41.3123 101.745 42.6144C100.807 43.9035 100.338 45.8501 100.338 48.4542C100.338 53.6496 102.207 56.2537 105.944 56.2667C107.897 56.2667 109.316 55.6027 110.202 54.2746C111.087 52.9334 111.53 50.9282 111.53 48.2589C111.53 43.1938 109.733 40.6613 106.139 40.6613ZM140.944 58.8644L134.147 59.0597L133.834 56.7746C132.051 58.5584 129.954 59.4503 127.545 59.4503C124.746 59.4503 122.643 58.5259 121.237 56.6769C119.844 54.8279 119.147 52.2889 119.147 49.0597C119.147 45.518 120.039 42.699 121.823 40.6027C123.62 38.5063 126.263 37.4581 129.752 37.4581C131.055 37.4581 132.318 37.673 133.542 38.1027V31.4621L130.143 30.6613V28.4542L137.545 28.2589V55.8566L140.944 56.6574V58.8644ZM133.542 41.4621C133.463 41.41 133.262 41.3253 132.936 41.2081C132.624 41.0779 132.155 40.9542 131.53 40.8371C130.905 40.7199 130.176 40.6613 129.342 40.6613C125.345 40.6613 123.346 43.3305 123.346 48.6691C123.346 51.0128 123.75 52.8683 124.557 54.2355C125.377 55.5897 126.64 56.2667 128.346 56.2667C129.362 56.2667 130.254 56.0454 131.022 55.6027C131.803 55.16 132.415 54.6782 132.858 54.1574C133.314 53.6365 133.542 53.3371 133.542 53.2589V41.4621ZM147.76 49.0597C147.76 51.2472 148.294 52.9985 149.362 54.3136C150.43 55.6157 151.829 56.2667 153.561 56.2667C154.733 56.2667 155.82 56.104 156.823 55.7785C157.825 55.4529 158.652 55.1014 159.303 54.7238C159.954 54.3331 160.28 54.1118 160.28 54.0597L161.686 56.13C161.686 56.1821 161.25 56.5076 160.377 57.1066C159.518 57.6925 158.45 58.2329 157.174 58.7277C155.911 59.2094 154.57 59.4503 153.151 59.4503C150 59.4503 147.611 58.4998 145.983 56.5988C144.368 54.6977 143.561 52.0545 143.561 48.6691C143.561 46.5597 143.971 44.6522 144.792 42.9464C145.625 41.2407 146.784 39.8996 148.268 38.923C149.765 37.9464 151.465 37.4581 153.366 37.4581C158.965 37.4581 161.764 40.5897 161.764 46.8527C161.764 47.2824 161.738 47.7121 161.686 48.1417C161.634 48.5714 161.595 48.8514 161.569 48.9816L147.76 49.0597ZM157.526 46.0519C157.526 44.4243 157.174 43.1092 156.471 42.1066C155.781 41.091 154.674 40.5831 153.151 40.5831C151.601 40.5831 150.371 41.104 149.459 42.1456C148.561 43.1873 148.047 44.4894 147.917 46.0519H157.526ZM175.631 59.0597H164.557V56.8527L167.956 55.8566V31.4621L164.557 30.6613V28.4542L172.038 28.2589V55.8566L175.631 56.8527V59.0597ZM178.834 39.0597C179.043 38.9816 179.564 38.8188 180.397 38.5714C181.243 38.311 182.239 38.0636 183.385 37.8292C184.531 37.5818 185.612 37.4581 186.627 37.4581C189.049 37.4581 190.885 37.9399 192.135 38.9035C193.398 39.867 194.03 41.4555 194.03 43.6691V55.8566L197.233 56.6574V58.8644L191.022 59.0597L190.182 56.2667C189.323 57.1261 188.327 57.8748 187.194 58.5128C186.074 59.1378 184.883 59.4503 183.62 59.4503C181.732 59.4503 180.26 58.9295 179.206 57.8878C178.151 56.8331 177.624 55.3553 177.624 53.4542C177.624 51.2407 178.418 49.6587 180.006 48.7081C181.595 47.7446 183.867 47.2628 186.823 47.2628H190.026V44.0597C190.026 42.8878 189.7 41.9959 189.049 41.3839C188.398 40.7719 187.454 40.466 186.217 40.466C185.501 40.466 184.844 40.5115 184.245 40.6027C183.646 40.6938 183.17 40.785 182.819 40.8761C182.48 40.9673 182.272 41.0259 182.194 41.0519L181.627 44.0597H179.03L178.834 39.0597ZM187.233 49.8605C185.254 49.8605 183.834 50.1274 182.975 50.6613C182.129 51.1951 181.706 52.061 181.706 53.2589C181.706 54.1704 181.966 54.8996 182.487 55.4464C183.008 55.9933 183.724 56.2667 184.635 56.2667C185.521 56.2667 186.361 56.0259 187.155 55.5441C187.949 55.0623 188.626 54.5415 189.186 53.9816C189.746 53.4217 190.026 53.1157 190.026 53.0636V49.8605H187.233ZM222.038 58.8644L215.241 59.0597L214.928 56.7746C213.144 58.5584 211.048 59.4503 208.639 59.4503C205.84 59.4503 203.737 58.5259 202.331 56.6769C200.937 54.8279 200.241 52.2889 200.241 49.0597C200.241 45.518 201.133 42.699 202.917 40.6027C204.713 38.5063 207.357 37.4581 210.846 37.4581C212.148 37.4581 213.411 37.673 214.635 38.1027V31.4621L211.237 30.6613V28.4542L218.639 28.2589V55.8566L222.038 56.6574V58.8644ZM214.635 41.4621C214.557 41.41 214.355 41.3253 214.03 41.2081C213.717 41.0779 213.249 40.9542 212.624 40.8371C211.999 40.7199 211.269 40.6613 210.436 40.6613C206.439 40.6613 204.44 43.3305 204.44 48.6691C204.44 51.0128 204.844 52.8683 205.651 54.2355C206.471 55.5897 207.734 56.2667 209.44 56.2667C210.456 56.2667 211.347 56.0454 212.116 55.6027C212.897 55.16 213.509 54.6782 213.952 54.1574C214.407 53.6365 214.635 53.3371 214.635 53.2589V41.4621ZM234.85 37.4581C237.806 37.4581 240.111 38.4152 241.764 40.3292C243.418 42.2303 244.245 44.8084 244.245 48.0636C244.245 50.3032 243.828 52.2889 242.995 54.0206C242.174 55.7524 241.002 57.0936 239.479 58.0441C237.969 58.9816 236.224 59.4503 234.245 59.4503C231.211 59.4503 228.854 58.5389 227.174 56.716C225.495 54.893 224.655 52.2107 224.655 48.6691C224.655 46.4295 225.084 44.4634 225.944 42.7706C226.816 41.0649 228.021 39.7563 229.557 38.8449C231.094 37.9204 232.858 37.4581 234.85 37.4581ZM234.655 40.6613C232.676 40.6613 231.211 41.3123 230.26 42.6144C229.323 43.9035 228.854 45.8501 228.854 48.4542C228.854 53.6496 230.722 56.2537 234.459 56.2667C236.413 56.2667 237.832 55.6027 238.717 54.2746C239.603 52.9334 240.045 50.9282 240.045 48.2589C240.045 43.1938 238.249 40.6613 234.655 40.6613Z" fill="#406B76"/>
<path d="M263.893 42.8683C265.729 42.8683 267.187 42.4647 268.268 41.6574C269.349 40.8371 269.889 39.6391 269.889 38.0636C269.889 36.8657 269.42 35.9022 268.483 35.173C267.545 34.4308 266.282 34.0597 264.694 34.0597C263.978 34.0597 263.288 34.1183 262.624 34.2355C261.972 34.3527 261.445 34.4764 261.042 34.6066C260.638 34.7238 260.384 34.8084 260.28 34.8605L259.889 38.4542H256.686L256.491 32.2628C256.725 32.1847 257.259 32.0219 258.092 31.7746C258.939 31.5141 259.987 31.2667 261.237 31.0324C262.5 30.785 263.717 30.6613 264.889 30.6613C267.741 30.6613 269.987 31.2277 271.627 32.3605C273.268 33.4933 274.088 35.2576 274.088 37.6535C274.088 39.3852 273.652 40.8305 272.78 41.9894C271.92 43.1352 270.625 43.9165 268.893 44.3331C270.677 44.7107 272.09 45.492 273.131 46.6769C274.173 47.8618 274.694 49.1899 274.694 50.6613C274.694 52.7446 274.167 54.4373 273.112 55.7394C272.057 57.0415 270.729 57.9855 269.127 58.5714C267.526 59.1574 265.846 59.4503 264.088 59.4503C262.539 59.4503 261.159 59.3071 259.948 59.0206C258.737 58.7212 257.754 58.4022 256.999 58.0636C256.256 57.7121 255.885 57.5102 255.885 57.4581L257.077 54.255C257.077 54.2811 257.461 54.4568 258.229 54.7824C259.01 55.0949 259.935 55.3878 261.002 55.6613C262.07 55.9217 263.164 56.0519 264.284 56.0519C266.12 56.0519 267.578 55.6027 268.659 54.7042C269.739 53.7928 270.28 52.5102 270.28 50.8566C270.28 49.3592 269.687 48.1873 268.502 47.341C267.318 46.4816 265.709 46.0519 263.678 46.0519H260.69V42.8683H263.893ZM282.272 34.255L278.874 33.4542V31.2667L286.471 31.0519H291.471C295.417 31.0519 298.502 32.2368 300.729 34.6066C302.956 36.9634 304.069 40.3162 304.069 44.6652C304.069 47.5688 303.528 50.1079 302.448 52.2824C301.38 54.4568 299.844 56.13 297.838 57.3019C295.833 58.4738 293.515 59.0597 290.885 59.0597H278.874V56.6574L282.272 55.8566V34.255ZM291.081 55.8566C293.698 55.8566 295.749 54.9451 297.233 53.1222C298.73 51.2993 299.479 48.5454 299.479 44.8605C299.479 41.2667 298.756 38.604 297.311 36.8722C295.879 35.1274 293.867 34.255 291.276 34.255H286.471V55.8566H291.081Z" fill="#B3DBE6"/>
<defs>
<filter id="filter0_d_133_194" x="0.324707" y="28.5841" width="46.1846" height="35.9512" filterUnits="userSpaceOnUse" color-interpolation-filters="sRGB">
<feFlood flood-opacity="0" result="BackgroundImageFix"/>
<feColorMatrix in="SourceAlpha" type="matrix" values="0 0 0 0 0 0 0 0 0 0 0 0 0 0 0 0 0 0 127 0" result="hardAlpha"/>
<feOffset dx="2" dy="3"/>
<feComposite in2="hardAlpha" operator="out"/>
<feColorMatrix type="matrix" values="0 0 0 0 0.0705882 0 0 0 0 0.0862745 0 0 0 0 0.105882 0 0 0 1 0"/>
<feBlend mode="normal" in2="BackgroundImageFix" result="effect1_dropShadow_133_194"/>
<feBlend mode="normal" in="SourceGraphic" in2="effect1_dropShadow_133_194" result="shape"/>
</filter>
</defs>
</svg>
