<svg width="277" height="65" viewBox="0 0 277 65" fill="none" xmlns="http://www.w3.org/2000/svg">
<path d="M74.1625 31.7855C74.4097 32.2138 74.4097 32.7415 74.1625 33.1699L56.3358 64.0562C56.0885 64.4846 55.6317 64.7484 55.1372 64.7484L19.4838 64.7484C18.9894 64.7484 18.5325 64.4846 18.2853 64.0562L0.458554 33.1699C0.211334 32.7415 0.211334 32.2138 0.458554 31.7855L18.2853 0.899099C18.5325 0.470768 18.9894 0.206907 19.4838 0.206907L55.1372 0.206908C55.6317 0.206908 56.0886 0.470771 56.3358 0.899102L74.1625 31.7855Z" fill="#46556B"/>
<path d="M48.1992 20.1246L46.6855 23.8844L38.9463 39.6314L34.9424 39.8756L27.2031 23.6402L25.9336 20.1246V45.1246L30.6943 46.1256V49.1285H17.1934V46.1256L21.4414 45.1246V18.1227L17.1934 17.1217V14.3873L28.4482 14.1187L37.4814 34.1383L46.9297 14.3873L57.4521 14.1187V17.1217L53.1797 18.1227V45.1246L57.4521 46.1256V49.1285H43.4385V46.1256L48.1992 45.1246V20.1246Z" fill="#B3DBE6"/>
<path d="M69.7805 47.9322C67.8108 47.9322 66.0825 47.4635 64.5958 46.526C63.1185 45.5885 61.9632 44.2769 61.1299 42.5913C60.306 40.9057 59.8941 38.936 59.8941 36.6822C59.8941 34.4095 60.306 32.4256 61.1299 30.7305C61.9632 29.0355 63.1185 27.7192 64.5958 26.7817C66.0825 25.8442 67.8108 25.3754 69.7805 25.3754C71.7501 25.3754 73.4736 25.8442 74.9509 26.7817C76.4376 27.7192 77.593 29.0355 78.4168 30.7305C79.2501 32.4256 79.6668 34.4095 79.6668 36.6822C79.6668 38.936 79.2501 40.9057 78.4168 42.5913C77.593 44.2769 76.4376 45.5885 74.9509 46.526C73.4736 47.4635 71.7501 47.9322 69.7805 47.9322ZM69.7805 44.9209C71.2767 44.9209 72.5077 44.5374 73.4736 43.7703C74.4395 43.0033 75.1545 41.9947 75.6185 40.7447C76.0825 39.4947 76.3145 38.1406 76.3145 36.6822C76.3145 35.2239 76.0825 33.865 75.6185 32.6055C75.1545 31.3461 74.4395 30.3281 73.4736 29.5516C72.5077 28.775 71.2767 28.3868 69.7805 28.3868C68.2842 28.3868 67.0532 28.775 66.0873 29.5516C65.1214 30.3281 64.4064 31.3461 63.9424 32.6055C63.4784 33.865 63.2464 35.2239 63.2464 36.6822C63.2464 38.1406 63.4784 39.4947 63.9424 40.7447C64.4064 41.9947 65.1214 43.0033 66.0873 43.7703C67.0532 44.5374 68.2842 44.9209 69.7805 44.9209ZM93.0226 47.9322C91.2045 47.9322 89.5993 47.473 88.2073 46.5544C86.8153 45.6264 85.7262 44.3195 84.9403 42.6339C84.1543 40.9389 83.7613 38.936 83.7613 36.6254C83.7613 34.3338 84.1543 32.3451 84.9403 30.6595C85.7262 28.9739 86.82 27.6718 88.2215 26.7533C89.623 25.8347 91.2423 25.3754 93.0795 25.3754C94.4999 25.3754 95.6221 25.6122 96.4459 26.0856C97.2793 26.5497 97.9137 27.08 98.3493 27.6766C98.7944 28.2637 99.1401 28.7466 99.3863 29.1254H99.6704V18.3868H103.023V47.4777H99.784V44.1254H99.3863C99.1401 44.5231 98.7897 45.025 98.3351 45.6311C97.8806 46.2277 97.2319 46.7627 96.3891 47.2362C95.5463 47.7002 94.4242 47.9322 93.0226 47.9322ZM93.4772 44.9209C94.8219 44.9209 95.9582 44.5705 96.8863 43.8697C97.8143 43.1595 98.5198 42.1794 99.0028 40.9294C99.4857 39.6699 99.7272 38.2163 99.7272 36.5686C99.7272 34.9398 99.4904 33.5146 99.017 32.293C98.5435 31.062 97.8427 30.1055 96.9147 29.4237C95.9867 28.7324 94.8408 28.3868 93.4772 28.3868C92.0567 28.3868 90.873 28.7514 89.926 29.4805C88.9885 30.2002 88.2831 31.1803 87.8096 32.4209C87.3456 33.6519 87.1135 35.0345 87.1135 36.5686C87.1135 38.1216 87.3503 39.5326 87.8238 40.8016C88.3067 42.061 89.017 43.0648 89.9545 43.8129C90.9014 44.5516 92.0757 44.9209 93.4772 44.9209ZM118.775 47.9322C116.673 47.9322 114.86 47.4682 113.335 46.5402C111.82 45.6027 110.65 44.2959 109.827 42.6197C109.012 40.9341 108.605 38.9739 108.605 36.7391C108.605 34.5042 109.012 32.5345 109.827 30.83C110.65 29.1159 111.796 27.7807 113.264 26.8243C114.741 25.8584 116.465 25.3754 118.435 25.3754C119.571 25.3754 120.693 25.5648 121.801 25.9436C122.909 26.3224 123.918 26.9379 124.827 27.7902C125.736 28.633 126.46 29.7504 127 31.1425C127.54 32.5345 127.81 34.2485 127.81 36.2845V37.705H110.991V34.8072H124.4C124.4 33.5762 124.154 32.4777 123.662 31.5118C123.179 30.5459 122.488 29.7836 121.588 29.2249C120.698 28.6661 119.647 28.3868 118.435 28.3868C117.099 28.3868 115.944 28.7182 114.969 29.3811C114.003 30.0345 113.259 30.8868 112.739 31.9379C112.218 32.9891 111.957 34.1159 111.957 35.3186V37.2504C111.957 38.8981 112.241 40.2949 112.81 41.4408C113.387 42.5771 114.187 43.4436 115.21 44.0402C116.233 44.6273 117.421 44.9209 118.775 44.9209C119.656 44.9209 120.452 44.7978 121.162 44.5516C121.882 44.2959 122.502 43.9171 123.023 43.4152C123.543 42.9038 123.946 42.2694 124.23 41.5118L127.469 42.4209C127.128 43.5194 126.555 44.4853 125.75 45.3186C124.945 46.1425 123.951 46.7864 122.767 47.2504C121.583 47.705 120.253 47.9322 118.775 47.9322ZM136.261 18.3868V47.4777H132.909V18.3868H136.261ZM148.822 47.9891C147.439 47.9891 146.184 47.7286 145.057 47.2078C143.931 46.6775 143.036 45.9152 142.373 44.9209C141.71 43.9171 141.378 42.705 141.378 41.2845C141.378 40.0345 141.625 39.0213 142.117 38.2447C142.61 37.4588 143.268 36.8432 144.092 36.3981C144.915 35.9531 145.824 35.6216 146.819 35.4038C147.823 35.1766 148.831 34.9966 149.844 34.8641C151.17 34.6936 152.245 34.5658 153.069 34.4805C153.902 34.3858 154.508 34.2296 154.887 34.0118C155.275 33.794 155.469 33.4152 155.469 32.8754V32.7618C155.469 31.3603 155.086 30.2713 154.319 29.4947C153.561 28.7182 152.411 28.33 150.867 28.33C149.267 28.33 148.012 28.6803 147.103 29.3811C146.194 30.0819 145.555 30.83 145.185 31.6254L142.003 30.4891C142.572 29.1633 143.329 28.1311 144.276 27.3925C145.233 26.6444 146.274 26.1235 147.401 25.83C148.538 25.5269 149.655 25.3754 150.753 25.3754C151.454 25.3754 152.259 25.4606 153.168 25.6311C154.087 25.7921 154.972 26.1283 155.824 26.6396C156.686 27.151 157.401 27.9228 157.969 28.955C158.538 29.9872 158.822 31.3697 158.822 33.1027V47.4777H155.469V44.5231H155.299C155.072 44.9966 154.693 45.5033 154.163 46.043C153.632 46.5828 152.927 47.0421 152.046 47.4209C151.165 47.7997 150.091 47.9891 148.822 47.9891ZM149.333 44.9777C150.659 44.9777 151.776 44.7173 152.685 44.1964C153.604 43.6756 154.295 43.0033 154.759 42.1794C155.233 41.3555 155.469 40.4891 155.469 39.58V36.5118C155.327 36.6822 155.015 36.8385 154.532 36.9805C154.058 37.1131 153.509 37.2315 152.884 37.3356C152.269 37.4303 151.667 37.5156 151.08 37.5913C150.503 37.6576 150.034 37.7144 149.674 37.7618C148.803 37.8754 147.988 38.0601 147.231 38.3158C146.483 38.562 145.877 38.936 145.413 39.4379C144.958 39.9303 144.731 40.6027 144.731 41.455C144.731 42.6197 145.162 43.5004 146.023 44.097C146.895 44.6841 147.998 44.9777 149.333 44.9777ZM173.179 47.9322C171.361 47.9322 169.756 47.473 168.364 46.5544C166.972 45.6264 165.882 44.3195 165.097 42.6339C164.311 40.9389 163.918 38.936 163.918 36.6254C163.918 34.3338 164.311 32.3451 165.097 30.6595C165.882 28.9739 166.976 27.6718 168.378 26.7533C169.779 25.8347 171.399 25.3754 173.236 25.3754C174.656 25.3754 175.778 25.6122 176.602 26.0856C177.436 26.5497 178.07 27.08 178.506 27.6766C178.951 28.2637 179.296 28.7466 179.543 29.1254H179.827V18.3868H183.179V47.4777H179.94V44.1254H179.543C179.296 44.5231 178.946 45.025 178.491 45.6311C178.037 46.2277 177.388 46.7627 176.545 47.2362C175.703 47.7002 174.58 47.9322 173.179 47.9322ZM173.633 44.9209C174.978 44.9209 176.114 44.5705 177.043 43.8697C177.971 43.1595 178.676 42.1794 179.159 40.9294C179.642 39.6699 179.883 38.2163 179.883 36.5686C179.883 34.9398 179.647 33.5146 179.173 32.293C178.7 31.062 177.999 30.1055 177.071 29.4237C176.143 28.7324 174.997 28.3868 173.633 28.3868C172.213 28.3868 171.029 28.7514 170.082 29.4805C169.145 30.2002 168.439 31.1803 167.966 32.4209C167.502 33.6519 167.27 35.0345 167.27 36.5686C167.27 38.1216 167.507 39.5326 167.98 40.8016C168.463 42.061 169.173 43.0648 170.111 43.8129C171.058 44.5516 172.232 44.9209 173.633 44.9209ZM198.648 47.9322C196.678 47.9322 194.95 47.4635 193.463 46.526C191.986 45.5885 190.83 44.2769 189.997 42.5913C189.173 40.9057 188.761 38.936 188.761 36.6822C188.761 34.4095 189.173 32.4256 189.997 30.7305C190.83 29.0355 191.986 27.7192 193.463 26.7817C194.95 25.8442 196.678 25.3754 198.648 25.3754C200.617 25.3754 202.341 25.8442 203.818 26.7817C205.305 27.7192 206.46 29.0355 207.284 30.7305C208.117 32.4256 208.534 34.4095 208.534 36.6822C208.534 38.936 208.117 40.9057 207.284 42.5913C206.46 44.2769 205.305 45.5885 203.818 46.526C202.341 47.4635 200.617 47.9322 198.648 47.9322ZM198.648 44.9209C200.144 44.9209 201.375 44.5374 202.341 43.7703C203.307 43.0033 204.022 41.9947 204.486 40.7447C204.95 39.4947 205.182 38.1406 205.182 36.6822C205.182 35.2239 204.95 33.865 204.486 32.6055C204.022 31.3461 203.307 30.3281 202.341 29.5516C201.375 28.775 200.144 28.3868 198.648 28.3868C197.151 28.3868 195.92 28.775 194.954 29.5516C193.989 30.3281 193.274 31.3461 192.81 32.6055C192.346 33.865 192.114 35.2239 192.114 36.6822C192.114 38.1406 192.346 39.4947 192.81 40.7447C193.274 41.9947 193.989 43.0033 194.954 43.7703C195.92 44.5374 197.151 44.9209 198.648 44.9209Z" fill="#69949F"/>
<path d="M234.674 47.8754C232.799 47.8754 231.128 47.5534 229.66 46.9095C228.201 46.2656 227.041 45.3707 226.18 44.2249C225.327 43.0695 224.863 41.7296 224.788 40.205H228.367C228.443 41.1425 228.765 41.9521 229.333 42.6339C229.901 43.3063 230.645 43.8271 231.563 44.1964C232.482 44.5658 233.5 44.7504 234.617 44.7504C235.867 44.7504 236.975 44.5326 237.941 44.097C238.907 43.6614 239.664 43.0553 240.214 42.2788C240.763 41.5023 241.038 40.6027 241.038 39.58C241.038 38.5099 240.772 37.5677 240.242 36.7533C239.712 35.9294 238.935 35.2855 237.913 34.8214C236.89 34.3574 235.64 34.1254 234.163 34.1254H231.833V31.0004H234.163C235.318 31.0004 236.331 30.7921 237.202 30.3754C238.083 29.9588 238.77 29.3716 239.262 28.6141C239.764 27.8565 240.015 26.9663 240.015 25.9436C240.015 24.9588 239.797 24.1017 239.361 23.3726C238.926 22.6434 238.31 22.0752 237.515 21.668C236.729 21.2608 235.801 21.0572 234.731 21.0572C233.727 21.0572 232.78 21.2419 231.89 21.6112C231.009 21.9711 230.289 22.4966 229.731 23.1879C229.172 23.8697 228.869 24.6936 228.822 25.6595H225.413C225.469 24.1349 225.929 22.7997 226.79 21.6538C227.652 20.4985 228.779 19.5989 230.171 18.955C231.573 18.311 233.111 17.9891 234.788 17.9891C236.587 17.9891 238.13 18.3536 239.418 19.0828C240.706 19.8025 241.696 20.7542 242.387 21.9379C243.078 23.1216 243.424 24.4 243.424 25.7731C243.424 27.4114 242.993 28.8082 242.131 29.9635C241.279 31.1188 240.119 31.919 238.651 32.3641V32.5913C240.488 32.8944 241.923 33.6756 242.955 34.9351C243.987 36.1851 244.503 37.7334 244.503 39.58C244.503 41.1614 244.073 42.5819 243.211 43.8413C242.359 45.0913 241.194 46.0762 239.717 46.7959C238.239 47.5156 236.558 47.8754 234.674 47.8754ZM259.802 47.4777H250.824V18.3868H260.199C263.021 18.3868 265.436 18.9692 267.444 20.1339C269.451 21.2892 270.99 22.9512 272.06 25.1197C273.13 27.2788 273.665 29.8641 273.665 32.8754C273.665 35.9057 273.126 38.5146 272.046 40.7021C270.967 42.8802 269.395 44.5563 267.33 45.7305C265.266 46.8953 262.756 47.4777 259.802 47.4777ZM254.347 44.3527H259.574C261.98 44.3527 263.973 43.8887 265.555 42.9606C267.136 42.0326 268.315 40.7116 269.092 38.9976C269.868 37.2836 270.256 35.2428 270.256 32.8754C270.256 30.5269 269.873 28.5052 269.106 26.8101C268.339 25.1055 267.193 23.7987 265.668 22.8896C264.144 21.9711 262.245 21.5118 259.972 21.5118H254.347V44.3527Z" fill="#B3DBE6"/>
</svg>
