<svg width="455" height="135" viewBox="0 0 455 135" fill="none" xmlns="http://www.w3.org/2000/svg">
<path d="M21.6367 84.9722V88.5537H11.2876V99.584H21.6367L22.5376 95.0796H25.46V103.188H2.71826V100.485L6.5415 99.584V75.2823L2.71826 74.3814V71.9204L11.2876 71.6787H24.9985V79.3472H22.0762L20.9556 75.2823H11.2876V84.9722H21.6367ZM37.7866 82.5332C38.7241 81.7276 39.9473 80.9219 41.4561 80.1162C42.9795 79.2959 44.5469 78.8858 46.1582 78.8858C48.5605 78.8858 50.3623 79.6035 51.5635 81.0391C52.7646 82.46 53.3652 84.4449 53.3652 86.9937V99.584L56.7271 100.705V103.188H45.9385V100.705L48.8608 99.584V87.4331C48.8608 85.8072 48.5459 84.6133 47.916 83.8516C47.2861 83.0899 46.2534 82.709 44.8179 82.709C43.6753 82.709 42.6206 82.98 41.6538 83.522C40.7017 84.064 39.9033 84.6499 39.2588 85.2798C38.6143 85.9097 38.292 86.2539 38.292 86.3125V99.584L41.2144 100.705V103.188H29.9644V100.705L33.7876 99.584V82.9287L29.9644 82.0279V79.5669L37.3911 79.3472L37.7866 82.5332ZM70.6357 99.1446L76.041 82.709L72.9429 82.0279V79.5669L83.0283 79.3472V82.0279L80.5454 82.4893L72.8989 103.188H67.9551L60.5723 82.709L58.3091 82.0279V79.5669L68.4385 79.3472V82.0279L65.2964 82.4893L70.6357 99.1446ZM87.9502 71.9204C87.9502 70.9243 88.2358 70.148 88.8071 69.5913C89.3784 69.0347 90.0669 68.7564 90.8726 68.7564C92.8208 68.7564 93.7949 69.8111 93.7949 71.9204C93.7949 72.8872 93.4946 73.6563 92.894 74.2276C92.2935 74.7842 91.6196 75.0625 90.8726 75.0625C89.979 75.0625 89.2686 74.7842 88.7412 74.2276C88.2139 73.6709 87.9502 72.9019 87.9502 71.9204ZM96.7173 103.188H85.0278V100.705L88.8511 99.584V82.9287L85.0278 82.0279V79.5669L93.3555 79.3472V99.584L96.7173 100.705V103.188ZM101.683 80.6875C101.917 80.5996 102.503 80.4165 103.441 80.1382C104.393 79.8452 105.514 79.5669 106.803 79.3033C108.092 79.0249 109.308 78.8858 110.45 78.8858C113.175 78.8858 115.24 79.4278 116.646 80.5117C118.067 81.5957 118.778 83.3828 118.778 85.8731V99.584L122.381 100.485V102.968L115.394 103.188L114.449 100.045C113.482 101.012 112.362 101.855 111.087 102.572C109.828 103.275 108.487 103.627 107.066 103.627C104.942 103.627 103.287 103.041 102.101 101.869C100.914 100.683 100.321 99.0201 100.321 96.8814C100.321 94.3911 101.214 92.6114 103.001 91.542C104.789 90.458 107.345 89.916 110.67 89.916H114.273V86.3125C114.273 84.9942 113.907 83.9908 113.175 83.3023C112.442 82.6138 111.38 82.2696 109.989 82.2696C109.183 82.2696 108.443 82.3208 107.77 82.4234C107.096 82.5259 106.561 82.6284 106.166 82.731C105.785 82.8335 105.55 82.8994 105.462 82.9287L104.825 86.3125H101.903L101.683 80.6875ZM111.131 92.8384C108.905 92.8384 107.308 93.1387 106.341 93.7393C105.389 94.3399 104.913 95.314 104.913 96.6617C104.913 97.687 105.206 98.5074 105.792 99.1226C106.378 99.7378 107.184 100.045 108.209 100.045C109.205 100.045 110.15 99.7744 111.043 99.2325C111.937 98.6905 112.699 98.1045 113.329 97.4746C113.958 96.8448 114.273 96.5005 114.273 96.4419V92.8384H111.131ZM133.368 82.5332C134.305 81.7276 135.528 80.9219 137.037 80.1162C138.561 79.2959 140.128 78.8858 141.739 78.8858C144.142 78.8858 145.943 79.6035 147.145 81.0391C148.346 82.46 148.946 84.4449 148.946 86.9937V99.584L152.308 100.705V103.188H141.52V100.705L144.442 99.584V87.4331C144.442 85.8072 144.127 84.6133 143.497 83.8516C142.867 83.0899 141.834 82.709 140.399 82.709C139.256 82.709 138.202 82.98 137.235 83.522C136.283 84.064 135.484 84.6499 134.84 85.2798C134.195 85.9097 133.873 86.2539 133.873 86.3125V99.584L136.795 100.705V103.188H125.545V100.705L129.369 99.584V82.9287L125.545 82.0279V79.5669L132.972 79.3472L133.368 82.5332ZM166.942 78.8858C170.267 78.8858 172.86 79.9624 174.72 82.1158C176.581 84.2544 177.511 87.1548 177.511 90.8169C177.511 93.3365 177.042 95.5703 176.104 97.5186C175.182 99.4668 173.863 100.976 172.149 102.045C170.45 103.1 168.487 103.627 166.261 103.627C162.848 103.627 160.196 102.602 158.307 100.551C156.417 98.5 155.472 95.4825 155.472 91.4981C155.472 88.9785 155.956 86.7666 156.922 84.8623C157.904 82.9434 159.259 81.4712 160.987 80.4458C162.716 79.4058 164.701 78.8858 166.942 78.8858ZM166.722 82.4893C164.496 82.4893 162.848 83.2217 161.778 84.6866C160.724 86.1367 160.196 88.3267 160.196 91.2564C160.196 97.1011 162.298 100.031 166.502 100.045C168.7 100.045 170.296 99.2984 171.292 97.8042C172.289 96.2954 172.787 94.0396 172.787 91.0367C172.787 85.3384 170.765 82.4893 166.722 82.4893ZM185.047 99.8477C185.047 99.877 185.421 99.9576 186.168 100.089C186.915 100.207 187.801 100.265 188.827 100.265C192.21 100.265 193.91 99.0786 193.924 96.7056C193.924 95.7388 193.507 95.0137 192.672 94.5303C191.852 94.0323 190.57 93.5122 188.827 92.9702C187.23 92.4576 185.934 91.9668 184.938 91.4981C183.956 91.0147 183.114 90.3262 182.411 89.4326C181.708 88.5244 181.356 87.3526 181.356 85.917C181.356 83.6612 182.118 81.9253 183.641 80.7095C185.179 79.4937 187.164 78.8858 189.596 78.8858C190.65 78.8858 191.742 78.9883 192.87 79.1934C194.012 79.3838 194.979 79.5889 195.77 79.8086C196.576 80.0284 197.081 80.1748 197.286 80.2481L197.154 86.3125H194.232L193.507 82.7969C193.419 82.7676 193.221 82.709 192.914 82.6211C192.621 82.5332 192.203 82.4527 191.661 82.3794C191.119 82.3062 190.519 82.2696 189.859 82.2696C187.193 82.2696 185.86 83.273 185.86 85.2798C185.86 86.2466 186.285 86.9937 187.135 87.521C187.999 88.0337 189.295 88.5757 191.024 89.147C192.577 89.689 193.851 90.1944 194.847 90.6631C195.843 91.1172 196.686 91.7837 197.374 92.6626C198.062 93.5269 198.407 94.6182 198.407 95.9366C198.407 98.4268 197.469 100.331 195.594 101.649C193.719 102.968 191.361 103.627 188.519 103.627C187.289 103.627 186.146 103.554 185.091 103.407C184.037 103.261 183.194 103.114 182.564 102.968C181.935 102.821 181.546 102.711 181.4 102.638V95.9805H184.564L185.047 99.8477ZM285.506 82.9287C285.301 82.8701 284.811 82.7823 284.034 82.6651C283.258 82.5479 282.401 82.4893 281.463 82.4893C279.31 82.4893 277.647 83.1851 276.476 84.5767C275.304 85.9683 274.718 88.0484 274.718 90.8169C274.718 93.8199 275.333 96.1123 276.563 97.6944C277.794 99.2617 279.5 100.045 281.683 100.045C282.943 100.045 284.093 99.8404 285.133 99.4302C286.173 99.0201 287.022 98.5879 287.682 98.1338C288.341 97.6651 288.67 97.4014 288.67 97.3428L290.252 100.045C290.252 100.104 289.784 100.448 288.846 101.078C287.923 101.708 286.788 102.294 285.44 102.836C284.107 103.363 282.708 103.627 281.244 103.627C277.582 103.627 274.791 102.543 272.872 100.375C270.953 98.2071 269.994 95.1675 269.994 91.2564C269.994 88.854 270.47 86.7154 271.422 84.8404C272.389 82.9654 273.751 81.5078 275.509 80.4678C277.267 79.4131 279.325 78.8858 281.683 78.8858C282.884 78.8858 284.056 79.0249 285.199 79.3033C286.341 79.5669 287.271 79.8452 287.989 80.1382C288.707 80.4165 289.161 80.5996 289.352 80.6875L289.11 86.752H286.188L285.506 82.9287ZM304.403 78.8858C307.728 78.8858 310.321 79.9624 312.181 82.1158C314.042 84.2544 314.972 87.1548 314.972 90.8169C314.972 93.3365 314.503 95.5703 313.565 97.5186C312.643 99.4668 311.324 100.976 309.61 102.045C307.911 103.1 305.948 103.627 303.722 103.627C300.309 103.627 297.657 102.602 295.768 100.551C293.878 98.5 292.933 95.4825 292.933 91.4981C292.933 88.9785 293.417 86.7666 294.383 84.8623C295.365 82.9434 296.72 81.4712 298.448 80.4458C300.177 79.4058 302.162 78.8858 304.403 78.8858ZM304.183 82.4893C301.957 82.4893 300.309 83.2217 299.239 84.6866C298.185 86.1367 297.657 88.3267 297.657 91.2564C297.657 97.1011 299.759 100.031 303.963 100.045C306.161 100.045 307.757 99.2984 308.753 97.8042C309.75 96.2954 310.248 94.0396 310.248 91.0367C310.248 85.3384 308.226 82.4893 304.183 82.4893ZM326.419 82.5332C327.357 81.7276 328.58 80.9219 330.089 80.1162C331.612 79.2959 333.18 78.8858 334.791 78.8858C337.193 78.8858 338.995 79.6035 340.196 81.0391C341.397 82.46 341.998 84.4449 341.998 86.9937V99.584L345.36 100.705V103.188H334.571V100.705L337.494 99.584V87.4331C337.494 85.8072 337.179 84.6133 336.549 83.8516C335.919 83.0899 334.886 82.709 333.451 82.709C332.308 82.709 331.253 82.98 330.287 83.522C329.334 84.064 328.536 84.6499 327.892 85.2798C327.247 85.9097 326.925 86.2539 326.925 86.3125V99.584L329.847 100.705V103.188H318.597V100.705L322.42 99.584V82.9287L318.597 82.0279V79.5669L326.024 79.3472L326.419 82.5332ZM352.435 99.8477C352.435 99.877 352.809 99.9576 353.556 100.089C354.303 100.207 355.189 100.265 356.214 100.265C359.598 100.265 361.297 99.0786 361.312 96.7056C361.312 95.7388 360.895 95.0137 360.06 94.5303C359.239 94.0323 357.958 93.5122 356.214 92.9702C354.618 92.4576 353.321 91.9668 352.325 91.4981C351.344 91.0147 350.501 90.3262 349.798 89.4326C349.095 88.5244 348.744 87.3526 348.744 85.917C348.744 83.6612 349.505 81.9253 351.029 80.7095C352.567 79.4937 354.552 78.8858 356.983 78.8858C358.038 78.8858 359.129 78.9883 360.257 79.1934C361.4 79.3838 362.367 79.5889 363.158 79.8086C363.963 80.0284 364.469 80.1748 364.674 80.2481L364.542 86.3125H361.62L360.895 82.7969C360.807 82.7676 360.609 82.709 360.301 82.6211C360.008 82.5332 359.591 82.4527 359.049 82.3794C358.507 82.3062 357.906 82.2696 357.247 82.2696C354.581 82.2696 353.248 83.273 353.248 85.2798C353.248 86.2466 353.673 86.9937 354.522 87.521C355.387 88.0337 356.683 88.5757 358.412 89.147C359.964 89.689 361.239 90.1944 362.235 90.6631C363.231 91.1172 364.073 91.7837 364.762 92.6626C365.45 93.5269 365.794 94.6182 365.794 95.9366C365.794 98.4268 364.857 100.331 362.982 101.649C361.107 102.968 358.749 103.627 355.907 103.627C354.676 103.627 353.534 103.554 352.479 103.407C351.424 103.261 350.582 103.114 349.952 102.968C349.322 102.821 348.934 102.711 348.788 102.638V95.9805H351.952L352.435 99.8477ZM395.941 102.968L388.514 103.188L388.075 100.045C387.181 100.851 385.965 101.649 384.427 102.44C382.889 103.231 381.329 103.627 379.747 103.627C377.345 103.627 375.543 102.924 374.342 101.518C373.141 100.111 372.54 98.1338 372.54 95.585V82.9287L368.717 82.0279V79.5669L377.044 79.3472V95.1236C377.044 96.7202 377.359 97.8994 377.989 98.6612C378.619 99.4229 379.652 99.8037 381.087 99.8037C382.23 99.8037 383.277 99.5474 384.229 99.0347C385.196 98.5074 386.002 97.9287 386.646 97.2989C387.291 96.669 387.613 96.3247 387.613 96.2661V82.9287L383.79 82.0279V79.5669L392.118 79.3472V99.584L395.941 100.485V102.968ZM410.663 103.188H398.204V100.705L402.027 99.584V72.1402L398.204 71.2393V68.7564L406.62 68.5367V99.584L410.663 100.705V103.188ZM427.318 82.9287H420.792V97.3867C420.792 99.2178 421.539 100.133 423.033 100.133C424 100.133 425.172 99.7598 426.549 99.0127L427.757 101.386C425.721 102.88 423.619 103.627 421.451 103.627C419.928 103.627 418.683 103.129 417.716 102.133C416.764 101.122 416.288 99.4522 416.288 97.1231V82.9287H411.783V80.0064L416.288 79.5669V73.898L420.792 72.9971V79.5669H427.318V82.9287ZM432.02 80.6875C432.254 80.5996 432.84 80.4165 433.778 80.1382C434.73 79.8452 435.851 79.5669 437.14 79.3033C438.429 79.0249 439.645 78.8858 440.787 78.8858C443.512 78.8858 445.577 79.4278 446.983 80.5117C448.404 81.5957 449.115 83.3828 449.115 85.8731V99.584L452.718 100.485V102.968L445.731 103.188L444.786 100.045C443.819 101.012 442.699 101.855 441.424 102.572C440.165 103.275 438.824 103.627 437.403 103.627C435.279 103.627 433.624 103.041 432.438 101.869C431.251 100.683 430.658 99.0201 430.658 96.8814C430.658 94.3911 431.551 92.6114 433.338 91.542C435.125 90.458 437.682 89.916 441.007 89.916H444.61V86.3125C444.61 84.9942 444.244 83.9908 443.512 83.3023C442.779 82.6138 441.717 82.2696 440.326 82.2696C439.52 82.2696 438.78 82.3208 438.106 82.4234C437.433 82.5259 436.898 82.6284 436.502 82.731C436.122 82.8335 435.887 82.8994 435.799 82.9287L435.162 86.3125H432.24L432.02 80.6875ZM441.468 92.8384C439.242 92.8384 437.645 93.1387 436.678 93.7393C435.726 94.3399 435.25 95.314 435.25 96.6617C435.25 97.687 435.543 98.5074 436.129 99.1226C436.715 99.7378 437.521 100.045 438.546 100.045C439.542 100.045 440.487 99.7744 441.38 99.2325C442.274 98.6905 443.036 98.1045 443.666 97.4746C444.295 96.8448 444.61 96.5005 444.61 96.4419V92.8384H441.468Z" fill="#9FD1DD"/>
<path d="M227.235 82.9287H220.709V97.3867C220.709 99.2178 221.456 100.133 222.95 100.133C223.917 100.133 225.089 99.7598 226.466 99.0127L227.674 101.386C225.638 102.88 223.536 103.627 221.368 103.627C219.845 103.627 218.6 103.129 217.633 102.133C216.681 101.122 216.205 99.4522 216.205 97.1231V82.9287H211.7V80.0064L216.205 79.5669V73.898L220.709 72.9971V79.5669H227.235V82.9287ZM256.678 102.968L249.251 103.188L248.812 100.045C247.918 100.851 246.703 101.649 245.165 102.44C243.626 103.231 242.066 103.627 240.484 103.627C238.082 103.627 236.28 102.924 235.079 101.518C233.878 100.111 233.277 98.1338 233.277 95.585V82.9287L229.454 82.0279V79.5669L237.782 79.3472V95.1236C237.782 96.7202 238.097 97.8994 238.727 98.6612C239.356 99.4229 240.389 99.8037 241.825 99.8037C242.967 99.8037 244.015 99.5474 244.967 99.0347C245.934 98.5074 246.739 97.9287 247.384 97.2989C248.028 96.669 248.351 96.3247 248.351 96.2661V82.9287L244.527 82.0279V79.5669L252.855 79.3472V99.584L256.678 100.485V102.968Z" fill="#406B76"/>
<g filter="url(#filter0_d_140_221)">
<path d="M235.207 44.1811L219.347 44.1875C219.127 44.1876 218.924 43.8341 218.814 43.2601L210.886 1.87153C210.776 1.29755 210.776 0.590328 210.886 0.0162644L243.672 0.0029602C243.782 0.576935 243.782 1.28415 243.672 1.85822L235.74 43.2532C235.63 43.8273 235.427 44.181 235.207 44.1811Z" fill="#9FD1DD"/>
</g>
<defs>
<filter id="filter0_d_140_221" x="210.803" y="0.00296021" width="34.9512" height="47.1846" filterUnits="userSpaceOnUse" color-interpolation-filters="sRGB">
<feFlood flood-opacity="0" result="BackgroundImageFix"/>
<feColorMatrix in="SourceAlpha" type="matrix" values="0 0 0 0 0 0 0 0 0 0 0 0 0 0 0 0 0 0 127 0" result="hardAlpha"/>
<feOffset dx="2" dy="3"/>
<feComposite in2="hardAlpha" operator="out"/>
<feColorMatrix type="matrix" values="0 0 0 0 0.0705882 0 0 0 0 0.0862745 0 0 0 0 0.105882 0 0 0 1 0"/>
<feBlend mode="normal" in2="BackgroundImageFix" result="effect1_dropShadow_140_221"/>
<feBlend mode="normal" in="SourceGraphic" in2="effect1_dropShadow_140_221" result="shape"/>
</filter>
</defs>
</svg>
