<svg width="151" height="65" viewBox="0 0 151 65" fill="none" xmlns="http://www.w3.org/2000/svg">
<path d="M74.7645 31.6633C75.0118 32.0916 75.0118 32.6193 74.7645 33.0477L56.9378 63.9341C56.6906 64.3624 56.2337 64.6263 55.7393 64.6263L20.0859 64.6262C19.5914 64.6262 19.1345 64.3624 18.8873 63.9341L1.06061 33.0477C0.813387 32.6193 0.813387 32.0916 1.06061 31.6633L18.8873 0.776906C19.1345 0.348576 19.5914 0.0847144 20.0859 0.0847144L55.7393 0.084716C56.2337 0.084716 56.6906 0.348579 56.9378 0.776909L74.7645 31.6633Z" fill="#46556B"/>
<path d="M46.6528 29.2554V33.2593H35.1538V45.0024L40.1587 46.0034V49.0063H25.6567V46.0034L29.9048 45.0024V18.0005L25.6567 16.9995V14.2651L35.1538 13.9966H50.4126V22.2485H47.1655L45.896 18.0005H35.1538V29.2554H46.6528Z" fill="#B3DBE6"/>
<path d="M61.4841 47.81C59.5144 47.81 57.7861 47.3413 56.2994 46.4038C54.8221 45.4663 53.6668 44.1547 52.8335 42.4691C52.0096 40.7835 51.5977 38.8138 51.5977 36.56C51.5977 34.2873 52.0096 32.3034 52.8335 30.6083C53.6668 28.9132 54.8221 27.5969 56.2994 26.6594C57.7861 25.7219 59.5144 25.2532 61.4841 25.2532C63.4538 25.2532 65.1772 25.7219 66.6545 26.6594C68.1413 27.5969 69.2966 28.9132 70.1204 30.6083C70.9538 32.3034 71.3704 34.2873 71.3704 36.56C71.3704 38.8138 70.9538 40.7835 70.1204 42.4691C69.2966 44.1547 68.1413 45.4663 66.6545 46.4038C65.1772 47.3413 63.4538 47.81 61.4841 47.81ZM61.4841 44.7987C62.9803 44.7987 64.2113 44.4151 65.1772 43.6481C66.1432 42.881 66.8581 41.8725 67.3221 40.6225C67.7861 39.3725 68.0182 38.0183 68.0182 36.56C68.0182 35.1017 67.7861 33.7428 67.3221 32.4833C66.8581 31.2238 66.1432 30.2058 65.1772 29.4293C64.2113 28.6528 62.9803 28.2646 61.4841 28.2646C59.9879 28.2646 58.7568 28.6528 57.7909 29.4293C56.825 30.2058 56.11 31.2238 55.646 32.4833C55.182 33.7428 54.95 35.1017 54.95 36.56C54.95 38.0183 55.182 39.3725 55.646 40.6225C56.11 41.8725 56.825 42.881 57.7909 43.6481C58.7568 44.4151 59.9879 44.7987 61.4841 44.7987ZM85.3513 47.81C83.3816 47.81 81.6533 47.3413 80.1666 46.4038C78.6893 45.4663 77.534 44.1547 76.7007 42.4691C75.8768 40.7835 75.4649 38.8138 75.4649 36.56C75.4649 34.2873 75.8768 32.3034 76.7007 30.6083C77.534 28.9132 78.6893 27.5969 80.1666 26.6594C81.6533 25.7219 83.3816 25.2532 85.3513 25.2532C87.3209 25.2532 89.0444 25.7219 90.5217 26.6594C92.0084 27.5969 93.1638 28.9132 93.9876 30.6083C94.8209 32.3034 95.2376 34.2873 95.2376 36.56C95.2376 38.8138 94.8209 40.7835 93.9876 42.4691C93.1638 44.1547 92.0084 45.4663 90.5217 46.4038C89.0444 47.3413 87.3209 47.81 85.3513 47.81ZM85.3513 44.7987C86.8475 44.7987 88.0785 44.4151 89.0444 43.6481C90.0103 42.881 90.7253 41.8725 91.1893 40.6225C91.6533 39.3725 91.8853 38.0183 91.8853 36.56C91.8853 35.1017 91.6533 33.7428 91.1893 32.4833C90.7253 31.2238 90.0103 30.2058 89.0444 29.4293C88.0785 28.6528 86.8475 28.2646 85.3513 28.2646C83.855 28.2646 82.624 28.6528 81.6581 29.4293C80.6922 30.2058 79.9772 31.2238 79.5132 32.4833C79.0492 33.7428 78.8172 35.1017 78.8172 36.56C78.8172 38.0183 79.0492 39.3725 79.5132 40.6225C79.9772 41.8725 80.6922 42.881 81.6581 43.6481C82.624 44.4151 83.855 44.7987 85.3513 44.7987ZM109.843 25.5373V28.3782H98.5366V25.5373H109.843ZM101.832 20.31H105.184V41.1055C105.184 42.0524 105.322 42.7627 105.596 43.2362C105.88 43.7002 106.24 44.0127 106.676 44.1737C107.121 44.3252 107.59 44.4009 108.082 44.4009C108.451 44.4009 108.754 44.382 108.991 44.3441C109.228 44.2968 109.417 44.2589 109.559 44.2305L110.241 47.2418C110.014 47.3271 109.697 47.4123 109.289 47.4975C108.882 47.5922 108.366 47.6396 107.741 47.6396C106.794 47.6396 105.866 47.436 104.957 47.0288C104.057 46.6216 103.309 46.0013 102.713 45.168C102.126 44.3346 101.832 43.2835 101.832 42.0146V20.31ZM123.799 47.81C121.697 47.81 119.884 47.346 118.359 46.418C116.844 45.4805 115.674 44.1737 114.851 42.4975C114.036 40.8119 113.629 38.8517 113.629 36.6168C113.629 34.382 114.036 32.4123 114.851 30.7077C115.674 28.9937 116.82 27.6585 118.288 26.7021C119.765 25.7362 121.489 25.2532 123.458 25.2532C124.595 25.2532 125.717 25.4426 126.825 25.8214C127.933 26.2002 128.941 26.8157 129.851 27.668C130.76 28.5108 131.484 29.6282 132.024 31.0202C132.564 32.4123 132.833 34.1263 132.833 36.1623V37.5827H116.015V34.685H129.424C129.424 33.454 129.178 32.3555 128.686 31.3896C128.203 30.4236 127.512 29.6613 126.612 29.1026C125.722 28.5439 124.671 28.2646 123.458 28.2646C122.123 28.2646 120.968 28.596 119.993 29.2589C119.027 29.9123 118.283 30.7646 117.762 31.8157C117.242 32.8668 116.981 33.9937 116.981 35.1964V37.1282C116.981 38.7759 117.265 40.1727 117.833 41.3185C118.411 42.4549 119.211 43.3214 120.234 43.918C121.257 44.5051 122.445 44.7987 123.799 44.7987C124.68 44.7987 125.476 44.6755 126.186 44.4293C126.905 44.1737 127.526 43.7949 128.047 43.293C128.567 42.7816 128.97 42.1471 129.254 41.3896L132.493 42.2987C132.152 43.3971 131.579 44.363 130.774 45.1964C129.969 46.0202 128.975 46.6642 127.791 47.1282C126.607 47.5827 125.277 47.81 123.799 47.81ZM137.933 47.3555V25.5373H141.172V28.8327H141.399C141.797 27.7532 142.516 26.8772 143.558 26.2049C144.6 25.5326 145.774 25.1964 147.081 25.1964C147.327 25.1964 147.635 25.2011 148.004 25.2106C148.373 25.2201 148.653 25.2343 148.842 25.2532V28.6623C148.728 28.6339 148.468 28.5913 148.061 28.5344C147.663 28.4682 147.242 28.435 146.797 28.435C145.736 28.435 144.789 28.6576 143.956 29.1026C143.132 29.5382 142.478 30.1443 141.995 30.9208C141.522 31.6879 141.285 32.5638 141.285 33.5487V47.3555H137.933Z" fill="#69949F"/>
</svg>
