<svg width="163" height="65" viewBox="0 0 163 65" fill="none" xmlns="http://www.w3.org/2000/svg">
<path d="M74.0639 31.984C74.3111 32.4123 74.3111 32.94 74.0639 33.3684L56.2371 64.2547C55.9899 64.6831 55.533 64.9469 55.0386 64.9469L19.3852 64.9469C18.8907 64.9469 18.4339 64.6831 18.1866 64.2547L0.359921 33.3684C0.112701 32.94 0.112701 32.4123 0.359921 31.984L18.1866 1.0976C18.4339 0.66927 18.8907 0.405408 19.3852 0.405408L55.0386 0.40541C55.533 0.40541 55.9899 0.669273 56.2371 1.0976L74.0639 31.984Z" fill="#46556B"/>
<path d="M50.2002 46.186C50.2002 46.2511 49.5736 46.544 48.3203 47.0649C47.0833 47.5694 45.5127 48.0496 43.6084 48.5053C41.7041 48.9447 39.6533 49.1645 37.4561 49.1645C32.3942 49.1645 28.4635 47.6834 25.6641 44.7211C22.8646 41.7589 21.4648 37.4946 21.4648 31.9281C21.4648 28.1358 22.1484 24.8318 23.5156 22.016C24.8828 19.184 26.8197 17.003 29.3262 15.4731C31.849 13.9431 34.8112 13.1781 38.2129 13.1781C39.8405 13.1781 41.4844 13.3653 43.1445 13.7397C44.821 14.0977 46.2939 14.5046 47.5635 14.9604C48.833 15.3998 49.4678 15.6358 49.4678 15.6684L49.2236 23.9203H45.9521L44.4629 18.4272C44.3001 18.3621 43.9095 18.2563 43.291 18.1098C42.6725 17.947 41.8587 17.7924 40.8496 17.6459C39.8568 17.4994 38.807 17.4262 37.7002 17.4262C34.3311 17.4262 31.735 18.655 29.9121 21.1127C28.1055 23.5541 27.2021 27.0779 27.2021 31.684C27.2021 36.046 28.195 39.3419 30.1807 41.5717C32.1663 43.8015 34.8438 44.9164 38.2129 44.9164C39.2383 44.9164 40.2637 44.8269 41.2891 44.6479C42.3307 44.4688 43.2015 44.2817 43.9014 44.0863C44.6012 43.8748 45.0407 43.7364 45.2197 43.6713V35.4682L40.9717 34.4672V31.7328L53.96 31.4643V34.4672L50.2002 35.4682V46.186Z" fill="#B3DBE6"/>
<path d="M59.3133 47.6762V25.858H62.5519V29.1535H62.7792C63.1769 28.0739 63.8966 27.198 64.9383 26.5256C65.98 25.8533 67.1542 25.5171 68.461 25.5171C68.7072 25.5171 69.015 25.5218 69.3843 25.5313C69.7536 25.5408 70.033 25.555 70.2224 25.5739V28.983C70.1088 28.9546 69.8483 28.912 69.4411 28.8552C69.0434 28.7889 68.622 28.7557 68.1769 28.7557C67.1163 28.7557 66.1694 28.9783 65.336 29.4234C64.5122 29.859 63.8588 30.465 63.3758 31.2415C62.9023 32.0086 62.6656 32.8845 62.6656 33.8694V47.6762H59.3133ZM80.6166 48.1876C79.234 48.1876 77.9793 47.9271 76.8524 47.4063C75.7255 46.876 74.8306 46.1137 74.1677 45.1194C73.5048 44.1156 73.1734 42.9035 73.1734 41.483C73.1734 40.233 73.4196 39.2198 73.912 38.4432C74.4044 37.6573 75.0626 37.0417 75.8865 36.5966C76.7103 36.1516 77.6194 35.8201 78.6137 35.6023C79.6175 35.3751 80.626 35.1951 81.6393 35.0626C82.9651 34.8921 84.0399 34.7643 84.8637 34.679C85.6971 34.5843 86.3031 34.4281 86.6819 34.2103C87.0702 33.9925 87.2643 33.6137 87.2643 33.0739V32.9603C87.2643 31.5588 86.8808 30.4698 86.1137 29.6932C85.3562 28.9167 84.2056 28.5285 82.662 28.5285C81.0616 28.5285 79.8069 28.8788 78.8978 29.5796C77.9887 30.2804 77.3495 31.0285 76.9802 31.8239L73.7984 30.6876C74.3666 29.3618 75.1241 28.3296 76.0711 27.591C77.0276 26.8429 78.0692 26.322 79.1961 26.0285C80.3325 25.7254 81.4499 25.5739 82.5484 25.5739C83.2491 25.5739 84.0541 25.6591 84.9632 25.8296C85.8817 25.9906 86.7671 26.3268 87.6194 26.8381C88.4811 27.3495 89.1961 28.1213 89.7643 29.1535C90.3325 30.1857 90.6166 31.5682 90.6166 33.3012V47.6762H87.2643V44.7216H87.0938C86.8666 45.1951 86.4878 45.7018 85.9575 46.2415C85.4272 46.7813 84.7217 47.2406 83.841 47.6194C82.9603 47.9982 81.8855 48.1876 80.6166 48.1876ZM81.1279 45.1762C82.4537 45.1762 83.5711 44.9158 84.4802 44.3949C85.3988 43.8741 86.0901 43.2018 86.5541 42.3779C87.0276 41.554 87.2643 40.6876 87.2643 39.7785V36.7103C87.1222 36.8807 86.8097 37.037 86.3268 37.179C85.8533 37.3116 85.3041 37.43 84.6791 37.5341C84.0635 37.6288 83.4622 37.7141 82.8751 37.7898C82.2974 37.8561 81.8287 37.9129 81.4688 37.9603C80.5976 38.0739 79.7832 38.2586 79.0257 38.5143C78.2776 38.7605 77.6715 39.1345 77.2075 39.6364C76.7529 40.1288 76.5257 40.8012 76.5257 41.6535C76.5257 42.8182 76.9565 43.6989 77.8183 44.2955C78.6895 44.8826 79.7927 45.1762 81.1279 45.1762ZM81.2416 22.9035L84.7075 16.3126H88.6279L84.1961 22.9035H81.2416ZM106.451 25.858V28.6989H94.6897V25.858H106.451ZM98.2124 47.6762V22.8466C98.2124 21.5966 98.506 20.555 99.0931 19.7216C99.6802 18.8883 100.443 18.2633 101.38 17.8466C102.318 17.43 103.307 17.2216 104.349 17.2216C105.173 17.2216 105.845 17.2879 106.366 17.4205C106.887 17.5531 107.275 17.6762 107.531 17.7898L106.565 20.6876C106.394 20.6307 106.158 20.5597 105.854 20.4745C105.561 20.3893 105.173 20.3466 104.69 20.3466C103.582 20.3466 102.782 20.626 102.289 21.1847C101.806 21.7434 101.565 22.5626 101.565 23.6421V47.6762H98.2124ZM111.149 47.6762V25.858H114.502V47.6762H111.149ZM112.854 22.2216C112.2 22.2216 111.637 21.9991 111.163 21.554C110.699 21.109 110.467 20.5739 110.467 19.9489C110.467 19.3239 110.699 18.7889 111.163 18.3438C111.637 17.8987 112.2 17.6762 112.854 17.6762C113.507 17.6762 114.066 17.8987 114.53 18.3438C115.003 18.7889 115.24 19.3239 115.24 19.9489C115.24 20.5739 115.003 21.109 114.53 21.554C114.066 21.9991 113.507 22.2216 112.854 22.2216ZM129.505 48.1307C127.46 48.1307 125.698 47.6478 124.221 46.6819C122.744 45.716 121.607 44.3855 120.812 42.6904C120.016 40.9953 119.619 39.0588 119.619 36.8807C119.619 34.6648 120.026 32.7093 120.84 31.0143C121.664 29.3097 122.81 27.9792 124.278 27.0228C125.755 26.0569 127.479 25.5739 129.448 25.5739C130.982 25.5739 132.365 25.858 133.596 26.4262C134.827 26.9944 135.836 27.7898 136.622 28.8126C137.408 29.8353 137.895 31.0285 138.085 32.3921H134.732C134.477 31.3978 133.908 30.5171 133.028 29.7501C132.157 28.9735 130.982 28.5853 129.505 28.5853C128.198 28.5853 127.052 28.9262 126.068 29.608C125.092 30.2804 124.33 31.2321 123.781 32.4631C123.241 33.6847 122.971 35.1194 122.971 36.7671C122.971 38.4527 123.236 39.9205 123.766 41.1705C124.306 42.4205 125.064 43.3912 126.039 44.0824C127.024 44.7737 128.179 45.1194 129.505 45.1194C130.376 45.1194 131.167 44.9679 131.877 44.6648C132.587 44.3618 133.189 43.9262 133.681 43.358C134.174 42.7898 134.524 42.108 134.732 41.3126H138.085C137.895 42.6004 137.426 43.7605 136.678 44.7927C135.94 45.8154 134.96 46.6298 133.738 47.2359C132.526 47.8324 131.115 48.1307 129.505 48.1307ZM149.406 48.1876C148.023 48.1876 146.768 47.9271 145.641 47.4063C144.515 46.876 143.62 46.1137 142.957 45.1194C142.294 44.1156 141.962 42.9035 141.962 41.483C141.962 40.233 142.209 39.2198 142.701 38.4432C143.194 37.6573 143.852 37.0417 144.676 36.5966C145.499 36.1516 146.408 35.8201 147.403 35.6023C148.407 35.3751 149.415 35.1951 150.428 35.0626C151.754 34.8921 152.829 34.7643 153.653 34.679C154.486 34.5843 155.092 34.4281 155.471 34.2103C155.859 33.9925 156.053 33.6137 156.053 33.0739V32.9603C156.053 31.5588 155.67 30.4698 154.903 29.6932C154.145 28.9167 152.995 28.5285 151.451 28.5285C149.851 28.5285 148.596 28.8788 147.687 29.5796C146.778 30.2804 146.139 31.0285 145.769 31.8239L142.587 30.6876C143.156 29.3618 143.913 28.3296 144.86 27.591C145.817 26.8429 146.858 26.322 147.985 26.0285C149.122 25.7254 150.239 25.5739 151.337 25.5739C152.038 25.5739 152.843 25.6591 153.752 25.8296C154.671 25.9906 155.556 26.3268 156.408 26.8381C157.27 27.3495 157.985 28.1213 158.553 29.1535C159.122 30.1857 159.406 31.5682 159.406 33.3012V47.6762H156.053V44.7216H155.883C155.656 45.1951 155.277 45.7018 154.747 46.2415C154.216 46.7813 153.511 47.2406 152.63 47.6194C151.749 47.9982 150.675 48.1876 149.406 48.1876ZM149.917 45.1762C151.243 45.1762 152.36 44.9158 153.269 44.3949C154.188 43.8741 154.879 43.2018 155.343 42.3779C155.817 41.554 156.053 40.6876 156.053 39.7785V36.7103C155.911 36.8807 155.599 37.037 155.116 37.179C154.642 37.3116 154.093 37.43 153.468 37.5341C152.853 37.6288 152.251 37.7141 151.664 37.7898C151.087 37.8561 150.618 37.9129 150.258 37.9603C149.387 38.0739 148.572 38.2586 147.815 38.5143C147.067 38.7605 146.461 39.1345 145.997 39.6364C145.542 40.1288 145.315 40.8012 145.315 41.6535C145.315 42.8182 145.746 43.6989 146.607 44.2955C147.479 44.8826 148.582 45.1762 149.917 45.1762Z" fill="#69949F"/>
</svg>
