<svg width="163" height="68" viewBox="0 0 163 68" fill="none" xmlns="http://www.w3.org/2000/svg">
<g filter="url(#filter0_d_112_13)">
<path d="M74.0639 31.984C74.3111 32.4123 74.3111 32.94 74.0639 33.3684L56.2371 64.2547C55.9899 64.6831 55.533 64.9469 55.0386 64.9469L19.3852 64.9469C18.8907 64.9469 18.4339 64.6831 18.1866 64.2547L0.359923 33.3684C0.1127 32.94 0.1127 32.4123 0.359923 31.984L18.1866 1.0976C18.4339 0.66927 18.8907 0.405408 19.3852 0.405408L55.0386 0.40541C55.533 0.40541 55.9899 0.669273 56.2371 1.0976L74.0639 31.984Z" fill="#46556B"/>
</g>
<path d="M50.2002 46.186C50.2002 46.2511 49.5736 46.544 48.3203 47.0649C47.0833 47.5694 45.5127 48.0496 43.6084 48.5053C41.7041 48.9447 39.6533 49.1645 37.4561 49.1645C32.3942 49.1645 28.4635 47.6834 25.6641 44.7211C22.8646 41.7589 21.4648 37.4946 21.4648 31.9281C21.4648 28.1358 22.1484 24.8318 23.5156 22.016C24.8828 19.184 26.8197 17.003 29.3262 15.4731C31.849 13.9431 34.8112 13.1781 38.2129 13.1781C39.8405 13.1781 41.4844 13.3653 43.1445 13.7397C44.821 14.0977 46.2939 14.5046 47.5635 14.9604C48.833 15.3998 49.4678 15.6358 49.4678 15.6684L49.2236 23.9203H45.9521L44.4629 18.4272C44.3001 18.3621 43.9095 18.2563 43.291 18.1098C42.6725 17.947 41.8587 17.7924 40.8496 17.6459C39.8568 17.4994 38.807 17.4262 37.7002 17.4262C34.3311 17.4262 31.735 18.655 29.9121 21.1127C28.1055 23.5541 27.2021 27.0779 27.2021 31.684C27.2021 36.046 28.195 39.3419 30.1807 41.5717C32.1663 43.8015 34.8438 44.9164 38.2129 44.9164C39.2383 44.9164 40.2637 44.8269 41.2891 44.6479C42.3307 44.4688 43.2015 44.2817 43.9014 44.0863C44.6012 43.8748 45.0407 43.7364 45.2197 43.6713V35.4682L40.9717 34.4672V31.7328L53.96 31.4643V34.4672L50.2002 35.4682V46.186Z" fill="#B3DBE6"/>
<path d="M58.1492 47.6762V25.858H61.3879V29.1535H61.6151C62.0129 28.0739 62.7326 27.198 63.7742 26.5256C64.8159 25.8533 65.9901 25.5171 67.297 25.5171C67.5432 25.5171 67.8509 25.5218 68.2203 25.5313C68.5896 25.5408 68.8689 25.555 69.0583 25.5739V28.983C68.9447 28.9546 68.6843 28.912 68.2771 28.8552C67.8794 28.7889 67.4579 28.7557 67.0129 28.7557C65.9523 28.7557 65.0053 28.9783 64.172 29.4234C63.3481 29.859 62.6947 30.465 62.2117 31.2415C61.7383 32.0086 61.5015 32.8845 61.5015 33.8694V47.6762H58.1492ZM79.4525 48.1876C78.0699 48.1876 76.8152 47.9271 75.6883 47.4063C74.5614 46.876 73.6665 46.1137 73.0036 45.1194C72.3408 44.1156 72.0093 42.9035 72.0093 41.483C72.0093 40.233 72.2555 39.2198 72.748 38.4432C73.2404 37.6573 73.8985 37.0417 74.7224 36.5966C75.5463 36.1516 76.4553 35.8201 77.4497 35.6023C78.4535 35.3751 79.462 35.1951 80.4752 35.0626C81.801 34.8921 82.8758 34.7643 83.6997 34.679C84.533 34.5843 85.1391 34.4281 85.5178 34.2103C85.9061 33.9925 86.1002 33.6137 86.1002 33.0739V32.9603C86.1002 31.5588 85.7167 30.4698 84.9497 29.6932C84.1921 28.9167 83.0415 28.5285 81.498 28.5285C79.8976 28.5285 78.6428 28.8788 77.7338 29.5796C76.8247 30.2804 76.1855 31.0285 75.8161 31.8239L72.6343 30.6876C73.2025 29.3618 73.9601 28.3296 74.907 27.591C75.8635 26.8429 76.9052 26.322 78.032 26.0285C79.1684 25.7254 80.2858 25.5739 81.3843 25.5739C82.0851 25.5739 82.89 25.6591 83.7991 25.8296C84.7177 25.9906 85.6031 26.3268 86.4553 26.8381C87.3171 27.3495 88.032 28.1213 88.6002 29.1535C89.1684 30.1857 89.4525 31.5682 89.4525 33.3012V47.6762H86.1002V44.7216H85.9298C85.7025 45.1951 85.3237 45.7018 84.7934 46.2415C84.2631 46.7813 83.5576 47.2406 82.6769 47.6194C81.7963 47.9982 80.7214 48.1876 79.4525 48.1876ZM79.9639 45.1762C81.2896 45.1762 82.407 44.9158 83.3161 44.3949C84.2347 43.8741 84.926 43.2018 85.39 42.3779C85.8635 41.554 86.1002 40.6876 86.1002 39.7785V36.7103C85.9582 36.8807 85.6457 37.037 85.1627 37.179C84.6892 37.3116 84.14 37.43 83.515 37.5341C82.8995 37.6288 82.2981 37.7141 81.711 37.7898C81.1334 37.8561 80.6646 37.9129 80.3048 37.9603C79.4336 38.0739 78.6192 38.2586 77.8616 38.5143C77.1135 38.7605 76.5074 39.1345 76.0434 39.6364C75.5889 40.1288 75.3616 40.8012 75.3616 41.6535C75.3616 42.8182 75.7925 43.6989 76.6542 44.2955C77.5254 44.8826 78.6286 45.1762 79.9639 45.1762ZM80.0775 22.9035L83.5434 16.3126H87.4639L83.032 22.9035H80.0775ZM105.287 25.858V28.6989H93.5257V25.858H105.287ZM97.0484 47.6762V22.8466C97.0484 21.5966 97.3419 20.555 97.9291 19.7216C98.5162 18.8883 99.2785 18.2633 100.216 17.8466C101.153 17.43 102.143 17.2216 103.185 17.2216C104.009 17.2216 104.681 17.2879 105.202 17.4205C105.723 17.5531 106.111 17.6762 106.367 17.7898L105.401 20.6876C105.23 20.6307 104.993 20.5597 104.69 20.4745C104.397 20.3893 104.009 20.3466 103.526 20.3466C102.418 20.3466 101.618 20.626 101.125 21.1847C100.642 21.7434 100.401 22.5626 100.401 23.6421V47.6762H97.0484ZM109.985 47.6762V25.858H113.337V47.6762H109.985ZM111.69 22.2216C111.036 22.2216 110.473 21.9991 109.999 21.554C109.535 21.109 109.303 20.5739 109.303 19.9489C109.303 19.3239 109.535 18.7889 109.999 18.3438C110.473 17.8987 111.036 17.6762 111.69 17.6762C112.343 17.6762 112.902 17.8987 113.366 18.3438C113.839 18.7889 114.076 19.3239 114.076 19.9489C114.076 20.5739 113.839 21.109 113.366 21.554C112.902 21.9991 112.343 22.2216 111.69 22.2216ZM128.341 48.1307C126.296 48.1307 124.534 47.6478 123.057 46.6819C121.58 45.716 120.443 44.3855 119.648 42.6904C118.852 40.9953 118.455 39.0588 118.455 36.8807C118.455 34.6648 118.862 32.7093 119.676 31.0143C120.5 29.3097 121.646 27.9792 123.114 27.0228C124.591 26.0569 126.314 25.5739 128.284 25.5739C129.818 25.5739 131.201 25.858 132.432 26.4262C133.663 26.9944 134.671 27.7898 135.457 28.8126C136.243 29.8353 136.731 31.0285 136.921 32.3921H133.568C133.313 31.3978 132.744 30.5171 131.864 29.7501C130.993 28.9735 129.818 28.5853 128.341 28.5853C127.034 28.5853 125.888 28.9262 124.903 29.608C123.928 30.2804 123.166 31.2321 122.617 32.4631C122.077 33.6847 121.807 35.1194 121.807 36.7671C121.807 38.4527 122.072 39.9205 122.602 41.1705C123.142 42.4205 123.9 43.3912 124.875 44.0824C125.86 44.7737 127.015 45.1194 128.341 45.1194C129.212 45.1194 130.003 44.9679 130.713 44.6648C131.423 44.3618 132.025 43.9262 132.517 43.358C133.01 42.7898 133.36 42.108 133.568 41.3126H136.921C136.731 42.6004 136.262 43.7605 135.514 44.7927C134.776 45.8154 133.796 46.6298 132.574 47.2359C131.362 47.8324 129.951 48.1307 128.341 48.1307ZM150.685 48.1307C148.715 48.1307 146.987 47.662 145.5 46.7245C144.023 45.787 142.868 44.4754 142.034 42.7898C141.21 41.1042 140.798 39.1345 140.798 36.8807C140.798 34.608 141.21 32.6241 142.034 30.929C142.868 29.234 144.023 27.9177 145.5 26.9802C146.987 26.0427 148.715 25.5739 150.685 25.5739C152.654 25.5739 154.378 26.0427 155.855 26.9802C157.342 27.9177 158.497 29.234 159.321 30.929C160.154 32.6241 160.571 34.608 160.571 36.8807C160.571 39.1345 160.154 41.1042 159.321 42.7898C158.497 44.4754 157.342 45.787 155.855 46.7245C154.378 47.662 152.654 48.1307 150.685 48.1307ZM150.685 45.1194C152.181 45.1194 153.412 44.7359 154.378 43.9688C155.344 43.2018 156.059 42.1932 156.523 40.9432C156.987 39.6932 157.219 38.3391 157.219 36.8807C157.219 35.4224 156.987 34.0635 156.523 32.804C156.059 31.5446 155.344 30.5266 154.378 29.7501C153.412 28.9735 152.181 28.5853 150.685 28.5853C149.189 28.5853 147.957 28.9735 146.992 29.7501C146.026 30.5266 145.311 31.5446 144.847 32.804C144.383 34.0635 144.151 35.4224 144.151 36.8807C144.151 38.3391 144.383 39.6932 144.847 40.9432C145.311 42.1932 146.026 43.2018 146.992 43.9688C147.957 44.7359 149.189 45.1194 150.685 45.1194Z" fill="#69949F"/>
<defs>
<filter id="filter0_d_112_13" x="0.174561" y="0.405411" width="76.0747" height="67.5415" filterUnits="userSpaceOnUse" color-interpolation-filters="sRGB">
<feFlood flood-opacity="0" result="BackgroundImageFix"/>
<feColorMatrix in="SourceAlpha" type="matrix" values="0 0 0 0 0 0 0 0 0 0 0 0 0 0 0 0 0 0 127 0" result="hardAlpha"/>
<feOffset dx="2" dy="3"/>
<feComposite in2="hardAlpha" operator="out"/>
<feColorMatrix type="matrix" values="0 0 0 0 0.0705882 0 0 0 0 0.0862745 0 0 0 0 0.105882 0 0 0 1 0"/>
<feBlend mode="normal" in2="BackgroundImageFix" result="effect1_dropShadow_112_13"/>
<feBlend mode="normal" in="SourceGraphic" in2="effect1_dropShadow_112_13" result="shape"/>
</filter>
</defs>
</svg>
