<svg width="344" height="91" viewBox="0 0 344 91" fill="none" xmlns="http://www.w3.org/2000/svg">
<path d="M6.40674 31.1543L2.5835 30.2534V27.7925L11.1309 27.5508H16.7559C21.1943 27.5508 24.666 28.8838 27.1709 31.5498C29.6758 34.2012 30.9282 37.9732 30.9282 42.8658C30.9282 46.1324 30.3203 48.9888 29.1045 51.4351C27.9033 53.8814 26.1748 55.7637 23.9189 57.0821C21.6631 58.4004 19.0557 59.0596 16.0967 59.0596H2.5835V56.357L6.40674 55.4561V31.1543ZM16.3164 55.4561C19.2607 55.4561 21.5679 54.4307 23.2378 52.3799C24.9224 50.3291 25.7646 47.231 25.7646 43.0855C25.7646 39.0425 24.9517 36.0469 23.3257 34.0987C21.7144 32.1358 19.4512 31.1543 16.5361 31.1543H11.1309V55.4561H16.3164ZM37.6323 31.2666C37.6323 30.3812 37.8862 29.6911 38.394 29.1963C38.9019 28.7015 39.5138 28.4541 40.23 28.4541C41.9618 28.4541 42.8276 29.3916 42.8276 31.2666C42.8276 32.126 42.5607 32.8096 42.0269 33.3174C41.493 33.8122 40.894 34.0596 40.23 34.0596C39.4357 34.0596 38.8042 33.8122 38.3354 33.3174C37.8667 32.8226 37.6323 32.139 37.6323 31.2666ZM45.4253 59.0596H35.0347V56.8526L38.4331 55.8565V41.0518L35.0347 40.251V38.0635L42.437 37.8682V55.8565L45.4253 56.8526V59.0596ZM51.9097 56.0909C51.9097 56.1169 52.2417 56.1885 52.9058 56.3057C53.5698 56.4099 54.3576 56.4619 55.269 56.4619C58.2769 56.4619 59.7873 55.4073 59.8003 53.2979C59.8003 52.4385 59.4292 51.794 58.687 51.3643C57.9578 50.9216 56.8185 50.4593 55.269 49.9776C53.8498 49.5218 52.6974 49.0856 51.812 48.669C50.9396 48.2393 50.1909 47.6273 49.5659 46.833C48.9409 46.0257 48.6284 44.9841 48.6284 43.708C48.6284 41.7028 49.3055 40.1599 50.6597 39.0791C52.0269 37.9984 53.7912 37.458 55.9526 37.458C56.8901 37.458 57.8602 37.5492 58.8628 37.7315C59.8784 37.9007 60.7378 38.083 61.4409 38.2784C62.1571 38.4737 62.6063 38.6039 62.7886 38.669L62.6714 44.0596H60.0737L59.4292 40.9346C59.3511 40.9086 59.1753 40.8565 58.9019 40.7784C58.6414 40.7002 58.2703 40.6286 57.7886 40.5635C57.3068 40.4984 56.7729 40.4659 56.187 40.4659C53.8172 40.4659 52.6323 41.3578 52.6323 43.1416C52.6323 44.001 53.0099 44.6651 53.7651 45.1338C54.5334 45.5895 55.6857 46.0713 57.2222 46.5791C58.6024 47.0609 59.7352 47.5101 60.6206 47.9268C61.506 48.3304 62.2547 48.9229 62.8667 49.7041C63.4787 50.4724 63.7847 51.4424 63.7847 52.6143C63.7847 54.8278 62.9513 56.5205 61.2847 57.6924C59.618 58.8643 57.5216 59.4502 54.9956 59.4502C53.9019 59.4502 52.8862 59.3851 51.9487 59.2549C51.0112 59.1247 50.2625 58.9945 49.7026 58.8643C49.1427 58.7341 48.7977 58.6364 48.6675 58.5713V52.6534H51.48L51.9097 56.0909ZM71.3823 49.0596C71.3823 51.2471 71.9162 52.9984 72.9839 54.3135C74.0516 55.6156 75.4513 56.2666 77.1831 56.2666C78.355 56.2666 79.4422 56.1039 80.4448 55.7784C81.4474 55.4528 82.2743 55.1013 82.9253 54.7237C83.5763 54.333 83.9019 54.1117 83.9019 54.0596L85.3081 56.1299C85.3081 56.182 84.8719 56.5075 83.9995 57.1065C83.1401 57.6924 82.0724 58.2328 80.7964 58.7276C79.5334 59.2093 78.1922 59.4502 76.7729 59.4502C73.6219 59.4502 71.2326 58.4997 69.605 56.5987C67.9904 54.6976 67.1831 52.0544 67.1831 48.669C67.1831 46.5596 67.5933 44.652 68.4136 42.9463C69.2469 41.2406 70.4058 39.8994 71.8901 38.9229C73.3875 37.9463 75.0868 37.458 76.9878 37.458C82.5868 37.458 85.3862 40.5895 85.3862 46.8526C85.3862 47.2823 85.3602 47.7119 85.3081 48.1416C85.256 48.5713 85.217 48.8513 85.1909 48.9815L71.3823 49.0596ZM81.1479 46.0518C81.1479 44.4242 80.7964 43.1091 80.0933 42.1065C79.4032 41.0909 78.2964 40.583 76.7729 40.583C75.2235 40.583 73.993 41.1039 73.0815 42.1455C72.1831 43.1872 71.6688 44.4893 71.5386 46.0518H81.1479ZM92.9058 32.2237C92.9058 32.1455 93.0946 31.781 93.4722 31.1299C93.8628 30.4659 94.3836 29.8604 95.0347 29.3135C95.6987 28.7666 96.4539 28.4932 97.3003 28.4932C97.9383 28.4932 98.5308 28.5778 99.0776 28.7471C99.6245 28.9034 100.23 29.1377 100.894 29.4502C101.532 29.7497 102.079 29.9645 102.535 30.0948C102.99 30.225 103.472 30.2901 103.98 30.2901C104.41 30.2901 104.826 30.1664 105.23 29.919C105.647 29.6716 105.979 29.4177 106.226 29.1573C106.486 28.8838 106.643 28.7015 106.695 28.6104L108.101 30.0166C108.101 30.0948 107.912 30.4593 107.535 31.1104C107.17 31.7484 106.662 32.3343 106.011 32.8682C105.373 33.402 104.631 33.669 103.785 33.669C103.147 33.669 102.554 33.5909 102.007 33.4346C101.46 33.2653 100.855 33.0179 100.191 32.6924C99.5529 32.3929 99.006 32.1781 98.5503 32.0479C98.0946 31.9177 97.6128 31.8526 97.105 31.8526C96.5972 31.8526 96.1349 31.9893 95.7183 32.2627C95.3146 32.5231 94.9891 32.7966 94.7417 33.083C94.5073 33.3565 94.3641 33.5323 94.312 33.6104L92.9058 32.2237ZM95.7378 40.7002C96.5711 39.9841 97.6584 39.2679 98.9995 38.5518C100.354 37.8226 101.747 37.458 103.179 37.458C105.315 37.458 106.916 38.0961 107.984 39.3721C109.052 40.6351 109.585 42.3994 109.585 44.6651V55.8565L112.574 56.8526V59.0596H102.984V56.8526L105.582 55.8565V45.0557C105.582 43.6104 105.302 42.5492 104.742 41.8721C104.182 41.195 103.264 40.8565 101.988 40.8565C100.972 40.8565 100.035 41.0974 99.1753 41.5791C98.3289 42.0609 97.6193 42.5817 97.0464 43.1416C96.4735 43.7015 96.187 44.0075 96.187 44.0596V55.8565L98.7847 56.8526V59.0596H88.7847V56.8526L92.1831 55.8565V41.0518L88.7847 40.251V38.0635L95.3862 37.8682L95.7378 40.7002ZM125.582 37.458C128.537 37.458 130.842 38.4151 132.496 40.3291C134.149 42.2302 134.976 44.8083 134.976 48.0635C134.976 50.3031 134.559 52.2888 133.726 54.0205C132.906 55.7523 131.734 57.0935 130.21 58.044C128.7 58.9815 126.955 59.4502 124.976 59.4502C121.942 59.4502 119.585 58.5388 117.906 56.7159C116.226 54.8929 115.386 52.2106 115.386 48.669C115.386 46.4294 115.816 44.4632 116.675 42.7705C117.548 41.0648 118.752 39.7562 120.289 38.8448C121.825 37.9203 123.589 37.458 125.582 37.458ZM125.386 40.6612C123.407 40.6612 121.942 41.3122 120.992 42.6143C120.054 43.9034 119.585 45.85 119.585 48.4541C119.585 53.6494 121.454 56.2536 125.191 56.2666C127.144 56.2666 128.563 55.6026 129.449 54.2744C130.334 52.9333 130.777 50.9281 130.777 48.2588C130.777 43.1937 128.98 40.6612 125.386 40.6612Z" fill="#B3DBE6"/>
<path d="M171.207 57.0674C171.207 57.1195 170.705 57.3539 169.703 57.7705C168.713 58.1742 167.457 58.5583 165.933 58.9229C164.41 59.2744 162.769 59.4502 161.011 59.4502C156.962 59.4502 153.817 58.2653 151.578 55.8955C149.338 53.5257 148.218 50.1143 148.218 45.6612C148.218 42.6273 148.765 39.9841 149.859 37.7315C150.953 35.4659 152.502 33.7211 154.507 32.4971C156.526 31.2731 158.895 30.6612 161.617 30.6612C162.919 30.6612 164.234 30.8109 165.562 31.1104C166.903 31.3968 168.082 31.7224 169.097 32.0869C170.113 32.4385 170.621 32.6273 170.621 32.6534L170.425 39.2549H167.808L166.617 34.8604C166.486 34.8083 166.174 34.7237 165.679 34.6065C165.184 34.4763 164.533 34.3526 163.726 34.2354C162.932 34.1182 162.092 34.0596 161.207 34.0596C158.511 34.0596 156.434 35.0427 154.976 37.0088C153.531 38.9619 152.808 41.781 152.808 45.4659C152.808 48.9554 153.602 51.5922 155.191 53.376C156.779 55.1599 158.921 56.0518 161.617 56.0518C162.437 56.0518 163.257 55.9802 164.078 55.8369C164.911 55.6937 165.608 55.544 166.167 55.3877C166.727 55.2185 167.079 55.1078 167.222 55.0557V48.4932L163.824 47.6924V45.5049L174.214 45.2901V47.6924L171.207 48.4932V57.0674ZM184.371 40.7784C185.126 39.958 186.018 39.2028 187.046 38.5127C188.088 37.8096 189.214 37.458 190.425 37.458C191.011 37.458 191.565 37.5036 192.085 37.5948C192.619 37.6859 193.056 37.7836 193.394 37.8877C193.733 37.9789 193.941 38.0375 194.019 38.0635L193.824 43.8643H191.207L190.621 40.8565C189.292 40.8565 188.147 41.1755 187.183 41.8135C186.22 42.4515 185.432 43.1742 184.82 43.9815V55.8565L188.824 56.8526V59.0596H177.417V56.8526L180.816 55.8565V41.0518L177.417 40.251V38.0635L184.019 37.8682L184.371 40.7784ZM197.027 39.0596C197.235 38.9815 197.756 38.8187 198.589 38.5713C199.436 38.3109 200.432 38.0635 201.578 37.8291C202.723 37.5817 203.804 37.458 204.82 37.458C207.242 37.458 209.078 37.9398 210.328 38.9034C211.591 39.8669 212.222 41.4554 212.222 43.669V55.8565L215.425 56.6573V58.8643L209.214 59.0596L208.375 56.2666C207.515 57.126 206.519 57.8747 205.386 58.5127C204.266 59.1377 203.075 59.4502 201.812 59.4502C199.924 59.4502 198.453 58.9294 197.398 57.8877C196.343 56.833 195.816 55.3552 195.816 53.4541C195.816 51.2406 196.61 49.6586 198.199 48.708C199.787 47.7445 202.059 47.2627 205.015 47.2627H208.218V44.0596C208.218 42.8877 207.893 41.9958 207.242 41.3838C206.591 40.7718 205.647 40.4659 204.41 40.4659C203.694 40.4659 203.036 40.5114 202.437 40.6026C201.838 40.6937 201.363 40.7849 201.011 40.876C200.673 40.9672 200.464 41.0257 200.386 41.0518L199.82 44.0596H197.222L197.027 39.0596ZM205.425 49.8604C203.446 49.8604 202.027 50.1273 201.167 50.6612C200.321 51.195 199.898 52.0609 199.898 53.2588C199.898 54.1703 200.158 54.8994 200.679 55.4463C201.2 55.9932 201.916 56.2666 202.828 56.2666C203.713 56.2666 204.553 56.0257 205.347 55.544C206.141 55.0622 206.819 54.5414 207.378 53.9815C207.938 53.4216 208.218 53.1156 208.218 53.0635V49.8604H205.425ZM208.218 27.0674L210.23 30.0557L201.832 35.251L200.425 33.2588L208.218 27.0674ZM222.027 36.0518C222.027 33.3044 222.776 31.2536 224.273 29.8994C225.77 28.5453 228.095 27.8682 231.246 27.8682C232.496 27.8682 233.713 27.9659 234.898 28.1612C236.083 28.3565 237.053 28.5648 237.808 28.7862C238.576 28.9945 239.052 29.1377 239.234 29.2159V34.0596H236.031L235.445 31.1885C235.236 31.1625 234.742 31.1039 233.96 31.0127C233.179 30.9086 232.339 30.8565 231.441 30.8565C227.847 30.8565 226.044 32.3213 226.031 35.251V38.0635L239.839 37.8682V55.8565L242.828 56.8526V59.0596H232.828V56.8526L235.835 55.8565V41.0518H226.031V55.8565L229.312 56.8526V59.0596H218.628V56.8526L222.027 55.8565V41.0518H218.433V38.4541L222.027 38.0635V36.0518ZM259.644 41.0518C259.462 40.9997 259.026 40.9216 258.335 40.8174C257.645 40.7132 256.884 40.6612 256.05 40.6612C254.136 40.6612 252.658 41.2797 251.617 42.5166C250.575 43.7536 250.054 45.6026 250.054 48.0635C250.054 50.7328 250.601 52.7705 251.695 54.1768C252.789 55.57 254.306 56.2666 256.246 56.2666C257.365 56.2666 258.388 56.0843 259.312 55.7198C260.236 55.3552 260.992 54.9711 261.578 54.5674C262.164 54.1507 262.457 53.9164 262.457 53.8643L263.863 56.2666C263.863 56.3187 263.446 56.6247 262.613 57.1846C261.792 57.7445 260.783 58.2653 259.585 58.7471C258.401 59.2159 257.157 59.4502 255.855 59.4502C252.6 59.4502 250.119 58.4867 248.414 56.5596C246.708 54.6325 245.855 51.9307 245.855 48.4541C245.855 46.3187 246.278 44.4177 247.125 42.751C247.984 41.0843 249.195 39.7888 250.757 38.8643C252.32 37.9268 254.149 37.458 256.246 37.458C257.313 37.458 258.355 37.5817 259.371 37.8291C260.386 38.0635 261.213 38.3109 261.851 38.5713C262.489 38.8187 262.893 38.9815 263.062 39.0596L262.847 44.4502H260.25L259.644 41.0518ZM276.441 37.458C279.397 37.458 281.701 38.4151 283.355 40.3291C285.009 42.2302 285.835 44.8083 285.835 48.0635C285.835 50.3031 285.419 52.2888 284.585 54.0205C283.765 55.7523 282.593 57.0935 281.07 58.044C279.559 58.9815 277.815 59.4502 275.835 59.4502C272.802 59.4502 270.445 58.5388 268.765 56.7159C267.085 54.8929 266.246 52.2106 266.246 48.669C266.246 46.4294 266.675 44.4632 267.535 42.7705C268.407 41.0648 269.611 39.7562 271.148 38.8448C272.684 37.9203 274.449 37.458 276.441 37.458ZM276.246 40.6612C274.266 40.6612 272.802 41.3122 271.851 42.6143C270.914 43.9034 270.445 45.85 270.445 48.4541C270.445 53.6494 272.313 56.2536 276.05 56.2666C278.003 56.2666 279.423 55.6026 280.308 54.2744C281.194 52.9333 281.636 50.9281 281.636 48.2588C281.636 43.1937 279.839 40.6612 276.246 40.6612Z" fill="#406B76"/>
<g filter="url(#filter0_d_133_198)">
<path d="M297.516 52.9877L297.509 37.1277C297.509 36.9078 297.863 36.7045 298.437 36.5946L339.825 28.6665C340.399 28.5565 341.106 28.5565 341.681 28.6665L341.694 61.4528C341.12 61.5628 340.413 61.5627 339.839 61.4527L298.444 53.5209C297.87 53.4109 297.516 53.2076 297.516 52.9877Z" fill="#9FD1DD"/>
</g>
<defs>
<filter id="filter0_d_133_198" x="297.509" y="28.584" width="46.1846" height="35.9512" filterUnits="userSpaceOnUse" color-interpolation-filters="sRGB">
<feFlood flood-opacity="0" result="BackgroundImageFix"/>
<feColorMatrix in="SourceAlpha" type="matrix" values="0 0 0 0 0 0 0 0 0 0 0 0 0 0 0 0 0 0 127 0" result="hardAlpha"/>
<feOffset dx="2" dy="3"/>
<feComposite in2="hardAlpha" operator="out"/>
<feColorMatrix type="matrix" values="0 0 0 0 0.0705882 0 0 0 0 0.0862745 0 0 0 0 0.105882 0 0 0 1 0"/>
<feBlend mode="normal" in2="BackgroundImageFix" result="effect1_dropShadow_133_198"/>
<feBlend mode="normal" in="SourceGraphic" in2="effect1_dropShadow_133_198" result="shape"/>
</filter>
</defs>
</svg>
