<svg width="258" height="127" viewBox="0 0 258 127" fill="none" xmlns="http://www.w3.org/2000/svg">
<path d="M6.56689 56.4849L11.0713 55.584V31.2823H5.22656L4.10596 35.7867H1.16162V27.6788H25.7051V35.7867H22.7827L21.6401 31.2823H15.7954V55.584L20.2998 56.4849V59.1875H6.56689V56.4849ZM32.6924 47.9375C32.6924 50.3985 33.293 52.3687 34.4941 53.8482C35.6953 55.313 37.27 56.0455 39.2183 56.0455C40.5366 56.0455 41.7598 55.8624 42.8877 55.4961C44.0156 55.1299 44.9458 54.7344 45.6782 54.3096C46.4106 53.8702 46.7769 53.6211 46.7769 53.5625L48.3589 55.8916C48.3589 55.9502 47.8682 56.3165 46.8867 56.9903C45.9199 57.6495 44.7188 58.2574 43.2832 58.814C41.8623 59.356 40.3535 59.627 38.7568 59.627C35.2119 59.627 32.5239 58.5577 30.6929 56.419C28.8765 54.2803 27.9683 51.3067 27.9683 47.4981C27.9683 45.125 28.4297 42.979 29.3525 41.0601C30.29 39.1412 31.5938 37.6324 33.2637 36.5337C34.9482 35.4351 36.8599 34.8858 38.9985 34.8858C45.2974 34.8858 48.4468 38.4087 48.4468 45.4546C48.4468 45.938 48.4175 46.4214 48.3589 46.9048C48.3003 47.3882 48.2563 47.7032 48.2271 47.8497L32.6924 47.9375ZM43.6787 44.5538C43.6787 42.7227 43.2832 41.2432 42.4922 40.1153C41.7158 38.9727 40.4707 38.4014 38.7568 38.4014C37.0137 38.4014 35.6294 38.9874 34.604 40.1592C33.5933 41.3311 33.0146 42.7959 32.8682 44.5538H43.6787ZM68.2222 38.9288C68.0171 38.8702 67.5264 38.7823 66.75 38.6651C65.9736 38.5479 65.1167 38.4893 64.1792 38.4893C62.0259 38.4893 60.3633 39.1851 59.1914 40.5767C58.0195 41.9683 57.4336 44.0484 57.4336 46.8169C57.4336 49.8199 58.0488 52.1124 59.2793 53.6944C60.5098 55.2618 62.2163 56.0455 64.3989 56.0455C65.6587 56.0455 66.8086 55.8404 67.8486 55.4302C68.8887 55.0201 69.7383 54.5879 70.3975 54.1338C71.0566 53.6651 71.3862 53.4014 71.3862 53.3428L72.9683 56.0455C72.9683 56.104 72.4995 56.4483 71.562 57.0782C70.6392 57.7081 69.5039 58.294 68.1562 58.836C66.8232 59.3633 65.4243 59.627 63.9595 59.627C60.2974 59.627 57.5068 58.543 55.5879 56.375C53.6689 54.2071 52.7095 51.1675 52.7095 47.2564C52.7095 44.854 53.1855 42.7154 54.1377 40.8404C55.1045 38.9654 56.4668 37.5079 58.2246 36.4678C59.9824 35.4131 62.0405 34.8858 64.3989 34.8858C65.6001 34.8858 66.772 35.0249 67.9146 35.3033C69.0571 35.5669 69.9873 35.8453 70.7051 36.1382C71.4229 36.4165 71.877 36.5997 72.0674 36.6875L71.8257 42.752H68.9033L68.2222 38.9288ZM83.4712 38.5332C84.4087 37.7276 85.6318 36.9219 87.1406 36.1163C88.6641 35.2959 90.2314 34.8858 91.8428 34.8858C94.2451 34.8858 96.0469 35.6036 97.248 37.0391C98.4492 38.46 99.0498 40.4449 99.0498 42.9937V55.584L102.412 56.7046V59.1875H91.623V56.7046L94.5454 55.584V43.4332C94.5454 41.8072 94.2305 40.6133 93.6006 39.8516C92.9707 39.0899 91.938 38.709 90.5024 38.709C89.3599 38.709 88.3052 38.98 87.3384 39.522C86.3862 40.064 85.5879 40.6499 84.9434 41.2798C84.2988 41.9097 83.9766 42.254 83.9766 42.3125V55.584L86.8989 56.7046V59.1875H75.6489V56.7046L79.4722 55.584V38.9288L75.6489 38.0279V35.5669L83.0757 35.3472L83.4712 38.5332ZM117.045 34.8858C120.371 34.8858 122.963 35.9624 124.824 38.1158C126.684 40.2544 127.614 43.1548 127.614 46.8169C127.614 49.3365 127.146 51.5704 126.208 53.5186C125.285 55.4668 123.967 56.9756 122.253 58.045C120.554 59.0997 118.591 59.627 116.364 59.627C112.951 59.627 110.3 58.6016 108.41 56.5508C106.521 54.5 105.576 51.4825 105.576 47.4981C105.576 44.9786 106.059 42.7666 107.026 40.8624C108.007 38.9434 109.362 37.4712 111.091 36.4458C112.819 35.4058 114.804 34.8858 117.045 34.8858ZM116.826 38.4893C114.599 38.4893 112.951 39.2217 111.882 40.6866C110.827 42.1368 110.3 44.3267 110.3 47.2564C110.3 53.1011 112.402 56.0308 116.606 56.0455C118.803 56.0455 120.4 55.2984 121.396 53.8042C122.392 52.2955 122.89 50.0396 122.89 47.0367C122.89 41.3384 120.869 38.4893 116.826 38.4893Z" fill="#406B76"/>
<path d="M143.017 59.1875H130.559V56.7046L134.382 55.584V28.1402L130.559 27.2393V24.7564L138.974 24.5367V55.584L143.017 56.7046V59.1875ZM156.508 34.8858C159.833 34.8858 162.426 35.9624 164.287 38.1158C166.147 40.2544 167.077 43.1548 167.077 46.8169C167.077 49.3365 166.608 51.5704 165.671 53.5186C164.748 55.4668 163.43 56.9756 161.716 58.045C160.017 59.0997 158.054 59.627 155.827 59.627C152.414 59.627 149.763 58.6016 147.873 56.5508C145.983 54.5 145.039 51.4825 145.039 47.4981C145.039 44.9786 145.522 42.7666 146.489 40.8624C147.47 38.9434 148.825 37.4712 150.554 36.4458C152.282 35.4058 154.267 34.8858 156.508 34.8858ZM156.289 38.4893C154.062 38.4893 152.414 39.2217 151.345 40.6866C150.29 42.1368 149.763 44.3267 149.763 47.2564C149.763 53.1011 151.865 56.0308 156.069 56.0455C158.266 56.0455 159.863 55.2984 160.859 53.8042C161.855 52.2955 162.353 50.0396 162.353 47.0367C162.353 41.3384 160.332 38.4893 156.289 38.4893ZM189.731 38.6651C189.79 38.753 189.914 38.98 190.104 39.3462C190.31 39.6978 190.5 40.2178 190.676 40.9063C190.866 41.5801 190.961 42.3492 190.961 43.2134C190.961 46.1578 190.075 48.355 188.303 49.8052C186.53 51.2554 184.113 51.9805 181.052 51.9805C180.217 51.9805 179.484 51.9292 178.854 51.8267C178.225 51.7242 177.829 51.6436 177.668 51.585L177.448 55.8038H184.436C187.38 55.8038 189.614 56.3604 191.137 57.4737C192.661 58.587 193.422 60.2056 193.422 62.3296C193.422 64.8785 192.434 66.8633 190.456 68.2842C188.479 69.7198 185.571 70.4375 181.733 70.4375C178.349 70.4375 175.698 69.9322 173.779 68.9214C171.875 67.9253 170.922 66.2554 170.922 63.9117C170.922 62.7105 171.274 61.6851 171.977 60.8355C172.68 60.0005 173.464 59.356 174.328 58.9019C175.207 58.4332 175.646 58.2281 175.646 58.2867C175.646 58.316 175.397 58.2574 174.899 58.1109C174.416 57.9644 173.969 57.7007 173.559 57.3199C173.149 56.939 172.944 56.4043 172.944 55.7159C172.944 55.2618 173.112 54.6612 173.449 53.9141C173.801 53.167 174.167 52.4786 174.548 51.8487C174.929 51.2188 175.178 50.816 175.295 50.6402C175.295 50.7281 174.973 50.501 174.328 49.959C173.684 49.417 173.105 48.6333 172.592 47.608C172.08 46.5679 171.823 45.2496 171.823 43.6529C171.823 40.7964 172.717 38.6211 174.504 37.127C176.291 35.6329 178.701 34.8858 181.733 34.8858C182.597 34.8858 183.359 34.9444 184.018 35.0616C184.677 35.1788 185.183 35.3106 185.534 35.4571C185.9 35.5889 186.127 35.6841 186.215 35.7427L194.104 35.5669V38.0279L189.731 38.6651ZM181.491 38.0279C179.733 38.0279 178.43 38.4747 177.58 39.3682C176.745 40.2471 176.328 41.6021 176.328 43.4332C176.328 45.0884 176.745 46.4068 177.58 47.3882C178.43 48.355 179.66 48.8384 181.271 48.8384C183.073 48.8384 184.384 48.4136 185.205 47.564C186.04 46.6998 186.457 45.3228 186.457 43.4332C186.457 41.69 186.04 40.357 185.205 39.4341C184.384 38.4966 183.146 38.0279 181.491 38.0279ZM178.349 59.1875C178.349 59.129 178.078 59.2828 177.536 59.649C176.994 60.0298 176.503 60.5206 176.064 61.1211C175.639 61.7217 175.427 62.4249 175.427 63.2305C175.427 64.6954 176.005 65.6988 177.163 66.2408C178.32 66.7828 180.063 67.0538 182.392 67.0538C184.677 67.0538 186.376 66.7022 187.49 65.9991C188.603 65.2959 189.16 64.2266 189.16 62.7911C189.16 61.4141 188.669 60.4693 187.688 59.9566C186.706 59.4439 185.241 59.1875 183.293 59.1875H178.349ZM208.715 59.1875H197.026V56.7046L200.849 55.584V38.9288L197.026 38.0279V35.5669L205.354 35.3472V55.584L208.715 56.7046V59.1875ZM206.914 23.1963L209.177 26.5582L199.729 32.4029L198.146 30.1617L206.914 23.1963ZM213.681 36.6875C213.916 36.5997 214.501 36.4165 215.439 36.1382C216.391 35.8453 217.512 35.5669 218.801 35.3033C220.09 35.0249 221.306 34.8858 222.448 34.8858C225.173 34.8858 227.238 35.4278 228.645 36.5118C230.065 37.5957 230.776 39.3829 230.776 41.8731V55.584L234.379 56.4849V58.9678L227.392 59.1875L226.447 56.0455C225.48 57.0123 224.36 57.8545 223.085 58.5723C221.826 59.2754 220.485 59.627 219.064 59.627C216.94 59.627 215.285 59.0411 214.099 57.8692C212.912 56.6827 212.319 55.0201 212.319 52.8814C212.319 50.3912 213.212 48.6114 215 47.542C216.787 46.4581 219.343 45.9161 222.668 45.9161H226.271V42.3125C226.271 40.9942 225.905 39.9908 225.173 39.3023C224.44 38.6138 223.378 38.2696 221.987 38.2696C221.181 38.2696 220.441 38.3208 219.768 38.4234C219.094 38.5259 218.559 38.6285 218.164 38.731C217.783 38.8335 217.548 38.8995 217.46 38.9288L216.823 42.3125H213.901L213.681 36.6875ZM223.129 48.8384C220.903 48.8384 219.306 49.1387 218.339 49.7393C217.387 50.3399 216.911 51.314 216.911 52.6617C216.911 53.6871 217.204 54.5074 217.79 55.1226C218.376 55.7378 219.182 56.0455 220.207 56.0455C221.203 56.0455 222.148 55.7745 223.042 55.2325C223.935 54.6905 224.697 54.1045 225.327 53.4747C225.957 52.8448 226.271 52.5005 226.271 52.4419V48.8384H223.129ZM241.455 55.8477C241.455 55.877 241.828 55.9576 242.575 56.0894C243.322 56.2066 244.208 56.2652 245.234 56.2652C248.618 56.2652 250.317 55.0787 250.332 52.7056C250.332 51.7388 249.914 51.0137 249.079 50.5303C248.259 50.0323 246.977 49.5123 245.234 48.9703C243.637 48.4576 242.341 47.9668 241.345 47.4981C240.363 47.0147 239.521 46.3262 238.818 45.4327C238.115 44.5245 237.763 43.3526 237.763 41.917C237.763 39.6612 238.525 37.9253 240.048 36.7095C241.586 35.4937 243.571 34.8858 246.003 34.8858C247.058 34.8858 248.149 34.9883 249.277 35.1934C250.419 35.3838 251.386 35.5889 252.177 35.8086C252.983 36.0284 253.488 36.1749 253.693 36.2481L253.562 42.3125H250.639L249.914 38.7969C249.826 38.7676 249.628 38.709 249.321 38.6211C249.028 38.5332 248.61 38.4527 248.068 38.3794C247.526 38.3062 246.926 38.2696 246.267 38.2696C243.601 38.2696 242.268 39.273 242.268 41.2798C242.268 42.2466 242.692 42.9937 243.542 43.521C244.406 44.0337 245.703 44.5757 247.431 45.147C248.984 45.689 250.258 46.1944 251.254 46.6631C252.25 47.1172 253.093 47.7837 253.781 48.6626C254.47 49.5269 254.814 50.6182 254.814 51.9366C254.814 54.4268 253.876 56.3311 252.001 57.6495C250.126 58.9678 247.768 59.627 244.926 59.627C243.696 59.627 242.553 59.5538 241.499 59.4073C240.444 59.2608 239.602 59.1143 238.972 58.9678C238.342 58.8213 237.954 58.7115 237.807 58.6382V51.9805H240.971L241.455 55.8477Z" fill="#9FD1DD"/>
<g filter="url(#filter0_d_140_221)">
<path d="M120.851 79.7844L136.711 79.778C136.931 79.7779 137.134 80.1314 137.244 80.7054L145.172 122.094C145.282 122.668 145.282 123.375 145.172 123.949L112.386 123.963C112.276 123.389 112.276 122.681 112.386 122.107L120.318 80.7122C120.428 80.1382 120.631 79.7845 120.851 79.7844Z" fill="#9FD1DD"/>
</g>
<defs>
<filter id="filter0_d_140_221" x="112.303" y="79.778" width="34.9512" height="47.1846" filterUnits="userSpaceOnUse" color-interpolation-filters="sRGB">
<feFlood flood-opacity="0" result="BackgroundImageFix"/>
<feColorMatrix in="SourceAlpha" type="matrix" values="0 0 0 0 0 0 0 0 0 0 0 0 0 0 0 0 0 0 127 0" result="hardAlpha"/>
<feOffset dx="2" dy="3"/>
<feComposite in2="hardAlpha" operator="out"/>
<feColorMatrix type="matrix" values="0 0 0 0 0.0705882 0 0 0 0 0.0862745 0 0 0 0 0.105882 0 0 0 1 0"/>
<feBlend mode="normal" in2="BackgroundImageFix" result="effect1_dropShadow_140_221"/>
<feBlend mode="normal" in="SourceGraphic" in2="effect1_dropShadow_140_221" result="shape"/>
</filter>
</defs>
</svg>
