<svg width="301" height="122" viewBox="0 0 301 122" fill="none" xmlns="http://www.w3.org/2000/svg">
<path d="M6.66748 62.1548L2.84424 61.2539V58.793L11.3916 58.5513H17.0166C21.4551 58.5513 24.9268 59.8843 27.4316 62.5503C29.9365 65.2017 31.189 68.9736 31.189 73.8662C31.189 77.1328 30.5811 79.9893 29.3652 82.4355C28.1641 84.8818 26.4355 86.7642 24.1797 88.0825C21.9238 89.4009 19.3164 90.0601 16.3574 90.0601H2.84424V87.3574L6.66748 86.4565V62.1548ZM16.5771 86.4565C19.5215 86.4565 21.8286 85.4312 23.4985 83.3804C25.1831 81.3296 26.0254 78.2314 26.0254 74.0859C26.0254 70.043 25.2124 67.0474 23.5864 65.0991C21.9751 63.1362 19.7119 62.1548 16.7969 62.1548H11.3916V86.4565H16.5771ZM39.4946 80.0601C39.4946 82.2476 40.0285 83.9989 41.0962 85.314C42.1639 86.616 43.5636 87.2671 45.2954 87.2671C46.4673 87.2671 47.5545 87.1043 48.5571 86.7788C49.5597 86.4533 50.3866 86.1017 51.0376 85.7241C51.6886 85.3335 52.0142 85.1121 52.0142 85.0601L53.4204 87.1304C53.4204 87.1825 52.9842 87.508 52.1118 88.1069C51.2524 88.6929 50.1847 89.2332 48.9087 89.728C47.6457 90.2098 46.3045 90.4507 44.8853 90.4507C41.7342 90.4507 39.3449 89.5002 37.7173 87.5991C36.1027 85.6981 35.2954 83.0549 35.2954 79.6694C35.2954 77.5601 35.7056 75.6525 36.5259 73.9468C37.3592 72.241 38.5181 70.8999 40.0024 69.9233C41.4998 68.9468 43.1991 68.4585 45.1001 68.4585C50.6991 68.4585 53.4985 71.59 53.4985 77.853C53.4985 78.2827 53.4725 78.7124 53.4204 79.1421C53.3683 79.5718 53.3293 79.8517 53.3032 79.9819L39.4946 80.0601ZM49.2603 77.0522C49.2603 75.4246 48.9087 74.1095 48.2056 73.1069C47.5155 72.0913 46.4087 71.5835 44.8853 71.5835C43.3358 71.5835 42.1053 72.1043 41.1938 73.146C40.2954 74.1877 39.7811 75.4897 39.6509 77.0522H49.2603ZM60.3735 87.0913C60.3735 87.1174 60.7056 87.189 61.3696 87.3062C62.0337 87.4103 62.8215 87.4624 63.7329 87.4624C66.7407 87.4624 68.2511 86.4077 68.2642 84.2983C68.2642 83.439 67.8931 82.7944 67.1509 82.3647C66.4217 81.922 65.2824 81.4598 63.7329 80.978C62.3136 80.5223 61.1613 80.0861 60.2759 79.6694C59.4035 79.2397 58.6548 78.6278 58.0298 77.8335C57.4048 77.0262 57.0923 75.9845 57.0923 74.7085C57.0923 72.7033 57.7694 71.1603 59.1235 70.0796C60.4907 68.9989 62.255 68.4585 64.4165 68.4585C65.354 68.4585 66.3241 68.5496 67.3267 68.7319C68.3423 68.9012 69.2017 69.0835 69.9048 69.2788C70.6209 69.4741 71.0701 69.6043 71.2524 69.6694L71.1353 75.0601H68.5376L67.8931 71.9351C67.8149 71.909 67.6392 71.8569 67.3657 71.7788C67.1053 71.7007 66.7342 71.6291 66.2524 71.564C65.7707 71.4989 65.2368 71.4663 64.6509 71.4663C62.2811 71.4663 61.0962 72.3582 61.0962 74.1421C61.0962 75.0015 61.4738 75.6655 62.229 76.1343C62.9972 76.59 64.1496 77.0718 65.686 77.5796C67.0662 78.0614 68.1991 78.5106 69.0845 78.9272C69.9699 79.3309 70.7186 79.9233 71.3306 80.7046C71.9425 81.4728 72.2485 82.4429 72.2485 83.6147C72.2485 85.8283 71.4152 87.521 69.7485 88.6929C68.0819 89.8647 65.9855 90.4507 63.4595 90.4507C62.3657 90.4507 61.3501 90.3856 60.4126 90.2554C59.4751 90.1252 58.7264 89.995 58.1665 89.8647C57.6066 89.7345 57.2616 89.6369 57.1313 89.5718V83.6538H59.9438L60.3735 87.0913ZM77.0532 70.0601C77.2616 69.9819 77.7824 69.8192 78.6157 69.5718C79.4621 69.3114 80.4582 69.064 81.604 68.8296C82.7498 68.5822 83.8306 68.4585 84.8462 68.4585C87.2681 68.4585 89.104 68.9403 90.354 69.9038C91.617 70.8674 92.2485 72.4559 92.2485 74.6694V86.8569L95.4517 87.6577V89.8647L89.2407 90.0601L88.4009 87.2671C87.5415 88.1265 86.5454 88.8752 85.4126 89.5132C84.2928 90.1382 83.1014 90.4507 81.8384 90.4507C79.9504 90.4507 78.479 89.9299 77.4243 88.8882C76.3696 87.8335 75.8423 86.3556 75.8423 84.4546C75.8423 82.241 76.6366 80.659 78.2251 79.7085C79.8136 78.745 82.0858 78.2632 85.0415 78.2632H88.2446V75.0601C88.2446 73.8882 87.9191 72.9963 87.2681 72.3843C86.617 71.7723 85.673 71.4663 84.436 71.4663C83.7199 71.4663 83.0623 71.5119 82.4634 71.603C81.8644 71.6942 81.3892 71.7853 81.0376 71.8765C80.6991 71.9676 80.4907 72.0262 80.4126 72.0522L79.8462 75.0601H77.2485L77.0532 70.0601ZM85.4517 80.8608C83.4725 80.8608 82.0532 81.1278 81.1938 81.6616C80.3475 82.1955 79.9243 83.0614 79.9243 84.2593C79.9243 85.1707 80.1847 85.8999 80.7056 86.4468C81.2264 86.9937 81.9425 87.2671 82.854 87.2671C83.7394 87.2671 84.5793 87.0262 85.3735 86.5444C86.1678 86.0627 86.8449 85.5418 87.4048 84.9819C87.9647 84.422 88.2446 84.116 88.2446 84.064V80.8608H85.4517ZM105.217 71.7788C105.972 70.9585 106.864 70.2033 107.893 69.5132C108.935 68.8101 110.061 68.4585 111.272 68.4585C111.858 68.4585 112.411 68.5041 112.932 68.5952C113.466 68.6864 113.902 68.784 114.241 68.8882C114.579 68.9793 114.788 69.0379 114.866 69.064L114.67 74.8647H112.053L111.467 71.8569C110.139 71.8569 108.993 72.1759 108.03 72.814C107.066 73.452 106.278 74.1746 105.667 74.9819V86.8569L109.67 87.853V90.0601H98.2642V87.853L101.663 86.8569V72.0522L98.2642 71.2515V69.064L104.866 68.8687L105.217 71.7788ZM123.811 71.7788C124.566 70.9585 125.458 70.2033 126.487 69.5132C127.528 68.8101 128.655 68.4585 129.866 68.4585C130.452 68.4585 131.005 68.5041 131.526 68.5952C132.06 68.6864 132.496 68.784 132.834 68.8882C133.173 68.9793 133.381 69.0379 133.459 69.064L133.264 74.8647H130.647L130.061 71.8569C128.733 71.8569 127.587 72.1759 126.624 72.814C125.66 73.452 124.872 74.1746 124.26 74.9819V86.8569L128.264 87.853V90.0601H116.858V87.853L120.256 86.8569V72.0522L116.858 71.2515V69.064L123.459 68.8687L123.811 71.7788ZM145.647 68.4585C148.603 68.4585 150.907 69.4155 152.561 71.3296C154.215 73.2306 155.042 75.8088 155.042 79.064C155.042 81.3035 154.625 83.2892 153.792 85.021C152.971 86.7528 151.799 88.0939 150.276 89.0444C148.765 89.9819 147.021 90.4507 145.042 90.4507C142.008 90.4507 139.651 89.5392 137.971 87.7163C136.292 85.8934 135.452 83.2111 135.452 79.6694C135.452 77.4299 135.881 75.4637 136.741 73.771C137.613 72.0653 138.818 70.7567 140.354 69.8452C141.89 68.9207 143.655 68.4585 145.647 68.4585ZM145.452 71.6616C143.472 71.6616 142.008 72.3127 141.057 73.6147C140.12 74.9038 139.651 76.8504 139.651 79.4546C139.651 84.6499 141.519 87.2541 145.256 87.2671C147.209 87.2671 148.629 86.603 149.514 85.2749C150.4 83.9338 150.842 81.9285 150.842 79.2593C150.842 74.1942 149.045 71.6616 145.452 71.6616ZM168.733 90.0601H157.659V87.853L161.057 86.8569V62.4624L157.659 61.6616V59.4546L165.139 59.2593V86.8569L168.733 87.853V90.0601ZM180.999 90.0601H169.924V87.853L173.323 86.8569V62.4624L169.924 61.6616V59.4546L177.405 59.2593V86.8569L180.999 87.853V90.0601ZM192.991 68.4585C195.946 68.4585 198.251 69.4155 199.905 71.3296C201.558 73.2306 202.385 75.8088 202.385 79.064C202.385 81.3035 201.969 83.2892 201.135 85.021C200.315 86.7528 199.143 88.0939 197.62 89.0444C196.109 89.9819 194.364 90.4507 192.385 90.4507C189.351 90.4507 186.995 89.5392 185.315 87.7163C183.635 85.8934 182.795 83.2111 182.795 79.6694C182.795 77.4299 183.225 75.4637 184.084 73.771C184.957 72.0653 186.161 70.7567 187.698 69.8452C189.234 68.9207 190.999 68.4585 192.991 68.4585ZM192.795 71.6616C190.816 71.6616 189.351 72.3127 188.401 73.6147C187.463 74.9038 186.995 76.8504 186.995 79.4546C186.995 84.6499 188.863 87.2541 192.6 87.2671C194.553 87.2671 195.972 86.603 196.858 85.2749C197.743 83.9338 198.186 81.9285 198.186 79.2593C198.186 74.1942 196.389 71.6616 192.795 71.6616Z" fill="#B3DBE6"/>
<path d="M213.42 62.2671L224.631 62.0522V64.4546L221.155 65.2554L225.432 83.3804L232.034 62.2671L235.823 62.0522L242.307 83.8296L247.268 65.2554L243.616 64.4546V62.2671L254.417 62.0522V64.4546L251.272 65.2554L244.221 90.0601H239.827L235.022 71.6616L233.87 67.3452L232.62 71.8569L227.229 90.0601H223.225L216.545 65.2554L213.42 64.4546V62.2671ZM260.432 80.0601C260.432 82.2476 260.966 83.9989 262.034 85.314C263.101 86.616 264.501 87.2671 266.233 87.2671C267.405 87.2671 268.492 87.1043 269.495 86.7788C270.497 86.4533 271.324 86.1017 271.975 85.7241C272.626 85.3335 272.952 85.1121 272.952 85.0601L274.358 87.1304C274.358 87.1825 273.922 87.508 273.049 88.1069C272.19 88.6929 271.122 89.2332 269.846 89.728C268.583 90.2098 267.242 90.4507 265.823 90.4507C262.672 90.4507 260.282 89.5002 258.655 87.5991C257.04 85.6981 256.233 83.0549 256.233 79.6694C256.233 77.5601 256.643 75.6525 257.463 73.9468C258.297 72.241 259.456 70.8999 260.94 69.9233C262.437 68.9468 264.137 68.4585 266.038 68.4585C271.637 68.4585 274.436 71.59 274.436 77.853C274.436 78.2827 274.41 78.7124 274.358 79.1421C274.306 79.5718 274.267 79.8517 274.241 79.9819L260.432 80.0601ZM270.198 77.0522C270.198 75.4246 269.846 74.1095 269.143 73.1069C268.453 72.0913 267.346 71.5835 265.823 71.5835C264.273 71.5835 263.043 72.1043 262.131 73.146C261.233 74.1877 260.719 75.4897 260.588 77.0522H270.198ZM283.635 70.7827C285.601 69.2332 287.6 68.4585 289.631 68.4585C292.431 68.4585 294.527 69.3895 295.92 71.2515C297.327 73.1004 298.03 75.6395 298.03 78.8687C298.03 81.1603 297.607 83.1785 296.76 84.9233C295.927 86.6681 294.683 88.0288 293.03 89.0054C291.376 89.9689 289.377 90.4507 287.034 90.4507C285.732 90.4507 284.534 90.3791 283.44 90.2358C282.346 90.0926 281.474 89.9429 280.823 89.7866C280.185 89.6174 279.788 89.5067 279.631 89.4546V62.4624L276.428 61.6616V59.4546L283.635 59.2593V70.7827ZM283.635 86.8569C283.635 86.883 283.993 86.9611 284.709 87.0913C285.426 87.2085 286.402 87.2671 287.639 87.2671C289.827 87.2671 291.402 86.5314 292.366 85.0601C293.342 83.5887 293.831 81.6551 293.831 79.2593C293.831 76.9155 293.42 75.0666 292.6 73.7124C291.793 72.3452 290.536 71.6616 288.831 71.6616C287.763 71.6616 286.838 71.8569 286.057 72.2476C285.289 72.6252 284.69 73.0353 284.26 73.478C283.844 73.9207 283.635 74.1812 283.635 74.2593V86.8569Z" fill="#406B76"/>
<g filter="url(#filter0_d_133_197)">
<path d="M158.253 44.6342L142.393 44.6407C142.173 44.6408 141.97 44.2872 141.86 43.7133L133.932 2.32469C133.822 1.75071 133.822 1.04349 133.932 0.469422L166.718 0.456116C166.828 1.03009 166.828 1.73731 166.718 2.31137L158.786 43.7064C158.676 44.2805 158.473 44.6342 158.253 44.6342Z" fill="#9FD1DD"/>
</g>
<defs>
<filter id="filter0_d_133_197" x="133.849" y="0.456116" width="34.9512" height="47.1846" filterUnits="userSpaceOnUse" color-interpolation-filters="sRGB">
<feFlood flood-opacity="0" result="BackgroundImageFix"/>
<feColorMatrix in="SourceAlpha" type="matrix" values="0 0 0 0 0 0 0 0 0 0 0 0 0 0 0 0 0 0 127 0" result="hardAlpha"/>
<feOffset dx="2" dy="3"/>
<feComposite in2="hardAlpha" operator="out"/>
<feColorMatrix type="matrix" values="0 0 0 0 0.0705882 0 0 0 0 0.0862745 0 0 0 0 0.105882 0 0 0 1 0"/>
<feBlend mode="normal" in2="BackgroundImageFix" result="effect1_dropShadow_133_197"/>
<feBlend mode="normal" in="SourceGraphic" in2="effect1_dropShadow_133_197" result="shape"/>
</filter>
</defs>
</svg>
