<svg width="316" height="69" viewBox="0 0 316 69" fill="none" xmlns="http://www.w3.org/2000/svg">
<g filter="url(#filter0_d_112_19)">
<path d="M74.0021 32.4166C74.2493 32.8449 74.2493 33.3726 74.0021 33.801L56.1754 64.6874C55.9281 65.1157 55.4713 65.3795 54.9768 65.3795L19.3234 65.3795C18.829 65.3795 18.3721 65.1157 18.1249 64.6873L0.298154 33.801C0.0509336 33.3726 0.0509337 32.8449 0.298154 32.4166L18.1249 1.5302C18.3721 1.10187 18.829 0.83801 19.3234 0.83801L54.9768 0.838012C55.4713 0.838012 55.9282 1.10187 56.1754 1.53021L74.0021 32.4166Z" fill="#46556B"/>
</g>
<path d="M26.6511 19.6078L22.4031 18.6068V15.8724L31.9001 15.6039H38.1501C43.0818 15.6039 46.9392 17.085 49.7224 20.0472C52.5056 22.9932 53.8972 27.1843 53.8972 32.6205C53.8972 36.25 53.2218 39.4239 51.8708 42.142C50.5362 44.8601 48.6156 46.9515 46.1091 48.4164C43.6026 49.8812 40.7055 50.6136 37.4177 50.6136H22.4031V47.6107L26.6511 46.6097V19.6078ZM37.6619 46.6097C40.9333 46.6097 43.4968 45.4704 45.3523 43.1918C47.224 40.9131 48.1599 37.4707 48.1599 32.8646C48.1599 28.3724 47.2566 25.044 45.45 22.8793C43.6596 20.6983 41.1449 19.6078 37.906 19.6078H31.9001V46.6097H37.6619Z" fill="#B3DBE6"/>
<path d="M69.5799 48.5634C67.4777 48.5634 65.6642 48.0994 64.1396 47.1713C62.6244 46.2338 61.4549 44.927 60.6311 43.2509C59.8167 41.5653 59.4095 39.605 59.4095 37.3702C59.4095 35.1353 59.8167 33.1656 60.6311 31.4611C61.4549 29.7471 62.6008 28.4119 64.0686 27.4554C65.5458 26.4895 67.2693 26.0066 69.239 26.0066C70.3754 26.0066 71.4975 26.1959 72.6055 26.5747C73.7134 26.9535 74.722 27.5691 75.6311 28.4213C76.5402 29.2641 77.2646 30.3816 77.8044 31.7736C78.3441 33.1656 78.614 34.8797 78.614 36.9156V38.3361H61.7958V35.4384H75.2049C75.2049 34.2073 74.9587 33.1088 74.4663 32.1429C73.9833 31.177 73.292 30.4147 72.3924 29.856C71.5023 29.2973 70.4511 29.0179 69.239 29.0179C67.9038 29.0179 66.7485 29.3494 65.7731 30.0122C64.8072 30.6656 64.0638 31.5179 63.543 32.5691C63.0222 33.6202 62.7617 34.7471 62.7617 35.9497V37.8816C62.7617 39.5293 63.0458 40.9261 63.614 42.0719C64.1917 43.2083 64.9919 44.0747 66.0146 44.6713C67.0373 45.2584 68.2258 45.552 69.5799 45.552C70.4606 45.552 71.2561 45.4289 71.9663 45.1827C72.686 44.927 73.3062 44.5482 73.8271 44.0463C74.3479 43.535 74.7504 42.9005 75.0345 42.1429L78.2731 43.052C77.9322 44.1505 77.3593 45.1164 76.5544 45.9497C75.7494 46.7736 74.7551 47.4175 73.5714 47.8816C72.3877 48.3361 71.0572 48.5634 69.5799 48.5634ZM99.168 31.177L96.1566 32.0293C95.9672 31.5274 95.6879 31.0397 95.3186 30.5662C94.9587 30.0833 94.4663 29.6855 93.8413 29.373C93.2163 29.0605 92.4161 28.9043 91.4407 28.9043C90.1055 28.9043 88.9928 29.212 88.1027 29.8276C87.222 30.4336 86.7816 31.2054 86.7816 32.1429C86.7816 32.9762 87.0847 33.6344 87.6907 34.1173C88.2968 34.6003 89.2437 35.0028 90.5316 35.3247L93.7703 36.1202C95.721 36.5937 97.1746 37.3181 98.1311 38.2935C99.0875 39.2594 99.5657 40.5047 99.5657 42.0293C99.5657 43.2793 99.2059 44.3967 98.4862 45.3816C97.7759 46.3664 96.7816 47.1429 95.5032 47.7111C94.2248 48.2793 92.7381 48.5634 91.043 48.5634C88.8176 48.5634 86.9758 48.0804 85.5174 47.1145C84.0591 46.1486 83.1358 44.7376 82.7475 42.8816L85.9294 42.0861C86.2324 43.2603 86.8053 44.141 87.6481 44.7281C88.5004 45.3153 89.6131 45.6088 90.9862 45.6088C92.5487 45.6088 93.7892 45.2774 94.7078 44.6145C95.6358 43.9422 96.0998 43.1372 96.0998 42.1997C96.0998 41.4422 95.8347 40.8077 95.3044 40.2963C94.7741 39.7755 93.9597 39.3872 92.8612 39.1316L89.2248 38.2793C87.2267 37.8058 85.7589 37.0719 84.8214 36.0776C83.8934 35.0738 83.4294 33.8191 83.4294 32.3134C83.4294 31.0823 83.775 29.9933 84.4663 29.0463C85.167 28.0994 86.1187 27.356 87.3214 26.8162C88.5335 26.2764 89.9066 26.0066 91.4407 26.0066C93.5998 26.0066 95.2949 26.48 96.5259 27.427C97.7665 28.374 98.6472 29.624 99.168 31.177ZM111.032 48.6202C109.65 48.6202 108.395 48.3598 107.268 47.8389C106.141 47.3086 105.246 46.5463 104.583 45.552C103.921 44.5482 103.589 43.3361 103.589 41.9156C103.589 40.6656 103.835 39.6524 104.328 38.8759C104.82 38.0899 105.478 37.4744 106.302 37.0293C107.126 36.5842 108.035 36.2528 109.029 36.035C110.033 35.8077 111.042 35.6278 112.055 35.4952C113.381 35.3247 114.456 35.1969 115.279 35.1117C116.113 35.017 116.719 34.8607 117.098 34.6429C117.486 34.4251 117.68 34.0463 117.68 33.5066V33.3929C117.68 31.9914 117.297 30.9024 116.529 30.1259C115.772 29.3494 114.621 28.9611 113.078 28.9611C111.477 28.9611 110.223 29.3115 109.314 30.0122C108.404 30.713 107.765 31.4611 107.396 32.2566L104.214 31.1202C104.782 29.7944 105.54 28.7622 106.487 28.0236C107.443 27.2755 108.485 26.7547 109.612 26.4611C110.748 26.1581 111.866 26.0066 112.964 26.0066C113.665 26.0066 114.47 26.0918 115.379 26.2622C116.297 26.4232 117.183 26.7594 118.035 27.2708C118.897 27.7821 119.612 28.5539 120.18 29.5861C120.748 30.6183 121.032 32.0009 121.032 33.7338V48.1088H117.68V45.1543H117.51C117.282 45.6278 116.904 46.1344 116.373 46.6742C115.843 47.2139 115.137 47.6732 114.257 48.052C113.376 48.4308 112.301 48.6202 111.032 48.6202ZM111.544 45.6088C112.869 45.6088 113.987 45.3484 114.896 44.8276C115.815 44.3067 116.506 43.6344 116.97 42.8105C117.443 41.9867 117.68 41.1202 117.68 40.2111V37.1429C117.538 37.3134 117.226 37.4696 116.743 37.6117C116.269 37.7442 115.72 37.8626 115.095 37.9668C114.479 38.0615 113.878 38.1467 113.291 38.2225C112.713 38.2887 112.244 38.3456 111.885 38.3929C111.013 38.5066 110.199 38.6912 109.441 38.9469C108.693 39.1931 108.087 39.5672 107.623 40.0691C107.169 40.5615 106.941 41.2338 106.941 42.0861C106.941 43.2509 107.372 44.1316 108.234 44.7281C109.105 45.3153 110.208 45.6088 111.544 45.6088ZM127.151 48.1088V26.2906H130.39V29.5861H130.617C131.015 28.5066 131.734 27.6306 132.776 26.9583C133.818 26.2859 134.992 25.9497 136.299 25.9497C136.545 25.9497 136.853 25.9545 137.222 25.9639C137.591 25.9734 137.871 25.9876 138.06 26.0066V29.4156C137.946 29.3872 137.686 29.3446 137.279 29.2878C136.881 29.2215 136.46 29.1884 136.015 29.1884C134.954 29.1884 134.007 29.4109 133.174 29.856C132.35 30.2916 131.696 30.8977 131.213 31.6742C130.74 32.4412 130.503 33.3172 130.503 34.302V48.1088H127.151ZM142.034 48.1088V26.2906H145.272V29.5861H145.5C145.897 28.5066 146.617 27.6306 147.659 26.9583C148.7 26.2859 149.875 25.9497 151.181 25.9497C151.428 25.9497 151.735 25.9545 152.105 25.9639C152.474 25.9734 152.753 25.9876 152.943 26.0066V29.4156C152.829 29.3872 152.569 29.3446 152.162 29.2878C151.764 29.2215 151.342 29.1884 150.897 29.1884C149.837 29.1884 148.89 29.4109 148.056 29.856C147.233 30.2916 146.579 30.8977 146.096 31.6742C145.623 32.4412 145.386 33.3172 145.386 34.302V48.1088H142.034ZM165.116 48.5634C163.146 48.5634 161.418 48.0946 159.931 47.1571C158.454 46.2196 157.299 44.9081 156.466 43.2225C155.642 41.5369 155.23 39.5672 155.23 37.3134C155.23 35.0406 155.642 33.0567 156.466 31.3617C157.299 29.6666 158.454 28.3503 159.931 27.4128C161.418 26.4753 163.146 26.0066 165.116 26.0066C167.086 26.0066 168.809 26.4753 170.287 27.4128C171.773 28.3503 172.929 29.6666 173.753 31.3617C174.586 33.0567 175.003 35.0406 175.003 37.3134C175.003 39.5672 174.586 41.5369 173.753 43.2225C172.929 44.9081 171.773 46.2196 170.287 47.1571C168.809 48.0946 167.086 48.5634 165.116 48.5634ZM165.116 45.552C166.612 45.552 167.843 45.1685 168.809 44.4014C169.775 43.6344 170.49 42.6259 170.954 41.3759C171.418 40.1259 171.65 38.7717 171.65 37.3134C171.65 35.855 171.418 34.4961 170.954 33.2367C170.49 31.9772 169.775 30.9592 168.809 30.1827C167.843 29.4062 166.612 29.0179 165.116 29.0179C163.62 29.0179 162.389 29.4062 161.423 30.1827C160.457 30.9592 159.742 31.9772 159.278 33.2367C158.814 34.4961 158.582 35.855 158.582 37.3134C158.582 38.7717 158.814 40.1259 159.278 41.3759C159.742 42.6259 160.457 43.6344 161.423 44.4014C162.389 45.1685 163.62 45.552 165.116 45.552ZM183.472 19.0179V48.1088H180.12V19.0179H183.472ZM192.964 19.0179V48.1088H189.612V19.0179H192.964ZM207.968 48.5634C205.998 48.5634 204.27 48.0946 202.783 47.1571C201.306 46.2196 200.15 44.9081 199.317 43.2225C198.493 41.5369 198.081 39.5672 198.081 37.3134C198.081 35.0406 198.493 33.0567 199.317 31.3617C200.15 29.6666 201.306 28.3503 202.783 27.4128C204.27 26.4753 205.998 26.0066 207.968 26.0066C209.937 26.0066 211.661 26.4753 213.138 27.4128C214.625 28.3503 215.78 29.6666 216.604 31.3617C217.437 33.0567 217.854 35.0406 217.854 37.3134C217.854 39.5672 217.437 41.5369 216.604 43.2225C215.78 44.9081 214.625 46.2196 213.138 47.1571C211.661 48.0946 209.937 48.5634 207.968 48.5634ZM207.968 45.552C209.464 45.552 210.695 45.1685 211.661 44.4014C212.627 43.6344 213.342 42.6259 213.806 41.3759C214.27 40.1259 214.502 38.7717 214.502 37.3134C214.502 35.855 214.27 34.4961 213.806 33.2367C213.342 31.9772 212.627 30.9592 211.661 30.1827C210.695 29.4062 209.464 29.0179 207.968 29.0179C206.471 29.0179 205.24 29.4062 204.275 30.1827C203.309 30.9592 202.594 31.9772 202.13 33.2367C201.666 34.4961 201.434 35.855 201.434 37.3134C201.434 38.7717 201.666 40.1259 202.13 41.3759C202.594 42.6259 203.309 43.6344 204.275 44.4014C205.24 45.1685 206.471 45.552 207.968 45.552Z" fill="#69949F"/>
<path d="M239.96 48.1088L232.005 19.0179H235.585L241.664 42.7111H241.949L248.142 19.0179H252.119L258.312 42.7111H258.596L264.676 19.0179H268.255L260.301 48.1088H256.664L250.244 24.927H250.017L243.596 48.1088H239.96ZM279.306 48.5634C277.204 48.5634 275.391 48.0994 273.866 47.1713C272.351 46.2338 271.181 44.927 270.358 43.2509C269.543 41.5653 269.136 39.605 269.136 37.3702C269.136 35.1353 269.543 33.1656 270.358 31.4611C271.181 29.7471 272.327 28.4119 273.795 27.4554C275.272 26.4895 276.996 26.0066 278.966 26.0066C280.102 26.0066 281.224 26.1959 282.332 26.5747C283.44 26.9535 284.449 27.5691 285.358 28.4213C286.267 29.2641 286.991 30.3816 287.531 31.7736C288.071 33.1656 288.341 34.8797 288.341 36.9156V38.3361H271.522V35.4384H284.931C284.931 34.2073 284.685 33.1088 284.193 32.1429C283.71 31.177 283.019 30.4147 282.119 29.856C281.229 29.2973 280.178 29.0179 278.966 29.0179C277.63 29.0179 276.475 29.3494 275.5 30.0122C274.534 30.6656 273.79 31.5179 273.27 32.5691C272.749 33.6202 272.488 34.7471 272.488 35.9497V37.8816C272.488 39.5293 272.772 40.9261 273.341 42.0719C273.918 43.2083 274.718 44.0747 275.741 44.6713C276.764 45.2584 277.952 45.552 279.306 45.552C280.187 45.552 280.983 45.4289 281.693 45.1827C282.413 44.927 283.033 44.5482 283.554 44.0463C284.074 43.535 284.477 42.9005 284.761 42.1429L288 43.052C287.659 44.1505 287.086 45.1164 286.281 45.9497C285.476 46.7736 284.482 47.4175 283.298 47.8816C282.114 48.3361 280.784 48.5634 279.306 48.5634ZM293.895 48.1088V19.0179H297.247V29.7566H297.531C297.777 29.3778 298.118 28.8948 298.554 28.3077C298.999 27.7111 299.633 27.1808 300.457 26.7168C301.29 26.2433 302.417 26.0066 303.838 26.0066C305.675 26.0066 307.294 26.4658 308.696 27.3844C310.097 28.303 311.191 29.605 311.977 31.2906C312.763 32.9762 313.156 34.9649 313.156 37.2566C313.156 39.5672 312.763 41.57 311.977 43.2651C311.191 44.9507 310.102 46.2575 308.71 47.1855C307.318 48.1041 305.713 48.5634 303.895 48.5634C302.493 48.5634 301.371 48.3314 300.528 47.8673C299.685 47.3939 299.037 46.8588 298.582 46.2622C298.128 45.6562 297.777 45.1543 297.531 44.7566H297.133V48.1088H293.895ZM297.19 37.1997C297.19 38.8475 297.431 40.3011 297.914 41.5605C298.397 42.8105 299.103 43.7906 300.031 44.5009C300.959 45.2016 302.095 45.552 303.44 45.552C304.842 45.552 306.011 45.1827 306.949 44.4441C307.896 43.6959 308.606 42.6922 309.079 41.4327C309.562 40.1637 309.804 38.7528 309.804 37.1997C309.804 35.6656 309.567 34.2831 309.093 33.052C308.629 31.8115 307.924 30.8314 306.977 30.1117C306.039 29.3825 304.86 29.0179 303.44 29.0179C302.076 29.0179 300.931 29.3636 300.003 30.0548C299.074 30.7367 298.374 31.6931 297.9 32.9242C297.427 34.1458 297.19 35.5709 297.19 37.1997Z" fill="#B3DBE6"/>
<defs>
<filter id="filter0_d_112_19" x="0.112793" y="0.838013" width="76.0747" height="67.5415" filterUnits="userSpaceOnUse" color-interpolation-filters="sRGB">
<feFlood flood-opacity="0" result="BackgroundImageFix"/>
<feColorMatrix in="SourceAlpha" type="matrix" values="0 0 0 0 0 0 0 0 0 0 0 0 0 0 0 0 0 0 127 0" result="hardAlpha"/>
<feOffset dx="2" dy="3"/>
<feComposite in2="hardAlpha" operator="out"/>
<feColorMatrix type="matrix" values="0 0 0 0 0.0705882 0 0 0 0 0.0862745 0 0 0 0 0.105882 0 0 0 1 0"/>
<feBlend mode="normal" in2="BackgroundImageFix" result="effect1_dropShadow_112_19"/>
<feBlend mode="normal" in="SourceGraphic" in2="effect1_dropShadow_112_19" result="shape"/>
</filter>
</defs>
</svg>
