<svg width="315" height="66" viewBox="0 0 315 66" fill="none" xmlns="http://www.w3.org/2000/svg">
<path d="M74.0021 32.4166C74.2493 32.8449 74.2493 33.3726 74.0021 33.801L56.1754 64.6874C55.9281 65.1157 55.4713 65.3795 54.9768 65.3795L19.3234 65.3795C18.829 65.3795 18.3721 65.1157 18.1249 64.6873L0.298154 33.801C0.0509336 33.3726 0.0509337 32.8449 0.298154 32.4166L18.1249 1.5302C18.3721 1.10187 18.829 0.83801 19.3234 0.83801L54.9768 0.838012C55.4713 0.838012 55.9282 1.10187 56.1754 1.53021L74.0021 32.4166Z" fill="#46556B"/>
<path d="M25.3826 18.7538L21.1345 17.7528V15.0184L30.6316 14.7499H36.8816C41.8132 14.7499 45.6707 16.231 48.4539 19.1932C51.2371 22.1392 52.6287 26.3303 52.6287 31.7665C52.6287 35.396 51.9532 38.5699 50.6023 41.288C49.2677 44.0061 47.3471 46.0975 44.8406 47.5624C42.3341 49.0272 39.4369 49.7596 36.1492 49.7596H21.1345V46.7567L25.3826 45.7557V18.7538ZM36.3933 45.7557C39.6648 45.7557 42.2283 44.6164 44.0837 42.3378C45.9555 40.0591 46.8914 36.6167 46.8914 32.0106C46.8914 27.5184 45.988 24.19 44.1814 22.0253C42.391 19.8443 39.8764 18.7538 36.6375 18.7538H30.6316V45.7557H36.3933Z" fill="#B3DBE6"/>
<path d="M68.5799 48.5634C66.4777 48.5634 64.6642 48.0994 63.1396 47.1713C61.6244 46.2338 60.4549 44.927 59.6311 43.2509C58.8167 41.5653 58.4095 39.605 58.4095 37.3702C58.4095 35.1353 58.8167 33.1656 59.6311 31.4611C60.4549 29.7471 61.6008 28.4119 63.0686 27.4554C64.5458 26.4895 66.2693 26.0066 68.239 26.0066C69.3754 26.0066 70.4975 26.1959 71.6055 26.5747C72.7134 26.9535 73.722 27.5691 74.6311 28.4213C75.5402 29.2641 76.2646 30.3816 76.8044 31.7736C77.3441 33.1656 77.614 34.8797 77.614 36.9156V38.3361H60.7958V35.4384H74.2049C74.2049 34.2073 73.9587 33.1088 73.4663 32.1429C72.9833 31.177 72.292 30.4147 71.3924 29.856C70.5023 29.2973 69.4511 29.0179 68.239 29.0179C66.9038 29.0179 65.7485 29.3494 64.7731 30.0122C63.8072 30.6656 63.0638 31.5179 62.543 32.5691C62.0222 33.6202 61.7617 34.7471 61.7617 35.9497V37.8816C61.7617 39.5293 62.0458 40.9261 62.614 42.0719C63.1917 43.2083 63.9919 44.0747 65.0146 44.6713C66.0373 45.2584 67.2258 45.552 68.5799 45.552C69.4606 45.552 70.2561 45.4289 70.9663 45.1827C71.686 44.927 72.3062 44.5482 72.8271 44.0463C73.3479 43.535 73.7504 42.9005 74.0345 42.1429L77.2731 43.052C76.9322 44.1505 76.3593 45.1164 75.5544 45.9497C74.7494 46.7736 73.7551 47.4175 72.5714 47.8816C71.3877 48.3361 70.0572 48.5634 68.5799 48.5634ZM98.168 31.177L95.1566 32.0293C94.9672 31.5274 94.6879 31.0397 94.3186 30.5662C93.9587 30.0833 93.4663 29.6855 92.8413 29.373C92.2163 29.0605 91.4161 28.9043 90.4407 28.9043C89.1055 28.9043 87.9928 29.212 87.1027 29.8276C86.222 30.4336 85.7816 31.2054 85.7816 32.1429C85.7816 32.9762 86.0847 33.6344 86.6907 34.1173C87.2968 34.6003 88.2437 35.0028 89.5316 35.3247L92.7703 36.1202C94.721 36.5937 96.1746 37.3181 97.1311 38.2935C98.0875 39.2594 98.5657 40.5047 98.5657 42.0293C98.5657 43.2793 98.2059 44.3967 97.4862 45.3816C96.7759 46.3664 95.7816 47.1429 94.5032 47.7111C93.2248 48.2793 91.7381 48.5634 90.043 48.5634C87.8176 48.5634 85.9758 48.0804 84.5174 47.1145C83.0591 46.1486 82.1358 44.7376 81.7475 42.8816L84.9294 42.0861C85.2324 43.2603 85.8053 44.141 86.6481 44.7281C87.5004 45.3153 88.6131 45.6088 89.9862 45.6088C91.5487 45.6088 92.7892 45.2774 93.7078 44.6145C94.6358 43.9422 95.0998 43.1372 95.0998 42.1997C95.0998 41.4422 94.8347 40.8077 94.3044 40.2963C93.7741 39.7755 92.9597 39.3872 91.8612 39.1316L88.2248 38.2793C86.2267 37.8058 84.7589 37.0719 83.8214 36.0776C82.8934 35.0738 82.4294 33.8191 82.4294 32.3134C82.4294 31.0823 82.775 29.9933 83.4663 29.0463C84.167 28.0994 85.1187 27.356 86.3214 26.8162C87.5335 26.2764 88.9066 26.0066 90.4407 26.0066C92.5998 26.0066 94.2949 26.48 95.5259 27.427C96.7665 28.374 97.6472 29.624 98.168 31.177ZM110.032 48.6202C108.65 48.6202 107.395 48.3598 106.268 47.8389C105.141 47.3086 104.246 46.5463 103.583 45.552C102.921 44.5482 102.589 43.3361 102.589 41.9156C102.589 40.6656 102.835 39.6524 103.328 38.8759C103.82 38.0899 104.478 37.4744 105.302 37.0293C106.126 36.5842 107.035 36.2528 108.029 36.035C109.033 35.8077 110.042 35.6278 111.055 35.4952C112.381 35.3247 113.456 35.1969 114.279 35.1117C115.113 35.017 115.719 34.8607 116.098 34.6429C116.486 34.4251 116.68 34.0463 116.68 33.5066V33.3929C116.68 31.9914 116.297 30.9024 115.529 30.1259C114.772 29.3494 113.621 28.9611 112.078 28.9611C110.477 28.9611 109.223 29.3115 108.314 30.0122C107.404 30.713 106.765 31.4611 106.396 32.2566L103.214 31.1202C103.782 29.7944 104.54 28.7622 105.487 28.0236C106.443 27.2755 107.485 26.7547 108.612 26.4611C109.748 26.1581 110.866 26.0066 111.964 26.0066C112.665 26.0066 113.47 26.0918 114.379 26.2622C115.297 26.4232 116.183 26.7594 117.035 27.2708C117.897 27.7821 118.612 28.5539 119.18 29.5861C119.748 30.6183 120.032 32.0009 120.032 33.7338V48.1088H116.68V45.1543H116.51C116.282 45.6278 115.904 46.1344 115.373 46.6742C114.843 47.2139 114.137 47.6732 113.257 48.052C112.376 48.4308 111.301 48.6202 110.032 48.6202ZM110.544 45.6088C111.869 45.6088 112.987 45.3484 113.896 44.8276C114.815 44.3067 115.506 43.6344 115.97 42.8105C116.443 41.9867 116.68 41.1202 116.68 40.2111V37.1429C116.538 37.3134 116.226 37.4696 115.743 37.6117C115.269 37.7442 114.72 37.8626 114.095 37.9668C113.479 38.0615 112.878 38.1467 112.291 38.2225C111.713 38.2887 111.244 38.3456 110.885 38.3929C110.013 38.5066 109.199 38.6912 108.441 38.9469C107.693 39.1931 107.087 39.5672 106.623 40.0691C106.169 40.5615 105.941 41.2338 105.941 42.0861C105.941 43.2509 106.372 44.1316 107.234 44.7281C108.105 45.3153 109.208 45.6088 110.544 45.6088ZM126.151 48.1088V26.2906H129.39V29.5861H129.617C130.015 28.5066 130.734 27.6306 131.776 26.9583C132.818 26.2859 133.992 25.9497 135.299 25.9497C135.545 25.9497 135.853 25.9545 136.222 25.9639C136.591 25.9734 136.871 25.9876 137.06 26.0066V29.4156C136.946 29.3872 136.686 29.3446 136.279 29.2878C135.881 29.2215 135.46 29.1884 135.015 29.1884C133.954 29.1884 133.007 29.4109 132.174 29.856C131.35 30.2916 130.696 30.8977 130.213 31.6742C129.74 32.4412 129.503 33.3172 129.503 34.302V48.1088H126.151ZM141.034 48.1088V26.2906H144.272V29.5861H144.5C144.897 28.5066 145.617 27.6306 146.659 26.9583C147.7 26.2859 148.875 25.9497 150.181 25.9497C150.428 25.9497 150.735 25.9545 151.105 25.9639C151.474 25.9734 151.753 25.9876 151.943 26.0066V29.4156C151.829 29.3872 151.569 29.3446 151.162 29.2878C150.764 29.2215 150.342 29.1884 149.897 29.1884C148.837 29.1884 147.89 29.4109 147.056 29.856C146.233 30.2916 145.579 30.8977 145.096 31.6742C144.623 32.4412 144.386 33.3172 144.386 34.302V48.1088H141.034ZM164.116 48.5634C162.146 48.5634 160.418 48.0946 158.931 47.1571C157.454 46.2196 156.299 44.9081 155.466 43.2225C154.642 41.5369 154.23 39.5672 154.23 37.3134C154.23 35.0406 154.642 33.0567 155.466 31.3617C156.299 29.6666 157.454 28.3503 158.931 27.4128C160.418 26.4753 162.146 26.0066 164.116 26.0066C166.086 26.0066 167.809 26.4753 169.287 27.4128C170.773 28.3503 171.929 29.6666 172.753 31.3617C173.586 33.0567 174.003 35.0406 174.003 37.3134C174.003 39.5672 173.586 41.5369 172.753 43.2225C171.929 44.9081 170.773 46.2196 169.287 47.1571C167.809 48.0946 166.086 48.5634 164.116 48.5634ZM164.116 45.552C165.612 45.552 166.843 45.1685 167.809 44.4014C168.775 43.6344 169.49 42.6259 169.954 41.3759C170.418 40.1259 170.65 38.7717 170.65 37.3134C170.65 35.855 170.418 34.4961 169.954 33.2367C169.49 31.9772 168.775 30.9592 167.809 30.1827C166.843 29.4062 165.612 29.0179 164.116 29.0179C162.62 29.0179 161.389 29.4062 160.423 30.1827C159.457 30.9592 158.742 31.9772 158.278 33.2367C157.814 34.4961 157.582 35.855 157.582 37.3134C157.582 38.7717 157.814 40.1259 158.278 41.3759C158.742 42.6259 159.457 43.6344 160.423 44.4014C161.389 45.1685 162.62 45.552 164.116 45.552ZM182.472 19.0179V48.1088H179.12V19.0179H182.472ZM191.964 19.0179V48.1088H188.612V19.0179H191.964ZM206.968 48.5634C204.998 48.5634 203.27 48.0946 201.783 47.1571C200.306 46.2196 199.15 44.9081 198.317 43.2225C197.493 41.5369 197.081 39.5672 197.081 37.3134C197.081 35.0406 197.493 33.0567 198.317 31.3617C199.15 29.6666 200.306 28.3503 201.783 27.4128C203.27 26.4753 204.998 26.0066 206.968 26.0066C208.937 26.0066 210.661 26.4753 212.138 27.4128C213.625 28.3503 214.78 29.6666 215.604 31.3617C216.437 33.0567 216.854 35.0406 216.854 37.3134C216.854 39.5672 216.437 41.5369 215.604 43.2225C214.78 44.9081 213.625 46.2196 212.138 47.1571C210.661 48.0946 208.937 48.5634 206.968 48.5634ZM206.968 45.552C208.464 45.552 209.695 45.1685 210.661 44.4014C211.627 43.6344 212.342 42.6259 212.806 41.3759C213.27 40.1259 213.502 38.7717 213.502 37.3134C213.502 35.855 213.27 34.4961 212.806 33.2367C212.342 31.9772 211.627 30.9592 210.661 30.1827C209.695 29.4062 208.464 29.0179 206.968 29.0179C205.471 29.0179 204.24 29.4062 203.275 30.1827C202.309 30.9592 201.594 31.9772 201.13 33.2367C200.666 34.4961 200.434 35.855 200.434 37.3134C200.434 38.7717 200.666 40.1259 201.13 41.3759C201.594 42.6259 202.309 43.6344 203.275 44.4014C204.24 45.1685 205.471 45.552 206.968 45.552Z" fill="#69949F"/>
<path d="M238.96 48.1088L231.005 19.0179H234.585L240.664 42.7111H240.949L247.142 19.0179H251.119L257.312 42.7111H257.596L263.676 19.0179H267.255L259.301 48.1088H255.664L249.244 24.927H249.017L242.596 48.1088H238.96ZM278.306 48.5634C276.204 48.5634 274.391 48.0994 272.866 47.1713C271.351 46.2338 270.181 44.927 269.358 43.2509C268.543 41.5653 268.136 39.605 268.136 37.3702C268.136 35.1353 268.543 33.1656 269.358 31.4611C270.181 29.7471 271.327 28.4119 272.795 27.4554C274.272 26.4895 275.996 26.0066 277.966 26.0066C279.102 26.0066 280.224 26.1959 281.332 26.5747C282.44 26.9535 283.449 27.5691 284.358 28.4213C285.267 29.2641 285.991 30.3816 286.531 31.7736C287.071 33.1656 287.341 34.8797 287.341 36.9156V38.3361H270.522V35.4384H283.931C283.931 34.2073 283.685 33.1088 283.193 32.1429C282.71 31.177 282.019 30.4147 281.119 29.856C280.229 29.2973 279.178 29.0179 277.966 29.0179C276.63 29.0179 275.475 29.3494 274.5 30.0122C273.534 30.6656 272.79 31.5179 272.27 32.5691C271.749 33.6202 271.488 34.7471 271.488 35.9497V37.8816C271.488 39.5293 271.772 40.9261 272.341 42.0719C272.918 43.2083 273.718 44.0747 274.741 44.6713C275.764 45.2584 276.952 45.552 278.306 45.552C279.187 45.552 279.983 45.4289 280.693 45.1827C281.413 44.927 282.033 44.5482 282.554 44.0463C283.074 43.535 283.477 42.9005 283.761 42.1429L287 43.052C286.659 44.1505 286.086 45.1164 285.281 45.9497C284.476 46.7736 283.482 47.4175 282.298 47.8816C281.114 48.3361 279.784 48.5634 278.306 48.5634ZM292.895 48.1088V19.0179H296.247V29.7566H296.531C296.777 29.3778 297.118 28.8948 297.554 28.3077C297.999 27.7111 298.633 27.1808 299.457 26.7168C300.29 26.2433 301.417 26.0066 302.838 26.0066C304.675 26.0066 306.294 26.4658 307.696 27.3844C309.097 28.303 310.191 29.605 310.977 31.2906C311.763 32.9762 312.156 34.9649 312.156 37.2566C312.156 39.5672 311.763 41.57 310.977 43.2651C310.191 44.9507 309.102 46.2575 307.71 47.1855C306.318 48.1041 304.713 48.5634 302.895 48.5634C301.493 48.5634 300.371 48.3314 299.528 47.8673C298.685 47.3939 298.037 46.8588 297.582 46.2622C297.128 45.6562 296.777 45.1543 296.531 44.7566H296.133V48.1088H292.895ZM296.19 37.1997C296.19 38.8475 296.431 40.3011 296.914 41.5605C297.397 42.8105 298.103 43.7906 299.031 44.5009C299.959 45.2016 301.095 45.552 302.44 45.552C303.842 45.552 305.011 45.1827 305.949 44.4441C306.896 43.6959 307.606 42.6922 308.079 41.4327C308.562 40.1637 308.804 38.7528 308.804 37.1997C308.804 35.6656 308.567 34.2831 308.093 33.052C307.629 31.8115 306.924 30.8314 305.977 30.1117C305.039 29.3825 303.86 29.0179 302.44 29.0179C301.076 29.0179 299.931 29.3636 299.003 30.0548C298.074 30.7367 297.374 31.6931 296.9 32.9242C296.427 34.1458 296.19 35.5709 296.19 37.1997Z" fill="#B3DBE6"/>
</svg>
